  0
SECTION
  2
HEADER
  9
$ACADVER
  1
AC1006
  9
$EXTMIN
 10
0.999453
 20
1.000000
  9
$EXTMAX
 10
292.827881
 20
877.491333
  0
ENDSEC
  0
SECTION
  2
ENTITIES
  0
POLYLINE
  8
0
  0
VERTEX
  8
0
 10
114.422966
 20
1.000000
  0
VERTEX
  8
0
 10
101.288277
 20
5.770078
  0
VERTEX
  8
0
 10
91.841484
 20
9.220703
  0
VERTEX
  8
0
 10
83.991013
 20
12.116406
  0
VERTEX
  8
0
 10
76.856560
 20
14.786797
  0
VERTEX
  8
0
 10
69.112106
 20
17.738983
  0
VERTEX
  8
0
 10
62.222500
 20
20.415468
  0
VERTEX
  8
0
 10
55.435467
 20
23.103594
  0
VERTEX
  8
0
 10
50.229763
 20
25.226328
  0
VERTEX
  8
0
 10
49.989841
 20
26.819609
  0
VERTEX
  8
0
 10
47.020157
 20
26.741327
  0
VERTEX
  8
0
 10
42.485466
 20
28.887890
  0
VERTEX
  8
0
 10
40.508827
 20
29.856874
  0
VERTEX
  8
0
 10
38.835312
 20
30.703436
  0
VERTEX
  8
0
 10
37.131248
 20
31.594921
  0
VERTEX
  8
0
 10
35.742188
 20
32.346642
  0
VERTEX
  8
0
 10
33.973751
 20
33.338829
  0
VERTEX
  8
0
 10
32.537342
 20
34.175938
  0
VERTEX
  8
0
 10
31.085468
 20
35.052578
  0
VERTEX
  8
0
 10
29.621796
 20
35.969688
  0
VERTEX
  8
0
 10
28.149452
 20
36.928280
  0
VERTEX
  8
0
 10
26.672110
 20
37.929295
  0
VERTEX
  8
0
 10
25.193281
 20
38.973747
  0
VERTEX
  8
0
 10
23.716562
 20
40.062107
  0
VERTEX
  8
0
 10
22.248203
 20
41.191952
  0
VERTEX
  8
0
 10
21.156796
 20
42.064217
  0
VERTEX
  8
0
 10
19.720703
 20
43.256950
  0
VERTEX
  8
0
 10
18.313202
 20
44.480156
  0
VERTEX
  8
0
 10
16.941797
 20
45.729687
  0
VERTEX
  8
0
 10
15.941328
 20
46.681561
  0
VERTEX
  8
0
 10
14.650624
 20
47.967266
  0
VERTEX
  8
0
 10
13.719218
 20
48.941795
  0
VERTEX
  8
0
 10
12.822187
 20
49.922966
  0
VERTEX
  8
0
 10
11.681641
 20
51.238594
  0
VERTEX
  8
0
 10
10.868750
 20
52.228203
  0
VERTEX
  8
0
 10
9.843046
 20
53.547653
  0
VERTEX
  8
0
 10
9.118438
 20
54.534763
  0
VERTEX
  8
0
 10
8.213202
 20
55.843983
  0
VERTEX
  8
0
 10
7.580937
 20
56.818123
  0
VERTEX
  8
0
 10
6.801641
 20
58.102890
  0
VERTEX
  8
0
 10
6.096719
 20
59.367264
  0
VERTEX
  8
0
 10
5.466406
 20
60.609295
  0
VERTEX
  8
0
 10
4.904922
 20
61.837185
  0
VERTEX
  8
0
 10
4.404766
 20
63.061951
  0
VERTEX
  8
0
 10
3.958594
 20
64.294449
  0
VERTEX
  8
0
 10
3.558984
 20
65.545700
  0
VERTEX
  8
0
 10
3.198359
 20
66.826485
  0
VERTEX
  8
0
 10
2.869453
 20
68.148048
  0
VERTEX
  8
0
 10
2.564765
 20
69.520859
  0
VERTEX
  8
0
 10
2.210234
 20
71.318359
  0
VERTEX
  8
0
 10
1.888516
 20
73.188202
  0
VERTEX
  8
0
 10
1.606250
 20
75.105392
  0
VERTEX
  8
0
 10
1.370156
 20
77.044922
  0
VERTEX
  8
0
 10
1.218828
 20
78.595627
  0
VERTEX
  8
0
 10
1.082188
 20
80.511871
  0
VERTEX
  8
0
 10
1.018906
 20
82.011642
  0
VERTEX
  8
0
 10
1.000000
 20
83.477188
  0
VERTEX
  8
0
 10
1.027656
 20
84.922417
  0
VERTEX
  8
0
 10
1.103906
 20
86.363670
  0
VERTEX
  8
0
 10
1.231172
 20
87.816872
  0
VERTEX
  8
0
 10
1.411406
 20
89.298279
  0
VERTEX
  8
0
 10
1.582734
 20
90.437576
  0
VERTEX
  8
0
 10
1.786094
 20
91.608513
  0
VERTEX
  8
0
 10
2.108594
 20
93.231010
  0
VERTEX
  8
0
 10
2.491172
 20
94.934998
  0
VERTEX
  8
0
 10
2.930703
 20
96.708824
  0
VERTEX
  8
0
 10
3.421328
 20
98.527107
  0
VERTEX
  8
0
 10
3.957266
 20
100.364845
  0
VERTEX
  8
0
 10
4.532813
 20
102.196953
  0
VERTEX
  8
0
 10
4.986953
 20
103.552109
  0
VERTEX
  8
0
 10
5.617812
 20
105.313438
  0
VERTEX
  8
0
 10
6.106797
 20
106.586716
  0
VERTEX
  8
0
 10
6.606719
 20
107.807182
  0
VERTEX
  8
0
 10
7.287734
 20
109.341011
  0
VERTEX
  8
0
 10
7.810937
 20
110.427650
  0
VERTEX
  8
0
 10
8.347109
 20
111.467499
  0
VERTEX
  8
0
 10
8.897968
 20
112.467735
  0
VERTEX
  8
0
 10
9.465468
 20
113.435463
  0
VERTEX
  8
0
 10
10.051562
 20
114.377892
  0
VERTEX
  8
0
 10
10.658047
 20
115.302032
  0
VERTEX
  8
0
 10
11.286953
 20
116.215157
  0
VERTEX
  8
0
 10
12.163359
 20
117.427734
  0
VERTEX
  8
0
 10
13.087343
 20
118.650154
  0
VERTEX
  8
0
 10
14.062031
 20
119.892105
  0
VERTEX
  8
0
 10
15.087891
 20
121.149063
  0
VERTEX
  8
0
 10
15.891015
 20
122.098282
  0
VERTEX
  8
0
 10
17.007187
 20
123.367577
  0
VERTEX
  8
0
 10
17.878359
 20
124.318985
  0
VERTEX
  8
0
 10
19.085468
 20
125.582260
  0
VERTEX
  8
0
 10
20.025234
 20
126.522423
  0
VERTEX
  8
0
 10
20.994532
 20
127.453514
  0
VERTEX
  8
0
 10
21.993437
 20
128.373047
  0
VERTEX
  8
0
 10
23.724922
 20
129.876083
  0
VERTEX
  8
0
 10
25.542265
 20
131.345703
  0
VERTEX
  8
0
 10
26.675234
 20
132.213669
  0
VERTEX
  8
0
 10
27.840780
 20
133.073120
  0
VERTEX
  8
0
 10
29.039686
 20
133.924911
  0
VERTEX
  8
0
 10
30.272734
 20
134.770386
  0
VERTEX
  8
0
 10
31.540312
 20
135.610855
  0
VERTEX
  8
0
 10
32.843437
 20
136.447495
  0
VERTEX
  8
0
 10
34.182499
 20
137.281403
  0
VERTEX
  8
0
 10
35.558125
 20
138.113831
  0
VERTEX
  8
0
 10
38.409843
 20
139.772888
  0
VERTEX
  8
0
 10
39.878983
 20
140.597580
  0
VERTEX
  8
0
 10
41.875000
 20
141.690079
  0
VERTEX
  8
0
 10
43.906094
 20
142.772263
  0
VERTEX
  8
0
 10
45.963825
 20
143.842102
  0
VERTEX
  8
0
 10
48.040154
 20
144.897186
  0
VERTEX
  8
0
 10
50.649296
 20
146.191879
  0
VERTEX
  8
0
 10
54.858047
 20
148.211487
  0
VERTEX
  8
0
 10
58.680157
 20
149.966400
  0
VERTEX
  8
0
 10
62.756405
 20
151.756866
  0
VERTEX
  8
0
 10
67.205315
 20
153.627808
  0
VERTEX
  8
0
 10
72.134377
 20
155.619919
  0
VERTEX
  8
0
 10
77.471245
 20
157.702576
  0
VERTEX
  8
0
 10
82.994064
 20
159.786163
  0
VERTEX
  8
0
 10
88.476563
 20
161.779449
  0
VERTEX
  8
0
 10
91.504059
 20
162.842651
  0
VERTEX
  8
0
 10
93.692108
 20
163.590927
  0
VERTEX
  8
0
 10
95.793983
 20
164.291016
  0
VERTEX
  8
0
 10
98.470230
 20
165.154449
  0
VERTEX
  8
0
 10
102.863121
 20
166.504608
  0
VERTEX
  8
0
 10
107.550232
 20
167.863037
  0
VERTEX
  8
0
 10
113.144844
 20
169.414764
  0
VERTEX
  8
0
 10
115.482498
 20
167.882339
  0
VERTEX
  8
0
 10
116.724686
 20
167.091553
  0
VERTEX
  8
0
 10
117.561790
 20
166.610779
  0
VERTEX
  8
0
 10
118.455704
 20
166.166718
  0
VERTEX
  8
0
 10
119.167656
 20
165.847580
  0
VERTEX
  8
0
 10
119.839371
 20
165.567886
  0
VERTEX
  8
0
 10
120.528671
 20
165.302338
  0
VERTEX
  8
0
 10
121.208511
 20
165.064758
  0
VERTEX
  8
0
 10
121.858047
 20
164.865463
  0
VERTEX
  8
0
 10
122.479370
 20
164.699066
  0
VERTEX
  8
0
 10
124.002731
 20
164.357422
  0
VERTEX
  8
0
 10
120.877655
 20
148.675003
  0
VERTEX
  8
0
 10
117.752579
 20
132.992416
  0
VERTEX
  8
0
 10
110.657806
 20
133.227814
  0
VERTEX
  8
0
 10
106.025307
 20
133.333984
  0
VERTEX
  8
0
 10
104.034843
 20
133.356018
  0
VERTEX
  8
0
 10
102.134766
 20
133.357498
  0
VERTEX
  8
0
 10
100.331093
 20
133.337189
  0
VERTEX
  8
0
 10
98.627892
 20
133.294144
  0
VERTEX
  8
0
 10
97.029213
 20
133.227646
  0
VERTEX
  8
0
 10
95.539452
 20
133.136719
  0
VERTEX
  8
0
 10
94.162651
 20
133.020538
  0
VERTEX
  8
0
 10
92.902733
 20
132.878510
  0
VERTEX
  8
0
 10
91.760780
 20
132.714066
  0
VERTEX
  8
0
 10
90.543983
 20
132.496017
  0
VERTEX
  8
0
 10
89.492500
 20
132.265930
  0
VERTEX
  8
0
 10
88.471092
 20
131.997345
  0
VERTEX
  8
0
 10
87.666870
 20
131.745148
  0
VERTEX
  8
0
 10
87.049995
 20
131.504990
  0
VERTEX
  8
0
 10
86.613510
 20
131.276947
  0
VERTEX
  8
0
 10
86.209450
 20
130.997269
  0
VERTEX
  8
0
 10
85.787338
 20
130.636948
  0
VERTEX
  8
0
 10
85.297417
 20
130.166870
  0
VERTEX
  8
0
 10
82.452965
 20
127.264297
  0
VERTEX
  8
0
 10
81.817032
 20
126.637497
  0
VERTEX
  8
0
 10
81.245781
 20
126.104454
  0
VERTEX
  8
0
 10
80.632423
 20
125.586014
  0
VERTEX
  8
0
 10
80.121559
 20
125.211014
  0
VERTEX
  8
0
 10
79.595779
 20
124.882416
  0
VERTEX
  8
0
 10
79.027969
 20
124.583275
  0
VERTEX
  8
0
 10
78.284920
 20
124.251717
  0
VERTEX
  8
0
 10
77.329842
 20
123.880150
  0
VERTEX
  8
0
 10
71.652969
 20
121.864998
  0
VERTEX
  8
0
 10
68.681953
 20
120.840309
  0
VERTEX
  8
0
 10
61.122421
 20
118.301407
  0
VERTEX
  8
0
 10
58.990623
 20
117.553200
  0
VERTEX
  8
0
 10
57.011875
 20
116.823204
  0
VERTEX
  8
0
 10
54.960468
 20
116.004997
  0
VERTEX
  8
0
 10
53.880623
 20
115.540466
  0
VERTEX
  8
0
 10
52.841953
 20
115.068047
  0
VERTEX
  8
0
 10
51.823280
 20
114.579765
  0
VERTEX
  8
0
 10
50.803669
 20
114.067345
  0
VERTEX
  8
0
 10
48.677341
 20
112.937889
  0
VERTEX
  8
0
 10
47.241795
 20
112.142891
  0
VERTEX
  8
0
 10
45.741562
 20
111.286949
  0
VERTEX
  8
0
 10
44.211639
 20
110.384682
  0
VERTEX
  8
0
 10
42.990154
 20
109.639450
  0
VERTEX
  8
0
 10
41.790310
 20
108.881485
  0
VERTEX
  8
0
 10
40.630154
 20
108.118126
  0
VERTEX
  8
0
 10
39.527657
 20
107.357025
  0
VERTEX
  8
0
 10
38.499218
 20
106.604996
  0
VERTEX
  8
0
 10
37.778435
 20
106.047729
  0
VERTEX
  8
0
 10
36.880936
 20
105.312263
  0
VERTEX
  8
0
 10
36.051952
 20
104.583748
  0
VERTEX
  8
0
 10
35.286640
 20
103.860390
  0
VERTEX
  8
0
 10
34.580311
 20
103.140228
  0
VERTEX
  8
0
 10
33.928123
 20
102.421562
  0
VERTEX
  8
0
 10
33.325546
 20
101.702423
  0
VERTEX
  8
0
 10
32.634686
 20
100.800308
  0
VERTEX
  8
0
 10
32.005234
 20
99.894608
  0
VERTEX
  8
0
 10
31.428984
 20
98.987808
  0
VERTEX
  8
0
 10
30.796562
 20
97.901329
  0
VERTEX
  8
0
 10
30.215155
 20
96.820702
  0
VERTEX
  8
0
 10
29.408203
 20
95.219292
  0
VERTEX
  8
0
 10
28.822968
 20
93.971405
  0
VERTEX
  8
0
 10
28.437265
 20
93.041016
  0
VERTEX
  8
0
 10
28.087265
 20
92.049217
  0
VERTEX
  8
0
 10
27.837969
 20
91.194214
  0
VERTEX
  8
0
 10
27.620312
 20
90.270470
  0
VERTEX
  8
0
 10
27.438202
 20
89.264687
  0
VERTEX
  8
0
 10
27.327030
 20
88.449448
  0
VERTEX
  8
0
 10
27.213436
 20
87.287888
  0
VERTEX
  8
0
 10
27.138046
 20
86.061401
  0
VERTEX
  8
0
 10
27.099531
 20
84.792419
  0
VERTEX
  8
0
 10
27.096561
 20
83.503204
  0
VERTEX
  8
0
 10
27.116718
 20
82.536324
  0
VERTEX
  8
0
 10
27.172577
 20
81.265236
  0
VERTEX
  8
0
 10
27.260078
 20
80.035309
  0
VERTEX
  8
0
 10
27.345703
 20
79.153198
  0
VERTEX
  8
0
 10
27.447889
 20
78.314064
  0
VERTEX
  8
0
 10
27.609610
 20
77.259689
  0
VERTEX
  8
0
 10
27.749922
 20
76.512970
  0
VERTEX
  8
0
 10
27.962187
 20
75.569763
  0
VERTEX
  8
0
 10
28.140234
 20
74.897499
  0
VERTEX
  8
0
 10
28.402422
 20
74.041641
  0
VERTEX
  8
0
 10
28.692968
 20
73.224922
  0
VERTEX
  8
0
 10
29.011641
 20
72.439690
  0
VERTEX
  8
0
 10
29.358202
 20
71.677971
  0
VERTEX
  8
0
 10
29.732187
 20
70.934219
  0
VERTEX
  8
0
 10
30.132500
 20
70.207108
  0
VERTEX
  8
0
 10
30.558125
 20
69.495781
  0
VERTEX
  8
0
 10
31.007813
 20
68.799217
  0
VERTEX
  8
0
 10
31.602186
 20
67.947968
  0
VERTEX
  8
0
 10
32.230232
 20
67.116798
  0
VERTEX
  8
0
 10
32.889767
 20
66.303825
  0
VERTEX
  8
0
 10
33.580391
 20
65.507576
  0
VERTEX
  8
0
 10
34.158829
 20
64.881874
  0
VERTEX
  8
0
 10
34.920547
 20
64.113121
  0
VERTEX
  8
0
 10
35.565392
 20
63.508202
  0
VERTEX
  8
0
 10
36.245857
 20
62.911716
  0
VERTEX
  8
0
 10
36.965702
 20
62.323280
  0
VERTEX
  8
0
 10
37.728516
 20
61.742344
  0
VERTEX
  8
0
 10
38.538124
 20
61.168514
  0
VERTEX
  8
0
 10
39.395622
 20
60.602108
  0
VERTEX
  8
0
 10
40.300076
 20
60.044453
  0
VERTEX
  8
0
 10
41.250389
 20
59.496796
  0
VERTEX
  8
0
 10
42.245388
 20
58.960155
  0
VERTEX
  8
0
 10
43.283905
 20
58.436016
  0
VERTEX
  8
0
 10
44.364841
 20
57.925388
  0
VERTEX
  8
0
 10
45.486954
 20
57.429764
  0
VERTEX
  8
0
 10
46.649139
 20
56.950153
  0
VERTEX
  8
0
 10
47.848358
 20
56.486874
  0
VERTEX
  8
0
 10
49.079609
 20
56.039295
  0
VERTEX
  8
0
 10
50.338203
 20
55.606640
  0
VERTEX
  8
0
 10
51.942265
 20
55.085938
  0
VERTEX
  8
0
 10
54.886875
 20
54.200466
  0
VERTEX
  8
0
 10
58.514217
 20
53.199532
  0
VERTEX
  8
0
 10
62.058125
 20
52.284687
  0
VERTEX
  8
0
 10
69.130310
 20
50.530544
  0
VERTEX
  8
0
 10
71.924454
 20
49.789219
  0
VERTEX
  8
0
 10
73.413986
 20
49.350700
  0
VERTEX
  8
0
 10
74.820465
 20
48.890312
  0
VERTEX
  8
0
 10
75.963905
 20
48.464607
  0
VERTEX
  8
0
 10
77.048904
 20
47.996563
  0
VERTEX
  8
0
 10
77.739296
 20
47.654686
  0
VERTEX
  8
0
 10
78.239532
 20
47.379841
  0
VERTEX
  8
0
 10
78.724686
 20
47.087498
  0
VERTEX
  8
0
 10
79.194450
 20
46.775936
  0
VERTEX
  8
0
 10
79.648827
 20
46.443672
  0
VERTEX
  8
0
 10
80.088120
 20
46.090778
  0
VERTEX
  8
0
 10
80.513123
 20
45.719608
  0
VERTEX
  8
0
 10
80.924843
 20
45.333046
  0
VERTEX
  8
0
 10
81.584213
 20
44.662342
  0
VERTEX
  8
0
 10
82.336479
 20
43.829372
  0
VERTEX
  8
0
 10
85.040077
 20
40.610001
  0
VERTEX
  8
0
 10
86.330467
 20
39.117970
  0
VERTEX
  8
0
 10
87.041794
 20
38.344841
  0
VERTEX
  8
0
 10
87.613045
 20
37.799843
  0
VERTEX
  8
0
 10
87.940155
 20
37.538670
  0
VERTEX
  8
0
 10
88.289215
 20
37.297813
  0
VERTEX
  8
0
 10
88.761330
 20
37.011562
  0
VERTEX
  8
0
 10
89.162811
 20
36.792263
  0
VERTEX
  8
0
 10
89.632339
 20
36.564842
  0
VERTEX
  8
0
 10
90.065308
 20
36.380936
  0
VERTEX
  8
0
 10
90.966408
 20
36.064060
  0
VERTEX
  8
0
 10
91.737808
 20
35.848827
  0
VERTEX
  8
0
 10
92.629684
 20
35.649063
  0
VERTEX
  8
0
 10
93.645935
 20
35.469608
  0
VERTEX
  8
0
 10
94.538513
 20
35.343201
  0
VERTEX
  8
0
 10
95.738594
 20
35.208828
  0
VERTEX
  8
0
 10
96.755074
 20
35.122421
  0
VERTEX
  8
0
 10
98.081245
 20
35.043358
  0
VERTEX
  8
0
 10
99.175545
 20
35.005310
  0
VERTEX
  8
0
 10
100.851326
 20
34.993435
  0
VERTEX
  8
0
 10
102.550545
 20
35.032734
  0
VERTEX
  8
0
 10
104.266251
 20
35.107185
  0
VERTEX
  8
0
 10
108.590782
 20
35.337341
  0
VERTEX
  8
0
 10
111.182892
 20
35.424999
  0
VERTEX
  8
0
 10
114.336952
 20
35.455078
  0
VERTEX
  8
0
 10
118.624214
 20
35.421795
  0
VERTEX
  8
0
 10
121.888901
 20
20.608124
  0
VERTEX
  8
0
 10
125.153671
 20
5.794453
  0
VERTEX
  8
0
 10
122.964996
 20
5.008984
  0
VERTEX
  8
0
 10
121.532417
 20
4.474062
  0
VERTEX
  8
0
 10
120.323822
 20
3.994375
  0
VERTEX
  8
0
 10
119.210541
 20
3.517344
  0
VERTEX
  8
0
 10
118.169373
 20
3.034062
  0
VERTEX
  8
0
 10
117.078667
 20
2.483828
  0
VERTEX
  8
0
 10
115.926872
 20
1.857734
  0
VERTEX
  8
0
 10
114.422966
 20
1.000000
  0
SEQEND
  8
0
  0
POLYLINE
  8
0
  0
VERTEX
  8
0
 10
95.531090
 20
30.382500
  0
VERTEX
  8
0
 10
94.525856
 20
28.400703
  0
VERTEX
  8
0
 10
93.698357
 20
26.877655
  0
VERTEX
  8
0
 10
92.877495
 20
25.508984
  0
VERTEX
  8
0
 10
92.070541
 20
24.296406
  0
VERTEX
  8
0
 10
90.985779
 20
22.800781
  0
VERTEX
  8
0
 10
89.634766
 20
21.064688
  0
VERTEX
  8
0
 10
88.078125
 20
19.155703
  0
VERTEX
  8
0
 10
85.903511
 20
16.569843
  0
SEQEND
  8
0
  0
POLYLINE
  8
0
  0
VERTEX
  8
0
 10
72.560310
 20
22.524843
  0
VERTEX
  8
0
 10
71.434685
 20
19.359999
  0
SEQEND
  8
0
  0
POLYLINE
  8
0
  0
VERTEX
  8
0
 10
27.060936
 20
84.264450
  0
VERTEX
  8
0
 10
14.065702
 20
84.037651
  0
VERTEX
  8
0
 10
1.070625
 20
83.810776
  0
SEQEND
  8
0
  0
POLYLINE
  8
0
  0
VERTEX
  8
0
 10
84.020309
 20
153.495850
  0
VERTEX
  8
0
 10
85.729370
 20
151.419144
  0
VERTEX
  8
0
 10
86.948433
 20
149.907425
  0
VERTEX
  8
0
 10
87.947266
 20
148.625626
  0
VERTEX
  8
0
 10
88.837029
 20
147.423508
  0
VERTEX
  8
0
 10
90.000465
 20
145.739609
  0
VERTEX
  8
0
 10
92.285782
 20
142.258896
  0
VERTEX
  8
0
 10
94.460701
 20
138.991638
  0
SEQEND
  8
0
  0
POLYLINE
  8
0
  0
VERTEX
  8
0
 10
76.270859
 20
150.945694
  0
VERTEX
  8
0
 10
75.172729
 20
154.146790
  0
SEQEND
  8
0
  0
POLYLINE
  8
0
  0
VERTEX
  8
0
 10
98.947495
 20
740.207581
  0
VERTEX
  8
0
 10
99.821167
 20
752.333252
  0
VERTEX
  8
0
 10
100.909996
 20
767.247925
  0
VERTEX
  8
0
 10
103.732025
 20
767.446228
  0
VERTEX
  8
0
 10
104.051010
 20
772.017029
  0
VERTEX
  8
0
 10
104.669998
 20
780.288757
  0
VERTEX
  8
0
 10
104.922188
 20
783.911255
  0
VERTEX
  8
0
 10
105.125000
 20
787.564514
  0
VERTEX
  8
0
 10
105.179688
 20
789.089844
  0
VERTEX
  8
0
 10
105.203667
 20
790.317017
  0
VERTEX
  8
0
 10
105.198746
 20
792.028748
  0
VERTEX
  8
0
 10
105.152809
 20
793.581177
  0
VERTEX
  8
0
 10
105.056244
 20
795.250854
  0
VERTEX
  8
0
 10
104.930000
 20
796.664185
  0
VERTEX
  8
0
 10
104.795311
 20
797.673096
  0
VERTEX
  8
0
 10
104.636948
 20
798.507568
  0
VERTEX
  8
0
 10
104.399841
 20
799.427612
  0
VERTEX
  8
0
 10
104.125389
 20
800.257324
  0
VERTEX
  8
0
 10
103.920235
 20
800.779541
  0
VERTEX
  8
0
 10
103.736328
 20
801.197144
  0
VERTEX
  8
0
 10
103.480469
 20
801.717468
  0
VERTEX
  8
0
 10
103.254059
 20
802.130859
  0
VERTEX
  8
0
 10
102.942734
 20
802.641846
  0
VERTEX
  8
0
 10
102.670151
 20
803.044495
  0
VERTEX
  8
0
 10
102.375778
 20
803.439819
  0
VERTEX
  8
0
 10
102.058983
 20
803.825928
  0
VERTEX
  8
0
 10
101.719063
 20
804.201050
  0
VERTEX
  8
0
 10
101.355385
 20
804.563416
  0
VERTEX
  8
0
 10
100.967110
 20
804.911072
  0
VERTEX
  8
0
 10
100.659454
 20
805.161255
  0
VERTEX
  8
0
 10
100.337265
 20
805.401306
  0
VERTEX
  8
0
 10
99.885078
 20
805.704651
  0
VERTEX
  8
0
 10
99.410156
 20
805.988281
  0
VERTEX
  8
0
 10
98.917580
 20
806.252075
  0
VERTEX
  8
0
 10
98.412262
 20
806.495911
  0
VERTEX
  8
0
 10
97.899216
 20
806.719543
  0
VERTEX
  8
0
 10
97.383354
 20
806.922974
  0
VERTEX
  8
0
 10
96.742188
 20
807.148438
  0
VERTEX
  8
0
 10
96.114296
 20
807.341675
  0
VERTEX
  8
0
 10
95.622887
 20
807.473511
  0
VERTEX
  8
0
 10
94.629532
 20
807.681946
  0
VERTEX
  8
0
 10
93.550392
 20
807.826782
  0
VERTEX
  8
0
 10
92.299606
 20
807.919983
  0
VERTEX
  8
0
 10
90.798592
 20
807.973083
  0
VERTEX
  8
0
 10
88.839684
 20
807.993286
  0
VERTEX
  8
0
 10
86.000702
 20
807.962463
  0
VERTEX
  8
0
 10
83.179764
 20
807.875916
  0
VERTEX
  8
0
 10
80.676872
 20
807.759033
  0
VERTEX
  8
0
 10
73.553276
 20
807.372009
  0
VERTEX
  8
0
 10
69.231323
 20
807.197510
  0
VERTEX
  8
0
 10
67.038437
 20
807.139648
  0
VERTEX
  8
0
 10
64.716171
 20
807.099060
  0
VERTEX
  8
0
 10
59.199608
 20
807.055908
  0
VERTEX
  8
0
 10
49.470310
 20
807.060303
  0
VERTEX
  8
0
 10
44.972420
 20
807.094055
  0
VERTEX
  8
0
 10
40.778904
 20
807.149231
  0
VERTEX
  8
0
 10
35.953358
 20
807.241455
  0
VERTEX
  8
0
 10
30.353281
 20
807.380066
  0
VERTEX
  8
0
 10
26.048750
 20
807.509338
  0
VERTEX
  8
0
 10
19.737108
 20
807.732788
  0
VERTEX
  8
0
 10
18.440624
 20
807.752197
  0
VERTEX
  8
0
 10
17.333984
 20
807.741516
  0
VERTEX
  8
0
 10
15.913125
 20
807.689453
  0
VERTEX
  8
0
 10
14.346797
 20
807.582153
  0
VERTEX
  8
0
 10
12.804844
 20
807.423950
  0
VERTEX
  8
0
 10
11.457734
 20
807.233276
  0
VERTEX
  8
0
 10
10.317031
 20
807.015869
  0
VERTEX
  8
0
 10
9.380078
 20
806.781677
  0
VERTEX
  8
0
 10
8.514766
 20
806.501099
  0
VERTEX
  8
0
 10
7.724218
 20
806.171692
  0
VERTEX
  8
0
 10
7.098906
 20
805.852417
  0
VERTEX
  8
0
 10
6.514843
 20
805.500610
  0
VERTEX
  8
0
 10
5.965547
 20
805.117798
  0
VERTEX
  8
0
 10
5.360078
 20
804.634216
  0
VERTEX
  8
0
 10
4.788516
 20
804.113708
  0
VERTEX
  8
0
 10
4.253047
 20
803.560425
  0
VERTEX
  8
0
 10
3.756172
 20
802.978088
  0
VERTEX
  8
0
 10
3.300469
 20
802.370972
  0
VERTEX
  8
0
 10
2.944375
 20
801.832336
  0
VERTEX
  8
0
 10
2.620625
 20
801.267944
  0
VERTEX
  8
0
 10
2.329375
 20
800.665039
  0
VERTEX
  8
0
 10
2.070469
 20
800.010742
  0
VERTEX
  8
0
 10
1.844062
 20
799.292297
  0
VERTEX
  8
0
 10
1.680156
 20
798.635193
  0
VERTEX
  8
0
 10
1.538047
 20
797.918274
  0
VERTEX
  8
0
 10
1.416094
 20
797.136230
  0
VERTEX
  8
0
 10
1.293984
 20
796.104919
  0
VERTEX
  8
0
 10
1.195547
 20
794.964172
  0
VERTEX
  8
0
 10
1.117813
 20
793.705322
  0
VERTEX
  8
0
 10
1.050078
 20
792.077881
  0
VERTEX
  8
0
 10
1.013281
 20
790.554382
  0
VERTEX
  8
0
 10
1.000000
 20
788.926697
  0
VERTEX
  8
0
 10
1.013750
 20
787.208862
  0
VERTEX
  8
0
 10
1.048516
 20
785.718445
  0
VERTEX
  8
0
 10
1.152969
 20
783.244690
  0
VERTEX
  8
0
 10
1.309297
 20
780.717651
  0
VERTEX
  8
0
 10
1.952969
 20
772.454529
  0
VERTEX
  8
0
 10
2.308437
 20
767.455750
  0
VERTEX
  8
0
 10
5.316875
 20
767.290588
  0
VERTEX
  8
0
 10
5.709375
 20
763.097229
  0
VERTEX
  8
0
 10
5.969375
 20
760.130310
  0
VERTEX
  8
0
 10
6.763047
 20
749.851074
  0
VERTEX
  8
0
 10
7.637422
 20
739.648254
  0
VERTEX
  8
0
 10
25.365313
 20
740.508362
  0
VERTEX
  8
0
 10
29.166718
 20
740.673035
  0
VERTEX
  8
0
 10
32.406326
 20
740.794189
  0
VERTEX
  8
0
 10
37.572891
 20
740.951843
  0
VERTEX
  8
0
 10
43.100624
 20
741.083557
  0
VERTEX
  8
0
 10
48.537498
 20
741.180786
  0
VERTEX
  8
0
 10
53.470310
 20
741.234497
  0
VERTEX
  8
0
 10
58.551250
 20
741.227966
  0
VERTEX
  8
0
 10
63.555935
 20
741.144653
  0
VERTEX
  8
0
 10
69.571404
 20
740.973083
  0
VERTEX
  8
0
 10
83.864922
 20
740.475891
  0
VERTEX
  8
0
 10
88.971016
 20
740.318970
  0
VERTEX
  8
0
 10
93.944611
 20
740.221313
  0
VERTEX
  8
0
 10
98.947495
 20
740.207581
  0
SEQEND
  8
0
  0
POLYLINE
  8
0
  0
VERTEX
  8
0
 10
53.587967
 20
806.807617
  0
VERTEX
  8
0
 10
53.587967
 20
790.411011
  0
VERTEX
  8
0
 10
53.587967
 20
774.014343
  0
VERTEX
  8
0
 10
53.587967
 20
757.617615
  0
VERTEX
  8
0
 10
53.587967
 20
741.220947
  0
SEQEND
  8
0
  0
POLYLINE
  8
0
  0
VERTEX
  8
0
 10
72.590698
 20
768.349426
  0
VERTEX
  8
0
 10
72.203903
 20
758.873596
  0
VERTEX
  8
0
 10
61.681328
 20
758.749207
  0
SEQEND
  8
0
  0
POLYLINE
  8
0
  0
VERTEX
  8
0
 10
33.349766
 20
768.393127
  0
VERTEX
  8
0
 10
33.745155
 20
758.695740
  0
VERTEX
  8
0
 10
44.220310
 20
758.578125
  0
SEQEND
  8
0
  0
POLYLINE
  8
0
  0
VERTEX
  8
0
 10
100.738197
 20
767.639038
  0
VERTEX
  8
0
 10
101.058205
 20
772.225769
  0
VERTEX
  8
0
 10
101.654610
 20
780.194641
  0
VERTEX
  8
0
 10
101.891167
 20
783.549194
  0
VERTEX
  8
0
 10
102.093437
 20
786.989197
  0
VERTEX
  8
0
 10
102.187416
 20
789.549072
  0
VERTEX
  8
0
 10
102.203438
 20
791.083862
  0
VERTEX
  8
0
 10
102.183746
 20
792.487854
  0
VERTEX
  8
0
 10
102.128593
 20
793.902039
  0
VERTEX
  8
0
 10
102.039215
 20
795.255005
  0
VERTEX
  8
0
 10
101.931404
 20
796.374817
  0
VERTEX
  8
0
 10
101.810623
 20
797.228577
  0
VERTEX
  8
0
 10
101.654686
 20
797.993164
  0
VERTEX
  8
0
 10
101.451561
 20
798.722900
  0
VERTEX
  8
0
 10
101.160469
 20
799.523132
  0
VERTEX
  8
0
 10
100.795624
 20
800.303894
  0
VERTEX
  8
0
 10
100.583984
 20
800.683716
  0
VERTEX
  8
0
 10
100.352028
 20
801.054688
  0
VERTEX
  8
0
 10
100.098434
 20
801.415283
  0
VERTEX
  8
0
 10
99.878517
 20
801.695618
  0
VERTEX
  8
0
 10
99.580154
 20
802.034668
  0
VERTEX
  8
0
 10
99.321327
 20
802.295898
  0
VERTEX
  8
0
 10
99.043282
 20
802.547485
  0
VERTEX
  8
0
 10
98.744843
 20
802.788818
  0
VERTEX
  8
0
 10
98.424843
 20
803.019226
  0
VERTEX
  8
0
 10
98.082886
 20
803.237976
  0
VERTEX
  8
0
 10
97.345467
 20
803.638733
  0
VERTEX
  8
0
 10
96.561874
 20
803.987732
  0
VERTEX
  8
0
 10
95.662498
 20
804.313904
  0
VERTEX
  8
0
 10
94.777184
 20
804.565674
  0
VERTEX
  8
0
 10
93.955856
 20
804.730774
  0
VERTEX
  8
0
 10
93.014687
 20
804.848267
  0
VERTEX
  8
0
 10
91.868515
 20
804.925842
  0
VERTEX
  8
0
 10
90.445000
 20
804.970459
  0
VERTEX
  8
0
 10
88.781792
 20
804.985779
  0
VERTEX
  8
0
 10
86.043594
 20
804.958130
  0
VERTEX
  8
0
 10
83.062111
 20
804.866455
  0
VERTEX
  8
0
 10
80.590309
 20
804.749146
  0
VERTEX
  8
0
 10
73.683907
 20
804.374695
  0
VERTEX
  8
0
 10
69.326324
 20
804.198547
  0
VERTEX
  8
0
 10
67.114922
 20
804.140320
  0
VERTEX
  8
0
 10
64.774452
 20
804.099365
  0
VERTEX
  8
0
 10
59.221249
 20
804.055847
  0
VERTEX
  8
0
 10
49.449139
 20
804.060242
  0
VERTEX
  8
0
 10
44.935390
 20
804.094177
  0
VERTEX
  8
0
 10
40.726795
 20
804.149536
  0
VERTEX
  8
0
 10
35.883202
 20
804.242310
  0
VERTEX
  8
0
 10
30.265781
 20
804.381104
  0
VERTEX
  8
0
 10
25.957188
 20
804.510010
  0
VERTEX
  8
0
 10
19.713593
 20
804.729126
  0
VERTEX
  8
0
 10
18.615469
 20
804.746887
  0
VERTEX
  8
0
 10
17.558907
 20
804.739685
  0
VERTEX
  8
0
 10
16.218828
 20
804.693909
  0
VERTEX
  8
0
 10
14.911797
 20
804.609436
  0
VERTEX
  8
0
 10
13.651172
 20
804.489075
  0
VERTEX
  8
0
 10
12.453125
 20
804.333801
  0
VERTEX
  8
0
 10
11.459844
 20
804.163757
  0
VERTEX
  8
0
 10
10.552343
 20
803.960632
  0
VERTEX
  8
0
 10
9.842422
 20
803.753418
  0
VERTEX
  8
0
 10
9.133594
 20
803.481018
  0
VERTEX
  8
0
 10
8.662812
 20
803.251709
  0
VERTEX
  8
0
 10
8.165313
 20
802.957153
  0
VERTEX
  8
0
 10
7.708828
 20
802.633728
  0
VERTEX
  8
0
 10
7.218828
 20
802.228943
  0
VERTEX
  8
0
 10
6.756562
 20
801.790283
  0
VERTEX
  8
0
 10
6.325937
 20
801.323547
  0
VERTEX
  8
0
 10
5.884531
 20
800.772339
  0
VERTEX
  8
0
 10
5.534688
 20
800.262695
  0
VERTEX
  8
0
 10
5.298750
 20
799.854492
  0
VERTEX
  8
0
 10
5.119062
 20
799.484375
  0
VERTEX
  8
0
 10
4.922969
 20
798.990234
  0
VERTEX
  8
0
 10
4.775391
 20
798.525757
  0
VERTEX
  8
0
 10
4.616797
 20
797.891418
  0
VERTEX
  8
0
 10
4.499531
 20
797.289307
  0
VERTEX
  8
0
 10
4.395312
 20
796.614380
  0
VERTEX
  8
0
 10
4.303750
 20
795.861206
  0
VERTEX
  8
0
 10
4.209922
 20
794.846924
  0
VERTEX
  8
0
 10
4.132891
 20
793.703125
  0
VERTEX
  8
0
 10
4.072031
 20
792.421082
  0
VERTEX
  8
0
 10
4.028750
 20
791.004150
  0
VERTEX
  8
0
 10
4.006953
 20
789.467163
  0
VERTEX
  8
0
 10
4.007891
 20
788.105896
  0
VERTEX
  8
0
 10
4.028515
 20
786.681152
  0
VERTEX
  8
0
 10
4.071094
 20
785.201965
  0
VERTEX
  8
0
 10
4.170312
 20
783.058716
  0
VERTEX
  8
0
 10
4.329141
 20
780.564331
  0
VERTEX
  8
0
 10
4.945625
 20
772.667847
  0
VERTEX
  8
0
 10
5.302187
 20
767.649902
  0
SEQEND
  8
0
  0
POLYLINE
  8
0
  0
VERTEX
  8
0
 10
53.394375
 20
805.995911
  0
VERTEX
  8
0
 10
52.916092
 20
805.900757
  0
VERTEX
  8
0
 10
52.510544
 20
805.629822
  0
VERTEX
  8
0
 10
52.239529
 20
805.224365
  0
VERTEX
  8
0
 10
52.144375
 20
804.745911
  0
VERTEX
  8
0
 10
52.239529
 20
804.267639
  0
VERTEX
  8
0
 10
52.510544
 20
803.862122
  0
VERTEX
  8
0
 10
52.916092
 20
803.591064
  0
VERTEX
  8
0
 10
53.394375
 20
803.495911
  0
VERTEX
  8
0
 10
53.872734
 20
803.591064
  0
VERTEX
  8
0
 10
54.278278
 20
803.862122
  0
VERTEX
  8
0
 10
54.549297
 20
804.267639
  0
VERTEX
  8
0
 10
54.644375
 20
804.745911
  0
VERTEX
  8
0
 10
54.549297
 20
805.224365
  0
VERTEX
  8
0
 10
54.278278
 20
805.629822
  0
VERTEX
  8
0
 10
53.872734
 20
805.900757
  0
VERTEX
  8
0
 10
53.394375
 20
805.995911
  0
SEQEND
  8
0
  0
POLYLINE
  8
0
  0
VERTEX
  8
0
 10
53.572655
 20
744.839966
  0
VERTEX
  8
0
 10
53.094296
 20
744.744812
  0
VERTEX
  8
0
 10
52.688747
 20
744.473877
  0
VERTEX
  8
0
 10
52.417812
 20
744.068359
  0
VERTEX
  8
0
 10
52.322655
 20
743.589966
  0
VERTEX
  8
0
 10
52.417812
 20
743.111633
  0
VERTEX
  8
0
 10
52.688747
 20
742.706055
  0
VERTEX
  8
0
 10
53.094296
 20
742.435120
  0
VERTEX
  8
0
 10
53.572655
 20
742.339966
  0
VERTEX
  8
0
 10
54.051014
 20
742.435120
  0
VERTEX
  8
0
 10
54.456562
 20
742.706055
  0
VERTEX
  8
0
 10
54.727497
 20
743.111633
  0
VERTEX
  8
0
 10
54.822655
 20
743.589966
  0
VERTEX
  8
0
 10
54.727497
 20
744.068359
  0
VERTEX
  8
0
 10
54.456562
 20
744.473877
  0
VERTEX
  8
0
 10
54.051014
 20
744.744812
  0
VERTEX
  8
0
 10
53.572655
 20
744.839966
  0
SEQEND
  8
0
  0
POLYLINE
  8
0
  0
VERTEX
  8
0
 10
67.868591
 20
859.527405
  0
VERTEX
  8
0
 10
51.307343
 20
859.458679
  0
VERTEX
  8
0
 10
34.746170
 20
859.389893
  0
VERTEX
  8
0
 10
18.184999
 20
859.321045
  0
VERTEX
  8
0
 10
1.623750
 20
859.252258
  0
VERTEX
  8
0
 10
0.999453
 20
877.434875
  0
VERTEX
  8
0
 10
17.716719
 20
877.448975
  0
VERTEX
  8
0
 10
34.433983
 20
877.463135
  0
VERTEX
  8
0
 10
51.151249
 20
877.477234
  0
VERTEX
  8
0
 10
67.868591
 20
877.491333
  0
VERTEX
  8
0
 10
67.868591
 20
859.527405
  0
SEQEND
  8
0
  0
POLYLINE
  8
0
  0
VERTEX
  8
0
 10
54.173748
 20
872.069580
  0
VERTEX
  8
0
 10
54.293903
 20
865.652161
  0
SEQEND
  8
0
  0
POLYLINE
  8
0
  0
VERTEX
  8
0
 10
28.059765
 20
872.245667
  0
VERTEX
  8
0
 10
28.179140
 20
864.550537
  0
SEQEND
  8
0
  0
POLYLINE
  8
0
  0
VERTEX
  8
0
 10
1.000000
 20
830.877686
  0
VERTEX
  8
0
 10
3.731562
 20
830.653809
  0
VERTEX
  8
0
 10
5.476016
 20
830.467163
  0
VERTEX
  8
0
 10
6.178515
 20
830.368042
  0
VERTEX
  8
0
 10
6.920938
 20
830.238953
  0
VERTEX
  8
0
 10
7.508437
 20
830.115051
  0
VERTEX
  8
0
 10
8.157890
 20
829.953125
  0
VERTEX
  8
0
 10
8.881953
 20
829.741760
  0
VERTEX
  8
0
 10
9.522031
 20
829.528320
  0
VERTEX
  8
0
 10
10.082969
 20
829.313660
  0
VERTEX
  8
0
 10
10.659531
 20
829.059814
  0
VERTEX
  8
0
 10
11.256093
 20
828.757690
  0
VERTEX
  8
0
 10
11.771718
 20
828.462341
  0
VERTEX
  8
0
 10
12.306093
 20
828.122314
  0
VERTEX
  8
0
 10
12.968828
 20
827.658020
  0
VERTEX
  8
0
 10
13.648594
 20
827.139587
  0
VERTEX
  8
0
 10
14.338281
 20
826.574768
  0
VERTEX
  8
0
 10
15.030937
 20
825.971069
  0
VERTEX
  8
0
 10
15.719687
 20
825.336243
  0
VERTEX
  8
0
 10
16.399843
 20
824.674255
  0
VERTEX
  8
0
 10
17.070234
 20
823.983826
  0
VERTEX
  8
0
 10
17.730000
 20
823.262878
  0
VERTEX
  8
0
 10
18.271093
 20
822.637390
  0
VERTEX
  8
0
 10
19.119062
 20
821.587097
  0
VERTEX
  8
0
 10
20.046249
 20
820.337585
  0
VERTEX
  8
0
 10
20.848749
 20
819.191833
  0
VERTEX
  8
0
 10
22.875624
 20
816.224915
  0
VERTEX
  8
0
 10
24.125000
 20
814.469971
  0
VERTEX
  8
0
 10
25.054531
 20
813.250549
  0
VERTEX
  8
0
 10
25.764530
 20
812.421082
  0
VERTEX
  8
0
 10
26.115469
 20
812.064453
  0
VERTEX
  8
0
 10
26.513594
 20
811.711304
  0
VERTEX
  8
0
 10
26.859297
 20
811.447388
  0
VERTEX
  8
0
 10
27.283670
 20
811.168518
  0
VERTEX
  8
0
 10
27.737812
 20
810.918640
  0
VERTEX
  8
0
 10
28.153671
 20
810.729431
  0
VERTEX
  8
0
 10
28.596718
 20
810.565247
  0
VERTEX
  8
0
 10
29.069374
 20
810.427612
  0
VERTEX
  8
0
 10
29.838749
 20
810.274841
  0
VERTEX
  8
0
 10
30.684608
 20
810.190125
  0
VERTEX
  8
0
 10
31.610624
 20
810.178040
  0
VERTEX
  8
0
 10
32.504295
 20
810.231445
  0
VERTEX
  8
0
 10
33.365154
 20
810.330200
  0
VERTEX
  8
0
 10
34.363514
 20
810.478821
  0
VERTEX
  8
0
 10
39.699219
 20
811.379272
  0
VERTEX
  8
0
 10
43.167187
 20
811.928345
  0
VERTEX
  8
0
 10
45.819218
 20
812.309875
  0
VERTEX
  8
0
 10
48.404842
 20
812.633972
  0
VERTEX
  8
0
 10
51.133282
 20
812.905579
  0
VERTEX
  8
0
 10
53.691013
 20
813.084106
  0
VERTEX
  8
0
 10
56.108280
 20
813.177246
  0
VERTEX
  8
0
 10
58.414139
 20
813.193054
  0
VERTEX
  8
0
 10
60.871716
 20
813.133179
  0
VERTEX
  8
0
 10
63.476406
 20
812.991943
  0
VERTEX
  8
0
 10
66.237968
 20
812.770752
  0
VERTEX
  8
0
 10
68.965782
 20
812.481628
  0
VERTEX
  8
0
 10
71.253433
 20
812.179688
  0
VERTEX
  8
0
 10
73.576714
 20
811.818359
  0
VERTEX
  8
0
 10
76.090157
 20
811.383118
  0
VERTEX
  8
0
 10
80.764687
 20
810.531494
  0
VERTEX
  8
0
 10
82.388435
 20
810.258362
  0
VERTEX
  8
0
 10
83.262184
 20
810.131470
  0
VERTEX
  8
0
 10
83.918671
 20
810.054199
  0
VERTEX
  8
0
 10
84.501564
 20
810.007690
  0
VERTEX
  8
0
 10
85.028984
 20
809.993286
  0
VERTEX
  8
0
 10
85.677811
 20
810.026184
  0
VERTEX
  8
0
 10
86.304688
 20
810.121521
  0
VERTEX
  8
0
 10
87.028122
 20
810.307190
  0
VERTEX
  8
0
 10
87.683594
 20
810.543884
  0
VERTEX
  8
0
 10
88.333672
 20
810.849670
  0
VERTEX
  8
0
 10
88.885155
 20
811.175049
  0
VERTEX
  8
0
 10
89.412964
 20
811.558472
  0
VERTEX
  8
0
 10
89.934685
 20
812.022278
  0
VERTEX
  8
0
 10
90.318588
 20
812.419128
  0
VERTEX
  8
0
 10
90.639839
 20
812.784119
  0
VERTEX
  8
0
 10
91.067657
 20
813.308716
  0
VERTEX
  8
0
 10
91.533432
 20
813.919434
  0
VERTEX
  8
0
 10
92.478668
 20
815.236572
  0
VERTEX
  8
0
 10
94.796486
 20
818.595520
  0
VERTEX
  8
0
 10
95.789688
 20
819.999268
  0
VERTEX
  8
0
 10
96.919373
 20
821.513000
  0
VERTEX
  8
0
 10
98.004845
 20
822.858887
  0
VERTEX
  8
0
 10
98.596718
 20
823.543274
  0
VERTEX
  8
0
 10
99.295387
 20
824.307190
  0
VERTEX
  8
0
 10
99.898438
 20
824.930298
  0
VERTEX
  8
0
 10
100.603127
 20
825.617432
  0
VERTEX
  8
0
 10
101.304527
 20
826.258118
  0
VERTEX
  8
0
 10
101.998589
 20
826.849060
  0
VERTEX
  8
0
 10
102.685776
 20
827.388489
  0
VERTEX
  8
0
 10
103.272263
 20
827.809753
  0
VERTEX
  8
0
 10
103.859451
 20
828.192871
  0
VERTEX
  8
0
 10
104.351250
 20
828.482849
  0
VERTEX
  8
0
 10
104.846870
 20
828.746216
  0
VERTEX
  8
0
 10
105.450157
 20
829.028320
  0
VERTEX
  8
0
 10
105.964684
 20
829.238525
  0
VERTEX
  8
0
 10
106.602654
 20
829.465088
  0
VERTEX
  8
0
 10
107.269684
 20
829.668701
  0
VERTEX
  8
0
 10
107.973122
 20
829.854675
  0
VERTEX
  8
0
 10
108.846558
 20
830.055237
  0
VERTEX
  8
0
 10
109.888435
 20
830.261597
  0
VERTEX
  8
0
 10
110.926559
 20
830.436646
  0
VERTEX
  8
0
 10
111.908119
 20
830.572693
  0
VERTEX
  8
0
 10
112.681015
 20
830.654419
  0
VERTEX
  8
0
 10
113.460625
 20
830.708191
  0
VERTEX
  8
0
 10
114.159531
 20
830.731140
  0
VERTEX
  8
0
 10
115.157501
 20
830.734985
  0
VERTEX
  8
0
 10
113.981560
 20
834.540344
  0
VERTEX
  8
0
 10
113.558746
 20
835.820923
  0
VERTEX
  8
0
 10
113.117653
 20
837.081726
  0
VERTEX
  8
0
 10
112.653671
 20
838.317261
  0
VERTEX
  8
0
 10
112.250854
 20
839.317810
  0
VERTEX
  8
0
 10
111.755463
 20
840.463806
  0
VERTEX
  8
0
 10
111.338516
 20
841.357849
  0
VERTEX
  8
0
 10
110.841095
 20
842.337402
  0
VERTEX
  8
0
 10
110.434845
 20
843.060303
  0
VERTEX
  8
0
 10
110.041245
 20
843.684998
  0
VERTEX
  8
0
 10
109.656250
 20
844.212891
  0
VERTEX
  8
0
 10
109.269608
 20
844.655762
  0
VERTEX
  8
0
 10
108.870934
 20
845.025818
  0
VERTEX
  8
0
 10
108.449844
 20
845.335388
  0
VERTEX
  8
0
 10
107.995781
 20
845.596436
  0
VERTEX
  8
0
 10
107.498276
 20
845.821289
  0
VERTEX
  8
0
 10
106.837189
 20
846.055969
  0
VERTEX
  8
0
 10
106.114838
 20
846.257813
  0
VERTEX
  8
0
 10
105.210152
 20
846.457703
  0
VERTEX
  8
0
 10
104.116875
 20
846.648254
  0
VERTEX
  8
0
 10
102.840309
 20
846.826294
  0
VERTEX
  8
0
 10
101.799454
 20
846.939148
  0
VERTEX
  8
0
 10
100.677963
 20
847.024292
  0
VERTEX
  8
0
 10
99.250854
 20
847.081055
  0
VERTEX
  8
0
 10
97.834213
 20
847.089722
  0
VERTEX
  8
0
 10
96.013283
 20
847.055664
  0
VERTEX
  8
0
 10
90.407188
 20
846.893799
  0
VERTEX
  8
0
 10
88.354454
 20
846.873169
  0
VERTEX
  8
0
 10
85.942032
 20
846.886414
  0
VERTEX
  8
0
 10
83.276329
 20
846.944519
  0
VERTEX
  8
0
 10
81.352966
 20
847.025940
  0
VERTEX
  8
0
 10
80.687424
 20
847.075684
  0
VERTEX
  8
0
 10
80.129295
 20
847.137695
  0
VERTEX
  8
0
 10
79.729141
 20
847.200989
  0
VERTEX
  8
0
 10
79.306564
 20
847.293884
  0
VERTEX
  8
0
 10
78.989685
 20
847.390137
  0
VERTEX
  8
0
 10
78.752968
 20
847.484070
  0
VERTEX
  8
0
 10
78.471329
 20
847.627869
  0
VERTEX
  8
0
 10
78.252182
 20
847.767944
  0
VERTEX
  8
0
 10
78.033905
 20
847.933838
  0
VERTEX
  8
0
 10
77.755699
 20
848.182495
  0
VERTEX
  8
0
 10
77.220467
 20
848.760193
  0
VERTEX
  8
0
 10
76.904610
 20
849.151611
  0
VERTEX
  8
0
 10
76.579605
 20
849.589050
  0
VERTEX
  8
0
 10
75.982033
 20
850.481445
  0
VERTEX
  8
0
 10
75.516167
 20
851.258118
  0
VERTEX
  8
0
 10
74.441719
 20
853.172791
  0
VERTEX
  8
0
 10
74.083282
 20
853.753235
  0
VERTEX
  8
0
 10
73.782188
 20
854.193176
  0
VERTEX
  8
0
 10
73.383202
 20
854.699585
  0
VERTEX
  8
0
 10
72.954453
 20
855.145203
  0
VERTEX
  8
0
 10
72.494064
 20
855.529907
  0
VERTEX
  8
0
 10
72.001953
 20
855.859619
  0
VERTEX
  8
0
 10
71.691246
 20
856.033264
  0
VERTEX
  8
0
 10
71.258904
 20
856.239441
  0
VERTEX
  8
0
 10
70.920937
 20
856.376648
  0
VERTEX
  8
0
 10
70.452026
 20
856.538635
  0
VERTEX
  8
0
 10
69.962029
 20
856.679565
  0
VERTEX
  8
0
 10
69.449608
 20
856.801941
  0
VERTEX
  8
0
 10
68.477814
 20
856.975525
  0
VERTEX
  8
0
 10
67.374374
 20
857.101868
  0
VERTEX
  8
0
 10
66.096558
 20
857.186462
  0
VERTEX
  8
0
 10
64.602104
 20
857.234619
  0
VERTEX
  8
0
 10
62.603046
 20
857.252258
  0
VERTEX
  8
0
 10
59.795467
 20
857.232422
  0
VERTEX
  8
0
 10
55.964138
 20
857.167419
  0
VERTEX
  8
0
 10
51.830391
 20
857.076599
  0
VERTEX
  8
0
 10
49.097813
 20
856.987183
  0
VERTEX
  8
0
 10
47.553749
 20
856.901917
  0
VERTEX
  8
0
 10
46.570938
 20
856.806335
  0
VERTEX
  8
0
 10
45.859688
 20
856.683044
  0
VERTEX
  8
0
 10
45.573982
 20
856.608337
  0
VERTEX
  8
0
 10
45.257263
 20
856.500610
  0
VERTEX
  8
0
 10
44.903904
 20
856.347229
  0
VERTEX
  8
0
 10
44.612732
 20
856.196289
  0
VERTEX
  8
0
 10
44.264297
 20
855.981934
  0
VERTEX
  8
0
 10
43.973747
 20
855.771240
  0
VERTEX
  8
0
 10
43.682266
 20
855.527405
  0
VERTEX
  8
0
 10
43.388985
 20
855.246704
  0
VERTEX
  8
0
 10
43.152657
 20
854.993164
  0
VERTEX
  8
0
 10
42.854843
 20
854.638550
  0
VERTEX
  8
0
 10
42.318279
 20
853.911804
  0
VERTEX
  8
0
 10
41.735466
 20
853.011292
  0
VERTEX
  8
0
 10
41.237576
 20
852.159668
  0
VERTEX
  8
0
 10
40.311016
 20
850.479065
  0
VERTEX
  8
0
 10
39.889530
 20
849.786865
  0
VERTEX
  8
0
 10
39.436172
 20
849.154419
  0
VERTEX
  8
0
 10
39.192577
 20
848.864929
  0
VERTEX
  8
0
 10
38.935860
 20
848.593994
  0
VERTEX
  8
0
 10
38.594376
 20
848.281860
  0
VERTEX
  8
0
 10
38.303280
 20
848.053955
  0
VERTEX
  8
0
 10
37.914532
 20
847.796875
  0
VERTEX
  8
0
 10
37.582264
 20
847.613953
  0
VERTEX
  8
0
 10
37.229530
 20
847.451599
  0
VERTEX
  8
0
 10
36.761326
 20
847.277588
  0
VERTEX
  8
0
 10
36.271248
 20
847.133423
  0
VERTEX
  8
0
 10
35.768906
 20
847.017151
  0
VERTEX
  8
0
 10
35.163593
 20
846.911316
  0
VERTEX
  8
0
 10
34.474998
 20
846.829407
  0
VERTEX
  8
0
 10
33.827343
 20
846.786621
  0
VERTEX
  8
0
 10
33.187107
 20
846.776062
  0
VERTEX
  8
0
 10
27.476093
 20
846.949280
  0
VERTEX
  8
0
 10
21.281563
 20
847.079773
  0
VERTEX
  8
0
 10
17.530155
 20
847.116089
  0
VERTEX
  8
0
 10
16.073750
 20
847.106873
  0
VERTEX
  8
0
 10
14.750781
 20
847.077271
  0
VERTEX
  8
0
 10
13.723750
 20
847.032227
  0
VERTEX
  8
0
 10
12.937812
 20
846.978638
  0
VERTEX
  8
0
 10
12.071953
 20
846.892334
  0
VERTEX
  8
0
 10
11.409843
 20
846.799988
  0
VERTEX
  8
0
 10
10.797031
 20
846.687073
  0
VERTEX
  8
0
 10
10.120937
 20
846.522888
  0
VERTEX
  8
0
 10
9.603281
 20
846.363037
  0
VERTEX
  8
0
 10
9.032969
 20
846.146606
  0
VERTEX
  8
0
 10
8.431719
 20
845.864441
  0
VERTEX
  8
0
 10
7.820000
 20
845.508972
  0
VERTEX
  8
0
 10
7.341094
 20
845.171204
  0
VERTEX
  8
0
 10
6.898516
 20
844.786011
  0
VERTEX
  8
0
 10
6.473281
 20
844.321716
  0
VERTEX
  8
0
 10
6.108438
 20
843.836792
  0
VERTEX
  8
0
 10
5.665703
 20
843.141602
  0
VERTEX
  8
0
 10
5.262422
 20
842.418884
  0
VERTEX
  8
0
 10
4.768125
 20
841.431946
  0
VERTEX
  8
0
 10
4.329609
 20
840.469727
  0
VERTEX
  8
0
 10
3.807500
 20
839.220032
  0
VERTEX
  8
0
 10
3.356484
 20
838.046936
  0
VERTEX
  8
0
 10
2.906016
 20
836.788940
  0
VERTEX
  8
0
 10
2.381484
 20
835.234924
  0
VERTEX
  8
0
 10
1.000000
 20
830.877686
  0
SEQEND
  8
0
  0
POLYLINE
  8
0
  0
VERTEX
  8
0
 10
58.059685
 20
813.332092
  0
VERTEX
  8
0
 10
58.059685
 20
824.282715
  0
VERTEX
  8
0
 10
58.059685
 20
835.233337
  0
VERTEX
  8
0
 10
58.059685
 20
846.183960
  0
VERTEX
  8
0
 10
58.059685
 20
857.134583
  0
SEQEND
  8
0
  0
POLYLINE
  8
0
  0
VERTEX
  8
0
 10
55.266716
 20
840.186707
  0
VERTEX
  8
0
 10
60.569763
 20
840.035278
  0
SEQEND
  8
0
  0
POLYLINE
  8
0
  0
VERTEX
  8
0
 10
54.465935
 20
821.625427
  0
VERTEX
  8
0
 10
61.368591
 20
821.598633
  0
SEQEND
  8
0
  0
POLYLINE
  8
0
  0
VERTEX
  8
0
 10
1.382734
 20
834.859619
  0
VERTEX
  8
0
 10
4.219141
 20
834.631409
  0
VERTEX
  8
0
 10
5.257109
 20
834.528259
  0
VERTEX
  8
0
 10
6.231484
 20
834.411133
  0
VERTEX
  8
0
 10
7.131250
 20
834.276245
  0
VERTEX
  8
0
 10
7.854609
 20
834.143433
  0
VERTEX
  8
0
 10
8.548750
 20
833.992432
  0
VERTEX
  8
0
 10
9.340468
 20
833.790039
  0
VERTEX
  8
0
 10
10.133828
 20
833.556091
  0
VERTEX
  8
0
 10
10.946172
 20
833.283936
  0
VERTEX
  8
0
 10
11.660625
 20
833.010376
  0
VERTEX
  8
0
 10
12.392890
 20
832.689758
  0
VERTEX
  8
0
 10
13.144062
 20
832.313049
  0
VERTEX
  8
0
 10
13.785313
 20
831.949585
  0
VERTEX
  8
0
 10
14.440547
 20
831.536560
  0
VERTEX
  8
0
 10
15.107031
 20
831.076294
  0
VERTEX
  8
0
 10
15.780468
 20
830.574768
  0
VERTEX
  8
0
 10
16.456562
 20
830.037415
  0
VERTEX
  8
0
 10
17.131016
 20
829.469971
  0
VERTEX
  8
0
 10
17.932264
 20
828.757507
  0
VERTEX
  8
0
 10
18.717968
 20
828.019287
  0
VERTEX
  8
0
 10
19.358515
 20
827.386597
  0
VERTEX
  8
0
 10
19.985703
 20
826.737244
  0
VERTEX
  8
0
 10
20.599218
 20
826.070557
  0
VERTEX
  8
0
 10
21.198515
 20
825.385498
  0
VERTEX
  8
0
 10
21.783438
 20
824.681458
  0
VERTEX
  8
0
 10
22.353437
 20
823.957703
  0
VERTEX
  8
0
 10
22.908516
 20
823.217102
  0
VERTEX
  8
0
 10
23.870546
 20
821.865356
  0
VERTEX
  8
0
 10
25.655390
 20
819.251648
  0
VERTEX
  8
0
 10
26.557655
 20
817.956909
  0
VERTEX
  8
0
 10
27.500546
 20
816.653870
  0
VERTEX
  8
0
 10
28.175781
 20
815.778015
  0
VERTEX
  8
0
 10
28.692656
 20
815.186157
  0
VERTEX
  8
0
 10
28.919296
 20
814.968079
  0
VERTEX
  8
0
 10
29.113203
 20
814.809265
  0
VERTEX
  8
0
 10
29.343203
 20
814.649902
  0
VERTEX
  8
0
 10
29.552500
 20
814.532532
  0
VERTEX
  8
0
 10
29.786249
 20
814.433960
  0
VERTEX
  8
0
 10
30.063437
 20
814.350403
  0
VERTEX
  8
0
 10
30.600468
 20
814.249756
  0
VERTEX
  8
0
 10
31.191093
 20
814.206299
  0
VERTEX
  8
0
 10
31.858124
 20
814.218323
  0
VERTEX
  8
0
 10
32.679451
 20
814.295044
  0
VERTEX
  8
0
 10
34.031719
 20
814.493103
  0
VERTEX
  8
0
 10
39.699062
 20
815.436157
  0
VERTEX
  8
0
 10
43.286404
 20
815.992737
  0
VERTEX
  8
0
 10
46.341091
 20
816.415588
  0
VERTEX
  8
0
 10
49.271561
 20
816.752258
  0
VERTEX
  8
0
 10
51.427185
 20
816.945374
  0
VERTEX
  8
0
 10
53.774529
 20
817.097168
  0
VERTEX
  8
0
 10
56.014450
 20
817.179932
  0
VERTEX
  8
0
 10
58.164219
 20
817.198730
  0
VERTEX
  8
0
 10
59.468281
 20
817.181396
  0
VERTEX
  8
0
 10
60.745625
 20
817.144226
  0
VERTEX
  8
0
 10
63.476406
 20
817.003357
  0
VERTEX
  8
0
 10
64.928902
 20
816.898804
  0
VERTEX
  8
0
 10
66.599762
 20
816.756470
  0
VERTEX
  8
0
 10
69.433830
 20
816.455994
  0
VERTEX
  8
0
 10
71.799294
 20
816.144104
  0
VERTEX
  8
0
 10
74.188354
 20
815.773193
  0
VERTEX
  8
0
 10
76.523438
 20
815.371338
  0
VERTEX
  8
0
 10
81.050781
 20
814.553833
  0
VERTEX
  8
0
 10
82.852814
 20
814.249878
  0
VERTEX
  8
0
 10
84.031715
 20
814.085205
  0
VERTEX
  8
0
 10
84.459137
 20
814.044922
  0
VERTEX
  8
0
 10
84.852264
 20
814.028870
  0
VERTEX
  8
0
 10
85.203514
 20
814.045166
  0
VERTEX
  8
0
 10
85.533745
 20
814.098328
  0
VERTEX
  8
0
 10
85.888596
 20
814.193054
  0
VERTEX
  8
0
 10
86.213043
 20
814.319275
  0
VERTEX
  8
0
 10
86.509377
 20
814.473511
  0
VERTEX
  8
0
 10
86.816635
 20
814.676147
  0
VERTEX
  8
0
 10
87.107811
 20
814.915527
  0
VERTEX
  8
0
 10
87.393829
 20
815.198364
  0
VERTEX
  8
0
 10
87.923668
 20
815.816162
  0
VERTEX
  8
0
 10
88.623672
 20
816.743652
  0
VERTEX
  8
0
 10
91.798668
 20
821.302185
  0
VERTEX
  8
0
 10
93.029839
 20
823.009277
  0
VERTEX
  8
0
 10
94.108589
 20
824.419495
  0
VERTEX
  8
0
 10
95.184219
 20
825.727844
  0
VERTEX
  8
0
 10
95.952965
 20
826.599365
  0
VERTEX
  8
0
 10
96.625389
 20
827.319885
  0
VERTEX
  8
0
 10
97.423592
 20
828.126831
  0
VERTEX
  8
0
 10
98.117653
 20
828.787415
  0
VERTEX
  8
0
 10
98.937027
 20
829.519104
  0
VERTEX
  8
0
 10
99.645782
 20
830.110535
  0
VERTEX
  8
0
 10
100.361015
 20
830.666260
  0
VERTEX
  8
0
 10
101.083595
 20
831.183350
  0
VERTEX
  8
0
 10
101.814529
 20
831.659058
  0
VERTEX
  8
0
 10
102.430626
 20
832.021851
  0
VERTEX
  8
0
 10
103.053902
 20
832.352234
  0
VERTEX
  8
0
 10
103.685387
 20
832.650146
  0
VERTEX
  8
0
 10
104.327812
 20
832.918396
  0
VERTEX
  8
0
 10
105.116951
 20
833.205994
  0
VERTEX
  8
0
 10
105.930626
 20
833.461609
  0
VERTEX
  8
0
 10
106.773590
 20
833.691101
  0
VERTEX
  8
0
 10
107.799057
 20
833.933044
  0
VERTEX
  8
0
 10
109.003593
 20
834.177307
  0
VERTEX
  8
0
 10
110.191635
 20
834.381592
  0
VERTEX
  8
0
 10
111.308594
 20
834.539795
  0
VERTEX
  8
0
 10
112.185936
 20
834.635986
  0
VERTEX
  8
0
 10
113.062576
 20
834.700195
  0
VERTEX
  8
0
 10
113.931091
 20
834.729980
  0
VERTEX
  8
0
 10
114.985931
 20
834.732422
  0
SEQEND
  8
0
  0
POLYLINE
  8
0
  0
VERTEX
  8
0
 10
67.787262
 20
854.152710
  0
VERTEX
  8
0
 10
67.692108
 20
854.631165
  0
VERTEX
  8
0
 10
67.421089
 20
855.036621
  0
VERTEX
  8
0
 10
67.015625
 20
855.307556
  0
VERTEX
  8
0
 10
66.537262
 20
855.402710
  0
VERTEX
  8
0
 10
66.058907
 20
855.307556
  0
VERTEX
  8
0
 10
65.653358
 20
855.036621
  0
VERTEX
  8
0
 10
65.382423
 20
854.631165
  0
VERTEX
  8
0
 10
65.287262
 20
854.152710
  0
VERTEX
  8
0
 10
65.382423
 20
853.674438
  0
VERTEX
  8
0
 10
65.653358
 20
853.268860
  0
VERTEX
  8
0
 10
66.058907
 20
852.997864
  0
VERTEX
  8
0
 10
66.537262
 20
852.902710
  0
VERTEX
  8
0
 10
67.015625
 20
852.997864
  0
VERTEX
  8
0
 10
67.421089
 20
853.268860
  0
VERTEX
  8
0
 10
67.692108
 20
853.674438
  0
VERTEX
  8
0
 10
67.787262
 20
854.152710
  0
SEQEND
  8
0
  0
POLYLINE
  8
0
  0
VERTEX
  8
0
 10
50.786873
 20
854.231201
  0
VERTEX
  8
0
 10
50.691719
 20
854.709595
  0
VERTEX
  8
0
 10
50.420780
 20
855.115112
  0
VERTEX
  8
0
 10
50.015232
 20
855.386047
  0
VERTEX
  8
0
 10
49.536873
 20
855.481201
  0
VERTEX
  8
0
 10
49.058514
 20
855.386047
  0
VERTEX
  8
0
 10
48.652969
 20
855.115112
  0
VERTEX
  8
0
 10
48.382030
 20
854.709595
  0
VERTEX
  8
0
 10
48.286873
 20
854.231201
  0
VERTEX
  8
0
 10
48.382030
 20
853.752869
  0
VERTEX
  8
0
 10
48.652969
 20
853.347351
  0
VERTEX
  8
0
 10
49.058514
 20
853.076416
  0
VERTEX
  8
0
 10
49.536873
 20
852.981201
  0
VERTEX
  8
0
 10
50.015232
 20
853.076416
  0
VERTEX
  8
0
 10
50.420780
 20
853.347351
  0
VERTEX
  8
0
 10
50.691719
 20
853.752869
  0
VERTEX
  8
0
 10
50.786873
 20
854.231201
  0
SEQEND
  8
0
  0
POLYLINE
  8
0
  0
VERTEX
  8
0
 10
59.364452
 20
816.083557
  0
VERTEX
  8
0
 10
59.269295
 20
816.561951
  0
VERTEX
  8
0
 10
58.998280
 20
816.967468
  0
VERTEX
  8
0
 10
58.592812
 20
817.238403
  0
VERTEX
  8
0
 10
58.114452
 20
817.333557
  0
VERTEX
  8
0
 10
57.636093
 20
817.238403
  0
VERTEX
  8
0
 10
57.230545
 20
816.967468
  0
VERTEX
  8
0
 10
56.959610
 20
816.561951
  0
VERTEX
  8
0
 10
56.864452
 20
816.083557
  0
VERTEX
  8
0
 10
56.959610
 20
815.605225
  0
VERTEX
  8
0
 10
57.230545
 20
815.199768
  0
VERTEX
  8
0
 10
57.636093
 20
814.928711
  0
VERTEX
  8
0
 10
58.114452
 20
814.833557
  0
VERTEX
  8
0
 10
58.592812
 20
814.928711
  0
VERTEX
  8
0
 10
58.998280
 20
815.199768
  0
VERTEX
  8
0
 10
59.269295
 20
815.605225
  0
VERTEX
  8
0
 10
59.364452
 20
816.083557
  0
SEQEND
  8
0
  0
POLYLINE
  8
0
  0
VERTEX
  8
0
 10
95.802650
 20
171.571640
  0
VERTEX
  8
0
 10
97.085854
 20
186.171951
  0
VERTEX
  8
0
 10
98.369057
 20
200.772263
  0
VERTEX
  8
0
 10
99.652260
 20
215.372650
  0
VERTEX
  8
0
 10
100.935623
 20
229.972961
  0
VERTEX
  8
0
 10
87.795151
 20
241.668671
  0
VERTEX
  8
0
 10
89.635780
 20
254.668350
  0
VERTEX
  8
0
 10
91.058746
 20
264.899292
  0
VERTEX
  8
0
 10
92.741402
 20
277.302887
  0
VERTEX
  8
0
 10
94.626953
 20
291.323669
  0
VERTEX
  8
0
 10
95.709839
 20
299.195618
  0
VERTEX
  8
0
 10
96.437187
 20
304.276001
  0
VERTEX
  8
0
 10
97.072731
 20
308.482574
  0
VERTEX
  8
0
 10
97.710464
 20
312.475769
  0
VERTEX
  8
0
 10
98.730232
 20
318.626099
  0
VERTEX
  8
0
 10
99.210152
 20
321.751099
  0
VERTEX
  8
0
 10
99.539528
 20
324.115997
  0
VERTEX
  8
0
 10
99.848907
 20
326.499512
  0
VERTEX
  8
0
 10
101.651482
 20
341.520386
  0
VERTEX
  8
0
 10
95.625626
 20
344.941467
  0
VERTEX
  8
0
 10
86.307343
 20
350.209290
  0
VERTEX
  8
0
 10
68.864998
 20
359.962402
  0
VERTEX
  8
0
 10
63.581875
 20
362.936951
  0
VERTEX
  8
0
 10
55.654453
 20
367.459137
  0
VERTEX
  8
0
 10
44.188984
 20
374.065857
  0
VERTEX
  8
0
 10
30.923750
 20
350.179443
  0
VERTEX
  8
0
 10
21.836874
 20
333.709595
  0
VERTEX
  8
0
 10
14.937265
 20
321.230927
  0
VERTEX
  8
0
 10
10.789765
 20
323.363892
  0
VERTEX
  8
0
 10
9.132031
 20
320.602020
  0
VERTEX
  8
0
 10
7.855703
 20
318.432404
  0
VERTEX
  8
0
 10
6.743515
 20
316.479675
  0
VERTEX
  8
0
 10
5.681719
 20
314.535065
  0
VERTEX
  8
0
 10
4.588359
 20
312.435242
  0
VERTEX
  8
0
 10
3.617812
 20
310.466003
  0
VERTEX
  8
0
 10
2.800781
 20
308.690460
  0
VERTEX
  8
0
 10
2.205078
 20
307.263519
  0
VERTEX
  8
0
 10
1.785312
 20
306.113190
  0
VERTEX
  8
0
 10
1.466953
 20
305.058441
  0
VERTEX
  8
0
 10
1.246172
 20
304.082245
  0
VERTEX
  8
0
 10
1.107109
 20
303.160309
  0
VERTEX
  8
0
 10
1.020625
 20
302.045074
  0
VERTEX
  8
0
 10
1.000000
 20
301.263580
  0
VERTEX
  8
0
 10
1.003828
 20
300.690857
  0
VERTEX
  8
0
 10
1.065625
 20
299.835938
  0
VERTEX
  8
0
 10
1.146875
 20
299.303680
  0
VERTEX
  8
0
 10
1.236484
 20
298.877106
  0
VERTEX
  8
0
 10
1.451563
 20
298.103027
  0
VERTEX
  8
0
 10
1.763828
 20
297.235535
  0
VERTEX
  8
0
 10
2.095000
 20
296.463287
  0
VERTEX
  8
0
 10
2.614063
 20
295.398499
  0
VERTEX
  8
0
 10
3.242265
 20
294.235229
  0
VERTEX
  8
0
 10
3.970547
 20
292.986542
  0
VERTEX
  8
0
 10
4.790078
 20
291.665771
  0
VERTEX
  8
0
 10
5.692187
 20
290.286011
  0
VERTEX
  8
0
 10
6.467109
 20
289.148590
  0
VERTEX
  8
0
 10
7.495625
 20
287.694458
  0
VERTEX
  8
0
 10
8.586094
 20
286.205078
  0
VERTEX
  8
0
 10
9.735312
 20
284.677032
  0
VERTEX
  8
0
 10
11.941406
 20
281.818420
  0
VERTEX
  8
0
 10
18.184687
 20
273.874207
  0
VERTEX
  8
0
 10
21.366484
 20
269.783356
  0
VERTEX
  8
0
 10
23.865391
 20
266.488983
  0
VERTEX
  8
0
 10
24.834921
 20
265.171478
  0
VERTEX
  8
0
 10
25.883047
 20
263.707977
  0
VERTEX
  8
0
 10
26.976797
 20
262.121490
  0
VERTEX
  8
0
 10
27.966640
 20
260.616486
  0
VERTEX
  8
0
 10
28.887655
 20
259.145386
  0
VERTEX
  8
0
 10
29.751249
 20
257.697021
  0
VERTEX
  8
0
 10
30.666172
 20
256.082031
  0
VERTEX
  8
0
 10
31.501719
 20
254.523972
  0
VERTEX
  8
0
 10
32.255466
 20
253.036713
  0
VERTEX
  8
0
 10
32.927498
 20
251.618347
  0
VERTEX
  8
0
 10
33.520546
 20
250.250000
  0
VERTEX
  8
0
 10
34.037186
 20
248.912735
  0
VERTEX
  8
0
 10
34.428593
 20
247.752808
  0
VERTEX
  8
0
 10
34.756405
 20
246.581085
  0
VERTEX
  8
0
 10
34.973438
 20
245.544998
  0
VERTEX
  8
0
 10
35.056171
 20
245.009598
  0
VERTEX
  8
0
 10
35.119686
 20
244.459442
  0
VERTEX
  8
0
 10
35.162655
 20
243.892105
  0
VERTEX
  8
0
 10
35.183750
 20
243.305389
  0
VERTEX
  8
0
 10
35.166092
 20
242.277573
  0
VERTEX
  8
0
 10
35.104141
 20
241.411713
  0
VERTEX
  8
0
 10
35.006248
 20
240.522644
  0
VERTEX
  8
0
 10
34.879532
 20
239.628113
  0
VERTEX
  8
0
 10
34.731171
 20
238.744995
  0
VERTEX
  8
0
 10
34.526173
 20
237.683823
  0
VERTEX
  8
0
 10
34.312656
 20
236.701401
  0
VERTEX
  8
0
 10
34.064686
 20
235.673981
  0
VERTEX
  8
0
 10
33.840782
 20
234.842178
  0
VERTEX
  8
0
 10
33.669842
 20
234.279755
  0
VERTEX
  8
0
 10
33.509140
 20
233.814377
  0
VERTEX
  8
0
 10
33.354763
 20
233.425308
  0
VERTEX
  8
0
 10
33.172501
 20
233.030380
  0
VERTEX
  8
0
 10
32.955780
 20
232.624374
  0
VERTEX
  8
0
 10
32.697422
 20
232.193985
  0
VERTEX
  8
0
 10
32.138279
 20
231.378906
  0
VERTEX
  8
0
 10
32.129139
 20
231.632111
  0
VERTEX
  8
0
 10
31.879141
 20
231.153671
  0
VERTEX
  8
0
 10
31.575546
 20
230.735458
  0
VERTEX
  8
0
 10
31.135000
 20
230.263275
  0
VERTEX
  8
0
 10
30.457890
 20
229.646866
  0
VERTEX
  8
0
 10
29.652109
 20
228.994766
  0
VERTEX
  8
0
 10
28.873436
 20
228.430145
  0
VERTEX
  8
0
 10
28.204062
 20
228.006241
  0
VERTEX
  8
0
 10
27.412577
 20
227.578278
  0
VERTEX
  8
0
 10
26.419374
 20
227.117111
  0
VERTEX
  8
0
 10
25.323906
 20
226.663986
  0
VERTEX
  8
0
 10
23.830469
 20
226.093506
  0
VERTEX
  8
0
 10
22.207344
 20
225.508743
  0
VERTEX
  8
0
 10
20.594296
 20
224.955460
  0
VERTEX
  8
0
 10
19.129141
 20
224.478439
  0
VERTEX
  8
0
 10
15.661406
 20
223.434052
  0
VERTEX
  8
0
 10
14.575313
 20
223.092026
  0
VERTEX
  8
0
 10
13.316640
 20
222.659531
  0
VERTEX
  8
0
 10
12.097422
 20
222.188126
  0
VERTEX
  8
0
 10
11.469999
 20
221.914688
  0
VERTEX
  8
0
 10
10.897578
 20
221.636246
  0
VERTEX
  8
0
 10
10.393203
 20
221.355469
  0
VERTEX
  8
0
 10
9.957188
 20
221.075775
  0
VERTEX
  8
0
 10
9.514844
 20
220.746719
  0
VERTEX
  8
0
 10
9.150312
 20
220.431320
  0
VERTEX
  8
0
 10
8.808906
 20
220.089050
  0
VERTEX
  8
0
 10
8.475390
 20
219.698517
  0
VERTEX
  8
0
 10
8.271563
 20
219.358673
  0
VERTEX
  8
0
 10
8.115859
 20
218.946564
  0
VERTEX
  8
0
 10
7.961484
 20
218.345078
  0
VERTEX
  8
0
 10
7.793593
 20
217.480301
  0
VERTEX
  8
0
 10
7.488672
 20
215.569138
  0
VERTEX
  8
0
 10
6.665234
 20
209.908905
  0
VERTEX
  8
0
 10
6.228906
 20
207.046005
  0
VERTEX
  8
0
 10
5.731562
 20
204.050705
  0
VERTEX
  8
0
 10
5.173515
 20
200.997971
  0
VERTEX
  8
0
 10
4.762422
 20
198.935852
  0
VERTEX
  8
0
 10
4.296562
 20
196.766006
  0
VERTEX
  8
0
 10
3.775937
 20
194.493896
  0
VERTEX
  8
0
 10
3.096562
 20
191.655701
  0
VERTEX
  8
0
 10
14.827343
 20
187.778748
  0
VERTEX
  8
0
 10
22.974922
 20
185.134064
  0
VERTEX
  8
0
 10
29.498047
 20
183.087814
  0
VERTEX
  8
0
 10
35.729141
 20
181.210312
  0
VERTEX
  8
0
 10
39.509140
 20
180.105301
  0
VERTEX
  8
0
 10
43.478123
 20
178.972031
  0
VERTEX
  8
0
 10
47.535938
 20
177.844925
  0
VERTEX
  8
0
 10
50.912579
 20
176.935226
  0
VERTEX
  8
0
 10
54.222733
 20
176.073441
  0
VERTEX
  8
0
 10
57.408981
 20
175.279297
  0
VERTEX
  8
0
 10
59.845547
 20
174.700775
  0
VERTEX
  8
0
 10
62.750622
 20
174.048508
  0
VERTEX
  8
0
 10
64.963905
 20
173.583115
  0
VERTEX
  8
0
 10
67.080078
 20
173.167343
  0
VERTEX
  8
0
 10
69.100624
 20
172.800858
  0
VERTEX
  8
0
 10
71.026718
 20
172.483276
  0
VERTEX
  8
0
 10
72.859840
 20
172.214294
  0
VERTEX
  8
0
 10
74.601875
 20
171.993042
  0
VERTEX
  8
0
 10
76.259918
 20
171.816330
  0
VERTEX
  8
0
 10
77.843590
 20
171.678986
  0
VERTEX
  8
0
 10
79.362808
 20
171.576401
  0
VERTEX
  8
0
 10
81.185936
 20
171.489456
  0
VERTEX
  8
0
 10
82.942421
 20
171.439453
  0
VERTEX
  8
0
 10
84.989136
 20
171.414917
  0
VERTEX
  8
0
 10
87.329605
 20
171.416473
  0
VERTEX
  8
0
 10
89.636948
 20
171.440628
  0
VERTEX
  8
0
 10
95.802650
 20
171.571640
  0
SEQEND
  8
0
  0
POLYLINE
  8
0
  0
VERTEX
  8
0
 10
100.617966
 20
332.907715
  0
VERTEX
  8
0
 10
91.682266
 20
337.980865
  0
VERTEX
  8
0
 10
82.386642
 20
343.235687
  0
VERTEX
  8
0
 10
64.950310
 20
352.985535
  0
VERTEX
  8
0
 10
59.637421
 20
355.976959
  0
VERTEX
  8
0
 10
51.675388
 20
360.518829
  0
VERTEX
  8
0
 10
40.304531
 20
367.071167
  0
SEQEND
  8
0
  0
POLYLINE
  8
0
  0
VERTEX
  8
0
 10
94.863747
 20
216.972412
  0
VERTEX
  8
0
 10
87.206871
 20
224.984680
  0
VERTEX
  8
0
 10
84.365776
 20
228.017410
  0
VERTEX
  8
0
 10
82.884453
 20
229.656631
  0
VERTEX
  8
0
 10
81.358437
 20
231.405151
  0
VERTEX
  8
0
 10
80.050232
 20
232.960464
  0
VERTEX
  8
0
 10
78.708359
 20
234.612030
  0
VERTEX
  8
0
 10
76.506950
 20
237.410156
  0
VERTEX
  8
0
 10
70.617111
 20
245.040619
  0
VERTEX
  8
0
 10
63.827343
 20
253.605774
  0
VERTEX
  8
0
 10
62.656326
 20
255.127029
  0
VERTEX
  8
0
 10
61.803825
 20
256.272644
  0
VERTEX
  8
0
 10
61.052422
 20
257.325226
  0
VERTEX
  8
0
 10
60.391247
 20
258.302490
  0
VERTEX
  8
0
 10
59.809452
 20
259.221863
  0
VERTEX
  8
0
 10
59.393826
 20
259.927643
  0
VERTEX
  8
0
 10
58.927341
 20
260.787506
  0
VERTEX
  8
0
 10
58.511326
 20
261.635529
  0
VERTEX
  8
0
 10
58.143047
 20
262.472107
  0
VERTEX
  8
0
 10
57.821404
 20
263.294434
  0
VERTEX
  8
0
 10
57.447498
 20
264.416016
  0
VERTEX
  8
0
 10
57.160000
 20
265.495453
  0
VERTEX
  8
0
 10
56.955780
 20
266.525085
  0
VERTEX
  8
0
 10
56.828514
 20
267.498810
  0
VERTEX
  8
0
 10
56.766403
 20
268.537811
  0
VERTEX
  8
0
 10
56.780231
 20
269.492096
  0
VERTEX
  8
0
 10
56.821796
 20
270.042816
  0
VERTEX
  8
0
 10
56.871872
 20
270.461700
  0
VERTEX
  8
0
 10
57.039219
 20
271.346954
  0
VERTEX
  8
0
 10
57.207966
 20
272.017487
  0
VERTEX
  8
0
 10
57.441406
 20
272.847656
  0
VERTEX
  8
0
 10
58.245312
 20
275.520935
  0
VERTEX
  8
0
 10
59.658047
 20
280.111633
  0
VERTEX
  8
0
 10
61.064999
 20
284.564056
  0
VERTEX
  8
0
 10
62.153671
 20
287.923676
  0
VERTEX
  8
0
 10
63.146248
 20
290.921936
  0
VERTEX
  8
0
 10
66.798203
 20
301.701080
  0
VERTEX
  8
0
 10
68.010002
 20
305.331329
  0
VERTEX
  8
0
 10
69.243668
 20
309.172577
  0
VERTEX
  8
0
 10
70.085464
 20
311.993744
  0
VERTEX
  8
0
 10
70.534843
 20
313.628418
  0
VERTEX
  8
0
 10
70.984840
 20
315.422485
  0
VERTEX
  8
0
 10
71.325386
 20
316.967896
  0
VERTEX
  8
0
 10
71.611481
 20
318.537170
  0
VERTEX
  8
0
 10
71.789375
 20
319.845306
  0
VERTEX
  8
0
 10
71.893204
 20
321.108429
  0
VERTEX
  8
0
 10
71.908516
 20
321.577484
  0
VERTEX
  8
0
 10
71.904533
 20
322.145935
  0
VERTEX
  8
0
 10
71.874924
 20
322.658264
  0
VERTEX
  8
0
 10
71.822189
 20
323.124847
  0
VERTEX
  8
0
 10
71.749138
 20
323.555450
  0
VERTEX
  8
0
 10
71.633049
 20
324.058746
  0
VERTEX
  8
0
 10
71.493042
 20
324.542023
  0
VERTEX
  8
0
 10
71.312340
 20
325.033752
  0
VERTEX
  8
0
 10
71.117027
 20
325.456329
  0
VERTEX
  8
0
 10
70.858513
 20
325.924377
  0
VERTEX
  8
0
 10
70.520233
 20
326.455627
  0
VERTEX
  8
0
 10
70.203979
 20
326.906158
  0
VERTEX
  8
0
 10
69.685860
 20
327.590851
  0
VERTEX
  8
0
 10
69.042030
 20
328.387726
  0
VERTEX
  8
0
 10
67.579216
 20
330.085846
  0
VERTEX
  8
0
 10
65.723511
 20
332.114532
  0
VERTEX
  8
0
 10
63.869297
 20
334.044617
  0
VERTEX
  8
0
 10
62.169529
 20
335.742340
  0
VERTEX
  8
0
 10
60.354374
 20
337.484375
  0
VERTEX
  8
0
 10
58.447266
 20
339.236542
  0
VERTEX
  8
0
 10
56.467110
 20
340.979767
  0
VERTEX
  8
0
 10
54.426250
 20
342.714600
  0
VERTEX
  8
0
 10
51.914295
 20
344.787262
  0
VERTEX
  8
0
 10
49.353436
 20
346.853210
  0
VERTEX
  8
0
 10
45.899220
 20
349.602112
  0
SEQEND
  8
0
  0
POLYLINE
  8
0
  0
VERTEX
  8
0
 10
70.104767
 20
236.640152
  0
VERTEX
  8
0
 10
69.004532
 20
232.996017
  0
VERTEX
  8
0
 10
68.282341
 20
230.419846
  0
VERTEX
  8
0
 10
67.690933
 20
228.062180
  0
VERTEX
  8
0
 10
67.418747
 20
226.852020
  0
VERTEX
  8
0
 10
67.164528
 20
225.626328
  0
VERTEX
  8
0
 10
66.873360
 20
224.095306
  0
VERTEX
  8
0
 10
66.613434
 20
222.593277
  0
VERTEX
  8
0
 10
66.386406
 20
221.150467
  0
VERTEX
  8
0
 10
66.160080
 20
219.539215
  0
VERTEX
  8
0
 10
65.986565
 20
218.107880
  0
VERTEX
  8
0
 10
65.884064
 20
217.073349
  0
VERTEX
  8
0
 10
65.811172
 20
215.988983
  0
VERTEX
  8
0
 10
65.791481
 20
215.182800
  0
VERTEX
  8
0
 10
65.802498
 20
214.581329
  0
VERTEX
  8
0
 10
65.849060
 20
213.859680
  0
VERTEX
  8
0
 10
65.931877
 20
213.145309
  0
VERTEX
  8
0
 10
66.050781
 20
212.411789
  0
VERTEX
  8
0
 10
66.209526
 20
211.649689
  0
VERTEX
  8
0
 10
66.368668
 20
211.017578
  0
VERTEX
  8
0
 10
66.612267
 20
210.197723
  0
VERTEX
  8
0
 10
66.846169
 20
209.516632
  0
VERTEX
  8
0
 10
67.117577
 20
208.811798
  0
VERTEX
  8
0
 10
67.347420
 20
208.266953
  0
VERTEX
  8
0
 10
67.601013
 20
207.707581
  0
VERTEX
  8
0
 10
67.975861
 20
206.939835
  0
VERTEX
  8
0
 10
68.705391
 20
205.556641
  0
VERTEX
  8
0
 10
70.638046
 20
202.044220
  0
VERTEX
  8
0
 10
71.173828
 20
200.981476
  0
VERTEX
  8
0
 10
71.618828
 20
200.001953
  0
VERTEX
  8
0
 10
71.870621
 20
199.393356
  0
VERTEX
  8
0
 10
72.141167
 20
198.679764
  0
VERTEX
  8
0
 10
72.369293
 20
198.016251
  0
VERTEX
  8
0
 10
72.597031
 20
197.282028
  0
VERTEX
  8
0
 10
72.785934
 20
196.609756
  0
VERTEX
  8
0
 10
72.915855
 20
196.071396
  0
VERTEX
  8
0
 10
73.016563
 20
195.511551
  0
VERTEX
  8
0
 10
73.073204
 20
195.021240
  0
VERTEX
  8
0
 10
73.110855
 20
194.322021
  0
VERTEX
  8
0
 10
73.111717
 20
193.668671
  0
VERTEX
  8
0
 10
73.084221
 20
192.909683
  0
VERTEX
  8
0
 10
73.026329
 20
192.025223
  0
VERTEX
  8
0
 10
72.938438
 20
191.013428
  0
VERTEX
  8
0
 10
72.790390
 20
189.593277
  0
VERTEX
  8
0
 10
72.433517
 20
186.697723
  0
VERTEX
  8
0
 10
71.987579
 20
183.523895
  0
VERTEX
  8
0
 10
71.424843
 20
179.882568
  0
VERTEX
  8
0
 10
70.754219
 20
175.841644
  0
VERTEX
  8
0
 10
69.859764
 20
170.671173
  0
SEQEND
  8
0
  0
POLYLINE
  8
0
  0
VERTEX
  8
0
 10
45.230076
 20
180.367264
  0
VERTEX
  8
0
 10
45.713280
 20
182.208359
  0
VERTEX
  8
0
 10
46.026249
 20
183.504288
  0
VERTEX
  8
0
 10
46.250546
 20
184.583038
  0
VERTEX
  8
0
 10
46.410469
 20
185.589844
  0
VERTEX
  8
0
 10
46.494923
 20
186.509689
  0
VERTEX
  8
0
 10
46.511250
 20
186.994995
  0
VERTEX
  8
0
 10
46.506329
 20
187.450699
  0
VERTEX
  8
0
 10
46.481640
 20
187.876556
  0
VERTEX
  8
0
 10
46.438747
 20
188.272339
  0
VERTEX
  8
0
 10
46.379063
 20
188.637650
  0
VERTEX
  8
0
 10
46.304375
 20
188.972580
  0
VERTEX
  8
0
 10
46.165466
 20
189.421005
  0
VERTEX
  8
0
 10
45.991093
 20
189.822723
  0
VERTEX
  8
0
 10
45.776249
 20
190.200699
  0
VERTEX
  8
0
 10
45.515938
 20
190.577499
  0
VERTEX
  8
0
 10
44.774685
 20
191.494370
  0
VERTEX
  8
0
 10
42.749920
 20
193.839676
  0
VERTEX
  8
0
 10
42.030079
 20
194.699768
  0
VERTEX
  8
0
 10
41.398750
 20
195.526474
  0
VERTEX
  8
0
 10
41.126015
 20
195.930771
  0
VERTEX
  8
0
 10
40.931953
 20
196.251083
  0
VERTEX
  8
0
 10
40.722813
 20
196.648987
  0
VERTEX
  8
0
 10
40.583359
 20
196.969299
  0
VERTEX
  8
0
 10
40.443123
 20
197.382645
  0
VERTEX
  8
0
 10
40.357655
 20
197.732254
  0
VERTEX
  8
0
 10
40.283436
 20
198.204056
  0
VERTEX
  8
0
 10
40.249374
 20
198.617569
  0
VERTEX
  8
0
 10
40.237419
 20
199.070694
  0
VERTEX
  8
0
 10
40.252579
 20
199.703049
  0
VERTEX
  8
0
 10
40.303673
 20
200.420547
  0
VERTEX
  8
0
 10
40.376640
 20
201.063354
  0
VERTEX
  8
0
 10
40.484062
 20
201.773438
  0
VERTEX
  8
0
 10
40.631329
 20
202.556396
  0
VERTEX
  8
0
 10
40.823669
 20
203.417969
  0
VERTEX
  8
0
 10
41.000782
 20
204.119064
  0
VERTEX
  8
0
 10
41.285000
 20
205.131638
  0
VERTEX
  8
0
 10
41.537266
 20
205.952423
  0
VERTEX
  8
0
 10
42.140388
 20
207.743820
  0
VERTEX
  8
0
 10
42.837578
 20
209.664291
  0
VERTEX
  8
0
 10
45.200779
 20
215.817886
  0
VERTEX
  8
0
 10
45.820232
 20
217.477570
  0
VERTEX
  8
0
 10
46.417889
 20
219.212021
  0
VERTEX
  8
0
 10
46.805622
 20
220.513672
  0
VERTEX
  8
0
 10
46.998672
 20
221.272644
  0
VERTEX
  8
0
 10
47.196953
 20
222.179214
  0
VERTEX
  8
0
 10
47.363358
 20
223.093201
  0
VERTEX
  8
0
 10
47.473747
 20
223.844299
  0
VERTEX
  8
0
 10
47.566795
 20
224.711716
  0
VERTEX
  8
0
 10
47.607185
 20
225.389923
  0
VERTEX
  8
0
 10
47.610077
 20
226.012268
  0
VERTEX
  8
0
 10
47.571873
 20
226.565857
  0
VERTEX
  8
0
 10
47.510235
 20
226.961166
  0
VERTEX
  8
0
 10
47.393593
 20
227.409836
  0
VERTEX
  8
0
 10
47.231873
 20
227.823669
  0
VERTEX
  8
0
 10
47.024139
 20
228.219681
  0
VERTEX
  8
0
 10
46.712578
 20
228.695236
  0
VERTEX
  8
0
 10
46.331482
 20
229.198822
  0
VERTEX
  8
0
 10
45.879452
 20
229.747421
  0
VERTEX
  8
0
 10
45.355469
 20
230.340149
  0
VERTEX
  8
0
 10
44.758671
 20
230.974136
  0
VERTEX
  8
0
 10
44.205078
 20
231.531876
  0
VERTEX
  8
0
 10
43.472420
 20
232.234299
  0
VERTEX
  8
0
 10
42.805077
 20
232.845154
  0
VERTEX
  8
0
 10
41.031796
 20
234.386322
  0
VERTEX
  8
0
 10
38.452030
 20
236.535309
  0
SEQEND
  8
0
  0
POLYLINE
  8
0
  0
VERTEX
  8
0
 10
90.145859
 20
180.404129
  0
VERTEX
  8
0
 10
77.132889
 20
180.996719
  0
SEQEND
  8
0
  0
POLYLINE
  8
0
  0
VERTEX
  8
0
 10
65.252266
 20
182.716248
  0
VERTEX
  8
0
 10
50.702343
 20
186.168900
  0
SEQEND
  8
0
  0
POLYLINE
  8
0
  0
VERTEX
  8
0
 10
36.919140
 20
190.112656
  0
VERTEX
  8
0
 10
31.905781
 20
191.559525
  0
VERTEX
  8
0
 10
30.054844
 20
187.145233
  0
SEQEND
  8
0
  0
POLYLINE
  8
0
  0
VERTEX
  8
0
 10
14.269688
 20
321.389221
  0
VERTEX
  8
0
 10
12.596484
 20
318.600006
  0
VERTEX
  8
0
 10
11.463281
 20
316.675232
  0
VERTEX
  8
0
 10
10.487890
 20
314.972107
  0
VERTEX
  8
0
 10
9.554688
 20
313.281799
  0
VERTEX
  8
0
 10
8.575234
 20
311.431091
  0
VERTEX
  8
0
 10
7.695390
 20
309.688751
  0
VERTEX
  8
0
 10
6.941172
 20
308.111542
  0
VERTEX
  8
0
 10
6.330312
 20
306.737976
  0
VERTEX
  8
0
 10
5.902578
 20
305.676331
  0
VERTEX
  8
0
 10
5.575390
 20
304.747345
  0
VERTEX
  8
0
 10
5.341015
 20
303.934052
  0
VERTEX
  8
0
 10
5.188203
 20
303.216156
  0
VERTEX
  8
0
 10
5.075547
 20
302.336090
  0
VERTEX
  8
0
 10
5.018047
 20
301.140076
  0
VERTEX
  8
0
 10
5.023047
 20
300.825073
  0
VERTEX
  8
0
 10
5.049375
 20
300.485840
  0
VERTEX
  8
0
 10
5.147734
 20
299.909515
  0
VERTEX
  8
0
 10
5.342578
 20
299.222260
  0
VERTEX
  8
0
 10
5.663203
 20
298.389984
  0
VERTEX
  8
0
 10
6.135234
 20
297.384216
  0
VERTEX
  8
0
 10
6.759453
 20
296.211090
  0
VERTEX
  8
0
 10
7.526640
 20
294.891479
  0
VERTEX
  8
0
 10
8.427500
 20
293.446014
  0
VERTEX
  8
0
 10
9.452890
 20
291.895477
  0
VERTEX
  8
0
 10
10.395781
 20
290.537872
  0
VERTEX
  8
0
 10
12.058594
 20
288.256714
  0
VERTEX
  8
0
 10
14.136015
 20
285.525238
  0
VERTEX
  8
0
 10
22.453592
 20
274.910767
  0
VERTEX
  8
0
 10
25.779453
 20
270.601013
  0
VERTEX
  8
0
 10
27.308828
 20
268.564301
  0
VERTEX
  8
0
 10
28.467733
 20
266.978424
  0
VERTEX
  8
0
 10
29.510389
 20
265.506714
  0
VERTEX
  8
0
 10
30.459373
 20
264.117340
  0
VERTEX
  8
0
 10
31.337500
 20
262.778595
  0
VERTEX
  8
0
 10
32.300701
 20
261.241943
  0
VERTEX
  8
0
 10
33.207970
 20
259.722809
  0
VERTEX
  8
0
 10
34.058201
 20
258.229279
  0
VERTEX
  8
0
 10
34.958904
 20
256.564850
  0
VERTEX
  8
0
 10
35.782265
 20
254.957260
  0
VERTEX
  8
0
 10
36.438904
 20
253.595459
  0
VERTEX
  8
0
 10
37.036953
 20
252.258118
  0
VERTEX
  8
0
 10
37.649921
 20
250.736786
  0
VERTEX
  8
0
 10
38.189140
 20
249.197800
  0
VERTEX
  8
0
 10
38.595467
 20
247.814835
  0
VERTEX
  8
0
 10
38.879139
 20
246.586014
  0
VERTEX
  8
0
 10
38.993828
 20
245.952255
  0
VERTEX
  8
0
 10
39.087891
 20
245.303268
  0
VERTEX
  8
0
 10
39.193905
 20
244.183350
  0
VERTEX
  8
0
 10
39.224060
 20
243.485855
  0
VERTEX
  8
0
 10
39.227032
 20
242.767029
  0
VERTEX
  8
0
 10
39.168201
 20
241.520859
  0
VERTEX
  8
0
 10
39.098358
 20
240.752884
  0
VERTEX
  8
0
 10
38.971951
 20
239.720627
  0
VERTEX
  8
0
 10
38.814766
 20
238.694916
  0
VERTEX
  8
0
 10
38.635078
 20
237.693192
  0
VERTEX
  8
0
 10
38.391014
 20
236.501785
  0
VERTEX
  8
0
 10
38.140156
 20
235.409760
  0
VERTEX
  8
0
 10
37.851563
 20
234.276794
  0
VERTEX
  8
0
 10
37.585857
 20
233.346405
  0
VERTEX
  8
0
 10
37.377811
 20
232.702179
  0
VERTEX
  8
0
 10
37.178436
 20
232.155853
  0
VERTEX
  8
0
 10
36.945313
 20
231.600769
  0
VERTEX
  8
0
 10
36.713360
 20
231.122498
  0
VERTEX
  8
0
 10
36.436951
 20
230.619843
  0
VERTEX
  8
0
 10
36.153904
 20
230.157257
  0
VERTEX
  8
0
 10
35.365936
 20
229.017883
  0
SEQEND
  8
0
  0
POLYLINE
  8
0
  0
VERTEX
  8
0
 10
51.098202
 20
342.296173
  0
VERTEX
  8
0
 10
50.611248
 20
342.268494
  0
VERTEX
  8
0
 10
50.172031
 20
342.056641
  0
VERTEX
  8
0
 10
49.847187
 20
341.692719
  0
VERTEX
  8
0
 10
49.686405
 20
341.232269
  0
VERTEX
  8
0
 10
49.714062
 20
340.745300
  0
VERTEX
  8
0
 10
49.925938
 20
340.306000
  0
VERTEX
  8
0
 10
50.289764
 20
339.981232
  0
VERTEX
  8
0
 10
50.750233
 20
339.820465
  0
VERTEX
  8
0
 10
51.237186
 20
339.848114
  0
VERTEX
  8
0
 10
51.676407
 20
340.059998
  0
VERTEX
  8
0
 10
52.001247
 20
340.423889
  0
VERTEX
  8
0
 10
52.162029
 20
340.884369
  0
VERTEX
  8
0
 10
52.134373
 20
341.371307
  0
VERTEX
  8
0
 10
51.922421
 20
341.810608
  0
VERTEX
  8
0
 10
51.558670
 20
342.135315
  0
VERTEX
  8
0
 10
51.098202
 20
342.296173
  0
SEQEND
  8
0
  0
POLYLINE
  8
0
  0
VERTEX
  8
0
 10
45.385311
 20
360.118988
  0
VERTEX
  8
0
 10
44.898357
 20
360.091309
  0
VERTEX
  8
0
 10
44.459061
 20
359.879456
  0
VERTEX
  8
0
 10
44.134296
 20
359.515533
  0
VERTEX
  8
0
 10
43.973515
 20
359.055237
  0
VERTEX
  8
0
 10
44.001171
 20
358.568207
  0
VERTEX
  8
0
 10
44.213047
 20
358.128967
  0
VERTEX
  8
0
 10
44.576954
 20
357.804138
  0
VERTEX
  8
0
 10
45.037422
 20
357.643341
  0
VERTEX
  8
0
 10
45.524296
 20
357.671021
  0
VERTEX
  8
0
 10
45.963673
 20
357.882874
  0
VERTEX
  8
0
 10
46.288357
 20
358.246643
  0
VERTEX
  8
0
 10
46.449219
 20
358.707245
  0
VERTEX
  8
0
 10
46.421482
 20
359.194122
  0
VERTEX
  8
0
 10
46.209686
 20
359.633362
  0
VERTEX
  8
0
 10
45.845779
 20
359.958191
  0
VERTEX
  8
0
 10
45.385311
 20
360.118988
  0
SEQEND
  8
0
  0
POLYLINE
  8
0
  0
VERTEX
  8
0
 10
16.914297
 20
321.195770
  0
VERTEX
  8
0
 10
16.427422
 20
321.168121
  0
VERTEX
  8
0
 10
15.988125
 20
320.956238
  0
VERTEX
  8
0
 10
15.663280
 20
320.592346
  0
VERTEX
  8
0
 10
15.502500
 20
320.131866
  0
VERTEX
  8
0
 10
15.530156
 20
319.644928
  0
VERTEX
  8
0
 10
15.742109
 20
319.205627
  0
VERTEX
  8
0
 10
16.106016
 20
318.880920
  0
VERTEX
  8
0
 10
16.566328
 20
318.720062
  0
VERTEX
  8
0
 10
17.053358
 20
318.747742
  0
VERTEX
  8
0
 10
17.492579
 20
318.959595
  0
VERTEX
  8
0
 10
17.817343
 20
319.323517
  0
VERTEX
  8
0
 10
17.978125
 20
319.783966
  0
VERTEX
  8
0
 10
17.950546
 20
320.270935
  0
VERTEX
  8
0
 10
17.738672
 20
320.710236
  0
VERTEX
  8
0
 10
17.374844
 20
321.034912
  0
VERTEX
  8
0
 10
16.914297
 20
321.195770
  0
SEQEND
  8
0
  0
POLYLINE
  8
0
  0
VERTEX
  8
0
 10
75.410858
 20
538.986938
  0
VERTEX
  8
0
 10
75.747498
 20
525.790405
  0
VERTEX
  8
0
 10
75.934219
 20
516.623169
  0
VERTEX
  8
0
 10
76.044449
 20
508.157318
  0
VERTEX
  8
0
 10
76.067108
 20
503.815216
  0
VERTEX
  8
0
 10
76.063438
 20
500.243591
  0
VERTEX
  8
0
 10
76.036873
 20
496.556091
  0
VERTEX
  8
0
 10
75.983513
 20
492.726166
  0
VERTEX
  8
0
 10
75.900078
 20
488.727173
  0
VERTEX
  8
0
 10
75.815468
 20
485.601013
  0
VERTEX
  8
0
 10
75.710548
 20
482.353516
  0
VERTEX
  8
0
 10
75.537338
 20
477.829987
  0
VERTEX
  8
0
 10
75.328827
 20
473.130707
  0
VERTEX
  8
0
 10
75.088356
 20
468.315765
  0
VERTEX
  8
0
 10
74.675781
 20
461.007111
  0
VERTEX
  8
0
 10
74.130074
 20
452.591095
  0
VERTEX
  8
0
 10
73.620934
 20
445.703278
  0
VERTEX
  8
0
 10
73.085236
 20
439.293182
  0
VERTEX
  8
0
 10
72.621635
 20
434.264130
  0
VERTEX
  8
0
 10
72.143280
 20
429.409821
  0
VERTEX
  8
0
 10
70.416016
 20
412.827576
  0
VERTEX
  8
0
 10
69.555939
 20
404.259430
  0
VERTEX
  8
0
 10
68.450623
 20
392.819916
  0
VERTEX
  8
0
 10
66.872498
 20
376.065613
  0
VERTEX
  8
0
 10
60.954060
 20
382.099060
  0
VERTEX
  8
0
 10
56.638435
 20
386.530212
  0
VERTEX
  8
0
 10
52.968826
 20
390.342255
  0
VERTEX
  8
0
 10
49.935154
 20
393.542480
  0
VERTEX
  8
0
 10
46.697735
 20
397.017792
  0
VERTEX
  8
0
 10
43.355701
 20
400.674286
  0
VERTEX
  8
0
 10
40.023907
 20
404.393036
  0
VERTEX
  8
0
 10
36.823360
 20
408.043671
  0
VERTEX
  8
0
 10
34.286797
 20
411.017731
  0
VERTEX
  8
0
 10
32.043983
 20
413.738495
  0
VERTEX
  8
0
 10
30.041405
 20
416.272491
  0
VERTEX
  8
0
 10
28.438749
 20
418.410370
  0
VERTEX
  8
0
 10
27.634218
 20
419.539520
  0
VERTEX
  8
0
 10
27.036406
 20
420.412476
  0
VERTEX
  8
0
 10
26.480156
 20
421.258514
  0
VERTEX
  8
0
 10
25.966484
 20
422.077637
  0
VERTEX
  8
0
 10
25.495468
 20
422.869843
  0
VERTEX
  8
0
 10
24.964766
 20
423.823364
  0
VERTEX
  8
0
 10
24.585546
 20
424.557343
  0
VERTEX
  8
0
 10
24.166407
 20
425.439758
  0
VERTEX
  8
0
 10
23.678202
 20
426.611389
  0
VERTEX
  8
0
 10
23.449062
 20
427.248657
  0
VERTEX
  8
0
 10
23.254530
 20
427.862885
  0
VERTEX
  8
0
 10
23.091797
 20
428.453491
  0
VERTEX
  8
0
 10
22.957188
 20
429.019592
  0
VERTEX
  8
0
 10
22.737734
 20
430.197723
  0
VERTEX
  8
0
 10
22.542421
 20
431.743500
  0
VERTEX
  8
0
 10
22.501406
 20
432.452881
  0
VERTEX
  8
0
 10
22.522499
 20
432.930389
  0
VERTEX
  8
0
 10
22.570234
 20
433.355072
  0
VERTEX
  8
0
 10
22.651796
 20
433.856323
  0
VERTEX
  8
0
 10
22.772812
 20
434.452026
  0
VERTEX
  8
0
 10
23.157030
 20
435.997406
  0
VERTEX
  8
0
 10
23.649374
 20
437.729431
  0
VERTEX
  8
0
 10
24.458202
 20
440.380066
  0
VERTEX
  8
0
 10
25.451796
 20
443.508423
  0
VERTEX
  8
0
 10
26.759531
 20
447.525757
  0
VERTEX
  8
0
 10
28.130859
 20
451.671326
  0
VERTEX
  8
0
 10
34.087341
 20
469.450073
  0
VERTEX
  8
0
 10
35.307343
 20
473.231232
  0
VERTEX
  8
0
 10
36.218826
 20
476.235687
  0
VERTEX
  8
0
 10
36.611328
 20
477.649048
  0
VERTEX
  8
0
 10
36.905392
 20
478.831787
  0
VERTEX
  8
0
 10
37.112110
 20
479.831879
  0
VERTEX
  8
0
 10
37.258671
 20
480.821625
  0
VERTEX
  8
0
 10
37.332420
 20
481.838257
  0
VERTEX
  8
0
 10
37.331875
 20
482.739990
  0
VERTEX
  8
0
 10
37.258984
 20
483.555695
  0
VERTEX
  8
0
 10
37.119373
 20
484.283905
  0
VERTEX
  8
0
 10
37.016872
 20
484.660370
  0
VERTEX
  8
0
 10
36.889530
 20
485.046326
  0
VERTEX
  8
0
 10
36.734921
 20
485.442474
  0
VERTEX
  8
0
 10
36.550938
 20
485.849976
  0
VERTEX
  8
0
 10
36.175545
 20
486.555145
  0
VERTEX
  8
0
 10
35.617657
 20
487.440002
  0
VERTEX
  8
0
 10
34.953045
 20
488.360687
  0
VERTEX
  8
0
 10
34.192966
 20
489.310303
  0
VERTEX
  8
0
 10
33.348282
 20
490.281799
  0
VERTEX
  8
0
 10
32.267891
 20
491.436401
  0
VERTEX
  8
0
 10
31.418280
 20
492.292572
  0
VERTEX
  8
0
 10
30.273125
 20
493.395142
  0
VERTEX
  8
0
 10
29.184139
 20
494.407410
  0
VERTEX
  8
0
 10
27.677265
 20
495.773438
  0
VERTEX
  8
0
 10
23.501249
 20
499.470856
  0
VERTEX
  8
0
 10
14.473827
 20
507.367950
  0
VERTEX
  8
0
 10
11.186093
 20
510.262329
  0
VERTEX
  8
0
 10
8.410859
 20
512.758362
  0
VERTEX
  8
0
 10
7.249218
 20
513.835999
  0
VERTEX
  8
0
 10
6.187969
 20
514.848511
  0
VERTEX
  8
0
 10
4.898750
 20
516.123962
  0
VERTEX
  8
0
 10
3.641640
 20
517.428345
  0
VERTEX
  8
0
 10
2.522031
 20
518.667542
  0
VERTEX
  8
0
 10
1.794922
 20
519.555542
  0
VERTEX
  8
0
 10
1.407891
 20
520.121643
  0
VERTEX
  8
0
 10
1.249375
 20
520.415039
  0
VERTEX
  8
0
 10
1.157969
 20
520.627258
  0
VERTEX
  8
0
 10
1.088359
 20
520.836304
  0
VERTEX
  8
0
 10
1.027344
 20
521.116760
  0
VERTEX
  8
0
 10
0.999609
 20
521.406494
  0
VERTEX
  8
0
 10
1.001875
 20
521.713318
  0
VERTEX
  8
0
 10
1.033516
 20
522.040833
  0
VERTEX
  8
0
 10
1.094687
 20
522.390991
  0
VERTEX
  8
0
 10
1.273516
 20
523.062073
  0
VERTEX
  8
0
 10
1.591094
 20
523.929443
  0
VERTEX
  8
0
 10
2.031328
 20
524.915833
  0
VERTEX
  8
0
 10
2.439531
 20
525.738525
  0
VERTEX
  8
0
 10
2.906094
 20
526.630981
  0
VERTEX
  8
0
 10
7.209063
 20
534.645508
  0
VERTEX
  8
0
 10
7.842813
 20
535.764465
  0
VERTEX
  8
0
 10
8.330625
 20
536.574890
  0
VERTEX
  8
0
 10
8.903828
 20
537.458191
  0
VERTEX
  8
0
 10
9.396093
 20
538.148987
  0
VERTEX
  8
0
 10
9.863125
 20
538.739929
  0
VERTEX
  8
0
 10
10.183046
 20
539.088013
  0
VERTEX
  8
0
 10
10.326015
 20
539.205872
  0
VERTEX
  8
0
 10
10.482187
 20
539.303162
  0
VERTEX
  8
0
 10
10.658125
 20
539.378662
  0
VERTEX
  8
0
 10
10.789609
 20
539.416138
  0
VERTEX
  8
0
 10
11.182734
 20
539.462891
  0
VERTEX
  8
0
 10
11.579531
 20
539.448486
  0
VERTEX
  8
0
 10
12.066484
 20
539.385071
  0
VERTEX
  8
0
 10
12.821015
 20
539.233643
  0
VERTEX
  8
0
 10
13.725078
 20
539.008972
  0
VERTEX
  8
0
 10
14.751406
 20
538.722412
  0
VERTEX
  8
0
 10
17.060860
 20
538.009155
  0
VERTEX
  8
0
 10
19.281874
 20
537.269897
  0
VERTEX
  8
0
 10
22.030077
 20
536.308655
  0
VERTEX
  8
0
 10
30.804609
 20
533.105835
  0
VERTEX
  8
0
 10
33.924767
 20
531.988342
  0
VERTEX
  8
0
 10
36.865078
 20
530.982849
  0
VERTEX
  8
0
 10
38.958435
 20
530.325684
  0
VERTEX
  8
0
 10
39.929375
 20
530.055054
  0
VERTEX
  8
0
 10
40.635155
 20
529.878479
  0
VERTEX
  8
0
 10
41.557030
 20
529.679626
  0
VERTEX
  8
0
 10
42.241173
 20
529.558533
  0
VERTEX
  8
0
 10
42.925232
 20
529.462280
  0
VERTEX
  8
0
 10
43.614765
 20
529.391479
  0
VERTEX
  8
0
 10
44.315468
 20
529.346619
  0
VERTEX
  8
0
 10
45.032654
 20
529.328369
  0
VERTEX
  8
0
 10
46.021328
 20
529.346497
  0
VERTEX
  8
0
 10
47.050545
 20
529.415039
  0
VERTEX
  8
0
 10
48.123981
 20
529.535828
  0
VERTEX
  8
0
 10
49.245388
 20
529.710876
  0
VERTEX
  8
0
 10
50.418282
 20
529.941772
  0
VERTEX
  8
0
 10
51.646404
 20
530.230713
  0
VERTEX
  8
0
 10
52.933125
 20
530.579590
  0
VERTEX
  8
0
 10
54.282265
 20
530.990051
  0
VERTEX
  8
0
 10
56.051170
 20
531.585083
  0
VERTEX
  8
0
 10
58.257107
 20
532.390381
  0
VERTEX
  8
0
 10
60.503983
 20
533.256958
  0
VERTEX
  8
0
 10
65.608902
 20
535.291016
  0
VERTEX
  8
0
 10
68.269608
 20
536.328796
  0
VERTEX
  8
0
 10
71.349136
 20
537.492737
  0
VERTEX
  8
0
 10
75.410858
 20
538.986938
  0
SEQEND
  8
0
  0
POLYLINE
  8
0
  0
VERTEX
  8
0
 10
11.783750
 20
520.773193
  0
VERTEX
  8
0
 10
15.485312
 20
530.409729
  0
SEQEND
  8
0
  0
POLYLINE
  8
0
  0
VERTEX
  8
0
 10
19.390078
 20
506.887573
  0
VERTEX
  8
0
 10
21.973047
 20
511.203339
  0
SEQEND
  8
0
  0
POLYLINE
  8
0
  0
VERTEX
  8
0
 10
29.148438
 20
526.443054
  0
VERTEX
  8
0
 10
30.593359
 20
530.253845
  0
SEQEND
  8
0
  0
POLYLINE
  8
0
  0
VERTEX
  8
0
 10
38.141563
 20
429.649445
  0
VERTEX
  8
0
 10
30.280859
 20
433.392029
  0
SEQEND
  8
0
  0
POLYLINE
  8
0
  0
VERTEX
  8
0
 10
52.801170
 20
473.908417
  0
VERTEX
  8
0
 10
43.886250
 20
478.358337
  0
SEQEND
  8
0
  0
POLYLINE
  8
0
  0
VERTEX
  8
0
 10
40.570782
 20
412.050232
  0
VERTEX
  8
0
 10
43.439842
 20
420.455139
  0
VERTEX
  8
0
 10
45.651951
 20
427.028900
  0
VERTEX
  8
0
 10
47.366016
 20
432.208282
  0
VERTEX
  8
0
 10
51.440231
 20
444.641785
  0
VERTEX
  8
0
 10
53.618435
 20
451.187347
  0
VERTEX
  8
0
 10
55.999218
 20
458.184204
  0
VERTEX
  8
0
 10
58.544529
 20
465.490387
  0
VERTEX
  8
0
 10
60.486015
 20
470.966461
  0
VERTEX
  8
0
 10
62.393513
 20
476.270599
  0
VERTEX
  8
0
 10
64.210938
 20
481.251404
  0
VERTEX
  8
0
 10
65.884293
 20
485.762177
  0
VERTEX
  8
0
 10
67.402031
 20
489.778748
  0
VERTEX
  8
0
 10
68.794922
 20
493.399048
  0
VERTEX
  8
0
 10
70.305542
 20
497.260071
  0
VERTEX
  8
0
 10
72.348045
 20
502.409668
  0
SEQEND
  8
0
  0
POLYLINE
  8
0
  0
VERTEX
  8
0
 10
19.442421
 20
507.886169
  0
VERTEX
  8
0
 10
19.056328
 20
507.830231
  0
VERTEX
  8
0
 10
18.720938
 20
507.630768
  0
VERTEX
  8
0
 10
18.487499
 20
507.318115
  0
VERTEX
  8
0
 10
18.391483
 20
506.939911
  0
VERTEX
  8
0
 10
18.447422
 20
506.553802
  0
VERTEX
  8
0
 10
18.646954
 20
506.218506
  0
VERTEX
  8
0
 10
18.959608
 20
505.985077
  0
VERTEX
  8
0
 10
19.337734
 20
505.888977
  0
VERTEX
  8
0
 10
19.723906
 20
505.944977
  0
VERTEX
  8
0
 10
20.059217
 20
506.144531
  0
VERTEX
  8
0
 10
20.292734
 20
506.457092
  0
VERTEX
  8
0
 10
20.388750
 20
506.835236
  0
VERTEX
  8
0
 10
20.332733
 20
507.221405
  0
VERTEX
  8
0
 10
20.133204
 20
507.556793
  0
VERTEX
  8
0
 10
19.820547
 20
507.790131
  0
VERTEX
  8
0
 10
19.442421
 20
507.886169
  0
SEQEND
  8
0
  0
POLYLINE
  8
0
  0
VERTEX
  8
0
 10
22.025312
 20
512.201965
  0
VERTEX
  8
0
 10
21.639141
 20
512.145996
  0
VERTEX
  8
0
 10
21.303905
 20
511.946472
  0
VERTEX
  8
0
 10
21.070391
 20
511.633820
  0
VERTEX
  8
0
 10
20.974375
 20
511.255707
  0
VERTEX
  8
0
 10
21.030312
 20
510.869446
  0
VERTEX
  8
0
 10
21.229843
 20
510.534210
  0
VERTEX
  8
0
 10
21.542421
 20
510.300781
  0
VERTEX
  8
0
 10
21.920702
 20
510.204681
  0
VERTEX
  8
0
 10
22.306797
 20
510.260681
  0
VERTEX
  8
0
 10
22.642109
 20
510.460236
  0
VERTEX
  8
0
 10
22.875546
 20
510.772888
  0
VERTEX
  8
0
 10
22.971640
 20
511.151001
  0
VERTEX
  8
0
 10
22.915625
 20
511.537109
  0
VERTEX
  8
0
 10
22.716171
 20
511.872559
  0
VERTEX
  8
0
 10
22.403515
 20
512.105835
  0
VERTEX
  8
0
 10
22.025312
 20
512.201965
  0
SEQEND
  8
0
  0
POLYLINE
  8
0
  0
VERTEX
  8
0
 10
29.200703
 20
527.441650
  0
VERTEX
  8
0
 10
28.814610
 20
527.385681
  0
VERTEX
  8
0
 10
28.479296
 20
527.186157
  0
VERTEX
  8
0
 10
28.245859
 20
526.873474
  0
VERTEX
  8
0
 10
28.149765
 20
526.495361
  0
VERTEX
  8
0
 10
28.205780
 20
526.109131
  0
VERTEX
  8
0
 10
28.405233
 20
525.773804
  0
VERTEX
  8
0
 10
28.717890
 20
525.540405
  0
VERTEX
  8
0
 10
29.096092
 20
525.444458
  0
VERTEX
  8
0
 10
29.482265
 20
525.500366
  0
VERTEX
  8
0
 10
29.817499
 20
525.699768
  0
VERTEX
  8
0
 10
30.051016
 20
526.012390
  0
VERTEX
  8
0
 10
30.147030
 20
526.390686
  0
VERTEX
  8
0
 10
30.091093
 20
526.776794
  0
VERTEX
  8
0
 10
29.891562
 20
527.112122
  0
VERTEX
  8
0
 10
29.578983
 20
527.345520
  0
VERTEX
  8
0
 10
29.200703
 20
527.441650
  0
SEQEND
  8
0
  0
POLYLINE
  8
0
  0
VERTEX
  8
0
 10
30.645702
 20
531.252563
  0
VERTEX
  8
0
 10
30.259531
 20
531.196472
  0
VERTEX
  8
0
 10
29.924295
 20
530.996948
  0
VERTEX
  8
0
 10
29.690781
 20
530.684265
  0
VERTEX
  8
0
 10
29.594687
 20
530.306152
  0
VERTEX
  8
0
 10
29.650780
 20
529.920044
  0
VERTEX
  8
0
 10
29.850233
 20
529.584595
  0
VERTEX
  8
0
 10
30.162889
 20
529.351318
  0
VERTEX
  8
0
 10
30.541016
 20
529.255249
  0
VERTEX
  8
0
 10
30.927187
 20
529.311157
  0
VERTEX
  8
0
 10
31.262577
 20
529.510681
  0
VERTEX
  8
0
 10
31.495937
 20
529.823364
  0
VERTEX
  8
0
 10
31.591953
 20
530.201477
  0
VERTEX
  8
0
 10
31.536015
 20
530.587708
  0
VERTEX
  8
0
 10
31.336561
 20
530.922852
  0
VERTEX
  8
0
 10
31.023905
 20
531.156494
  0
VERTEX
  8
0
 10
30.645702
 20
531.252563
  0
SEQEND
  8
0
  0
POLYLINE
  8
0
  0
VERTEX
  8
0
 10
11.888359
 20
522.770386
  0
VERTEX
  8
0
 10
11.266093
 20
522.705078
  0
VERTEX
  8
0
 10
10.694453
 20
522.450562
  0
VERTEX
  8
0
 10
10.229453
 20
522.031799
  0
VERTEX
  8
0
 10
9.916562
 20
521.489929
  0
VERTEX
  8
0
 10
9.786484
 20
520.877869
  0
VERTEX
  8
0
 10
9.851874
 20
520.255554
  0
VERTEX
  8
0
 10
10.106406
 20
519.683960
  0
VERTEX
  8
0
 10
10.525078
 20
519.218811
  0
VERTEX
  8
0
 10
11.066953
 20
518.906006
  0
VERTEX
  8
0
 10
11.679062
 20
518.776001
  0
VERTEX
  8
0
 10
12.301406
 20
518.841309
  0
VERTEX
  8
0
 10
12.872969
 20
519.095825
  0
VERTEX
  8
0
 10
13.338047
 20
519.514587
  0
VERTEX
  8
0
 10
13.650859
 20
520.056458
  0
VERTEX
  8
0
 10
13.781015
 20
520.668518
  0
VERTEX
  8
0
 10
13.715547
 20
521.290833
  0
VERTEX
  8
0
 10
13.461094
 20
521.862427
  0
VERTEX
  8
0
 10
13.042343
 20
522.327576
  0
VERTEX
  8
0
 10
12.500468
 20
522.640381
  0
VERTEX
  8
0
 10
11.888359
 20
522.770386
  0
SEQEND
  8
0
  0
POLYLINE
  8
0
  0
VERTEX
  8
0
 10
15.589999
 20
532.406921
  0
VERTEX
  8
0
 10
14.967734
 20
532.341614
  0
VERTEX
  8
0
 10
14.396093
 20
532.087097
  0
VERTEX
  8
0
 10
13.931093
 20
531.668335
  0
VERTEX
  8
0
 10
13.618203
 20
531.126465
  0
VERTEX
  8
0
 10
13.488047
 20
530.514465
  0
VERTEX
  8
0
 10
13.553437
 20
529.892090
  0
VERTEX
  8
0
 10
13.808046
 20
529.320374
  0
VERTEX
  8
0
 10
14.226719
 20
528.855408
  0
VERTEX
  8
0
 10
14.768672
 20
528.542542
  0
VERTEX
  8
0
 10
15.380625
 20
528.412415
  0
VERTEX
  8
0
 10
16.002968
 20
528.477905
  0
VERTEX
  8
0
 10
16.574688
 20
528.732422
  0
VERTEX
  8
0
 10
17.039610
 20
529.151184
  0
VERTEX
  8
0
 10
17.352499
 20
529.692871
  0
VERTEX
  8
0
 10
17.482578
 20
530.305054
  0
VERTEX
  8
0
 10
17.417187
 20
530.927429
  0
VERTEX
  8
0
 10
17.162657
 20
531.498962
  0
VERTEX
  8
0
 10
16.743984
 20
531.963989
  0
VERTEX
  8
0
 10
16.202108
 20
532.276917
  0
VERTEX
  8
0
 10
15.589999
 20
532.406921
  0
SEQEND
  8
0
  0
POLYLINE
  8
0
  0
VERTEX
  8
0
 10
16.675312
 20
640.430298
  0
VERTEX
  8
0
 10
16.326641
 20
633.263733
  0
VERTEX
  8
0
 10
16.114765
 20
628.426025
  0
VERTEX
  8
0
 10
16.028515
 20
625.554565
  0
VERTEX
  8
0
 10
16.014999
 20
623.407104
  0
VERTEX
  8
0
 10
16.033516
 20
622.398010
  0
VERTEX
  8
0
 10
16.072187
 20
621.439270
  0
VERTEX
  8
0
 10
16.132187
 20
620.534180
  0
VERTEX
  8
0
 10
16.236094
 20
619.477905
  0
VERTEX
  8
0
 10
16.340937
 20
618.692261
  0
VERTEX
  8
0
 10
16.497421
 20
617.783447
  0
VERTEX
  8
0
 10
16.641483
 20
617.114136
  0
VERTEX
  8
0
 10
16.843515
 20
616.348816
  0
VERTEX
  8
0
 10
17.115391
 20
615.533203
  0
VERTEX
  8
0
 10
17.420391
 20
614.817749
  0
VERTEX
  8
0
 10
17.766874
 20
614.174988
  0
VERTEX
  8
0
 10
17.958281
 20
613.871948
  0
VERTEX
  8
0
 10
18.234844
 20
613.478882
  0
VERTEX
  8
0
 10
18.784922
 20
612.797302
  0
VERTEX
  8
0
 10
19.430157
 20
612.085938
  0
VERTEX
  8
0
 10
20.262264
 20
611.225952
  0
VERTEX
  8
0
 10
22.126171
 20
609.353027
  0
VERTEX
  8
0
 10
22.917343
 20
608.503723
  0
VERTEX
  8
0
 10
23.284922
 20
608.054504
  0
VERTEX
  8
0
 10
23.592577
 20
607.615906
  0
VERTEX
  8
0
 10
23.815702
 20
607.237793
  0
VERTEX
  8
0
 10
24.058046
 20
606.744019
  0
VERTEX
  8
0
 10
24.327812
 20
606.075867
  0
VERTEX
  8
0
 10
24.611172
 20
605.258972
  0
VERTEX
  8
0
 10
26.372030
 20
599.739746
  0
VERTEX
  8
0
 10
28.449453
 20
593.497803
  0
VERTEX
  8
0
 10
30.132500
 20
588.571167
  0
VERTEX
  8
0
 10
31.468046
 20
584.793030
  0
VERTEX
  8
0
 10
32.705547
 20
581.462708
  0
VERTEX
  8
0
 10
33.849140
 20
578.571106
  0
VERTEX
  8
0
 10
34.896484
 20
576.106140
  0
VERTEX
  8
0
 10
35.433044
 20
574.918030
  0
VERTEX
  8
0
 10
35.979141
 20
573.763123
  0
VERTEX
  8
0
 10
36.535469
 20
572.644287
  0
VERTEX
  8
0
 10
37.102734
 20
571.564209
  0
VERTEX
  8
0
 10
37.535858
 20
570.781250
  0
VERTEX
  8
0
 10
38.122341
 20
569.774963
  0
VERTEX
  8
0
 10
38.714764
 20
568.813171
  0
VERTEX
  8
0
 10
39.308437
 20
567.896851
  0
VERTEX
  8
0
 10
39.898357
 20
567.027344
  0
VERTEX
  8
0
 10
40.623123
 20
566.007935
  0
VERTEX
  8
0
 10
41.325001
 20
565.065796
  0
VERTEX
  8
0
 10
42.123829
 20
564.040283
  0
VERTEX
  8
0
 10
42.869297
 20
563.127625
  0
VERTEX
  8
0
 10
43.461952
 20
562.441528
  0
VERTEX
  8
0
 10
44.156639
 20
561.691711
  0
VERTEX
  8
0
 10
44.735859
 20
561.115540
  0
VERTEX
  8
0
 10
45.327969
 20
560.572327
  0
VERTEX
  8
0
 10
45.944920
 20
560.051575
  0
VERTEX
  8
0
 10
46.596718
 20
559.546936
  0
VERTEX
  8
0
 10
47.147266
 20
559.157715
  0
VERTEX
  8
0
 10
47.726795
 20
558.784180
  0
VERTEX
  8
0
 10
48.337891
 20
558.429443
  0
VERTEX
  8
0
 10
48.983513
 20
558.096069
  0
VERTEX
  8
0
 10
49.491875
 20
557.861694
  0
VERTEX
  8
0
 10
50.204372
 20
557.572571
  0
VERTEX
  8
0
 10
50.766171
 20
557.374512
  0
VERTEX
  8
0
 10
51.352188
 20
557.193909
  0
VERTEX
  8
0
 10
52.168827
 20
556.980225
  0
VERTEX
  8
0
 10
53.021404
 20
556.797485
  0
VERTEX
  8
0
 10
53.905231
 20
556.645630
  0
VERTEX
  8
0
 10
54.585938
 20
556.551880
  0
VERTEX
  8
0
 10
55.513435
 20
556.453674
  0
VERTEX
  8
0
 10
56.459454
 20
556.385986
  0
VERTEX
  8
0
 10
57.419296
 20
556.348633
  0
VERTEX
  8
0
 10
58.145466
 20
556.340454
  0
VERTEX
  8
0
 10
59.118122
 20
556.355774
  0
VERTEX
  8
0
 10
60.090000
 20
556.400818
  0
VERTEX
  8
0
 10
61.055466
 20
556.474976
  0
VERTEX
  8
0
 10
62.008434
 20
556.578064
  0
VERTEX
  8
0
 10
62.942734
 20
556.709290
  0
VERTEX
  8
0
 10
63.852577
 20
556.868530
  0
VERTEX
  8
0
 10
64.515312
 20
557.005920
  0
VERTEX
  8
0
 10
65.367889
 20
557.212891
  0
VERTEX
  8
0
 10
65.981407
 20
557.385681
  0
VERTEX
  8
0
 10
66.765076
 20
557.638733
  0
VERTEX
  8
0
 10
67.511642
 20
557.916931
  0
VERTEX
  8
0
 10
68.048515
 20
558.141724
  0
VERTEX
  8
0
 10
68.735313
 20
558.461914
  0
VERTEX
  8
0
 10
69.390938
 20
558.804932
  0
VERTEX
  8
0
 10
70.017578
 20
559.169922
  0
VERTEX
  8
0
 10
70.617500
 20
559.555908
  0
VERTEX
  8
0
 10
71.192734
 20
559.962280
  0
VERTEX
  8
0
 10
71.747185
 20
560.390686
  0
VERTEX
  8
0
 10
72.285545
 20
560.845703
  0
VERTEX
  8
0
 10
72.681953
 20
561.207031
  0
VERTEX
  8
0
 10
73.204689
 20
561.719360
  0
VERTEX
  8
0
 10
73.725388
 20
562.270630
  0
VERTEX
  8
0
 10
74.249062
 20
562.865356
  0
VERTEX
  8
0
 10
74.780861
 20
563.508118
  0
VERTEX
  8
0
 10
75.464531
 20
564.385864
  0
VERTEX
  8
0
 10
76.027420
 20
565.148560
  0
VERTEX
  8
0
 10
76.599609
 20
565.961182
  0
VERTEX
  8
0
 10
77.175705
 20
566.819824
  0
VERTEX
  8
0
 10
77.750702
 20
567.720276
  0
VERTEX
  8
0
 10
78.319374
 20
568.658875
  0
VERTEX
  8
0
 10
78.876404
 20
569.631287
  0
VERTEX
  8
0
 10
79.416870
 20
570.633911
  0
VERTEX
  8
0
 10
79.808121
 20
571.403015
  0
VERTEX
  8
0
 10
80.185936
 20
572.185913
  0
VERTEX
  8
0
 10
80.670151
 20
573.251221
  0
VERTEX
  8
0
 10
81.019760
 20
574.066650
  0
VERTEX
  8
0
 10
81.469215
 20
575.176086
  0
VERTEX
  8
0
 10
81.901329
 20
576.311462
  0
VERTEX
  8
0
 10
82.318123
 20
577.473328
  0
VERTEX
  8
0
 10
83.016479
 20
579.571838
  0
VERTEX
  8
0
 10
83.684135
 20
581.754333
  0
VERTEX
  8
0
 10
84.423904
 20
584.335388
  0
VERTEX
  8
0
 10
86.371872
 20
591.337952
  0
VERTEX
  8
0
 10
87.057182
 20
593.666260
  0
VERTEX
  8
0
 10
87.761017
 20
595.924500
  0
VERTEX
  8
0
 10
88.581482
 20
598.355469
  0
VERTEX
  8
0
 10
89.307343
 20
600.294861
  0
VERTEX
  8
0
 10
89.723671
 20
601.304993
  0
VERTEX
  8
0
 10
90.037651
 20
602.014893
  0
VERTEX
  8
0
 10
90.675934
 20
603.322388
  0
VERTEX
  8
0
 10
91.003044
 20
603.924927
  0
VERTEX
  8
0
 10
91.337265
 20
604.496643
  0
VERTEX
  8
0
 10
91.680077
 20
605.039917
  0
VERTEX
  8
0
 10
92.152809
 20
605.724365
  0
VERTEX
  8
0
 10
92.520935
 20
606.211060
  0
VERTEX
  8
0
 10
92.902260
 20
606.677490
  0
VERTEX
  8
0
 10
93.297966
 20
607.126099
  0
VERTEX
  8
0
 10
93.845619
 20
607.697815
  0
VERTEX
  8
0
 10
94.410934
 20
608.239197
  0
VERTEX
  8
0
 10
95.132889
 20
608.872803
  0
VERTEX
  8
0
 10
95.715309
 20
609.345093
  0
VERTEX
  8
0
 10
96.439369
 20
609.891724
  0
VERTEX
  8
0
 10
97.008041
 20
610.293823
  0
VERTEX
  8
0
 10
97.695702
 20
610.752014
  0
VERTEX
  8
0
 10
100.081558
 20
612.239136
  0
VERTEX
  8
0
 10
100.576561
 20
612.584045
  0
VERTEX
  8
0
 10
100.940781
 20
612.869202
  0
VERTEX
  8
0
 10
101.194687
 20
613.092590
  0
VERTEX
  8
0
 10
101.432030
 20
613.328491
  0
VERTEX
  8
0
 10
101.791557
 20
613.767578
  0
VERTEX
  8
0
 10
101.986328
 20
614.069519
  0
VERTEX
  8
0
 10
102.107651
 20
614.291016
  0
VERTEX
  8
0
 10
102.277107
 20
614.658569
  0
VERTEX
  8
0
 10
102.381950
 20
614.930054
  0
VERTEX
  8
0
 10
102.572418
 20
615.545593
  0
VERTEX
  8
0
 10
102.698982
 20
616.078491
  0
VERTEX
  8
0
 10
102.812027
 20
616.680115
  0
VERTEX
  8
0
 10
102.911797
 20
617.356995
  0
VERTEX
  8
0
 10
102.998825
 20
618.113403
  0
VERTEX
  8
0
 10
103.096642
 20
619.233887
  0
VERTEX
  8
0
 10
103.175545
 20
620.462708
  0
VERTEX
  8
0
 10
103.237732
 20
621.778198
  0
VERTEX
  8
0
 10
103.321167
 20
624.582886
  0
VERTEX
  8
0
 10
103.374687
 20
628.548340
  0
VERTEX
  8
0
 10
103.390312
 20
633.053528
  0
VERTEX
  8
0
 10
103.372574
 20
638.737976
  0
VERTEX
  8
0
 10
118.348434
 20
641.342102
  0
VERTEX
  8
0
 10
118.306641
 20
632.030701
  0
VERTEX
  8
0
 10
118.249451
 20
626.938660
  0
VERTEX
  8
0
 10
118.152885
 20
623.032776
  0
VERTEX
  8
0
 10
118.006088
 20
619.862000
  0
VERTEX
  8
0
 10
117.906952
 20
618.429138
  0
VERTEX
  8
0
 10
117.772812
 20
616.933105
  0
VERTEX
  8
0
 10
117.610001
 20
615.537170
  0
VERTEX
  8
0
 10
117.413902
 20
614.221130
  0
VERTEX
  8
0
 10
117.181168
 20
612.970459
  0
VERTEX
  8
0
 10
116.910072
 20
611.769897
  0
VERTEX
  8
0
 10
116.589607
 20
610.570068
  0
VERTEX
  8
0
 10
116.205231
 20
609.365662
  0
VERTEX
  8
0
 10
115.851563
 20
608.423523
  0
VERTEX
  8
0
 10
115.448204
 20
607.490234
  0
VERTEX
  8
0
 10
114.975700
 20
606.543335
  0
VERTEX
  8
0
 10
114.433594
 20
605.604980
  0
VERTEX
  8
0
 10
113.839844
 20
604.711792
  0
VERTEX
  8
0
 10
113.215233
 20
603.882019
  0
VERTEX
  8
0
 10
112.557968
 20
603.100952
  0
VERTEX
  8
0
 10
111.782028
 20
602.273438
  0
VERTEX
  8
0
 10
110.974998
 20
601.498108
  0
VERTEX
  8
0
 10
110.053047
 20
600.694580
  0
VERTEX
  8
0
 10
109.109291
 20
599.945862
  0
VERTEX
  8
0
 10
108.163361
 20
599.258179
  0
VERTEX
  8
0
 10
107.329842
 20
598.697388
  0
VERTEX
  8
0
 10
106.472031
 20
598.158752
  0
VERTEX
  8
0
 10
104.547577
 20
597.052429
  0
VERTEX
  8
0
 10
104.190468
 20
596.837463
  0
VERTEX
  8
0
 10
104.120697
 20
596.802246
  0
VERTEX
  8
0
 10
104.057655
 20
596.726563
  0
VERTEX
  8
0
 10
103.754845
 20
596.186951
  0
VERTEX
  8
0
 10
103.652107
 20
595.979614
  0
VERTEX
  8
0
 10
103.478432
 20
595.598877
  0
VERTEX
  8
0
 10
102.996170
 20
594.412781
  0
VERTEX
  8
0
 10
102.438438
 20
592.878052
  0
VERTEX
  8
0
 10
101.906166
 20
591.260315
  0
VERTEX
  8
0
 10
101.497963
 20
589.910278
  0
VERTEX
  8
0
 10
101.044998
 20
588.302795
  0
VERTEX
  8
0
 10
99.424454
 20
582.139099
  0
VERTEX
  8
0
 10
98.536720
 20
578.928284
  0
VERTEX
  8
0
 10
97.663826
 20
576.042542
  0
VERTEX
  8
0
 10
97.186012
 20
574.574036
  0
VERTEX
  8
0
 10
96.584373
 20
572.820984
  0
VERTEX
  8
0
 10
95.960388
 20
571.106995
  0
VERTEX
  8
0
 10
95.318359
 20
569.446228
  0
VERTEX
  8
0
 10
94.663124
 20
567.854065
  0
VERTEX
  8
0
 10
94.117104
 20
566.603638
  0
VERTEX
  8
0
 10
93.438126
 20
565.142517
  0
VERTEX
  8
0
 10
92.745468
 20
563.750244
  0
VERTEX
  8
0
 10
92.044533
 20
562.431458
  0
VERTEX
  8
0
 10
91.336716
 20
561.181702
  0
VERTEX
  8
0
 10
90.624451
 20
559.996643
  0
VERTEX
  8
0
 10
89.904213
 20
558.862122
  0
VERTEX
  8
0
 10
89.041557
 20
557.575439
  0
VERTEX
  8
0
 10
88.279610
 20
556.503418
  0
VERTEX
  8
0
 10
87.488045
 20
555.453430
  0
VERTEX
  8
0
 10
86.656952
 20
554.419312
  0
VERTEX
  8
0
 10
85.782654
 20
553.402588
  0
VERTEX
  8
0
 10
84.872498
 20
552.416870
  0
VERTEX
  8
0
 10
84.083282
 20
551.616455
  0
VERTEX
  8
0
 10
83.097969
 20
550.680664
  0
VERTEX
  8
0
 10
82.068748
 20
549.770752
  0
VERTEX
  8
0
 10
81.008591
 20
548.898254
  0
VERTEX
  8
0
 10
79.919136
 20
548.065002
  0
VERTEX
  8
0
 10
78.801796
 20
547.273254
  0
VERTEX
  8
0
 10
77.670464
 20
546.534363
  0
VERTEX
  8
0
 10
76.705231
 20
545.952393
  0
VERTEX
  8
0
 10
75.534767
 20
545.306091
  0
VERTEX
  8
0
 10
74.517502
 20
544.796387
  0
VERTEX
  8
0
 10
73.289917
 20
544.243347
  0
VERTEX
  8
0
 10
72.240936
 20
543.822693
  0
VERTEX
  8
0
 10
71.190155
 20
543.446106
  0
VERTEX
  8
0
 10
70.121948
 20
543.107117
  0
VERTEX
  8
0
 10
69.026718
 20
542.802246
  0
VERTEX
  8
0
 10
67.692261
 20
542.484131
  0
VERTEX
  8
0
 10
66.348671
 20
542.216064
  0
VERTEX
  8
0
 10
65.016953
 20
541.996033
  0
VERTEX
  8
0
 10
63.700779
 20
541.818787
  0
VERTEX
  8
0
 10
62.404610
 20
541.680359
  0
VERTEX
  8
0
 10
61.121716
 20
541.576233
  0
VERTEX
  8
0
 10
59.637421
 20
541.495850
  0
VERTEX
  8
0
 10
58.381718
 20
541.463013
  0
VERTEX
  8
0
 10
57.139297
 20
541.463196
  0
VERTEX
  8
0
 10
55.887733
 20
541.496765
  0
VERTEX
  8
0
 10
54.408981
 20
541.579773
  0
VERTEX
  8
0
 10
52.916016
 20
541.710205
  0
VERTEX
  8
0
 10
51.608437
 20
541.863708
  0
VERTEX
  8
0
 10
50.265156
 20
542.066711
  0
VERTEX
  8
0
 10
49.100391
 20
542.284973
  0
VERTEX
  8
0
 10
47.673672
 20
542.612183
  0
VERTEX
  8
0
 10
46.451954
 20
542.949768
  0
VERTEX
  8
0
 10
45.223438
 20
543.345825
  0
VERTEX
  8
0
 10
43.979530
 20
543.809204
  0
VERTEX
  8
0
 10
42.742657
 20
544.335327
  0
VERTEX
  8
0
 10
41.532421
 20
544.912048
  0
VERTEX
  8
0
 10
40.351563
 20
545.533203
  0
VERTEX
  8
0
 10
39.200001
 20
546.195313
  0
VERTEX
  8
0
 10
38.079140
 20
546.895752
  0
VERTEX
  8
0
 10
36.990391
 20
547.632568
  0
VERTEX
  8
0
 10
35.951954
 20
548.393188
  0
VERTEX
  8
0
 10
35.154453
 20
549.019958
  0
VERTEX
  8
0
 10
34.192032
 20
549.833374
  0
VERTEX
  8
0
 10
33.275623
 20
550.673828
  0
VERTEX
  8
0
 10
32.410858
 20
551.531006
  0
VERTEX
  8
0
 10
31.454140
 20
552.559387
  0
VERTEX
  8
0
 10
30.714766
 20
553.415222
  0
VERTEX
  8
0
 10
29.894609
 20
554.428528
  0
VERTEX
  8
0
 10
29.011171
 20
555.594849
  0
VERTEX
  8
0
 10
28.193594
 20
556.735474
  0
VERTEX
  8
0
 10
27.417030
 20
557.873047
  0
VERTEX
  8
0
 10
26.561718
 20
559.190979
  0
VERTEX
  8
0
 10
25.738516
 20
560.524353
  0
VERTEX
  8
0
 10
24.937967
 20
561.878906
  0
VERTEX
  8
0
 10
24.229843
 20
563.125610
  0
VERTEX
  8
0
 10
23.485312
 20
564.514221
  0
VERTEX
  8
0
 10
22.826094
 20
565.828796
  0
VERTEX
  8
0
 10
22.270468
 20
567.003723
  0
VERTEX
  8
0
 10
21.695469
 20
568.284180
  0
VERTEX
  8
0
 10
21.092110
 20
569.695679
  0
VERTEX
  8
0
 10
20.456093
 20
571.253174
  0
VERTEX
  8
0
 10
19.783672
 20
572.964966
  0
VERTEX
  8
0
 10
18.402344
 20
576.627625
  0
VERTEX
  8
0
 10
16.514608
 20
581.841309
  0
VERTEX
  8
0
 10
14.490546
 20
587.614197
  0
VERTEX
  8
0
 10
13.508437
 20
590.488831
  0
VERTEX
  8
0
 10
12.733125
 20
592.817017
  0
VERTEX
  8
0
 10
11.130156
 20
597.863892
  0
VERTEX
  8
0
 10
10.979921
 20
598.286255
  0
VERTEX
  8
0
 10
10.890937
 20
598.500305
  0
VERTEX
  8
0
 10
10.822812
 20
598.635132
  0
VERTEX
  8
0
 10
10.734375
 20
598.782471
  0
VERTEX
  8
0
 10
10.515078
 20
599.102478
  0
VERTEX
  8
0
 10
10.137968
 20
599.603821
  0
VERTEX
  8
0
 10
9.546171
 20
600.341309
  0
VERTEX
  8
0
 10
8.797500
 20
601.226990
  0
VERTEX
  8
0
 10
6.401797
 20
603.907776
  0
VERTEX
  8
0
 10
5.688906
 20
604.784180
  0
VERTEX
  8
0
 10
5.001797
 20
605.731262
  0
VERTEX
  8
0
 10
4.509453
 20
606.496948
  0
VERTEX
  8
0
 10
4.031484
 20
607.325562
  0
VERTEX
  8
0
 10
3.370469
 20
608.664734
  0
VERTEX
  8
0
 10
2.783203
 20
610.134155
  0
VERTEX
  8
0
 10
2.304141
 20
611.643799
  0
VERTEX
  8
0
 10
1.961016
 20
613.015686
  0
VERTEX
  8
0
 10
1.689375
 20
614.409058
  0
VERTEX
  8
0
 10
1.477109
 20
615.851929
  0
VERTEX
  8
0
 10
1.315313
 20
617.360229
  0
VERTEX
  8
0
 10
1.194531
 20
618.958435
  0
VERTEX
  8
0
 10
1.106250
 20
620.682434
  0
VERTEX
  8
0
 10
1.037656
 20
622.866211
  0
VERTEX
  8
0
 10
1.005781
 20
624.892273
  0
VERTEX
  8
0
 10
1.000000
 20
626.997803
  0
VERTEX
  8
0
 10
1.021641
 20
629.142273
  0
VERTEX
  8
0
 10
1.072812
 20
631.273193
  0
VERTEX
  8
0
 10
1.139766
 20
633.017578
  0
VERTEX
  8
0
 10
1.245234
 20
635.009583
  0
VERTEX
  8
0
 10
1.372813
 20
636.922729
  0
VERTEX
  8
0
 10
1.539844
 20
639.056152
  0
VERTEX
  8
0
 10
1.815937
 20
642.235779
  0
VERTEX
  8
0
 10
16.675312
 20
640.430298
  0
SEQEND
  8
0
  0
POLYLINE
  8
0
  0
VERTEX
  8
0
 10
110.342110
 20
639.949829
  0
VERTEX
  8
0
 10
110.306793
 20
632.093567
  0
VERTEX
  8
0
 10
110.250626
 20
627.082458
  0
VERTEX
  8
0
 10
110.157417
 20
623.316772
  0
VERTEX
  8
0
 10
110.018829
 20
620.323120
  0
VERTEX
  8
0
 10
109.931557
 20
619.062561
  0
VERTEX
  8
0
 10
109.814293
 20
617.753784
  0
VERTEX
  8
0
 10
109.678513
 20
616.590210
  0
VERTEX
  8
0
 10
109.522575
 20
615.543030
  0
VERTEX
  8
0
 10
109.343979
 20
614.583740
  0
VERTEX
  8
0
 10
109.140854
 20
613.683716
  0
VERTEX
  8
0
 10
108.909996
 20
612.819702
  0
VERTEX
  8
0
 10
108.644920
 20
611.989136
  0
VERTEX
  8
0
 10
108.430466
 20
611.417786
  0
VERTEX
  8
0
 10
108.191948
 20
610.865845
  0
VERTEX
  8
0
 10
107.926720
 20
610.334412
  0
VERTEX
  8
0
 10
107.632027
 20
609.824280
  0
VERTEX
  8
0
 10
107.307106
 20
609.335510
  0
VERTEX
  8
0
 10
106.954140
 20
608.866577
  0
VERTEX
  8
0
 10
106.575157
 20
608.416077
  0
VERTEX
  8
0
 10
106.089142
 20
607.897888
  0
VERTEX
  8
0
 10
105.572578
 20
607.401550
  0
VERTEX
  8
0
 10
104.936172
 20
606.846924
  0
VERTEX
  8
0
 10
104.269135
 20
606.317627
  0
VERTEX
  8
0
 10
103.577110
 20
605.814758
  0
VERTEX
  8
0
 10
102.968590
 20
605.405273
  0
VERTEX
  8
0
 10
102.349686
 20
605.016602
  0
VERTEX
  8
0
 10
100.490700
 20
603.947937
  0
VERTEX
  8
0
 10
99.904213
 20
603.594910
  0
VERTEX
  8
0
 10
99.352730
 20
603.226807
  0
VERTEX
  8
0
 10
98.847267
 20
602.833557
  0
VERTEX
  8
0
 10
98.538437
 20
602.554199
  0
VERTEX
  8
0
 10
98.250076
 20
602.260864
  0
VERTEX
  8
0
 10
97.980156
 20
601.953552
  0
VERTEX
  8
0
 10
97.726479
 20
601.632629
  0
VERTEX
  8
0
 10
97.487030
 20
601.298096
  0
VERTEX
  8
0
 10
97.204140
 20
600.860901
  0
VERTEX
  8
0
 10
96.678047
 20
599.923340
  0
VERTEX
  8
0
 10
96.427185
 20
599.417236
  0
VERTEX
  8
0
 10
96.130470
 20
598.766785
  0
VERTEX
  8
0
 10
95.528595
 20
597.286377
  0
VERTEX
  8
0
 10
94.877579
 20
595.494995
  0
VERTEX
  8
0
 10
94.276642
 20
593.668335
  0
VERTEX
  8
0
 10
93.818512
 20
592.153259
  0
VERTEX
  8
0
 10
93.325783
 20
590.405090
  0
VERTEX
  8
0
 10
91.700233
 20
584.222229
  0
VERTEX
  8
0
 10
90.851563
 20
581.152710
  0
VERTEX
  8
0
 10
90.030548
 20
578.438416
  0
VERTEX
  8
0
 10
89.598434
 20
577.110229
  0
VERTEX
  8
0
 10
89.041718
 20
575.488037
  0
VERTEX
  8
0
 10
88.470154
 20
573.918213
  0
VERTEX
  8
0
 10
87.887497
 20
572.411072
  0
VERTEX
  8
0
 10
87.297577
 20
570.977478
  0
VERTEX
  8
0
 10
86.822891
 20
569.890564
  0
VERTEX
  8
0
 10
86.227966
 20
568.610229
  0
VERTEX
  8
0
 10
85.630859
 20
567.409912
  0
VERTEX
  8
0
 10
85.030701
 20
566.280762
  0
VERTEX
  8
0
 10
84.426636
 20
565.214233
  0
VERTEX
  8
0
 10
83.817970
 20
564.201477
  0
VERTEX
  8
0
 10
83.203751
 20
563.233887
  0
VERTEX
  8
0
 10
82.457657
 20
562.121338
  0
VERTEX
  8
0
 10
81.824059
 20
561.229736
  0
VERTEX
  8
0
 10
81.174530
 20
560.368286
  0
VERTEX
  8
0
 10
80.504532
 20
559.534424
  0
VERTEX
  8
0
 10
79.809135
 20
558.725952
  0
VERTEX
  8
0
 10
79.083908
 20
557.940369
  0
VERTEX
  8
0
 10
78.478905
 20
557.326843
  0
VERTEX
  8
0
 10
77.692184
 20
556.579590
  0
VERTEX
  8
0
 10
76.875854
 20
555.857849
  0
VERTEX
  8
0
 10
76.035080
 20
555.166016
  0
VERTEX
  8
0
 10
75.174919
 20
554.508118
  0
VERTEX
  8
0
 10
74.300232
 20
553.888367
  0
VERTEX
  8
0
 10
73.416328
 20
553.311096
  0
VERTEX
  8
0
 10
72.704918
 20
552.882080
  0
VERTEX
  8
0
 10
71.807968
 20
552.386780
  0
VERTEX
  8
0
 10
71.081093
 20
552.022583
  0
VERTEX
  8
0
 10
70.156715
 20
551.606140
  0
VERTEX
  8
0
 10
69.401558
 20
551.303345
  0
VERTEX
  8
0
 10
68.629684
 20
551.026733
  0
VERTEX
  8
0
 10
67.838593
 20
550.775696
  0
VERTEX
  8
0
 10
67.025932
 20
550.549438
  0
VERTEX
  8
0
 10
65.981560
 20
550.300476
  0
VERTEX
  8
0
 10
64.913589
 20
550.087402
  0
VERTEX
  8
0
 10
63.830856
 20
549.908508
  0
VERTEX
  8
0
 10
62.742107
 20
549.761963
  0
VERTEX
  8
0
 10
61.656094
 20
549.645935
  0
VERTEX
  8
0
 10
60.581875
 20
549.558716
  0
VERTEX
  8
0
 10
59.316483
 20
549.490234
  0
VERTEX
  8
0
 10
58.277576
 20
549.463013
  0
VERTEX
  8
0
 10
57.246952
 20
549.463196
  0
VERTEX
  8
0
 10
56.219139
 20
549.490662
  0
VERTEX
  8
0
 10
54.981716
 20
549.560120
  0
VERTEX
  8
0
 10
53.730782
 20
549.669495
  0
VERTEX
  8
0
 10
52.672810
 20
549.793640
  0
VERTEX
  8
0
 10
51.600311
 20
549.955872
  0
VERTEX
  8
0
 10
50.732029
 20
550.118530
  0
VERTEX
  8
0
 10
49.633984
 20
550.370300
  0
VERTEX
  8
0
 10
48.745701
 20
550.615784
  0
VERTEX
  8
0
 10
47.848591
 20
550.904968
  0
VERTEX
  8
0
 10
46.943047
 20
551.242310
  0
VERTEX
  8
0
 10
46.030388
 20
551.630615
  0
VERTEX
  8
0
 10
45.116562
 20
552.065918
  0
VERTEX
  8
0
 10
44.208984
 20
552.543274
  0
VERTEX
  8
0
 10
43.315155
 20
553.057434
  0
VERTEX
  8
0
 10
42.442188
 20
553.602783
  0
VERTEX
  8
0
 10
41.597656
 20
554.174438
  0
VERTEX
  8
0
 10
40.788670
 20
554.767029
  0
VERTEX
  8
0
 10
40.209686
 20
555.221924
  0
VERTEX
  8
0
 10
39.480000
 20
555.838684
  0
VERTEX
  8
0
 10
38.797344
 20
556.464844
  0
VERTEX
  8
0
 10
38.157578
 20
557.098877
  0
VERTEX
  8
0
 10
37.411560
 20
557.900696
  0
VERTEX
  8
0
 10
36.852501
 20
558.547852
  0
VERTEX
  8
0
 10
36.194061
 20
559.361389
  0
VERTEX
  8
0
 10
35.451874
 20
560.341248
  0
VERTEX
  8
0
 10
34.749218
 20
561.321655
  0
VERTEX
  8
0
 10
34.076874
 20
562.306458
  0
VERTEX
  8
0
 10
33.321407
 20
563.470459
  0
VERTEX
  8
0
 10
32.586250
 20
564.661255
  0
VERTEX
  8
0
 10
31.860155
 20
565.889893
  0
VERTEX
  8
0
 10
31.234219
 20
566.991760
  0
VERTEX
  8
0
 10
30.587421
 20
568.198120
  0
VERTEX
  8
0
 10
30.018671
 20
569.332336
  0
VERTEX
  8
0
 10
29.536171
 20
570.352661
  0
VERTEX
  8
0
 10
29.023125
 20
571.495239
  0
VERTEX
  8
0
 10
28.473827
 20
572.780273
  0
VERTEX
  8
0
 10
27.882578
 20
574.228027
  0
VERTEX
  8
0
 10
27.249765
 20
575.839050
  0
VERTEX
  8
0
 10
25.906406
 20
579.401001
  0
VERTEX
  8
0
 10
24.050625
 20
584.526611
  0
VERTEX
  8
0
 10
22.050547
 20
590.230896
  0
VERTEX
  8
0
 10
21.088827
 20
593.045837
  0
VERTEX
  8
0
 10
20.341015
 20
595.291687
  0
VERTEX
  8
0
 10
18.713282
 20
600.416382
  0
VERTEX
  8
0
 10
18.447187
 20
601.164124
  0
VERTEX
  8
0
 10
18.164999
 20
601.843262
  0
VERTEX
  8
0
 10
17.831171
 20
602.504150
  0
VERTEX
  8
0
 10
17.468594
 20
603.107422
  0
VERTEX
  8
0
 10
17.014999
 20
603.769592
  0
VERTEX
  8
0
 10
16.456093
 20
604.512695
  0
VERTEX
  8
0
 10
15.721641
 20
605.428101
  0
VERTEX
  8
0
 10
14.835859
 20
606.475769
  0
VERTEX
  8
0
 10
12.490781
 20
609.099976
  0
VERTEX
  8
0
 10
12.034375
 20
609.661133
  0
VERTEX
  8
0
 10
11.609219
 20
610.246948
  0
VERTEX
  8
0
 10
11.342969
 20
610.661255
  0
VERTEX
  8
0
 10
11.090468
 20
611.098816
  0
VERTEX
  8
0
 10
10.682890
 20
611.924683
  0
VERTEX
  8
0
 10
10.320234
 20
612.831909
  0
VERTEX
  8
0
 10
10.004609
 20
613.826477
  0
VERTEX
  8
0
 10
9.772890
 20
614.752930
  0
VERTEX
  8
0
 10
9.577109
 20
615.757019
  0
VERTEX
  8
0
 10
9.414765
 20
616.860901
  0
VERTEX
  8
0
 10
9.283125
 20
618.088684
  0
VERTEX
  8
0
 10
9.179062
 20
619.464417
  0
VERTEX
  8
0
 10
9.099844
 20
621.012329
  0
VERTEX
  8
0
 10
9.035703
 20
623.054932
  0
VERTEX
  8
0
 10
9.005625
 20
624.966370
  0
VERTEX
  8
0
 10
9.000078
 20
626.968262
  0
VERTEX
  8
0
 10
9.020782
 20
629.005737
  0
VERTEX
  8
0
 10
9.069140
 20
631.023987
  0
VERTEX
  8
0
 10
9.131640
 20
632.652710
  0
VERTEX
  8
0
 10
9.231093
 20
634.531860
  0
VERTEX
  8
0
 10
9.352109
 20
636.344360
  0
VERTEX
  8
0
 10
9.512734
 20
638.397949
  0
VERTEX
  8
0
 10
9.762187
 20
641.270203
  0
SEQEND
  8
0
  0
POLYLINE
  8
0
  0
VERTEX
  8
0
 10
90.965935
 20
587.130249
  0
VERTEX
  8
0
 10
90.152573
 20
590.825562
  0
VERTEX
  8
0
 10
88.087654
 20
588.226563
  0
VERTEX
  8
0
 10
90.967110
 20
587.062744
  0
SEQEND
  8
0
  0
POLYLINE
  8
0
  0
VERTEX
  8
0
 10
57.803436
 20
553.848022
  0
VERTEX
  8
0
 10
57.326797
 20
553.744507
  0
VERTEX
  8
0
 10
56.926094
 20
553.466492
  0
VERTEX
  8
0
 10
56.662186
 20
553.056335
  0
VERTEX
  8
0
 10
56.575466
 20
552.576416
  0
VERTEX
  8
0
 10
56.678905
 20
552.099731
  0
VERTEX
  8
0
 10
56.956951
 20
551.699036
  0
VERTEX
  8
0
 10
57.367107
 20
551.435242
  0
VERTEX
  8
0
 10
57.847107
 20
551.348450
  0
VERTEX
  8
0
 10
58.323669
 20
551.451843
  0
VERTEX
  8
0
 10
58.724373
 20
551.729858
  0
VERTEX
  8
0
 10
58.988281
 20
552.140076
  0
VERTEX
  8
0
 10
59.075077
 20
552.620056
  0
VERTEX
  8
0
 10
58.971561
 20
553.096619
  0
VERTEX
  8
0
 10
58.693516
 20
553.497314
  0
VERTEX
  8
0
 10
58.283360
 20
553.761230
  0
VERTEX
  8
0
 10
57.803436
 20
553.848022
  0
SEQEND
  8
0
  0
POLYLINE
  8
0
  0
VERTEX
  8
0
 10
131.846252
 20
2.262422
  0
VERTEX
  8
0
 10
143.454056
 20
1.638594
  0
VERTEX
  8
0
 10
148.086945
 20
1.419219
  0
VERTEX
  8
0
 10
151.939835
 20
1.261250
  0
VERTEX
  8
0
 10
155.659836
 20
1.138125
  0
VERTEX
  8
0
 10
159.284912
 20
1.053125
  0
VERTEX
  8
0
 10
162.892105
 20
1.007500
  0
VERTEX
  8
0
 10
165.940536
 20
1.000078
  0
VERTEX
  8
0
 10
169.716873
 20
1.028828
  0
VERTEX
  8
0
 10
174.382889
 20
1.115625
  0
VERTEX
  8
0
 10
178.645157
 20
1.237969
  0
VERTEX
  8
0
 10
183.105148
 20
1.409141
  0
VERTEX
  8
0
 10
187.710617
 20
1.633438
  0
VERTEX
  8
0
 10
191.622101
 20
1.864297
  0
VERTEX
  8
0
 10
195.568283
 20
2.137734
  0
VERTEX
  8
0
 10
199.521484
 20
2.456406
  0
VERTEX
  8
0
 10
202.694366
 20
2.746016
  0
VERTEX
  8
0
 10
205.092957
 20
2.984922
  0
VERTEX
  8
0
 10
208.332260
 20
3.333672
  0
VERTEX
  8
0
 10
211.637177
 20
3.718984
  0
VERTEX
  8
0
 10
215.027969
 20
4.142812
  0
VERTEX
  8
0
 10
218.524445
 20
4.607109
  0
VERTEX
  8
0
 10
222.146942
 20
5.113828
  0
VERTEX
  8
0
 10
225.914764
 20
5.664765
  0
VERTEX
  8
0
 10
230.827332
 20
6.412109
  0
VERTEX
  8
0
 10
236.972183
 20
7.379062
  0
VERTEX
  8
0
 10
250.925613
 20
9.640860
  0
VERTEX
  8
0
 10
266.334930
 20
12.138359
  0
VERTEX
  8
0
 10
279.576080
 20
14.249765
  0
VERTEX
  8
0
 10
292.827881
 20
16.346483
  0
VERTEX
  8
0
 10
285.896484
 20
22.506639
  0
VERTEX
  8
0
 10
281.192810
 20
26.662188
  0
VERTEX
  8
0
 10
277.288971
 20
30.076639
  0
VERTEX
  8
0
 10
274.140778
 20
32.790623
  0
VERTEX
  8
0
 10
270.879456
 20
35.548985
  0
VERTEX
  8
0
 10
268.136230
 20
37.817108
  0
VERTEX
  8
0
 10
265.116333
 20
40.253201
  0
VERTEX
  8
0
 10
262.093903
 20
42.624294
  0
VERTEX
  8
0
 10
258.719360
 20
45.182423
  0
VERTEX
  8
0
 10
255.661789
 20
47.410389
  0
VERTEX
  8
0
 10
252.597733
 20
49.551563
  0
VERTEX
  8
0
 10
249.643982
 20
51.529453
  0
VERTEX
  8
0
 10
246.953430
 20
53.246170
  0
VERTEX
  8
0
 10
245.628830
 20
54.051170
  0
VERTEX
  8
0
 10
244.677490
 20
54.605232
  0
VERTEX
  8
0
 10
243.619141
 20
55.189217
  0
VERTEX
  8
0
 10
242.686172
 20
55.666405
  0
VERTEX
  8
0
 10
241.856552
 20
56.051872
  0
VERTEX
  8
0
 10
241.108902
 20
56.360779
  0
VERTEX
  8
0
 10
240.555069
 20
56.562889
  0
VERTEX
  8
0
 10
239.900070
 20
56.771797
  0
VERTEX
  8
0
 10
239.266953
 20
56.943516
  0
VERTEX
  8
0
 10
238.638504
 20
57.079216
  0
VERTEX
  8
0
 10
237.998428
 20
57.177109
  0
VERTEX
  8
0
 10
237.466873
 20
57.227188
  0
VERTEX
  8
0
 10
236.908829
 20
57.251328
  0
VERTEX
  8
0
 10
236.315857
 20
57.248516
  0
VERTEX
  8
0
 10
235.512970
 20
57.206013
  0
VERTEX
  8
0
 10
234.812027
 20
57.139374
  0
VERTEX
  8
0
 10
234.055771
 20
57.040779
  0
VERTEX
  8
0
 10
233.242569
 20
56.907341
  0
VERTEX
  8
0
 10
232.371017
 20
56.735703
  0
VERTEX
  8
0
 10
231.678040
 20
56.579998
  0
VERTEX
  8
0
 10
230.700378
 20
56.334217
  0
VERTEX
  8
0
 10
229.926163
 20
56.119453
  0
VERTEX
  8
0
 10
228.837646
 20
55.789841
  0
VERTEX
  8
0
 10
227.683823
 20
55.408203
  0
VERTEX
  8
0
 10
226.463196
 20
54.974842
  0
VERTEX
  8
0
 10
224.841553
 20
54.364922
  0
VERTEX
  8
0
 10
222.020233
 20
53.247421
  0
VERTEX
  8
0
 10
211.859451
 20
49.110310
  0
VERTEX
  8
0
 10
204.382339
 20
46.132500
  0
VERTEX
  8
0
 10
200.411011
 20
44.581951
  0
VERTEX
  8
0
 10
196.809143
 20
43.202110
  0
VERTEX
  8
0
 10
193.665543
 20
42.027889
  0
VERTEX
  8
0
 10
191.325226
 20
41.183670
  0
VERTEX
  8
0
 10
189.884293
 20
40.687656
  0
VERTEX
  8
0
 10
188.691559
 20
40.306717
  0
VERTEX
  8
0
 10
187.694366
 20
40.029999
  0
VERTEX
  8
0
 10
186.839844
 20
39.846405
  0
VERTEX
  8
0
 10
186.074997
 20
39.744843
  0
VERTEX
  8
0
 10
185.347031
 20
39.714062
  0
VERTEX
  8
0
 10
184.622726
 20
39.746250
  0
VERTEX
  8
0
 10
183.778671
 20
39.859219
  0
VERTEX
  8
0
 10
182.935074
 20
40.049061
  0
VERTEX
  8
0
 10
182.091248
 20
40.311485
  0
VERTEX
  8
0
 10
181.245071
 20
40.644062
  0
VERTEX
  8
0
 10
180.750381
 20
40.874531
  0
VERTEX
  8
0
 10
180.366562
 20
41.073906
  0
VERTEX
  8
0
 10
179.548050
 20
41.559532
  0
VERTEX
  8
0
 10
178.793900
 20
42.072109
  0
VERTEX
  8
0
 10
177.773514
 20
42.845703
  0
VERTEX
  8
0
 10
176.804214
 20
43.644920
  0
VERTEX
  8
0
 10
175.489685
 20
44.797421
  0
VERTEX
  8
0
 10
173.798126
 20
46.355469
  0
VERTEX
  8
0
 10
172.264603
 20
47.820313
  0
VERTEX
  8
0
 10
170.441254
 20
49.613907
  0
VERTEX
  8
0
 10
169.153976
 20
50.911484
  0
VERTEX
  8
0
 10
167.658661
 20
52.450466
  0
VERTEX
  8
0
 10
161.948746
 20
58.445000
  0
VERTEX
  8
0
 10
160.462189
 20
59.958828
  0
VERTEX
  8
0
 10
158.817184
 20
61.590076
  0
VERTEX
  8
0
 10
155.550858
 20
64.728439
  0
VERTEX
  8
0
 10
148.733200
 20
71.140076
  0
VERTEX
  8
0
 10
147.953049
 20
71.832268
  0
VERTEX
  8
0
 10
147.158432
 20
72.478981
  0
VERTEX
  8
0
 10
146.499756
 20
72.956245
  0
VERTEX
  8
0
 10
145.838821
 20
73.363594
  0
VERTEX
  8
0
 10
145.271790
 20
73.637733
  0
VERTEX
  8
0
 10
144.802261
 20
73.795235
  0
VERTEX
  8
0
 10
144.495468
 20
73.857498
  0
VERTEX
  8
0
 10
144.265854
 20
73.882027
  0
VERTEX
  8
0
 10
143.800461
 20
73.874374
  0
VERTEX
  8
0
 10
143.561401
 20
73.842575
  0
VERTEX
  8
0
 10
143.232178
 20
73.771324
  0
VERTEX
  8
0
 10
142.887344
 20
73.667496
  0
VERTEX
  8
0
 10
142.522812
 20
73.531326
  0
VERTEX
  8
0
 10
141.719452
 20
73.162346
  0
VERTEX
  8
0
 10
140.667648
 20
72.591560
  0
VERTEX
  8
0
 10
139.112732
 20
71.665939
  0
VERTEX
  8
0
 10
136.050629
 20
69.773125
  0
VERTEX
  8
0
 10
131.998123
 20
67.228516
  0
VERTEX
  8
0
 10
130.366638
 20
66.174141
  0
VERTEX
  8
0
 10
129.530304
 20
65.596954
  0
VERTEX
  8
0
 10
128.924057
 20
65.142189
  0
VERTEX
  8
0
 10
128.406723
 20
64.707344
  0
VERTEX
  8
0
 10
127.984215
 20
64.288902
  0
VERTEX
  8
0
 10
127.715858
 20
63.962967
  0
VERTEX
  8
0
 10
127.461403
 20
63.561016
  0
VERTEX
  8
0
 10
127.288437
 20
63.158981
  0
VERTEX
  8
0
 10
127.187965
 20
62.749687
  0
VERTEX
  8
0
 10
127.153587
 20
62.412498
  0
VERTEX
  8
0
 10
127.160858
 20
61.972969
  0
VERTEX
  8
0
 10
127.215385
 20
61.507343
  0
VERTEX
  8
0
 10
127.310699
 20
61.011639
  0
VERTEX
  8
0
 10
127.443588
 20
60.486248
  0
VERTEX
  8
0
 10
127.611092
 20
59.931873
  0
VERTEX
  8
0
 10
127.853432
 20
59.229218
  0
VERTEX
  8
0
 10
128.136017
 20
58.486641
  0
VERTEX
  8
0
 10
128.510544
 20
57.569218
  0
VERTEX
  8
0
 10
129.012802
 20
56.402420
  0
VERTEX
  8
0
 10
132.491943
 20
48.617344
  0
VERTEX
  8
0
 10
134.518829
 20
43.971172
  0
VERTEX
  8
0
 10
135.857422
 20
40.753906
  0
VERTEX
  8
0
 10
136.436478
 20
39.274921
  0
VERTEX
  8
0
 10
136.928284
 20
37.946560
  0
VERTEX
  8
0
 10
137.350861
 20
36.727421
  0
VERTEX
  8
0
 10
137.722809
 20
35.576092
  0
VERTEX
  8
0
 10
138.115082
 20
34.264530
  0
VERTEX
  8
0
 10
138.367416
 20
33.323048
  0
VERTEX
  8
0
 10
138.545151
 20
32.557110
  0
VERTEX
  8
0
 10
138.696014
 20
31.773125
  0
VERTEX
  8
0
 10
138.814926
 20
30.964531
  0
VERTEX
  8
0
 10
138.896866
 20
30.125156
  0
VERTEX
  8
0
 10
138.936722
 20
29.248436
  0
VERTEX
  8
0
 10
138.929367
 20
28.328047
  0
VERTEX
  8
0
 10
138.872269
 20
27.360624
  0
VERTEX
  8
0
 10
138.767502
 20
26.348202
  0
VERTEX
  8
0
 10
138.617737
 20
25.293514
  0
VERTEX
  8
0
 10
138.371323
 20
23.920313
  0
VERTEX
  8
0
 10
138.130081
 20
22.781172
  0
VERTEX
  8
0
 10
137.777573
 20
21.311092
  0
VERTEX
  8
0
 10
137.198517
 20
19.176796
  0
VERTEX
  8
0
 10
136.539993
 20
16.980703
  0
VERTEX
  8
0
 10
135.836716
 20
14.775000
  0
VERTEX
  8
0
 10
133.649689
 20
8.119375
  0
VERTEX
  8
0
 10
132.809067
 20
5.434375
  0
VERTEX
  8
0
 10
131.846252
 20
2.262422
  0
SEQEND
  8
0
  0
POLYLINE
  8
0
  0
VERTEX
  8
0
 10
136.300385
 20
59.079060
  0
VERTEX
  8
0
 10
146.169769
 20
62.912498
  0
SEQEND
  8
0
  0
POLYLINE
  8
0
  0
VERTEX
  8
0
 10
137.254059
 20
43.788826
  0
VERTEX
  8
0
 10
141.139923
 20
45.468513
  0
SEQEND
  8
0
  0
POLYLINE
  8
0
  0
VERTEX
  8
0
 10
156.395462
 20
53.839531
  0
VERTEX
  8
0
 10
160.551086
 20
55.907341
  0
SEQEND
  8
0
  0
POLYLINE
  8
0
  0
VERTEX
  8
0
 10
255.802567
 20
40.248280
  0
VERTEX
  8
0
 10
243.042572
 20
35.237812
  0
VERTEX
  8
0
 10
227.842575
 20
29.292969
  0
VERTEX
  8
0
 10
219.923904
 20
26.170702
  0
VERTEX
  8
0
 10
208.007965
 20
21.405077
  0
VERTEX
  8
0
 10
202.482574
 20
19.163437
  0
VERTEX
  8
0
 10
197.876633
 20
17.274765
  0
VERTEX
  8
0
 10
193.382965
 20
15.409609
  0
VERTEX
  8
0
 10
189.108047
 20
13.607812
  0
VERTEX
  8
0
 10
185.915390
 20
12.237734
  0
VERTEX
  8
0
 10
182.229294
 20
10.623359
  0
VERTEX
  8
0
 10
178.830536
 20
9.101719
  0
VERTEX
  8
0
 10
175.050308
 20
7.371953
  0
VERTEX
  8
0
 10
171.501877
 20
5.716953
  0
VERTEX
  8
0
 10
166.959366
 20
3.571172
  0
SEQEND
  8
0
  0
POLYLINE
  8
0
  0
VERTEX
  8
0
 10
208.730774
 20
13.740156
  0
VERTEX
  8
0
 10
206.726166
 20
9.647187
  0
VERTEX
  8
0
 10
213.287567
 20
9.880625
  0
VERTEX
  8
0
 10
208.853897
 20
14.261952
  0
SEQEND
  8
0
  0
POLYLINE
  8
0
  0
VERTEX
  8
0
 10
138.292725
 20
59.253437
  0
VERTEX
  8
0
 10
138.141327
 20
59.860546
  0
VERTEX
  8
0
 10
137.809769
 20
60.391171
  0
VERTEX
  8
0
 10
137.330383
 20
60.793438
  0
VERTEX
  8
0
 10
136.750305
 20
61.027813
  0
VERTEX
  8
0
 10
136.126007
 20
61.071484
  0
VERTEX
  8
0
 10
135.518906
 20
60.920078
  0
VERTEX
  8
0
 10
134.988281
 20
60.588512
  0
VERTEX
  8
0
 10
134.586014
 20
60.109138
  0
VERTEX
  8
0
 10
134.351639
 20
59.528984
  0
VERTEX
  8
0
 10
134.307968
 20
58.904766
  0
VERTEX
  8
0
 10
134.459366
 20
58.297653
  0
VERTEX
  8
0
 10
134.790939
 20
57.767029
  0
VERTEX
  8
0
 10
135.270309
 20
57.364765
  0
VERTEX
  8
0
 10
135.850464
 20
57.130390
  0
VERTEX
  8
0
 10
136.474686
 20
57.086716
  0
VERTEX
  8
0
 10
137.081787
 20
57.238125
  0
VERTEX
  8
0
 10
137.612411
 20
57.569687
  0
VERTEX
  8
0
 10
138.014679
 20
58.049061
  0
VERTEX
  8
0
 10
138.249054
 20
58.629219
  0
VERTEX
  8
0
 10
138.292725
 20
59.253437
  0
SEQEND
  8
0
  0
POLYLINE
  8
0
  0
VERTEX
  8
0
 10
148.162109
 20
63.086872
  0
VERTEX
  8
0
 10
148.010773
 20
63.693981
  0
VERTEX
  8
0
 10
147.679138
 20
64.224686
  0
VERTEX
  8
0
 10
147.199844
 20
64.626877
  0
VERTEX
  8
0
 10
146.619690
 20
64.861252
  0
VERTEX
  8
0
 10
145.995468
 20
64.904922
  0
VERTEX
  8
0
 10
145.388351
 20
64.753517
  0
VERTEX
  8
0
 10
144.857651
 20
64.421951
  0
VERTEX
  8
0
 10
144.455460
 20
63.942654
  0
VERTEX
  8
0
 10
144.221008
 20
63.362419
  0
VERTEX
  8
0
 10
144.177338
 20
62.738201
  0
VERTEX
  8
0
 10
144.328751
 20
62.131092
  0
VERTEX
  8
0
 10
144.660385
 20
61.600468
  0
VERTEX
  8
0
 10
145.139679
 20
61.198280
  0
VERTEX
  8
0
 10
145.719925
 20
60.963825
  0
VERTEX
  8
0
 10
146.344055
 20
60.920155
  0
VERTEX
  8
0
 10
146.951248
 20
61.071560
  0
VERTEX
  8
0
 10
147.481949
 20
61.403202
  0
VERTEX
  8
0
 10
147.884064
 20
61.882500
  0
VERTEX
  8
0
 10
148.118515
 20
62.462654
  0
VERTEX
  8
0
 10
148.162109
 20
63.086872
  0
SEQEND
  8
0
  0
POLYLINE
  8
0
  0
VERTEX
  8
0
 10
138.250229
 20
43.875938
  0
VERTEX
  8
0
 10
138.141098
 20
44.250546
  0
VERTEX
  8
0
 10
137.896866
 20
44.554844
  0
VERTEX
  8
0
 10
137.554764
 20
44.742500
  0
VERTEX
  8
0
 10
137.166870
 20
44.785000
  0
VERTEX
  8
0
 10
136.792343
 20
44.675858
  0
VERTEX
  8
0
 10
136.487961
 20
44.431561
  0
VERTEX
  8
0
 10
136.300308
 20
44.089451
  0
VERTEX
  8
0
 10
136.257889
 20
43.701641
  0
VERTEX
  8
0
 10
136.367035
 20
43.327110
  0
VERTEX
  8
0
 10
136.611252
 20
43.022732
  0
VERTEX
  8
0
 10
136.953354
 20
42.835075
  0
VERTEX
  8
0
 10
137.341171
 20
42.792576
  0
VERTEX
  8
0
 10
137.715775
 20
42.901794
  0
VERTEX
  8
0
 10
138.020081
 20
43.146015
  0
VERTEX
  8
0
 10
138.207809
 20
43.488125
  0
VERTEX
  8
0
 10
138.250229
 20
43.875938
  0
SEQEND
  8
0
  0
POLYLINE
  8
0
  0
VERTEX
  8
0
 10
142.136169
 20
45.555622
  0
VERTEX
  8
0
 10
142.026947
 20
45.930233
  0
VERTEX
  8
0
 10
141.782730
 20
46.234531
  0
VERTEX
  8
0
 10
141.440704
 20
46.422188
  0
VERTEX
  8
0
 10
141.052811
 20
46.464687
  0
VERTEX
  8
0
 10
140.678207
 20
46.355545
  0
VERTEX
  8
0
 10
140.373901
 20
46.111248
  0
VERTEX
  8
0
 10
140.186249
 20
45.769138
  0
VERTEX
  8
0
 10
140.143753
 20
45.381329
  0
VERTEX
  8
0
 10
140.252960
 20
45.006794
  0
VERTEX
  8
0
 10
140.497177
 20
44.702419
  0
VERTEX
  8
0
 10
140.839294
 20
44.514763
  0
VERTEX
  8
0
 10
141.227112
 20
44.472263
  0
VERTEX
  8
0
 10
141.601715
 20
44.581406
  0
VERTEX
  8
0
 10
141.906006
 20
44.825703
  0
VERTEX
  8
0
 10
142.093674
 20
45.167812
  0
VERTEX
  8
0
 10
142.136169
 20
45.555622
  0
SEQEND
  8
0
  0
POLYLINE
  8
0
  0
VERTEX
  8
0
 10
157.391632
 20
53.926716
  0
VERTEX
  8
0
 10
157.282501
 20
54.301250
  0
VERTEX
  8
0
 10
157.038193
 20
54.605625
  0
VERTEX
  8
0
 10
156.696167
 20
54.793282
  0
VERTEX
  8
0
 10
156.308273
 20
54.835701
  0
VERTEX
  8
0
 10
155.933746
 20
54.726563
  0
VERTEX
  8
0
 10
155.629456
 20
54.482342
  0
VERTEX
  8
0
 10
155.441788
 20
54.140232
  0
VERTEX
  8
0
 10
155.399216
 20
53.752422
  0
VERTEX
  8
0
 10
155.508514
 20
53.377811
  0
VERTEX
  8
0
 10
155.752731
 20
53.073513
  0
VERTEX
  8
0
 10
156.094757
 20
52.885780
  0
VERTEX
  8
0
 10
156.482574
 20
52.843357
  0
VERTEX
  8
0
 10
156.857269
 20
52.952499
  0
VERTEX
  8
0
 10
157.161484
 20
53.196716
  0
VERTEX
  8
0
 10
157.349136
 20
53.538906
  0
VERTEX
  8
0
 10
157.391632
 20
53.926716
  0
SEQEND
  8
0
  0
POLYLINE
  8
0
  0
VERTEX
  8
0
 10
161.547256
 20
55.994530
  0
VERTEX
  8
0
 10
161.438126
 20
56.369141
  0
VERTEX
  8
0
 10
161.193909
 20
56.673359
  0
VERTEX
  8
0
 10
160.851868
 20
56.861092
  0
VERTEX
  8
0
 10
160.463974
 20
56.903515
  0
VERTEX
  8
0
 10
160.089371
 20
56.794373
  0
VERTEX
  8
0
 10
159.785156
 20
56.550156
  0
VERTEX
  8
0
 10
159.597412
 20
56.208122
  0
VERTEX
  8
0
 10
159.554916
 20
55.820156
  0
VERTEX
  8
0
 10
159.664139
 20
55.445625
  0
VERTEX
  8
0
 10
159.908356
 20
55.141327
  0
VERTEX
  8
0
 10
160.250381
 20
54.953671
  0
VERTEX
  8
0
 10
160.638275
 20
54.911171
  0
VERTEX
  8
0
 10
161.012894
 20
55.020390
  0
VERTEX
  8
0
 10
161.317184
 20
55.264530
  0
VERTEX
  8
0
 10
161.504837
 20
55.606640
  0
VERTEX
  8
0
 10
161.547256
 20
55.994530
  0
SEQEND
  8
0
  0
POLYLINE
  8
0
  0
VERTEX
  8
0
 10
102.180779
 20
737.648682
  0
VERTEX
  8
0
 10
102.486794
 20
730.654175
  0
VERTEX
  8
0
 10
102.656013
 20
725.862183
  0
VERTEX
  8
0
 10
102.736717
 20
722.013916
  0
VERTEX
  8
0
 10
102.745079
 20
720.008423
  0
VERTEX
  8
0
 10
102.729996
 20
718.613831
  0
VERTEX
  8
0
 10
102.695389
 20
717.318176
  0
VERTEX
  8
0
 10
102.619843
 20
715.737122
  0
VERTEX
  8
0
 10
102.541794
 20
714.654602
  0
VERTEX
  8
0
 10
102.410309
 20
713.339600
  0
VERTEX
  8
0
 10
102.248825
 20
712.160400
  0
VERTEX
  8
0
 10
102.058670
 20
711.105164
  0
VERTEX
  8
0
 10
101.841095
 20
710.161987
  0
VERTEX
  8
0
 10
101.597656
 20
709.319275
  0
VERTEX
  8
0
 10
101.398750
 20
708.745911
  0
VERTEX
  8
0
 10
101.185699
 20
708.217712
  0
VERTEX
  8
0
 10
100.957809
 20
707.730042
  0
VERTEX
  8
0
 10
100.714218
 20
707.278442
  0
VERTEX
  8
0
 10
100.454216
 20
706.858276
  0
VERTEX
  8
0
 10
100.177032
 20
706.465149
  0
VERTEX
  8
0
 10
99.882027
 20
706.094421
  0
VERTEX
  8
0
 10
99.459526
 20
705.627258
  0
VERTEX
  8
0
 10
99.119843
 20
705.291321
  0
VERTEX
  8
0
 10
98.635078
 20
704.854065
  0
VERTEX
  8
0
 10
98.112968
 20
704.419983
  0
VERTEX
  8
0
 10
97.558594
 20
703.986450
  0
VERTEX
  8
0
 10
96.385780
 20
703.125671
  0
VERTEX
  8
0
 10
93.462730
 20
701.064758
  0
VERTEX
  8
0
 10
92.811089
 20
700.566467
  0
VERTEX
  8
0
 10
92.318672
 20
700.152588
  0
VERTEX
  8
0
 10
91.965622
 20
699.825439
  0
VERTEX
  8
0
 10
91.626167
 20
699.478516
  0
VERTEX
  8
0
 10
91.089607
 20
698.842712
  0
VERTEX
  8
0
 10
90.784683
 20
698.418579
  0
VERTEX
  8
0
 10
90.588280
 20
698.114990
  0
VERTEX
  8
0
 10
90.303589
 20
697.624573
  0
VERTEX
  8
0
 10
90.120392
 20
697.272156
  0
VERTEX
  8
0
 10
89.768433
 20
696.504761
  0
VERTEX
  8
0
 10
89.352104
 20
695.433105
  0
VERTEX
  8
0
 10
88.956718
 20
694.244446
  0
VERTEX
  8
0
 10
88.576637
 20
692.946838
  0
VERTEX
  8
0
 10
88.206169
 20
691.548584
  0
VERTEX
  8
0
 10
87.839767
 20
690.057861
  0
VERTEX
  8
0
 10
86.383751
 20
683.723206
  0
VERTEX
  8
0
 10
85.595779
 20
680.487427
  0
VERTEX
  8
0
 10
85.113121
 20
678.663086
  0
VERTEX
  8
0
 10
84.699059
 20
677.200317
  0
VERTEX
  8
0
 10
84.257652
 20
675.736450
  0
VERTEX
  8
0
 10
83.786873
 20
674.270935
  0
VERTEX
  8
0
 10
83.154373
 20
672.435425
  0
VERTEX
  8
0
 10
82.610703
 20
670.963257
  0
VERTEX
  8
0
 10
82.031403
 20
669.486877
  0
VERTEX
  8
0
 10
81.414604
 20
668.005554
  0
VERTEX
  8
0
 10
80.587814
 20
666.145752
  0
VERTEX
  8
0
 10
79.881485
 20
664.654602
  0
VERTEX
  8
0
 10
79.139061
 20
663.171692
  0
VERTEX
  8
0
 10
78.365074
 20
661.708862
  0
VERTEX
  8
0
 10
77.563751
 20
660.277954
  0
VERTEX
  8
0
 10
76.947418
 20
659.232727
  0
VERTEX
  8
0
 10
76.320000
 20
658.217041
  0
VERTEX
  8
0
 10
75.683281
 20
657.235840
  0
VERTEX
  8
0
 10
75.039139
 20
656.294128
  0
VERTEX
  8
0
 10
74.389374
 20
655.396790
  0
VERTEX
  8
0
 10
73.735542
 20
654.547791
  0
VERTEX
  8
0
 10
73.077652
 20
653.746216
  0
VERTEX
  8
0
 10
72.415627
 20
652.990051
  0
VERTEX
  8
0
 10
71.749298
 20
652.277222
  0
VERTEX
  8
0
 10
71.078278
 20
651.605774
  0
VERTEX
  8
0
 10
70.176323
 20
650.771362
  0
VERTEX
  8
0
 10
69.493980
 20
650.188660
  0
VERTEX
  8
0
 10
68.576012
 20
649.465271
  0
VERTEX
  8
0
 10
67.881248
 20
648.960388
  0
VERTEX
  8
0
 10
66.945938
 20
648.333435
  0
VERTEX
  8
0
 10
65.998283
 20
647.755981
  0
VERTEX
  8
0
 10
65.275932
 20
647.354431
  0
VERTEX
  8
0
 10
64.292267
 20
646.859985
  0
VERTEX
  8
0
 10
63.535702
 20
646.519043
  0
VERTEX
  8
0
 10
62.496872
 20
646.103210
  0
VERTEX
  8
0
 10
61.691719
 20
645.819519
  0
VERTEX
  8
0
 10
60.861328
 20
645.559387
  0
VERTEX
  8
0
 10
60.003044
 20
645.322266
  0
VERTEX
  8
0
 10
59.114296
 20
645.107422
  0
VERTEX
  8
0
 10
57.878670
 20
644.854980
  0
VERTEX
  8
0
 10
56.592968
 20
644.642456
  0
VERTEX
  8
0
 10
55.604294
 20
644.510620
  0
VERTEX
  8
0
 10
54.264374
 20
644.373291
  0
VERTEX
  8
0
 10
53.250935
 20
644.300232
  0
VERTEX
  8
0
 10
52.236717
 20
644.253906
  0
VERTEX
  8
0
 10
51.227421
 20
644.235229
  0
VERTEX
  8
0
 10
49.899765
 20
644.254883
  0
VERTEX
  8
0
 10
48.925076
 20
644.304260
  0
VERTEX
  8
0
 10
47.974922
 20
644.384338
  0
VERTEX
  8
0
 10
47.052265
 20
644.495239
  0
VERTEX
  8
0
 10
46.155857
 20
644.635620
  0
VERTEX
  8
0
 10
44.998280
 20
644.866760
  0
VERTEX
  8
0
 10
44.156250
 20
645.071472
  0
VERTEX
  8
0
 10
43.064999
 20
645.383667
  0
VERTEX
  8
0
 10
42.006016
 20
645.738037
  0
VERTEX
  8
0
 10
40.975235
 20
646.131653
  0
VERTEX
  8
0
 10
39.968437
 20
646.561462
  0
VERTEX
  8
0
 10
38.981716
 20
647.024780
  0
VERTEX
  8
0
 10
38.010391
 20
647.525391
  0
VERTEX
  8
0
 10
37.049297
 20
648.073242
  0
VERTEX
  8
0
 10
36.093357
 20
648.679077
  0
VERTEX
  8
0
 10
35.376717
 20
649.177551
  0
VERTEX
  8
0
 10
34.417419
 20
649.909546
  0
VERTEX
  8
0
 10
33.692345
 20
650.514771
  0
VERTEX
  8
0
 10
32.960079
 20
651.172974
  0
VERTEX
  8
0
 10
32.218437
 20
651.888550
  0
VERTEX
  8
0
 10
31.465311
 20
652.666016
  0
VERTEX
  8
0
 10
30.700859
 20
653.505859
  0
VERTEX
  8
0
 10
29.929062
 20
654.403137
  0
VERTEX
  8
0
 10
29.154062
 20
655.352234
  0
VERTEX
  8
0
 10
28.379921
 20
656.347778
  0
VERTEX
  8
0
 10
27.356405
 20
657.737671
  0
VERTEX
  8
0
 10
26.600702
 20
658.819824
  0
VERTEX
  8
0
 10
25.859842
 20
659.929932
  0
VERTEX
  8
0
 10
24.902344
 20
661.443970
  0
VERTEX
  8
0
 10
24.212343
 20
662.597717
  0
VERTEX
  8
0
 10
23.551094
 20
663.761108
  0
VERTEX
  8
0
 10
22.920546
 20
664.930054
  0
VERTEX
  8
0
 10
21.934296
 20
666.887024
  0
VERTEX
  8
0
 10
21.022655
 20
668.849731
  0
VERTEX
  8
0
 10
20.508436
 20
670.027893
  0
VERTEX
  8
0
 10
20.016874
 20
671.204773
  0
VERTEX
  8
0
 10
19.095547
 20
673.549805
  0
VERTEX
  8
0
 10
18.246250
 20
675.875061
  0
VERTEX
  8
0
 10
17.456718
 20
678.169495
  0
VERTEX
  8
0
 10
16.716640
 20
680.417419
  0
VERTEX
  8
0
 10
14.799922
 20
686.388550
  0
VERTEX
  8
0
 10
13.837500
 20
689.216614
  0
VERTEX
  8
0
 10
13.209296
 20
690.945129
  0
VERTEX
  8
0
 10
12.498593
 20
692.790466
  0
VERTEX
  8
0
 10
11.820391
 20
694.438904
  0
VERTEX
  8
0
 10
11.183672
 20
695.877380
  0
VERTEX
  8
0
 10
10.587812
 20
697.108276
  0
VERTEX
  8
0
 10
10.089531
 20
698.029724
  0
VERTEX
  8
0
 10
9.582578
 20
698.860291
  0
VERTEX
  8
0
 10
9.047500
 20
699.630676
  0
VERTEX
  8
0
 10
8.566250
 20
700.248718
  0
VERTEX
  8
0
 10
8.043047
 20
700.862854
  0
VERTEX
  8
0
 10
6.070547
 20
703.001343
  0
VERTEX
  8
0
 10
5.254375
 20
703.928894
  0
VERTEX
  8
0
 10
4.592656
 20
704.757629
  0
VERTEX
  8
0
 10
3.981406
 20
705.630371
  0
VERTEX
  8
0
 10
3.695625
 20
706.089966
  0
VERTEX
  8
0
 10
3.423281
 20
706.568909
  0
VERTEX
  8
0
 10
3.000000
 20
707.417542
  0
VERTEX
  8
0
 10
2.764609
 20
707.961609
  0
VERTEX
  8
0
 10
2.543516
 20
708.535400
  0
VERTEX
  8
0
 10
2.207109
 20
709.565063
  0
VERTEX
  8
0
 10
1.967500
 20
710.462341
  0
VERTEX
  8
0
 10
1.705156
 20
711.677246
  0
VERTEX
  8
0
 10
1.525078
 20
712.718018
  0
VERTEX
  8
0
 10
1.337266
 20
714.097351
  0
VERTEX
  8
0
 10
1.216719
 20
715.257263
  0
VERTEX
  8
0
 10
1.103281
 20
716.769897
  0
VERTEX
  8
0
 10
1.031094
 20
718.343445
  0
VERTEX
  8
0
 10
1.000078
 20
719.967651
  0
VERTEX
  8
0
 10
1.006562
 20
721.625854
  0
VERTEX
  8
0
 10
1.044453
 20
723.295837
  0
VERTEX
  8
0
 10
1.122813
 20
725.284302
  0
VERTEX
  8
0
 10
1.226875
 20
727.219360
  0
VERTEX
  8
0
 10
1.366797
 20
729.358337
  0
VERTEX
  8
0
 10
1.555391
 20
731.862854
  0
VERTEX
  8
0
 10
1.770000
 20
734.390503
  0
VERTEX
  8
0
 10
2.055625
 20
737.489258
  0
VERTEX
  8
0
 10
12.107344
 20
735.190063
  0
VERTEX
  8
0
 10
21.946093
 20
732.939453
  0
VERTEX
  8
0
 10
31.784843
 20
730.688904
  0
VERTEX
  8
0
 10
41.623516
 20
728.438354
  0
VERTEX
  8
0
 10
41.286015
 20
727.396606
  0
VERTEX
  8
0
 10
41.052654
 20
726.573181
  0
VERTEX
  8
0
 10
40.881485
 20
725.875244
  0
VERTEX
  8
0
 10
40.445938
 20
723.937927
  0
VERTEX
  8
0
 10
40.205235
 20
722.992493
  0
VERTEX
  8
0
 10
39.962654
 20
722.194580
  0
VERTEX
  8
0
 10
39.726482
 20
721.541931
  0
VERTEX
  8
0
 10
39.506248
 20
721.020325
  0
VERTEX
  8
0
 10
39.310078
 20
720.614563
  0
VERTEX
  8
0
 10
39.102421
 20
720.237000
  0
VERTEX
  8
0
 10
38.883358
 20
719.889282
  0
VERTEX
  8
0
 10
38.655937
 20
719.571960
  0
VERTEX
  8
0
 10
38.379063
 20
719.230225
  0
VERTEX
  8
0
 10
38.062031
 20
718.884338
  0
VERTEX
  8
0
 10
37.724998
 20
718.556641
  0
VERTEX
  8
0
 10
37.432968
 20
718.297852
  0
VERTEX
  8
0
 10
37.172733
 20
718.096069
  0
VERTEX
  8
0
 10
36.942734
 20
717.951599
  0
VERTEX
  8
0
 10
36.684765
 20
717.824036
  0
VERTEX
  8
0
 10
36.324688
 20
717.683044
  0
VERTEX
  8
0
 10
35.882576
 20
717.540039
  0
VERTEX
  8
0
 10
35.375546
 20
717.402222
  0
VERTEX
  8
0
 10
34.893826
 20
717.291992
  0
VERTEX
  8
0
 10
34.097031
 20
717.151672
  0
VERTEX
  8
0
 10
33.196560
 20
717.047180
  0
VERTEX
  8
0
 10
32.344688
 20
716.983032
  0
VERTEX
  8
0
 10
30.320391
 20
716.869507
  0
VERTEX
  8
0
 10
29.223906
 20
716.764771
  0
VERTEX
  8
0
 10
28.630703
 20
716.678955
  0
VERTEX
  8
0
 10
28.140078
 20
716.586487
  0
VERTEX
  8
0
 10
27.682108
 20
716.475220
  0
VERTEX
  8
0
 10
27.272343
 20
716.343994
  0
VERTEX
  8
0
 10
26.925938
 20
716.191650
  0
VERTEX
  8
0
 10
26.652344
 20
716.017883
  0
VERTEX
  8
0
 10
26.445936
 20
715.825012
  0
VERTEX
  8
0
 10
26.279764
 20
715.578979
  0
VERTEX
  8
0
 10
26.182186
 20
715.314026
  0
VERTEX
  8
0
 10
26.138985
 20
714.993347
  0
VERTEX
  8
0
 10
26.157108
 20
714.658569
  0
VERTEX
  8
0
 10
26.246250
 20
714.270386
  0
VERTEX
  8
0
 10
26.363047
 20
713.963806
  0
VERTEX
  8
0
 10
26.519140
 20
713.656250
  0
VERTEX
  8
0
 10
26.715937
 20
713.349609
  0
VERTEX
  8
0
 10
26.922499
 20
713.087219
  0
VERTEX
  8
0
 10
27.169374
 20
712.825317
  0
VERTEX
  8
0
 10
27.461639
 20
712.563416
  0
VERTEX
  8
0
 10
27.743437
 20
712.345154
  0
VERTEX
  8
0
 10
28.129608
 20
712.083313
  0
VERTEX
  8
0
 10
28.638203
 20
711.780518
  0
VERTEX
  8
0
 10
29.196640
 20
711.483948
  0
VERTEX
  8
0
 10
29.791874
 20
711.197388
  0
VERTEX
  8
0
 10
30.410936
 20
710.924133
  0
VERTEX
  8
0
 10
30.962812
 20
710.701538
  0
VERTEX
  8
0
 10
31.557108
 20
710.487305
  0
VERTEX
  8
0
 10
32.706875
 20
710.141907
  0
VERTEX
  8
0
 10
34.151249
 20
709.801147
  0
VERTEX
  8
0
 10
35.944843
 20
709.463562
  0
VERTEX
  8
0
 10
37.799843
 20
709.180664
  0
VERTEX
  8
0
 10
39.817108
 20
708.936646
  0
VERTEX
  8
0
 10
41.701717
 20
708.766174
  0
VERTEX
  8
0
 10
43.692108
 20
708.643188
  0
VERTEX
  8
0
 10
45.561172
 20
708.573486
  0
VERTEX
  8
0
 10
47.889530
 20
708.536072
  0
VERTEX
  8
0
 10
50.465000
 20
708.542847
  0
VERTEX
  8
0
 10
52.874138
 20
708.587952
  0
VERTEX
  8
0
 10
55.330467
 20
708.674500
  0
VERTEX
  8
0
 10
57.738827
 20
708.807556
  0
VERTEX
  8
0
 10
59.693047
 20
708.962158
  0
VERTEX
  8
0
 10
61.494373
 20
709.155273
  0
VERTEX
  8
0
 10
63.142811
 20
709.378601
  0
VERTEX
  8
0
 10
64.888596
 20
709.663208
  0
VERTEX
  8
0
 10
67.289841
 20
710.124207
  0
VERTEX
  8
0
 10
70.610542
 20
710.830627
  0
VERTEX
  8
0
 10
72.778824
 20
711.344543
  0
VERTEX
  8
0
 10
73.472496
 20
711.530518
  0
VERTEX
  8
0
 10
74.079216
 20
711.714111
  0
VERTEX
  8
0
 10
74.624298
 20
711.906616
  0
VERTEX
  8
0
 10
75.061798
 20
712.087219
  0
VERTEX
  8
0
 10
75.558670
 20
712.325195
  0
VERTEX
  8
0
 10
76.040001
 20
712.590210
  0
VERTEX
  8
0
 10
76.545776
 20
712.910217
  0
VERTEX
  8
0
 10
76.926796
 20
713.190918
  0
VERTEX
  8
0
 10
77.229218
 20
713.458984
  0
VERTEX
  8
0
 10
77.441635
 20
713.707275
  0
VERTEX
  8
0
 10
77.544296
 20
713.876648
  0
VERTEX
  8
0
 10
77.612419
 20
714.043640
  0
VERTEX
  8
0
 10
77.651482
 20
714.211792
  0
VERTEX
  8
0
 10
77.667969
 20
714.420349
  0
VERTEX
  8
0
 10
77.656792
 20
714.680542
  0
VERTEX
  8
0
 10
77.612968
 20
714.995667
  0
VERTEX
  8
0
 10
77.549767
 20
715.273438
  0
VERTEX
  8
0
 10
77.465546
 20
715.539856
  0
VERTEX
  8
0
 10
77.378044
 20
715.749756
  0
VERTEX
  8
0
 10
77.277184
 20
715.936096
  0
VERTEX
  8
0
 10
77.181870
 20
716.074341
  0
VERTEX
  8
0
 10
77.052185
 20
716.222656
  0
VERTEX
  8
0
 10
76.903824
 20
716.354614
  0
VERTEX
  8
0
 10
76.734688
 20
716.473511
  0
VERTEX
  8
0
 10
76.359138
 20
716.666321
  0
VERTEX
  8
0
 10
76.099998
 20
716.757568
  0
VERTEX
  8
0
 10
75.785233
 20
716.837219
  0
VERTEX
  8
0
 10
75.100311
 20
716.940308
  0
VERTEX
  8
0
 10
74.375626
 20
716.993835
  0
VERTEX
  8
0
 10
71.939766
 20
717.105347
  0
VERTEX
  8
0
 10
70.775703
 20
717.189697
  0
VERTEX
  8
0
 10
69.250153
 20
717.357483
  0
VERTEX
  8
0
 10
67.924530
 20
717.568359
  0
VERTEX
  8
0
 10
67.250854
 20
717.709595
  0
VERTEX
  8
0
 10
66.760780
 20
717.834778
  0
VERTEX
  8
0
 10
66.324684
 20
717.970703
  0
VERTEX
  8
0
 10
65.944214
 20
718.116760
  0
VERTEX
  8
0
 10
65.613281
 20
718.271790
  0
VERTEX
  8
0
 10
65.259605
 20
718.476318
  0
VERTEX
  8
0
 10
64.960861
 20
718.690552
  0
VERTEX
  8
0
 10
64.704605
 20
718.912354
  0
VERTEX
  8
0
 10
64.393356
 20
719.230835
  0
VERTEX
  8
0
 10
64.072578
 20
719.607300
  0
VERTEX
  8
0
 10
63.847889
 20
719.916687
  0
VERTEX
  8
0
 10
63.632969
 20
720.267944
  0
VERTEX
  8
0
 10
63.424297
 20
720.677795
  0
VERTEX
  8
0
 10
63.218357
 20
721.163025
  0
VERTEX
  8
0
 10
63.047264
 20
721.633423
  0
VERTEX
  8
0
 10
62.846325
 20
722.264587
  0
VERTEX
  8
0
 10
62.656094
 20
722.948242
  0
VERTEX
  8
0
 10
62.482655
 20
723.662537
  0
VERTEX
  8
0
 10
62.332344
 20
724.385986
  0
VERTEX
  8
0
 10
62.211094
 20
725.097351
  0
VERTEX
  8
0
 10
62.118984
 20
725.787964
  0
VERTEX
  8
0
 10
62.050076
 20
726.461792
  0
VERTEX
  8
0
 10
61.928356
 20
728.317688
  0
VERTEX
  8
0
 10
73.127579
 20
730.925842
  0
VERTEX
  8
0
 10
91.105782
 20
735.186707
  0
VERTEX
  8
0
 10
96.331718
 20
736.373596
  0
VERTEX
  8
0
 10
102.180779
 20
737.648682
  0
SEQEND
  8
0
  0
POLYLINE
  8
0
  0
VERTEX
  8
0
 10
81.970001
 20
718.998901
  0
VERTEX
  8
0
 10
89.823433
 20
719.164063
  0
SEQEND
  8
0
  0
POLYLINE
  8
0
  0
VERTEX
  8
0
 10
12.650624
 20
718.806335
  0
VERTEX
  8
0
 10
20.676640
 20
718.696106
  0
SEQEND
  8
0
  0
POLYLINE
  8
0
  0
VERTEX
  8
0
 10
94.686249
 20
737.369690
  0
VERTEX
  8
0
 10
94.942886
 20
731.144897
  0
VERTEX
  8
0
 10
95.106407
 20
726.449524
  0
VERTEX
  8
0
 10
95.191872
 20
722.733704
  0
VERTEX
  8
0
 10
95.207886
 20
720.833984
  0
VERTEX
  8
0
 10
95.201248
 20
719.536560
  0
VERTEX
  8
0
 10
95.177345
 20
718.358032
  0
VERTEX
  8
0
 10
95.121170
 20
716.964600
  0
VERTEX
  8
0
 10
95.041641
 20
715.759888
  0
VERTEX
  8
0
 10
94.943588
 20
714.727966
  0
VERTEX
  8
0
 10
94.831947
 20
713.852661
  0
VERTEX
  8
0
 10
94.680542
 20
712.954407
  0
VERTEX
  8
0
 10
94.524765
 20
712.244751
  0
VERTEX
  8
0
 10
94.344452
 20
711.597961
  0
VERTEX
  8
0
 10
94.195625
 20
711.193054
  0
VERTEX
  8
0
 10
94.031090
 20
710.876770
  0
VERTEX
  8
0
 10
93.834213
 20
710.618164
  0
VERTEX
  8
0
 10
93.588593
 20
710.385986
  0
VERTEX
  8
0
 10
93.206017
 20
710.098633
  0
VERTEX
  8
0
 10
90.639374
 20
708.325073
  0
VERTEX
  8
0
 10
88.948280
 20
707.081848
  0
VERTEX
  8
0
 10
88.123985
 20
706.440674
  0
VERTEX
  8
0
 10
87.452263
 20
705.887146
  0
VERTEX
  8
0
 10
86.778435
 20
705.289185
  0
VERTEX
  8
0
 10
86.276718
 20
704.806946
  0
VERTEX
  8
0
 10
85.781876
 20
704.291931
  0
VERTEX
  8
0
 10
85.297417
 20
703.741089
  0
VERTEX
  8
0
 10
84.826874
 20
703.151001
  0
VERTEX
  8
0
 10
84.522499
 20
702.734192
  0
VERTEX
  8
0
 10
84.082809
 20
702.071533
  0
VERTEX
  8
0
 10
83.802185
 20
701.603333
  0
VERTEX
  8
0
 10
83.532890
 20
701.112854
  0
VERTEX
  8
0
 10
83.275078
 20
700.600403
  0
VERTEX
  8
0
 10
82.791405
 20
699.514099
  0
VERTEX
  8
0
 10
82.346169
 20
698.355164
  0
VERTEX
  8
0
 10
81.836166
 20
696.819580
  0
VERTEX
  8
0
 10
81.368752
 20
695.206787
  0
VERTEX
  8
0
 10
81.018906
 20
693.874390
  0
VERTEX
  8
0
 10
80.603516
 20
692.173279
  0
VERTEX
  8
0
 10
79.097809
 20
685.588745
  0
VERTEX
  8
0
 10
78.429611
 20
682.811340
  0
VERTEX
  8
0
 10
78.073669
 20
681.429993
  0
VERTEX
  8
0
 10
77.698120
 20
680.056458
  0
VERTEX
  8
0
 10
76.985779
 20
677.674194
  0
VERTEX
  8
0
 10
76.544533
 20
676.323730
  0
VERTEX
  8
0
 10
76.076561
 20
674.980042
  0
VERTEX
  8
0
 10
75.580467
 20
673.642395
  0
VERTEX
  8
0
 10
75.054764
 20
672.309692
  0
VERTEX
  8
0
 10
74.497971
 20
670.981140
  0
VERTEX
  8
0
 10
73.908669
 20
669.655823
  0
VERTEX
  8
0
 10
73.445000
 20
668.664368
  0
VERTEX
  8
0
 10
72.800934
 20
667.352539
  0
VERTEX
  8
0
 10
72.132576
 20
666.062561
  0
VERTEX
  8
0
 10
71.618515
 20
665.116089
  0
VERTEX
  8
0
 10
70.567886
 20
663.297668
  0
VERTEX
  8
0
 10
69.858124
 20
662.155640
  0
VERTEX
  8
0
 10
69.324760
 20
661.343811
  0
VERTEX
  8
0
 10
68.793121
 20
660.575684
  0
VERTEX
  8
0
 10
68.265549
 20
659.855835
  0
VERTEX
  8
0
 10
67.743126
 20
659.185974
  0
VERTEX
  8
0
 10
67.225464
 20
658.563843
  0
VERTEX
  8
0
 10
66.712029
 20
657.986450
  0
VERTEX
  8
0
 10
66.202187
 20
657.450928
  0
VERTEX
  8
0
 10
65.695389
 20
656.954468
  0
VERTEX
  8
0
 10
65.023201
 20
656.348206
  0
VERTEX
  8
0
 10
64.521011
 20
655.931519
  0
VERTEX
  8
0
 10
63.852890
 20
655.421448
  0
VERTEX
  8
0
 10
63.185154
 20
654.957031
  0
VERTEX
  8
0
 10
62.516094
 20
654.531677
  0
VERTEX
  8
0
 10
61.840313
 20
654.142456
  0
VERTEX
  8
0
 10
61.325077
 20
653.873291
  0
VERTEX
  8
0
 10
60.621170
 20
653.543518
  0
VERTEX
  8
0
 10
59.891716
 20
653.245667
  0
VERTEX
  8
0
 10
59.129608
 20
652.978271
  0
VERTEX
  8
0
 10
58.532497
 20
652.796753
  0
VERTEX
  8
0
 10
57.696796
 20
652.579041
  0
VERTEX
  8
0
 10
57.036484
 20
652.433167
  0
VERTEX
  8
0
 10
56.109138
 20
652.261169
  0
VERTEX
  8
0
 10
55.138123
 20
652.116333
  0
VERTEX
  8
0
 10
54.136562
 20
652.000427
  0
VERTEX
  8
0
 10
53.117420
 20
651.915527
  0
VERTEX
  8
0
 10
52.093906
 20
651.863342
  0
VERTEX
  8
0
 10
51.331326
 20
651.846863
  0
VERTEX
  8
0
 10
50.331638
 20
651.856628
  0
VERTEX
  8
0
 10
49.601952
 20
651.888672
  0
VERTEX
  8
0
 10
48.895622
 20
651.942871
  0
VERTEX
  8
0
 10
47.993984
 20
652.049683
  0
VERTEX
  8
0
 10
47.345703
 20
652.154297
  0
VERTEX
  8
0
 10
46.515076
 20
652.324585
  0
VERTEX
  8
0
 10
45.718670
 20
652.527954
  0
VERTEX
  8
0
 10
44.951954
 20
652.761841
  0
VERTEX
  8
0
 10
44.210232
 20
653.023804
  0
VERTEX
  8
0
 10
43.311329
 20
653.387146
  0
VERTEX
  8
0
 10
42.435467
 20
653.786072
  0
VERTEX
  8
0
 10
41.744453
 20
654.134583
  0
VERTEX
  8
0
 10
41.055779
 20
654.520630
  0
VERTEX
  8
0
 10
40.363438
 20
654.955078
  0
VERTEX
  8
0
 10
39.661327
 20
655.449219
  0
VERTEX
  8
0
 10
39.124844
 20
655.865540
  0
VERTEX
  8
0
 10
38.391407
 20
656.490601
  0
VERTEX
  8
0
 10
37.824532
 20
657.017944
  0
VERTEX
  8
0
 10
37.240391
 20
657.600586
  0
VERTEX
  8
0
 10
36.636875
 20
658.242859
  0
VERTEX
  8
0
 10
35.805233
 20
659.189331
  0
VERTEX
  8
0
 10
35.166874
 20
659.960754
  0
VERTEX
  8
0
 10
34.520470
 20
660.779846
  0
VERTEX
  8
0
 10
33.870468
 20
661.641846
  0
VERTEX
  8
0
 10
33.005310
 20
662.849915
  0
VERTEX
  8
0
 10
32.363125
 20
663.794067
  0
VERTEX
  8
0
 10
31.731327
 20
664.765625
  0
VERTEX
  8
0
 10
31.114140
 20
665.759888
  0
VERTEX
  8
0
 10
30.515860
 20
666.772400
  0
VERTEX
  8
0
 10
29.940311
 20
667.798401
  0
VERTEX
  8
0
 10
29.388437
 20
668.835754
  0
VERTEX
  8
0
 10
28.859062
 20
669.883423
  0
VERTEX
  8
0
 10
28.185936
 20
671.294678
  0
VERTEX
  8
0
 10
27.393124
 20
673.078674
  0
VERTEX
  8
0
 10
26.649139
 20
674.880676
  0
VERTEX
  8
0
 10
25.948124
 20
676.696228
  0
VERTEX
  8
0
 10
25.284531
 20
678.520996
  0
VERTEX
  8
0
 10
24.529531
 20
680.714966
  0
VERTEX
  8
0
 10
23.810781
 20
682.898438
  0
VERTEX
  8
0
 10
21.887655
 20
688.875366
  0
VERTEX
  8
0
 10
20.884844
 20
691.814880
  0
VERTEX
  8
0
 10
20.102499
 20
693.953979
  0
VERTEX
  8
0
 10
19.435078
 20
695.671448
  0
VERTEX
  8
0
 10
18.665312
 20
697.526184
  0
VERTEX
  8
0
 10
18.017344
 20
698.976624
  0
VERTEX
  8
0
 10
17.382109
 20
700.292419
  0
VERTEX
  8
0
 10
16.753437
 20
701.485046
  0
VERTEX
  8
0
 10
16.122656
 20
702.570557
  0
VERTEX
  8
0
 10
15.481484
 20
703.564880
  0
VERTEX
  8
0
 10
14.821406
 20
704.483948
  0
VERTEX
  8
0
 10
14.019375
 20
705.480896
  0
VERTEX
  8
0
 10
13.202499
 20
706.405701
  0
VERTEX
  8
0
 10
11.380156
 20
708.363831
  0
VERTEX
  8
0
 10
10.943906
 20
708.865356
  0
VERTEX
  8
0
 10
10.638437
 20
709.249268
  0
VERTEX
  8
0
 10
10.243984
 20
709.823608
  0
VERTEX
  8
0
 10
9.965000
 20
710.326721
  0
VERTEX
  8
0
 10
9.677656
 20
710.995361
  0
VERTEX
  8
0
 10
9.468359
 20
711.634521
  0
VERTEX
  8
0
 10
9.241328
 20
712.534729
  0
VERTEX
  8
0
 10
9.067968
 20
713.411072
  0
VERTEX
  8
0
 10
8.883359
 20
714.607788
  0
VERTEX
  8
0
 10
8.753437
 20
715.718994
  0
VERTEX
  8
0
 10
8.649453
 20
716.927490
  0
VERTEX
  8
0
 10
8.574922
 20
718.227356
  0
VERTEX
  8
0
 10
8.539219
 20
719.328979
  0
VERTEX
  8
0
 10
8.525937
 20
720.775085
  0
VERTEX
  8
0
 10
8.543828
 20
722.276794
  0
VERTEX
  8
0
 10
8.599218
 20
724.116699
  0
VERTEX
  8
0
 10
8.683281
 20
725.957031
  0
VERTEX
  8
0
 10
8.787031
 20
727.754272
  0
VERTEX
  8
0
 10
9.082656
 20
731.841003
  0
VERTEX
  8
0
 10
9.527890
 20
736.847229
  0
SEQEND
  8
0
  0
POLYLINE
  8
0
  0
VERTEX
  8
0
 10
52.055466
 20
708.456787
  0
VERTEX
  8
0
 10
52.055466
 20
692.494568
  0
VERTEX
  8
0
 10
52.055466
 20
676.532410
  0
VERTEX
  8
0
 10
52.055466
 20
660.570129
  0
VERTEX
  8
0
 10
52.055466
 20
644.607849
  0
SEQEND
  8
0
  0
POLYLINE
  8
0
  0
VERTEX
  8
0
 10
20.895077
 20
700.427734
  0
VERTEX
  8
0
 10
21.628984
 20
697.641602
  0
VERTEX
  8
0
 10
22.150156
 20
695.761719
  0
VERTEX
  8
0
 10
22.630312
 20
694.153015
  0
VERTEX
  8
0
 10
23.131561
 20
692.622070
  0
VERTEX
  8
0
 10
23.852343
 20
690.613525
  0
VERTEX
  8
0
 10
25.922968
 20
685.118530
  0
VERTEX
  8
0
 10
28.267187
 20
678.635010
  0
VERTEX
  8
0
 10
29.190233
 20
676.190857
  0
VERTEX
  8
0
 10
29.738592
 20
674.845093
  0
VERTEX
  8
0
 10
30.296562
 20
673.573364
  0
VERTEX
  8
0
 10
30.871639
 20
672.351624
  0
VERTEX
  8
0
 10
31.471796
 20
671.152710
  0
VERTEX
  8
0
 10
32.292969
 20
669.601135
  0
VERTEX
  8
0
 10
33.181404
 20
668.003967
  0
VERTEX
  8
0
 10
33.916328
 20
666.753662
  0
VERTEX
  8
0
 10
34.685310
 20
665.526306
  0
VERTEX
  8
0
 10
35.484295
 20
664.348999
  0
VERTEX
  8
0
 10
36.309841
 20
663.246155
  0
VERTEX
  8
0
 10
37.163513
 20
662.216309
  0
VERTEX
  8
0
 10
38.179688
 20
661.107117
  0
VERTEX
  8
0
 10
39.382813
 20
659.915833
  0
VERTEX
  8
0
 10
40.658123
 20
658.754272
  0
VERTEX
  8
0
 10
41.851875
 20
657.760010
  0
VERTEX
  8
0
 10
42.938828
 20
656.947876
  0
VERTEX
  8
0
 10
43.899220
 20
656.313416
  0
VERTEX
  8
0
 10
44.388592
 20
656.022400
  0
VERTEX
  8
0
 10
44.883747
 20
655.751465
  0
VERTEX
  8
0
 10
45.721405
 20
655.346619
  0
VERTEX
  8
0
 10
46.230938
 20
655.131775
  0
VERTEX
  8
0
 10
46.745625
 20
654.937866
  0
VERTEX
  8
0
 10
47.614140
 20
654.661133
  0
VERTEX
  8
0
 10
48.141407
 20
654.522705
  0
VERTEX
  8
0
 10
48.673122
 20
654.405090
  0
VERTEX
  8
0
 10
49.208984
 20
654.307861
  0
VERTEX
  8
0
 10
49.748905
 20
654.231262
  0
VERTEX
  8
0
 10
50.292576
 20
654.174988
  0
VERTEX
  8
0
 10
50.840000
 20
654.138977
  0
VERTEX
  8
0
 10
51.390781
 20
654.122742
  0
VERTEX
  8
0
 10
52.130077
 20
654.130432
  0
VERTEX
  8
0
 10
52.687813
 20
654.157593
  0
VERTEX
  8
0
 10
53.435467
 20
654.221008
  0
VERTEX
  8
0
 10
53.998905
 20
654.288086
  0
VERTEX
  8
0
 10
54.753124
 20
654.402405
  0
VERTEX
  8
0
 10
55.510311
 20
654.543823
  0
VERTEX
  8
0
 10
56.269920
 20
654.710632
  0
VERTEX
  8
0
 10
57.030468
 20
654.901794
  0
VERTEX
  8
0
 10
57.787968
 20
655.116882
  0
VERTEX
  8
0
 10
58.537579
 20
655.356018
  0
VERTEX
  8
0
 10
59.091560
 20
655.551208
  0
VERTEX
  8
0
 10
59.815468
 20
655.832581
  0
VERTEX
  8
0
 10
60.344685
 20
656.059448
  0
VERTEX
  8
0
 10
61.028122
 20
656.383057
  0
VERTEX
  8
0
 10
61.521404
 20
656.641602
  0
VERTEX
  8
0
 10
61.995857
 20
656.913879
  0
VERTEX
  8
0
 10
62.450077
 20
657.199829
  0
VERTEX
  8
0
 10
62.885468
 20
657.499573
  0
VERTEX
  8
0
 10
63.303905
 20
657.813416
  0
VERTEX
  8
0
 10
64.098198
 20
658.483948
  0
VERTEX
  8
0
 10
64.848907
 20
659.213135
  0
VERTEX
  8
0
 10
65.690933
 20
660.139893
  0
VERTEX
  8
0
 10
66.638748
 20
661.302429
  0
VERTEX
  8
0
 10
67.463280
 20
662.408875
  0
VERTEX
  8
0
 10
68.272499
 20
663.594177
  0
VERTEX
  8
0
 10
68.945465
 20
664.669617
  0
VERTEX
  8
0
 10
69.591949
 20
665.796753
  0
VERTEX
  8
0
 10
70.105545
 20
666.773315
  0
VERTEX
  8
0
 10
70.688591
 20
667.981995
  0
VERTEX
  8
0
 10
71.234528
 20
669.217224
  0
VERTEX
  8
0
 10
71.742577
 20
670.464661
  0
VERTEX
  8
0
 10
72.286324
 20
671.916443
  0
VERTEX
  8
0
 10
72.776329
 20
673.342896
  0
VERTEX
  8
0
 10
73.338432
 20
675.123291
  0
VERTEX
  8
0
 10
74.467499
 20
678.885742
  0
VERTEX
  8
0
 10
75.807968
 20
683.062561
  0
VERTEX
  8
0
 10
76.372032
 20
684.987183
  0
VERTEX
  8
0
 10
76.692574
 20
686.205688
  0
VERTEX
  8
0
 10
77.001564
 20
687.459778
  0
VERTEX
  8
0
 10
78.376877
 20
693.310364
  0
VERTEX
  8
0
 10
79.505547
 20
697.800232
  0
SEQEND
  8
0
  0
POLYLINE
  8
0
  0
VERTEX
  8
0
 10
24.750937
 20
701.048096
  0
VERTEX
  8
0
 10
26.526093
 20
695.496765
  0
VERTEX
  8
0
 10
28.511719
 20
689.590210
  0
VERTEX
  8
0
 10
29.739531
 20
685.812927
  0
VERTEX
  8
0
 10
30.291639
 20
684.232666
  0
VERTEX
  8
0
 10
30.643202
 20
683.298340
  0
VERTEX
  8
0
 10
31.117655
 20
682.108215
  0
VERTEX
  8
0
 10
33.182579
 20
677.125549
  0
VERTEX
  8
0
 10
34.725311
 20
673.054199
  0
VERTEX
  8
0
 10
35.211563
 20
671.938660
  0
VERTEX
  8
0
 10
35.522732
 20
671.310303
  0
VERTEX
  8
0
 10
35.776875
 20
670.840454
  0
VERTEX
  8
0
 10
36.331017
 20
669.905823
  0
VERTEX
  8
0
 10
36.928123
 20
668.982849
  0
VERTEX
  8
0
 10
39.860390
 20
664.746155
  0
VERTEX
  8
0
 10
40.320156
 20
664.124817
  0
VERTEX
  8
0
 10
40.799374
 20
663.531250
  0
VERTEX
  8
0
 10
41.205780
 20
663.076965
  0
VERTEX
  8
0
 10
41.640156
 20
662.641418
  0
VERTEX
  8
0
 10
42.230858
 20
662.124207
  0
VERTEX
  8
0
 10
42.870544
 20
661.637329
  0
VERTEX
  8
0
 10
43.688438
 20
661.092712
  0
VERTEX
  8
0
 10
44.544765
 20
660.591309
  0
VERTEX
  8
0
 10
45.568748
 20
660.060242
  0
VERTEX
  8
0
 10
46.593594
 20
659.587036
  0
VERTEX
  8
0
 10
47.605545
 20
659.172791
  0
VERTEX
  8
0
 10
48.607578
 20
658.820679
  0
VERTEX
  8
0
 10
49.177109
 20
658.648743
  0
VERTEX
  8
0
 10
49.745388
 20
658.498840
  0
VERTEX
  8
0
 10
50.739063
 20
658.291321
  0
VERTEX
  8
0
 10
51.734295
 20
658.155823
  0
VERTEX
  8
0
 10
52.732498
 20
658.093445
  0
VERTEX
  8
0
 10
53.734451
 20
658.104126
  0
VERTEX
  8
0
 10
54.740936
 20
658.188354
  0
VERTEX
  8
0
 10
55.752655
 20
658.346375
  0
VERTEX
  8
0
 10
56.769138
 20
658.581726
  0
VERTEX
  8
0
 10
57.351406
 20
658.753601
  0
VERTEX
  8
0
 10
57.788513
 20
658.901367
  0
VERTEX
  8
0
 10
58.663124
 20
659.248169
  0
VERTEX
  8
0
 10
59.245937
 20
659.519043
  0
VERTEX
  8
0
 10
59.682655
 20
659.743958
  0
VERTEX
  8
0
 10
60.553749
 20
660.251953
  0
VERTEX
  8
0
 10
61.412029
 20
660.833801
  0
VERTEX
  8
0
 10
62.242264
 20
661.481995
  0
VERTEX
  8
0
 10
63.029060
 20
662.189148
  0
VERTEX
  8
0
 10
63.401325
 20
662.562317
  0
VERTEX
  8
0
 10
63.757030
 20
662.947571
  0
VERTEX
  8
0
 10
64.202026
 20
663.477966
  0
VERTEX
  8
0
 10
64.611015
 20
664.025940
  0
VERTEX
  8
0
 10
64.986328
 20
664.590759
  0
VERTEX
  8
0
 10
65.332031
 20
665.171936
  0
VERTEX
  8
0
 10
65.652031
 20
665.769043
  0
VERTEX
  8
0
 10
66.021873
 20
666.537109
  0
VERTEX
  8
0
 10
66.365387
 20
667.328552
  0
VERTEX
  8
0
 10
66.690308
 20
668.142578
  0
VERTEX
  8
0
 10
67.249611
 20
669.658447
  0
VERTEX
  8
0
 10
68.644920
 20
673.649658
  0
VERTEX
  8
0
 10
70.057343
 20
677.396790
  0
VERTEX
  8
0
 10
70.681091
 20
679.169312
  0
VERTEX
  8
0
 10
71.091721
 20
680.474915
  0
VERTEX
  8
0
 10
71.481949
 20
681.830688
  0
VERTEX
  8
0
 10
71.909843
 20
683.424255
  0
VERTEX
  8
0
 10
72.481323
 20
685.656555
  0
SEQEND
  8
0
  0
POLYLINE
  8
0
  0
VERTEX
  8
0
 10
64.897423
 20
694.289368
  0
VERTEX
  8
0
 10
67.570000
 20
692.776245
  0
VERTEX
  8
0
 10
67.548752
 20
694.331421
  0
VERTEX
  8
0
 10
67.527496
 20
695.886475
  0
VERTEX
  8
0
 10
64.897423
 20
694.289368
  0
SEQEND
  8
0
  0
POLYLINE
  8
0
  0
VERTEX
  8
0
 10
76.121719
 20
699.511780
  0
VERTEX
  8
0
 10
75.643356
 20
699.416626
  0
VERTEX
  8
0
 10
75.237808
 20
699.145691
  0
VERTEX
  8
0
 10
74.966873
 20
698.740234
  0
VERTEX
  8
0
 10
74.871719
 20
698.261780
  0
VERTEX
  8
0
 10
74.966873
 20
697.783508
  0
VERTEX
  8
0
 10
75.237808
 20
697.377930
  0
VERTEX
  8
0
 10
75.643356
 20
697.106934
  0
VERTEX
  8
0
 10
76.121719
 20
697.011780
  0
VERTEX
  8
0
 10
76.600075
 20
697.106934
  0
VERTEX
  8
0
 10
77.005623
 20
697.377930
  0
VERTEX
  8
0
 10
77.276558
 20
697.783508
  0
VERTEX
  8
0
 10
77.371719
 20
698.261780
  0
VERTEX
  8
0
 10
77.276558
 20
698.740234
  0
VERTEX
  8
0
 10
77.005623
 20
699.145691
  0
VERTEX
  8
0
 10
76.600075
 20
699.416626
  0
VERTEX
  8
0
 10
76.121719
 20
699.511780
  0
SEQEND
  8
0
  0
POLYLINE
  8
0
  0
VERTEX
  8
0
 10
74.183434
 20
693.249146
  0
VERTEX
  8
0
 10
73.705078
 20
693.153992
  0
VERTEX
  8
0
 10
73.299530
 20
692.883057
  0
VERTEX
  8
0
 10
73.028595
 20
692.477478
  0
VERTEX
  8
0
 10
72.933434
 20
691.999146
  0
VERTEX
  8
0
 10
73.028595
 20
691.520752
  0
VERTEX
  8
0
 10
73.299530
 20
691.115234
  0
VERTEX
  8
0
 10
73.705078
 20
690.844299
  0
VERTEX
  8
0
 10
74.183434
 20
690.749146
  0
VERTEX
  8
0
 10
74.661797
 20
690.844299
  0
VERTEX
  8
0
 10
75.067345
 20
691.115234
  0
VERTEX
  8
0
 10
75.338280
 20
691.520752
  0
VERTEX
  8
0
 10
75.433434
 20
691.999146
  0
VERTEX
  8
0
 10
75.338280
 20
692.477478
  0
VERTEX
  8
0
 10
75.067345
 20
692.883057
  0
VERTEX
  8
0
 10
74.661797
 20
693.153992
  0
VERTEX
  8
0
 10
74.183434
 20
693.249146
  0
SEQEND
  8
0
  0
POLYLINE
  8
0
  0
VERTEX
  8
0
 10
52.058826
 20
651.755371
  0
VERTEX
  8
0
 10
51.580467
 20
651.660217
  0
VERTEX
  8
0
 10
51.174919
 20
651.389282
  0
VERTEX
  8
0
 10
50.903984
 20
650.983765
  0
VERTEX
  8
0
 10
50.808826
 20
650.505371
  0
VERTEX
  8
0
 10
50.903984
 20
650.027039
  0
VERTEX
  8
0
 10
51.174919
 20
649.621460
  0
VERTEX
  8
0
 10
51.580467
 20
649.350525
  0
VERTEX
  8
0
 10
52.058826
 20
649.255371
  0
VERTEX
  8
0
 10
52.537186
 20
649.350525
  0
VERTEX
  8
0
 10
52.942734
 20
649.621460
  0
VERTEX
  8
0
 10
53.213669
 20
650.027039
  0
VERTEX
  8
0
 10
53.308826
 20
650.505371
  0
VERTEX
  8
0
 10
53.213669
 20
650.983765
  0
VERTEX
  8
0
 10
52.942734
 20
651.389282
  0
VERTEX
  8
0
 10
52.537186
 20
651.660217
  0
VERTEX
  8
0
 10
52.058826
 20
651.755371
  0
SEQEND
  8
0
  0
POLYLINE
  8
0
  0
VERTEX
  8
0
 10
18.844063
 20
715.562256
  0
VERTEX
  8
0
 10
18.365704
 20
715.467102
  0
VERTEX
  8
0
 10
17.960155
 20
715.196167
  0
VERTEX
  8
0
 10
17.689219
 20
714.790588
  0
VERTEX
  8
0
 10
17.594063
 20
714.312256
  0
VERTEX
  8
0
 10
17.689219
 20
713.833862
  0
VERTEX
  8
0
 10
17.960155
 20
713.428345
  0
VERTEX
  8
0
 10
18.365704
 20
713.157410
  0
VERTEX
  8
0
 10
18.844063
 20
713.062256
  0
VERTEX
  8
0
 10
19.322344
 20
713.157410
  0
VERTEX
  8
0
 10
19.727890
 20
713.428345
  0
VERTEX
  8
0
 10
19.998905
 20
713.833862
  0
VERTEX
  8
0
 10
20.094063
 20
714.312256
  0
VERTEX
  8
0
 10
19.998905
 20
714.790588
  0
VERTEX
  8
0
 10
19.727890
 20
715.196167
  0
VERTEX
  8
0
 10
19.322344
 20
715.467102
  0
VERTEX
  8
0
 10
18.844063
 20
715.562256
  0
SEQEND
  8
0
  0
POLYLINE
  8
0
  0
VERTEX
  8
0
 10
31.887733
 20
726.230469
  0
VERTEX
  8
0
 10
31.409374
 20
726.135315
  0
VERTEX
  8
0
 10
31.003828
 20
725.864380
  0
VERTEX
  8
0
 10
30.732889
 20
725.458801
  0
VERTEX
  8
0
 10
30.637733
 20
724.980469
  0
VERTEX
  8
0
 10
30.732889
 20
724.502075
  0
VERTEX
  8
0
 10
31.003828
 20
724.096558
  0
VERTEX
  8
0
 10
31.409374
 20
723.825623
  0
VERTEX
  8
0
 10
31.887733
 20
723.730469
  0
VERTEX
  8
0
 10
32.366093
 20
723.825623
  0
VERTEX
  8
0
 10
32.771641
 20
724.096558
  0
VERTEX
  8
0
 10
33.042576
 20
724.502075
  0
VERTEX
  8
0
 10
33.137733
 20
724.980469
  0
VERTEX
  8
0
 10
33.042576
 20
725.458801
  0
VERTEX
  8
0
 10
32.771641
 20
725.864380
  0
VERTEX
  8
0
 10
32.366093
 20
726.135315
  0
VERTEX
  8
0
 10
31.887733
 20
726.230469
  0
SEQEND
  8
0
  0
POLYLINE
  8
0
  0
VERTEX
  8
0
 10
84.791641
 20
715.517456
  0
VERTEX
  8
0
 10
84.313278
 20
715.422302
  0
VERTEX
  8
0
 10
83.907730
 20
715.151367
  0
VERTEX
  8
0
 10
83.636795
 20
714.745850
  0
VERTEX
  8
0
 10
83.541641
 20
714.267456
  0
VERTEX
  8
0
 10
83.636795
 20
713.789124
  0
VERTEX
  8
0
 10
83.907730
 20
713.383667
  0
VERTEX
  8
0
 10
84.313278
 20
713.112610
  0
VERTEX
  8
0
 10
84.791641
 20
713.017456
  0
VERTEX
  8
0
 10
85.269997
 20
713.112610
  0
VERTEX
  8
0
 10
85.675545
 20
713.383667
  0
VERTEX
  8
0
 10
85.946480
 20
713.789124
  0
VERTEX
  8
0
 10
86.041641
 20
714.267456
  0
VERTEX
  8
0
 10
85.946480
 20
714.745850
  0
VERTEX
  8
0
 10
85.675545
 20
715.151367
  0
VERTEX
  8
0
 10
85.269997
 20
715.422302
  0
VERTEX
  8
0
 10
84.791641
 20
715.517456
  0
SEQEND
  8
0
  0
POLYLINE
  8
0
  0
VERTEX
  8
0
 10
70.496948
 20
726.768372
  0
VERTEX
  8
0
 10
70.018593
 20
726.673157
  0
VERTEX
  8
0
 10
69.613121
 20
726.402222
  0
VERTEX
  8
0
 10
69.342110
 20
725.996704
  0
VERTEX
  8
0
 10
69.246948
 20
725.518372
  0
VERTEX
  8
0
 10
69.342110
 20
725.039978
  0
VERTEX
  8
0
 10
69.613121
 20
724.634460
  0
VERTEX
  8
0
 10
70.018593
 20
724.363525
  0
VERTEX
  8
0
 10
70.496948
 20
724.268372
  0
VERTEX
  8
0
 10
70.975311
 20
724.363525
  0
VERTEX
  8
0
 10
71.380859
 20
724.634460
  0
VERTEX
  8
0
 10
71.651794
 20
725.039978
  0
VERTEX
  8
0
 10
71.746948
 20
725.518372
  0
VERTEX
  8
0
 10
71.651794
 20
725.996704
  0
VERTEX
  8
0
 10
71.380859
 20
726.402222
  0
VERTEX
  8
0
 10
70.975311
 20
726.673157
  0
VERTEX
  8
0
 10
70.496948
 20
726.768372
  0
SEQEND
  8
0
  0
POLYLINE
  8
0
  0
VERTEX
  8
0
 10
52.210232
 20
706.899048
  0
VERTEX
  8
0
 10
51.827576
 20
706.822937
  0
VERTEX
  8
0
 10
51.503124
 20
706.606140
  0
VERTEX
  8
0
 10
51.286404
 20
706.281799
  0
VERTEX
  8
0
 10
51.210232
 20
705.899048
  0
VERTEX
  8
0
 10
51.286404
 20
705.516418
  0
VERTEX
  8
0
 10
51.503124
 20
705.191956
  0
VERTEX
  8
0
 10
51.827576
 20
704.975220
  0
VERTEX
  8
0
 10
52.210232
 20
704.899048
  0
VERTEX
  8
0
 10
52.592968
 20
704.975220
  0
VERTEX
  8
0
 10
52.917343
 20
705.191956
  0
VERTEX
  8
0
 10
53.134140
 20
705.516418
  0
VERTEX
  8
0
 10
53.210232
 20
705.899048
  0
VERTEX
  8
0
 10
53.134140
 20
706.281799
  0
VERTEX
  8
0
 10
52.917343
 20
706.606140
  0
VERTEX
  8
0
 10
52.592968
 20
706.822937
  0
VERTEX
  8
0
 10
52.210232
 20
706.899048
  0
SEQEND
  8
0
  0
ENDSEC
  0
EOF
