  0
SECTION
  2
HEADER
  9
$ACADVER
  1
AC1006
  9
$EXTMIN
 10
0.999922
 20
0.999844
  9
$EXTMAX
 10
298.478912
 20
872.124023
  0
ENDSEC
  0
SECTION
  2
ENTITIES
  0
POLYLINE
  8
0
  0
VERTEX
  8
0
 10
116.639839
 20
1.000000
  0
VERTEX
  8
0
 10
103.248047
 20
5.839766
  0
VERTEX
  8
0
 10
93.616402
 20
9.340781
  0
VERTEX
  8
0
 10
85.612183
 20
12.278828
  0
VERTEX
  8
0
 10
78.337967
 20
14.988203
  0
VERTEX
  8
0
 10
70.442032
 20
17.983515
  0
VERTEX
  8
0
 10
63.417500
 20
20.699141
  0
VERTEX
  8
0
 10
56.497654
 20
23.426561
  0
VERTEX
  8
0
 10
51.190079
 20
25.580313
  0
VERTEX
  8
0
 10
50.945625
 20
27.197266
  0
VERTEX
  8
0
 10
47.917656
 20
27.117500
  0
VERTEX
  8
0
 10
43.294216
 20
29.295624
  0
VERTEX
  8
0
 10
41.278904
 20
30.278749
  0
VERTEX
  8
0
 10
39.572655
 20
31.137733
  0
VERTEX
  8
0
 10
37.835388
 20
32.042419
  0
VERTEX
  8
0
 10
36.418983
 20
32.805077
  0
VERTEX
  8
0
 10
34.615936
 20
33.811874
  0
VERTEX
  8
0
 10
33.151485
 20
34.661171
  0
VERTEX
  8
0
 10
31.671328
 20
35.550701
  0
VERTEX
  8
0
 10
30.178905
 20
36.481407
  0
VERTEX
  8
0
 10
28.677813
 20
37.454063
  0
VERTEX
  8
0
 10
27.171640
 20
38.469765
  0
VERTEX
  8
0
 10
25.663828
 20
39.529530
  0
VERTEX
  8
0
 10
24.158281
 20
40.633984
  0
VERTEX
  8
0
 10
22.661249
 20
41.780468
  0
VERTEX
  8
0
 10
21.548515
 20
42.665546
  0
VERTEX
  8
0
 10
20.084297
 20
43.875858
  0
VERTEX
  8
0
 10
18.649374
 20
45.117107
  0
VERTEX
  8
0
 10
17.251093
 20
46.384998
  0
VERTEX
  8
0
 10
16.231171
 20
47.350937
  0
VERTEX
  8
0
 10
14.915312
 20
48.655701
  0
VERTEX
  8
0
 10
13.965625
 20
49.644531
  0
VERTEX
  8
0
 10
13.051171
 20
50.640232
  0
VERTEX
  8
0
 10
11.888281
 20
51.975235
  0
VERTEX
  8
0
 10
11.059531
 20
52.979374
  0
VERTEX
  8
0
 10
10.013906
 20
54.318359
  0
VERTEX
  8
0
 10
9.275156
 20
55.320076
  0
VERTEX
  8
0
 10
8.352265
 20
56.648594
  0
VERTEX
  8
0
 10
7.707656
 20
57.637188
  0
VERTEX
  8
0
 10
6.913125
 20
58.940937
  0
VERTEX
  8
0
 10
6.194531
 20
60.223984
  0
VERTEX
  8
0
 10
5.552031
 20
61.484375
  0
VERTEX
  8
0
 10
4.979609
 20
62.730469
  0
VERTEX
  8
0
 10
4.469766
 20
63.973278
  0
VERTEX
  8
0
 10
4.014922
 20
65.224060
  0
VERTEX
  8
0
 10
3.607578
 20
66.493828
  0
VERTEX
  8
0
 10
3.240000
 20
67.793671
  0
VERTEX
  8
0
 10
2.904687
 20
69.134689
  0
VERTEX
  8
0
 10
2.594219
 20
70.527885
  0
VERTEX
  8
0
 10
2.232812
 20
72.352028
  0
VERTEX
  8
0
 10
1.905000
 20
74.249527
  0
VERTEX
  8
0
 10
1.617500
 20
76.195236
  0
VERTEX
  8
0
 10
1.376797
 20
78.163437
  0
VERTEX
  8
0
 10
1.222656
 20
79.737183
  0
VERTEX
  8
0
 10
1.083437
 20
81.681793
  0
VERTEX
  8
0
 10
1.019141
 20
83.203827
  0
VERTEX
  8
0
 10
1.000000
 20
84.691017
  0
VERTEX
  8
0
 10
1.028203
 20
86.157814
  0
VERTEX
  8
0
 10
1.106172
 20
87.620308
  0
VERTEX
  8
0
 10
1.236016
 20
89.095154
  0
VERTEX
  8
0
 10
1.419922
 20
90.598595
  0
VERTEX
  8
0
 10
1.594766
 20
91.754761
  0
VERTEX
  8
0
 10
1.802187
 20
92.943123
  0
VERTEX
  8
0
 10
2.131094
 20
94.589531
  0
VERTEX
  8
0
 10
2.521328
 20
96.318985
  0
VERTEX
  8
0
 10
2.969609
 20
98.119141
  0
VERTEX
  8
0
 10
3.469922
 20
99.964455
  0
VERTEX
  8
0
 10
4.016641
 20
101.829529
  0
VERTEX
  8
0
 10
4.603594
 20
103.688828
  0
VERTEX
  8
0
 10
5.066719
 20
105.064056
  0
VERTEX
  8
0
 10
5.710078
 20
106.851639
  0
VERTEX
  8
0
 10
6.208828
 20
108.143829
  0
VERTEX
  8
0
 10
6.718594
 20
109.382416
  0
VERTEX
  8
0
 10
7.413047
 20
110.939056
  0
VERTEX
  8
0
 10
7.946640
 20
112.041870
  0
VERTEX
  8
0
 10
8.493360
 20
113.097183
  0
VERTEX
  8
0
 10
9.055156
 20
114.112183
  0
VERTEX
  8
0
 10
9.633985
 20
115.094376
  0
VERTEX
  8
0
 10
10.231563
 20
116.050858
  0
VERTEX
  8
0
 10
10.850078
 20
116.988747
  0
VERTEX
  8
0
 10
11.491250
 20
117.915466
  0
VERTEX
  8
0
 10
12.385077
 20
119.146088
  0
VERTEX
  8
0
 10
13.327266
 20
120.386719
  0
VERTEX
  8
0
 10
14.321094
 20
121.647110
  0
VERTEX
  8
0
 10
15.367188
 20
122.922890
  0
VERTEX
  8
0
 10
16.186171
 20
123.886246
  0
VERTEX
  8
0
 10
17.324375
 20
125.174370
  0
VERTEX
  8
0
 10
18.212656
 20
126.140076
  0
VERTEX
  8
0
 10
19.443594
 20
127.422188
  0
VERTEX
  8
0
 10
20.401796
 20
128.376328
  0
VERTEX
  8
0
 10
21.390078
 20
129.321243
  0
VERTEX
  8
0
 10
22.408749
 20
130.254608
  0
VERTEX
  8
0
 10
23.104687
 20
130.869141
  0
VERTEX
  8
0
 10
24.174295
 20
131.779999
  0
VERTEX
  8
0
 10
26.027422
 20
133.271561
  0
VERTEX
  8
0
 10
27.182577
 20
134.152649
  0
VERTEX
  8
0
 10
28.371094
 20
135.024765
  0
VERTEX
  8
0
 10
29.593594
 20
135.889374
  0
VERTEX
  8
0
 10
30.850859
 20
136.747498
  0
VERTEX
  8
0
 10
32.143436
 20
137.600540
  0
VERTEX
  8
0
 10
33.472107
 20
138.449600
  0
VERTEX
  8
0
 10
34.837498
 20
139.296097
  0
VERTEX
  8
0
 10
36.240154
 20
140.141006
  0
VERTEX
  8
0
 10
39.147968
 20
141.824844
  0
VERTEX
  8
0
 10
40.645935
 20
142.661865
  0
VERTEX
  8
0
 10
42.681248
 20
143.770782
  0
VERTEX
  8
0
 10
44.752186
 20
144.869217
  0
VERTEX
  8
0
 10
46.850391
 20
145.955002
  0
VERTEX
  8
0
 10
48.967499
 20
147.026016
  0
VERTEX
  8
0
 10
51.627888
 20
148.340073
  0
VERTEX
  8
0
 10
53.762344
 20
149.370850
  0
VERTEX
  8
0
 10
55.919373
 20
150.389999
  0
VERTEX
  8
0
 10
59.816563
 20
152.171249
  0
VERTEX
  8
0
 10
63.972889
 20
153.988663
  0
VERTEX
  8
0
 10
68.509140
 20
155.887726
  0
VERTEX
  8
0
 10
73.534996
 20
157.909760
  0
VERTEX
  8
0
 10
78.976715
 20
160.023743
  0
VERTEX
  8
0
 10
84.607964
 20
162.138748
  0
VERTEX
  8
0
 10
90.198044
 20
164.161957
  0
VERTEX
  8
0
 10
93.284996
 20
165.241241
  0
VERTEX
  8
0
 10
95.516090
 20
166.000778
  0
VERTEX
  8
0
 10
97.659218
 20
166.711395
  0
VERTEX
  8
0
 10
100.388046
 20
167.587891
  0
VERTEX
  8
0
 10
104.867264
 20
168.958511
  0
VERTEX
  8
0
 10
109.646248
 20
170.337418
  0
VERTEX
  8
0
 10
115.350700
 20
171.912567
  0
VERTEX
  8
0
 10
117.734062
 20
170.357727
  0
VERTEX
  8
0
 10
119.000542
 20
169.555145
  0
VERTEX
  8
0
 10
119.853981
 20
169.067413
  0
VERTEX
  8
0
 10
120.765388
 20
168.616791
  0
VERTEX
  8
0
 10
121.491325
 20
168.293045
  0
VERTEX
  8
0
 10
122.176170
 20
168.009293
  0
VERTEX
  8
0
 10
122.878906
 20
167.739761
  0
VERTEX
  8
0
 10
123.572105
 20
167.498749
  0
VERTEX
  8
0
 10
124.234451
 20
167.296555
  0
VERTEX
  8
0
 10
124.867889
 20
167.127655
  0
VERTEX
  8
0
 10
126.421013
 20
166.781097
  0
VERTEX
  8
0
 10
123.233360
 20
150.865784
  0
VERTEX
  8
0
 10
120.045776
 20
134.950470
  0
VERTEX
  8
0
 10
112.811874
 20
135.188828
  0
VERTEX
  8
0
 10
108.088593
 20
135.296097
  0
VERTEX
  8
0
 10
106.059135
 20
135.318283
  0
VERTEX
  8
0
 10
104.121796
 20
135.319687
  0
VERTEX
  8
0
 10
102.282730
 20
135.298828
  0
VERTEX
  8
0
 10
100.546013
 20
135.255081
  0
VERTEX
  8
0
 10
98.916092
 20
135.187347
  0
VERTEX
  8
0
 10
97.397110
 20
135.095001
  0
VERTEX
  8
0
 10
95.993279
 20
134.977036
  0
VERTEX
  8
0
 10
94.708672
 20
134.832809
  0
VERTEX
  8
0
 10
93.544296
 20
134.665771
  0
VERTEX
  8
0
 10
92.303673
 20
134.444366
  0
VERTEX
  8
0
 10
91.231407
 20
134.210861
  0
VERTEX
  8
0
 10
90.190079
 20
133.938202
  0
VERTEX
  8
0
 10
89.370155
 20
133.682114
  0
VERTEX
  8
0
 10
88.741089
 20
133.438431
  0
VERTEX
  8
0
 10
88.296013
 20
133.206879
  0
VERTEX
  8
0
 10
87.883904
 20
132.923203
  0
VERTEX
  8
0
 10
87.528748
 20
132.625381
  0
VERTEX
  8
0
 10
87.044220
 20
132.168823
  0
VERTEX
  8
0
 10
83.941246
 20
129.022568
  0
VERTEX
  8
0
 10
83.303749
 20
128.401566
  0
VERTEX
  8
0
 10
82.730545
 20
127.875702
  0
VERTEX
  8
0
 10
82.110313
 20
127.363670
  0
VERTEX
  8
0
 10
81.588745
 20
126.992188
  0
VERTEX
  8
0
 10
81.047340
 20
126.664764
  0
VERTEX
  8
0
 10
80.458672
 20
126.364449
  0
VERTEX
  8
0
 10
79.687889
 20
126.029449
  0
VERTEX
  8
0
 10
78.700470
 20
125.652344
  0
VERTEX
  8
0
 10
73.041405
 20
123.654137
  0
VERTEX
  8
0
 10
70.011955
 20
122.613983
  0
VERTEX
  8
0
 10
62.304062
 20
120.036797
  0
VERTEX
  8
0
 10
60.130390
 20
119.277344
  0
VERTEX
  8
0
 10
58.112732
 20
118.536400
  0
VERTEX
  8
0
 10
56.021091
 20
117.705856
  0
VERTEX
  8
0
 10
54.920078
 20
117.234375
  0
VERTEX
  8
0
 10
53.860935
 20
116.754921
  0
VERTEX
  8
0
 10
52.822266
 20
116.259216
  0
VERTEX
  8
0
 10
51.782578
 20
115.739059
  0
VERTEX
  8
0
 10
49.614529
 20
114.592735
  0
VERTEX
  8
0
 10
48.150780
 20
113.785782
  0
VERTEX
  8
0
 10
46.621014
 20
112.917107
  0
VERTEX
  8
0
 10
45.061172
 20
112.001404
  0
VERTEX
  8
0
 10
43.815544
 20
111.244919
  0
VERTEX
  8
0
 10
42.592186
 20
110.475548
  0
VERTEX
  8
0
 10
41.409061
 20
109.700775
  0
VERTEX
  8
0
 10
40.284920
 20
108.928360
  0
VERTEX
  8
0
 10
39.236248
 20
108.165001
  0
VERTEX
  8
0
 10
38.501247
 20
107.599449
  0
VERTEX
  8
0
 10
37.586250
 20
106.853043
  0
VERTEX
  8
0
 10
36.740936
 20
106.113594
  0
VERTEX
  8
0
 10
35.960545
 20
105.379448
  0
VERTEX
  8
0
 10
35.240234
 20
104.648590
  0
VERTEX
  8
0
 10
34.575314
 20
103.919136
  0
VERTEX
  8
0
 10
33.960701
 20
103.189369
  0
VERTEX
  8
0
 10
33.256329
 20
102.273827
  0
VERTEX
  8
0
 10
32.614452
 20
101.354607
  0
VERTEX
  8
0
 10
32.026875
 20
100.434296
  0
VERTEX
  8
0
 10
31.381952
 20
99.331642
  0
VERTEX
  8
0
 10
30.788984
 20
98.234917
  0
VERTEX
  8
0
 10
29.966171
 20
96.609688
  0
VERTEX
  8
0
 10
29.369219
 20
95.343201
  0
VERTEX
  8
0
 10
28.975937
 20
94.399063
  0
VERTEX
  8
0
 10
28.619062
 20
93.392418
  0
VERTEX
  8
0
 10
28.364843
 20
92.524841
  0
VERTEX
  8
0
 10
28.142813
 20
91.587265
  0
VERTEX
  8
0
 10
27.956953
 20
90.566635
  0
VERTEX
  8
0
 10
27.843515
 20
89.739296
  0
VERTEX
  8
0
 10
27.727577
 20
88.560471
  0
VERTEX
  8
0
 10
27.650625
 20
87.315857
  0
VERTEX
  8
0
 10
27.611328
 20
86.028046
  0
VERTEX
  8
0
 10
27.608124
 20
84.719604
  0
VERTEX
  8
0
 10
27.628672
 20
83.738434
  0
VERTEX
  8
0
 10
27.685469
 20
82.448517
  0
VERTEX
  8
0
 10
27.774609
 20
81.200386
  0
VERTEX
  8
0
 10
27.861874
 20
80.305229
  0
VERTEX
  8
0
 10
27.965937
 20
79.453590
  0
VERTEX
  8
0
 10
28.130703
 20
78.383591
  0
VERTEX
  8
0
 10
28.273750
 20
77.625778
  0
VERTEX
  8
0
 10
28.490078
 20
76.668594
  0
VERTEX
  8
0
 10
28.671562
 20
75.986404
  0
VERTEX
  8
0
 10
28.938906
 20
75.117889
  0
VERTEX
  8
0
 10
29.234999
 20
74.289139
  0
VERTEX
  8
0
 10
29.559921
 20
73.492188
  0
VERTEX
  8
0
 10
29.913124
 20
72.719215
  0
VERTEX
  8
0
 10
30.294453
 20
71.964531
  0
VERTEX
  8
0
 10
30.702499
 20
71.226563
  0
VERTEX
  8
0
 10
31.136406
 20
70.504684
  0
VERTEX
  8
0
 10
31.594843
 20
69.797813
  0
VERTEX
  8
0
 10
32.200779
 20
68.934059
  0
VERTEX
  8
0
 10
32.841091
 20
68.090546
  0
VERTEX
  8
0
 10
33.513592
 20
67.265701
  0
VERTEX
  8
0
 10
34.217579
 20
66.457657
  0
VERTEX
  8
0
 10
34.807266
 20
65.822731
  0
VERTEX
  8
0
 10
35.583904
 20
65.042656
  0
VERTEX
  8
0
 10
36.241405
 20
64.428825
  0
VERTEX
  8
0
 10
36.935154
 20
63.823513
  0
VERTEX
  8
0
 10
37.668983
 20
63.226406
  0
VERTEX
  8
0
 10
38.446716
 20
62.636951
  0
VERTEX
  8
0
 10
39.272186
 20
62.054688
  0
VERTEX
  8
0
 10
40.146484
 20
61.480000
  0
VERTEX
  8
0
 10
41.068592
 20
60.914139
  0
VERTEX
  8
0
 10
42.037498
 20
60.358280
  0
VERTEX
  8
0
 10
43.052029
 20
59.813904
  0
VERTEX
  8
0
 10
44.110859
 20
59.281952
  0
VERTEX
  8
0
 10
45.212891
 20
58.763985
  0
VERTEX
  8
0
 10
46.356953
 20
58.261013
  0
VERTEX
  8
0
 10
47.541874
 20
57.774372
  0
VERTEX
  8
0
 10
48.764530
 20
57.304295
  0
VERTEX
  8
0
 10
50.020000
 20
56.850235
  0
VERTEX
  8
0
 10
51.303204
 20
56.411327
  0
VERTEX
  8
0
 10
52.938591
 20
55.882969
  0
VERTEX
  8
0
 10
55.940937
 20
54.984608
  0
VERTEX
  8
0
 10
59.639294
 20
53.969139
  0
VERTEX
  8
0
 10
63.252655
 20
53.041016
  0
VERTEX
  8
0
 10
70.463280
 20
51.261482
  0
VERTEX
  8
0
 10
73.312111
 20
50.509373
  0
VERTEX
  8
0
 10
74.830856
 20
50.064453
  0
VERTEX
  8
0
 10
76.264923
 20
49.597420
  0
VERTEX
  8
0
 10
77.430702
 20
49.165390
  0
VERTEX
  8
0
 10
78.536949
 20
48.690468
  0
VERTEX
  8
0
 10
79.240860
 20
48.343670
  0
VERTEX
  8
0
 10
79.750854
 20
48.064766
  0
VERTEX
  8
0
 10
80.245468
 20
47.768124
  0
VERTEX
  8
0
 10
80.724449
 20
47.452106
  0
VERTEX
  8
0
 10
81.187729
 20
47.114841
  0
VERTEX
  8
0
 10
81.635544
 20
46.756718
  0
VERTEX
  8
0
 10
82.068825
 20
46.380077
  0
VERTEX
  8
0
 10
82.488594
 20
45.987888
  0
VERTEX
  8
0
 10
83.160858
 20
45.307266
  0
VERTEX
  8
0
 10
83.927811
 20
44.462029
  0
VERTEX
  8
0
 10
86.684135
 20
41.195156
  0
VERTEX
  8
0
 10
87.999687
 20
39.681091
  0
VERTEX
  8
0
 10
88.724922
 20
38.896561
  0
VERTEX
  8
0
 10
89.307343
 20
38.343513
  0
VERTEX
  8
0
 10
89.640778
 20
38.078438
  0
VERTEX
  8
0
 10
89.996796
 20
37.834061
  0
VERTEX
  8
0
 10
90.478043
 20
37.543594
  0
VERTEX
  8
0
 10
90.887421
 20
37.321014
  0
VERTEX
  8
0
 10
91.366089
 20
37.090313
  0
VERTEX
  8
0
 10
91.807579
 20
36.903748
  0
VERTEX
  8
0
 10
92.726326
 20
36.582264
  0
VERTEX
  8
0
 10
93.512810
 20
36.363827
  0
VERTEX
  8
0
 10
94.422104
 20
36.161171
  0
VERTEX
  8
0
 10
95.458359
 20
35.979298
  0
VERTEX
  8
0
 10
96.368355
 20
35.850937
  0
VERTEX
  8
0
 10
97.592026
 20
35.714764
  0
VERTEX
  8
0
 10
98.628357
 20
35.627186
  0
VERTEX
  8
0
 10
99.980545
 20
35.547031
  0
VERTEX
  8
0
 10
101.096329
 20
35.508358
  0
VERTEX
  8
0
 10
102.805000
 20
35.496639
  0
VERTEX
  8
0
 10
104.537422
 20
35.536560
  0
VERTEX
  8
0
 10
106.286797
 20
35.612343
  0
VERTEX
  8
0
 10
110.696167
 20
35.846172
  0
VERTEX
  8
0
 10
113.339142
 20
35.935310
  0
VERTEX
  8
0
 10
116.555077
 20
35.966091
  0
VERTEX
  8
0
 10
120.926407
 20
35.932735
  0
VERTEX
  8
0
 10
124.253822
 20
20.899687
  0
VERTEX
  8
0
 10
127.581322
 20
5.866562
  0
VERTEX
  8
0
 10
125.349686
 20
5.069219
  0
VERTEX
  8
0
 10
123.888985
 20
4.526172
  0
VERTEX
  8
0
 10
122.656715
 20
4.039218
  0
VERTEX
  8
0
 10
121.521484
 20
3.555234
  0
VERTEX
  8
0
 10
120.459839
 20
3.064609
  0
VERTEX
  8
0
 10
119.347809
 20
2.506094
  0
VERTEX
  8
0
 10
118.173279
 20
1.870625
  0
VERTEX
  8
0
 10
116.639839
 20
1.000000
  0
SEQEND
  8
0
  0
POLYLINE
  8
0
  0
VERTEX
  8
0
 10
97.380074
 20
30.816717
  0
VERTEX
  8
0
 10
96.354919
 20
28.805546
  0
VERTEX
  8
0
 10
95.511017
 20
27.259844
  0
VERTEX
  8
0
 10
94.673904
 20
25.870781
  0
VERTEX
  8
0
 10
93.851089
 20
24.639999
  0
VERTEX
  8
0
 10
92.744919
 20
23.122108
  0
VERTEX
  8
0
 10
91.367264
 20
21.360312
  0
VERTEX
  8
0
 10
89.779922
 20
19.422812
  0
VERTEX
  8
0
 10
87.562500
 20
16.798437
  0
SEQEND
  8
0
  0
POLYLINE
  8
0
  0
VERTEX
  8
0
 10
73.958199
 20
22.840624
  0
VERTEX
  8
0
 10
72.810310
 20
19.628750
  0
SEQEND
  8
0
  0
POLYLINE
  8
0
  0
VERTEX
  8
0
 10
27.571796
 20
85.492264
  0
VERTEX
  8
0
 10
14.321875
 20
85.261017
  0
VERTEX
  8
0
 10
1.071953
 20
85.029686
  0
SEQEND
  8
0
  0
POLYLINE
  8
0
  0
VERTEX
  8
0
 10
85.653908
 20
155.755234
  0
VERTEX
  8
0
 10
87.396248
 20
153.647812
  0
VERTEX
  8
0
 10
88.639061
 20
152.113739
  0
VERTEX
  8
0
 10
89.657341
 20
150.813049
  0
VERTEX
  8
0
 10
90.564529
 20
149.593201
  0
VERTEX
  8
0
 10
91.750542
 20
147.884445
  0
VERTEX
  8
0
 10
94.080391
 20
144.352188
  0
VERTEX
  8
0
 10
96.297653
 20
141.036713
  0
SEQEND
  8
0
  0
POLYLINE
  8
0
  0
VERTEX
  8
0
 10
77.752182
 20
153.166641
  0
VERTEX
  8
0
 10
76.632889
 20
156.414993
  0
SEQEND
  8
0
  0
POLYLINE
  8
0
  0
VERTEX
  8
0
 10
98.947495
 20
753.168213
  0
VERTEX
  8
0
 10
99.821167
 20
765.531677
  0
VERTEX
  8
0
 10
100.910072
 20
780.738831
  0
VERTEX
  8
0
 10
103.731796
 20
780.940918
  0
VERTEX
  8
0
 10
104.051010
 20
785.605469
  0
VERTEX
  8
0
 10
104.669998
 20
794.039185
  0
VERTEX
  8
0
 10
104.922188
 20
797.731995
  0
VERTEX
  8
0
 10
105.125000
 20
801.455688
  0
VERTEX
  8
0
 10
105.179688
 20
803.010132
  0
VERTEX
  8
0
 10
105.203667
 20
804.260620
  0
VERTEX
  8
0
 10
105.198746
 20
806.004517
  0
VERTEX
  8
0
 10
105.152809
 20
807.585815
  0
VERTEX
  8
0
 10
105.056244
 20
809.285950
  0
VERTEX
  8
0
 10
104.930000
 20
810.724182
  0
VERTEX
  8
0
 10
104.795311
 20
811.750061
  0
VERTEX
  8
0
 10
104.636948
 20
812.598022
  0
VERTEX
  8
0
 10
104.399841
 20
813.532471
  0
VERTEX
  8
0
 10
104.125389
 20
814.374817
  0
VERTEX
  8
0
 10
103.920235
 20
814.904663
  0
VERTEX
  8
0
 10
103.736328
 20
815.328552
  0
VERTEX
  8
0
 10
103.480469
 20
815.856567
  0
VERTEX
  8
0
 10
103.254059
 20
816.275757
  0
VERTEX
  8
0
 10
102.942734
 20
816.794128
  0
VERTEX
  8
0
 10
102.670151
 20
817.202454
  0
VERTEX
  8
0
 10
102.375778
 20
817.603394
  0
VERTEX
  8
0
 10
102.058983
 20
817.994934
  0
VERTEX
  8
0
 10
101.719063
 20
818.375305
  0
VERTEX
  8
0
 10
101.355385
 20
818.742737
  0
VERTEX
  8
0
 10
100.967110
 20
819.095276
  0
VERTEX
  8
0
 10
100.659454
 20
819.348938
  0
VERTEX
  8
0
 10
100.337265
 20
819.592468
  0
VERTEX
  8
0
 10
99.885078
 20
819.900146
  0
VERTEX
  8
0
 10
99.410156
 20
820.187927
  0
VERTEX
  8
0
 10
98.917580
 20
820.455627
  0
VERTEX
  8
0
 10
98.412262
 20
820.702942
  0
VERTEX
  8
0
 10
97.899216
 20
820.929993
  0
VERTEX
  8
0
 10
97.383354
 20
821.136475
  0
VERTEX
  8
0
 10
96.742188
 20
821.365479
  0
VERTEX
  8
0
 10
96.114296
 20
821.561707
  0
VERTEX
  8
0
 10
95.622887
 20
821.695618
  0
VERTEX
  8
0
 10
94.629532
 20
821.907410
  0
VERTEX
  8
0
 10
93.550392
 20
822.054688
  0
VERTEX
  8
0
 10
92.299606
 20
822.149536
  0
VERTEX
  8
0
 10
90.798592
 20
822.203552
  0
VERTEX
  8
0
 10
88.839684
 20
822.224060
  0
VERTEX
  8
0
 10
86.000702
 20
822.192688
  0
VERTEX
  8
0
 10
83.179764
 20
822.104614
  0
VERTEX
  8
0
 10
80.676872
 20
821.985352
  0
VERTEX
  8
0
 10
73.553276
 20
821.590820
  0
VERTEX
  8
0
 10
69.231323
 20
821.412781
  0
VERTEX
  8
0
 10
67.038437
 20
821.353882
  0
VERTEX
  8
0
 10
64.716171
 20
821.312500
  0
VERTEX
  8
0
 10
59.199608
 20
821.268433
  0
VERTEX
  8
0
 10
49.470310
 20
821.272949
  0
VERTEX
  8
0
 10
44.972420
 20
821.307312
  0
VERTEX
  8
0
 10
40.778904
 20
821.363586
  0
VERTEX
  8
0
 10
35.953358
 20
821.457703
  0
VERTEX
  8
0
 10
30.353281
 20
821.599060
  0
VERTEX
  8
0
 10
26.048750
 20
821.730896
  0
VERTEX
  8
0
 10
19.737108
 20
821.958557
  0
VERTEX
  8
0
 10
18.440624
 20
821.978271
  0
VERTEX
  8
0
 10
17.333984
 20
821.967407
  0
VERTEX
  8
0
 10
15.913125
 20
821.914368
  0
VERTEX
  8
0
 10
14.346797
 20
821.805115
  0
VERTEX
  8
0
 10
12.804844
 20
821.644043
  0
VERTEX
  8
0
 10
11.457734
 20
821.450134
  0
VERTEX
  8
0
 10
10.317031
 20
821.229126
  0
VERTEX
  8
0
 10
9.380078
 20
820.991394
  0
VERTEX
  8
0
 10
8.514766
 20
820.706360
  0
VERTEX
  8
0
 10
7.724218
 20
820.372314
  0
VERTEX
  8
0
 10
7.098906
 20
820.048401
  0
VERTEX
  8
0
 10
6.514843
 20
819.691650
  0
VERTEX
  8
0
 10
5.965547
 20
819.303406
  0
VERTEX
  8
0
 10
5.360078
 20
818.813049
  0
VERTEX
  8
0
 10
4.788516
 20
818.285217
  0
VERTEX
  8
0
 10
4.253047
 20
817.724060
  0
VERTEX
  8
0
 10
3.756172
 20
817.133606
  0
VERTEX
  8
0
 10
3.300469
 20
816.517944
  0
VERTEX
  8
0
 10
2.888125
 20
815.878601
  0
VERTEX
  8
0
 10
2.569844
 20
815.300781
  0
VERTEX
  8
0
 10
2.283984
 20
814.681396
  0
VERTEX
  8
0
 10
2.070469
 20
814.124023
  0
VERTEX
  8
0
 10
1.844062
 20
813.394531
  0
VERTEX
  8
0
 10
1.680156
 20
812.726929
  0
VERTEX
  8
0
 10
1.538047
 20
811.998108
  0
VERTEX
  8
0
 10
1.416094
 20
811.202881
  0
VERTEX
  8
0
 10
1.293984
 20
810.153748
  0
VERTEX
  8
0
 10
1.195547
 20
808.992615
  0
VERTEX
  8
0
 10
1.117813
 20
807.710938
  0
VERTEX
  8
0
 10
1.050078
 20
806.053406
  0
VERTEX
  8
0
 10
1.013281
 20
804.501221
  0
VERTEX
  8
0
 10
1.000000
 20
802.842773
  0
VERTEX
  8
0
 10
1.013750
 20
801.092102
  0
VERTEX
  8
0
 10
1.048516
 20
799.573059
  0
VERTEX
  8
0
 10
1.152969
 20
797.051636
  0
VERTEX
  8
0
 10
1.309297
 20
794.475769
  0
VERTEX
  8
0
 10
1.952969
 20
786.051697
  0
VERTEX
  8
0
 10
2.308750
 20
780.950745
  0
VERTEX
  8
0
 10
5.316875
 20
780.782349
  0
VERTEX
  8
0
 10
5.709375
 20
776.506714
  0
VERTEX
  8
0
 10
5.969375
 20
773.481628
  0
VERTEX
  8
0
 10
6.763047
 20
763.000793
  0
VERTEX
  8
0
 10
7.637422
 20
752.598022
  0
VERTEX
  8
0
 10
25.365313
 20
753.474915
  0
VERTEX
  8
0
 10
29.166718
 20
753.642822
  0
VERTEX
  8
0
 10
32.406326
 20
753.766418
  0
VERTEX
  8
0
 10
37.572891
 20
753.927002
  0
VERTEX
  8
0
 10
43.100624
 20
754.061401
  0
VERTEX
  8
0
 10
48.537498
 20
754.160461
  0
VERTEX
  8
0
 10
53.470310
 20
754.215271
  0
VERTEX
  8
0
 10
58.551250
 20
754.208557
  0
VERTEX
  8
0
 10
63.555935
 20
754.123718
  0
VERTEX
  8
0
 10
69.571404
 20
753.948730
  0
VERTEX
  8
0
 10
83.864922
 20
753.441833
  0
VERTEX
  8
0
 10
88.971016
 20
753.281860
  0
VERTEX
  8
0
 10
93.944611
 20
753.182251
  0
VERTEX
  8
0
 10
96.174919
 20
753.165894
  0
VERTEX
  8
0
 10
98.947495
 20
753.168213
  0
SEQEND
  8
0
  0
POLYLINE
  8
0
  0
VERTEX
  8
0
 10
53.587967
 20
821.074219
  0
VERTEX
  8
0
 10
53.587967
 20
804.356079
  0
VERTEX
  8
0
 10
53.587967
 20
787.637878
  0
VERTEX
  8
0
 10
53.587967
 20
770.919678
  0
VERTEX
  8
0
 10
53.587967
 20
754.201538
  0
SEQEND
  8
0
  0
POLYLINE
  8
0
  0
VERTEX
  8
0
 10
72.590698
 20
781.861877
  0
VERTEX
  8
0
 10
72.203903
 20
772.200317
  0
VERTEX
  8
0
 10
61.681328
 20
772.073425
  0
SEQEND
  8
0
  0
POLYLINE
  8
0
  0
VERTEX
  8
0
 10
33.349766
 20
781.906372
  0
VERTEX
  8
0
 10
33.745155
 20
772.018860
  0
VERTEX
  8
0
 10
44.220310
 20
771.898865
  0
SEQEND
  8
0
  0
POLYLINE
  8
0
  0
VERTEX
  8
0
 10
100.738197
 20
781.137512
  0
VERTEX
  8
0
 10
101.058205
 20
785.814209
  0
VERTEX
  8
0
 10
101.654610
 20
793.939331
  0
VERTEX
  8
0
 10
101.891167
 20
797.359741
  0
VERTEX
  8
0
 10
102.093437
 20
800.867065
  0
VERTEX
  8
0
 10
102.187416
 20
803.477173
  0
VERTEX
  8
0
 10
102.203438
 20
805.042175
  0
VERTEX
  8
0
 10
102.183746
 20
806.473633
  0
VERTEX
  8
0
 10
102.128593
 20
807.915466
  0
VERTEX
  8
0
 10
102.039215
 20
809.295044
  0
VERTEX
  8
0
 10
101.931404
 20
810.436829
  0
VERTEX
  8
0
 10
101.810623
 20
811.307312
  0
VERTEX
  8
0
 10
101.654686
 20
812.086914
  0
VERTEX
  8
0
 10
101.451561
 20
812.830933
  0
VERTEX
  8
0
 10
101.160469
 20
813.646790
  0
VERTEX
  8
0
 10
100.795624
 20
814.442932
  0
VERTEX
  8
0
 10
100.583984
 20
814.830139
  0
VERTEX
  8
0
 10
100.352028
 20
815.208313
  0
VERTEX
  8
0
 10
100.098434
 20
815.576050
  0
VERTEX
  8
0
 10
99.878517
 20
815.861938
  0
VERTEX
  8
0
 10
99.580154
 20
816.207642
  0
VERTEX
  8
0
 10
99.321327
 20
816.473877
  0
VERTEX
  8
0
 10
99.043282
 20
816.730469
  0
VERTEX
  8
0
 10
98.744843
 20
816.976563
  0
VERTEX
  8
0
 10
98.424843
 20
817.211365
  0
VERTEX
  8
0
 10
98.082886
 20
817.434509
  0
VERTEX
  8
0
 10
97.345467
 20
817.843079
  0
VERTEX
  8
0
 10
96.561874
 20
818.198975
  0
VERTEX
  8
0
 10
95.662498
 20
818.531555
  0
VERTEX
  8
0
 10
94.777184
 20
818.788269
  0
VERTEX
  8
0
 10
93.955856
 20
818.956543
  0
VERTEX
  8
0
 10
93.014687
 20
819.076416
  0
VERTEX
  8
0
 10
91.868515
 20
819.155457
  0
VERTEX
  8
0
 10
90.445000
 20
819.200928
  0
VERTEX
  8
0
 10
88.781792
 20
819.216553
  0
VERTEX
  8
0
 10
86.043594
 20
819.188416
  0
VERTEX
  8
0
 10
83.062111
 20
819.094910
  0
VERTEX
  8
0
 10
80.590309
 20
818.975281
  0
VERTEX
  8
0
 10
73.683907
 20
818.593445
  0
VERTEX
  8
0
 10
69.326324
 20
818.413940
  0
VERTEX
  8
0
 10
67.114922
 20
818.354492
  0
VERTEX
  8
0
 10
64.774452
 20
818.312805
  0
VERTEX
  8
0
 10
59.221249
 20
818.268433
  0
VERTEX
  8
0
 10
49.449139
 20
818.272888
  0
VERTEX
  8
0
 10
44.935390
 20
818.307495
  0
VERTEX
  8
0
 10
40.726795
 20
818.363953
  0
VERTEX
  8
0
 10
35.883202
 20
818.458496
  0
VERTEX
  8
0
 10
30.265781
 20
818.600037
  0
VERTEX
  8
0
 10
25.587656
 20
818.743896
  0
VERTEX
  8
0
 10
19.713593
 20
818.954834
  0
VERTEX
  8
0
 10
18.615469
 20
818.972961
  0
VERTEX
  8
0
 10
17.558907
 20
818.965637
  0
VERTEX
  8
0
 10
16.218828
 20
818.918884
  0
VERTEX
  8
0
 10
14.911797
 20
818.832825
  0
VERTEX
  8
0
 10
13.651172
 20
818.710144
  0
VERTEX
  8
0
 10
12.453125
 20
818.551880
  0
VERTEX
  8
0
 10
11.459844
 20
818.378418
  0
VERTEX
  8
0
 10
10.552343
 20
818.171326
  0
VERTEX
  8
0
 10
9.842422
 20
817.959961
  0
VERTEX
  8
0
 10
9.133594
 20
817.682312
  0
VERTEX
  8
0
 10
8.588672
 20
817.407471
  0
VERTEX
  8
0
 10
8.097968
 20
817.102966
  0
VERTEX
  8
0
 10
7.646093
 20
816.768860
  0
VERTEX
  8
0
 10
7.159375
 20
816.351563
  0
VERTEX
  8
0
 10
6.700859
 20
815.900269
  0
VERTEX
  8
0
 10
6.274531
 20
815.421326
  0
VERTEX
  8
0
 10
5.884531
 20
814.920593
  0
VERTEX
  8
0
 10
5.534688
 20
814.400940
  0
VERTEX
  8
0
 10
5.298750
 20
813.984680
  0
VERTEX
  8
0
 10
5.119062
 20
813.607300
  0
VERTEX
  8
0
 10
4.922969
 20
813.103516
  0
VERTEX
  8
0
 10
4.775391
 20
812.630005
  0
VERTEX
  8
0
 10
4.616797
 20
811.983093
  0
VERTEX
  8
0
 10
4.499531
 20
811.369202
  0
VERTEX
  8
0
 10
4.395312
 20
810.680969
  0
VERTEX
  8
0
 10
4.303750
 20
809.913208
  0
VERTEX
  8
0
 10
4.209922
 20
808.878906
  0
VERTEX
  8
0
 10
4.132891
 20
807.712646
  0
VERTEX
  8
0
 10
4.072031
 20
806.405579
  0
VERTEX
  8
0
 10
4.028750
 20
804.960754
  0
VERTEX
  8
0
 10
4.006953
 20
803.393677
  0
VERTEX
  8
0
 10
4.007891
 20
802.005737
  0
VERTEX
  8
0
 10
4.028515
 20
800.553101
  0
VERTEX
  8
0
 10
4.071094
 20
799.044800
  0
VERTEX
  8
0
 10
4.170312
 20
796.859680
  0
VERTEX
  8
0
 10
4.329141
 20
794.316406
  0
VERTEX
  8
0
 10
4.945625
 20
786.264954
  0
VERTEX
  8
0
 10
5.302187
 20
781.148560
  0
SEQEND
  8
0
  0
POLYLINE
  8
0
  0
VERTEX
  8
0
 10
53.394375
 20
820.222107
  0
VERTEX
  8
0
 10
52.916092
 20
820.126953
  0
VERTEX
  8
0
 10
52.510544
 20
819.855896
  0
VERTEX
  8
0
 10
52.239529
 20
819.450439
  0
VERTEX
  8
0
 10
52.144375
 20
818.972107
  0
VERTEX
  8
0
 10
52.239529
 20
818.493713
  0
VERTEX
  8
0
 10
52.510544
 20
818.088257
  0
VERTEX
  8
0
 10
52.916092
 20
817.817261
  0
VERTEX
  8
0
 10
53.394375
 20
817.722107
  0
VERTEX
  8
0
 10
53.872734
 20
817.817261
  0
VERTEX
  8
0
 10
54.278278
 20
818.088257
  0
VERTEX
  8
0
 10
54.549297
 20
818.493713
  0
VERTEX
  8
0
 10
54.644375
 20
818.972107
  0
VERTEX
  8
0
 10
54.549297
 20
819.450439
  0
VERTEX
  8
0
 10
54.278278
 20
819.855896
  0
VERTEX
  8
0
 10
53.872734
 20
820.126953
  0
VERTEX
  8
0
 10
53.394375
 20
820.222107
  0
SEQEND
  8
0
  0
POLYLINE
  8
0
  0
VERTEX
  8
0
 10
53.572655
 20
757.866943
  0
VERTEX
  8
0
 10
53.094296
 20
757.771790
  0
VERTEX
  8
0
 10
52.688747
 20
757.500793
  0
VERTEX
  8
0
 10
52.417812
 20
757.095276
  0
VERTEX
  8
0
 10
52.322655
 20
756.616943
  0
VERTEX
  8
0
 10
52.417812
 20
756.138550
  0
VERTEX
  8
0
 10
52.688747
 20
755.733093
  0
VERTEX
  8
0
 10
53.094296
 20
755.462097
  0
VERTEX
  8
0
 10
53.572655
 20
755.366943
  0
VERTEX
  8
0
 10
54.051014
 20
755.462097
  0
VERTEX
  8
0
 10
54.456562
 20
755.733093
  0
VERTEX
  8
0
 10
54.727497
 20
756.138550
  0
VERTEX
  8
0
 10
54.822655
 20
756.616943
  0
VERTEX
  8
0
 10
54.727497
 20
757.095276
  0
VERTEX
  8
0
 10
54.456562
 20
757.500793
  0
VERTEX
  8
0
 10
54.051014
 20
757.771790
  0
VERTEX
  8
0
 10
53.572655
 20
757.866943
  0
SEQEND
  8
0
  0
POLYLINE
  8
0
  0
VERTEX
  8
0
 10
104.991791
 20
173.912567
  0
VERTEX
  8
0
 10
104.923042
 20
190.719376
  0
VERTEX
  8
0
 10
104.854294
 20
207.526245
  0
VERTEX
  8
0
 10
104.785469
 20
224.332962
  0
VERTEX
  8
0
 10
104.716637
 20
241.139832
  0
VERTEX
  8
0
 10
122.899292
 20
241.773438
  0
VERTEX
  8
0
 10
122.913353
 20
224.808197
  0
VERTEX
  8
0
 10
122.927498
 20
207.842957
  0
VERTEX
  8
0
 10
122.941635
 20
190.877808
  0
VERTEX
  8
0
 10
122.955704
 20
173.912567
  0
VERTEX
  8
0
 10
104.991791
 20
173.912567
  0
SEQEND
  8
0
  0
POLYLINE
  8
0
  0
VERTEX
  8
0
 10
117.533981
 20
187.810471
  0
VERTEX
  8
0
 10
111.116562
 20
187.688583
  0
SEQEND
  8
0
  0
POLYLINE
  8
0
  0
VERTEX
  8
0
 10
117.710075
 20
214.311707
  0
VERTEX
  8
0
 10
110.014923
 20
214.190613
  0
SEQEND
  8
0
  0
POLYLINE
  8
0
  0
VERTEX
  8
0
 10
1.000000
 20
845.416443
  0
VERTEX
  8
0
 10
3.776250
 20
845.190186
  0
VERTEX
  8
0
 10
5.557500
 20
845.000549
  0
VERTEX
  8
0
 10
6.275312
 20
844.899658
  0
VERTEX
  8
0
 10
7.034531
 20
844.768311
  0
VERTEX
  8
0
 10
7.635703
 20
844.642334
  0
VERTEX
  8
0
 10
8.300703
 20
844.477417
  0
VERTEX
  8
0
 10
9.042500
 20
844.262146
  0
VERTEX
  8
0
 10
9.698593
 20
844.044678
  0
VERTEX
  8
0
 10
10.273438
 20
843.825928
  0
VERTEX
  8
0
 10
10.864375
 20
843.567383
  0
VERTEX
  8
0
 10
11.475703
 20
843.259766
  0
VERTEX
  8
0
 10
12.003906
 20
842.958862
  0
VERTEX
  8
0
 10
12.551093
 20
842.612793
  0
VERTEX
  8
0
 10
13.229531
 20
842.140198
  0
VERTEX
  8
0
 10
13.925156
 20
841.612732
  0
VERTEX
  8
0
 10
14.630781
 20
841.037964
  0
VERTEX
  8
0
 10
15.339218
 20
840.423889
  0
VERTEX
  8
0
 10
16.043516
 20
839.778198
  0
VERTEX
  8
0
 10
16.738829
 20
839.105042
  0
VERTEX
  8
0
 10
17.423985
 20
838.403076
  0
VERTEX
  8
0
 10
18.098125
 20
837.670227
  0
VERTEX
  8
0
 10
18.650938
 20
837.034607
  0
VERTEX
  8
0
 10
19.517031
 20
835.967346
  0
VERTEX
  8
0
 10
20.463671
 20
834.697937
  0
VERTEX
  8
0
 10
21.282734
 20
833.534424
  0
VERTEX
  8
0
 10
23.349609
 20
830.523315
  0
VERTEX
  8
0
 10
24.621874
 20
828.744141
  0
VERTEX
  8
0
 10
25.566719
 20
827.509277
  0
VERTEX
  8
0
 10
25.973827
 20
827.019836
  0
VERTEX
  8
0
 10
26.286797
 20
826.670776
  0
VERTEX
  8
0
 10
26.642031
 20
826.310852
  0
VERTEX
  8
0
 10
27.044218
 20
825.954895
  0
VERTEX
  8
0
 10
27.393045
 20
825.689148
  0
VERTEX
  8
0
 10
27.820936
 20
825.408569
  0
VERTEX
  8
0
 10
28.278593
 20
825.157104
  0
VERTEX
  8
0
 10
28.697811
 20
824.966797
  0
VERTEX
  8
0
 10
29.144531
 20
824.801636
  0
VERTEX
  8
0
 10
29.621483
 20
824.663086
  0
VERTEX
  8
0
 10
30.398672
 20
824.509094
  0
VERTEX
  8
0
 10
31.254295
 20
824.423645
  0
VERTEX
  8
0
 10
32.192501
 20
824.411438
  0
VERTEX
  8
0
 10
33.099373
 20
824.465576
  0
VERTEX
  8
0
 10
33.974060
 20
824.565613
  0
VERTEX
  8
0
 10
34.989841
 20
824.716125
  0
VERTEX
  8
0
 10
40.427654
 20
825.629456
  0
VERTEX
  8
0
 10
43.964531
 20
826.186707
  0
VERTEX
  8
0
 10
46.669922
 20
826.574097
  0
VERTEX
  8
0
 10
49.307812
 20
826.903198
  0
VERTEX
  8
0
 10
52.091640
 20
827.178894
  0
VERTEX
  8
0
 10
54.701717
 20
827.360107
  0
VERTEX
  8
0
 10
57.168438
 20
827.454773
  0
VERTEX
  8
0
 10
59.521641
 20
827.470825
  0
VERTEX
  8
0
 10
62.029686
 20
827.409973
  0
VERTEX
  8
0
 10
64.687737
 20
827.266541
  0
VERTEX
  8
0
 10
67.505699
 20
827.041992
  0
VERTEX
  8
0
 10
70.289063
 20
826.748352
  0
VERTEX
  8
0
 10
72.623123
 20
826.441772
  0
VERTEX
  8
0
 10
74.993279
 20
826.074951
  0
VERTEX
  8
0
 10
77.556953
 20
825.633179
  0
VERTEX
  8
0
 10
82.321953
 20
824.769287
  0
VERTEX
  8
0
 10
83.974838
 20
824.492432
  0
VERTEX
  8
0
 10
84.863205
 20
824.363892
  0
VERTEX
  8
0
 10
85.529762
 20
824.285706
  0
VERTEX
  8
0
 10
86.120781
 20
824.238647
  0
VERTEX
  8
0
 10
86.654610
 20
824.224060
  0
VERTEX
  8
0
 10
87.310310
 20
824.257141
  0
VERTEX
  8
0
 10
87.942970
 20
824.353271
  0
VERTEX
  8
0
 10
88.672729
 20
824.540039
  0
VERTEX
  8
0
 10
89.333824
 20
824.778259
  0
VERTEX
  8
0
 10
89.989609
 20
825.086182
  0
VERTEX
  8
0
 10
90.546249
 20
825.413818
  0
VERTEX
  8
0
 10
91.079529
 20
825.800232
  0
VERTEX
  8
0
 10
91.607262
 20
826.268188
  0
VERTEX
  8
0
 10
91.916954
 20
826.583679
  0
VERTEX
  8
0
 10
92.321953
 20
827.037842
  0
VERTEX
  8
0
 10
92.756172
 20
827.568665
  0
VERTEX
  8
0
 10
93.229683
 20
828.187012
  0
VERTEX
  8
0
 10
94.191483
 20
829.521790
  0
VERTEX
  8
0
 10
96.553749
 20
832.929260
  0
VERTEX
  8
0
 10
97.567032
 20
834.354248
  0
VERTEX
  8
0
 10
98.720314
 20
835.891785
  0
VERTEX
  8
0
 10
99.828827
 20
837.259338
  0
VERTEX
  8
0
 10
100.433594
 20
837.954956
  0
VERTEX
  8
0
 10
101.147499
 20
838.731567
  0
VERTEX
  8
0
 10
101.866875
 20
839.467712
  0
VERTEX
  8
0
 10
102.587029
 20
840.159912
  0
VERTEX
  8
0
 10
103.303749
 20
840.804565
  0
VERTEX
  8
0
 10
103.912025
 20
841.316956
  0
VERTEX
  8
0
 10
104.615463
 20
841.865967
  0
VERTEX
  8
0
 10
105.216171
 20
842.294983
  0
VERTEX
  8
0
 10
105.817657
 20
842.685120
  0
VERTEX
  8
0
 10
106.321564
 20
842.980530
  0
VERTEX
  8
0
 10
106.829376
 20
843.248779
  0
VERTEX
  8
0
 10
107.447578
 20
843.536133
  0
VERTEX
  8
0
 10
107.974762
 20
843.750122
  0
VERTEX
  8
0
 10
108.628281
 20
843.980896
  0
VERTEX
  8
0
 10
109.311325
 20
844.188354
  0
VERTEX
  8
0
 10
110.031403
 20
844.377563
  0
VERTEX
  8
0
 10
110.925156
 20
844.581604
  0
VERTEX
  8
0
 10
111.990623
 20
844.791626
  0
VERTEX
  8
0
 10
113.051872
 20
844.969604
  0
VERTEX
  8
0
 10
114.055153
 20
845.107849
  0
VERTEX
  8
0
 10
114.844917
 20
845.190979
  0
VERTEX
  8
0
 10
115.641403
 20
845.245544
  0
VERTEX
  8
0
 10
116.355309
 20
845.268982
  0
VERTEX
  8
0
 10
117.358978
 20
845.272766
  0
VERTEX
  8
0
 10
116.178360
 20
849.075378
  0
VERTEX
  8
0
 10
115.747261
 20
850.374878
  0
VERTEX
  8
0
 10
115.297501
 20
851.654419
  0
VERTEX
  8
0
 10
114.824532
 20
852.908264
  0
VERTEX
  8
0
 10
114.413750
 20
853.923645
  0
VERTEX
  8
0
 10
113.908669
 20
855.086670
  0
VERTEX
  8
0
 10
113.483589
 20
855.993958
  0
VERTEX
  8
0
 10
112.976402
 20
856.987976
  0
VERTEX
  8
0
 10
112.562187
 20
857.721619
  0
VERTEX
  8
0
 10
112.160782
 20
858.355591
  0
VERTEX
  8
0
 10
111.768280
 20
858.891296
  0
VERTEX
  8
0
 10
111.374062
 20
859.340759
  0
VERTEX
  8
0
 10
110.967651
 20
859.716370
  0
VERTEX
  8
0
 10
110.538200
 20
860.030518
  0
VERTEX
  8
0
 10
110.075157
 20
860.295471
  0
VERTEX
  8
0
 10
109.567963
 20
860.523560
  0
VERTEX
  8
0
 10
108.893906
 20
860.761780
  0
VERTEX
  8
0
 10
108.157417
 20
860.966553
  0
VERTEX
  8
0
 10
107.235001
 20
861.169434
  0
VERTEX
  8
0
 10
106.120232
 20
861.362793
  0
VERTEX
  8
0
 10
104.818588
 20
861.543518
  0
VERTEX
  8
0
 10
103.757416
 20
861.658020
  0
VERTEX
  8
0
 10
102.613983
 20
861.744446
  0
VERTEX
  8
0
 10
101.158829
 20
861.802063
  0
VERTEX
  8
0
 10
99.714371
 20
861.810913
  0
VERTEX
  8
0
 10
97.857735
 20
861.776245
  0
VERTEX
  8
0
 10
92.141792
 20
861.612000
  0
VERTEX
  8
0
 10
89.793045
 20
861.590576
  0
VERTEX
  8
0
 10
87.589058
 20
861.604492
  0
VERTEX
  8
0
 10
84.871094
 20
861.663391
  0
VERTEX
  8
0
 10
82.909996
 20
861.746094
  0
VERTEX
  8
0
 10
82.231407
 20
861.796631
  0
VERTEX
  8
0
 10
81.662338
 20
861.859497
  0
VERTEX
  8
0
 10
81.254372
 20
861.923706
  0
VERTEX
  8
0
 10
80.823517
 20
862.018005
  0
VERTEX
  8
0
 10
80.500389
 20
862.115662
  0
VERTEX
  8
0
 10
80.259064
 20
862.210999
  0
VERTEX
  8
0
 10
79.971870
 20
862.356934
  0
VERTEX
  8
0
 10
79.748436
 20
862.499146
  0
VERTEX
  8
0
 10
79.525856
 20
862.667419
  0
VERTEX
  8
0
 10
79.299843
 20
862.865295
  0
VERTEX
  8
0
 10
79.065933
 20
863.095947
  0
VERTEX
  8
0
 10
78.759453
 20
863.432556
  0
VERTEX
  8
0
 10
78.439682
 20
863.820007
  0
VERTEX
  8
0
 10
78.109917
 20
864.254883
  0
VERTEX
  8
0
 10
77.501793
 20
865.145996
  0
VERTEX
  8
0
 10
76.958748
 20
866.041016
  0
VERTEX
  8
0
 10
75.791557
 20
868.104065
  0
VERTEX
  8
0
 10
75.422417
 20
868.687256
  0
VERTEX
  8
0
 10
75.111557
 20
869.126709
  0
VERTEX
  8
0
 10
74.699059
 20
869.629150
  0
VERTEX
  8
0
 10
74.346794
 20
869.985779
  0
VERTEX
  8
0
 10
73.877419
 20
870.376221
  0
VERTEX
  8
0
 10
73.375626
 20
870.710693
  0
VERTEX
  8
0
 10
73.058830
 20
870.887024
  0
VERTEX
  8
0
 10
72.617966
 20
871.096252
  0
VERTEX
  8
0
 10
72.273438
 20
871.235474
  0
VERTEX
  8
0
 10
71.795311
 20
871.399902
  0
VERTEX
  8
0
 10
71.295776
 20
871.542847
  0
VERTEX
  8
0
 10
70.773277
 20
871.667114
  0
VERTEX
  8
0
 10
69.782417
 20
871.843201
  0
VERTEX
  8
0
 10
68.657341
 20
871.971436
  0
VERTEX
  8
0
 10
67.354530
 20
872.057251
  0
VERTEX
  8
0
 10
65.830704
 20
872.106140
  0
VERTEX
  8
0
 10
63.792500
 20
872.124023
  0
VERTEX
  8
0
 10
60.929844
 20
872.103943
  0
VERTEX
  8
0
 10
57.023357
 20
872.037842
  0
VERTEX
  8
0
 10
52.808514
 20
871.945862
  0
VERTEX
  8
0
 10
50.022343
 20
871.855042
  0
VERTEX
  8
0
 10
48.448048
 20
871.768555
  0
VERTEX
  8
0
 10
47.446014
 20
871.671448
  0
VERTEX
  8
0
 10
46.720779
 20
871.546448
  0
VERTEX
  8
0
 10
46.429531
 20
871.470703
  0
VERTEX
  8
0
 10
46.106560
 20
871.361328
  0
VERTEX
  8
0
 10
45.746250
 20
871.205688
  0
VERTEX
  8
0
 10
45.449375
 20
871.052490
  0
VERTEX
  8
0
 10
45.094139
 20
870.834900
  0
VERTEX
  8
0
 10
44.797890
 20
870.621094
  0
VERTEX
  8
0
 10
44.500626
 20
870.373657
  0
VERTEX
  8
0
 10
44.201641
 20
870.088806
  0
VERTEX
  8
0
 10
43.960625
 20
869.831482
  0
VERTEX
  8
0
 10
43.657032
 20
869.471619
  0
VERTEX
  8
0
 10
43.110001
 20
868.734070
  0
VERTEX
  8
0
 10
42.515625
 20
867.820190
  0
VERTEX
  8
0
 10
42.007969
 20
866.955933
  0
VERTEX
  8
0
 10
41.063282
 20
865.250366
  0
VERTEX
  8
0
 10
40.633514
 20
864.547974
  0
VERTEX
  8
0
 10
40.171249
 20
863.906128
  0
VERTEX
  8
0
 10
39.922966
 20
863.612305
  0
VERTEX
  8
0
 10
39.661171
 20
863.337341
  0
VERTEX
  8
0
 10
39.313046
 20
863.020630
  0
VERTEX
  8
0
 10
39.016171
 20
862.789307
  0
VERTEX
  8
0
 10
38.619843
 20
862.528503
  0
VERTEX
  8
0
 10
38.281013
 20
862.342896
  0
VERTEX
  8
0
 10
37.921406
 20
862.178101
  0
VERTEX
  8
0
 10
37.443985
 20
862.001404
  0
VERTEX
  8
0
 10
36.944298
 20
861.855164
  0
VERTEX
  8
0
 10
36.432110
 20
861.737183
  0
VERTEX
  8
0
 10
35.814922
 20
861.629761
  0
VERTEX
  8
0
 10
35.112888
 20
861.546692
  0
VERTEX
  8
0
 10
34.452499
 20
861.503235
  0
VERTEX
  8
0
 10
33.799686
 20
861.492554
  0
VERTEX
  8
0
 10
28.225311
 20
861.661987
  0
VERTEX
  8
0
 10
21.660702
 20
861.800659
  0
VERTEX
  8
0
 10
17.835781
 20
861.837585
  0
VERTEX
  8
0
 10
16.350780
 20
861.828247
  0
VERTEX
  8
0
 10
15.001875
 20
861.798096
  0
VERTEX
  8
0
 10
13.954687
 20
861.752502
  0
VERTEX
  8
0
 10
13.153359
 20
861.698120
  0
VERTEX
  8
0
 10
12.270547
 20
861.610535
  0
VERTEX
  8
0
 10
11.595469
 20
861.516785
  0
VERTEX
  8
0
 10
10.970625
 20
861.402222
  0
VERTEX
  8
0
 10
10.281250
 20
861.235535
  0
VERTEX
  8
0
 10
9.753515
 20
861.073364
  0
VERTEX
  8
0
 10
9.171953
 20
860.853760
  0
VERTEX
  8
0
 10
8.558906
 20
860.567322
  0
VERTEX
  8
0
 10
7.935156
 20
860.206604
  0
VERTEX
  8
0
 10
7.446953
 20
859.863892
  0
VERTEX
  8
0
 10
6.995625
 20
859.473022
  0
VERTEX
  8
0
 10
6.562109
 20
859.001770
  0
VERTEX
  8
0
 10
6.190078
 20
858.509644
  0
VERTEX
  8
0
 10
5.738672
 20
857.804199
  0
VERTEX
  8
0
 10
5.327500
 20
857.070740
  0
VERTEX
  8
0
 10
4.823515
 20
856.069092
  0
VERTEX
  8
0
 10
4.376406
 20
855.092651
  0
VERTEX
  8
0
 10
3.844062
 20
853.824463
  0
VERTEX
  8
0
 10
3.384219
 20
852.633972
  0
VERTEX
  8
0
 10
2.924844
 20
851.357300
  0
VERTEX
  8
0
 10
2.390078
 20
849.780212
  0
VERTEX
  8
0
 10
1.000000
 20
845.416443
  0
SEQEND
  8
0
  0
POLYLINE
  8
0
  0
VERTEX
  8
0
 10
59.160000
 20
827.552551
  0
VERTEX
  8
0
 10
59.160000
 20
838.665527
  0
VERTEX
  8
0
 10
59.160000
 20
849.778564
  0
VERTEX
  8
0
 10
59.160000
 20
860.891602
  0
VERTEX
  8
0
 10
59.160000
 20
872.004639
  0
SEQEND
  8
0
  0
POLYLINE
  8
0
  0
VERTEX
  8
0
 10
56.312187
 20
854.805420
  0
VERTEX
  8
0
 10
61.719296
 20
854.651794
  0
SEQEND
  8
0
  0
POLYLINE
  8
0
  0
VERTEX
  8
0
 10
55.495781
 20
835.968994
  0
VERTEX
  8
0
 10
62.533825
 20
835.941772
  0
SEQEND
  8
0
  0
POLYLINE
  8
0
  0
VERTEX
  8
0
 10
1.371719
 20
849.399292
  0
VERTEX
  8
0
 10
4.263750
 20
849.167725
  0
VERTEX
  8
0
 10
5.322031
 20
849.063110
  0
VERTEX
  8
0
 10
6.315547
 20
848.944275
  0
VERTEX
  8
0
 10
7.232969
 20
848.807251
  0
VERTEX
  8
0
 10
7.970469
 20
848.672546
  0
VERTEX
  8
0
 10
8.678281
 20
848.519287
  0
VERTEX
  8
0
 10
9.485469
 20
848.313965
  0
VERTEX
  8
0
 10
10.294374
 20
848.076477
  0
VERTEX
  8
0
 10
11.122656
 20
847.800354
  0
VERTEX
  8
0
 10
11.851093
 20
847.522644
  0
VERTEX
  8
0
 10
12.597813
 20
847.197266
  0
VERTEX
  8
0
 10
13.363671
 20
846.815002
  0
VERTEX
  8
0
 10
14.017500
 20
846.446167
  0
VERTEX
  8
0
 10
14.685625
 20
846.026917
  0
VERTEX
  8
0
 10
15.365156
 20
845.559875
  0
VERTEX
  8
0
 10
16.051718
 20
845.050842
  0
VERTEX
  8
0
 10
16.741093
 20
844.505554
  0
VERTEX
  8
0
 10
17.428749
 20
843.929749
  0
VERTEX
  8
0
 10
18.245703
 20
843.206726
  0
VERTEX
  8
0
 10
19.046875
 20
842.457581
  0
VERTEX
  8
0
 10
19.699999
 20
841.815430
  0
VERTEX
  8
0
 10
20.339453
 20
841.156555
  0
VERTEX
  8
0
 10
20.964922
 20
840.479919
  0
VERTEX
  8
0
 10
21.576094
 20
839.784729
  0
VERTEX
  8
0
 10
22.172421
 20
839.070313
  0
VERTEX
  8
0
 10
22.753593
 20
838.335754
  0
VERTEX
  8
0
 10
23.319609
 20
837.584106
  0
VERTEX
  8
0
 10
24.300468
 20
836.212402
  0
VERTEX
  8
0
 10
26.120312
 20
833.559814
  0
VERTEX
  8
0
 10
27.040234
 20
832.245972
  0
VERTEX
  8
0
 10
28.001640
 20
830.923645
  0
VERTEX
  8
0
 10
28.690155
 20
830.034851
  0
VERTEX
  8
0
 10
29.217108
 20
829.434143
  0
VERTEX
  8
0
 10
29.448202
 20
829.212769
  0
VERTEX
  8
0
 10
29.645937
 20
829.051636
  0
VERTEX
  8
0
 10
29.880468
 20
828.889893
  0
VERTEX
  8
0
 10
30.093906
 20
828.770813
  0
VERTEX
  8
0
 10
30.332188
 20
828.670776
  0
VERTEX
  8
0
 10
30.614843
 20
828.585938
  0
VERTEX
  8
0
 10
31.162344
 20
828.483826
  0
VERTEX
  8
0
 10
31.764608
 20
828.439819
  0
VERTEX
  8
0
 10
32.444607
 20
828.451904
  0
VERTEX
  8
0
 10
33.282108
 20
828.529724
  0
VERTEX
  8
0
 10
34.660858
 20
828.730774
  0
VERTEX
  8
0
 10
40.439297
 20
829.687805
  0
VERTEX
  8
0
 10
44.097031
 20
830.252563
  0
VERTEX
  8
0
 10
47.211639
 20
830.681763
  0
VERTEX
  8
0
 10
50.199532
 20
831.023315
  0
VERTEX
  8
0
 10
52.397499
 20
831.219421
  0
VERTEX
  8
0
 10
54.790779
 20
831.373474
  0
VERTEX
  8
0
 10
57.074688
 20
831.457397
  0
VERTEX
  8
0
 10
59.266560
 20
831.476563
  0
VERTEX
  8
0
 10
60.596249
 20
831.458984
  0
VERTEX
  8
0
 10
61.898594
 20
831.421143
  0
VERTEX
  8
0
 10
64.682892
 20
831.278259
  0
VERTEX
  8
0
 10
66.163902
 20
831.172180
  0
VERTEX
  8
0
 10
67.867500
 20
831.027649
  0
VERTEX
  8
0
 10
70.757187
 20
830.722778
  0
VERTEX
  8
0
 10
73.168983
 20
830.406311
  0
VERTEX
  8
0
 10
75.604843
 20
830.029846
  0
VERTEX
  8
0
 10
77.985779
 20
829.622009
  0
VERTEX
  8
0
 10
82.601875
 20
828.792419
  0
VERTEX
  8
0
 10
84.439293
 20
828.484070
  0
VERTEX
  8
0
 10
85.641251
 20
828.316833
  0
VERTEX
  8
0
 10
86.077026
 20
828.275940
  0
VERTEX
  8
0
 10
86.477890
 20
828.259644
  0
VERTEX
  8
0
 10
86.836090
 20
828.276123
  0
VERTEX
  8
0
 10
87.172729
 20
828.330139
  0
VERTEX
  8
0
 10
87.534531
 20
828.426331
  0
VERTEX
  8
0
 10
87.865387
 20
828.554382
  0
VERTEX
  8
0
 10
88.167496
 20
828.710815
  0
VERTEX
  8
0
 10
88.480782
 20
828.916443
  0
VERTEX
  8
0
 10
88.777657
 20
829.159485
  0
VERTEX
  8
0
 10
89.069298
 20
829.446472
  0
VERTEX
  8
0
 10
89.609528
 20
830.073486
  0
VERTEX
  8
0
 10
90.323280
 20
831.014771
  0
VERTEX
  8
0
 10
91.119141
 20
832.134460
  0
VERTEX
  8
0
 10
93.560547
 20
835.640869
  0
VERTEX
  8
0
 10
94.815781
 20
837.373169
  0
VERTEX
  8
0
 10
95.915703
 20
838.804443
  0
VERTEX
  8
0
 10
97.012497
 20
840.132141
  0
VERTEX
  8
0
 10
97.683205
 20
840.892273
  0
VERTEX
  8
0
 10
98.481873
 20
841.747803
  0
VERTEX
  8
0
 10
99.295700
 20
842.566711
  0
VERTEX
  8
0
 10
100.003433
 20
843.237061
  0
VERTEX
  8
0
 10
100.838745
 20
843.979675
  0
VERTEX
  8
0
 10
101.561562
 20
844.579834
  0
VERTEX
  8
0
 10
102.290779
 20
845.143738
  0
VERTEX
  8
0
 10
103.027496
 20
845.668518
  0
VERTEX
  8
0
 10
103.772652
 20
846.151306
  0
VERTEX
  8
0
 10
104.400932
 20
846.519409
  0
VERTEX
  8
0
 10
105.036407
 20
846.854797
  0
VERTEX
  8
0
 10
105.680313
 20
847.157104
  0
VERTEX
  8
0
 10
106.335312
 20
847.429382
  0
VERTEX
  8
0
 10
107.139999
 20
847.721252
  0
VERTEX
  8
0
 10
107.969528
 20
847.980591
  0
VERTEX
  8
0
 10
108.829063
 20
848.213501
  0
VERTEX
  8
0
 10
109.874687
 20
848.459045
  0
VERTEX
  8
0
 10
111.102890
 20
848.706909
  0
VERTEX
  8
0
 10
112.314217
 20
848.914185
  0
VERTEX
  8
0
 10
113.453125
 20
849.074829
  0
VERTEX
  8
0
 10
114.347496
 20
849.172424
  0
VERTEX
  8
0
 10
115.241402
 20
849.237549
  0
VERTEX
  8
0
 10
116.127029
 20
849.267700
  0
VERTEX
  8
0
 10
117.202499
 20
849.270203
  0
SEQEND
  8
0
  0
POLYLINE
  8
0
  0
VERTEX
  8
0
 10
68.887497
 20
869.022766
  0
VERTEX
  8
0
 10
68.792343
 20
869.501160
  0
VERTEX
  8
0
 10
68.521408
 20
869.906677
  0
VERTEX
  8
0
 10
68.115936
 20
870.177612
  0
VERTEX
  8
0
 10
67.637497
 20
870.272766
  0
VERTEX
  8
0
 10
67.159218
 20
870.177612
  0
VERTEX
  8
0
 10
66.753670
 20
869.906677
  0
VERTEX
  8
0
 10
66.482658
 20
869.501160
  0
VERTEX
  8
0
 10
66.387497
 20
869.022766
  0
VERTEX
  8
0
 10
66.482658
 20
868.544434
  0
VERTEX
  8
0
 10
66.753670
 20
868.138977
  0
VERTEX
  8
0
 10
67.159218
 20
867.867920
  0
VERTEX
  8
0
 10
67.637497
 20
867.772766
  0
VERTEX
  8
0
 10
68.115936
 20
867.867920
  0
VERTEX
  8
0
 10
68.521408
 20
868.138977
  0
VERTEX
  8
0
 10
68.792343
 20
868.544434
  0
VERTEX
  8
0
 10
68.887497
 20
869.022766
  0
SEQEND
  8
0
  0
POLYLINE
  8
0
  0
VERTEX
  8
0
 10
51.887188
 20
869.101318
  0
VERTEX
  8
0
 10
51.792030
 20
869.579651
  0
VERTEX
  8
0
 10
51.521091
 20
869.985229
  0
VERTEX
  8
0
 10
51.115547
 20
870.256165
  0
VERTEX
  8
0
 10
50.637188
 20
870.351318
  0
VERTEX
  8
0
 10
50.158829
 20
870.256165
  0
VERTEX
  8
0
 10
49.753281
 20
869.985229
  0
VERTEX
  8
0
 10
49.482342
 20
869.579651
  0
VERTEX
  8
0
 10
49.387188
 20
869.101318
  0
VERTEX
  8
0
 10
49.482342
 20
868.622925
  0
VERTEX
  8
0
 10
49.753281
 20
868.217407
  0
VERTEX
  8
0
 10
50.158829
 20
867.946472
  0
VERTEX
  8
0
 10
50.637188
 20
867.851318
  0
VERTEX
  8
0
 10
51.115547
 20
867.946472
  0
VERTEX
  8
0
 10
51.521091
 20
868.217407
  0
VERTEX
  8
0
 10
51.792030
 20
868.622925
  0
VERTEX
  8
0
 10
51.887188
 20
869.101318
  0
SEQEND
  8
0
  0
POLYLINE
  8
0
  0
VERTEX
  8
0
 10
60.465778
 20
830.344910
  0
VERTEX
  8
0
 10
60.370625
 20
830.823181
  0
VERTEX
  8
0
 10
60.099686
 20
831.228760
  0
VERTEX
  8
0
 10
59.694218
 20
831.499756
  0
VERTEX
  8
0
 10
59.215778
 20
831.594910
  0
VERTEX
  8
0
 10
58.737499
 20
831.499756
  0
VERTEX
  8
0
 10
58.331951
 20
831.228760
  0
VERTEX
  8
0
 10
58.060936
 20
830.823181
  0
VERTEX
  8
0
 10
57.965778
 20
830.344910
  0
VERTEX
  8
0
 10
58.060936
 20
829.866455
  0
VERTEX
  8
0
 10
58.331951
 20
829.460999
  0
VERTEX
  8
0
 10
58.737499
 20
829.190063
  0
VERTEX
  8
0
 10
59.215778
 20
829.094910
  0
VERTEX
  8
0
 10
59.694218
 20
829.190063
  0
VERTEX
  8
0
 10
60.099686
 20
829.460999
  0
VERTEX
  8
0
 10
60.370625
 20
829.866455
  0
VERTEX
  8
0
 10
60.465778
 20
830.344910
  0
SEQEND
  8
0
  0
POLYLINE
  8
0
  0
VERTEX
  8
0
 10
96.688667
 20
174.079300
  0
VERTEX
  8
0
 10
98.000542
 20
188.965393
  0
VERTEX
  8
0
 10
99.312576
 20
203.851563
  0
VERTEX
  8
0
 10
100.624611
 20
218.737656
  0
VERTEX
  8
0
 10
101.936562
 20
233.623825
  0
VERTEX
  8
0
 10
88.607735
 20
245.539063
  0
VERTEX
  8
0
 10
90.484375
 20
258.793671
  0
VERTEX
  8
0
 10
91.935387
 20
269.225311
  0
VERTEX
  8
0
 10
93.651329
 20
281.871857
  0
VERTEX
  8
0
 10
95.574219
 20
296.167664
  0
VERTEX
  8
0
 10
96.678513
 20
304.193817
  0
VERTEX
  8
0
 10
97.419998
 20
309.373962
  0
VERTEX
  8
0
 10
98.067734
 20
313.662964
  0
VERTEX
  8
0
 10
98.717651
 20
317.734528
  0
VERTEX
  8
0
 10
99.756714
 20
324.005615
  0
VERTEX
  8
0
 10
100.245934
 20
327.191864
  0
VERTEX
  8
0
 10
100.581795
 20
329.603271
  0
VERTEX
  8
0
 10
100.897339
 20
332.033508
  0
VERTEX
  8
0
 10
102.716873
 20
347.184692
  0
VERTEX
  8
0
 10
94.507729
 20
351.861084
  0
VERTEX
  8
0
 10
87.118828
 20
356.051086
  0
VERTEX
  8
0
 10
78.326401
 20
360.994537
  0
VERTEX
  8
0
 10
69.418434
 20
365.985291
  0
VERTEX
  8
0
 10
64.060699
 20
369.013275
  0
VERTEX
  8
0
 10
56.017654
 20
373.618591
  0
VERTEX
  8
0
 10
44.364685
 20
380.358734
  0
VERTEX
  8
0
 10
30.959219
 20
356.130157
  0
VERTEX
  8
0
 10
21.725859
 20
339.332733
  0
VERTEX
  8
0
 10
14.714999
 20
326.606079
  0
VERTEX
  8
0
 10
10.807656
 20
328.622803
  0
VERTEX
  8
0
 10
9.131953
 20
325.831238
  0
VERTEX
  8
0
 10
7.855625
 20
323.661713
  0
VERTEX
  8
0
 10
6.743515
 20
321.708893
  0
VERTEX
  8
0
 10
5.681797
 20
319.764282
  0
VERTEX
  8
0
 10
4.588438
 20
317.664459
  0
VERTEX
  8
0
 10
3.617812
 20
315.695221
  0
VERTEX
  8
0
 10
2.800781
 20
313.919769
  0
VERTEX
  8
0
 10
2.205156
 20
312.492645
  0
VERTEX
  8
0
 10
1.785312
 20
311.342407
  0
VERTEX
  8
0
 10
1.467031
 20
310.287659
  0
VERTEX
  8
0
 10
1.246094
 20
309.311401
  0
VERTEX
  8
0
 10
1.107109
 20
308.389587
  0
VERTEX
  8
0
 10
1.020547
 20
307.274200
  0
VERTEX
  8
0
 10
0.999922
 20
306.492798
  0
VERTEX
  8
0
 10
1.003828
 20
305.920135
  0
VERTEX
  8
0
 10
1.065703
 20
305.065216
  0
VERTEX
  8
0
 10
1.146875
 20
304.532959
  0
VERTEX
  8
0
 10
1.236562
 20
304.106323
  0
VERTEX
  8
0
 10
1.451563
 20
303.332336
  0
VERTEX
  8
0
 10
1.763828
 20
302.464752
  0
VERTEX
  8
0
 10
2.095000
 20
301.692505
  0
VERTEX
  8
0
 10
2.614141
 20
300.627808
  0
VERTEX
  8
0
 10
3.242265
 20
299.464539
  0
VERTEX
  8
0
 10
3.970547
 20
298.215851
  0
VERTEX
  8
0
 10
4.790156
 20
296.894989
  0
VERTEX
  8
0
 10
5.692187
 20
295.515137
  0
VERTEX
  8
0
 10
6.467109
 20
294.377716
  0
VERTEX
  8
0
 10
7.495547
 20
292.923737
  0
VERTEX
  8
0
 10
8.586016
 20
291.434357
  0
VERTEX
  8
0
 10
9.735312
 20
289.906250
  0
VERTEX
  8
0
 10
11.941406
 20
287.047577
  0
VERTEX
  8
0
 10
18.184608
 20
279.103516
  0
VERTEX
  8
0
 10
21.366484
 20
275.012573
  0
VERTEX
  8
0
 10
23.865469
 20
271.718201
  0
VERTEX
  8
0
 10
24.834999
 20
270.400787
  0
VERTEX
  8
0
 10
25.883047
 20
268.937195
  0
VERTEX
  8
0
 10
26.976797
 20
267.350708
  0
VERTEX
  8
0
 10
27.966640
 20
265.845764
  0
VERTEX
  8
0
 10
28.887577
 20
264.374695
  0
VERTEX
  8
0
 10
29.751328
 20
262.926331
  0
VERTEX
  8
0
 10
30.666250
 20
261.311310
  0
VERTEX
  8
0
 10
31.501719
 20
259.753204
  0
VERTEX
  8
0
 10
32.255466
 20
258.266022
  0
VERTEX
  8
0
 10
32.927498
 20
256.847565
  0
VERTEX
  8
0
 10
33.520470
 20
255.479294
  0
VERTEX
  8
0
 10
34.037186
 20
254.141953
  0
VERTEX
  8
0
 10
34.428593
 20
252.982025
  0
VERTEX
  8
0
 10
34.756329
 20
251.810379
  0
VERTEX
  8
0
 10
34.973515
 20
250.774216
  0
VERTEX
  8
0
 10
35.056091
 20
250.238815
  0
VERTEX
  8
0
 10
35.119686
 20
249.688660
  0
VERTEX
  8
0
 10
35.162735
 20
249.121399
  0
VERTEX
  8
0
 10
35.183750
 20
248.534531
  0
VERTEX
  8
0
 10
35.166092
 20
247.506866
  0
VERTEX
  8
0
 10
35.104141
 20
246.640854
  0
VERTEX
  8
0
 10
35.006248
 20
245.751953
  0
VERTEX
  8
0
 10
34.879452
 20
244.857254
  0
VERTEX
  8
0
 10
34.731171
 20
243.974289
  0
VERTEX
  8
0
 10
34.526249
 20
242.913116
  0
VERTEX
  8
0
 10
34.312576
 20
241.930695
  0
VERTEX
  8
0
 10
34.064686
 20
240.903198
  0
VERTEX
  8
0
 10
33.840702
 20
240.071472
  0
VERTEX
  8
0
 10
33.669765
 20
239.509064
  0
VERTEX
  8
0
 10
33.509060
 20
239.043594
  0
VERTEX
  8
0
 10
33.354763
 20
238.654526
  0
VERTEX
  8
0
 10
33.172421
 20
238.259521
  0
VERTEX
  8
0
 10
32.955704
 20
237.853668
  0
VERTEX
  8
0
 10
32.697342
 20
237.423203
  0
VERTEX
  8
0
 10
32.061172
 20
236.495773
  0
VERTEX
  8
0
 10
32.104454
 20
235.270065
  0
VERTEX
  8
0
 10
31.850468
 20
234.782104
  0
VERTEX
  8
0
 10
31.542030
 20
234.355545
  0
VERTEX
  8
0
 10
31.094530
 20
233.873825
  0
VERTEX
  8
0
 10
30.407030
 20
233.244919
  0
VERTEX
  8
0
 10
29.588827
 20
232.579605
  0
VERTEX
  8
0
 10
28.798124
 20
232.003433
  0
VERTEX
  8
0
 10
28.118437
 20
231.570862
  0
VERTEX
  8
0
 10
27.314920
 20
231.133972
  0
VERTEX
  8
0
 10
26.306562
 20
230.663116
  0
VERTEX
  8
0
 10
25.194452
 20
230.200470
  0
VERTEX
  8
0
 10
23.678202
 20
229.617813
  0
VERTEX
  8
0
 10
22.030546
 20
229.020615
  0
VERTEX
  8
0
 10
20.393047
 20
228.455460
  0
VERTEX
  8
0
 10
18.905703
 20
227.968124
  0
VERTEX
  8
0
 10
15.385625
 20
226.901093
  0
VERTEX
  8
0
 10
14.283125
 20
226.551788
  0
VERTEX
  8
0
 10
13.005312
 20
226.109924
  0
VERTEX
  8
0
 10
11.767656
 20
225.628433
  0
VERTEX
  8
0
 10
11.130703
 20
225.349289
  0
VERTEX
  8
0
 10
10.549375
 20
225.065079
  0
VERTEX
  8
0
 10
10.037499
 20
224.778503
  0
VERTEX
  8
0
 10
9.594687
 20
224.492966
  0
VERTEX
  8
0
 10
9.145469
 20
224.157257
  0
VERTEX
  8
0
 10
8.775391
 20
223.835464
  0
VERTEX
  8
0
 10
8.428672
 20
223.486404
  0
VERTEX
  8
0
 10
8.089844
 20
223.087891
  0
VERTEX
  8
0
 10
7.967266
 20
222.902496
  0
VERTEX
  8
0
 10
7.882813
 20
222.741318
  0
VERTEX
  8
0
 10
7.724375
 20
222.321091
  0
VERTEX
  8
0
 10
7.567344
 20
221.707733
  0
VERTEX
  8
0
 10
7.396406
 20
220.826004
  0
VERTEX
  8
0
 10
7.085625
 20
218.877411
  0
VERTEX
  8
0
 10
6.246172
 20
213.106094
  0
VERTEX
  8
0
 10
5.801484
 20
210.187103
  0
VERTEX
  8
0
 10
5.294765
 20
207.132965
  0
VERTEX
  8
0
 10
4.726406
 20
204.020386
  0
VERTEX
  8
0
 10
4.307812
 20
201.917648
  0
VERTEX
  8
0
 10
3.833516
 20
199.705231
  0
VERTEX
  8
0
 10
3.303594
 20
197.388351
  0
VERTEX
  8
0
 10
2.612266
 20
194.494293
  0
VERTEX
  8
0
 10
14.024453
 20
190.711166
  0
VERTEX
  8
0
 10
22.294844
 20
188.015228
  0
VERTEX
  8
0
 10
28.867266
 20
185.941711
  0
VERTEX
  8
0
 10
32.167500
 20
184.932098
  0
VERTEX
  8
0
 10
35.725079
 20
183.866638
  0
VERTEX
  8
0
 10
39.560623
 20
182.742569
  0
VERTEX
  8
0
 10
43.588203
 20
181.589767
  0
VERTEX
  8
0
 10
47.705780
 20
180.443436
  0
VERTEX
  8
0
 10
51.132187
 20
179.518127
  0
VERTEX
  8
0
 10
54.491249
 20
178.641632
  0
VERTEX
  8
0
 10
57.724453
 20
177.834137
  0
VERTEX
  8
0
 10
60.196953
 20
177.245850
  0
VERTEX
  8
0
 10
63.145000
 20
176.582886
  0
VERTEX
  8
0
 10
65.390938
 20
176.109756
  0
VERTEX
  8
0
 10
67.538513
 20
175.687347
  0
VERTEX
  8
0
 10
69.588829
 20
175.315002
  0
VERTEX
  8
0
 10
71.543510
 20
174.992493
  0
VERTEX
  8
0
 10
73.403824
 20
174.719376
  0
VERTEX
  8
0
 10
75.171715
 20
174.495071
  0
VERTEX
  8
0
 10
76.854454
 20
174.315933
  0
VERTEX
  8
0
 10
78.461639
 20
174.177032
  0
VERTEX
  8
0
 10
80.003517
 20
174.073349
  0
VERTEX
  8
0
 10
81.853745
 20
173.985931
  0
VERTEX
  8
0
 10
83.636406
 20
173.936249
  0
VERTEX
  8
0
 10
85.713516
 20
173.912491
  0
VERTEX
  8
0
 10
88.089142
 20
173.915695
  0
VERTEX
  8
0
 10
90.430779
 20
173.941788
  0
VERTEX
  8
0
 10
96.688667
 20
174.079300
  0
SEQEND
  8
0
  0
POLYLINE
  8
0
  0
VERTEX
  8
0
 10
101.681953
 20
338.567169
  0
VERTEX
  8
0
 10
90.554764
 20
344.906097
  0
VERTEX
  8
0
 10
83.185387
 20
349.084839
  0
VERTEX
  8
0
 10
74.410858
 20
354.018127
  0
VERTEX
  8
0
 10
65.495308
 20
359.013428
  0
VERTEX
  8
0
 10
60.105156
 20
362.059509
  0
VERTEX
  8
0
 10
52.027264
 20
366.684845
  0
VERTEX
  8
0
 10
40.491016
 20
373.357635
  0
SEQEND
  8
0
  0
POLYLINE
  8
0
  0
VERTEX
  8
0
 10
94.863747
 20
222.201630
  0
VERTEX
  8
0
 10
87.206871
 20
230.213898
  0
VERTEX
  8
0
 10
84.365700
 20
233.246552
  0
VERTEX
  8
0
 10
82.884453
 20
234.885925
  0
VERTEX
  8
0
 10
81.358513
 20
236.634445
  0
VERTEX
  8
0
 10
80.050232
 20
238.189758
  0
VERTEX
  8
0
 10
78.708359
 20
239.841324
  0
VERTEX
  8
0
 10
76.507027
 20
242.639374
  0
VERTEX
  8
0
 10
70.617111
 20
250.269913
  0
VERTEX
  8
0
 10
63.827263
 20
258.835083
  0
VERTEX
  8
0
 10
62.656406
 20
260.356323
  0
VERTEX
  8
0
 10
61.803825
 20
261.501862
  0
VERTEX
  8
0
 10
61.052422
 20
262.554535
  0
VERTEX
  8
0
 10
60.391247
 20
263.531708
  0
VERTEX
  8
0
 10
59.919998
 20
264.270996
  0
VERTEX
  8
0
 10
59.393749
 20
265.156952
  0
VERTEX
  8
0
 10
58.927341
 20
266.016785
  0
VERTEX
  8
0
 10
58.511326
 20
266.864838
  0
VERTEX
  8
0
 10
58.142967
 20
267.701385
  0
VERTEX
  8
0
 10
57.821404
 20
268.523651
  0
VERTEX
  8
0
 10
57.447498
 20
269.645142
  0
VERTEX
  8
0
 10
57.159920
 20
270.724670
  0
VERTEX
  8
0
 10
56.955704
 20
271.754364
  0
VERTEX
  8
0
 10
56.828514
 20
272.728119
  0
VERTEX
  8
0
 10
56.766403
 20
273.767029
  0
VERTEX
  8
0
 10
56.780312
 20
274.721405
  0
VERTEX
  8
0
 10
56.821796
 20
275.272034
  0
VERTEX
  8
0
 10
56.871872
 20
275.690918
  0
VERTEX
  8
0
 10
57.039219
 20
276.576172
  0
VERTEX
  8
0
 10
57.207966
 20
277.246704
  0
VERTEX
  8
0
 10
57.441406
 20
278.076874
  0
VERTEX
  8
0
 10
58.245232
 20
280.750061
  0
VERTEX
  8
0
 10
59.657967
 20
285.340851
  0
VERTEX
  8
0
 10
61.064999
 20
289.793274
  0
VERTEX
  8
0
 10
62.153671
 20
293.152893
  0
VERTEX
  8
0
 10
63.146248
 20
296.151154
  0
VERTEX
  8
0
 10
66.798203
 20
306.930298
  0
VERTEX
  8
0
 10
68.010002
 20
310.560547
  0
VERTEX
  8
0
 10
69.243752
 20
314.401703
  0
VERTEX
  8
0
 10
70.085388
 20
317.222961
  0
VERTEX
  8
0
 10
70.534767
 20
318.857635
  0
VERTEX
  8
0
 10
70.984840
 20
320.651642
  0
VERTEX
  8
0
 10
71.325470
 20
322.197113
  0
VERTEX
  8
0
 10
71.611481
 20
323.766479
  0
VERTEX
  8
0
 10
71.789375
 20
325.074524
  0
VERTEX
  8
0
 10
71.893120
 20
326.337646
  0
VERTEX
  8
0
 10
71.908516
 20
326.806793
  0
VERTEX
  8
0
 10
71.904533
 20
327.375214
  0
VERTEX
  8
0
 10
71.874840
 20
327.887573
  0
VERTEX
  8
0
 10
71.822189
 20
328.354065
  0
VERTEX
  8
0
 10
71.749214
 20
328.784760
  0
VERTEX
  8
0
 10
71.633125
 20
329.287964
  0
VERTEX
  8
0
 10
71.493042
 20
329.771240
  0
VERTEX
  8
0
 10
71.312424
 20
330.262970
  0
VERTEX
  8
0
 10
71.117027
 20
330.685608
  0
VERTEX
  8
0
 10
70.858513
 20
331.153656
  0
VERTEX
  8
0
 10
70.520157
 20
331.684845
  0
VERTEX
  8
0
 10
70.203979
 20
332.135376
  0
VERTEX
  8
0
 10
69.685783
 20
332.820068
  0
VERTEX
  8
0
 10
69.042107
 20
333.616943
  0
VERTEX
  8
0
 10
67.579216
 20
335.315063
  0
VERTEX
  8
0
 10
65.723511
 20
337.343658
  0
VERTEX
  8
0
 10
63.869373
 20
339.273834
  0
VERTEX
  8
0
 10
62.169529
 20
340.971558
  0
VERTEX
  8
0
 10
60.354374
 20
342.713654
  0
VERTEX
  8
0
 10
58.447266
 20
344.465759
  0
VERTEX
  8
0
 10
56.467030
 20
346.208984
  0
VERTEX
  8
0
 10
54.426250
 20
347.943756
  0
VERTEX
  8
0
 10
51.914295
 20
350.016541
  0
VERTEX
  8
0
 10
49.353516
 20
352.082489
  0
VERTEX
  8
0
 10
45.899139
 20
354.831238
  0
SEQEND
  8
0
  0
POLYLINE
  8
0
  0
VERTEX
  8
0
 10
70.104767
 20
241.869370
  0
VERTEX
  8
0
 10
69.004532
 20
238.225235
  0
VERTEX
  8
0
 10
68.282417
 20
235.649139
  0
VERTEX
  8
0
 10
67.690933
 20
233.291473
  0
VERTEX
  8
0
 10
67.418671
 20
232.081329
  0
VERTEX
  8
0
 10
67.164528
 20
230.855621
  0
VERTEX
  8
0
 10
66.873360
 20
229.324600
  0
VERTEX
  8
0
 10
66.613358
 20
227.822571
  0
VERTEX
  8
0
 10
66.386482
 20
226.379761
  0
VERTEX
  8
0
 10
66.159996
 20
224.768433
  0
VERTEX
  8
0
 10
65.986641
 20
223.337189
  0
VERTEX
  8
0
 10
65.884064
 20
222.302658
  0
VERTEX
  8
0
 10
65.811089
 20
221.218277
  0
VERTEX
  8
0
 10
65.791557
 20
220.412109
  0
VERTEX
  8
0
 10
65.802498
 20
219.810623
  0
VERTEX
  8
0
 10
65.849136
 20
219.088974
  0
VERTEX
  8
0
 10
65.931877
 20
218.374527
  0
VERTEX
  8
0
 10
66.050781
 20
217.641083
  0
VERTEX
  8
0
 10
66.209526
 20
216.878830
  0
VERTEX
  8
0
 10
66.368668
 20
216.246796
  0
VERTEX
  8
0
 10
66.612267
 20
215.427032
  0
VERTEX
  8
0
 10
66.846092
 20
214.745926
  0
VERTEX
  8
0
 10
67.117577
 20
214.041092
  0
VERTEX
  8
0
 10
67.347420
 20
213.496170
  0
VERTEX
  8
0
 10
67.601089
 20
212.936798
  0
VERTEX
  8
0
 10
67.975861
 20
212.169052
  0
VERTEX
  8
0
 10
68.705391
 20
210.785934
  0
VERTEX
  8
0
 10
70.638046
 20
207.273514
  0
VERTEX
  8
0
 10
71.173828
 20
206.210693
  0
VERTEX
  8
0
 10
71.618828
 20
205.231247
  0
VERTEX
  8
0
 10
71.870544
 20
204.622574
  0
VERTEX
  8
0
 10
72.141167
 20
203.909058
  0
VERTEX
  8
0
 10
72.369217
 20
203.245468
  0
VERTEX
  8
0
 10
72.597107
 20
202.511322
  0
VERTEX
  8
0
 10
72.785934
 20
201.839066
  0
VERTEX
  8
0
 10
72.915855
 20
201.300705
  0
VERTEX
  8
0
 10
73.016563
 20
200.740784
  0
VERTEX
  8
0
 10
73.073280
 20
200.250549
  0
VERTEX
  8
0
 10
73.110855
 20
199.551331
  0
VERTEX
  8
0
 10
73.111717
 20
198.897964
  0
VERTEX
  8
0
 10
73.084221
 20
198.138901
  0
VERTEX
  8
0
 10
73.026329
 20
197.254456
  0
VERTEX
  8
0
 10
72.938354
 20
196.242737
  0
VERTEX
  8
0
 10
72.790390
 20
194.822571
  0
VERTEX
  8
0
 10
72.433517
 20
191.927032
  0
VERTEX
  8
0
 10
71.987579
 20
188.753204
  0
VERTEX
  8
0
 10
71.424767
 20
185.111877
  0
VERTEX
  8
0
 10
70.754219
 20
181.070862
  0
VERTEX
  8
0
 10
69.859764
 20
175.900467
  0
SEQEND
  8
0
  0
POLYLINE
  8
0
  0
VERTEX
  8
0
 10
45.230076
 20
185.596558
  0
VERTEX
  8
0
 10
45.713360
 20
187.437576
  0
VERTEX
  8
0
 10
46.026249
 20
188.733597
  0
VERTEX
  8
0
 10
46.250626
 20
189.812332
  0
VERTEX
  8
0
 10
46.410469
 20
190.819061
  0
VERTEX
  8
0
 10
46.494843
 20
191.738983
  0
VERTEX
  8
0
 10
46.511250
 20
192.224289
  0
VERTEX
  8
0
 10
46.506329
 20
192.679993
  0
VERTEX
  8
0
 10
46.481640
 20
193.105850
  0
VERTEX
  8
0
 10
46.438671
 20
193.501480
  0
VERTEX
  8
0
 10
46.379139
 20
193.866943
  0
VERTEX
  8
0
 10
46.304375
 20
194.201874
  0
VERTEX
  8
0
 10
46.165546
 20
194.650223
  0
VERTEX
  8
0
 10
45.991093
 20
195.052032
  0
VERTEX
  8
0
 10
45.776173
 20
195.429993
  0
VERTEX
  8
0
 10
45.515938
 20
195.806717
  0
VERTEX
  8
0
 10
44.774685
 20
196.723663
  0
VERTEX
  8
0
 10
42.750000
 20
199.068985
  0
VERTEX
  8
0
 10
42.029999
 20
199.928986
  0
VERTEX
  8
0
 10
41.398750
 20
200.755692
  0
VERTEX
  8
0
 10
41.125938
 20
201.160080
  0
VERTEX
  8
0
 10
40.931953
 20
201.480392
  0
VERTEX
  8
0
 10
40.722813
 20
201.878281
  0
VERTEX
  8
0
 10
40.583359
 20
202.198517
  0
VERTEX
  8
0
 10
40.443203
 20
202.611954
  0
VERTEX
  8
0
 10
40.357655
 20
202.961563
  0
VERTEX
  8
0
 10
40.283360
 20
203.433273
  0
VERTEX
  8
0
 10
40.249374
 20
203.846878
  0
VERTEX
  8
0
 10
40.237343
 20
204.300003
  0
VERTEX
  8
0
 10
40.252579
 20
204.932266
  0
VERTEX
  8
0
 10
40.303593
 20
205.649841
  0
VERTEX
  8
0
 10
40.376640
 20
206.292648
  0
VERTEX
  8
0
 10
40.484138
 20
207.002655
  0
VERTEX
  8
0
 10
40.631329
 20
207.785614
  0
VERTEX
  8
0
 10
40.823669
 20
208.647263
  0
VERTEX
  8
0
 10
41.000782
 20
209.348358
  0
VERTEX
  8
0
 10
41.285076
 20
210.360855
  0
VERTEX
  8
0
 10
41.537186
 20
211.181641
  0
VERTEX
  8
0
 10
42.140469
 20
212.973114
  0
VERTEX
  8
0
 10
42.837578
 20
214.893585
  0
VERTEX
  8
0
 10
45.200703
 20
221.047180
  0
VERTEX
  8
0
 10
45.820232
 20
222.706787
  0
VERTEX
  8
0
 10
46.417889
 20
224.441238
  0
VERTEX
  8
0
 10
46.805546
 20
225.742966
  0
VERTEX
  8
0
 10
46.998592
 20
226.501953
  0
VERTEX
  8
0
 10
47.196873
 20
227.408432
  0
VERTEX
  8
0
 10
47.363358
 20
228.322495
  0
VERTEX
  8
0
 10
47.473827
 20
229.073593
  0
VERTEX
  8
0
 10
47.566795
 20
229.941010
  0
VERTEX
  8
0
 10
47.607185
 20
230.619217
  0
VERTEX
  8
0
 10
47.610077
 20
231.241562
  0
VERTEX
  8
0
 10
47.571796
 20
231.795151
  0
VERTEX
  8
0
 10
47.510311
 20
232.190460
  0
VERTEX
  8
0
 10
47.393669
 20
232.639053
  0
VERTEX
  8
0
 10
47.231873
 20
233.052887
  0
VERTEX
  8
0
 10
47.024063
 20
233.448975
  0
VERTEX
  8
0
 10
46.712578
 20
233.924530
  0
VERTEX
  8
0
 10
46.331482
 20
234.427963
  0
VERTEX
  8
0
 10
45.879375
 20
234.976715
  0
VERTEX
  8
0
 10
45.355469
 20
235.569366
  0
VERTEX
  8
0
 10
44.758747
 20
236.203278
  0
VERTEX
  8
0
 10
44.205078
 20
236.761169
  0
VERTEX
  8
0
 10
43.472420
 20
237.463593
  0
VERTEX
  8
0
 10
42.805077
 20
238.074448
  0
VERTEX
  8
0
 10
41.031796
 20
239.615616
  0
VERTEX
  8
0
 10
38.452110
 20
241.764603
  0
SEQEND
  8
0
  0
POLYLINE
  8
0
  0
VERTEX
  8
0
 10
90.874298
 20
182.902496
  0
VERTEX
  8
0
 10
77.685234
 20
183.500000
  0
SEQEND
  8
0
  0
POLYLINE
  8
0
  0
VERTEX
  8
0
 10
65.553436
 20
185.274445
  0
VERTEX
  8
0
 10
51.003513
 20
188.727112
  0
SEQEND
  8
0
  0
POLYLINE
  8
0
  0
VERTEX
  8
0
 10
36.899376
 20
192.774521
  0
VERTEX
  8
0
 10
31.886015
 20
194.221329
  0
VERTEX
  8
0
 10
30.035078
 20
189.807098
  0
SEQEND
  8
0
  0
POLYLINE
  8
0
  0
VERTEX
  8
0
 10
14.269688
 20
326.618439
  0
VERTEX
  8
0
 10
12.596562
 20
323.829285
  0
VERTEX
  8
0
 10
11.463202
 20
321.904449
  0
VERTEX
  8
0
 10
10.487890
 20
320.201385
  0
VERTEX
  8
0
 10
9.554688
 20
318.511017
  0
VERTEX
  8
0
 10
8.575234
 20
316.660309
  0
VERTEX
  8
0
 10
7.695313
 20
314.917969
  0
VERTEX
  8
0
 10
6.941172
 20
313.340851
  0
VERTEX
  8
0
 10
6.330312
 20
311.967194
  0
VERTEX
  8
0
 10
5.902578
 20
310.905609
  0
VERTEX
  8
0
 10
5.575390
 20
309.976624
  0
VERTEX
  8
0
 10
5.341015
 20
309.163208
  0
VERTEX
  8
0
 10
5.188281
 20
308.445465
  0
VERTEX
  8
0
 10
5.075625
 20
307.565369
  0
VERTEX
  8
0
 10
5.017969
 20
306.369293
  0
VERTEX
  8
0
 10
5.023047
 20
306.054199
  0
VERTEX
  8
0
 10
5.049375
 20
305.715057
  0
VERTEX
  8
0
 10
5.147656
 20
305.138733
  0
VERTEX
  8
0
 10
5.342500
 20
304.451569
  0
VERTEX
  8
0
 10
5.663203
 20
303.619293
  0
VERTEX
  8
0
 10
6.135156
 20
302.613434
  0
VERTEX
  8
0
 10
6.759375
 20
301.440308
  0
VERTEX
  8
0
 10
7.526640
 20
300.120605
  0
VERTEX
  8
0
 10
8.427500
 20
298.675140
  0
VERTEX
  8
0
 10
9.452969
 20
297.124695
  0
VERTEX
  8
0
 10
10.395703
 20
295.767181
  0
VERTEX
  8
0
 10
12.058516
 20
293.485931
  0
VERTEX
  8
0
 10
14.136015
 20
290.754364
  0
VERTEX
  8
0
 10
22.453671
 20
280.140076
  0
VERTEX
  8
0
 10
25.779453
 20
275.830231
  0
VERTEX
  8
0
 10
27.308907
 20
273.793427
  0
VERTEX
  8
0
 10
28.467733
 20
272.207581
  0
VERTEX
  8
0
 10
29.510311
 20
270.735931
  0
VERTEX
  8
0
 10
30.459373
 20
269.346649
  0
VERTEX
  8
0
 10
31.337578
 20
268.007874
  0
VERTEX
  8
0
 10
32.300701
 20
266.471252
  0
VERTEX
  8
0
 10
33.207970
 20
264.951935
  0
VERTEX
  8
0
 10
34.058281
 20
263.458588
  0
VERTEX
  8
0
 10
34.958904
 20
261.794067
  0
VERTEX
  8
0
 10
35.782265
 20
260.186554
  0
VERTEX
  8
0
 10
36.438828
 20
258.824677
  0
VERTEX
  8
0
 10
37.036953
 20
257.487335
  0
VERTEX
  8
0
 10
37.649998
 20
255.966095
  0
VERTEX
  8
0
 10
38.189060
 20
254.427109
  0
VERTEX
  8
0
 10
38.595390
 20
253.044128
  0
VERTEX
  8
0
 10
38.879139
 20
251.815308
  0
VERTEX
  8
0
 10
38.993828
 20
251.181473
  0
VERTEX
  8
0
 10
39.087891
 20
250.532501
  0
VERTEX
  8
0
 10
39.193905
 20
249.412643
  0
VERTEX
  8
0
 10
39.224140
 20
248.715073
  0
VERTEX
  8
0
 10
39.227032
 20
247.996323
  0
VERTEX
  8
0
 10
39.168282
 20
246.750153
  0
VERTEX
  8
0
 10
39.098358
 20
245.982178
  0
VERTEX
  8
0
 10
38.971874
 20
244.949921
  0
VERTEX
  8
0
 10
38.814766
 20
243.924133
  0
VERTEX
  8
0
 10
38.634998
 20
242.922501
  0
VERTEX
  8
0
 10
38.391094
 20
241.731003
  0
VERTEX
  8
0
 10
38.140156
 20
240.638977
  0
VERTEX
  8
0
 10
37.851639
 20
239.505936
  0
VERTEX
  8
0
 10
37.585781
 20
238.575623
  0
VERTEX
  8
0
 10
37.377892
 20
237.931473
  0
VERTEX
  8
0
 10
37.178516
 20
237.385071
  0
VERTEX
  8
0
 10
36.945389
 20
236.830002
  0
VERTEX
  8
0
 10
36.713360
 20
236.351715
  0
VERTEX
  8
0
 10
36.437031
 20
235.849136
  0
VERTEX
  8
0
 10
36.153984
 20
235.386398
  0
VERTEX
  8
0
 10
35.366016
 20
234.247101
  0
SEQEND
  8
0
  0
POLYLINE
  8
0
  0
VERTEX
  8
0
 10
51.426014
 20
348.081879
  0
VERTEX
  8
0
 10
50.939140
 20
348.054199
  0
VERTEX
  8
0
 10
50.499844
 20
347.842346
  0
VERTEX
  8
0
 10
50.175076
 20
347.478577
  0
VERTEX
  8
0
 10
50.014217
 20
347.018127
  0
VERTEX
  8
0
 10
50.041874
 20
346.531097
  0
VERTEX
  8
0
 10
50.253826
 20
346.091797
  0
VERTEX
  8
0
 10
50.617657
 20
345.767029
  0
VERTEX
  8
0
 10
51.078125
 20
345.606232
  0
VERTEX
  8
0
 10
51.565079
 20
345.633911
  0
VERTEX
  8
0
 10
52.004295
 20
345.845764
  0
VERTEX
  8
0
 10
52.329140
 20
346.209686
  0
VERTEX
  8
0
 10
52.489922
 20
346.670135
  0
VERTEX
  8
0
 10
52.462265
 20
347.157013
  0
VERTEX
  8
0
 10
52.250313
 20
347.596405
  0
VERTEX
  8
0
 10
51.886482
 20
347.921082
  0
VERTEX
  8
0
 10
51.426014
 20
348.081879
  0
SEQEND
  8
0
  0
POLYLINE
  8
0
  0
VERTEX
  8
0
 10
45.639687
 20
366.248901
  0
VERTEX
  8
0
 10
45.152733
 20
366.221252
  0
VERTEX
  8
0
 10
44.713436
 20
366.009216
  0
VERTEX
  8
0
 10
44.388672
 20
365.645447
  0
VERTEX
  8
0
 10
44.227890
 20
365.184998
  0
VERTEX
  8
0
 10
44.255466
 20
364.697968
  0
VERTEX
  8
0
 10
44.467422
 20
364.258728
  0
VERTEX
  8
0
 10
44.831249
 20
363.934052
  0
VERTEX
  8
0
 10
45.291718
 20
363.773285
  0
VERTEX
  8
0
 10
45.778671
 20
363.800934
  0
VERTEX
  8
0
 10
46.217888
 20
364.012634
  0
VERTEX
  8
0
 10
46.542732
 20
364.376556
  0
VERTEX
  8
0
 10
46.703514
 20
364.837036
  0
VERTEX
  8
0
 10
46.675858
 20
365.323883
  0
VERTEX
  8
0
 10
46.463905
 20
365.763275
  0
VERTEX
  8
0
 10
46.100079
 20
366.088104
  0
VERTEX
  8
0
 10
45.639687
 20
366.248901
  0
SEQEND
  8
0
  0
POLYLINE
  8
0
  0
VERTEX
  8
0
 10
16.718203
 20
326.547272
  0
VERTEX
  8
0
 10
16.231249
 20
326.519592
  0
VERTEX
  8
0
 10
15.791953
 20
326.307739
  0
VERTEX
  8
0
 10
15.467187
 20
325.943909
  0
VERTEX
  8
0
 10
15.306406
 20
325.483429
  0
VERTEX
  8
0
 10
15.334063
 20
324.996490
  0
VERTEX
  8
0
 10
15.545938
 20
324.557190
  0
VERTEX
  8
0
 10
15.909765
 20
324.232422
  0
VERTEX
  8
0
 10
16.370234
 20
324.071625
  0
VERTEX
  8
0
 10
16.857187
 20
324.099304
  0
VERTEX
  8
0
 10
17.296484
 20
324.311096
  0
VERTEX
  8
0
 10
17.621250
 20
324.674988
  0
VERTEX
  8
0
 10
17.782030
 20
325.135468
  0
VERTEX
  8
0
 10
17.754375
 20
325.622406
  0
VERTEX
  8
0
 10
17.542578
 20
326.061707
  0
VERTEX
  8
0
 10
17.178671
 20
326.386475
  0
VERTEX
  8
0
 10
16.718203
 20
326.547272
  0
SEQEND
  8
0
  0
POLYLINE
  8
0
  0
VERTEX
  8
0
 10
76.520470
 20
548.475220
  0
VERTEX
  8
0
 10
76.858749
 20
535.020203
  0
VERTEX
  8
0
 10
77.045937
 20
525.673523
  0
VERTEX
  8
0
 10
77.155624
 20
517.041626
  0
VERTEX
  8
0
 10
77.177574
 20
512.614441
  0
VERTEX
  8
0
 10
77.173042
 20
508.972870
  0
VERTEX
  8
0
 10
77.145073
 20
505.213104
  0
VERTEX
  8
0
 10
77.089996
 20
501.308197
  0
VERTEX
  8
0
 10
77.004295
 20
497.230835
  0
VERTEX
  8
0
 10
76.917732
 20
494.043335
  0
VERTEX
  8
0
 10
76.810387
 20
490.732269
  0
VERTEX
  8
0
 10
76.633591
 20
486.119904
  0
VERTEX
  8
0
 10
76.420624
 20
481.328583
  0
VERTEX
  8
0
 10
76.175468
 20
476.419128
  0
VERTEX
  8
0
 10
75.679451
 20
467.727264
  0
VERTEX
  8
0
 10
75.198982
 20
460.386078
  0
VERTEX
  8
0
 10
74.680626
 20
453.363281
  0
VERTEX
  8
0
 10
74.135468
 20
446.827332
  0
VERTEX
  8
0
 10
73.663673
 20
441.699677
  0
VERTEX
  8
0
 10
73.177032
 20
436.750153
  0
VERTEX
  8
0
 10
71.419922
 20
419.842499
  0
VERTEX
  8
0
 10
70.544998
 20
411.106323
  0
VERTEX
  8
0
 10
69.420464
 20
399.442505
  0
VERTEX
  8
0
 10
67.814690
 20
382.359375
  0
VERTEX
  8
0
 10
61.809841
 20
388.509521
  0
VERTEX
  8
0
 10
57.431404
 20
393.026642
  0
VERTEX
  8
0
 10
53.708202
 20
396.912323
  0
VERTEX
  8
0
 10
50.630310
 20
400.174530
  0
VERTEX
  8
0
 10
46.952812
 20
404.145233
  0
VERTEX
  8
0
 10
43.598358
 20
407.840546
  0
VERTEX
  8
0
 10
40.259373
 20
411.592651
  0
VERTEX
  8
0
 10
37.327499
 20
414.956543
  0
VERTEX
  8
0
 10
34.754063
 20
417.988281
  0
VERTEX
  8
0
 10
32.478516
 20
420.761780
  0
VERTEX
  8
0
 10
30.446875
 20
423.344849
  0
VERTEX
  8
0
 10
28.821014
 20
425.524292
  0
VERTEX
  8
0
 10
28.004843
 20
426.675293
  0
VERTEX
  8
0
 10
27.398281
 20
427.565308
  0
VERTEX
  8
0
 10
26.833984
 20
428.427795
  0
VERTEX
  8
0
 10
26.312967
 20
429.262726
  0
VERTEX
  8
0
 10
25.835077
 20
430.070374
  0
VERTEX
  8
0
 10
25.296797
 20
431.042480
  0
VERTEX
  8
0
 10
24.912109
 20
431.790680
  0
VERTEX
  8
0
 10
24.486874
 20
432.690308
  0
VERTEX
  8
0
 10
23.991875
 20
433.884918
  0
VERTEX
  8
0
 10
23.759453
 20
434.534515
  0
VERTEX
  8
0
 10
23.562187
 20
435.160706
  0
VERTEX
  8
0
 10
23.397186
 20
435.762970
  0
VERTEX
  8
0
 10
23.260702
 20
436.340057
  0
VERTEX
  8
0
 10
23.038280
 20
437.541168
  0
VERTEX
  8
0
 10
22.840467
 20
439.117188
  0
VERTEX
  8
0
 10
22.798985
 20
439.840454
  0
VERTEX
  8
0
 10
22.820547
 20
440.327332
  0
VERTEX
  8
0
 10
22.869062
 20
440.760223
  0
VERTEX
  8
0
 10
22.951952
 20
441.271484
  0
VERTEX
  8
0
 10
23.074921
 20
441.878815
  0
VERTEX
  8
0
 10
23.465235
 20
443.454590
  0
VERTEX
  8
0
 10
23.965235
 20
445.220703
  0
VERTEX
  8
0
 10
24.786718
 20
447.923431
  0
VERTEX
  8
0
 10
25.795858
 20
451.113342
  0
VERTEX
  8
0
 10
27.124062
 20
455.209686
  0
VERTEX
  8
0
 10
28.516874
 20
459.436798
  0
VERTEX
  8
0
 10
34.566093
 20
477.565369
  0
VERTEX
  8
0
 10
35.805157
 20
481.420990
  0
VERTEX
  8
0
 10
36.730938
 20
484.484589
  0
VERTEX
  8
0
 10
37.129688
 20
485.925781
  0
VERTEX
  8
0
 10
37.428360
 20
487.131775
  0
VERTEX
  8
0
 10
37.638515
 20
488.151459
  0
VERTEX
  8
0
 10
37.787342
 20
489.160706
  0
VERTEX
  8
0
 10
37.831249
 20
489.627716
  0
VERTEX
  8
0
 10
37.862419
 20
490.197266
  0
VERTEX
  8
0
 10
37.862186
 20
491.116638
  0
VERTEX
  8
0
 10
37.830467
 20
491.587952
  0
VERTEX
  8
0
 10
37.788357
 20
491.948334
  0
VERTEX
  8
0
 10
37.646954
 20
492.690704
  0
VERTEX
  8
0
 10
37.542969
 20
493.074524
  0
VERTEX
  8
0
 10
37.413750
 20
493.467957
  0
VERTEX
  8
0
 10
37.257030
 20
493.871857
  0
VERTEX
  8
0
 10
37.070389
 20
494.287415
  0
VERTEX
  8
0
 10
36.689529
 20
495.006226
  0
VERTEX
  8
0
 10
36.123592
 20
495.908264
  0
VERTEX
  8
0
 10
35.449375
 20
496.846863
  0
VERTEX
  8
0
 10
34.678204
 20
497.814911
  0
VERTEX
  8
0
 10
33.821251
 20
498.805237
  0
VERTEX
  8
0
 10
32.725235
 20
499.982178
  0
VERTEX
  8
0
 10
31.863125
 20
500.854828
  0
VERTEX
  8
0
 10
30.701406
 20
501.978729
  0
VERTEX
  8
0
 10
29.596483
 20
503.010681
  0
VERTEX
  8
0
 10
28.067577
 20
504.403046
  0
VERTEX
  8
0
 10
23.830391
 20
508.171875
  0
VERTEX
  8
0
 10
14.331484
 20
516.520386
  0
VERTEX
  8
0
 10
11.335156
 20
519.171814
  0
VERTEX
  8
0
 10
8.519375
 20
521.716187
  0
VERTEX
  8
0
 10
7.340781
 20
522.814453
  0
VERTEX
  8
0
 10
6.263906
 20
523.846497
  0
VERTEX
  8
0
 10
4.803437
 20
525.301941
  0
VERTEX
  8
0
 10
3.552891
 20
526.613525
  0
VERTEX
  8
0
 10
2.544531
 20
527.739441
  0
VERTEX
  8
0
 10
1.806875
 20
528.644592
  0
VERTEX
  8
0
 10
1.414219
 20
529.221802
  0
VERTEX
  8
0
 10
1.253516
 20
529.520996
  0
VERTEX
  8
0
 10
1.160703
 20
529.737244
  0
VERTEX
  8
0
 10
1.090234
 20
529.950562
  0
VERTEX
  8
0
 10
1.028359
 20
530.236328
  0
VERTEX
  8
0
 10
1.000156
 20
530.531799
  0
VERTEX
  8
0
 10
1.002656
 20
530.844604
  0
VERTEX
  8
0
 10
1.034844
 20
531.178650
  0
VERTEX
  8
0
 10
1.097031
 20
531.535522
  0
VERTEX
  8
0
 10
1.278594
 20
532.219910
  0
VERTEX
  8
0
 10
1.601094
 20
533.104431
  0
VERTEX
  8
0
 10
2.048125
 20
534.110046
  0
VERTEX
  8
0
 10
2.462578
 20
534.948975
  0
VERTEX
  8
0
 10
2.936328
 20
535.859131
  0
VERTEX
  8
0
 10
7.305234
 20
544.031799
  0
VERTEX
  8
0
 10
7.948594
 20
545.172729
  0
VERTEX
  8
0
 10
8.443906
 20
545.999146
  0
VERTEX
  8
0
 10
9.025781
 20
546.900085
  0
VERTEX
  8
0
 10
9.525547
 20
547.604431
  0
VERTEX
  8
0
 10
9.999609
 20
548.207092
  0
VERTEX
  8
0
 10
10.324453
 20
548.562073
  0
VERTEX
  8
0
 10
10.469609
 20
548.682251
  0
VERTEX
  8
0
 10
10.628047
 20
548.781494
  0
VERTEX
  8
0
 10
10.806641
 20
548.858521
  0
VERTEX
  8
0
 10
10.940156
 20
548.896790
  0
VERTEX
  8
0
 10
11.338984
 20
548.944275
  0
VERTEX
  8
0
 10
11.741718
 20
548.929932
  0
VERTEX
  8
0
 10
12.235859
 20
548.865234
  0
VERTEX
  8
0
 10
13.001484
 20
548.711182
  0
VERTEX
  8
0
 10
13.724688
 20
548.533508
  0
VERTEX
  8
0
 10
14.743593
 20
548.253357
  0
VERTEX
  8
0
 10
15.864219
 20
547.919312
  0
VERTEX
  8
0
 10
17.303984
 20
547.463806
  0
VERTEX
  8
0
 10
19.557890
 20
546.710510
  0
VERTEX
  8
0
 10
22.346561
 20
545.731140
  0
VERTEX
  8
0
 10
31.250624
 20
542.467712
  0
VERTEX
  8
0
 10
34.416798
 20
541.329102
  0
VERTEX
  8
0
 10
37.400467
 20
540.304749
  0
VERTEX
  8
0
 10
39.524765
 20
539.635193
  0
VERTEX
  8
0
 10
40.509998
 20
539.359436
  0
VERTEX
  8
0
 10
41.226326
 20
539.179749
  0
VERTEX
  8
0
 10
42.161797
 20
538.977112
  0
VERTEX
  8
0
 10
42.856094
 20
538.853821
  0
VERTEX
  8
0
 10
43.550232
 20
538.755859
  0
VERTEX
  8
0
 10
44.250000
 20
538.683655
  0
VERTEX
  8
0
 10
44.961014
 20
538.638184
  0
VERTEX
  8
0
 10
45.688904
 20
538.619751
  0
VERTEX
  8
0
 10
46.692188
 20
538.638489
  0
VERTEX
  8
0
 10
47.736717
 20
538.708679
  0
VERTEX
  8
0
 10
48.826248
 20
538.832092
  0
VERTEX
  8
0
 10
49.964294
 20
539.010864
  0
VERTEX
  8
0
 10
51.154610
 20
539.246643
  0
VERTEX
  8
0
 10
52.400936
 20
539.541626
  0
VERTEX
  8
0
 10
53.706951
 20
539.897400
  0
VERTEX
  8
0
 10
55.076248
 20
540.316467
  0
VERTEX
  8
0
 10
56.871563
 20
540.923523
  0
VERTEX
  8
0
 10
59.110466
 20
541.745056
  0
VERTEX
  8
0
 10
61.390858
 20
542.629272
  0
VERTEX
  8
0
 10
66.572105
 20
544.704285
  0
VERTEX
  8
0
 10
69.272575
 20
545.763184
  0
VERTEX
  8
0
 10
72.398048
 20
546.950684
  0
VERTEX
  8
0
 10
76.520470
 20
548.475220
  0
SEQEND
  8
0
  0
POLYLINE
  8
0
  0
VERTEX
  8
0
 10
11.944297
 20
529.888672
  0
VERTEX
  8
0
 10
15.703280
 20
539.714905
  0
SEQEND
  8
0
  0
POLYLINE
  8
0
  0
VERTEX
  8
0
 10
19.660078
 20
515.732971
  0
VERTEX
  8
0
 10
22.282343
 20
520.133972
  0
SEQEND
  8
0
  0
POLYLINE
  8
0
  0
VERTEX
  8
0
 10
29.568125
 20
535.673950
  0
VERTEX
  8
0
 10
31.035467
 20
539.559753
  0
SEQEND
  8
0
  0
POLYLINE
  8
0
  0
VERTEX
  8
0
 10
38.670624
 20
436.986084
  0
VERTEX
  8
0
 10
30.694218
 20
440.799927
  0
SEQEND
  8
0
  0
POLYLINE
  8
0
  0
VERTEX
  8
0
 10
53.558907
 20
482.115936
  0
VERTEX
  8
0
 10
44.512733
 20
486.650757
  0
SEQEND
  8
0
  0
POLYLINE
  8
0
  0
VERTEX
  8
0
 10
41.131561
 20
419.042480
  0
VERTEX
  8
0
 10
44.045235
 20
427.612885
  0
VERTEX
  8
0
 10
46.291874
 20
434.315918
  0
VERTEX
  8
0
 10
48.032578
 20
439.597321
  0
VERTEX
  8
0
 10
52.170391
 20
452.275452
  0
VERTEX
  8
0
 10
54.382656
 20
458.949768
  0
VERTEX
  8
0
 10
56.800468
 20
466.084442
  0
VERTEX
  8
0
 10
59.385387
 20
473.534363
  0
VERTEX
  8
0
 10
61.357109
 20
479.118195
  0
VERTEX
  8
0
 10
63.294216
 20
484.526855
  0
VERTEX
  8
0
 10
65.139763
 20
489.605621
  0
VERTEX
  8
0
 10
66.839218
 20
494.205078
  0
VERTEX
  8
0
 10
68.380470
 20
498.300781
  0
VERTEX
  8
0
 10
69.794922
 20
501.992493
  0
VERTEX
  8
0
 10
71.328827
 20
505.929443
  0
VERTEX
  8
0
 10
73.403046
 20
511.180450
  0
SEQEND
  8
0
  0
POLYLINE
  8
0
  0
VERTEX
  8
0
 10
19.712421
 20
516.731628
  0
VERTEX
  8
0
 10
19.326328
 20
516.675537
  0
VERTEX
  8
0
 10
18.990936
 20
516.476013
  0
VERTEX
  8
0
 10
18.757578
 20
516.163452
  0
VERTEX
  8
0
 10
18.661484
 20
515.785278
  0
VERTEX
  8
0
 10
18.717499
 20
515.399109
  0
VERTEX
  8
0
 10
18.916952
 20
515.063721
  0
VERTEX
  8
0
 10
19.229609
 20
514.830383
  0
VERTEX
  8
0
 10
19.607735
 20
514.734375
  0
VERTEX
  8
0
 10
19.993906
 20
514.790283
  0
VERTEX
  8
0
 10
20.329218
 20
514.989746
  0
VERTEX
  8
0
 10
20.562656
 20
515.302429
  0
VERTEX
  8
0
 10
20.658749
 20
515.680603
  0
VERTEX
  8
0
 10
20.602734
 20
516.066772
  0
VERTEX
  8
0
 10
20.403202
 20
516.402039
  0
VERTEX
  8
0
 10
20.090624
 20
516.635559
  0
VERTEX
  8
0
 10
19.712421
 20
516.731628
  0
SEQEND
  8
0
  0
POLYLINE
  8
0
  0
VERTEX
  8
0
 10
22.334686
 20
521.132568
  0
VERTEX
  8
0
 10
21.948593
 20
521.076477
  0
VERTEX
  8
0
 10
21.613281
 20
520.876953
  0
VERTEX
  8
0
 10
21.379843
 20
520.564453
  0
VERTEX
  8
0
 10
21.283749
 20
520.186340
  0
VERTEX
  8
0
 10
21.339766
 20
519.800049
  0
VERTEX
  8
0
 10
21.539297
 20
519.464783
  0
VERTEX
  8
0
 10
21.851875
 20
519.231323
  0
VERTEX
  8
0
 10
22.230000
 20
519.135376
  0
VERTEX
  8
0
 10
22.616249
 20
519.191345
  0
VERTEX
  8
0
 10
22.951563
 20
519.390686
  0
VERTEX
  8
0
 10
23.184999
 20
519.703369
  0
VERTEX
  8
0
 10
23.281015
 20
520.081604
  0
VERTEX
  8
0
 10
23.225000
 20
520.467712
  0
VERTEX
  8
0
 10
23.025625
 20
520.803040
  0
VERTEX
  8
0
 10
22.712891
 20
521.036499
  0
VERTEX
  8
0
 10
22.334686
 20
521.132568
  0
SEQEND
  8
0
  0
POLYLINE
  8
0
  0
VERTEX
  8
0
 10
29.620468
 20
536.672546
  0
VERTEX
  8
0
 10
29.234375
 20
536.616638
  0
VERTEX
  8
0
 10
28.898983
 20
536.417114
  0
VERTEX
  8
0
 10
28.665546
 20
536.104431
  0
VERTEX
  8
0
 10
28.569530
 20
535.726318
  0
VERTEX
  8
0
 10
28.625467
 20
535.340210
  0
VERTEX
  8
0
 10
28.824999
 20
535.004761
  0
VERTEX
  8
0
 10
29.137655
 20
534.771301
  0
VERTEX
  8
0
 10
29.515781
 20
534.675354
  0
VERTEX
  8
0
 10
29.901953
 20
534.731323
  0
VERTEX
  8
0
 10
30.237265
 20
534.930847
  0
VERTEX
  8
0
 10
30.470781
 20
535.243530
  0
VERTEX
  8
0
 10
30.566795
 20
535.621643
  0
VERTEX
  8
0
 10
30.510780
 20
536.007751
  0
VERTEX
  8
0
 10
30.311327
 20
536.343018
  0
VERTEX
  8
0
 10
29.998671
 20
536.576477
  0
VERTEX
  8
0
 10
29.620468
 20
536.672546
  0
SEQEND
  8
0
  0
POLYLINE
  8
0
  0
VERTEX
  8
0
 10
31.087812
 20
540.558533
  0
VERTEX
  8
0
 10
30.701717
 20
540.502380
  0
VERTEX
  8
0
 10
30.366327
 20
540.303040
  0
VERTEX
  8
0
 10
30.132969
 20
539.990234
  0
VERTEX
  8
0
 10
30.036875
 20
539.612122
  0
VERTEX
  8
0
 10
30.092890
 20
539.226013
  0
VERTEX
  8
0
 10
30.292343
 20
538.890686
  0
VERTEX
  8
0
 10
30.605000
 20
538.657227
  0
VERTEX
  8
0
 10
30.983124
 20
538.561157
  0
VERTEX
  8
0
 10
31.369375
 20
538.617126
  0
VERTEX
  8
0
 10
31.704609
 20
538.816650
  0
VERTEX
  8
0
 10
31.938124
 20
539.129272
  0
VERTEX
  8
0
 10
32.034142
 20
539.507385
  0
VERTEX
  8
0
 10
31.978125
 20
539.893677
  0
VERTEX
  8
0
 10
31.778671
 20
540.228943
  0
VERTEX
  8
0
 10
31.466015
 20
540.462402
  0
VERTEX
  8
0
 10
31.087812
 20
540.558533
  0
SEQEND
  8
0
  0
POLYLINE
  8
0
  0
VERTEX
  8
0
 10
12.048906
 20
531.885986
  0
VERTEX
  8
0
 10
11.426641
 20
531.820557
  0
VERTEX
  8
0
 10
10.855000
 20
531.565979
  0
VERTEX
  8
0
 10
10.389999
 20
531.147400
  0
VERTEX
  8
0
 10
10.077109
 20
530.605408
  0
VERTEX
  8
0
 10
9.947031
 20
529.993347
  0
VERTEX
  8
0
 10
10.012422
 20
529.371033
  0
VERTEX
  8
0
 10
10.266953
 20
528.799255
  0
VERTEX
  8
0
 10
10.685625
 20
528.334412
  0
VERTEX
  8
0
 10
11.227500
 20
528.021484
  0
VERTEX
  8
0
 10
11.839609
 20
527.891479
  0
VERTEX
  8
0
 10
12.461953
 20
527.956787
  0
VERTEX
  8
0
 10
13.033515
 20
528.211304
  0
VERTEX
  8
0
 10
13.498593
 20
528.629883
  0
VERTEX
  8
0
 10
13.811406
 20
529.171936
  0
VERTEX
  8
0
 10
13.941563
 20
529.783997
  0
VERTEX
  8
0
 10
13.876094
 20
530.406311
  0
VERTEX
  8
0
 10
13.621640
 20
530.978027
  0
VERTEX
  8
0
 10
13.202890
 20
531.443054
  0
VERTEX
  8
0
 10
12.661016
 20
531.755859
  0
VERTEX
  8
0
 10
12.048906
 20
531.885986
  0
SEQEND
  8
0
  0
POLYLINE
  8
0
  0
VERTEX
  8
0
 10
15.807968
 20
541.712280
  0
VERTEX
  8
0
 10
15.185625
 20
541.646912
  0
VERTEX
  8
0
 10
14.613984
 20
541.392395
  0
VERTEX
  8
0
 10
14.148984
 20
540.973633
  0
VERTEX
  8
0
 10
13.836094
 20
540.431763
  0
VERTEX
  8
0
 10
13.706016
 20
539.819580
  0
VERTEX
  8
0
 10
13.771406
 20
539.197388
  0
VERTEX
  8
0
 10
14.025937
 20
538.625671
  0
VERTEX
  8
0
 10
14.444609
 20
538.160706
  0
VERTEX
  8
0
 10
14.986562
 20
537.847900
  0
VERTEX
  8
0
 10
15.598594
 20
537.717712
  0
VERTEX
  8
0
 10
16.220860
 20
537.783203
  0
VERTEX
  8
0
 10
16.792578
 20
538.037720
  0
VERTEX
  8
0
 10
17.257500
 20
538.456299
  0
VERTEX
  8
0
 10
17.570391
 20
538.998352
  0
VERTEX
  8
0
 10
17.700546
 20
539.610229
  0
VERTEX
  8
0
 10
17.635078
 20
540.232727
  0
VERTEX
  8
0
 10
17.380547
 20
540.804260
  0
VERTEX
  8
0
 10
16.961952
 20
541.269287
  0
VERTEX
  8
0
 10
16.420000
 20
541.582275
  0
VERTEX
  8
0
 10
15.807968
 20
541.712280
  0
SEQEND
  8
0
  0
POLYLINE
  8
0
  0
VERTEX
  8
0
 10
16.788046
 20
651.698730
  0
VERTEX
  8
0
 10
16.434765
 20
644.391724
  0
VERTEX
  8
0
 10
16.220234
 20
639.459229
  0
VERTEX
  8
0
 10
16.132891
 20
636.531311
  0
VERTEX
  8
0
 10
16.119453
 20
634.341858
  0
VERTEX
  8
0
 10
16.138281
 20
633.313049
  0
VERTEX
  8
0
 10
16.177578
 20
632.335449
  0
VERTEX
  8
0
 10
16.238594
 20
631.412537
  0
VERTEX
  8
0
 10
16.344141
 20
630.335510
  0
VERTEX
  8
0
 10
16.450546
 20
629.534546
  0
VERTEX
  8
0
 10
16.609375
 20
628.607788
  0
VERTEX
  8
0
 10
16.755703
 20
627.925476
  0
VERTEX
  8
0
 10
16.960781
 20
627.145081
  0
VERTEX
  8
0
 10
17.236719
 20
626.313416
  0
VERTEX
  8
0
 10
17.546406
 20
625.583862
  0
VERTEX
  8
0
 10
17.897968
 20
624.928528
  0
VERTEX
  8
0
 10
18.092188
 20
624.619507
  0
VERTEX
  8
0
 10
18.372969
 20
624.218750
  0
VERTEX
  8
0
 10
18.931328
 20
623.523804
  0
VERTEX
  8
0
 10
19.586094
 20
622.798401
  0
VERTEX
  8
0
 10
20.430702
 20
621.921448
  0
VERTEX
  8
0
 10
22.322422
 20
620.011719
  0
VERTEX
  8
0
 10
23.125313
 20
619.145752
  0
VERTEX
  8
0
 10
23.498360
 20
618.687622
  0
VERTEX
  8
0
 10
23.810703
 20
618.240479
  0
VERTEX
  8
0
 10
24.037109
 20
617.854919
  0
VERTEX
  8
0
 10
24.283125
 20
617.351379
  0
VERTEX
  8
0
 10
24.556953
 20
616.670044
  0
VERTEX
  8
0
 10
24.844530
 20
615.837158
  0
VERTEX
  8
0
 10
26.632030
 20
610.209534
  0
VERTEX
  8
0
 10
28.740780
 20
603.845093
  0
VERTEX
  8
0
 10
30.449141
 20
598.821716
  0
VERTEX
  8
0
 10
31.804922
 20
594.969360
  0
VERTEX
  8
0
 10
33.061092
 20
591.573669
  0
VERTEX
  8
0
 10
34.221798
 20
588.625244
  0
VERTEX
  8
0
 10
35.284920
 20
586.111877
  0
VERTEX
  8
0
 10
35.829529
 20
584.900452
  0
VERTEX
  8
0
 10
36.383751
 20
583.722900
  0
VERTEX
  8
0
 10
36.948437
 20
582.582092
  0
VERTEX
  8
0
 10
37.524220
 20
581.480774
  0
VERTEX
  8
0
 10
37.963749
 20
580.682312
  0
VERTEX
  8
0
 10
38.559063
 20
579.656311
  0
VERTEX
  8
0
 10
39.160389
 20
578.675598
  0
VERTEX
  8
0
 10
39.762890
 20
577.741211
  0
VERTEX
  8
0
 10
40.361641
 20
576.854614
  0
VERTEX
  8
0
 10
41.097263
 20
575.815247
  0
VERTEX
  8
0
 10
41.809685
 20
574.854492
  0
VERTEX
  8
0
 10
42.620388
 20
573.808899
  0
VERTEX
  8
0
 10
43.376953
 20
572.878296
  0
VERTEX
  8
0
 10
43.978516
 20
572.178650
  0
VERTEX
  8
0
 10
44.683594
 20
571.414001
  0
VERTEX
  8
0
 10
45.271404
 20
570.826538
  0
VERTEX
  8
0
 10
45.872421
 20
570.272644
  0
VERTEX
  8
0
 10
46.498516
 20
569.741577
  0
VERTEX
  8
0
 10
47.160000
 20
569.226990
  0
VERTEX
  8
0
 10
47.718826
 20
568.830078
  0
VERTEX
  8
0
 10
48.306873
 20
568.449280
  0
VERTEX
  8
0
 10
48.927109
 20
568.087463
  0
VERTEX
  8
0
 10
49.582264
 20
567.747559
  0
VERTEX
  8
0
 10
50.098358
 20
567.508484
  0
VERTEX
  8
0
 10
50.821327
 20
567.213562
  0
VERTEX
  8
0
 10
51.391483
 20
567.011658
  0
VERTEX
  8
0
 10
51.986248
 20
566.827515
  0
VERTEX
  8
0
 10
52.814999
 20
566.609619
  0
VERTEX
  8
0
 10
53.680157
 20
566.423218
  0
VERTEX
  8
0
 10
54.577187
 20
566.268188
  0
VERTEX
  8
0
 10
55.267891
 20
566.172668
  0
VERTEX
  8
0
 10
56.209141
 20
566.072388
  0
VERTEX
  8
0
 10
57.169216
 20
566.003296
  0
VERTEX
  8
0
 10
58.143356
 20
565.965149
  0
VERTEX
  8
0
 10
58.880390
 20
565.956726
  0
VERTEX
  8
0
 10
59.867344
 20
565.972351
  0
VERTEX
  8
0
 10
60.853748
 20
566.018127
  0
VERTEX
  8
0
 10
61.833515
 20
566.093750
  0
VERTEX
  8
0
 10
62.800468
 20
566.198608
  0
VERTEX
  8
0
 10
63.748749
 20
566.332397
  0
VERTEX
  8
0
 10
64.672112
 20
566.494690
  0
VERTEX
  8
0
 10
65.344604
 20
566.634827
  0
VERTEX
  8
0
 10
66.209839
 20
566.845703
  0
VERTEX
  8
0
 10
66.832344
 20
567.021851
  0
VERTEX
  8
0
 10
67.627655
 20
567.279724
  0
VERTEX
  8
0
 10
68.385307
 20
567.563416
  0
VERTEX
  8
0
 10
68.930077
 20
567.792480
  0
VERTEX
  8
0
 10
69.627029
 20
568.118896
  0
VERTEX
  8
0
 10
70.292419
 20
568.468567
  0
VERTEX
  8
0
 10
70.928360
 20
568.840637
  0
VERTEX
  8
0
 10
71.537033
 20
569.234192
  0
VERTEX
  8
0
 10
72.120857
 20
569.648438
  0
VERTEX
  8
0
 10
72.683357
 20
570.085327
  0
VERTEX
  8
0
 10
73.229767
 20
570.549133
  0
VERTEX
  8
0
 10
73.632027
 20
570.917480
  0
VERTEX
  8
0
 10
74.162422
 20
571.439819
  0
VERTEX
  8
0
 10
74.690781
 20
572.001892
  0
VERTEX
  8
0
 10
75.222183
 20
572.608276
  0
VERTEX
  8
0
 10
75.761795
 20
573.263611
  0
VERTEX
  8
0
 10
76.455544
 20
574.158447
  0
VERTEX
  8
0
 10
77.026794
 20
574.935974
  0
VERTEX
  8
0
 10
77.607346
 20
575.764587
  0
VERTEX
  8
0
 10
78.192032
 20
576.639893
  0
VERTEX
  8
0
 10
78.775467
 20
577.558044
  0
VERTEX
  8
0
 10
79.352417
 20
578.515015
  0
VERTEX
  8
0
 10
79.917732
 20
579.506470
  0
VERTEX
  8
0
 10
80.466011
 20
580.528687
  0
VERTEX
  8
0
 10
80.862968
 20
581.312866
  0
VERTEX
  8
0
 10
81.246323
 20
582.111023
  0
VERTEX
  8
0
 10
81.737732
 20
583.197205
  0
VERTEX
  8
0
 10
82.092422
 20
584.028503
  0
VERTEX
  8
0
 10
82.548439
 20
585.159729
  0
VERTEX
  8
0
 10
82.986870
 20
586.317322
  0
VERTEX
  8
0
 10
83.409767
 20
587.502014
  0
VERTEX
  8
0
 10
84.118279
 20
589.641541
  0
VERTEX
  8
0
 10
84.795624
 20
591.866760
  0
VERTEX
  8
0
 10
85.546173
 20
594.498352
  0
VERTEX
  8
0
 10
87.522423
 20
601.638062
  0
VERTEX
  8
0
 10
88.217812
 20
604.011841
  0
VERTEX
  8
0
 10
88.931870
 20
606.314453
  0
VERTEX
  8
0
 10
89.764297
 20
608.792969
  0
VERTEX
  8
0
 10
90.500702
 20
610.770325
  0
VERTEX
  8
0
 10
90.923126
 20
611.800293
  0
VERTEX
  8
0
 10
91.241714
 20
612.524048
  0
VERTEX
  8
0
 10
91.889297
 20
613.857117
  0
VERTEX
  8
0
 10
92.221245
 20
614.471497
  0
VERTEX
  8
0
 10
92.560387
 20
615.054382
  0
VERTEX
  8
0
 10
92.908279
 20
615.608215
  0
VERTEX
  8
0
 10
93.387970
 20
616.306091
  0
VERTEX
  8
0
 10
93.761482
 20
616.802185
  0
VERTEX
  8
0
 10
94.148438
 20
617.277771
  0
VERTEX
  8
0
 10
94.549919
 20
617.735168
  0
VERTEX
  8
0
 10
95.105698
 20
618.318054
  0
VERTEX
  8
0
 10
95.679375
 20
618.869995
  0
VERTEX
  8
0
 10
96.411949
 20
619.515991
  0
VERTEX
  8
0
 10
97.002968
 20
619.997498
  0
VERTEX
  8
0
 10
97.737808
 20
620.554749
  0
VERTEX
  8
0
 10
98.314842
 20
620.964661
  0
VERTEX
  8
0
 10
99.012657
 20
621.431885
  0
VERTEX
  8
0
 10
101.433670
 20
622.947876
  0
VERTEX
  8
0
 10
101.936089
 20
623.299500
  0
VERTEX
  8
0
 10
102.305542
 20
623.590210
  0
VERTEX
  8
0
 10
102.563278
 20
623.817932
  0
VERTEX
  8
0
 10
102.804138
 20
624.058472
  0
VERTEX
  8
0
 10
103.168983
 20
624.506165
  0
VERTEX
  8
0
 10
103.366638
 20
624.813965
  0
VERTEX
  8
0
 10
103.489761
 20
625.039856
  0
VERTEX
  8
0
 10
103.661636
 20
625.414612
  0
VERTEX
  8
0
 10
103.768044
 20
625.691406
  0
VERTEX
  8
0
 10
103.961250
 20
626.319031
  0
VERTEX
  8
0
 10
104.089684
 20
626.862305
  0
VERTEX
  8
0
 10
104.204292
 20
627.475708
  0
VERTEX
  8
0
 10
104.305542
 20
628.165894
  0
VERTEX
  8
0
 10
104.393829
 20
628.937073
  0
VERTEX
  8
0
 10
104.492966
 20
630.079590
  0
VERTEX
  8
0
 10
104.572891
 20
631.332458
  0
VERTEX
  8
0
 10
104.635933
 20
632.673706
  0
VERTEX
  8
0
 10
104.720390
 20
635.533325
  0
VERTEX
  8
0
 10
104.774292
 20
639.576538
  0
VERTEX
  8
0
 10
104.789841
 20
644.169983
  0
VERTEX
  8
0
 10
104.771324
 20
649.966003
  0
VERTEX
  8
0
 10
119.850388
 20
652.599121
  0
VERTEX
  8
0
 10
119.808823
 20
643.128784
  0
VERTEX
  8
0
 10
119.751244
 20
637.938965
  0
VERTEX
  8
0
 10
119.653671
 20
633.959900
  0
VERTEX
  8
0
 10
119.505150
 20
630.731323
  0
VERTEX
  8
0
 10
119.404922
 20
629.274414
  0
VERTEX
  8
0
 10
119.269295
 20
627.753662
  0
VERTEX
  8
0
 10
119.104919
 20
626.335815
  0
VERTEX
  8
0
 10
118.906952
 20
625.000549
  0
VERTEX
  8
0
 10
118.672104
 20
623.732239
  0
VERTEX
  8
0
 10
118.398750
 20
622.515137
  0
VERTEX
  8
0
 10
118.075623
 20
621.299683
  0
VERTEX
  8
0
 10
117.688354
 20
620.080200
  0
VERTEX
  8
0
 10
117.332733
 20
619.127930
  0
VERTEX
  8
0
 10
116.927025
 20
618.184692
  0
VERTEX
  8
0
 10
116.451874
 20
617.228210
  0
VERTEX
  8
0
 10
115.906876
 20
616.280273
  0
VERTEX
  8
0
 10
115.309685
 20
615.377563
  0
VERTEX
  8
0
 10
114.681091
 20
614.538513
  0
VERTEX
  8
0
 10
114.019218
 20
613.748169
  0
VERTEX
  8
0
 10
113.236794
 20
612.909851
  0
VERTEX
  8
0
 10
112.422729
 20
612.124146
  0
VERTEX
  8
0
 10
111.491791
 20
611.308960
  0
VERTEX
  8
0
 10
110.538437
 20
610.548950
  0
VERTEX
  8
0
 10
109.582184
 20
609.850708
  0
VERTEX
  8
0
 10
108.739532
 20
609.281128
  0
VERTEX
  8
0
 10
107.872421
 20
608.734131
  0
VERTEX
  8
0
 10
105.920387
 20
607.606873
  0
VERTEX
  8
0
 10
105.554916
 20
607.385742
  0
VERTEX
  8
0
 10
105.429764
 20
607.273010
  0
VERTEX
  8
0
 10
105.336563
 20
607.164490
  0
VERTEX
  8
0
 10
105.227264
 20
606.977173
  0
VERTEX
  8
0
 10
105.096954
 20
606.733398
  0
VERTEX
  8
0
 10
104.957497
 20
606.450867
  0
VERTEX
  8
0
 10
104.778595
 20
606.056763
  0
VERTEX
  8
0
 10
104.286797
 20
604.840820
  0
VERTEX
  8
0
 10
103.718750
 20
603.270386
  0
VERTEX
  8
0
 10
103.177185
 20
601.616211
  0
VERTEX
  8
0
 10
102.761948
 20
600.236084
  0
VERTEX
  8
0
 10
102.301323
 20
598.593750
  0
VERTEX
  8
0
 10
100.657265
 20
592.308899
  0
VERTEX
  8
0
 10
99.757500
 20
589.038513
  0
VERTEX
  8
0
 10
98.873123
 20
586.100037
  0
VERTEX
  8
0
 10
98.389374
 20
584.606079
  0
VERTEX
  8
0
 10
97.779999
 20
582.821716
  0
VERTEX
  8
0
 10
97.148048
 20
581.077515
  0
VERTEX
  8
0
 10
96.497963
 20
579.387573
  0
VERTEX
  8
0
 10
95.834610
 20
577.767700
  0
VERTEX
  8
0
 10
95.282104
 20
576.496460
  0
VERTEX
  8
0
 10
94.595001
 20
575.010620
  0
VERTEX
  8
0
 10
93.894218
 20
573.595154
  0
VERTEX
  8
0
 10
93.185074
 20
572.254578
  0
VERTEX
  8
0
 10
92.469063
 20
570.984131
  0
VERTEX
  8
0
 10
91.748360
 20
569.779358
  0
VERTEX
  8
0
 10
91.019684
 20
568.625977
  0
VERTEX
  8
0
 10
90.146637
 20
567.317627
  0
VERTEX
  8
0
 10
89.375938
 20
566.228210
  0
VERTEX
  8
0
 10
88.575310
 20
565.161255
  0
VERTEX
  8
0
 10
87.735001
 20
564.110535
  0
VERTEX
  8
0
 10
86.851013
 20
563.077881
  0
VERTEX
  8
0
 10
85.930779
 20
562.076416
  0
VERTEX
  8
0
 10
85.133041
 20
561.263672
  0
VERTEX
  8
0
 10
84.136482
 20
560.312622
  0
VERTEX
  8
0
 10
83.095467
 20
559.387939
  0
VERTEX
  8
0
 10
82.023048
 20
558.501343
  0
VERTEX
  8
0
 10
80.921089
 20
557.654541
  0
VERTEX
  8
0
 10
79.790703
 20
556.849854
  0
VERTEX
  8
0
 10
78.646172
 20
556.098816
  0
VERTEX
  8
0
 10
77.670151
 20
555.507568
  0
VERTEX
  8
0
 10
76.486015
 20
554.850769
  0
VERTEX
  8
0
 10
75.457260
 20
554.333008
  0
VERTEX
  8
0
 10
74.215385
 20
553.770935
  0
VERTEX
  8
0
 10
73.154297
 20
553.343506
  0
VERTEX
  8
0
 10
72.091171
 20
552.960754
  0
VERTEX
  8
0
 10
71.010307
 20
552.616211
  0
VERTEX
  8
0
 10
69.901955
 20
552.306396
  0
VERTEX
  8
0
 10
68.550934
 20
551.982849
  0
VERTEX
  8
0
 10
67.190392
 20
551.710327
  0
VERTEX
  8
0
 10
65.841484
 20
551.486389
  0
VERTEX
  8
0
 10
64.508125
 20
551.306213
  0
VERTEX
  8
0
 10
63.194920
 20
551.165405
  0
VERTEX
  8
0
 10
61.895153
 20
551.059509
  0
VERTEX
  8
0
 10
60.391094
 20
550.977783
  0
VERTEX
  8
0
 10
59.118984
 20
550.944458
  0
VERTEX
  8
0
 10
57.860153
 20
550.944763
  0
VERTEX
  8
0
 10
56.592342
 20
550.978943
  0
VERTEX
  8
0
 10
55.094139
 20
551.063477
  0
VERTEX
  8
0
 10
53.581482
 20
551.196533
  0
VERTEX
  8
0
 10
52.257187
 20
551.352783
  0
VERTEX
  8
0
 10
50.896797
 20
551.559509
  0
VERTEX
  8
0
 10
49.717888
 20
551.781616
  0
VERTEX
  8
0
 10
48.273594
 20
552.114502
  0
VERTEX
  8
0
 10
47.037422
 20
552.457703
  0
VERTEX
  8
0
 10
45.794529
 20
552.860352
  0
VERTEX
  8
0
 10
44.536247
 20
553.331482
  0
VERTEX
  8
0
 10
43.285000
 20
553.866333
  0
VERTEX
  8
0
 10
42.060623
 20
554.452515
  0
VERTEX
  8
0
 10
40.865780
 20
555.084045
  0
VERTEX
  8
0
 10
39.700779
 20
555.757202
  0
VERTEX
  8
0
 10
38.566639
 20
556.469177
  0
VERTEX
  8
0
 10
37.465389
 20
557.218140
  0
VERTEX
  8
0
 10
36.415001
 20
557.991150
  0
VERTEX
  8
0
 10
35.608982
 20
558.627563
  0
VERTEX
  8
0
 10
34.636013
 20
559.453796
  0
VERTEX
  8
0
 10
33.709923
 20
560.307190
  0
VERTEX
  8
0
 10
32.836170
 20
561.177307
  0
VERTEX
  8
0
 10
31.868906
 20
562.221863
  0
VERTEX
  8
0
 10
31.121874
 20
563.090698
  0
VERTEX
  8
0
 10
30.292578
 20
564.120056
  0
VERTEX
  8
0
 10
29.398594
 20
565.305786
  0
VERTEX
  8
0
 10
28.571093
 20
566.465637
  0
VERTEX
  8
0
 10
27.785000
 20
567.622498
  0
VERTEX
  8
0
 10
26.918827
 20
568.963257
  0
VERTEX
  8
0
 10
26.085155
 20
570.319885
  0
VERTEX
  8
0
 10
25.274139
 20
571.698364
  0
VERTEX
  8
0
 10
24.557186
 20
572.966492
  0
VERTEX
  8
0
 10
23.803514
 20
574.378601
  0
VERTEX
  8
0
 10
23.136406
 20
575.715088
  0
VERTEX
  8
0
 10
22.574062
 20
576.909668
  0
VERTEX
  8
0
 10
21.991796
 20
578.212280
  0
VERTEX
  8
0
 10
21.380547
 20
579.648682
  0
VERTEX
  8
0
 10
20.735937
 20
581.234314
  0
VERTEX
  8
0
 10
20.054375
 20
582.977417
  0
VERTEX
  8
0
 10
18.652967
 20
586.709656
  0
VERTEX
  8
0
 10
16.737577
 20
592.023804
  0
VERTEX
  8
0
 10
14.683672
 20
597.908325
  0
VERTEX
  8
0
 10
13.687109
 20
600.838135
  0
VERTEX
  8
0
 10
12.900859
 20
603.210083
  0
VERTEX
  8
0
 10
11.273125
 20
608.357971
  0
VERTEX
  8
0
 10
11.117890
 20
608.795837
  0
VERTEX
  8
0
 10
11.023281
 20
609.024414
  0
VERTEX
  8
0
 10
10.948438
 20
609.173523
  0
VERTEX
  8
0
 10
10.852968
 20
609.333130
  0
VERTEX
  8
0
 10
10.625703
 20
609.666382
  0
VERTEX
  8
0
 10
10.239453
 20
610.182312
  0
VERTEX
  8
0
 10
9.636093
 20
610.937622
  0
VERTEX
  8
0
 10
8.873593
 20
611.843811
  0
VERTEX
  8
0
 10
6.443203
 20
614.576294
  0
VERTEX
  8
0
 10
5.724453
 20
615.463989
  0
VERTEX
  8
0
 10
5.032109
 20
616.422668
  0
VERTEX
  8
0
 10
4.537109
 20
617.196228
  0
VERTEX
  8
0
 10
4.056719
 20
618.032776
  0
VERTEX
  8
0
 10
3.391172
 20
619.387146
  0
VERTEX
  8
0
 10
2.800234
 20
620.872620
  0
VERTEX
  8
0
 10
2.317656
 20
622.400269
  0
VERTEX
  8
0
 10
1.971953
 20
623.788330
  0
VERTEX
  8
0
 10
1.697969
 20
625.199768
  0
VERTEX
  8
0
 10
1.483672
 20
626.662964
  0
VERTEX
  8
0
 10
1.320078
 20
628.193970
  0
VERTEX
  8
0
 10
1.197734
 20
629.818115
  0
VERTEX
  8
0
 10
1.108281
 20
631.571533
  0
VERTEX
  8
0
 10
1.038594
 20
633.794922
  0
VERTEX
  8
0
 10
1.006094
 20
635.857849
  0
VERTEX
  8
0
 10
1.000000
 20
638.002197
  0
VERTEX
  8
0
 10
1.021875
 20
640.186096
  0
VERTEX
  8
0
 10
1.073516
 20
642.356079
  0
VERTEX
  8
0
 10
1.141172
 20
644.131775
  0
VERTEX
  8
0
 10
1.247813
 20
646.160034
  0
VERTEX
  8
0
 10
1.377109
 20
648.108337
  0
VERTEX
  8
0
 10
1.546172
 20
650.281677
  0
VERTEX
  8
0
 10
1.826406
 20
653.526367
  0
VERTEX
  8
0
 10
16.788046
 20
651.698730
  0
SEQEND
  8
0
  0
POLYLINE
  8
0
  0
VERTEX
  8
0
 10
111.844139
 20
651.201050
  0
VERTEX
  8
0
 10
111.808983
 20
643.190796
  0
VERTEX
  8
0
 10
111.752342
 20
638.081421
  0
VERTEX
  8
0
 10
111.658119
 20
634.241882
  0
VERTEX
  8
0
 10
111.517731
 20
631.189514
  0
VERTEX
  8
0
 10
111.429375
 20
629.904297
  0
VERTEX
  8
0
 10
111.310387
 20
628.569885
  0
VERTEX
  8
0
 10
111.172729
 20
627.383484
  0
VERTEX
  8
0
 10
111.014450
 20
626.315796
  0
VERTEX
  8
0
 10
110.833359
 20
625.337646
  0
VERTEX
  8
0
 10
110.627266
 20
624.419983
  0
VERTEX
  8
0
 10
110.393120
 20
623.539063
  0
VERTEX
  8
0
 10
110.124138
 20
622.692200
  0
VERTEX
  8
0
 10
109.906563
 20
622.109680
  0
VERTEX
  8
0
 10
109.664604
 20
621.546997
  0
VERTEX
  8
0
 10
109.395470
 20
621.005127
  0
VERTEX
  8
0
 10
109.096329
 20
620.485046
  0
VERTEX
  8
0
 10
108.766716
 20
619.986694
  0
VERTEX
  8
0
 10
108.408516
 20
619.508667
  0
VERTEX
  8
0
 10
108.023979
 20
619.049438
  0
VERTEX
  8
0
 10
107.530777
 20
618.521057
  0
VERTEX
  8
0
 10
107.006561
 20
618.015076
  0
VERTEX
  8
0
 10
106.360779
 20
617.449585
  0
VERTEX
  8
0
 10
105.683823
 20
616.909973
  0
VERTEX
  8
0
 10
104.981636
 20
616.397156
  0
VERTEX
  8
0
 10
104.364136
 20
615.979736
  0
VERTEX
  8
0
 10
103.736092
 20
615.583557
  0
VERTEX
  8
0
 10
101.849609
 20
614.494141
  0
VERTEX
  8
0
 10
101.254532
 20
614.134216
  0
VERTEX
  8
0
 10
100.694839
 20
613.758911
  0
VERTEX
  8
0
 10
100.181870
 20
613.358032
  0
VERTEX
  8
0
 10
99.868515
 20
613.073120
  0
VERTEX
  8
0
 10
99.575935
 20
612.774048
  0
VERTEX
  8
0
 10
99.302109
 20
612.460938
  0
VERTEX
  8
0
 10
99.044609
 20
612.133667
  0
VERTEX
  8
0
 10
98.801636
 20
611.792664
  0
VERTEX
  8
0
 10
98.514610
 20
611.346924
  0
VERTEX
  8
0
 10
98.242340
 20
610.879883
  0
VERTEX
  8
0
 10
97.980782
 20
610.390869
  0
VERTEX
  8
0
 10
97.726173
 20
609.875000
  0
VERTEX
  8
0
 10
97.425156
 20
609.211792
  0
VERTEX
  8
0
 10
96.814529
 20
607.702393
  0
VERTEX
  8
0
 10
96.154060
 20
605.875977
  0
VERTEX
  8
0
 10
95.544220
 20
604.013550
  0
VERTEX
  8
0
 10
95.079529
 20
602.468750
  0
VERTEX
  8
0
 10
94.579605
 20
600.686401
  0
VERTEX
  8
0
 10
92.930466
 20
594.382385
  0
VERTEX
  8
0
 10
92.069374
 20
591.252808
  0
VERTEX
  8
0
 10
91.236481
 20
588.485291
  0
VERTEX
  8
0
 10
90.798042
 20
587.131104
  0
VERTEX
  8
0
 10
90.233200
 20
585.477173
  0
VERTEX
  8
0
 10
89.653282
 20
583.876465
  0
VERTEX
  8
0
 10
89.062111
 20
582.339905
  0
VERTEX
  8
0
 10
88.463593
 20
580.878296
  0
VERTEX
  8
0
 10
87.981949
 20
579.770081
  0
VERTEX
  8
0
 10
87.378357
 20
578.464783
  0
VERTEX
  8
0
 10
86.772499
 20
577.240906
  0
VERTEX
  8
0
 10
86.163437
 20
576.089783
  0
VERTEX
  8
0
 10
85.550621
 20
575.002319
  0
VERTEX
  8
0
 10
84.932892
 20
573.969849
  0
VERTEX
  8
0
 10
84.309685
 20
572.983337
  0
VERTEX
  8
0
 10
83.552658
 20
571.848816
  0
VERTEX
  8
0
 10
82.909683
 20
570.939880
  0
VERTEX
  8
0
 10
82.250626
 20
570.061646
  0
VERTEX
  8
0
 10
81.570778
 20
569.211487
  0
VERTEX
  8
0
 10
80.865074
 20
568.387146
  0
VERTEX
  8
0
 10
80.129135
 20
567.586243
  0
VERTEX
  8
0
 10
79.515312
 20
566.960876
  0
VERTEX
  8
0
 10
78.716949
 20
566.198975
  0
VERTEX
  8
0
 10
77.888596
 20
565.463196
  0
VERTEX
  8
0
 10
77.035385
 20
564.757751
  0
VERTEX
  8
0
 10
76.162498
 20
564.087036
  0
VERTEX
  8
0
 10
75.274918
 20
563.455200
  0
VERTEX
  8
0
 10
74.377892
 20
562.866638
  0
VERTEX
  8
0
 10
73.656013
 20
562.429382
  0
VERTEX
  8
0
 10
72.745781
 20
561.924438
  0
VERTEX
  8
0
 10
72.008125
 20
561.553101
  0
VERTEX
  8
0
 10
71.070152
 20
561.128662
  0
VERTEX
  8
0
 10
70.303749
 20
560.819885
  0
VERTEX
  8
0
 10
69.520470
 20
560.537903
  0
VERTEX
  8
0
 10
68.717651
 20
560.282043
  0
VERTEX
  8
0
 10
67.892967
 20
560.051392
  0
VERTEX
  8
0
 10
66.833122
 20
559.797729
  0
VERTEX
  8
0
 10
65.749298
 20
559.580505
  0
VERTEX
  8
0
 10
64.650543
 20
559.398193
  0
VERTEX
  8
0
 10
63.545624
 20
559.248840
  0
VERTEX
  8
0
 10
62.443592
 20
559.130676
  0
VERTEX
  8
0
 10
61.353436
 20
559.041870
  0
VERTEX
  8
0
 10
60.069218
 20
558.972107
  0
VERTEX
  8
0
 10
59.014843
 20
558.944519
  0
VERTEX
  8
0
 10
57.968983
 20
558.944702
  0
VERTEX
  8
0
 10
56.926014
 20
558.972900
  0
VERTEX
  8
0
 10
55.670155
 20
559.043823
  0
VERTEX
  8
0
 10
54.400703
 20
559.155396
  0
VERTEX
  8
0
 10
53.327030
 20
559.282104
  0
VERTEX
  8
0
 10
52.238594
 20
559.447510
  0
VERTEX
  8
0
 10
51.357422
 20
559.613403
  0
VERTEX
  8
0
 10
50.243046
 20
559.870300
  0
VERTEX
  8
0
 10
49.341560
 20
560.120605
  0
VERTEX
  8
0
 10
48.431248
 20
560.415527
  0
VERTEX
  8
0
 10
47.512188
 20
560.759583
  0
VERTEX
  8
0
 10
46.585857
 20
561.155457
  0
VERTEX
  8
0
 10
45.658516
 20
561.599548
  0
VERTEX
  8
0
 10
44.737499
 20
562.086304
  0
VERTEX
  8
0
 10
43.830311
 20
562.610535
  0
VERTEX
  8
0
 10
42.944450
 20
563.166809
  0
VERTEX
  8
0
 10
42.087185
 20
563.749573
  0
VERTEX
  8
0
 10
41.266171
 20
564.353882
  0
VERTEX
  8
0
 10
40.678593
 20
564.817810
  0
VERTEX
  8
0
 10
39.938046
 20
565.446777
  0
VERTEX
  8
0
 10
39.245232
 20
566.085144
  0
VERTEX
  8
0
 10
38.595860
 20
566.731812
  0
VERTEX
  8
0
 10
37.838749
 20
567.549377
  0
VERTEX
  8
0
 10
37.271404
 20
568.209106
  0
VERTEX
  8
0
 10
36.603123
 20
569.038818
  0
VERTEX
  8
0
 10
35.849842
 20
570.037903
  0
VERTEX
  8
0
 10
35.136562
 20
571.037476
  0
VERTEX
  8
0
 10
34.454296
 20
572.041687
  0
VERTEX
  8
0
 10
33.687500
 20
573.228638
  0
VERTEX
  8
0
 10
32.941326
 20
574.442749
  0
VERTEX
  8
0
 10
32.204296
 20
575.695618
  0
VERTEX
  8
0
 10
31.569061
 20
576.819214
  0
VERTEX
  8
0
 10
30.912577
 20
578.049194
  0
VERTEX
  8
0
 10
30.335234
 20
579.205688
  0
VERTEX
  8
0
 10
29.845547
 20
580.246094
  0
VERTEX
  8
0
 10
29.324764
 20
581.411072
  0
VERTEX
  8
0
 10
28.767187
 20
582.721375
  0
VERTEX
  8
0
 10
28.167109
 20
584.197571
  0
VERTEX
  8
0
 10
27.524765
 20
585.840210
  0
VERTEX
  8
0
 10
26.161171
 20
589.472168
  0
VERTEX
  8
0
 10
24.277344
 20
594.698364
  0
VERTEX
  8
0
 10
22.247187
 20
600.514648
  0
VERTEX
  8
0
 10
21.271015
 20
603.384888
  0
VERTEX
  8
0
 10
20.511875
 20
605.674805
  0
VERTEX
  8
0
 10
18.859688
 20
610.900146
  0
VERTEX
  8
0
 10
18.589609
 20
611.662659
  0
VERTEX
  8
0
 10
18.303047
 20
612.354980
  0
VERTEX
  8
0
 10
17.964296
 20
613.028870
  0
VERTEX
  8
0
 10
17.596251
 20
613.644104
  0
VERTEX
  8
0
 10
17.135780
 20
614.319275
  0
VERTEX
  8
0
 10
16.568594
 20
615.077026
  0
VERTEX
  8
0
 10
15.823125
 20
616.010315
  0
VERTEX
  8
0
 10
14.924218
 20
617.078552
  0
VERTEX
  8
0
 10
12.544063
 20
619.754517
  0
VERTEX
  8
0
 10
12.080859
 20
620.326721
  0
VERTEX
  8
0
 10
11.649297
 20
620.924072
  0
VERTEX
  8
0
 10
11.379063
 20
621.346497
  0
VERTEX
  8
0
 10
11.122812
 20
621.792664
  0
VERTEX
  8
0
 10
10.709063
 20
622.634766
  0
VERTEX
  8
0
 10
10.341093
 20
623.559753
  0
VERTEX
  8
0
 10
10.020703
 20
624.573914
  0
VERTEX
  8
0
 10
9.785391
 20
625.518555
  0
VERTEX
  8
0
 10
9.586640
 20
626.542419
  0
VERTEX
  8
0
 10
9.421875
 20
627.667847
  0
VERTEX
  8
0
 10
9.288047
 20
628.919678
  0
VERTEX
  8
0
 10
9.182422
 20
630.322510
  0
VERTEX
  8
0
 10
9.101874
 20
631.900757
  0
VERTEX
  8
0
 10
9.036640
 20
633.983276
  0
VERTEX
  8
0
 10
9.005859
 20
635.932251
  0
VERTEX
  8
0
 10
9.000078
 20
637.973450
  0
VERTEX
  8
0
 10
9.020859
 20
640.050842
  0
VERTEX
  8
0
 10
9.069843
 20
642.108521
  0
VERTEX
  8
0
 10
9.133203
 20
643.769287
  0
VERTEX
  8
0
 10
9.233984
 20
645.685242
  0
VERTEX
  8
0
 10
9.356484
 20
647.533264
  0
VERTEX
  8
0
 10
9.519453
 20
649.627258
  0
VERTEX
  8
0
 10
9.772344
 20
652.555786
  0
SEQEND
  8
0
  0
POLYLINE
  8
0
  0
VERTEX
  8
0
 10
92.184921
 20
597.347412
  0
VERTEX
  8
0
 10
91.359291
 20
601.115295
  0
VERTEX
  8
0
 10
89.264061
 20
598.465515
  0
VERTEX
  8
0
 10
92.186089
 20
597.278687
  0
SEQEND
  8
0
  0
POLYLINE
  8
0
  0
VERTEX
  8
0
 10
58.533825
 20
563.390930
  0
VERTEX
  8
0
 10
58.057186
 20
563.287415
  0
VERTEX
  8
0
 10
57.656483
 20
563.009460
  0
VERTEX
  8
0
 10
57.392654
 20
562.599182
  0
VERTEX
  8
0
 10
57.305859
 20
562.119263
  0
VERTEX
  8
0
 10
57.409294
 20
561.642700
  0
VERTEX
  8
0
 10
57.687263
 20
561.241943
  0
VERTEX
  8
0
 10
58.097500
 20
560.978088
  0
VERTEX
  8
0
 10
58.577419
 20
560.891296
  0
VERTEX
  8
0
 10
59.054062
 20
560.994751
  0
VERTEX
  8
0
 10
59.454842
 20
561.272827
  0
VERTEX
  8
0
 10
59.718670
 20
561.683044
  0
VERTEX
  8
0
 10
59.805466
 20
562.162903
  0
VERTEX
  8
0
 10
59.701950
 20
562.639526
  0
VERTEX
  8
0
 10
59.423985
 20
563.040283
  0
VERTEX
  8
0
 10
59.013748
 20
563.304138
  0
VERTEX
  8
0
 10
58.533825
 20
563.390930
  0
SEQEND
  8
0
  0
POLYLINE
  8
0
  0
VERTEX
  8
0
 10
134.340698
 20
2.266797
  0
VERTEX
  8
0
 10
146.175537
 20
1.638516
  0
VERTEX
  8
0
 10
150.898895
 20
1.417812
  0
VERTEX
  8
0
 10
154.827179
 20
1.258984
  0
VERTEX
  8
0
 10
158.619919
 20
1.135625
  0
VERTEX
  8
0
 10
162.315857
 20
1.051016
  0
VERTEX
  8
0
 10
165.993744
 20
1.006094
  0
VERTEX
  8
0
 10
169.101791
 20
0.999844
  0
VERTEX
  8
0
 10
172.952026
 20
1.030547
  0
VERTEX
  8
0
 10
177.709442
 20
1.120547
  0
VERTEX
  8
0
 10
182.055237
 20
1.246562
  0
VERTEX
  8
0
 10
186.602493
 20
1.422109
  0
VERTEX
  8
0
 10
191.298203
 20
1.651719
  0
VERTEX
  8
0
 10
195.286240
 20
1.887578
  0
VERTEX
  8
0
 10
199.309845
 20
2.166641
  0
VERTEX
  8
0
 10
203.340546
 20
2.491719
  0
VERTEX
  8
0
 10
206.575699
 20
2.786953
  0
VERTEX
  8
0
 10
209.021240
 20
3.030391
  0
VERTEX
  8
0
 10
212.324219
 20
3.385703
  0
VERTEX
  8
0
 10
215.693985
 20
3.778125
  0
VERTEX
  8
0
 10
219.151169
 20
4.209610
  0
VERTEX
  8
0
 10
222.716324
 20
4.682266
  0
VERTEX
  8
0
 10
226.409988
 20
5.198047
  0
VERTEX
  8
0
 10
230.251709
 20
5.758828
  0
VERTEX
  8
0
 10
235.260773
 20
6.519218
  0
VERTEX
  8
0
 10
241.526321
 20
7.503125
  0
VERTEX
  8
0
 10
255.753738
 20
9.804296
  0
VERTEX
  8
0
 10
271.465698
 20
12.345390
  0
VERTEX
  8
0
 10
284.966797
 20
14.493593
  0
VERTEX
  8
0
 10
298.478912
 20
16.627031
  0
VERTEX
  8
0
 10
291.414368
 20
22.875858
  0
VERTEX
  8
0
 10
286.620392
 20
27.091171
  0
VERTEX
  8
0
 10
282.641571
 20
30.554844
  0
VERTEX
  8
0
 10
279.432739
 20
33.307888
  0
VERTEX
  8
0
 10
276.108826
 20
36.105858
  0
VERTEX
  8
0
 10
273.312805
 20
38.406563
  0
VERTEX
  8
0
 10
270.234924
 20
40.877655
  0
VERTEX
  8
0
 10
267.154205
 20
43.282810
  0
VERTEX
  8
0
 10
265.437103
 20
44.590858
  0
VERTEX
  8
0
 10
263.714752
 20
45.877579
  0
VERTEX
  8
0
 10
260.598267
 20
48.137344
  0
VERTEX
  8
0
 10
257.475067
 20
50.309139
  0
VERTEX
  8
0
 10
254.464371
 20
52.315155
  0
VERTEX
  8
0
 10
251.721954
 20
54.056248
  0
VERTEX
  8
0
 10
250.371719
 20
54.872654
  0
VERTEX
  8
0
 10
249.401947
 20
55.434608
  0
VERTEX
  8
0
 10
248.323196
 20
56.026875
  0
VERTEX
  8
0
 10
247.372101
 20
56.510700
  0
VERTEX
  8
0
 10
246.526474
 20
56.901562
  0
VERTEX
  8
0
 10
245.764206
 20
57.214764
  0
VERTEX
  8
0
 10
245.199677
 20
57.419609
  0
VERTEX
  8
0
 10
244.531876
 20
57.631329
  0
VERTEX
  8
0
 10
243.886551
 20
57.805389
  0
VERTEX
  8
0
 10
243.245850
 20
57.942810
  0
VERTEX
  8
0
 10
242.593277
 20
58.041874
  0
VERTEX
  8
0
 10
242.051315
 20
58.092499
  0
VERTEX
  8
0
 10
241.482346
 20
58.116718
  0
VERTEX
  8
0
 10
240.877808
 20
58.113670
  0
VERTEX
  8
0
 10
240.059128
 20
58.070232
  0
VERTEX
  8
0
 10
239.344528
 20
58.002266
  0
VERTEX
  8
0
 10
238.573349
 20
57.901951
  0
VERTEX
  8
0
 10
237.744217
 20
57.766094
  0
VERTEX
  8
0
 10
236.855545
 20
57.591640
  0
VERTEX
  8
0
 10
236.148895
 20
57.433357
  0
VERTEX
  8
0
 10
235.152023
 20
57.183437
  0
VERTEX
  8
0
 10
234.362488
 20
56.965157
  0
VERTEX
  8
0
 10
233.252655
 20
56.630154
  0
VERTEX
  8
0
 10
232.076096
 20
56.242500
  0
VERTEX
  8
0
 10
230.831329
 20
55.802109
  0
VERTEX
  8
0
 10
229.177734
 20
55.182499
  0
VERTEX
  8
0
 10
226.300705
 20
54.047188
  0
VERTEX
  8
0
 10
215.939377
 20
49.844376
  0
VERTEX
  8
0
 10
208.314606
 20
46.819141
  0
VERTEX
  8
0
 10
204.264999
 20
45.243828
  0
VERTEX
  8
0
 10
200.592026
 20
43.842030
  0
VERTEX
  8
0
 10
197.386475
 20
42.648983
  0
VERTEX
  8
0
 10
195.000000
 20
41.791328
  0
VERTEX
  8
0
 10
193.530548
 20
41.287266
  0
VERTEX
  8
0
 10
192.314377
 20
40.900311
  0
VERTEX
  8
0
 10
191.297577
 20
40.619061
  0
VERTEX
  8
0
 10
190.426239
 20
40.432423
  0
VERTEX
  8
0
 10
189.646408
 20
40.328827
  0
VERTEX
  8
0
 10
188.904053
 20
40.297421
  0
VERTEX
  8
0
 10
188.165695
 20
40.329765
  0
VERTEX
  8
0
 10
187.305145
 20
40.443985
  0
VERTEX
  8
0
 10
186.445145
 20
40.636326
  0
VERTEX
  8
0
 10
185.584915
 20
40.902344
  0
VERTEX
  8
0
 10
184.722260
 20
41.239529
  0
VERTEX
  8
0
 10
184.218048
 20
41.473125
  0
VERTEX
  8
0
 10
183.826797
 20
41.675468
  0
VERTEX
  8
0
 10
182.992416
 20
42.167889
  0
VERTEX
  8
0
 10
182.223740
 20
42.687813
  0
VERTEX
  8
0
 10
181.183670
 20
43.472500
  0
VERTEX
  8
0
 10
180.195770
 20
44.283203
  0
VERTEX
  8
0
 10
178.855927
 20
45.452187
  0
VERTEX
  8
0
 10
177.132034
 20
47.032810
  0
VERTEX
  8
0
 10
175.568985
 20
48.518749
  0
VERTEX
  8
0
 10
173.710693
 20
50.338203
  0
VERTEX
  8
0
 10
172.398819
 20
51.654610
  0
VERTEX
  8
0
 10
170.874924
 20
53.215858
  0
VERTEX
  8
0
 10
164.836792
 20
59.521641
  0
VERTEX
  8
0
 10
163.327728
 20
61.045467
  0
VERTEX
  8
0
 10
161.864136
 20
62.487656
  0
VERTEX
  8
0
 10
158.535156
 20
65.671249
  0
VERTEX
  8
0
 10
151.586792
 20
72.175468
  0
VERTEX
  8
0
 10
150.712570
 20
72.944527
  0
VERTEX
  8
0
 10
149.981720
 20
73.533592
  0
VERTEX
  8
0
 10
149.310471
 20
74.017654
  0
VERTEX
  8
0
 10
148.636642
 20
74.430855
  0
VERTEX
  8
0
 10
148.058670
 20
74.708824
  0
VERTEX
  8
0
 10
147.580002
 20
74.868355
  0
VERTEX
  8
0
 10
147.111176
 20
74.950157
  0
VERTEX
  8
0
 10
146.797501
 20
74.961792
  0
VERTEX
  8
0
 10
146.558670
 20
74.948357
  0
VERTEX
  8
0
 10
146.314926
 20
74.915939
  0
VERTEX
  8
0
 10
145.979141
 20
74.843590
  0
VERTEX
  8
0
 10
145.627502
 20
74.737968
  0
VERTEX
  8
0
 10
145.255783
 20
74.599609
  0
VERTEX
  8
0
 10
144.436554
 20
74.224922
  0
VERTEX
  8
0
 10
143.363983
 20
73.645157
  0
VERTEX
  8
0
 10
141.778198
 20
72.705154
  0
VERTEX
  8
0
 10
138.655472
 20
70.782890
  0
VERTEX
  8
0
 10
134.522491
 20
68.198746
  0
VERTEX
  8
0
 10
132.858673
 20
67.128044
  0
VERTEX
  8
0
 10
132.005783
 20
66.541954
  0
VERTEX
  8
0
 10
131.387497
 20
66.080154
  0
VERTEX
  8
0
 10
130.859848
 20
65.638596
  0
VERTEX
  8
0
 10
130.428818
 20
65.213829
  0
VERTEX
  8
0
 10
130.155075
 20
64.882889
  0
VERTEX
  8
0
 10
129.895538
 20
64.474922
  0
VERTEX
  8
0
 10
129.718979
 20
64.066719
  0
VERTEX
  8
0
 10
129.616318
 20
63.651249
  0
VERTEX
  8
0
 10
129.581253
 20
63.309139
  0
VERTEX
  8
0
 10
129.588440
 20
62.863201
  0
VERTEX
  8
0
 10
129.643829
 20
62.390545
  0
VERTEX
  8
0
 10
129.740784
 20
61.887497
  0
VERTEX
  8
0
 10
129.876083
 20
61.354374
  0
VERTEX
  8
0
 10
130.046631
 20
60.791874
  0
VERTEX
  8
0
 10
130.293442
 20
60.078903
  0
VERTEX
  8
0
 10
130.581161
 20
59.325390
  0
VERTEX
  8
0
 10
130.962646
 20
58.394375
  0
VERTEX
  8
0
 10
131.474289
 20
57.210468
  0
VERTEX
  8
0
 10
135.018280
 20
49.311092
  0
VERTEX
  8
0
 10
137.082962
 20
44.596718
  0
VERTEX
  8
0
 10
138.446320
 20
41.332188
  0
VERTEX
  8
0
 10
139.036163
 20
39.831482
  0
VERTEX
  8
0
 10
139.536957
 20
38.483513
  0
VERTEX
  8
0
 10
139.967499
 20
37.246407
  0
VERTEX
  8
0
 10
140.346085
 20
36.078125
  0
VERTEX
  8
0
 10
140.745544
 20
34.747341
  0
VERTEX
  8
0
 10
141.002426
 20
33.791874
  0
VERTEX
  8
0
 10
141.183350
 20
33.014687
  0
VERTEX
  8
0
 10
141.336792
 20
32.219063
  0
VERTEX
  8
0
 10
141.457733
 20
31.398594
  0
VERTEX
  8
0
 10
141.540863
 20
30.546640
  0
VERTEX
  8
0
 10
141.581161
 20
29.656874
  0
VERTEX
  8
0
 10
141.573349
 20
28.722813
  0
VERTEX
  8
0
 10
141.514679
 20
27.741014
  0
VERTEX
  8
0
 10
141.407501
 20
26.713436
  0
VERTEX
  8
0
 10
141.254379
 20
25.643124
  0
VERTEX
  8
0
 10
141.002502
 20
24.249374
  0
VERTEX
  8
0
 10
140.756012
 20
23.093124
  0
VERTEX
  8
0
 10
140.396011
 20
21.601093
  0
VERTEX
  8
0
 10
139.804764
 20
19.434843
  0
VERTEX
  8
0
 10
139.132492
 20
17.205858
  0
VERTEX
  8
0
 10
138.414612
 20
14.967031
  0
VERTEX
  8
0
 10
136.181870
 20
8.211484
  0
VERTEX
  8
0
 10
135.323746
 20
5.486250
  0
VERTEX
  8
0
 10
134.340698
 20
2.266797
  0
SEQEND
  8
0
  0
POLYLINE
  8
0
  0
VERTEX
  8
0
 10
138.905548
 20
59.930000
  0
VERTEX
  8
0
 10
148.969757
 20
63.824451
  0
SEQEND
  8
0
  0
POLYLINE
  8
0
  0
VERTEX
  8
0
 10
139.871567
 20
44.412735
  0
VERTEX
  8
0
 10
143.834290
 20
46.119061
  0
SEQEND
  8
0
  0
POLYLINE
  8
0
  0
VERTEX
  8
0
 10
159.391876
 20
54.620937
  0
VERTEX
  8
0
 10
163.629684
 20
56.721172
  0
SEQEND
  8
0
  0
POLYLINE
  8
0
  0
VERTEX
  8
0
 10
260.738739
 20
40.868748
  0
VERTEX
  8
0
 10
247.727097
 20
35.778515
  0
VERTEX
  8
0
 10
232.227097
 20
29.738983
  0
VERTEX
  8
0
 10
224.152100
 20
26.567108
  0
VERTEX
  8
0
 10
212.001007
 20
21.725624
  0
VERTEX
  8
0
 10
206.366486
 20
19.448359
  0
VERTEX
  8
0
 10
201.669678
 20
17.529688
  0
VERTEX
  8
0
 10
197.087265
 20
15.635077
  0
VERTEX
  8
0
 10
192.727966
 20
13.804531
  0
VERTEX
  8
0
 10
189.472260
 20
12.412812
  0
VERTEX
  8
0
 10
185.713272
 20
10.772968
  0
VERTEX
  8
0
 10
182.247345
 20
9.227187
  0
VERTEX
  8
0
 10
178.392502
 20
7.470156
  0
VERTEX
  8
0
 10
174.773895
 20
5.789063
  0
VERTEX
  8
0
 10
170.141556
 20
3.609531
  0
SEQEND
  8
0
  0
POLYLINE
  8
0
  0
VERTEX
  8
0
 10
212.734756
 20
13.947109
  0
VERTEX
  8
0
 10
210.689285
 20
9.792343
  0
VERTEX
  8
0
 10
217.379135
 20
10.031953
  0
VERTEX
  8
0
 10
212.860535
 20
14.476641
  0
SEQEND
  8
0
  0
POLYLINE
  8
0
  0
VERTEX
  8
0
 10
140.897964
 20
60.104294
  0
VERTEX
  8
0
 10
140.746567
 20
60.711407
  0
VERTEX
  8
0
 10
140.414993
 20
61.242107
  0
VERTEX
  8
0
 10
139.935699
 20
61.644295
  0
VERTEX
  8
0
 10
139.355469
 20
61.878670
  0
VERTEX
  8
0
 10
138.731247
 20
61.922421
  0
VERTEX
  8
0
 10
138.124054
 20
61.770935
  0
VERTEX
  8
0
 10
137.593430
 20
61.439373
  0
VERTEX
  8
0
 10
137.191162
 20
60.960075
  0
VERTEX
  8
0
 10
136.956787
 20
60.379841
  0
VERTEX
  8
0
 10
136.913193
 20
59.755703
  0
VERTEX
  8
0
 10
137.064529
 20
59.148514
  0
VERTEX
  8
0
 10
137.396088
 20
58.617809
  0
VERTEX
  8
0
 10
137.875549
 20
58.215622
  0
VERTEX
  8
0
 10
138.455627
 20
57.981171
  0
VERTEX
  8
0
 10
139.079834
 20
57.937656
  0
VERTEX
  8
0
 10
139.687027
 20
58.088905
  0
VERTEX
  8
0
 10
140.217728
 20
58.420544
  0
VERTEX
  8
0
 10
140.619919
 20
58.899841
  0
VERTEX
  8
0
 10
140.854294
 20
59.480076
  0
VERTEX
  8
0
 10
140.897964
 20
60.104294
  0
SEQEND
  8
0
  0
POLYLINE
  8
0
  0
VERTEX
  8
0
 10
150.962112
 20
63.998749
  0
VERTEX
  8
0
 10
150.810776
 20
64.605934
  0
VERTEX
  8
0
 10
150.479141
 20
65.136642
  0
VERTEX
  8
0
 10
149.999847
 20
65.538826
  0
VERTEX
  8
0
 10
149.419601
 20
65.773277
  0
VERTEX
  8
0
 10
148.795395
 20
65.816872
  0
VERTEX
  8
0
 10
148.188278
 20
65.665543
  0
VERTEX
  8
0
 10
147.657654
 20
65.333908
  0
VERTEX
  8
0
 10
147.255386
 20
64.854607
  0
VERTEX
  8
0
 10
147.021011
 20
64.274376
  0
VERTEX
  8
0
 10
146.977341
 20
63.650154
  0
VERTEX
  8
0
 10
147.128754
 20
63.043045
  0
VERTEX
  8
0
 10
147.460312
 20
62.512341
  0
VERTEX
  8
0
 10
147.939682
 20
62.110233
  0
VERTEX
  8
0
 10
148.519836
 20
61.875778
  0
VERTEX
  8
0
 10
149.144058
 20
61.832108
  0
VERTEX
  8
0
 10
149.751175
 20
61.983513
  0
VERTEX
  8
0
 10
150.281876
 20
62.315155
  0
VERTEX
  8
0
 10
150.684052
 20
62.794453
  0
VERTEX
  8
0
 10
150.918427
 20
63.374607
  0
VERTEX
  8
0
 10
150.962112
 20
63.998749
  0
SEQEND
  8
0
  0
POLYLINE
  8
0
  0
VERTEX
  8
0
 10
140.867737
 20
44.499920
  0
VERTEX
  8
0
 10
140.758591
 20
44.874531
  0
VERTEX
  8
0
 10
140.514374
 20
45.178749
  0
VERTEX
  8
0
 10
140.172348
 20
45.366482
  0
VERTEX
  8
0
 10
139.784454
 20
45.408905
  0
VERTEX
  8
0
 10
139.409836
 20
45.299763
  0
VERTEX
  8
0
 10
139.105545
 20
45.055546
  0
VERTEX
  8
0
 10
138.917892
 20
44.713516
  0
VERTEX
  8
0
 10
138.875381
 20
44.325546
  0
VERTEX
  8
0
 10
138.984604
 20
43.951015
  0
VERTEX
  8
0
 10
139.228745
 20
43.646717
  0
VERTEX
  8
0
 10
139.570862
 20
43.459061
  0
VERTEX
  8
0
 10
139.958740
 20
43.416561
  0
VERTEX
  8
0
 10
140.333359
 20
43.525780
  0
VERTEX
  8
0
 10
140.637650
 20
43.769920
  0
VERTEX
  8
0
 10
140.825302
 20
44.112030
  0
VERTEX
  8
0
 10
140.867737
 20
44.499920
  0
SEQEND
  8
0
  0
POLYLINE
  8
0
  0
VERTEX
  8
0
 10
144.830460
 20
46.206169
  0
VERTEX
  8
0
 10
144.721329
 20
46.580780
  0
VERTEX
  8
0
 10
144.477036
 20
46.885078
  0
VERTEX
  8
0
 10
144.134918
 20
47.072811
  0
VERTEX
  8
0
 10
143.747101
 20
47.115234
  0
VERTEX
  8
0
 10
143.372574
 20
47.006092
  0
VERTEX
  8
0
 10
143.068207
 20
46.761875
  0
VERTEX
  8
0
 10
142.880539
 20
46.419685
  0
VERTEX
  8
0
 10
142.838043
 20
46.031876
  0
VERTEX
  8
0
 10
142.947266
 20
45.657341
  0
VERTEX
  8
0
 10
143.191483
 20
45.352966
  0
VERTEX
  8
0
 10
143.533585
 20
45.165310
  0
VERTEX
  8
0
 10
143.921402
 20
45.122890
  0
VERTEX
  8
0
 10
144.296005
 20
45.232029
  0
VERTEX
  8
0
 10
144.600311
 20
45.476250
  0
VERTEX
  8
0
 10
144.788040
 20
45.818359
  0
VERTEX
  8
0
 10
144.830460
 20
46.206169
  0
SEQEND
  8
0
  0
POLYLINE
  8
0
  0
VERTEX
  8
0
 10
160.388046
 20
54.708046
  0
VERTEX
  8
0
 10
160.278824
 20
55.082657
  0
VERTEX
  8
0
 10
160.034607
 20
55.386951
  0
VERTEX
  8
0
 10
159.692490
 20
55.574688
  0
VERTEX
  8
0
 10
159.304688
 20
55.617107
  0
VERTEX
  8
0
 10
158.930069
 20
55.507969
  0
VERTEX
  8
0
 10
158.625778
 20
55.263748
  0
VERTEX
  8
0
 10
158.438126
 20
54.921638
  0
VERTEX
  8
0
 10
158.395615
 20
54.533749
  0
VERTEX
  8
0
 10
158.504837
 20
54.159218
  0
VERTEX
  8
0
 10
158.749054
 20
53.854843
  0
VERTEX
  8
0
 10
159.091095
 20
53.667187
  0
VERTEX
  8
0
 10
159.478973
 20
53.624763
  0
VERTEX
  8
0
 10
159.853592
 20
53.733906
  0
VERTEX
  8
0
 10
160.157883
 20
53.978123
  0
VERTEX
  8
0
 10
160.345551
 20
54.320232
  0
VERTEX
  8
0
 10
160.388046
 20
54.708046
  0
SEQEND
  8
0
  0
POLYLINE
  8
0
  0
VERTEX
  8
0
 10
164.625854
 20
56.808281
  0
VERTEX
  8
0
 10
164.516708
 20
57.182888
  0
VERTEX
  8
0
 10
164.272491
 20
57.487186
  0
VERTEX
  8
0
 10
163.930389
 20
57.674919
  0
VERTEX
  8
0
 10
163.542572
 20
57.717342
  0
VERTEX
  8
0
 10
163.167969
 20
57.608200
  0
VERTEX
  8
0
 10
162.863663
 20
57.363983
  0
VERTEX
  8
0
 10
162.675934
 20
57.021873
  0
VERTEX
  8
0
 10
162.633514
 20
56.633984
  0
VERTEX
  8
0
 10
162.742645
 20
56.259453
  0
VERTEX
  8
0
 10
162.986877
 20
55.955078
  0
VERTEX
  8
0
 10
163.328979
 20
55.767422
  0
VERTEX
  8
0
 10
163.716873
 20
55.724998
  0
VERTEX
  8
0
 10
164.091400
 20
55.834141
  0
VERTEX
  8
0
 10
164.395782
 20
56.078358
  0
VERTEX
  8
0
 10
164.583435
 20
56.420467
  0
VERTEX
  8
0
 10
164.625854
 20
56.808281
  0
SEQEND
  8
0
  0
POLYLINE
  8
0
  0
VERTEX
  8
0
 10
103.459373
 20
750.598022
  0
VERTEX
  8
0
 10
103.768669
 20
743.488403
  0
VERTEX
  8
0
 10
103.940231
 20
738.605225
  0
VERTEX
  8
0
 10
104.022026
 20
734.685364
  0
VERTEX
  8
0
 10
104.030548
 20
732.643555
  0
VERTEX
  8
0
 10
104.015228
 20
731.224304
  0
VERTEX
  8
0
 10
103.980232
 20
729.906311
  0
VERTEX
  8
0
 10
103.903748
 20
728.298828
  0
VERTEX
  8
0
 10
103.824760
 20
727.198975
  0
VERTEX
  8
0
 10
103.691872
 20
725.863708
  0
VERTEX
  8
0
 10
103.528748
 20
724.667297
  0
VERTEX
  8
0
 10
103.336792
 20
723.597717
  0
VERTEX
  8
0
 10
103.117416
 20
722.642639
  0
VERTEX
  8
0
 10
102.872108
 20
721.790039
  0
VERTEX
  8
0
 10
102.671875
 20
721.210632
  0
VERTEX
  8
0
 10
102.457497
 20
720.677063
  0
VERTEX
  8
0
 10
102.228279
 20
720.184875
  0
VERTEX
  8
0
 10
101.983200
 20
719.729370
  0
VERTEX
  8
0
 10
101.721718
 20
719.305847
  0
VERTEX
  8
0
 10
101.442810
 20
718.909668
  0
VERTEX
  8
0
 10
101.145782
 20
718.536133
  0
VERTEX
  8
0
 10
100.829842
 20
718.180664
  0
VERTEX
  8
0
 10
100.494141
 20
717.838562
  0
VERTEX
  8
0
 10
100.014450
 20
717.395142
  0
VERTEX
  8
0
 10
99.496559
 20
716.956299
  0
VERTEX
  8
0
 10
98.943672
 20
716.517334
  0
VERTEX
  8
0
 10
97.765312
 20
715.642456
  0
VERTEX
  8
0
 10
94.783356
 20
713.530457
  0
VERTEX
  8
0
 10
94.111168
 20
713.020752
  0
VERTEX
  8
0
 10
93.479141
 20
712.491638
  0
VERTEX
  8
0
 10
93.118668
 20
712.155090
  0
VERTEX
  8
0
 10
92.771873
 20
711.798035
  0
VERTEX
  8
0
 10
92.223434
 20
711.143860
  0
VERTEX
  8
0
 10
91.911720
 20
710.707581
  0
VERTEX
  8
0
 10
91.710854
 20
710.395386
  0
VERTEX
  8
0
 10
91.419922
 20
709.891418
  0
VERTEX
  8
0
 10
91.232735
 20
709.529358
  0
VERTEX
  8
0
 10
90.873276
 20
708.741394
  0
VERTEX
  8
0
 10
90.448433
 20
707.642090
  0
VERTEX
  8
0
 10
90.045387
 20
706.423584
  0
VERTEX
  8
0
 10
89.658279
 20
705.094666
  0
VERTEX
  8
0
 10
89.281250
 20
703.663879
  0
VERTEX
  8
0
 10
88.908669
 20
702.139771
  0
VERTEX
  8
0
 10
87.430389
 20
695.675903
  0
VERTEX
  8
0
 10
86.631172
 20
692.378906
  0
VERTEX
  8
0
 10
86.141792
 20
690.520874
  0
VERTEX
  8
0
 10
85.721954
 20
689.031250
  0
VERTEX
  8
0
 10
85.274452
 20
687.540771
  0
VERTEX
  8
0
 10
84.797264
 20
686.048645
  0
VERTEX
  8
0
 10
84.156174
 20
684.180237
  0
VERTEX
  8
0
 10
83.605080
 20
682.681763
  0
VERTEX
  8
0
 10
83.018044
 20
681.179260
  0
VERTEX
  8
0
 10
82.392967
 20
679.671936
  0
VERTEX
  8
0
 10
81.555153
 20
677.779663
  0
VERTEX
  8
0
 10
80.839455
 20
676.262634
  0
VERTEX
  8
0
 10
80.087341
 20
674.754272
  0
VERTEX
  8
0
 10
79.303276
 20
673.266418
  0
VERTEX
  8
0
 10
78.491638
 20
671.811218
  0
VERTEX
  8
0
 10
77.867500
 20
670.748413
  0
VERTEX
  8
0
 10
77.232185
 20
669.715820
  0
VERTEX
  8
0
 10
76.587578
 20
668.718445
  0
VERTEX
  8
0
 10
75.935471
 20
667.761414
  0
VERTEX
  8
0
 10
75.277885
 20
666.849670
  0
VERTEX
  8
0
 10
74.616249
 20
665.987183
  0
VERTEX
  8
0
 10
73.950699
 20
665.173096
  0
VERTEX
  8
0
 10
73.281090
 20
664.405273
  0
VERTEX
  8
0
 10
72.607109
 20
663.681702
  0
VERTEX
  8
0
 10
71.928589
 20
663.000305
  0
VERTEX
  8
0
 10
71.016640
 20
662.153748
  0
VERTEX
  8
0
 10
70.326797
 20
661.562622
  0
VERTEX
  8
0
 10
69.398979
 20
660.829041
  0
VERTEX
  8
0
 10
68.696716
 20
660.317017
  0
VERTEX
  8
0
 10
67.751564
 20
659.681335
  0
VERTEX
  8
0
 10
66.793983
 20
659.095947
  0
VERTEX
  8
0
 10
66.064064
 20
658.688904
  0
VERTEX
  8
0
 10
65.070076
 20
658.187622
  0
VERTEX
  8
0
 10
64.305626
 20
657.842041
  0
VERTEX
  8
0
 10
63.255779
 20
657.420349
  0
VERTEX
  8
0
 10
62.442108
 20
657.132874
  0
VERTEX
  8
0
 10
61.602890
 20
656.869202
  0
VERTEX
  8
0
 10
60.735390
 20
656.628723
  0
VERTEX
  8
0
 10
59.836952
 20
656.411011
  0
VERTEX
  8
0
 10
58.587811
 20
656.155090
  0
VERTEX
  8
0
 10
57.287888
 20
655.939575
  0
VERTEX
  8
0
 10
56.288124
 20
655.805908
  0
VERTEX
  8
0
 10
54.933281
 20
655.666565
  0
VERTEX
  8
0
 10
53.908436
 20
655.592407
  0
VERTEX
  8
0
 10
52.882813
 20
655.545349
  0
VERTEX
  8
0
 10
51.862186
 20
655.526367
  0
VERTEX
  8
0
 10
50.519688
 20
655.546326
  0
VERTEX
  8
0
 10
49.534218
 20
655.596313
  0
VERTEX
  8
0
 10
48.573593
 20
655.677429
  0
VERTEX
  8
0
 10
47.640858
 20
655.789734
  0
VERTEX
  8
0
 10
46.734688
 20
655.932190
  0
VERTEX
  8
0
 10
45.564686
 20
656.166443
  0
VERTEX
  8
0
 10
44.713673
 20
656.373901
  0
VERTEX
  8
0
 10
43.610779
 20
656.690369
  0
VERTEX
  8
0
 10
42.540623
 20
657.049683
  0
VERTEX
  8
0
 10
41.498985
 20
657.448669
  0
VERTEX
  8
0
 10
40.481716
 20
657.884338
  0
VERTEX
  8
0
 10
39.484608
 20
658.353943
  0
VERTEX
  8
0
 10
38.502968
 20
658.861389
  0
VERTEX
  8
0
 10
37.531719
 20
659.416870
  0
VERTEX
  8
0
 10
36.565468
 20
660.031128
  0
VERTEX
  8
0
 10
35.841015
 20
660.536865
  0
VERTEX
  8
0
 10
34.871170
 20
661.279541
  0
VERTEX
  8
0
 10
34.137966
 20
661.893738
  0
VERTEX
  8
0
 10
33.397343
 20
662.561951
  0
VERTEX
  8
0
 10
32.647186
 20
663.288635
  0
VERTEX
  8
0
 10
31.885155
 20
664.078247
  0
VERTEX
  8
0
 10
31.111639
 20
664.931519
  0
VERTEX
  8
0
 10
30.330467
 20
665.843262
  0
VERTEX
  8
0
 10
29.545937
 20
666.807800
  0
VERTEX
  8
0
 10
28.501875
 20
668.166443
  0
VERTEX
  8
0
 10
27.725859
 20
669.232544
  0
VERTEX
  8
0
 10
26.960546
 20
670.332886
  0
VERTEX
  8
0
 10
26.210234
 20
671.461609
  0
VERTEX
  8
0
 10
25.240313
 20
673.001404
  0
VERTEX
  8
0
 10
24.541328
 20
674.174927
  0
VERTEX
  8
0
 10
23.871407
 20
675.358276
  0
VERTEX
  8
0
 10
23.232578
 20
676.547546
  0
VERTEX
  8
0
 10
22.233280
 20
678.538757
  0
VERTEX
  8
0
 10
21.309374
 20
680.536255
  0
VERTEX
  8
0
 10
20.788124
 20
681.735352
  0
VERTEX
  8
0
 10
20.289921
 20
682.933411
  0
VERTEX
  8
0
 10
19.355938
 20
685.321106
  0
VERTEX
  8
0
 10
18.494688
 20
687.689331
  0
VERTEX
  8
0
 10
17.693983
 20
690.026733
  0
VERTEX
  8
0
 10
16.943281
 20
692.317505
  0
VERTEX
  8
0
 10
14.997969
 20
698.405762
  0
VERTEX
  8
0
 10
14.020702
 20
701.291443
  0
VERTEX
  8
0
 10
13.277812
 20
703.337158
  0
VERTEX
  8
0
 10
12.559609
 20
705.194214
  0
VERTEX
  8
0
 10
11.875390
 20
706.849365
  0
VERTEX
  8
0
 10
11.234062
 20
708.289429
  0
VERTEX
  8
0
 10
10.715938
 20
709.357422
  0
VERTEX
  8
0
 10
10.208437
 20
710.301575
  0
VERTEX
  8
0
 10
9.692031
 20
711.152771
  0
VERTEX
  8
0
 10
9.147422
 20
711.942078
  0
VERTEX
  8
0
 10
8.657969
 20
712.574890
  0
VERTEX
  8
0
 10
8.126172
 20
713.202942
  0
VERTEX
  8
0
 10
6.124844
 20
715.383606
  0
VERTEX
  8
0
 10
5.298047
 20
716.326233
  0
VERTEX
  8
0
 10
4.628438
 20
717.166870
  0
VERTEX
  8
0
 10
4.010625
 20
718.050842
  0
VERTEX
  8
0
 10
3.721953
 20
718.516052
  0
VERTEX
  8
0
 10
3.447031
 20
719.000793
  0
VERTEX
  8
0
 10
3.019766
 20
719.859619
  0
VERTEX
  8
0
 10
2.782344
 20
720.410278
  0
VERTEX
  8
0
 10
2.559219
 20
720.991089
  0
VERTEX
  8
0
 10
2.219844
 20
722.034119
  0
VERTEX
  8
0
 10
1.978047
 20
722.943420
  0
VERTEX
  8
0
 10
1.713125
 20
724.175537
  0
VERTEX
  8
0
 10
1.531250
 20
725.231689
  0
VERTEX
  8
0
 10
1.341328
 20
726.631958
  0
VERTEX
  8
0
 10
1.219375
 20
727.810120
  0
VERTEX
  8
0
 10
1.104531
 20
729.347168
  0
VERTEX
  8
0
 10
1.031484
 20
730.946838
  0
VERTEX
  8
0
 10
1.000000
 20
732.598877
  0
VERTEX
  8
0
 10
1.006562
 20
734.286072
  0
VERTEX
  8
0
 10
1.045000
 20
735.986023
  0
VERTEX
  8
0
 10
1.124375
 20
738.010620
  0
VERTEX
  8
0
 10
1.229922
 20
739.981445
  0
VERTEX
  8
0
 10
1.371719
 20
742.160522
  0
VERTEX
  8
0
 10
1.562969
 20
744.712585
  0
VERTEX
  8
0
 10
1.780703
 20
747.288818
  0
VERTEX
  8
0
 10
2.069297
 20
750.434570
  0
VERTEX
  8
0
 10
12.160390
 20
748.115479
  0
VERTEX
  8
0
 10
22.145077
 20
745.820679
  0
VERTEX
  8
0
 10
32.129688
 20
743.526001
  0
VERTEX
  8
0
 10
42.114296
 20
741.231323
  0
VERTEX
  8
0
 10
41.771873
 20
740.169189
  0
VERTEX
  8
0
 10
41.534920
 20
739.329590
  0
VERTEX
  8
0
 10
41.361248
 20
738.618042
  0
VERTEX
  8
0
 10
40.919216
 20
736.642639
  0
VERTEX
  8
0
 10
40.674999
 20
735.678711
  0
VERTEX
  8
0
 10
40.428749
 20
734.865112
  0
VERTEX
  8
0
 10
40.189140
 20
734.199646
  0
VERTEX
  8
0
 10
39.965626
 20
733.667786
  0
VERTEX
  8
0
 10
39.766563
 20
733.254150
  0
VERTEX
  8
0
 10
39.555859
 20
732.869202
  0
VERTEX
  8
0
 10
39.333515
 20
732.514648
  0
VERTEX
  8
0
 10
39.102734
 20
732.191101
  0
VERTEX
  8
0
 10
38.821716
 20
731.842712
  0
VERTEX
  8
0
 10
38.500000
 20
731.489990
  0
VERTEX
  8
0
 10
38.158047
 20
731.155823
  0
VERTEX
  8
0
 10
37.827576
 20
730.863525
  0
VERTEX
  8
0
 10
37.597576
 20
730.686218
  0
VERTEX
  8
0
 10
37.364140
 20
730.538940
  0
VERTEX
  8
0
 10
37.102345
 20
730.408875
  0
VERTEX
  8
0
 10
36.736874
 20
730.265137
  0
VERTEX
  8
0
 10
36.288204
 20
730.119385
  0
VERTEX
  8
0
 10
35.773670
 20
729.978821
  0
VERTEX
  8
0
 10
35.284843
 20
729.866455
  0
VERTEX
  8
0
 10
34.476170
 20
729.723450
  0
VERTEX
  8
0
 10
33.562344
 20
729.616882
  0
VERTEX
  8
0
 10
32.697891
 20
729.551392
  0
VERTEX
  8
0
 10
30.643593
 20
729.435608
  0
VERTEX
  8
0
 10
29.530781
 20
729.328918
  0
VERTEX
  8
0
 10
28.928827
 20
729.241394
  0
VERTEX
  8
0
 10
28.430937
 20
729.147095
  0
VERTEX
  8
0
 10
27.966171
 20
729.033630
  0
VERTEX
  8
0
 10
27.550312
 20
728.899841
  0
VERTEX
  8
0
 10
27.198750
 20
728.744507
  0
VERTEX
  8
0
 10
26.921093
 20
728.567322
  0
VERTEX
  8
0
 10
26.711718
 20
728.370605
  0
VERTEX
  8
0
 10
26.543047
 20
728.119751
  0
VERTEX
  8
0
 10
26.443983
 20
727.849670
  0
VERTEX
  8
0
 10
26.400156
 20
727.522705
  0
VERTEX
  8
0
 10
26.418514
 20
727.181335
  0
VERTEX
  8
0
 10
26.508984
 20
726.785522
  0
VERTEX
  8
0
 10
26.627499
 20
726.472961
  0
VERTEX
  8
0
 10
26.785936
 20
726.159363
  0
VERTEX
  8
0
 10
26.985624
 20
725.846680
  0
VERTEX
  8
0
 10
27.195313
 20
725.579285
  0
VERTEX
  8
0
 10
27.445858
 20
725.312195
  0
VERTEX
  8
0
 10
27.742422
 20
725.045166
  0
VERTEX
  8
0
 10
28.028358
 20
724.822571
  0
VERTEX
  8
0
 10
28.420311
 20
724.555603
  0
VERTEX
  8
0
 10
28.936405
 20
724.246887
  0
VERTEX
  8
0
 10
29.503124
 20
723.944519
  0
VERTEX
  8
0
 10
30.107187
 20
723.652344
  0
VERTEX
  8
0
 10
30.735468
 20
723.373718
  0
VERTEX
  8
0
 10
31.295546
 20
723.146729
  0
VERTEX
  8
0
 10
31.898672
 20
722.928284
  0
VERTEX
  8
0
 10
32.451641
 20
722.750916
  0
VERTEX
  8
0
 10
33.065392
 20
722.576233
  0
VERTEX
  8
0
 10
33.753983
 20
722.402588
  0
VERTEX
  8
0
 10
34.531250
 20
722.228638
  0
VERTEX
  8
0
 10
36.351406
 20
721.884521
  0
VERTEX
  8
0
 10
38.233982
 20
721.596008
  0
VERTEX
  8
0
 10
40.281170
 20
721.347168
  0
VERTEX
  8
0
 10
42.193672
 20
721.173401
  0
VERTEX
  8
0
 10
44.213593
 20
721.047974
  0
VERTEX
  8
0
 10
46.110390
 20
720.976929
  0
VERTEX
  8
0
 10
48.473282
 20
720.938782
  0
VERTEX
  8
0
 10
51.086872
 20
720.945740
  0
VERTEX
  8
0
 10
53.531796
 20
720.991699
  0
VERTEX
  8
0
 10
56.024529
 20
721.079956
  0
VERTEX
  8
0
 10
58.468670
 20
721.215637
  0
VERTEX
  8
0
 10
60.451874
 20
721.373291
  0
VERTEX
  8
0
 10
62.279919
 20
721.570129
  0
VERTEX
  8
0
 10
63.952812
 20
721.797852
  0
VERTEX
  8
0
 10
65.724449
 20
722.088013
  0
VERTEX
  8
0
 10
68.161247
 20
722.558105
  0
VERTEX
  8
0
 10
71.531250
 20
723.278442
  0
VERTEX
  8
0
 10
73.731636
 20
723.802307
  0
VERTEX
  8
0
 10
74.435623
 20
723.992004
  0
VERTEX
  8
0
 10
75.051323
 20
724.179199
  0
VERTEX
  8
0
 10
75.604530
 20
724.375427
  0
VERTEX
  8
0
 10
76.048515
 20
724.559570
  0
VERTEX
  8
0
 10
76.552811
 20
724.802246
  0
VERTEX
  8
0
 10
77.041245
 20
725.072510
  0
VERTEX
  8
0
 10
77.554527
 20
725.398743
  0
VERTEX
  8
0
 10
77.941170
 20
725.684998
  0
VERTEX
  8
0
 10
78.248123
 20
725.958252
  0
VERTEX
  8
0
 10
78.463593
 20
726.211365
  0
VERTEX
  8
0
 10
78.567810
 20
726.384094
  0
VERTEX
  8
0
 10
78.636948
 20
726.554382
  0
VERTEX
  8
0
 10
78.676636
 20
726.725830
  0
VERTEX
  8
0
 10
78.693283
 20
726.938599
  0
VERTEX
  8
0
 10
78.681953
 20
727.203735
  0
VERTEX
  8
0
 10
78.637497
 20
727.525146
  0
VERTEX
  8
0
 10
78.573357
 20
727.808289
  0
VERTEX
  8
0
 10
78.487892
 20
728.079895
  0
VERTEX
  8
0
 10
78.399063
 20
728.293884
  0
VERTEX
  8
0
 10
78.296799
 20
728.483887
  0
VERTEX
  8
0
 10
78.200073
 20
728.624878
  0
VERTEX
  8
0
 10
78.068436
 20
728.776062
  0
VERTEX
  8
0
 10
77.917892
 20
728.910583
  0
VERTEX
  8
0
 10
77.746170
 20
729.031860
  0
VERTEX
  8
0
 10
77.365074
 20
729.228516
  0
VERTEX
  8
0
 10
77.102104
 20
729.321533
  0
VERTEX
  8
0
 10
76.782654
 20
729.402771
  0
VERTEX
  8
0
 10
76.087578
 20
729.507874
  0
VERTEX
  8
0
 10
75.352104
 20
729.562378
  0
VERTEX
  8
0
 10
72.880234
 20
729.676147
  0
VERTEX
  8
0
 10
71.698830
 20
729.762146
  0
VERTEX
  8
0
 10
70.150703
 20
729.933289
  0
VERTEX
  8
0
 10
68.805466
 20
730.148254
  0
VERTEX
  8
0
 10
68.121719
 20
730.292175
  0
VERTEX
  8
0
 10
67.624374
 20
730.419800
  0
VERTEX
  8
0
 10
67.181793
 20
730.558472
  0
VERTEX
  8
0
 10
66.795700
 20
730.707397
  0
VERTEX
  8
0
 10
66.459839
 20
730.865479
  0
VERTEX
  8
0
 10
66.100937
 20
731.073914
  0
VERTEX
  8
0
 10
65.797813
 20
731.292419
  0
VERTEX
  8
0
 10
65.537735
 20
731.518494
  0
VERTEX
  8
0
 10
65.221870
 20
731.843262
  0
VERTEX
  8
0
 10
64.896324
 20
732.227112
  0
VERTEX
  8
0
 10
64.668282
 20
732.542664
  0
VERTEX
  8
0
 10
64.450157
 20
732.900757
  0
VERTEX
  8
0
 10
64.238434
 20
733.318665
  0
VERTEX
  8
0
 10
64.029449
 20
733.813416
  0
VERTEX
  8
0
 10
63.855782
 20
734.292969
  0
VERTEX
  8
0
 10
63.651875
 20
734.936523
  0
VERTEX
  8
0
 10
63.458828
 20
735.633606
  0
VERTEX
  8
0
 10
63.282810
 20
736.361938
  0
VERTEX
  8
0
 10
63.130310
 20
737.099487
  0
VERTEX
  8
0
 10
63.007263
 20
737.824829
  0
VERTEX
  8
0
 10
62.913750
 20
738.529053
  0
VERTEX
  8
0
 10
62.843826
 20
739.216003
  0
VERTEX
  8
0
 10
62.720310
 20
741.108276
  0
VERTEX
  8
0
 10
74.085625
 20
743.767639
  0
VERTEX
  8
0
 10
92.330467
 20
748.112000
  0
VERTEX
  8
0
 10
97.633827
 20
749.322144
  0
VERTEX
  8
0
 10
103.459373
 20
750.598022
  0
SEQEND
  8
0
  0
POLYLINE
  8
0
  0
VERTEX
  8
0
 10
83.059135
 20
731.606750
  0
VERTEX
  8
0
 10
91.029060
 20
731.775208
  0
SEQEND
  8
0
  0
POLYLINE
  8
0
  0
VERTEX
  8
0
 10
12.711719
 20
731.410461
  0
VERTEX
  8
0
 10
20.856796
 20
731.298096
  0
SEQEND
  8
0
  0
POLYLINE
  8
0
  0
VERTEX
  8
0
 10
95.964058
 20
750.337769
  0
VERTEX
  8
0
 10
96.224449
 20
743.990906
  0
VERTEX
  8
0
 10
96.390388
 20
739.203491
  0
VERTEX
  8
0
 10
96.477104
 20
735.414856
  0
VERTEX
  8
0
 10
96.493439
 20
733.477783
  0
VERTEX
  8
0
 10
96.486641
 20
732.154968
  0
VERTEX
  8
0
 10
96.462341
 20
730.953369
  0
VERTEX
  8
0
 10
96.405388
 20
729.532654
  0
VERTEX
  8
0
 10
96.324684
 20
728.304382
  0
VERTEX
  8
0
 10
96.225151
 20
727.252075
  0
VERTEX
  8
0
 10
96.111870
 20
726.359680
  0
VERTEX
  8
0
 10
95.958199
 20
725.443909
  0
VERTEX
  8
0
 10
95.800079
 20
724.720276
  0
VERTEX
  8
0
 10
95.617188
 20
724.060791
  0
VERTEX
  8
0
 10
95.466095
 20
723.647888
  0
VERTEX
  8
0
 10
95.299057
 20
723.325439
  0
VERTEX
  8
0
 10
95.099373
 20
723.061707
  0
VERTEX
  8
0
 10
94.850075
 20
722.825073
  0
VERTEX
  8
0
 10
94.461876
 20
722.532043
  0
VERTEX
  8
0
 10
91.857109
 20
720.723755
  0
VERTEX
  8
0
 10
90.140938
 20
719.456177
  0
VERTEX
  8
0
 10
89.304451
 20
718.802307
  0
VERTEX
  8
0
 10
88.622734
 20
718.237976
  0
VERTEX
  8
0
 10
87.938904
 20
717.628235
  0
VERTEX
  8
0
 10
87.429688
 20
717.136536
  0
VERTEX
  8
0
 10
86.927574
 20
716.611450
  0
VERTEX
  8
0
 10
86.435936
 20
716.049805
  0
VERTEX
  8
0
 10
85.958359
 20
715.448120
  0
VERTEX
  8
0
 10
85.649529
 20
715.023193
  0
VERTEX
  8
0
 10
85.203278
 20
714.347473
  0
VERTEX
  8
0
 10
84.918594
 20
713.870117
  0
VERTEX
  8
0
 10
84.645233
 20
713.370056
  0
VERTEX
  8
0
 10
84.383591
 20
712.847473
  0
VERTEX
  8
0
 10
83.892731
 20
711.739990
  0
VERTEX
  8
0
 10
83.440933
 20
710.558289
  0
VERTEX
  8
0
 10
82.923355
 20
708.992615
  0
VERTEX
  8
0
 10
82.448982
 20
707.348083
  0
VERTEX
  8
0
 10
82.093979
 20
705.989624
  0
VERTEX
  8
0
 10
81.672417
 20
704.255127
  0
VERTEX
  8
0
 10
80.144371
 20
697.541565
  0
VERTEX
  8
0
 10
79.466248
 20
694.709656
  0
VERTEX
  8
0
 10
79.104996
 20
693.301208
  0
VERTEX
  8
0
 10
78.723907
 20
691.900818
  0
VERTEX
  8
0
 10
78.001015
 20
689.471802
  0
VERTEX
  8
0
 10
77.553200
 20
688.094849
  0
VERTEX
  8
0
 10
77.078354
 20
686.724915
  0
VERTEX
  8
0
 10
76.574844
 20
685.360901
  0
VERTEX
  8
0
 10
76.041405
 20
684.002075
  0
VERTEX
  8
0
 10
75.476326
 20
682.647461
  0
VERTEX
  8
0
 10
74.878281
 20
681.296265
  0
VERTEX
  8
0
 10
74.407730
 20
680.285278
  0
VERTEX
  8
0
 10
73.754143
 20
678.947693
  0
VERTEX
  8
0
 10
73.075783
 20
677.632507
  0
VERTEX
  8
0
 10
72.554214
 20
676.667480
  0
VERTEX
  8
0
 10
71.487968
 20
674.813416
  0
VERTEX
  8
0
 10
70.767654
 20
673.648865
  0
VERTEX
  8
0
 10
70.226402
 20
672.821228
  0
VERTEX
  8
0
 10
69.686874
 20
672.038025
  0
VERTEX
  8
0
 10
69.151405
 20
671.304077
  0
VERTEX
  8
0
 10
68.621246
 20
670.621094
  0
VERTEX
  8
0
 10
68.096016
 20
669.986694
  0
VERTEX
  8
0
 10
67.574921
 20
669.397949
  0
VERTEX
  8
0
 10
67.057579
 20
668.851929
  0
VERTEX
  8
0
 10
66.543205
 20
668.345764
  0
VERTEX
  8
0
 10
65.861015
 20
667.727539
  0
VERTEX
  8
0
 10
65.351402
 20
667.302856
  0
VERTEX
  8
0
 10
64.673355
 20
666.782776
  0
VERTEX
  8
0
 10
63.995781
 20
666.309204
  0
VERTEX
  8
0
 10
63.316719
 20
665.875610
  0
VERTEX
  8
0
 10
62.631016
 20
665.478638
  0
VERTEX
  8
0
 10
62.108124
 20
665.204224
  0
VERTEX
  8
0
 10
61.393749
 20
664.867981
  0
VERTEX
  8
0
 10
60.653435
 20
664.564270
  0
VERTEX
  8
0
 10
59.879997
 20
664.291626
  0
VERTEX
  8
0
 10
59.274059
 20
664.106567
  0
VERTEX
  8
0
 10
58.425938
 20
663.884583
  0
VERTEX
  8
0
 10
57.755859
 20
663.735840
  0
VERTEX
  8
0
 10
56.814766
 20
663.560425
  0
VERTEX
  8
0
 10
55.829372
 20
663.412781
  0
VERTEX
  8
0
 10
54.812889
 20
663.294678
  0
VERTEX
  8
0
 10
53.778671
 20
663.208008
  0
VERTEX
  8
0
 10
52.739998
 20
663.154846
  0
VERTEX
  8
0
 10
51.966091
 20
663.138062
  0
VERTEX
  8
0
 10
50.951561
 20
663.147949
  0
VERTEX
  8
0
 10
50.211094
 20
663.180664
  0
VERTEX
  8
0
 10
49.494217
 20
663.236023
  0
VERTEX
  8
0
 10
48.579216
 20
663.344849
  0
VERTEX
  8
0
 10
47.921406
 20
663.451538
  0
VERTEX
  8
0
 10
47.078438
 20
663.625244
  0
VERTEX
  8
0
 10
46.270233
 20
663.832458
  0
VERTEX
  8
0
 10
45.492107
 20
664.070984
  0
VERTEX
  8
0
 10
44.739372
 20
664.338135
  0
VERTEX
  8
0
 10
43.827187
 20
664.708557
  0
VERTEX
  8
0
 10
42.938282
 20
665.115295
  0
VERTEX
  8
0
 10
42.237030
 20
665.470703
  0
VERTEX
  8
0
 10
41.538200
 20
665.864197
  0
VERTEX
  8
0
 10
40.835545
 20
666.307251
  0
VERTEX
  8
0
 10
40.123047
 20
666.810974
  0
VERTEX
  8
0
 10
39.578594
 20
667.235535
  0
VERTEX
  8
0
 10
38.834297
 20
667.872864
  0
VERTEX
  8
0
 10
38.258984
 20
668.410522
  0
VERTEX
  8
0
 10
37.666248
 20
669.004700
  0
VERTEX
  8
0
 10
37.053749
 20
669.659546
  0
VERTEX
  8
0
 10
36.209766
 20
670.624512
  0
VERTEX
  8
0
 10
35.561874
 20
671.411072
  0
VERTEX
  8
0
 10
34.905937
 20
672.246155
  0
VERTEX
  8
0
 10
34.246326
 20
673.125061
  0
VERTEX
  8
0
 10
33.368359
 20
674.356873
  0
VERTEX
  8
0
 10
32.716640
 20
675.319519
  0
VERTEX
  8
0
 10
32.075466
 20
676.310120
  0
VERTEX
  8
0
 10
31.449141
 20
677.323914
  0
VERTEX
  8
0
 10
30.841953
 20
678.356262
  0
VERTEX
  8
0
 10
30.257891
 20
679.402405
  0
VERTEX
  8
0
 10
29.697811
 20
680.460083
  0
VERTEX
  8
0
 10
29.160545
 20
681.528259
  0
VERTEX
  8
0
 10
28.477421
 20
682.967163
  0
VERTEX
  8
0
 10
27.672890
 20
684.786072
  0
VERTEX
  8
0
 10
26.917812
 20
686.623413
  0
VERTEX
  8
0
 10
26.206484
 20
688.474670
  0
VERTEX
  8
0
 10
25.532969
 20
690.335205
  0
VERTEX
  8
0
 10
24.766874
 20
692.572144
  0
VERTEX
  8
0
 10
24.037422
 20
694.798401
  0
VERTEX
  8
0
 10
22.085781
 20
700.892578
  0
VERTEX
  8
0
 10
21.068047
 20
703.889832
  0
VERTEX
  8
0
 10
20.274139
 20
706.070740
  0
VERTEX
  8
0
 10
19.596796
 20
707.822021
  0
VERTEX
  8
0
 10
18.815624
 20
709.713013
  0
VERTEX
  8
0
 10
18.158047
 20
711.192017
  0
VERTEX
  8
0
 10
17.513437
 20
712.533508
  0
VERTEX
  8
0
 10
16.875391
 20
713.749512
  0
VERTEX
  8
0
 10
16.235233
 20
714.856384
  0
VERTEX
  8
0
 10
15.584609
 20
715.870117
  0
VERTEX
  8
0
 10
14.914765
 20
716.807190
  0
VERTEX
  8
0
 10
14.100780
 20
717.823730
  0
VERTEX
  8
0
 10
13.271796
 20
718.766724
  0
VERTEX
  8
0
 10
11.422500
 20
720.763123
  0
VERTEX
  8
0
 10
10.979688
 20
721.274536
  0
VERTEX
  8
0
 10
10.669687
 20
721.666016
  0
VERTEX
  8
0
 10
10.269453
 20
722.251526
  0
VERTEX
  8
0
 10
9.986250
 20
722.764587
  0
VERTEX
  8
0
 10
9.694687
 20
723.446411
  0
VERTEX
  8
0
 10
9.482265
 20
724.097961
  0
VERTEX
  8
0
 10
9.251953
 20
725.015869
  0
VERTEX
  8
0
 10
9.075937
 20
725.909363
  0
VERTEX
  8
0
 10
8.888594
 20
727.129578
  0
VERTEX
  8
0
 10
8.756797
 20
728.262634
  0
VERTEX
  8
0
 10
8.651250
 20
729.494812
  0
VERTEX
  8
0
 10
8.575624
 20
730.820129
  0
VERTEX
  8
0
 10
8.539374
 20
731.943359
  0
VERTEX
  8
0
 10
8.525859
 20
733.417786
  0
VERTEX
  8
0
 10
8.544063
 20
734.948914
  0
VERTEX
  8
0
 10
8.600234
 20
736.825012
  0
VERTEX
  8
0
 10
8.685547
 20
738.701416
  0
VERTEX
  8
0
 10
8.790781
 20
740.533875
  0
VERTEX
  8
0
 10
9.090859
 20
744.700684
  0
VERTEX
  8
0
 10
9.542734
 20
749.805115
  0
SEQEND
  8
0
  0
POLYLINE
  8
0
  0
VERTEX
  8
0
 10
52.700935
 20
720.858032
  0
VERTEX
  8
0
 10
52.700935
 20
704.582825
  0
VERTEX
  8
0
 10
52.700935
 20
688.307556
  0
VERTEX
  8
0
 10
52.700935
 20
672.032349
  0
VERTEX
  8
0
 10
52.700935
 20
655.757202
  0
SEQEND
  8
0
  0
POLYLINE
  8
0
  0
VERTEX
  8
0
 10
21.035469
 20
712.644653
  0
VERTEX
  8
0
 10
21.734921
 20
709.994690
  0
VERTEX
  8
0
 10
22.268906
 20
708.059998
  0
VERTEX
  8
0
 10
22.756016
 20
706.411682
  0
VERTEX
  8
0
 10
23.259531
 20
704.854919
  0
VERTEX
  8
0
 10
23.979374
 20
702.832642
  0
VERTEX
  8
0
 10
25.998125
 20
697.445679
  0
VERTEX
  8
0
 10
28.438280
 20
690.657959
  0
VERTEX
  8
0
 10
29.363125
 20
688.193359
  0
VERTEX
  8
0
 10
29.917030
 20
686.817932
  0
VERTEX
  8
0
 10
30.484531
 20
685.503052
  0
VERTEX
  8
0
 10
31.070780
 20
684.233215
  0
VERTEX
  8
0
 10
31.770546
 20
682.812012
  0
VERTEX
  8
0
 10
32.605389
 20
681.216675
  0
VERTEX
  8
0
 10
33.397110
 20
679.779541
  0
VERTEX
  8
0
 10
34.128437
 20
678.522156
  0
VERTEX
  8
0
 10
34.894531
 20
677.286255
  0
VERTEX
  8
0
 10
35.811405
 20
675.925781
  0
VERTEX
  8
0
 10
36.648750
 20
674.801636
  0
VERTEX
  8
0
 10
37.520157
 20
673.739258
  0
VERTEX
  8
0
 10
38.561092
 20
672.585938
  0
VERTEX
  8
0
 10
39.653591
 20
671.480591
  0
VERTEX
  8
0
 10
40.948826
 20
670.274658
  0
VERTEX
  8
0
 10
42.158436
 20
669.246887
  0
VERTEX
  8
0
 10
43.258438
 20
668.407715
  0
VERTEX
  8
0
 10
44.230000
 20
667.750610
  0
VERTEX
  8
0
 10
44.725079
 20
667.448181
  0
VERTEX
  8
0
 10
45.226093
 20
667.165466
  0
VERTEX
  8
0
 10
46.073750
 20
666.741333
  0
VERTEX
  8
0
 10
46.589687
 20
666.515320
  0
VERTEX
  8
0
 10
47.110935
 20
666.310608
  0
VERTEX
  8
0
 10
47.637264
 20
666.127014
  0
VERTEX
  8
0
 10
48.168594
 20
665.964661
  0
VERTEX
  8
0
 10
48.704765
 20
665.823364
  0
VERTEX
  8
0
 10
49.245625
 20
665.703003
  0
VERTEX
  8
0
 10
49.791016
 20
665.603760
  0
VERTEX
  8
0
 10
50.340778
 20
665.525269
  0
VERTEX
  8
0
 10
50.894688
 20
665.467651
  0
VERTEX
  8
0
 10
51.452656
 20
665.430786
  0
VERTEX
  8
0
 10
52.014374
 20
665.413940
  0
VERTEX
  8
0
 10
52.768593
 20
665.421692
  0
VERTEX
  8
0
 10
53.337734
 20
665.449280
  0
VERTEX
  8
0
 10
54.100544
 20
665.513916
  0
VERTEX
  8
0
 10
54.675312
 20
665.582336
  0
VERTEX
  8
0
 10
55.444374
 20
665.698914
  0
VERTEX
  8
0
 10
56.795856
 20
665.968445
  0
VERTEX
  8
0
 10
57.569607
 20
666.157227
  0
VERTEX
  8
0
 10
58.340778
 20
666.370605
  0
VERTEX
  8
0
 10
59.104530
 20
666.608582
  0
VERTEX
  8
0
 10
59.669529
 20
666.803284
  0
VERTEX
  8
0
 10
60.408905
 20
667.084412
  0
VERTEX
  8
0
 10
60.950153
 20
667.311523
  0
VERTEX
  8
0
 10
61.650547
 20
667.636108
  0
VERTEX
  8
0
 10
62.157185
 20
667.895874
  0
VERTEX
  8
0
 10
62.645546
 20
668.169617
  0
VERTEX
  8
0
 10
63.113903
 20
668.457397
  0
VERTEX
  8
0
 10
63.562813
 20
668.759460
  0
VERTEX
  8
0
 10
63.994141
 20
669.075989
  0
VERTEX
  8
0
 10
64.409920
 20
669.407410
  0
VERTEX
  8
0
 10
64.812187
 20
669.753906
  0
VERTEX
  8
0
 10
65.584373
 20
670.493347
  0
VERTEX
  8
0
 10
66.448593
 20
671.436768
  0
VERTEX
  8
0
 10
67.297577
 20
672.470581
  0
VERTEX
  8
0
 10
68.263985
 20
673.761414
  0
VERTEX
  8
0
 10
69.094292
 20
674.976807
  0
VERTEX
  8
0
 10
69.784607
 20
676.075012
  0
VERTEX
  8
0
 10
70.446716
 20
677.219177
  0
VERTEX
  8
0
 10
71.072891
 20
678.403564
  0
VERTEX
  8
0
 10
71.659370
 20
679.619995
  0
VERTEX
  8
0
 10
72.206795
 20
680.858765
  0
VERTEX
  8
0
 10
72.715622
 20
682.109497
  0
VERTEX
  8
0
 10
73.261482
 20
683.570923
  0
VERTEX
  8
0
 10
73.756950
 20
685.019348
  0
VERTEX
  8
0
 10
74.331329
 20
686.846008
  0
VERTEX
  8
0
 10
75.489372
 20
690.712891
  0
VERTEX
  8
0
 10
76.837029
 20
694.915771
  0
VERTEX
  8
0
 10
77.403748
 20
696.858948
  0
VERTEX
  8
0
 10
77.991013
 20
699.171936
  0
VERTEX
  8
0
 10
79.455620
 20
705.431763
  0
VERTEX
  8
0
 10
80.617889
 20
710.065735
  0
SEQEND
  8
0
  0
POLYLINE
  8
0
  0
VERTEX
  8
0
 10
24.891327
 20
713.264954
  0
VERTEX
  8
0
 10
26.712891
 20
707.558350
  0
VERTEX
  8
0
 10
28.708750
 20
701.615845
  0
VERTEX
  8
0
 10
30.022655
 20
697.548401
  0
VERTEX
  8
0
 10
30.596718
 20
695.905090
  0
VERTEX
  8
0
 10
31.362812
 20
693.931641
  0
VERTEX
  8
0
 10
33.436405
 20
688.920898
  0
VERTEX
  8
0
 10
33.887032
 20
687.748718
  0
VERTEX
  8
0
 10
34.688904
 20
685.576965
  0
VERTEX
  8
0
 10
35.088280
 20
684.558105
  0
VERTEX
  8
0
 10
35.595310
 20
683.408875
  0
VERTEX
  8
0
 10
35.835155
 20
682.925781
  0
VERTEX
  8
0
 10
36.181091
 20
682.288025
  0
VERTEX
  8
0
 10
36.746407
 20
681.345276
  0
VERTEX
  8
0
 10
37.349609
 20
680.420776
  0
VERTEX
  8
0
 10
40.313904
 20
676.132080
  0
VERTEX
  8
0
 10
40.792187
 20
675.488403
  0
VERTEX
  8
0
 10
41.293358
 20
674.872009
  0
VERTEX
  8
0
 10
41.719376
 20
674.400513
  0
VERTEX
  8
0
 10
42.174767
 20
673.949829
  0
VERTEX
  8
0
 10
42.791248
 20
673.417175
  0
VERTEX
  8
0
 10
43.453827
 20
672.918396
  0
VERTEX
  8
0
 10
44.295624
 20
672.363831
  0
VERTEX
  8
0
 10
45.172264
 20
671.855713
  0
VERTEX
  8
0
 10
46.216015
 20
671.320007
  0
VERTEX
  8
0
 10
47.257420
 20
670.844055
  0
VERTEX
  8
0
 10
48.286640
 20
670.428955
  0
VERTEX
  8
0
 10
49.162029
 20
670.124207
  0
VERTEX
  8
0
 10
49.743515
 20
669.948425
  0
VERTEX
  8
0
 10
50.324219
 20
669.795288
  0
VERTEX
  8
0
 10
51.341091
 20
669.583984
  0
VERTEX
  8
0
 10
52.361641
 20
669.447083
  0
VERTEX
  8
0
 10
53.386169
 20
669.385376
  0
VERTEX
  8
0
 10
54.414608
 20
669.398865
  0
VERTEX
  8
0
 10
55.446560
 20
669.487671
  0
VERTEX
  8
0
 10
56.481796
 20
669.651917
  0
VERTEX
  8
0
 10
57.519531
 20
669.895081
  0
VERTEX
  8
0
 10
58.113125
 20
670.072144
  0
VERTEX
  8
0
 10
58.558437
 20
670.224365
  0
VERTEX
  8
0
 10
59.448669
 20
670.580750
  0
VERTEX
  8
0
 10
60.337734
 20
671.010681
  0
VERTEX
  8
0
 10
61.224529
 20
671.518677
  0
VERTEX
  8
0
 10
62.100937
 20
672.103394
  0
VERTEX
  8
0
 10
62.951950
 20
672.758606
  0
VERTEX
  8
0
 10
63.762341
 20
673.477112
  0
VERTEX
  8
0
 10
64.147652
 20
673.858032
  0
VERTEX
  8
0
 10
64.517029
 20
674.252319
  0
VERTEX
  8
0
 10
64.981483
 20
674.797180
  0
VERTEX
  8
0
 10
65.410469
 20
675.362183
  0
VERTEX
  8
0
 10
65.805000
 20
675.945740
  0
VERTEX
  8
0
 10
66.168747
 20
676.546570
  0
VERTEX
  8
0
 10
66.505310
 20
677.163330
  0
VERTEX
  8
0
 10
66.893433
 20
677.954651
  0
VERTEX
  8
0
 10
67.252029
 20
678.766174
  0
VERTEX
  8
0
 10
67.653511
 20
679.762939
  0
VERTEX
  8
0
 10
68.281250
 20
681.468018
  0
VERTEX
  8
0
 10
69.621796
 20
685.311707
  0
VERTEX
  8
0
 10
71.064995
 20
689.174194
  0
VERTEX
  8
0
 10
71.702965
 20
690.998413
  0
VERTEX
  8
0
 10
72.119530
 20
692.325684
  0
VERTEX
  8
0
 10
72.512344
 20
693.690918
  0
VERTEX
  8
0
 10
72.940231
 20
695.284607
  0
VERTEX
  8
0
 10
73.509064
 20
697.507019
  0
SEQEND
  8
0
  0
POLYLINE
  8
0
  0
VERTEX
  8
0
 10
65.733437
 20
706.412720
  0
VERTEX
  8
0
 10
68.445549
 20
704.869995
  0
VERTEX
  8
0
 10
68.424065
 20
706.455627
  0
VERTEX
  8
0
 10
68.402496
 20
708.041260
  0
VERTEX
  8
0
 10
65.733437
 20
706.412720
  0
SEQEND
  8
0
  0
POLYLINE
  8
0
  0
VERTEX
  8
0
 10
77.124138
 20
711.713135
  0
VERTEX
  8
0
 10
76.645782
 20
711.617981
  0
VERTEX
  8
0
 10
76.240234
 20
711.346985
  0
VERTEX
  8
0
 10
75.969292
 20
710.941467
  0
VERTEX
  8
0
 10
75.874138
 20
710.463135
  0
VERTEX
  8
0
 10
75.969292
 20
709.984741
  0
VERTEX
  8
0
 10
76.240234
 20
709.579224
  0
VERTEX
  8
0
 10
76.645782
 20
709.308289
  0
VERTEX
  8
0
 10
77.124138
 20
709.213135
  0
VERTEX
  8
0
 10
77.602501
 20
709.308289
  0
VERTEX
  8
0
 10
78.008041
 20
709.579224
  0
VERTEX
  8
0
 10
78.278984
 20
709.984741
  0
VERTEX
  8
0
 10
78.374138
 20
710.463135
  0
VERTEX
  8
0
 10
78.278984
 20
710.941467
  0
VERTEX
  8
0
 10
78.008041
 20
711.346985
  0
VERTEX
  8
0
 10
77.602501
 20
711.617981
  0
VERTEX
  8
0
 10
77.124138
 20
711.713135
  0
SEQEND
  8
0
  0
POLYLINE
  8
0
  0
VERTEX
  8
0
 10
75.157104
 20
705.327637
  0
VERTEX
  8
0
 10
74.678749
 20
705.232483
  0
VERTEX
  8
0
 10
74.273277
 20
704.961548
  0
VERTEX
  8
0
 10
74.002266
 20
704.556030
  0
VERTEX
  8
0
 10
73.907104
 20
704.077637
  0
VERTEX
  8
0
 10
74.002266
 20
703.599304
  0
VERTEX
  8
0
 10
74.273277
 20
703.193726
  0
VERTEX
  8
0
 10
74.678749
 20
702.922791
  0
VERTEX
  8
0
 10
75.157104
 20
702.827637
  0
VERTEX
  8
0
 10
75.635468
 20
702.922791
  0
VERTEX
  8
0
 10
76.041016
 20
703.193726
  0
VERTEX
  8
0
 10
76.312027
 20
703.599304
  0
VERTEX
  8
0
 10
76.407104
 20
704.077637
  0
VERTEX
  8
0
 10
76.312027
 20
704.556030
  0
VERTEX
  8
0
 10
76.041016
 20
704.961548
  0
VERTEX
  8
0
 10
75.635468
 20
705.232483
  0
VERTEX
  8
0
 10
75.157104
 20
705.327637
  0
SEQEND
  8
0
  0
POLYLINE
  8
0
  0
VERTEX
  8
0
 10
52.704372
 20
663.020203
  0
VERTEX
  8
0
 10
52.226013
 20
662.925171
  0
VERTEX
  8
0
 10
51.820469
 20
662.654114
  0
VERTEX
  8
0
 10
51.549530
 20
662.248596
  0
VERTEX
  8
0
 10
51.454372
 20
661.770203
  0
VERTEX
  8
0
 10
51.549530
 20
661.291870
  0
VERTEX
  8
0
 10
51.820469
 20
660.886414
  0
VERTEX
  8
0
 10
52.226013
 20
660.615356
  0
VERTEX
  8
0
 10
52.704372
 20
660.520203
  0
VERTEX
  8
0
 10
53.182732
 20
660.615356
  0
VERTEX
  8
0
 10
53.588280
 20
660.886414
  0
VERTEX
  8
0
 10
53.859219
 20
661.291870
  0
VERTEX
  8
0
 10
53.954372
 20
661.770203
  0
VERTEX
  8
0
 10
53.859219
 20
662.248596
  0
VERTEX
  8
0
 10
53.588280
 20
662.654114
  0
VERTEX
  8
0
 10
53.182732
 20
662.925171
  0
VERTEX
  8
0
 10
52.704372
 20
663.020203
  0
SEQEND
  8
0
  0
POLYLINE
  8
0
  0
VERTEX
  8
0
 10
18.997030
 20
728.078247
  0
VERTEX
  8
0
 10
18.518671
 20
727.983093
  0
VERTEX
  8
0
 10
18.113125
 20
727.712158
  0
VERTEX
  8
0
 10
17.842188
 20
727.306641
  0
VERTEX
  8
0
 10
17.747030
 20
726.828247
  0
VERTEX
  8
0
 10
17.842188
 20
726.349915
  0
VERTEX
  8
0
 10
18.113125
 20
725.944336
  0
VERTEX
  8
0
 10
18.518671
 20
725.673401
  0
VERTEX
  8
0
 10
18.997030
 20
725.578247
  0
VERTEX
  8
0
 10
19.475311
 20
725.673401
  0
VERTEX
  8
0
 10
19.880859
 20
725.944336
  0
VERTEX
  8
0
 10
20.151875
 20
726.349915
  0
VERTEX
  8
0
 10
20.247030
 20
726.828247
  0
VERTEX
  8
0
 10
20.151875
 20
727.306641
  0
VERTEX
  8
0
 10
19.880859
 20
727.712158
  0
VERTEX
  8
0
 10
19.475311
 20
727.983093
  0
VERTEX
  8
0
 10
18.997030
 20
728.078247
  0
SEQEND
  8
0
  0
POLYLINE
  8
0
  0
VERTEX
  8
0
 10
32.234138
 20
738.955627
  0
VERTEX
  8
0
 10
31.755781
 20
738.860474
  0
VERTEX
  8
0
 10
31.350233
 20
738.589539
  0
VERTEX
  8
0
 10
31.079296
 20
738.184021
  0
VERTEX
  8
0
 10
30.984140
 20
737.705627
  0
VERTEX
  8
0
 10
31.079296
 20
737.227356
  0
VERTEX
  8
0
 10
31.350233
 20
736.821777
  0
VERTEX
  8
0
 10
31.755781
 20
736.550781
  0
VERTEX
  8
0
 10
32.234138
 20
736.455627
  0
VERTEX
  8
0
 10
32.712498
 20
736.550781
  0
VERTEX
  8
0
 10
33.118046
 20
736.821777
  0
VERTEX
  8
0
 10
33.388985
 20
737.227356
  0
VERTEX
  8
0
 10
33.484138
 20
737.705627
  0
VERTEX
  8
0
 10
33.388985
 20
738.184021
  0
VERTEX
  8
0
 10
33.118046
 20
738.589539
  0
VERTEX
  8
0
 10
32.712498
 20
738.860474
  0
VERTEX
  8
0
 10
32.234138
 20
738.955627
  0
SEQEND
  8
0
  0
POLYLINE
  8
0
  0
VERTEX
  8
0
 10
85.922653
 20
728.032654
  0
VERTEX
  8
0
 10
85.444298
 20
727.937500
  0
VERTEX
  8
0
 10
85.038750
 20
727.666565
  0
VERTEX
  8
0
 10
84.767807
 20
727.260986
  0
VERTEX
  8
0
 10
84.672653
 20
726.782654
  0
VERTEX
  8
0
 10
84.767807
 20
726.304260
  0
VERTEX
  8
0
 10
85.038750
 20
725.898743
  0
VERTEX
  8
0
 10
85.444298
 20
725.627808
  0
VERTEX
  8
0
 10
85.922653
 20
725.532654
  0
VERTEX
  8
0
 10
86.401016
 20
725.627808
  0
VERTEX
  8
0
 10
86.806564
 20
725.898743
  0
VERTEX
  8
0
 10
87.077499
 20
726.304260
  0
VERTEX
  8
0
 10
87.172653
 20
726.782654
  0
VERTEX
  8
0
 10
87.077499
 20
727.260986
  0
VERTEX
  8
0
 10
86.806564
 20
727.666565
  0
VERTEX
  8
0
 10
86.401016
 20
727.937500
  0
VERTEX
  8
0
 10
85.922653
 20
728.032654
  0
SEQEND
  8
0
  0
POLYLINE
  8
0
  0
VERTEX
  8
0
 10
71.416016
 20
739.504028
  0
VERTEX
  8
0
 10
70.937653
 20
739.408875
  0
VERTEX
  8
0
 10
70.532104
 20
739.137939
  0
VERTEX
  8
0
 10
70.261093
 20
738.732483
  0
VERTEX
  8
0
 10
70.166016
 20
738.254028
  0
VERTEX
  8
0
 10
70.261093
 20
737.775757
  0
VERTEX
  8
0
 10
70.532104
 20
737.370239
  0
VERTEX
  8
0
 10
70.937653
 20
737.099182
  0
VERTEX
  8
0
 10
71.416016
 20
737.004028
  0
VERTEX
  8
0
 10
71.894371
 20
737.099182
  0
VERTEX
  8
0
 10
72.299843
 20
737.370239
  0
VERTEX
  8
0
 10
72.570854
 20
737.775757
  0
VERTEX
  8
0
 10
72.666016
 20
738.254028
  0
VERTEX
  8
0
 10
72.570854
 20
738.732483
  0
VERTEX
  8
0
 10
72.299843
 20
739.137939
  0
VERTEX
  8
0
 10
71.894371
 20
739.408875
  0
VERTEX
  8
0
 10
71.416016
 20
739.504028
  0
SEQEND
  8
0
  0
POLYLINE
  8
0
  0
VERTEX
  8
0
 10
52.858047
 20
719.250122
  0
VERTEX
  8
0
 10
52.475388
 20
719.174072
  0
VERTEX
  8
0
 10
52.150936
 20
718.957275
  0
VERTEX
  8
0
 10
51.934219
 20
718.632813
  0
VERTEX
  8
0
 10
51.858047
 20
718.250122
  0
VERTEX
  8
0
 10
51.934219
 20
717.867493
  0
VERTEX
  8
0
 10
52.150936
 20
717.543030
  0
VERTEX
  8
0
 10
52.475388
 20
717.326233
  0
VERTEX
  8
0
 10
52.858047
 20
717.250122
  0
VERTEX
  8
0
 10
53.240780
 20
717.326233
  0
VERTEX
  8
0
 10
53.565155
 20
717.543030
  0
VERTEX
  8
0
 10
53.781952
 20
717.867493
  0
VERTEX
  8
0
 10
53.858047
 20
718.250122
  0
VERTEX
  8
0
 10
53.781952
 20
718.632813
  0
VERTEX
  8
0
 10
53.565155
 20
718.957275
  0
VERTEX
  8
0
 10
53.240780
 20
719.174072
  0
VERTEX
  8
0
 10
52.858047
 20
719.250122
  0
SEQEND
  8
0
  0
ENDSEC
  0
EOF
