  0
SECTION
  2
HEADER
  9
$ACADVER
  1
AC1006
  9
$EXTMIN
 10
0.999609
 20
1.000000
  9
$EXTMAX
 10
304.125854
 20
877.544617
  0
ENDSEC
  0
SECTION
  2
ENTITIES
  0
POLYLINE
  8
0
  0
VERTEX
  8
0
 10
118.856323
 20
1.000000
  0
VERTEX
  8
0
 10
104.711014
 20
6.088359
  0
VERTEX
  8
0
 10
95.038589
 20
9.588828
  0
VERTEX
  8
0
 10
86.047501
 20
12.877578
  0
VERTEX
  8
0
 10
79.528435
 20
15.298203
  0
VERTEX
  8
0
 10
72.346481
 20
18.008984
  0
VERTEX
  8
0
 10
64.238434
 20
21.128046
  0
VERTEX
  8
0
 10
57.342499
 20
23.835703
  0
VERTEX
  8
0
 10
52.149998
 20
25.934296
  0
VERTEX
  8
0
 10
51.900936
 20
27.574842
  0
VERTEX
  8
0
 10
48.814766
 20
27.493671
  0
VERTEX
  8
0
 10
44.027107
 20
29.739374
  0
VERTEX
  8
0
 10
42.201874
 20
30.625156
  0
VERTEX
  8
0
 10
40.348595
 20
31.552187
  0
VERTEX
  8
0
 10
38.459373
 20
32.531719
  0
VERTEX
  8
0
 10
37.176327
 20
33.219452
  0
VERTEX
  8
0
 10
35.216640
 20
34.308201
  0
VERTEX
  8
0
 10
33.890312
 20
35.073124
  0
VERTEX
  8
0
 10
31.877420
 20
36.281013
  0
VERTEX
  8
0
 10
30.523594
 20
37.127499
  0
VERTEX
  8
0
 10
29.163202
 20
38.007732
  0
VERTEX
  8
0
 10
27.798750
 20
38.922577
  0
VERTEX
  8
0
 10
25.750000
 20
40.361248
  0
VERTEX
  8
0
 10
24.387032
 20
41.364841
  0
VERTEX
  8
0
 10
23.031641
 20
42.401718
  0
VERTEX
  8
0
 10
21.689297
 20
43.469139
  0
VERTEX
  8
0
 10
20.365469
 20
44.563904
  0
VERTEX
  8
0
 10
19.065468
 20
45.683281
  0
VERTEX
  8
0
 10
17.794687
 20
46.824139
  0
VERTEX
  8
0
 10
16.558594
 20
47.983749
  0
VERTEX
  8
0
 10
15.362422
 20
49.159061
  0
VERTEX
  8
0
 10
14.211719
 20
50.347187
  0
VERTEX
  8
0
 10
13.111094
 20
51.545078
  0
VERTEX
  8
0
 10
12.062578
 20
52.749451
  0
VERTEX
  8
0
 10
11.067578
 20
53.957031
  0
VERTEX
  8
0
 10
10.127188
 20
55.164452
  0
VERTEX
  8
0
 10
9.242812
 20
56.368202
  0
VERTEX
  8
0
 10
8.415937
 20
57.565079
  0
VERTEX
  8
0
 10
7.647500
 20
58.751717
  0
VERTEX
  8
0
 10
6.939062
 20
59.924686
  0
VERTEX
  8
0
 10
6.292031
 20
61.080624
  0
VERTEX
  8
0
 10
5.706328
 20
62.218281
  0
VERTEX
  8
0
 10
5.177734
 20
63.343357
  0
VERTEX
  8
0
 10
4.700937
 20
64.463905
  0
VERTEX
  8
0
 10
4.270469
 20
65.587891
  0
VERTEX
  8
0
 10
4.070859
 20
66.153671
  0
VERTEX
  8
0
 10
3.699765
 20
67.297501
  0
VERTEX
  8
0
 10
3.361406
 20
68.464455
  0
VERTEX
  8
0
 10
2.903359
 20
70.275543
  0
VERTEX
  8
0
 10
2.623203
 20
71.534843
  0
VERTEX
  8
0
 10
2.231719
 20
73.511955
  0
VERTEX
  8
0
 10
1.879531
 20
75.571877
  0
VERTEX
  8
0
 10
1.670781
 20
76.975700
  0
VERTEX
  8
0
 10
1.402734
 20
79.104057
  0
VERTEX
  8
0
 10
1.257813
 20
80.524605
  0
VERTEX
  8
0
 10
1.096953
 20
82.634453
  0
VERTEX
  8
0
 10
1.031094
 20
84.013512
  0
VERTEX
  8
0
 10
1.000000
 20
86.029449
  0
VERTEX
  8
0
 10
1.026953
 20
87.351791
  0
VERTEX
  8
0
 10
1.093906
 20
88.670547
  0
VERTEX
  8
0
 10
1.202187
 20
89.997261
  0
VERTEX
  8
0
 10
1.353828
 20
91.343513
  0
VERTEX
  8
0
 10
1.550000
 20
92.721245
  0
VERTEX
  8
0
 10
1.792656
 20
94.141876
  0
VERTEX
  8
0
 10
2.083125
 20
95.617027
  0
VERTEX
  8
0
 10
2.611172
 20
97.952888
  0
VERTEX
  8
0
 10
3.021562
 20
99.580856
  0
VERTEX
  8
0
 10
3.473828
 20
101.244530
  0
VERTEX
  8
0
 10
3.963828
 20
102.925781
  0
VERTEX
  8
0
 10
4.487109
 20
104.606323
  0
VERTEX
  8
0
 10
5.039609
 20
106.267967
  0
VERTEX
  8
0
 10
5.617031
 20
107.892494
  0
VERTEX
  8
0
 10
6.215312
 20
109.461792
  0
VERTEX
  8
0
 10
6.830156
 20
110.957573
  0
VERTEX
  8
0
 10
7.458437
 20
112.366714
  0
VERTEX
  8
0
 10
7.778281
 20
113.040779
  0
VERTEX
  8
0
 10
8.431250
 20
114.335312
  0
VERTEX
  8
0
 10
9.104688
 20
115.568748
  0
VERTEX
  8
0
 10
9.801953
 20
116.753281
  0
VERTEX
  8
0
 10
10.899610
 20
118.465157
  0
VERTEX
  8
0
 10
11.670625
 20
119.581017
  0
VERTEX
  8
0
 10
12.476953
 20
120.690781
  0
VERTEX
  8
0
 10
13.759531
 20
122.370468
  0
VERTEX
  8
0
 10
14.666562
 20
123.509529
  0
VERTEX
  8
0
 10
15.615781
 20
124.660622
  0
VERTEX
  8
0
 10
16.607187
 20
125.819298
  0
VERTEX
  8
0
 10
17.641094
 20
126.981247
  0
VERTEX
  8
0
 10
18.717499
 20
128.142258
  0
VERTEX
  8
0
 10
20.412579
 20
129.872574
  0
VERTEX
  8
0
 10
21.596483
 20
131.012268
  0
VERTEX
  8
0
 10
22.204609
 20
131.576477
  0
VERTEX
  8
0
 10
22.823593
 20
132.136093
  0
VERTEX
  8
0
 10
24.094374
 20
133.240540
  0
VERTEX
  8
0
 10
24.746407
 20
133.785858
  0
VERTEX
  8
0
 10
26.084530
 20
134.863831
  0
VERTEX
  8
0
 10
27.468985
 20
135.926636
  0
VERTEX
  8
0
 10
28.901093
 20
136.976486
  0
VERTEX
  8
0
 10
31.140781
 20
138.531555
  0
VERTEX
  8
0
 10
33.493904
 20
140.069214
  0
VERTEX
  8
0
 10
35.964531
 20
141.596634
  0
VERTEX
  8
0
 10
37.677578
 20
142.611954
  0
VERTEX
  8
0
 10
39.438591
 20
143.624374
  0
VERTEX
  8
0
 10
41.241638
 20
144.632034
  0
VERTEX
  8
0
 10
43.080547
 20
145.633362
  0
VERTEX
  8
0
 10
44.949532
 20
146.626801
  0
VERTEX
  8
0
 10
47.796249
 20
148.098434
  0
VERTEX
  8
0
 10
51.641094
 20
150.017502
  0
VERTEX
  8
0
 10
54.539139
 20
151.418747
  0
VERTEX
  8
0
 10
56.488594
 20
152.339294
  0
VERTEX
  8
0
 10
60.500389
 20
154.174210
  0
VERTEX
  8
0
 10
64.770782
 20
156.041870
  0
VERTEX
  8
0
 10
69.428589
 20
157.990463
  0
VERTEX
  8
0
 10
74.595078
 20
160.065628
  0
VERTEX
  8
0
 10
80.211403
 20
162.241867
  0
VERTEX
  8
0
 10
86.038750
 20
164.423981
  0
VERTEX
  8
0
 10
91.830307
 20
166.513046
  0
VERTEX
  8
0
 10
94.635704
 20
167.491943
  0
VERTEX
  8
0
 10
97.339684
 20
168.410614
  0
VERTEX
  8
0
 10
99.918983
 20
169.259995
  0
VERTEX
  8
0
 10
102.380775
 20
170.044922
  0
VERTEX
  8
0
 10
104.739685
 20
170.773361
  0
VERTEX
  8
0
 10
107.010391
 20
171.453506
  0
VERTEX
  8
0
 10
111.346245
 20
172.700775
  0
VERTEX
  8
0
 10
117.556091
 20
174.410461
  0
VERTEX
  8
0
 10
119.975548
 20
172.839142
  0
VERTEX
  8
0
 10
121.320702
 20
171.991867
  0
VERTEX
  8
0
 10
122.153587
 20
171.519913
  0
VERTEX
  8
0
 10
123.123276
 20
171.044525
  0
VERTEX
  8
0
 10
124.489998
 20
170.459610
  0
VERTEX
  8
0
 10
125.217499
 20
170.181396
  0
VERTEX
  8
0
 10
125.935387
 20
169.932816
  0
VERTEX
  8
0
 10
126.620781
 20
169.724762
  0
VERTEX
  8
0
 10
127.276093
 20
169.551331
  0
VERTEX
  8
0
 10
128.838898
 20
169.204834
  0
VERTEX
  8
0
 10
125.588745
 20
153.056641
  0
VERTEX
  8
0
 10
122.338516
 20
136.908432
  0
VERTEX
  8
0
 10
114.965622
 20
137.149689
  0
VERTEX
  8
0
 10
110.292419
 20
137.256012
  0
VERTEX
  8
0
 10
108.082886
 20
137.280548
  0
VERTEX
  8
0
 10
105.980232
 20
137.281006
  0
VERTEX
  8
0
 10
103.991791
 20
137.255936
  0
VERTEX
  8
0
 10
102.122810
 20
137.204132
  0
VERTEX
  8
0
 10
100.378517
 20
137.124680
  0
VERTEX
  8
0
 10
98.764137
 20
137.016327
  0
VERTEX
  8
0
 10
97.762733
 20
136.927490
  0
VERTEX
  8
0
 10
96.376404
 20
136.769211
  0
VERTEX
  8
0
 10
95.129135
 20
136.585388
  0
VERTEX
  8
0
 10
94.019371
 20
136.384140
  0
VERTEX
  8
0
 10
93.045235
 20
136.173431
  0
VERTEX
  8
0
 10
91.954063
 20
135.891876
  0
VERTEX
  8
0
 10
91.096016
 20
135.626953
  0
VERTEX
  8
0
 10
90.440781
 20
135.375854
  0
VERTEX
  8
0
 10
90.033905
 20
135.169678
  0
VERTEX
  8
0
 10
89.782654
 20
135.011948
  0
VERTEX
  8
0
 10
89.534683
 20
134.830780
  0
VERTEX
  8
0
 10
89.145233
 20
134.501175
  0
VERTEX
  8
0
 10
88.702187
 20
134.083435
  0
VERTEX
  8
0
 10
85.692184
 20
131.042725
  0
VERTEX
  8
0
 10
84.912262
 20
130.282425
  0
VERTEX
  8
0
 10
84.388512
 20
129.800705
  0
VERTEX
  8
0
 10
83.741875
 20
129.260773
  0
VERTEX
  8
0
 10
83.270073
 20
128.916718
  0
VERTEX
  8
0
 10
82.787735
 20
128.611328
  0
VERTEX
  8
0
 10
82.093979
 20
128.243439
  0
VERTEX
  8
0
 10
81.308746
 20
127.896561
  0
VERTEX
  8
0
 10
80.197418
 20
127.471092
  0
VERTEX
  8
0
 10
74.694138
 20
125.535698
  0
VERTEX
  8
0
 10
71.572578
 20
124.465157
  0
VERTEX
  8
0
 10
63.359764
 20
121.729218
  0
VERTEX
  8
0
 10
60.756329
 20
120.817810
  0
VERTEX
  8
0
 10
58.963047
 20
120.154449
  0
VERTEX
  8
0
 10
56.827106
 20
119.300621
  0
VERTEX
  8
0
 10
54.879608
 20
118.441635
  0
VERTEX
  8
0
 10
52.997890
 20
117.530624
  0
VERTEX
  8
0
 10
50.551327
 20
116.247498
  0
VERTEX
  8
0
 10
47.850544
 20
114.747650
  0
VERTEX
  8
0
 10
46.158047
 20
113.764999
  0
VERTEX
  8
0
 10
45.027031
 20
113.086639
  0
VERTEX
  8
0
 10
43.359451
 20
112.047729
  0
VERTEX
  8
0
 10
42.286171
 20
111.348907
  0
VERTEX
  8
0
 10
41.259060
 20
110.651405
  0
VERTEX
  8
0
 10
40.290936
 20
109.960464
  0
VERTEX
  8
0
 10
39.386562
 20
109.278122
  0
VERTEX
  8
0
 10
38.542889
 20
108.603203
  0
VERTEX
  8
0
 10
37.756485
 20
107.934532
  0
VERTEX
  8
0
 10
36.676563
 20
106.939682
  0
VERTEX
  8
0
 10
36.018204
 20
106.280312
  0
VERTEX
  8
0
 10
35.404922
 20
105.622345
  0
VERTEX
  8
0
 10
34.833359
 20
104.964371
  0
VERTEX
  8
0
 10
34.046795
 20
103.974686
  0
VERTEX
  8
0
 10
33.335312
 20
102.980469
  0
VERTEX
  8
0
 10
32.688438
 20
101.984451
  0
VERTEX
  8
0
 10
32.096016
 20
100.989449
  0
VERTEX
  8
0
 10
31.547890
 20
99.998512
  0
VERTEX
  8
0
 10
30.705000
 20
98.364059
  0
VERTEX
  8
0
 10
30.074686
 20
97.065857
  0
VERTEX
  8
0
 10
29.635389
 20
96.060623
  0
VERTEX
  8
0
 10
29.235468
 20
94.992653
  0
VERTEX
  8
0
 10
28.884453
 20
93.829918
  0
VERTEX
  8
0
 10
28.682343
 20
92.986404
  0
VERTEX
  8
0
 10
28.509140
 20
92.077110
  0
VERTEX
  8
0
 10
28.367500
 20
91.093048
  0
VERTEX
  8
0
 10
28.258358
 20
90.037651
  0
VERTEX
  8
0
 10
28.180780
 20
88.926323
  0
VERTEX
  8
0
 10
28.133827
 20
87.775467
  0
VERTEX
  8
0
 10
28.118593
 20
86.009918
  0
VERTEX
  8
0
 10
28.143749
 20
84.830391
  0
VERTEX
  8
0
 10
28.195936
 20
83.667580
  0
VERTEX
  8
0
 10
28.274218
 20
82.537811
  0
VERTEX
  8
0
 10
28.377577
 20
81.457108
  0
VERTEX
  8
0
 10
28.505077
 20
80.437889
  0
VERTEX
  8
0
 10
28.656639
 20
79.478279
  0
VERTEX
  8
0
 10
28.831797
 20
78.572578
  0
VERTEX
  8
0
 10
29.030703
 20
77.715157
  0
VERTEX
  8
0
 10
29.253202
 20
76.900314
  0
VERTEX
  8
0
 10
29.498905
 20
76.122574
  0
VERTEX
  8
0
 10
29.767889
 20
75.376015
  0
VERTEX
  8
0
 10
30.059999
 20
74.655312
  0
VERTEX
  8
0
 10
30.375000
 20
73.954605
  0
VERTEX
  8
0
 10
30.712734
 20
73.269142
  0
VERTEX
  8
0
 10
31.072500
 20
72.597496
  0
VERTEX
  8
0
 10
31.651405
 20
71.614449
  0
VERTEX
  8
0
 10
32.062420
 20
70.974373
  0
VERTEX
  8
0
 10
32.714607
 20
70.035698
  0
VERTEX
  8
0
 10
33.407032
 20
69.120781
  0
VERTEX
  8
0
 10
34.136951
 20
68.227501
  0
VERTEX
  8
0
 10
34.903439
 20
67.353668
  0
VERTEX
  8
0
 10
35.438358
 20
66.781250
  0
VERTEX
  8
0
 10
36.283279
 20
65.937263
  0
VERTEX
  8
0
 10
36.878750
 20
65.383667
  0
VERTEX
  8
0
 10
37.827499
 20
64.566246
  0
VERTEX
  8
0
 10
38.500858
 20
64.029297
  0
VERTEX
  8
0
 10
39.210075
 20
63.498516
  0
VERTEX
  8
0
 10
39.957813
 20
62.973434
  0
VERTEX
  8
0
 10
41.153126
 20
62.197342
  0
VERTEX
  8
0
 10
41.998123
 20
61.688984
  0
VERTEX
  8
0
 10
42.880466
 20
61.188828
  0
VERTEX
  8
0
 10
43.799530
 20
60.697811
  0
VERTEX
  8
0
 10
45.244999
 20
59.980545
  0
VERTEX
  8
0
 10
46.251873
 20
59.516327
  0
VERTEX
  8
0
 10
47.292576
 20
59.064373
  0
VERTEX
  8
0
 10
48.366093
 20
58.625546
  0
VERTEX
  8
0
 10
49.470234
 20
58.200077
  0
VERTEX
  8
0
 10
51.176014
 20
57.585857
  0
VERTEX
  8
0
 10
52.341171
 20
57.191563
  0
VERTEX
  8
0
 10
54.121639
 20
56.621719
  0
VERTEX
  8
0
 10
57.146797
 20
55.725311
  0
VERTEX
  8
0
 10
60.801796
 20
54.728748
  0
VERTEX
  8
0
 10
64.374062
 20
53.815468
  0
VERTEX
  8
0
 10
71.710075
 20
52.013828
  0
VERTEX
  8
0
 10
73.478516
 20
51.560154
  0
VERTEX
  8
0
 10
74.724762
 20
51.222343
  0
VERTEX
  8
0
 10
76.294998
 20
50.763515
  0
VERTEX
  8
0
 10
77.776482
 20
50.280937
  0
VERTEX
  8
0
 10
78.485939
 20
50.024609
  0
VERTEX
  8
0
 10
79.174141
 20
49.754688
  0
VERTEX
  8
0
 10
80.166245
 20
49.318123
  0
VERTEX
  8
0
 10
80.800545
 20
49.001953
  0
VERTEX
  8
0
 10
81.412811
 20
48.662422
  0
VERTEX
  8
0
 10
82.289528
 20
48.103436
  0
VERTEX
  8
0
 10
83.116013
 20
47.477734
  0
VERTEX
  8
0
 10
83.640312
 20
47.026093
  0
VERTEX
  8
0
 10
84.145309
 20
46.552422
  0
VERTEX
  8
0
 10
84.870232
 20
45.810860
  0
VERTEX
  8
0
 10
85.561012
 20
45.046482
  0
VERTEX
  8
0
 10
88.268745
 20
41.849297
  0
VERTEX
  8
0
 10
89.640465
 20
40.275391
  0
VERTEX
  8
0
 10
90.429062
 20
39.426250
  0
VERTEX
  8
0
 10
90.957344
 20
38.924767
  0
VERTEX
  8
0
 10
91.258354
 20
38.680000
  0
VERTEX
  8
0
 10
91.682655
 20
38.383984
  0
VERTEX
  8
0
 10
92.177345
 20
38.085312
  0
VERTEX
  8
0
 10
92.621635
 20
37.844608
  0
VERTEX
  8
0
 10
93.146713
 20
37.594765
  0
VERTEX
  8
0
 10
93.549454
 20
37.426483
  0
VERTEX
  8
0
 10
93.999763
 20
37.259296
  0
VERTEX
  8
0
 10
94.502419
 20
37.095310
  0
VERTEX
  8
0
 10
95.364532
 20
36.859844
  0
VERTEX
  8
0
 10
96.370308
 20
36.643047
  0
VERTEX
  8
0
 10
97.521095
 20
36.451015
  0
VERTEX
  8
0
 10
98.358902
 20
36.338593
  0
VERTEX
  8
0
 10
99.704605
 20
36.196484
  0
VERTEX
  8
0
 10
100.651558
 20
36.121094
  0
VERTEX
  8
0
 10
102.129997
 20
36.039845
  0
VERTEX
  8
0
 10
103.144531
 20
36.008595
  0
VERTEX
  8
0
 10
104.693199
 20
35.999062
  0
VERTEX
  8
0
 10
106.787262
 20
36.049843
  0
VERTEX
  8
0
 10
112.634529
 20
36.347187
  0
VERTEX
  8
0
 10
115.295860
 20
36.441250
  0
VERTEX
  8
0
 10
118.475235
 20
36.477032
  0
VERTEX
  8
0
 10
123.228119
 20
36.443672
  0
VERTEX
  8
0
 10
123.228119
 20
36.443672
  0
VERTEX
  8
0
 10
126.618355
 20
21.191093
  0
VERTEX
  8
0
 10
130.008514
 20
5.938516
  0
VERTEX
  8
0
 10
127.733978
 20
5.129297
  0
VERTEX
  8
0
 10
126.288826
 20
4.594922
  0
VERTEX
  8
0
 10
124.949059
 20
4.067812
  0
VERTEX
  8
0
 10
123.720856
 20
3.543594
  0
VERTEX
  8
0
 10
122.575157
 20
3.010781
  0
VERTEX
  8
0
 10
121.481796
 20
2.457891
  0
VERTEX
  8
0
 10
120.419373
 20
1.883516
  0
VERTEX
  8
0
 10
118.856323
 20
1.000000
  0
SEQEND
  8
0
  0
POLYLINE
  8
0
  0
VERTEX
  8
0
 10
99.228592
 20
31.250937
  0
VERTEX
  8
0
 10
98.229370
 20
29.297421
  0
VERTEX
  8
0
 10
97.313278
 20
27.624453
  0
VERTEX
  8
0
 10
96.470078
 20
26.232422
  0
VERTEX
  8
0
 10
95.534058
 20
24.845547
  0
VERTEX
  8
0
 10
94.323280
 20
23.207422
  0
VERTEX
  8
0
 10
93.073433
 20
21.623671
  0
VERTEX
  8
0
 10
91.430702
 20
19.629375
  0
VERTEX
  8
0
 10
89.221092
 20
17.027031
  0
SEQEND
  8
0
  0
POLYLINE
  8
0
  0
VERTEX
  8
0
 10
75.355698
 20
23.156406
  0
VERTEX
  8
0
 10
74.185387
 20
19.897499
  0
SEQEND
  8
0
  0
POLYLINE
  8
0
  0
VERTEX
  8
0
 10
28.082420
 20
86.719917
  0
VERTEX
  8
0
 10
14.577656
 20
86.484215
  0
VERTEX
  8
0
 10
1.072891
 20
86.248436
  0
SEQEND
  8
0
  0
POLYLINE
  8
0
  0
VERTEX
  8
0
 10
87.286949
 20
158.014526
  0
VERTEX
  8
0
 10
89.126953
 20
155.798279
  0
VERTEX
  8
0
 10
90.374451
 20
154.263672
  0
VERTEX
  8
0
 10
91.516167
 20
152.805618
  0
VERTEX
  8
0
 10
92.327576
 20
151.712967
  0
VERTEX
  8
0
 10
93.573906
 20
149.919601
  0
VERTEX
  8
0
 10
95.764061
 20
146.611252
  0
VERTEX
  8
0
 10
98.134293
 20
143.081711
  0
SEQEND
  8
0
  0
POLYLINE
  8
0
  0
VERTEX
  8
0
 10
79.233124
 20
155.387497
  0
VERTEX
  8
0
 10
78.092499
 20
158.683197
  0
SEQEND
  8
0
  0
POLYLINE
  8
0
  0
VERTEX
  8
0
 10
98.947495
 20
766.123657
  0
VERTEX
  8
0
 10
99.821091
 20
778.724915
  0
VERTEX
  8
0
 10
100.909996
 20
794.224426
  0
VERTEX
  8
0
 10
103.731560
 20
794.430481
  0
VERTEX
  8
0
 10
104.037025
 20
798.989441
  0
VERTEX
  8
0
 10
104.672340
 20
807.817871
  0
VERTEX
  8
0
 10
104.914528
 20
811.426025
  0
VERTEX
  8
0
 10
105.112656
 20
815.053650
  0
VERTEX
  8
0
 10
105.172966
 20
816.680969
  0
VERTEX
  8
0
 10
105.203590
 20
818.198975
  0
VERTEX
  8
0
 10
105.199059
 20
819.954102
  0
VERTEX
  8
0
 10
105.154373
 20
821.547546
  0
VERTEX
  8
0
 10
105.062027
 20
823.234924
  0
VERTEX
  8
0
 10
104.918282
 20
824.887024
  0
VERTEX
  8
0
 10
104.781715
 20
825.907532
  0
VERTEX
  8
0
 10
104.598282
 20
826.859131
  0
VERTEX
  8
0
 10
104.351402
 20
827.797546
  0
VERTEX
  8
0
 10
104.099525
 20
828.558716
  0
VERTEX
  8
0
 10
103.709213
 20
829.514526
  0
VERTEX
  8
0
 10
103.431870
 20
830.085205
  0
VERTEX
  8
0
 10
103.227654
 20
830.462646
  0
VERTEX
  8
0
 10
102.891403
 20
831.022217
  0
VERTEX
  8
0
 10
102.646400
 20
831.389587
  0
VERTEX
  8
0
 10
102.246559
 20
831.928467
  0
VERTEX
  8
0
 10
101.957657
 20
832.277893
  0
VERTEX
  8
0
 10
101.489532
 20
832.783936
  0
VERTEX
  8
0
 10
101.153595
 20
833.107544
  0
VERTEX
  8
0
 10
100.797966
 20
833.418518
  0
VERTEX
  8
0
 10
100.422188
 20
833.715454
  0
VERTEX
  8
0
 10
100.025780
 20
833.997253
  0
VERTEX
  8
0
 10
99.610466
 20
834.263184
  0
VERTEX
  8
0
 10
98.736328
 20
834.746948
  0
VERTEX
  8
0
 10
97.827576
 20
835.165710
  0
VERTEX
  8
0
 10
97.368980
 20
835.350342
  0
VERTEX
  8
0
 10
96.685699
 20
835.596313
  0
VERTEX
  8
0
 10
96.018204
 20
835.804565
  0
VERTEX
  8
0
 10
95.582108
 20
835.923035
  0
VERTEX
  8
0
 10
94.924294
 20
836.072266
  0
VERTEX
  8
0
 10
94.472343
 20
836.154541
  0
VERTEX
  8
0
 10
93.502266
 20
836.282410
  0
VERTEX
  8
0
 10
92.087967
 20
836.384583
  0
VERTEX
  8
0
 10
90.730469
 20
836.430359
  0
VERTEX
  8
0
 10
88.788750
 20
836.449768
  0
VERTEX
  8
0
 10
85.840935
 20
836.414307
  0
VERTEX
  8
0
 10
82.925308
 20
836.317261
  0
VERTEX
  8
0
 10
80.499687
 20
836.196960
  0
VERTEX
  8
0
 10
73.492729
 20
835.801453
  0
VERTEX
  8
0
 10
69.400391
 20
835.628662
  0
VERTEX
  8
0
 10
67.181252
 20
835.566162
  0
VERTEX
  8
0
 10
64.830002
 20
835.522400
  0
VERTEX
  8
0
 10
58.934685
 20
835.474976
  0
VERTEX
  8
0
 10
53.639217
 20
835.468506
  0
VERTEX
  8
0
 10
48.602421
 20
835.485291
  0
VERTEX
  8
0
 10
44.112732
 20
835.525208
  0
VERTEX
  8
0
 10
40.363045
 20
835.579895
  0
VERTEX
  8
0
 10
35.599297
 20
835.676941
  0
VERTEX
  8
0
 10
30.194765
 20
835.817383
  0
VERTEX
  8
0
 10
25.678749
 20
835.959961
  0
VERTEX
  8
0
 10
19.586796
 20
836.183044
  0
VERTEX
  8
0
 10
18.440624
 20
836.199280
  0
VERTEX
  8
0
 10
17.316406
 20
836.187744
  0
VERTEX
  8
0
 10
15.913125
 20
836.134094
  0
VERTEX
  8
0
 10
14.243125
 20
836.013672
  0
VERTEX
  8
0
 10
12.872656
 20
835.867493
  0
VERTEX
  8
0
 10
11.539219
 20
835.675537
  0
VERTEX
  8
0
 10
10.271015
 20
835.426758
  0
VERTEX
  8
0
 10
9.322890
 20
835.178955
  0
VERTEX
  8
0
 10
8.449375
 20
834.881531
  0
VERTEX
  8
0
 10
7.652500
 20
834.532959
  0
VERTEX
  8
0
 10
7.098906
 20
834.239258
  0
VERTEX
  8
0
 10
6.410703
 20
833.806946
  0
VERTEX
  8
0
 10
5.926094
 20
833.453491
  0
VERTEX
  8
0
 10
5.313437
 20
832.945557
  0
VERTEX
  8
0
 10
4.735938
 20
832.398743
  0
VERTEX
  8
0
 10
4.195859
 20
831.817383
  0
VERTEX
  8
0
 10
3.695937
 20
831.205994
  0
VERTEX
  8
0
 10
3.238828
 20
830.568787
  0
VERTEX
  8
0
 10
2.826719
 20
829.905701
  0
VERTEX
  8
0
 10
2.547578
 20
829.380859
  0
VERTEX
  8
0
 10
2.293984
 20
828.821777
  0
VERTEX
  8
0
 10
2.066015
 20
828.219116
  0
VERTEX
  8
0
 10
1.863672
 20
827.563354
  0
VERTEX
  8
0
 10
1.686953
 20
826.844910
  0
VERTEX
  8
0
 10
1.535078
 20
826.055664
  0
VERTEX
  8
0
 10
1.406172
 20
825.189148
  0
VERTEX
  8
0
 10
1.298047
 20
824.238831
  0
VERTEX
  8
0
 10
1.182812
 20
822.830688
  0
VERTEX
  8
0
 10
1.115312
 20
821.660522
  0
VERTEX
  8
0
 10
1.047500
 20
819.938965
  0
VERTEX
  8
0
 10
1.007813
 20
818.045715
  0
VERTEX
  8
0
 10
1.000156
 20
816.527405
  0
VERTEX
  8
0
 10
1.014219
 20
814.936340
  0
VERTEX
  8
0
 10
1.052656
 20
813.282532
  0
VERTEX
  8
0
 10
1.145625
 20
810.998352
  0
VERTEX
  8
0
 10
1.319062
 20
808.083008
  0
VERTEX
  8
0
 10
1.951016
 20
799.671326
  0
VERTEX
  8
0
 10
2.308984
 20
794.440552
  0
VERTEX
  8
0
 10
5.316875
 20
794.268799
  0
VERTEX
  8
0
 10
5.957812
 20
786.970703
  0
VERTEX
  8
0
 10
6.777500
 20
775.960510
  0
VERTEX
  8
0
 10
7.637422
 20
765.542542
  0
VERTEX
  8
0
 10
25.455391
 20
766.440613
  0
VERTEX
  8
0
 10
29.215937
 20
766.609497
  0
VERTEX
  8
0
 10
32.514217
 20
766.737244
  0
VERTEX
  8
0
 10
37.092342
 20
766.883484
  0
VERTEX
  8
0
 10
42.977108
 20
767.031311
  0
VERTEX
  8
0
 10
48.769920
 20
767.138672
  0
VERTEX
  8
0
 10
53.158279
 20
767.188904
  0
VERTEX
  8
0
 10
58.083046
 20
767.188171
  0
VERTEX
  8
0
 10
60.633747
 20
767.157104
  0
VERTEX
  8
0
 10
63.375935
 20
767.101929
  0
VERTEX
  8
0
 10
69.791405
 20
766.911804
  0
VERTEX
  8
0
 10
84.283203
 20
766.388000
  0
VERTEX
  8
0
 10
89.243904
 20
766.232117
  0
VERTEX
  8
0
 10
91.635857
 20
766.175537
  0
VERTEX
  8
0
 10
94.286484
 20
766.134094
  0
VERTEX
  8
0
 10
98.947495
 20
766.123657
  0
SEQEND
  8
0
  0
POLYLINE
  8
0
  0
VERTEX
  8
0
 10
53.587967
 20
835.335632
  0
VERTEX
  8
0
 10
53.587967
 20
820.189209
  0
VERTEX
  8
0
 10
53.587967
 20
801.256226
  0
VERTEX
  8
0
 10
53.587967
 20
786.109802
  0
VERTEX
  8
0
 10
53.587967
 20
767.176880
  0
SEQEND
  8
0
  0
POLYLINE
  8
0
  0
VERTEX
  8
0
 10
72.590698
 20
795.369202
  0
VERTEX
  8
0
 10
72.203903
 20
785.521790
  0
VERTEX
  8
0
 10
61.681328
 20
785.392456
  0
SEQEND
  8
0
  0
POLYLINE
  8
0
  0
VERTEX
  8
0
 10
33.349766
 20
795.414612
  0
VERTEX
  8
0
 10
33.745155
 20
785.336914
  0
VERTEX
  8
0
 10
44.220310
 20
785.214600
  0
SEQEND
  8
0
  0
POLYLINE
  8
0
  0
VERTEX
  8
0
 10
100.738281
 20
794.630859
  0
VERTEX
  8
0
 10
101.072342
 20
799.599731
  0
VERTEX
  8
0
 10
101.887344
 20
811.103821
  0
VERTEX
  8
0
 10
102.093437
 20
814.739929
  0
VERTEX
  8
0
 10
102.189217
 20
817.492432
  0
VERTEX
  8
0
 10
102.203590
 20
818.910034
  0
VERTEX
  8
0
 10
102.181717
 20
820.531128
  0
VERTEX
  8
0
 10
102.126091
 20
821.974609
  0
VERTEX
  8
0
 10
102.029213
 20
823.456787
  0
VERTEX
  8
0
 10
101.911095
 20
824.667542
  0
VERTEX
  8
0
 10
101.786407
 20
825.523193
  0
VERTEX
  8
0
 10
101.625626
 20
826.298157
  0
VERTEX
  8
0
 10
101.416718
 20
827.045349
  0
VERTEX
  8
0
 10
101.265465
 20
827.489807
  0
VERTEX
  8
0
 10
101.093590
 20
827.929565
  0
VERTEX
  8
0
 10
100.759529
 20
828.647583
  0
VERTEX
  8
0
 10
100.529213
 20
829.066650
  0
VERTEX
  8
0
 10
100.275620
 20
829.474731
  0
VERTEX
  8
0
 10
99.996559
 20
829.870361
  0
VERTEX
  8
0
 10
99.795151
 20
830.126282
  0
VERTEX
  8
0
 10
99.467339
 20
830.497253
  0
VERTEX
  8
0
 10
99.230858
 20
830.735107
  0
VERTEX
  8
0
 10
98.710388
 20
831.186279
  0
VERTEX
  8
0
 10
98.121872
 20
831.601135
  0
VERTEX
  8
0
 10
97.803513
 20
831.793945
  0
VERTEX
  8
0
 10
97.302887
 20
832.063965
  0
VERTEX
  8
0
 10
96.428902
 20
832.459961
  0
VERTEX
  8
0
 10
95.541092
 20
832.784119
  0
VERTEX
  8
0
 10
94.667107
 20
833.032715
  0
VERTEX
  8
0
 10
93.931717
 20
833.181335
  0
VERTEX
  8
0
 10
92.869682
 20
833.312866
  0
VERTEX
  8
0
 10
91.832886
 20
833.381714
  0
VERTEX
  8
0
 10
90.574059
 20
833.423645
  0
VERTEX
  8
0
 10
88.733047
 20
833.442261
  0
VERTEX
  8
0
 10
85.888283
 20
833.410156
  0
VERTEX
  8
0
 10
83.037109
 20
833.317078
  0
VERTEX
  8
0
 10
80.640625
 20
833.198975
  0
VERTEX
  8
0
 10
73.622971
 20
832.803955
  0
VERTEX
  8
0
 10
69.496796
 20
832.629822
  0
VERTEX
  8
0
 10
67.258904
 20
832.566833
  0
VERTEX
  8
0
 10
64.889137
 20
832.522705
  0
VERTEX
  8
0
 10
58.954842
 20
832.474915
  0
VERTEX
  8
0
 10
53.633984
 20
832.468323
  0
VERTEX
  8
0
 10
48.578125
 20
832.485229
  0
VERTEX
  8
0
 10
44.072655
 20
832.525391
  0
VERTEX
  8
0
 10
40.309376
 20
832.580383
  0
VERTEX
  8
0
 10
35.527969
 20
832.677734
  0
VERTEX
  8
0
 10
30.107031
 20
832.818420
  0
VERTEX
  8
0
 10
25.587656
 20
832.960388
  0
VERTEX
  8
0
 10
19.862030
 20
833.171448
  0
VERTEX
  8
0
 10
18.733671
 20
833.193176
  0
VERTEX
  8
0
 10
17.659140
 20
833.188232
  0
VERTEX
  8
0
 10
16.333515
 20
833.144592
  0
VERTEX
  8
0
 10
15.039063
 20
833.061462
  0
VERTEX
  8
0
 10
13.788515
 20
832.941772
  0
VERTEX
  8
0
 10
12.596875
 20
832.786682
  0
VERTEX
  8
0
 10
11.486328
 20
832.593323
  0
VERTEX
  8
0
 10
10.672578
 20
832.408447
  0
VERTEX
  8
0
 10
9.938516
 20
832.194092
  0
VERTEX
  8
0
 10
9.604688
 20
832.075439
  0
VERTEX
  8
0
 10
9.142813
 20
831.882690
  0
VERTEX
  8
0
 10
8.588672
 20
831.598328
  0
VERTEX
  8
0
 10
8.090547
 20
831.282898
  0
VERTEX
  8
0
 10
7.632187
 20
830.936218
  0
VERTEX
  8
0
 10
7.198984
 20
830.558960
  0
VERTEX
  8
0
 10
6.787656
 20
830.154114
  0
VERTEX
  8
0
 10
6.308750
 20
829.615662
  0
VERTEX
  8
0
 10
5.874297
 20
829.049194
  0
VERTEX
  8
0
 10
5.562265
 20
828.579285
  0
VERTEX
  8
0
 10
5.282187
 20
828.076904
  0
VERTEX
  8
0
 10
5.092422
 20
827.661987
  0
VERTEX
  8
0
 10
4.919531
 20
827.201477
  0
VERTEX
  8
0
 10
4.762969
 20
826.683289
  0
VERTEX
  8
0
 10
4.622344
 20
826.095825
  0
VERTEX
  8
0
 10
4.497031
 20
825.429138
  0
VERTEX
  8
0
 10
4.386641
 20
824.676331
  0
VERTEX
  8
0
 10
4.290625
 20
823.830505
  0
VERTEX
  8
0
 10
4.183906
 20
822.546570
  0
VERTEX
  8
0
 10
4.119219
 20
821.457642
  0
VERTEX
  8
0
 10
4.029375
 20
818.940735
  0
VERTEX
  8
0
 10
4.008438
 20
817.528503
  0
VERTEX
  8
0
 10
4.007031
 20
816.028992
  0
VERTEX
  8
0
 10
4.027812
 20
814.453369
  0
VERTEX
  8
0
 10
4.073515
 20
812.813110
  0
VERTEX
  8
0
 10
4.176094
 20
810.547729
  0
VERTEX
  8
0
 10
4.317031
 20
808.243042
  0
VERTEX
  8
0
 10
4.943594
 20
799.884644
  0
VERTEX
  8
0
 10
5.302187
 20
794.642273
  0
SEQEND
  8
0
  0
POLYLINE
  8
0
  0
VERTEX
  8
0
 10
53.394375
 20
834.443054
  0
VERTEX
  8
0
 10
52.916092
 20
834.347900
  0
VERTEX
  8
0
 10
52.510544
 20
834.076904
  0
VERTEX
  8
0
 10
52.239529
 20
833.671387
  0
VERTEX
  8
0
 10
52.144375
 20
833.193054
  0
VERTEX
  8
0
 10
52.239529
 20
832.714661
  0
VERTEX
  8
0
 10
52.510544
 20
832.309143
  0
VERTEX
  8
0
 10
52.916092
 20
832.038208
  0
VERTEX
  8
0
 10
53.394375
 20
831.943054
  0
VERTEX
  8
0
 10
53.872734
 20
832.038208
  0
VERTEX
  8
0
 10
54.278278
 20
832.309143
  0
VERTEX
  8
0
 10
54.549297
 20
832.714661
  0
VERTEX
  8
0
 10
54.644375
 20
833.193054
  0
VERTEX
  8
0
 10
54.549297
 20
833.671387
  0
VERTEX
  8
0
 10
54.278278
 20
834.076904
  0
VERTEX
  8
0
 10
53.872734
 20
834.347900
  0
VERTEX
  8
0
 10
53.394375
 20
834.443054
  0
SEQEND
  8
0
  0
POLYLINE
  8
0
  0
VERTEX
  8
0
 10
53.572655
 20
770.888794
  0
VERTEX
  8
0
 10
53.094296
 20
770.793640
  0
VERTEX
  8
0
 10
52.688747
 20
770.522644
  0
VERTEX
  8
0
 10
52.417812
 20
770.117065
  0
VERTEX
  8
0
 10
52.322655
 20
769.638794
  0
VERTEX
  8
0
 10
52.417812
 20
769.160400
  0
VERTEX
  8
0
 10
52.688747
 20
768.754883
  0
VERTEX
  8
0
 10
53.094296
 20
768.483948
  0
VERTEX
  8
0
 10
53.572655
 20
768.388794
  0
VERTEX
  8
0
 10
54.051014
 20
768.483948
  0
VERTEX
  8
0
 10
54.456562
 20
768.754883
  0
VERTEX
  8
0
 10
54.727497
 20
769.160400
  0
VERTEX
  8
0
 10
54.822655
 20
769.638794
  0
VERTEX
  8
0
 10
54.727497
 20
770.117065
  0
VERTEX
  8
0
 10
54.456562
 20
770.522644
  0
VERTEX
  8
0
 10
54.051014
 20
770.793640
  0
VERTEX
  8
0
 10
53.572655
 20
770.888794
  0
SEQEND
  8
0
  0
POLYLINE
  8
0
  0
VERTEX
  8
0
 10
106.055939
 20
176.410461
  0
VERTEX
  8
0
 10
105.994843
 20
191.568115
  0
VERTEX
  8
0
 10
105.918434
 20
210.515305
  0
VERTEX
  8
0
 10
105.857262
 20
225.672958
  0
VERTEX
  8
0
 10
105.780777
 20
244.620148
  0
VERTEX
  8
0
 10
123.963432
 20
245.262970
  0
VERTEX
  8
0
 10
123.975937
 20
229.962418
  0
VERTEX
  8
0
 10
123.991638
 20
210.836716
  0
VERTEX
  8
0
 10
124.004219
 20
195.536163
  0
VERTEX
  8
0
 10
124.019844
 20
176.410461
  0
VERTEX
  8
0
 10
106.055939
 20
176.410461
  0
SEQEND
  8
0
  0
POLYLINE
  8
0
  0
VERTEX
  8
0
 10
118.598122
 20
190.511475
  0
VERTEX
  8
0
 10
112.180702
 20
190.387802
  0
SEQEND
  8
0
  0
POLYLINE
  8
0
  0
VERTEX
  8
0
 10
118.774216
 20
217.399994
  0
VERTEX
  8
0
 10
111.079063
 20
217.277100
  0
SEQEND
  8
0
  0
POLYLINE
  8
0
  0
VERTEX
  8
0
 10
1.166562
 20
877.315125
  0
VERTEX
  8
0
 10
12.223672
 20
877.340576
  0
VERTEX
  8
0
 10
23.280781
 20
877.366089
  0
VERTEX
  8
0
 10
34.337811
 20
877.391602
  0
VERTEX
  8
0
 10
50.923515
 20
877.429810
  0
VERTEX
  8
0
 10
61.980625
 20
877.455383
  0
VERTEX
  8
0
 10
73.037735
 20
877.480835
  0
VERTEX
  8
0
 10
84.094841
 20
877.506287
  0
VERTEX
  8
0
 10
100.680466
 20
877.544617
  0
VERTEX
  8
0
 10
100.636871
 20
857.997070
  0
VERTEX
  8
0
 10
100.593361
 20
838.449646
  0
VERTEX
  8
0
 10
89.527420
 20
838.449646
  0
VERTEX
  8
0
 10
78.461479
 20
838.449646
  0
VERTEX
  8
0
 10
67.395546
 20
838.449646
  0
VERTEX
  8
0
 10
50.796719
 20
838.449646
  0
VERTEX
  8
0
 10
39.730782
 20
838.449646
  0
VERTEX
  8
0
 10
28.664843
 20
838.449646
  0
VERTEX
  8
0
 10
17.598906
 20
838.449646
  0
VERTEX
  8
0
 10
1.000000
 20
838.449646
  0
VERTEX
  8
0
 10
1.083281
 20
857.882385
  0
VERTEX
  8
0
 10
1.166562
 20
877.315125
  0
SEQEND
  8
0
  0
POLYLINE
  8
0
  0
VERTEX
  8
0
 10
64.466873
 20
850.215088
  0
VERTEX
  8
0
 10
64.354843
 20
865.687073
  0
SEQEND
  8
0
  0
POLYLINE
  8
0
  0
VERTEX
  8
0
 10
86.679138
 20
866.179260
  0
VERTEX
  8
0
 10
86.407501
 20
850.047302
  0
SEQEND
  8
0
  0
POLYLINE
  8
0
  0
VERTEX
  8
0
 10
107.324295
 20
388.648346
  0
VERTEX
  8
0
 10
107.549995
 20
391.435760
  0
VERTEX
  8
0
 10
107.762108
 20
393.414368
  0
VERTEX
  8
0
 10
107.854218
 20
394.058990
  0
VERTEX
  8
0
 10
107.990776
 20
394.843201
  0
VERTEX
  8
0
 10
108.104996
 20
395.389069
  0
VERTEX
  8
0
 10
108.274994
 20
396.081177
  0
VERTEX
  8
0
 10
108.467888
 20
396.756256
  0
VERTEX
  8
0
 10
108.688438
 20
397.437164
  0
VERTEX
  8
0
 10
108.950386
 20
398.134277
  0
VERTEX
  8
0
 10
109.183594
 20
398.671936
  0
VERTEX
  8
0
 10
109.455704
 20
399.225861
  0
VERTEX
  8
0
 10
109.773590
 20
399.798889
  0
VERTEX
  8
0
 10
110.143204
 20
400.393738
  0
VERTEX
  8
0
 10
110.563751
 20
401.008423
  0
VERTEX
  8
0
 10
111.029526
 20
401.637817
  0
VERTEX
  8
0
 10
111.711403
 20
402.490997
  0
VERTEX
  8
0
 10
112.261093
 20
403.134918
  0
VERTEX
  8
0
 10
113.034607
 20
403.988983
  0
VERTEX
  8
0
 10
113.847496
 20
404.830383
  0
VERTEX
  8
0
 10
114.484215
 20
405.451630
  0
VERTEX
  8
0
 10
115.145699
 20
406.063965
  0
VERTEX
  8
0
 10
115.833282
 20
406.666565
  0
VERTEX
  8
0
 10
117.040855
 20
407.647888
  0
VERTEX
  8
0
 10
118.318825
 20
408.599762
  0
VERTEX
  8
0
 10
119.369606
 20
409.341949
  0
VERTEX
  8
0
 10
122.473282
 20
411.482574
  0
VERTEX
  8
0
 10
124.300385
 20
412.795776
  0
VERTEX
  8
0
 10
125.580620
 20
413.783112
  0
VERTEX
  8
0
 10
126.388123
 20
414.484589
  0
VERTEX
  8
0
 10
126.709923
 20
414.803650
  0
VERTEX
  8
0
 10
127.075775
 20
415.216553
  0
VERTEX
  8
0
 10
127.390701
 20
415.634918
  0
VERTEX
  8
0
 10
127.673203
 20
416.077423
  0
VERTEX
  8
0
 10
127.924995
 20
416.551544
  0
VERTEX
  8
0
 10
128.091949
 20
416.930603
  0
VERTEX
  8
0
 10
128.283203
 20
417.471008
  0
VERTEX
  8
0
 10
128.401566
 20
417.905212
  0
VERTEX
  8
0
 10
128.547882
 20
418.688599
  0
VERTEX
  8
0
 10
128.626404
 20
419.550934
  0
VERTEX
  8
0
 10
128.632568
 20
420.496460
  0
VERTEX
  8
0
 10
128.582260
 20
421.316010
  0
VERTEX
  8
0
 10
128.480621
 20
422.216156
  0
VERTEX
  8
0
 10
128.326096
 20
423.264374
  0
VERTEX
  8
0
 10
127.355309
 20
429.078979
  0
VERTEX
  8
0
 10
126.806015
 20
432.600616
  0
VERTEX
  8
0
 10
126.375465
 20
435.664124
  0
VERTEX
  8
0
 10
126.087105
 20
438.039825
  0
VERTEX
  8
0
 10
125.816093
 20
440.833588
  0
VERTEX
  8
0
 10
125.638275
 20
443.456177
  0
VERTEX
  8
0
 10
125.546013
 20
445.937408
  0
VERTEX
  8
0
 10
125.531250
 20
448.306396
  0
VERTEX
  8
0
 10
125.555153
 20
449.682953
  0
VERTEX
  8
0
 10
125.600624
 20
451.030701
  0
VERTEX
  8
0
 10
125.745621
 20
453.654907
  0
VERTEX
  8
0
 10
125.985855
 20
456.632416
  0
VERTEX
  8
0
 10
126.252029
 20
459.155396
  0
VERTEX
  8
0
 10
126.523125
 20
461.268341
  0
VERTEX
  8
0
 10
126.912811
 20
463.842957
  0
VERTEX
  8
0
 10
127.346016
 20
466.388275
  0
VERTEX
  8
0
 10
128.262726
 20
471.471161
  0
VERTEX
  8
0
 10
128.576401
 20
473.361328
  0
VERTEX
  8
0
 10
128.768127
 20
474.847565
  0
VERTEX
  8
0
 10
128.809372
 20
475.377563
  0
VERTEX
  8
0
 10
128.824692
 20
475.860992
  0
VERTEX
  8
0
 10
128.803436
 20
476.456543
  0
VERTEX
  8
0
 10
128.706879
 20
477.167267
  0
VERTEX
  8
0
 10
128.528976
 20
477.891785
  0
VERTEX
  8
0
 10
128.266876
 20
478.632172
  0
VERTEX
  8
0
 10
127.994995
 20
479.221008
  0
VERTEX
  8
0
 10
127.666405
 20
479.794281
  0
VERTEX
  8
0
 10
127.277733
 20
480.343506
  0
VERTEX
  8
0
 10
126.806717
 20
480.885223
  0
VERTEX
  8
0
 10
126.380150
 20
481.303986
  0
VERTEX
  8
0
 10
126.053360
 20
481.596008
  0
VERTEX
  8
0
 10
125.489449
 20
482.062408
  0
VERTEX
  8
0
 10
124.824997
 20
482.574066
  0
VERTEX
  8
0
 10
123.490776
 20
483.539673
  0
VERTEX
  8
0
 10
119.810463
 20
486.104065
  0
VERTEX
  8
0
 10
118.402969
 20
487.114990
  0
VERTEX
  8
0
 10
116.905853
 20
488.250305
  0
VERTEX
  8
0
 10
115.566322
 20
489.346558
  0
VERTEX
  8
0
 10
114.938591
 20
489.895599
  0
VERTEX
  8
0
 10
114.135933
 20
490.636230
  0
VERTEX
  8
0
 10
113.561401
 20
491.195618
  0
VERTEX
  8
0
 10
112.834999
 20
491.943726
  0
VERTEX
  8
0
 10
112.157341
 20
492.689056
  0
VERTEX
  8
0
 10
111.532104
 20
493.427795
  0
VERTEX
  8
0
 10
110.961403
 20
494.159363
  0
VERTEX
  8
0
 10
110.569450
 20
494.705933
  0
VERTEX
  8
0
 10
110.208588
 20
495.252808
  0
VERTEX
  8
0
 10
109.878906
 20
495.802185
  0
VERTEX
  8
0
 10
109.580704
 20
496.355621
  0
VERTEX
  8
0
 10
109.313278
 20
496.915924
  0
VERTEX
  8
0
 10
109.073746
 20
497.487793
  0
VERTEX
  8
0
 10
108.858200
 20
498.076080
  0
VERTEX
  8
0
 10
108.662888
 20
498.686249
  0
VERTEX
  8
0
 10
108.427498
 20
499.542816
  0
VERTEX
  8
0
 10
108.212891
 20
500.458893
  0
VERTEX
  8
0
 10
107.971794
 20
501.664978
  0
VERTEX
  8
0
 10
107.806953
 20
502.632477
  0
VERTEX
  8
0
 10
107.644760
 20
503.782166
  0
VERTEX
  8
0
 10
107.556328
 20
504.608734
  0
VERTEX
  8
0
 10
107.503281
 20
505.341553
  0
VERTEX
  8
0
 10
107.473595
 20
506.160614
  0
VERTEX
  8
0
 10
107.469063
 20
507.208435
  0
VERTEX
  8
0
 10
103.890625
 20
506.095001
  0
VERTEX
  8
0
 10
102.326485
 20
505.575623
  0
VERTEX
  8
0
 10
101.171715
 20
505.169037
  0
VERTEX
  8
0
 10
99.664215
 20
504.597504
  0
VERTEX
  8
0
 10
98.570938
 20
504.149353
  0
VERTEX
  8
0
 10
97.527809
 20
503.690765
  0
VERTEX
  8
0
 10
96.551483
 20
503.228729
  0
VERTEX
  8
0
 10
95.658592
 20
502.769379
  0
VERTEX
  8
0
 10
94.865776
 20
502.319061
  0
VERTEX
  8
0
 10
94.188278
 20
501.883728
  0
VERTEX
  8
0
 10
93.622734
 20
501.457489
  0
VERTEX
  8
0
 10
93.300545
 20
501.171722
  0
VERTEX
  8
0
 10
92.888283
 20
500.731232
  0
VERTEX
  8
0
 10
92.547577
 20
500.264679
  0
VERTEX
  8
0
 10
92.263283
 20
499.758728
  0
VERTEX
  8
0
 10
92.020309
 20
499.200775
  0
VERTEX
  8
0
 10
91.743202
 20
498.368744
  0
VERTEX
  8
0
 10
91.565620
 20
497.688416
  0
VERTEX
  8
0
 10
91.363045
 20
496.722504
  0
VERTEX
  8
0
 10
91.192345
 20
495.707184
  0
VERTEX
  8
0
 10
91.012810
 20
494.394989
  0
VERTEX
  8
0
 10
90.896248
 20
493.292480
  0
VERTEX
  8
0
 10
90.809448
 20
492.100922
  0
VERTEX
  8
0
 10
90.757965
 20
490.780609
  0
VERTEX
  8
0
 10
90.747261
 20
489.292175
  0
VERTEX
  8
0
 10
90.775703
 20
487.624512
  0
VERTEX
  8
0
 10
90.949371
 20
481.524597
  0
VERTEX
  8
0
 10
90.971092
 20
479.159515
  0
VERTEX
  8
0
 10
90.957657
 20
476.937103
  0
VERTEX
  8
0
 10
90.901558
 20
474.259125
  0
VERTEX
  8
0
 10
90.809921
 20
472.059662
  0
VERTEX
  8
0
 10
90.746872
 20
471.263519
  0
VERTEX
  8
0
 10
90.687500
 20
470.765625
  0
VERTEX
  8
0
 10
90.615311
 20
470.333649
  0
VERTEX
  8
0
 10
90.527496
 20
469.950623
  0
VERTEX
  8
0
 10
90.418282
 20
469.603424
  0
VERTEX
  8
0
 10
90.329765
 20
469.386719
  0
VERTEX
  8
0
 10
90.167496
 20
469.076080
  0
VERTEX
  8
0
 10
90.036171
 20
468.873962
  0
VERTEX
  8
0
 10
89.883667
 20
468.672333
  0
VERTEX
  8
0
 10
89.610001
 20
468.363831
  0
VERTEX
  8
0
 10
89.019218
 20
467.813507
  0
VERTEX
  8
0
 10
88.267891
 20
467.222870
  0
VERTEX
  8
0
 10
87.375778
 20
466.610687
  0
VERTEX
  8
0
 10
86.574059
 20
466.118347
  0
VERTEX
  8
0
 10
84.389450
 20
464.876160
  0
VERTEX
  8
0
 10
83.758041
 20
464.475067
  0
VERTEX
  8
0
 10
83.360939
 20
464.193909
  0
VERTEX
  8
0
 10
82.815079
 20
463.746399
  0
VERTEX
  8
0
 10
82.491402
 20
463.428284
  0
VERTEX
  8
0
 10
82.065308
 20
462.919922
  0
VERTEX
  8
0
 10
81.703903
 20
462.373962
  0
VERTEX
  8
0
 10
81.495308
 20
461.988983
  0
VERTEX
  8
0
 10
81.310158
 20
461.586853
  0
VERTEX
  8
0
 10
81.146172
 20
461.167725
  0
VERTEX
  8
0
 10
81.001328
 20
460.731323
  0
VERTEX
  8
0
 10
80.760468
 20
459.805603
  0
VERTEX
  8
0
 10
80.576096
 20
458.786072
  0
VERTEX
  8
0
 10
80.442032
 20
457.627411
  0
VERTEX
  8
0
 10
80.352577
 20
456.283356
  0
VERTEX
  8
0
 10
80.301872
 20
454.707489
  0
VERTEX
  8
0
 10
80.284058
 20
452.874664
  0
VERTEX
  8
0
 10
80.303276
 20
449.779602
  0
VERTEX
  8
0
 10
80.366562
 20
445.967102
  0
VERTEX
  8
0
 10
80.466095
 20
441.376465
  0
VERTEX
  8
0
 10
80.562500
 20
438.459137
  0
VERTEX
  8
0
 10
80.650543
 20
436.908356
  0
VERTEX
  8
0
 10
80.738281
 20
436.005463
  0
VERTEX
  8
0
 10
80.790077
 20
435.643494
  0
VERTEX
  8
0
 10
80.879845
 20
435.186462
  0
VERTEX
  8
0
 10
80.948982
 20
434.925446
  0
VERTEX
  8
0
 10
81.068359
 20
434.576233
  0
VERTEX
  8
0
 10
81.209137
 20
434.250214
  0
VERTEX
  8
0
 10
81.374687
 20
433.927490
  0
VERTEX
  8
0
 10
81.569527
 20
433.605621
  0
VERTEX
  8
0
 10
81.798279
 20
433.283569
  0
VERTEX
  8
0
 10
82.065704
 20
432.960449
  0
VERTEX
  8
0
 10
82.376404
 20
432.635315
  0
VERTEX
  8
0
 10
82.609840
 20
432.416870
  0
VERTEX
  8
0
 10
83.000702
 20
432.086700
  0
VERTEX
  8
0
 10
83.742966
 20
431.536163
  0
VERTEX
  8
0
 10
84.735939
 20
430.891541
  0
VERTEX
  8
0
 10
85.603668
 20
430.383575
  0
VERTEX
  8
0
 10
87.144684
 20
429.528961
  0
VERTEX
  8
0
 10
87.941948
 20
429.044525
  0
VERTEX
  8
0
 10
88.385857
 20
428.736328
  0
VERTEX
  8
0
 10
88.664215
 20
428.520233
  0
VERTEX
  8
0
 10
89.176323
 20
428.057495
  0
VERTEX
  8
0
 10
89.520157
 20
427.679840
  0
VERTEX
  8
0
 10
89.729767
 20
427.411774
  0
VERTEX
  8
0
 10
90.014061
 20
426.982635
  0
VERTEX
  8
0
 10
90.182968
 20
426.677246
  0
VERTEX
  8
0
 10
90.335236
 20
426.355133
  0
VERTEX
  8
0
 10
90.532188
 20
425.841309
  0
VERTEX
  8
0
 10
90.693672
 20
425.299988
  0
VERTEX
  8
0
 10
90.822342
 20
424.743500
  0
VERTEX
  8
0
 10
90.921013
 20
424.184052
  0
VERTEX
  8
0
 10
91.010468
 20
423.454437
  0
VERTEX
  8
0
 10
91.057968
 20
422.767578
  0
VERTEX
  8
0
 10
91.070702
 20
422.093262
  0
VERTEX
  8
0
 10
90.890854
 20
416.068817
  0
VERTEX
  8
0
 10
90.760780
 20
409.861786
  0
VERTEX
  8
0
 10
90.720619
 20
405.940460
  0
VERTEX
  8
0
 10
90.728516
 20
404.391235
  0
VERTEX
  8
0
 10
90.757889
 20
402.984222
  0
VERTEX
  8
0
 10
90.813278
 20
401.721313
  0
VERTEX
  8
0
 10
90.875076
 20
400.861237
  0
VERTEX
  8
0
 10
90.956642
 20
400.069763
  0
VERTEX
  8
0
 10
91.060234
 20
399.341461
  0
VERTEX
  8
0
 10
91.188126
 20
398.670776
  0
VERTEX
  8
0
 10
91.341713
 20
398.052643
  0
VERTEX
  8
0
 10
91.519371
 20
397.483276
  0
VERTEX
  8
0
 10
91.718750
 20
396.959137
  0
VERTEX
  8
0
 10
92.014214
 20
396.324921
  0
VERTEX
  8
0
 10
92.423203
 20
395.624451
  0
VERTEX
  8
0
 10
92.781876
 20
395.125916
  0
VERTEX
  8
0
 10
93.196404
 20
394.663025
  0
VERTEX
  8
0
 10
93.700783
 20
394.215393
  0
VERTEX
  8
0
 10
94.158592
 20
393.877258
  0
VERTEX
  8
0
 10
94.902496
 20
393.406799
  0
VERTEX
  8
0
 10
95.571953
 20
393.032715
  0
VERTEX
  8
0
 10
96.608047
 20
392.510376
  0
VERTEX
  8
0
 10
97.798592
 20
391.968658
  0
VERTEX
  8
0
 10
99.132965
 20
391.416016
  0
VERTEX
  8
0
 10
100.221954
 20
390.999298
  0
VERTEX
  8
0
 10
101.378670
 20
390.583282
  0
VERTEX
  8
0
 10
103.006172
 20
390.029602
  0
VERTEX
  8
0
 10
107.324295
 20
388.648346
  0
SEQEND
  8
0
  0
POLYLINE
  8
0
  0
VERTEX
  8
0
 10
125.506638
 20
447.908508
  0
VERTEX
  8
0
 10
115.483978
 20
447.908508
  0
VERTEX
  8
0
 10
102.955780
 20
447.908508
  0
VERTEX
  8
0
 10
92.933121
 20
447.908508
  0
VERTEX
  8
0
 10
80.404839
 20
447.908508
  0
SEQEND
  8
0
  0
POLYLINE
  8
0
  0
VERTEX
  8
0
 10
97.855385
 20
445.006012
  0
VERTEX
  8
0
 10
98.011330
 20
450.517029
  0
SEQEND
  8
0
  0
POLYLINE
  8
0
  0
VERTEX
  8
0
 10
116.967186
 20
444.173828
  0
VERTEX
  8
0
 10
116.994766
 20
451.347168
  0
SEQEND
  8
0
  0
POLYLINE
  8
0
  0
VERTEX
  8
0
 10
103.340546
 20
389.008911
  0
VERTEX
  8
0
 10
103.572342
 20
391.921387
  0
VERTEX
  8
0
 10
103.679916
 20
393.018494
  0
VERTEX
  8
0
 10
103.802261
 20
394.047791
  0
VERTEX
  8
0
 10
103.943588
 20
394.997101
  0
VERTEX
  8
0
 10
104.064529
 20
395.666473
  0
VERTEX
  8
0
 10
104.248901
 20
396.521790
  0
VERTEX
  8
0
 10
104.463280
 20
397.356781
  0
VERTEX
  8
0
 10
104.711716
 20
398.195862
  0
VERTEX
  8
0
 10
105.001953
 20
399.056244
  0
VERTEX
  8
0
 10
105.255936
 20
399.717712
  0
VERTEX
  8
0
 10
105.548431
 20
400.393829
  0
VERTEX
  8
0
 10
105.886093
 20
401.085388
  0
VERTEX
  8
0
 10
106.275391
 20
401.793182
  0
VERTEX
  8
0
 10
106.722343
 20
402.517731
  0
VERTEX
  8
0
 10
107.224998
 20
403.255920
  0
VERTEX
  8
0
 10
107.776405
 20
404.002411
  0
VERTEX
  8
0
 10
108.369293
 20
404.751862
  0
VERTEX
  8
0
 10
108.996719
 20
405.498810
  0
VERTEX
  8
0
 10
109.651405
 20
406.237946
  0
VERTEX
  8
0
 10
110.326714
 20
406.964142
  0
VERTEX
  8
0
 10
111.020546
 20
407.674988
  0
VERTEX
  8
0
 10
111.733902
 20
408.370056
  0
VERTEX
  8
0
 10
112.467735
 20
409.048828
  0
VERTEX
  8
0
 10
113.738983
 20
410.142792
  0
VERTEX
  8
0
 10
114.532188
 20
410.776001
  0
VERTEX
  8
0
 10
115.345467
 20
411.391479
  0
VERTEX
  8
0
 10
116.720154
 20
412.378571
  0
VERTEX
  8
0
 10
119.380150
 20
414.211639
  0
VERTEX
  8
0
 10
120.799843
 20
415.210541
  0
VERTEX
  8
0
 10
121.998589
 20
416.085236
  0
VERTEX
  8
0
 10
122.905464
 20
416.785522
  0
VERTEX
  8
0
 10
123.567574
 20
417.360687
  0
VERTEX
  8
0
 10
123.803749
 20
417.604675
  0
VERTEX
  8
0
 10
123.974213
 20
417.811707
  0
VERTEX
  8
0
 10
124.138672
 20
418.048340
  0
VERTEX
  8
0
 10
124.273590
 20
418.289764
  0
VERTEX
  8
0
 10
124.384842
 20
418.563202
  0
VERTEX
  8
0
 10
124.460312
 20
418.823181
  0
VERTEX
  8
0
 10
124.566170
 20
419.408752
  0
VERTEX
  8
0
 10
124.608124
 20
420.079987
  0
VERTEX
  8
0
 10
124.587578
 20
420.785004
  0
VERTEX
  8
0
 10
124.500153
 20
421.653259
  0
VERTEX
  8
0
 10
124.291870
 20
423.058807
  0
VERTEX
  8
0
 10
123.305931
 20
429.041565
  0
VERTEX
  8
0
 10
122.750000
 20
432.673279
  0
VERTEX
  8
0
 10
122.321793
 20
435.807892
  0
VERTEX
  8
0
 10
121.981407
 20
438.812103
  0
VERTEX
  8
0
 10
121.780777
 20
441.085388
  0
VERTEX
  8
0
 10
121.640076
 20
443.256470
  0
VERTEX
  8
0
 10
121.555855
 20
445.338348
  0
VERTEX
  8
0
 10
121.524529
 20
447.834137
  0
VERTEX
  8
0
 10
121.541245
 20
449.282867
  0
VERTEX
  8
0
 10
121.581406
 20
450.699768
  0
VERTEX
  8
0
 10
121.720932
 20
453.453033
  0
VERTEX
  8
0
 10
121.960777
 20
456.564117
  0
VERTEX
  8
0
 10
122.131401
 20
458.313049
  0
VERTEX
  8
0
 10
122.277107
 20
459.619751
  0
VERTEX
  8
0
 10
122.557030
 20
461.802795
  0
VERTEX
  8
0
 10
122.957184
 20
464.449371
  0
VERTEX
  8
0
 10
123.323593
 20
466.621460
  0
VERTEX
  8
0
 10
124.192421
 20
471.480682
  0
VERTEX
  8
0
 10
124.548668
 20
473.591858
  0
VERTEX
  8
0
 10
124.728981
 20
474.880524
  0
VERTEX
  8
0
 10
124.776482
 20
475.401001
  0
VERTEX
  8
0
 10
124.788979
 20
475.802338
  0
VERTEX
  8
0
 10
124.763748
 20
476.192413
  0
VERTEX
  8
0
 10
124.703201
 20
476.525299
  0
VERTEX
  8
0
 10
124.611954
 20
476.853424
  0
VERTEX
  8
0
 10
124.480545
 20
477.186951
  0
VERTEX
  8
0
 10
124.297653
 20
477.530548
  0
VERTEX
  8
0
 10
124.105858
 20
477.816010
  0
VERTEX
  8
0
 10
123.847969
 20
478.126617
  0
VERTEX
  8
0
 10
123.584923
 20
478.392944
  0
VERTEX
  8
0
 10
122.958435
 20
478.935852
  0
VERTEX
  8
0
 10
122.021873
 20
479.650604
  0
VERTEX
  8
0
 10
120.753593
 20
480.555389
  0
VERTEX
  8
0
 10
117.431641
 20
482.877258
  0
VERTEX
  8
0
 10
115.711639
 20
484.123749
  0
VERTEX
  8
0
 10
114.152344
 20
485.321564
  0
VERTEX
  8
0
 10
112.714142
 20
486.514038
  0
VERTEX
  8
0
 10
111.803902
 20
487.326233
  0
VERTEX
  8
0
 10
111.144447
 20
487.947479
  0
VERTEX
  8
0
 10
110.298828
 20
488.789520
  0
VERTEX
  8
0
 10
109.691635
 20
489.429993
  0
VERTEX
  8
0
 10
108.920937
 20
490.293732
  0
VERTEX
  8
0
 10
108.373825
 20
490.947479
  0
VERTEX
  8
0
 10
107.689056
 20
491.827179
  0
VERTEX
  8
0
 10
107.211716
 20
492.493744
  0
VERTEX
  8
0
 10
106.767654
 20
493.167175
  0
VERTEX
  8
0
 10
106.358902
 20
493.848114
  0
VERTEX
  8
0
 10
105.987579
 20
494.536865
  0
VERTEX
  8
0
 10
105.654610
 20
495.235291
  0
VERTEX
  8
0
 10
105.356873
 20
495.946228
  0
VERTEX
  8
0
 10
105.090073
 20
496.672791
  0
VERTEX
  8
0
 10
104.850151
 20
497.419037
  0
VERTEX
  8
0
 10
104.564606
 20
498.450134
  0
VERTEX
  8
0
 10
104.309608
 20
499.529358
  0
VERTEX
  8
0
 10
104.082344
 20
500.641235
  0
VERTEX
  8
0
 10
103.886719
 20
501.746857
  0
VERTEX
  8
0
 10
103.693436
 20
503.059662
  0
VERTEX
  8
0
 10
103.585075
 20
504.006561
  0
VERTEX
  8
0
 10
103.506561
 20
505.032806
  0
VERTEX
  8
0
 10
103.474762
 20
505.928741
  0
VERTEX
  8
0
 10
103.471558
 20
507.067169
  0
SEQEND
  8
0
  0
POLYLINE
  8
0
  0
VERTEX
  8
0
 10
83.386719
 20
457.636017
  0
VERTEX
  8
0
 10
82.908356
 20
457.540863
  0
VERTEX
  8
0
 10
82.502808
 20
457.269897
  0
VERTEX
  8
0
 10
82.231873
 20
456.864441
  0
VERTEX
  8
0
 10
82.136719
 20
456.386017
  0
VERTEX
  8
0
 10
82.231873
 20
455.907715
  0
VERTEX
  8
0
 10
82.502808
 20
455.502167
  0
VERTEX
  8
0
 10
82.908356
 20
455.231171
  0
VERTEX
  8
0
 10
83.386719
 20
455.136017
  0
VERTEX
  8
0
 10
83.865074
 20
455.231171
  0
VERTEX
  8
0
 10
84.270622
 20
455.502167
  0
VERTEX
  8
0
 10
84.541557
 20
455.907715
  0
VERTEX
  8
0
 10
84.636719
 20
456.386017
  0
VERTEX
  8
0
 10
84.541557
 20
456.864441
  0
VERTEX
  8
0
 10
84.270622
 20
457.269897
  0
VERTEX
  8
0
 10
83.865074
 20
457.540863
  0
VERTEX
  8
0
 10
83.386719
 20
457.636017
  0
SEQEND
  8
0
  0
POLYLINE
  8
0
  0
VERTEX
  8
0
 10
83.308205
 20
440.635681
  0
VERTEX
  8
0
 10
82.829842
 20
440.540527
  0
VERTEX
  8
0
 10
82.424370
 20
440.269592
  0
VERTEX
  8
0
 10
82.153358
 20
439.864044
  0
VERTEX
  8
0
 10
82.058205
 20
439.385681
  0
VERTEX
  8
0
 10
82.153358
 20
438.907349
  0
VERTEX
  8
0
 10
82.424370
 20
438.501801
  0
VERTEX
  8
0
 10
82.829842
 20
438.230835
  0
VERTEX
  8
0
 10
83.308205
 20
438.135681
  0
VERTEX
  8
0
 10
83.786560
 20
438.230835
  0
VERTEX
  8
0
 10
84.192108
 20
438.501801
  0
VERTEX
  8
0
 10
84.463043
 20
438.907349
  0
VERTEX
  8
0
 10
84.558205
 20
439.385681
  0
VERTEX
  8
0
 10
84.463043
 20
439.864044
  0
VERTEX
  8
0
 10
84.192108
 20
440.269592
  0
VERTEX
  8
0
 10
83.786560
 20
440.540527
  0
VERTEX
  8
0
 10
83.308205
 20
440.635681
  0
SEQEND
  8
0
  0
POLYLINE
  8
0
  0
VERTEX
  8
0
 10
122.673431
 20
449.215393
  0
VERTEX
  8
0
 10
122.195076
 20
449.120239
  0
VERTEX
  8
0
 10
121.789528
 20
448.849274
  0
VERTEX
  8
0
 10
121.518593
 20
448.443726
  0
VERTEX
  8
0
 10
121.423431
 20
447.965393
  0
VERTEX
  8
0
 10
121.518593
 20
447.487030
  0
VERTEX
  8
0
 10
121.789528
 20
447.081482
  0
VERTEX
  8
0
 10
122.195076
 20
446.810547
  0
VERTEX
  8
0
 10
122.673431
 20
446.715393
  0
VERTEX
  8
0
 10
123.151794
 20
446.810547
  0
VERTEX
  8
0
 10
123.557343
 20
447.081482
  0
VERTEX
  8
0
 10
123.828278
 20
447.487030
  0
VERTEX
  8
0
 10
123.923431
 20
447.965393
  0
VERTEX
  8
0
 10
123.828278
 20
448.443726
  0
VERTEX
  8
0
 10
123.557343
 20
448.849274
  0
VERTEX
  8
0
 10
123.151794
 20
449.120239
  0
VERTEX
  8
0
 10
122.673431
 20
449.215393
  0
SEQEND
  8
0
  0
POLYLINE
  8
0
  0
VERTEX
  8
0
 10
97.572807
 20
176.586090
  0
VERTEX
  8
0
 10
98.764610
 20
190.072189
  0
VERTEX
  8
0
 10
100.254372
 20
206.929840
  0
VERTEX
  8
0
 10
101.446167
 20
220.416016
  0
VERTEX
  8
0
 10
102.935860
 20
237.273666
  0
VERTEX
  8
0
 10
89.418671
 20
249.408508
  0
VERTEX
  8
0
 10
91.462105
 20
263.849304
  0
VERTEX
  8
0
 10
92.903282
 20
274.227112
  0
VERTEX
  8
0
 10
94.458748
 20
285.690399
  0
VERTEX
  8
0
 10
96.339455
 20
299.681000
  0
VERTEX
  8
0
 10
97.600700
 20
308.873047
  0
VERTEX
  8
0
 10
98.281715
 20
313.654907
  0
VERTEX
  8
0
 10
99.072418
 20
318.915527
  0
VERTEX
  8
0
 10
99.742500
 20
323.110474
  0
VERTEX
  8
0
 10
100.810699
 20
329.565552
  0
VERTEX
  8
0
 10
101.253517
 20
332.450531
  0
VERTEX
  8
0
 10
101.560463
 20
334.632568
  0
VERTEX
  8
0
 10
101.943901
 20
337.566315
  0
VERTEX
  8
0
 10
103.780701
 20
352.848907
  0
VERTEX
  8
0
 10
97.903358
 20
356.210602
  0
VERTEX
  8
0
 10
88.151955
 20
361.765137
  0
VERTEX
  8
0
 10
82.388123
 20
365.024048
  0
VERTEX
  8
0
 10
70.506401
 20
371.704987
  0
VERTEX
  8
0
 10
64.057892
 20
375.362488
  0
VERTEX
  8
0
 10
56.236797
 20
379.859375
  0
VERTEX
  8
0
 10
44.543282
 20
386.648102
  0
VERTEX
  8
0
 10
35.860390
 20
370.921234
  0
VERTEX
  8
0
 10
30.992733
 20
362.079834
  0
VERTEX
  8
0
 10
21.613047
 20
344.954987
  0
VERTEX
  8
0
 10
14.490937
 20
331.980316
  0
VERTEX
  8
0
 10
10.823125
 20
333.879913
  0
VERTEX
  8
0
 10
9.202031
 20
331.180145
  0
VERTEX
  8
0
 10
7.839921
 20
328.865845
  0
VERTEX
  8
0
 10
6.741719
 20
326.937195
  0
VERTEX
  8
0
 10
5.692656
 20
325.016388
  0
VERTEX
  8
0
 10
4.714375
 20
323.143829
  0
VERTEX
  8
0
 10
3.666250
 20
321.028351
  0
VERTEX
  8
0
 10
2.790781
 20
319.129517
  0
VERTEX
  8
0
 10
2.203438
 20
317.721008
  0
VERTEX
  8
0
 10
1.743125
 20
316.449066
  0
VERTEX
  8
0
 10
1.465312
 20
315.516022
  0
VERTEX
  8
0
 10
1.264453
 20
314.644989
  0
VERTEX
  8
0
 10
1.105312
 20
313.617950
  0
VERTEX
  8
0
 10
1.049141
 20
313.020691
  0
VERTEX
  8
0
 10
1.015703
 20
312.428497
  0
VERTEX
  8
0
 10
1.000156
 20
311.226074
  0
VERTEX
  8
0
 10
1.055625
 20
310.364441
  0
VERTEX
  8
0
 10
1.121016
 20
309.897949
  0
VERTEX
  8
0
 10
1.219766
 20
309.399445
  0
VERTEX
  8
0
 10
1.443984
 20
308.578735
  0
VERTEX
  8
0
 10
1.778437
 20
307.652100
  0
VERTEX
  8
0
 10
2.072734
 20
306.965607
  0
VERTEX
  8
0
 10
2.625156
 20
305.831238
  0
VERTEX
  8
0
 10
3.062812
 20
305.011780
  0
VERTEX
  8
0
 10
3.815547
 20
303.699982
  0
VERTEX
  8
0
 10
4.674219
 20
302.303131
  0
VERTEX
  8
0
 10
5.627891
 20
300.837036
  0
VERTEX
  8
0
 10
6.311172
 20
299.829224
  0
VERTEX
  8
0
 10
7.399765
 20
298.282654
  0
VERTEX
  8
0
 10
8.559297
 20
296.696167
  0
VERTEX
  8
0
 10
9.785937
 20
295.065704
  0
VERTEX
  8
0
 10
11.967891
 20
292.239685
  0
VERTEX
  8
0
 10
18.244219
 20
284.253418
  0
VERTEX
  8
0
 10
21.530155
 20
280.025787
  0
VERTEX
  8
0
 10
23.931328
 20
276.855530
  0
VERTEX
  8
0
 10
24.955391
 20
275.460541
  0
VERTEX
  8
0
 10
25.881327
 20
274.165527
  0
VERTEX
  8
0
 10
26.991327
 20
272.554596
  0
VERTEX
  8
0
 10
27.994999
 20
271.026947
  0
VERTEX
  8
0
 10
28.928280
 20
269.533356
  0
VERTEX
  8
0
 10
29.802422
 20
268.063599
  0
VERTEX
  8
0
 10
30.615702
 20
266.627960
  0
VERTEX
  8
0
 10
31.543983
 20
264.896942
  0
VERTEX
  8
0
 10
32.371326
 20
263.253601
  0
VERTEX
  8
0
 10
32.960701
 20
261.998657
  0
VERTEX
  8
0
 10
33.610077
 20
260.482971
  0
VERTEX
  8
0
 10
34.061951
 20
259.296478
  0
VERTEX
  8
0
 10
34.455311
 20
258.118134
  0
VERTEX
  8
0
 10
34.628048
 20
257.525452
  0
VERTEX
  8
0
 10
34.781876
 20
256.925385
  0
VERTEX
  8
0
 10
34.914295
 20
256.313904
  0
VERTEX
  8
0
 10
35.022888
 20
255.686874
  0
VERTEX
  8
0
 10
35.136326
 20
254.708984
  0
VERTEX
  8
0
 10
35.183125
 20
253.674210
  0
VERTEX
  8
0
 10
35.155392
 20
252.569443
  0
VERTEX
  8
0
 10
35.095547
 20
251.795776
  0
VERTEX
  8
0
 10
35.007576
 20
251.005066
  0
VERTEX
  8
0
 10
34.896717
 20
250.209518
  0
VERTEX
  8
0
 10
34.698669
 20
249.033661
  0
VERTEX
  8
0
 10
34.325077
 20
247.221329
  0
VERTEX
  8
0
 10
34.102734
 20
246.289063
  0
VERTEX
  8
0
 10
33.834999
 20
245.286011
  0
VERTEX
  8
0
 10
33.653358
 20
244.692337
  0
VERTEX
  8
0
 10
33.483047
 20
244.206863
  0
VERTEX
  8
0
 10
33.319141
 20
243.804688
  0
VERTEX
  8
0
 10
33.157108
 20
243.460861
  0
VERTEX
  8
0
 10
32.936405
 20
243.051010
  0
VERTEX
  8
0
 10
32.706562
 20
242.668823
  0
VERTEX
  8
0
 10
31.984453
 20
241.614838
  0
VERTEX
  8
0
 10
32.078045
 20
238.907028
  0
VERTEX
  8
0
 10
31.938749
 20
238.619995
  0
VERTEX
  8
0
 10
31.797421
 20
238.373428
  0
VERTEX
  8
0
 10
31.482109
 20
237.945145
  0
VERTEX
  8
0
 10
31.076639
 20
237.507416
  0
VERTEX
  8
0
 10
30.408983
 20
236.889526
  0
VERTEX
  8
0
 10
29.611250
 20
236.231552
  0
VERTEX
  8
0
 10
28.757109
 20
235.600769
  0
VERTEX
  8
0
 10
27.989687
 20
235.110077
  0
VERTEX
  8
0
 10
27.265390
 20
234.714142
  0
VERTEX
  8
0
 10
26.380468
 20
234.292023
  0
VERTEX
  8
0
 10
25.277500
 20
233.822495
  0
VERTEX
  8
0
 10
23.949219
 20
233.301559
  0
VERTEX
  8
0
 10
22.110390
 20
232.623825
  0
VERTEX
  8
0
 10
20.619610
 20
232.100937
  0
VERTEX
  8
0
 10
18.896719
 20
231.526398
  0
VERTEX
  8
0
 10
15.153749
 20
230.381317
  0
VERTEX
  8
0
 10
13.909531
 20
229.984055
  0
VERTEX
  8
0
 10
12.628359
 20
229.535934
  0
VERTEX
  8
0
 10
11.391484
 20
229.049133
  0
VERTEX
  8
0
 10
10.707266
 20
228.744598
  0
VERTEX
  8
0
 10
10.089687
 20
228.434677
  0
VERTEX
  8
0
 10
9.723203
 20
228.226639
  0
VERTEX
  8
0
 10
9.239687
 20
227.915771
  0
VERTEX
  8
0
 10
8.828671
 20
227.610626
  0
VERTEX
  8
0
 10
8.379922
 20
227.220932
  0
VERTEX
  8
0
 10
8.026953
 20
226.861328
  0
VERTEX
  8
0
 10
7.691562
 20
226.461487
  0
VERTEX
  8
0
 10
7.581328
 20
226.292969
  0
VERTEX
  8
0
 10
7.479844
 20
226.096405
  0
VERTEX
  8
0
 10
7.337031
 20
225.713593
  0
VERTEX
  8
0
 10
7.146953
 20
224.955460
  0
VERTEX
  8
0
 10
6.990547
 20
224.131241
  0
VERTEX
  8
0
 10
6.676562
 20
222.155701
  0
VERTEX
  8
0
 10
5.792500
 20
216.079056
  0
VERTEX
  8
0
 10
5.344062
 20
213.148438
  0
VERTEX
  8
0
 10
4.885156
 20
210.381485
  0
VERTEX
  8
0
 10
4.324609
 20
207.288269
  0
VERTEX
  8
0
 10
3.851406
 20
204.898514
  0
VERTEX
  8
0
 10
3.374766
 20
202.670303
  0
VERTEX
  8
0
 10
2.895547
 20
200.564529
  0
VERTEX
  8
0
 10
2.126250
 20
197.331955
  0
VERTEX
  8
0
 10
13.759218
 20
193.465302
  0
VERTEX
  8
0
 10
22.534296
 20
190.599838
  0
VERTEX
  8
0
 10
28.942108
 20
188.576630
  0
VERTEX
  8
0
 10
32.952499
 20
187.350464
  0
VERTEX
  8
0
 10
36.208984
 20
186.376633
  0
VERTEX
  8
0
 10
40.880623
 20
185.011169
  0
VERTEX
  8
0
 10
44.543358
 20
183.967346
  0
VERTEX
  8
0
 10
48.261562
 20
182.934448
  0
VERTEX
  8
0
 10
51.962578
 20
181.937332
  0
VERTEX
  8
0
 10
55.573750
 20
181.001007
  0
VERTEX
  8
0
 10
57.895779
 20
180.422729
  0
VERTEX
  8
0
 10
60.135857
 20
179.886093
  0
VERTEX
  8
0
 10
63.343201
 20
179.158661
  0
VERTEX
  8
0
 10
65.381096
 20
178.724915
  0
VERTEX
  8
0
 10
67.339920
 20
178.332031
  0
VERTEX
  8
0
 10
69.220467
 20
177.979523
  0
VERTEX
  8
0
 10
71.897026
 20
177.526093
  0
VERTEX
  8
0
 10
73.586563
 20
177.273590
  0
VERTEX
  8
0
 10
75.201401
 20
177.060547
  0
VERTEX
  8
0
 10
76.745621
 20
176.884995
  0
VERTEX
  8
0
 10
78.944687
 20
176.684372
  0
VERTEX
  8
0
 10
80.342888
 20
176.587265
  0
VERTEX
  8
0
 10
82.355934
 20
176.487579
  0
VERTEX
  8
0
 10
84.288986
 20
176.432648
  0
VERTEX
  8
0
 10
86.165939
 20
176.410385
  0
VERTEX
  8
0
 10
88.618828
 20
176.412262
  0
VERTEX
  8
0
 10
91.035385
 20
176.438980
  0
VERTEX
  8
0
 10
97.572807
 20
176.586090
  0
SEQEND
  8
0
  0
POLYLINE
  8
0
  0
VERTEX
  8
0
 10
102.744293
 20
344.225616
  0
VERTEX
  8
0
 10
93.937653
 20
349.262726
  0
VERTEX
  8
0
 10
84.203514
 20
354.807495
  0
VERTEX
  8
0
 10
78.458824
 20
358.055450
  0
VERTEX
  8
0
 10
66.572502
 20
364.739044
  0
VERTEX
  8
0
 10
60.090702
 20
368.415466
  0
VERTEX
  8
0
 10
52.234688
 20
372.932343
  0
VERTEX
  8
0
 10
40.675701
 20
379.642975
  0
SEQEND
  8
0
  0
POLYLINE
  8
0
  0
VERTEX
  8
0
 10
94.861954
 20
227.429993
  0
VERTEX
  8
0
 10
87.076874
 20
235.577103
  0
VERTEX
  8
0
 10
85.407814
 20
237.347412
  0
VERTEX
  8
0
 10
84.119995
 20
238.741486
  0
VERTEX
  8
0
 10
82.799141
 20
240.208191
  0
VERTEX
  8
0
 10
81.442657
 20
241.762344
  0
VERTEX
  8
0
 10
80.048439
 20
243.417969
  0
VERTEX
  8
0
 10
78.616089
 20
245.182800
  0
VERTEX
  8
0
 10
76.659683
 20
247.668747
  0
VERTEX
  8
0
 10
70.677109
 20
255.419296
  0
VERTEX
  8
0
 10
63.942265
 20
263.913910
  0
VERTEX
  8
0
 10
62.554531
 20
265.717010
  0
VERTEX
  8
0
 10
61.661404
 20
266.923523
  0
VERTEX
  8
0
 10
60.881092
 20
268.027893
  0
VERTEX
  8
0
 10
60.417030
 20
268.717957
  0
VERTEX
  8
0
 10
59.993435
 20
269.378357
  0
VERTEX
  8
0
 10
59.425076
 20
270.327118
  0
VERTEX
  8
0
 10
59.085232
 20
270.941162
  0
VERTEX
  8
0
 10
58.624763
 20
271.849060
  0
VERTEX
  8
0
 10
58.218983
 20
272.744904
  0
VERTEX
  8
0
 10
57.866562
 20
273.625061
  0
VERTEX
  8
0
 10
57.477577
 20
274.768341
  0
VERTEX
  8
0
 10
57.177891
 20
275.869049
  0
VERTEX
  8
0
 10
56.964531
 20
276.918915
  0
VERTEX
  8
0
 10
56.831169
 20
277.911316
  0
VERTEX
  8
0
 10
56.768826
 20
278.841949
  0
VERTEX
  8
0
 10
56.761326
 20
279.282715
  0
VERTEX
  8
0
 10
56.776638
 20
279.911621
  0
VERTEX
  8
0
 10
56.863670
 20
280.872955
  0
VERTEX
  8
0
 10
56.959454
 20
281.442261
  0
VERTEX
  8
0
 10
57.050156
 20
281.859070
  0
VERTEX
  8
0
 10
57.237968
 20
282.592102
  0
VERTEX
  8
0
 10
57.501560
 20
283.517090
  0
VERTEX
  8
0
 10
58.497185
 20
286.810852
  0
VERTEX
  8
0
 10
59.830547
 20
291.127655
  0
VERTEX
  8
0
 10
61.256016
 20
295.622040
  0
VERTEX
  8
0
 10
62.237030
 20
298.640839
  0
VERTEX
  8
0
 10
63.305389
 20
301.859924
  0
VERTEX
  8
0
 10
66.749687
 20
312.020081
  0
VERTEX
  8
0
 10
68.177422
 20
316.303986
  0
VERTEX
  8
0
 10
69.397026
 20
320.132721
  0
VERTEX
  8
0
 10
70.124298
 20
322.594604
  0
VERTEX
  8
0
 10
70.521637
 20
324.043030
  0
VERTEX
  8
0
 10
71.000465
 20
325.953735
  0
VERTEX
  8
0
 10
71.355309
 20
327.583130
  0
VERTEX
  8
0
 10
71.605469
 20
328.968262
  0
VERTEX
  8
0
 10
71.723282
 20
329.774200
  0
VERTEX
  8
0
 10
71.808594
 20
330.499054
  0
VERTEX
  8
0
 10
71.866402
 20
331.153198
  0
VERTEX
  8
0
 10
71.898979
 20
331.744293
  0
VERTEX
  8
0
 10
71.908356
 20
332.279358
  0
VERTEX
  8
0
 10
71.896248
 20
332.765533
  0
VERTEX
  8
0
 10
71.864532
 20
333.209900
  0
VERTEX
  8
0
 10
71.815079
 20
333.619537
  0
VERTEX
  8
0
 10
71.711563
 20
334.184204
  0
VERTEX
  8
0
 10
71.578278
 20
334.710693
  0
VERTEX
  8
0
 10
71.413986
 20
335.225861
  0
VERTEX
  8
0
 10
71.271797
 20
335.582184
  0
VERTEX
  8
0
 10
71.089996
 20
335.963287
  0
VERTEX
  8
0
 10
70.856796
 20
336.381958
  0
VERTEX
  8
0
 10
70.560387
 20
336.850372
  0
VERTEX
  8
0
 10
70.189377
 20
337.381317
  0
VERTEX
  8
0
 10
69.731796
 20
337.987244
  0
VERTEX
  8
0
 10
69.176094
 20
338.680603
  0
VERTEX
  8
0
 10
67.734688
 20
340.365936
  0
VERTEX
  8
0
 10
65.881874
 20
342.401154
  0
VERTEX
  8
0
 10
64.822266
 20
343.519135
  0
VERTEX
  8
0
 10
63.685154
 20
344.687500
  0
VERTEX
  8
0
 10
61.852890
 20
346.507324
  0
VERTEX
  8
0
 10
59.894062
 20
348.370544
  0
VERTEX
  8
0
 10
58.531872
 20
349.616333
  0
VERTEX
  8
0
 10
56.420547
 20
351.475922
  0
VERTEX
  8
0
 10
54.240547
 20
353.325928
  0
VERTEX
  8
0
 10
52.006485
 20
355.168121
  0
VERTEX
  8
0
 10
49.733280
 20
357.005005
  0
VERTEX
  8
0
 10
45.897419
 20
360.059509
  0
SEQEND
  8
0
  0
POLYLINE
  8
0
  0
VERTEX
  8
0
 10
70.102966
 20
247.097656
  0
VERTEX
  8
0
 10
69.048752
 20
243.610535
  0
VERTEX
  8
0
 10
68.332268
 20
241.070618
  0
VERTEX
  8
0
 10
67.928589
 20
239.511475
  0
VERTEX
  8
0
 10
67.673592
 20
238.453049
  0
VERTEX
  8
0
 10
67.203827
 20
236.288666
  0
VERTEX
  8
0
 10
66.889999
 20
234.654297
  0
VERTEX
  8
0
 10
66.611641
 20
233.050934
  0
VERTEX
  8
0
 10
66.370705
 20
231.514603
  0
VERTEX
  8
0
 10
66.169449
 20
230.081955
  0
VERTEX
  8
0
 10
66.010002
 20
228.789368
  0
VERTEX
  8
0
 10
65.893829
 20
227.661240
  0
VERTEX
  8
0
 10
65.820938
 20
226.674988
  0
VERTEX
  8
0
 10
65.790703
 20
225.796005
  0
VERTEX
  8
0
 10
65.794060
 20
225.252731
  0
VERTEX
  8
0
 10
65.833824
 20
224.476013
  0
VERTEX
  8
0
 10
65.914841
 20
223.714676
  0
VERTEX
  8
0
 10
66.036873
 20
222.935699
  0
VERTEX
  8
0
 10
66.203751
 20
222.124451
  0
VERTEX
  8
0
 10
66.342964
 20
221.564133
  0
VERTEX
  8
0
 10
66.598511
 20
220.692413
  0
VERTEX
  8
0
 10
66.802811
 20
220.089294
  0
VERTEX
  8
0
 10
67.036484
 20
219.467651
  0
VERTEX
  8
0
 10
67.301323
 20
218.826477
  0
VERTEX
  8
0
 10
67.599220
 20
218.165070
  0
VERTEX
  8
0
 10
67.930626
 20
217.483749
  0
VERTEX
  8
0
 10
68.667419
 20
216.080704
  0
VERTEX
  8
0
 10
70.582184
 20
212.604141
  0
VERTEX
  8
0
 10
71.070549
 20
211.648666
  0
VERTEX
  8
0
 10
71.609612
 20
210.476944
  0
VERTEX
  8
0
 10
71.835861
 20
209.933350
  0
VERTEX
  8
0
 10
72.128281
 20
209.167969
  0
VERTEX
  8
0
 10
72.372108
 20
208.459534
  0
VERTEX
  8
0
 10
72.576012
 20
207.804840
  0
VERTEX
  8
0
 10
72.892967
 20
206.625076
  0
VERTEX
  8
0
 10
73.005157
 20
206.033585
  0
VERTEX
  8
0
 10
73.059448
 20
205.606171
  0
VERTEX
  8
0
 10
73.106407
 20
204.879608
  0
VERTEX
  8
0
 10
73.112495
 20
204.317490
  0
VERTEX
  8
0
 10
73.080078
 20
203.321487
  0
VERTEX
  8
0
 10
73.028595
 20
202.535385
  0
VERTEX
  8
0
 10
72.799683
 20
200.150314
  0
VERTEX
  8
0
 10
72.451714
 20
197.306244
  0
VERTEX
  8
0
 10
72.015312
 20
194.181870
  0
VERTEX
  8
0
 10
71.416481
 20
190.299454
  0
VERTEX
  8
0
 10
70.766327
 20
186.381088
  0
VERTEX
  8
0
 10
69.858047
 20
181.128738
  0
SEQEND
  8
0
  0
POLYLINE
  8
0
  0
VERTEX
  8
0
 10
45.228279
 20
190.824768
  0
VERTEX
  8
0
 10
45.697498
 20
192.610855
  0
VERTEX
  8
0
 10
46.044296
 20
194.049683
  0
VERTEX
  8
0
 10
46.267109
 20
195.139847
  0
VERTEX
  8
0
 10
46.421719
 20
196.153976
  0
VERTEX
  8
0
 10
46.498672
 20
197.077652
  0
VERTEX
  8
0
 10
46.504532
 20
197.908203
  0
VERTEX
  8
0
 10
46.447968
 20
198.644455
  0
VERTEX
  8
0
 10
46.398907
 20
198.976791
  0
VERTEX
  8
0
 10
46.302578
 20
199.430069
  0
VERTEX
  8
0
 10
46.180779
 20
199.831406
  0
VERTEX
  8
0
 10
46.031406
 20
200.193909
  0
VERTEX
  8
0
 10
45.850857
 20
200.533585
  0
VERTEX
  8
0
 10
45.555779
 20
200.978439
  0
VERTEX
  8
0
 10
45.191013
 20
201.448746
  0
VERTEX
  8
0
 10
44.750782
 20
201.978119
  0
VERTEX
  8
0
 10
42.748123
 20
204.297180
  0
VERTEX
  8
0
 10
41.983047
 20
205.213272
  0
VERTEX
  8
0
 10
41.321095
 20
206.092255
  0
VERTEX
  8
0
 10
41.040623
 20
206.522034
  0
VERTEX
  8
0
 10
40.875546
 20
206.806168
  0
VERTEX
  8
0
 10
40.663906
 20
207.230469
  0
VERTEX
  8
0
 10
40.547188
 20
207.516953
  0
VERTEX
  8
0
 10
40.407810
 20
207.964050
  0
VERTEX
  8
0
 10
40.338203
 20
208.280701
  0
VERTEX
  8
0
 10
40.267811
 20
208.795380
  0
VERTEX
  8
0
 10
40.243046
 20
209.172180
  0
VERTEX
  8
0
 10
40.235546
 20
209.581329
  0
VERTEX
  8
0
 10
40.256092
 20
210.266327
  0
VERTEX
  8
0
 10
40.318985
 20
211.050232
  0
VERTEX
  8
0
 10
40.390232
 20
211.634369
  0
VERTEX
  8
0
 10
40.489372
 20
212.272491
  0
VERTEX
  8
0
 10
40.620232
 20
212.968353
  0
VERTEX
  8
0
 10
40.786484
 20
213.726242
  0
VERTEX
  8
0
 10
40.991951
 20
214.549683
  0
VERTEX
  8
0
 10
41.240311
 20
215.443039
  0
VERTEX
  8
0
 10
41.535469
 20
216.409988
  0
VERTEX
  8
0
 10
42.066093
 20
217.994293
  0
VERTEX
  8
0
 10
42.889763
 20
220.266708
  0
VERTEX
  8
0
 10
45.198982
 20
226.275391
  0
VERTEX
  8
0
 10
45.827030
 20
227.958984
  0
VERTEX
  8
0
 10
46.416092
 20
229.669525
  0
VERTEX
  8
0
 10
46.766014
 20
230.833511
  0
VERTEX
  8
0
 10
46.976875
 20
231.646637
  0
VERTEX
  8
0
 10
47.157185
 20
232.450851
  0
VERTEX
  8
0
 10
47.358826
 20
233.533905
  0
VERTEX
  8
0
 10
47.476250
 20
234.334763
  0
VERTEX
  8
0
 10
47.559685
 20
235.106796
  0
VERTEX
  8
0
 10
47.604843
 20
235.832886
  0
VERTEX
  8
0
 10
47.607498
 20
236.495926
  0
VERTEX
  8
0
 10
47.563202
 20
237.080704
  0
VERTEX
  8
0
 10
47.506405
 20
237.429214
  0
VERTEX
  8
0
 10
47.379219
 20
237.905304
  0
VERTEX
  8
0
 10
47.200859
 20
238.343582
  0
VERTEX
  8
0
 10
46.969841
 20
238.764526
  0
VERTEX
  8
0
 10
46.684921
 20
239.188828
  0
VERTEX
  8
0
 10
46.345078
 20
239.636871
  0
VERTEX
  8
0
 10
45.804531
 20
240.290070
  0
VERTEX
  8
0
 10
45.332813
 20
240.820465
  0
VERTEX
  8
0
 10
44.803593
 20
241.383347
  0
VERTEX
  8
0
 10
44.216171
 20
241.976715
  0
VERTEX
  8
0
 10
43.569920
 20
242.598816
  0
VERTEX
  8
0
 10
42.864609
 20
243.247574
  0
VERTEX
  8
0
 10
41.030079
 20
244.843903
  0
VERTEX
  8
0
 10
38.450310
 20
246.992889
  0
SEQEND
  8
0
  0
POLYLINE
  8
0
  0
VERTEX
  8
0
 10
91.601013
 20
185.399841
  0
VERTEX
  8
0
 10
78.235779
 20
186.002258
  0
SEQEND
  8
0
  0
POLYLINE
  8
0
  0
VERTEX
  8
0
 10
65.852814
 20
187.831711
  0
VERTEX
  8
0
 10
51.302967
 20
191.284378
  0
SEQEND
  8
0
  0
POLYLINE
  8
0
  0
VERTEX
  8
0
 10
36.877735
 20
195.435379
  0
VERTEX
  8
0
 10
31.864296
 20
196.882339
  0
VERTEX
  8
0
 10
30.013359
 20
192.467972
  0
SEQEND
  8
0
  0
POLYLINE
  8
0
  0
VERTEX
  8
0
 10
14.267812
 20
331.846710
  0
VERTEX
  8
0
 10
11.544296
 20
327.275085
  0
VERTEX
  8
0
 10
10.459531
 20
325.382416
  0
VERTEX
  8
0
 10
9.628672
 20
323.879120
  0
VERTEX
  8
0
 10
8.654531
 20
322.045074
  0
VERTEX
  8
0
 10
7.775312
 20
320.311951
  0
VERTEX
  8
0
 10
6.880938
 20
318.442322
  0
VERTEX
  8
0
 10
6.288828
 20
317.101563
  0
VERTEX
  8
0
 10
5.911250
 20
316.161469
  0
VERTEX
  8
0
 10
5.550625
 20
315.132874
  0
VERTEX
  8
0
 10
5.344609
 20
314.412720
  0
VERTEX
  8
0
 10
5.176875
 20
313.617340
  0
VERTEX
  8
0
 10
5.071719
 20
312.768280
  0
VERTEX
  8
0
 10
5.016094
 20
311.572021
  0
VERTEX
  8
0
 10
5.042422
 20
310.992249
  0
VERTEX
  8
0
 10
5.086562
 20
310.666931
  0
VERTEX
  8
0
 10
5.159453
 20
310.308594
  0
VERTEX
  8
0
 10
5.267265
 20
309.910156
  0
VERTEX
  8
0
 10
5.415937
 20
309.464600
  0
VERTEX
  8
0
 10
5.729140
 20
308.692322
  0
VERTEX
  8
0
 10
6.164141
 20
307.780701
  0
VERTEX
  8
0
 10
6.719141
 20
306.737793
  0
VERTEX
  8
0
 10
7.634219
 20
305.168182
  0
VERTEX
  8
0
 10
8.443671
 20
303.875610
  0
VERTEX
  8
0
 10
9.351250
 20
302.500397
  0
VERTEX
  8
0
 10
10.350469
 20
301.056854
  0
VERTEX
  8
0
 10
11.815078
 20
299.039124
  0
VERTEX
  8
0
 10
13.840156
 20
296.364136
  0
VERTEX
  8
0
 10
16.057812
 20
293.512665
  0
VERTEX
  8
0
 10
22.391249
 20
285.446014
  0
VERTEX
  8
0
 10
24.277811
 20
283.016083
  0
VERTEX
  8
0
 10
26.009140
 20
280.753510
  0
VERTEX
  8
0
 10
27.531406
 20
278.717957
  0
VERTEX
  8
0
 10
28.546875
 20
277.323425
  0
VERTEX
  8
0
 10
29.471718
 20
276.017029
  0
VERTEX
  8
0
 10
30.591562
 20
274.374146
  0
VERTEX
  8
0
 10
31.367266
 20
273.187103
  0
VERTEX
  8
0
 10
32.343437
 20
271.626648
  0
VERTEX
  8
0
 10
33.261875
 20
270.084595
  0
VERTEX
  8
0
 10
34.121483
 20
268.569672
  0
VERTEX
  8
0
 10
34.921017
 20
267.090607
  0
VERTEX
  8
0
 10
35.834766
 20
265.305389
  0
VERTEX
  8
0
 10
36.496563
 20
263.924835
  0
VERTEX
  8
0
 10
37.098125
 20
262.567719
  0
VERTEX
  8
0
 10
37.510078
 20
261.554199
  0
VERTEX
  8
0
 10
37.766483
 20
260.876099
  0
VERTEX
  8
0
 10
38.235779
 20
259.503754
  0
VERTEX
  8
0
 10
38.447266
 20
258.804596
  0
VERTEX
  8
0
 10
38.639843
 20
258.093201
  0
VERTEX
  8
0
 10
38.886562
 20
256.997101
  0
VERTEX
  8
0
 10
39.073513
 20
255.857880
  0
VERTEX
  8
0
 10
39.190544
 20
254.666397
  0
VERTEX
  8
0
 10
39.227188
 20
253.413040
  0
VERTEX
  8
0
 10
39.174767
 20
252.091248
  0
VERTEX
  8
0
 10
39.093513
 20
251.181793
  0
VERTEX
  8
0
 10
38.981873
 20
250.264206
  0
VERTEX
  8
0
 10
38.845623
 20
249.350540
  0
VERTEX
  8
0
 10
38.607029
 20
248.014526
  0
VERTEX
  8
0
 10
38.433594
 20
247.164841
  0
VERTEX
  8
0
 10
38.166092
 20
245.982651
  0
VERTEX
  8
0
 10
37.906719
 20
244.947723
  0
VERTEX
  8
0
 10
37.588749
 20
243.819443
  0
VERTEX
  8
0
 10
37.367107
 20
243.133514
  0
VERTEX
  8
0
 10
37.154922
 20
242.557800
  0
VERTEX
  8
0
 10
36.947891
 20
242.067734
  0
VERTEX
  8
0
 10
36.741718
 20
241.638901
  0
VERTEX
  8
0
 10
36.461876
 20
241.123276
  0
VERTEX
  8
0
 10
36.174767
 20
240.650223
  0
VERTEX
  8
0
 10
35.808907
 20
240.101242
  0
VERTEX
  8
0
 10
35.364296
 20
239.475388
  0
SEQEND
  8
0
  0
POLYLINE
  8
0
  0
VERTEX
  8
0
 10
51.752029
 20
353.866699
  0
VERTEX
  8
0
 10
51.265232
 20
353.839050
  0
VERTEX
  8
0
 10
50.825859
 20
353.627167
  0
VERTEX
  8
0
 10
50.501091
 20
353.263275
  0
VERTEX
  8
0
 10
50.340233
 20
352.802795
  0
VERTEX
  8
0
 10
50.367889
 20
352.315918
  0
VERTEX
  8
0
 10
50.579842
 20
351.876556
  0
VERTEX
  8
0
 10
50.943748
 20
351.551880
  0
VERTEX
  8
0
 10
51.404140
 20
351.391083
  0
VERTEX
  8
0
 10
51.891171
 20
351.418732
  0
VERTEX
  8
0
 10
52.330391
 20
351.630615
  0
VERTEX
  8
0
 10
52.655155
 20
351.994537
  0
VERTEX
  8
0
 10
52.815937
 20
352.454987
  0
VERTEX
  8
0
 10
52.788280
 20
352.941864
  0
VERTEX
  8
0
 10
52.576405
 20
353.381256
  0
VERTEX
  8
0
 10
52.212578
 20
353.705933
  0
VERTEX
  8
0
 10
51.752029
 20
353.866699
  0
SEQEND
  8
0
  0
POLYLINE
  8
0
  0
VERTEX
  8
0
 10
45.892185
 20
372.377808
  0
VERTEX
  8
0
 10
45.405231
 20
372.350159
  0
VERTEX
  8
0
 10
44.965935
 20
372.138123
  0
VERTEX
  8
0
 10
44.641171
 20
371.774200
  0
VERTEX
  8
0
 10
44.480389
 20
371.313904
  0
VERTEX
  8
0
 10
44.508045
 20
370.826874
  0
VERTEX
  8
0
 10
44.719921
 20
370.387634
  0
VERTEX
  8
0
 10
45.083828
 20
370.062805
  0
VERTEX
  8
0
 10
45.544296
 20
369.902008
  0
VERTEX
  8
0
 10
46.031250
 20
369.929688
  0
VERTEX
  8
0
 10
46.470547
 20
370.141541
  0
VERTEX
  8
0
 10
46.795235
 20
370.505463
  0
VERTEX
  8
0
 10
46.956093
 20
370.965942
  0
VERTEX
  8
0
 10
46.928436
 20
371.452789
  0
VERTEX
  8
0
 10
46.716560
 20
371.892181
  0
VERTEX
  8
0
 10
46.352654
 20
372.216858
  0
VERTEX
  8
0
 10
45.892185
 20
372.377808
  0
SEQEND
  8
0
  0
POLYLINE
  8
0
  0
VERTEX
  8
0
 10
16.520233
 20
331.897797
  0
VERTEX
  8
0
 10
16.033281
 20
331.870148
  0
VERTEX
  8
0
 10
15.594062
 20
331.658203
  0
VERTEX
  8
0
 10
15.269218
 20
331.294373
  0
VERTEX
  8
0
 10
15.108438
 20
330.833984
  0
VERTEX
  8
0
 10
15.136093
 20
330.346954
  0
VERTEX
  8
0
 10
15.348046
 20
329.907715
  0
VERTEX
  8
0
 10
15.711797
 20
329.582947
  0
VERTEX
  8
0
 10
16.172266
 20
329.422180
  0
VERTEX
  8
0
 10
16.659218
 20
329.449829
  0
VERTEX
  8
0
 10
17.098436
 20
329.661713
  0
VERTEX
  8
0
 10
17.423281
 20
330.025452
  0
VERTEX
  8
0
 10
17.584063
 20
330.486023
  0
VERTEX
  8
0
 10
17.556406
 20
330.972870
  0
VERTEX
  8
0
 10
17.344452
 20
331.412170
  0
VERTEX
  8
0
 10
16.980703
 20
331.737030
  0
VERTEX
  8
0
 10
16.520233
 20
331.897797
  0
SEQEND
  8
0
  0
POLYLINE
  8
0
  0
VERTEX
  8
0
 10
77.625778
 20
557.959229
  0
VERTEX
  8
0
 10
77.965782
 20
544.245605
  0
VERTEX
  8
0
 10
78.148666
 20
535.009827
  0
VERTEX
  8
0
 10
78.217110
 20
530.342957
  0
VERTEX
  8
0
 10
78.264999
 20
525.624207
  0
VERTEX
  8
0
 10
78.284454
 20
520.797974
  0
VERTEX
  8
0
 10
78.277496
 20
517.488220
  0
VERTEX
  8
0
 10
78.230469
 20
512.337036
  0
VERTEX
  8
0
 10
78.171089
 20
508.750061
  0
VERTEX
  8
0
 10
78.086403
 20
505.018341
  0
VERTEX
  8
0
 10
77.973671
 20
501.122162
  0
VERTEX
  8
0
 10
77.830467
 20
497.043671
  0
VERTEX
  8
0
 10
77.656952
 20
492.794922
  0
VERTEX
  8
0
 10
77.455467
 20
488.418274
  0
VERTEX
  8
0
 10
77.228668
 20
483.957489
  0
VERTEX
  8
0
 10
76.979218
 20
479.456238
  0
VERTEX
  8
0
 10
76.709686
 20
474.958282
  0
VERTEX
  8
0
 10
76.273201
 20
468.313049
  0
VERTEX
  8
0
 10
75.806252
 20
461.921082
  0
VERTEX
  8
0
 10
75.482185
 20
457.871552
  0
VERTEX
  8
0
 10
75.149841
 20
454.001099
  0
VERTEX
  8
0
 10
74.809448
 20
450.272949
  0
VERTEX
  8
0
 10
74.284454
 20
444.863281
  0
VERTEX
  8
0
 10
72.419685
 20
426.853119
  0
VERTEX
  8
0
 10
71.429375
 20
416.921875
  0
VERTEX
  8
0
 10
70.205704
 20
404.156708
  0
VERTEX
  8
0
 10
68.752579
 20
388.648743
  0
VERTEX
  8
0
 10
62.438671
 20
395.145782
  0
VERTEX
  8
0
 10
58.058907
 20
399.686249
  0
VERTEX
  8
0
 10
54.698982
 20
403.208130
  0
VERTEX
  8
0
 10
51.513672
 20
406.595367
  0
VERTEX
  8
0
 10
47.811718
 20
410.606384
  0
VERTEX
  8
0
 10
44.428825
 20
414.345062
  0
VERTEX
  8
0
 10
40.801250
 20
418.437256
  0
VERTEX
  8
0
 10
37.642654
 20
422.080688
  0
VERTEX
  8
0
 10
34.893124
 20
425.344666
  0
VERTEX
  8
0
 10
32.860546
 20
427.841095
  0
VERTEX
  8
0
 10
31.735155
 20
429.264374
  0
VERTEX
  8
0
 10
30.676405
 20
430.638580
  0
VERTEX
  8
0
 10
29.066015
 20
432.819122
  0
VERTEX
  8
0
 10
28.196093
 20
434.061462
  0
VERTEX
  8
0
 10
27.657578
 20
434.862183
  0
VERTEX
  8
0
 10
26.683437
 20
436.397034
  0
VERTEX
  8
0
 10
26.248281
 20
437.131317
  0
VERTEX
  8
0
 10
25.658983
 20
438.192505
  0
VERTEX
  8
0
 10
25.307186
 20
438.873505
  0
VERTEX
  8
0
 10
24.839140
 20
439.856628
  0
VERTEX
  8
0
 10
24.565781
 20
440.486938
  0
VERTEX
  8
0
 10
24.322500
 20
441.097656
  0
VERTEX
  8
0
 10
24.108593
 20
441.688965
  0
VERTEX
  8
0
 10
23.923046
 20
442.261719
  0
VERTEX
  8
0
 10
23.764217
 20
442.815155
  0
VERTEX
  8
0
 10
23.570469
 20
443.608124
  0
VERTEX
  8
0
 10
23.343437
 20
444.823181
  0
VERTEX
  8
0
 10
23.249922
 20
445.483978
  0
VERTEX
  8
0
 10
23.136562
 20
446.463745
  0
VERTEX
  8
0
 10
23.105000
 20
446.827332
  0
VERTEX
  8
0
 10
23.092264
 20
447.210999
  0
VERTEX
  8
0
 10
23.108515
 20
447.645447
  0
VERTEX
  8
0
 10
23.163750
 20
448.161255
  0
VERTEX
  8
0
 10
23.341249
 20
449.154297
  0
VERTEX
  8
0
 10
23.662500
 20
450.502716
  0
VERTEX
  8
0
 10
24.161093
 20
452.309601
  0
VERTEX
  8
0
 10
24.857500
 20
454.639587
  0
VERTEX
  8
0
 10
26.034687
 20
458.396942
  0
VERTEX
  8
0
 10
27.395702
 20
462.617249
  0
VERTEX
  8
0
 10
28.831327
 20
466.994202
  0
VERTEX
  8
0
 10
35.132030
 20
485.956635
  0
VERTEX
  8
0
 10
36.408985
 20
489.960541
  0
VERTEX
  8
0
 10
37.231640
 20
492.703827
  0
VERTEX
  8
0
 10
37.643826
 20
494.198029
  0
VERTEX
  8
0
 10
37.951172
 20
495.445221
  0
VERTEX
  8
0
 10
38.165936
 20
496.497162
  0
VERTEX
  8
0
 10
38.302578
 20
497.414063
  0
VERTEX
  8
0
 10
38.384922
 20
498.461853
  0
VERTEX
  8
0
 10
38.397030
 20
499.082184
  0
VERTEX
  8
0
 10
38.387657
 20
499.502106
  0
VERTEX
  8
0
 10
38.359921
 20
499.928894
  0
VERTEX
  8
0
 10
38.309608
 20
500.363983
  0
VERTEX
  8
0
 10
38.183750
 20
501.036072
  0
VERTEX
  8
0
 10
38.060390
 20
501.499054
  0
VERTEX
  8
0
 10
37.901093
 20
501.975861
  0
VERTEX
  8
0
 10
37.585701
 20
502.720367
  0
VERTEX
  8
0
 10
37.170624
 20
503.502960
  0
VERTEX
  8
0
 10
36.660313
 20
504.320160
  0
VERTEX
  8
0
 10
36.062656
 20
505.167023
  0
VERTEX
  8
0
 10
35.143982
 20
506.333649
  0
VERTEX
  8
0
 10
34.373905
 20
507.229980
  0
VERTEX
  8
0
 10
33.252266
 20
508.446320
  0
VERTEX
  8
0
 10
32.324219
 20
509.392487
  0
VERTEX
  8
0
 10
31.287420
 20
510.403259
  0
VERTEX
  8
0
 10
30.109921
 20
511.511627
  0
VERTEX
  8
0
 10
28.265547
 20
513.198425
  0
VERTEX
  8
0
 10
24.113516
 20
516.905640
  0
VERTEX
  8
0
 10
14.519453
 20
525.375122
  0
VERTEX
  8
0
 10
11.301093
 20
528.237000
  0
VERTEX
  8
0
 10
8.392656
 20
530.883423
  0
VERTEX
  8
0
 10
6.374765
 20
532.802002
  0
VERTEX
  8
0
 10
4.905468
 20
534.270752
  0
VERTEX
  8
0
 10
3.642890
 20
535.597778
  0
VERTEX
  8
0
 10
2.618281
 20
536.742493
  0
VERTEX
  8
0
 10
1.860625
 20
537.668274
  0
VERTEX
  8
0
 10
1.442656
 20
538.273865
  0
VERTEX
  8
0
 10
1.290000
 20
538.547668
  0
VERTEX
  8
0
 10
1.171797
 20
538.810486
  0
VERTEX
  8
0
 10
1.085547
 20
539.068298
  0
VERTEX
  8
0
 10
1.028984
 20
539.327026
  0
VERTEX
  8
0
 10
0.999609
 20
539.592957
  0
VERTEX
  8
0
 10
1.001953
 20
540.017517
  0
VERTEX
  8
0
 10
1.033281
 20
540.321716
  0
VERTEX
  8
0
 10
1.088672
 20
540.644531
  0
VERTEX
  8
0
 10
1.272187
 20
541.349854
  0
VERTEX
  8
0
 10
1.554062
 20
542.142517
  0
VERTEX
  8
0
 10
2.046484
 20
543.269653
  0
VERTEX
  8
0
 10
2.415156
 20
544.023865
  0
VERTEX
  8
0
 10
2.981172
 20
545.118591
  0
VERTEX
  8
0
 10
7.462031
 20
553.531860
  0
VERTEX
  8
0
 10
7.961250
 20
554.422180
  0
VERTEX
  8
0
 10
8.561719
 20
555.433411
  0
VERTEX
  8
0
 10
9.089922
 20
556.257507
  0
VERTEX
  8
0
 10
9.657266
 20
557.064026
  0
VERTEX
  8
0
 10
10.131953
 20
557.669861
  0
VERTEX
  8
0
 10
10.466875
 20
558.036682
  0
VERTEX
  8
0
 10
10.738593
 20
558.238281
  0
VERTEX
  8
0
 10
10.950859
 20
558.333923
  0
VERTEX
  8
0
 10
11.070624
 20
558.369202
  0
VERTEX
  8
0
 10
11.344453
 20
558.413452
  0
VERTEX
  8
0
 10
11.501328
 20
558.421875
  0
VERTEX
  8
0
 10
11.862187
 20
558.409973
  0
VERTEX
  8
0
 10
12.295468
 20
558.358093
  0
VERTEX
  8
0
 10
13.102109
 20
558.201416
  0
VERTEX
  8
0
 10
13.740703
 20
558.047485
  0
VERTEX
  8
0
 10
14.824843
 20
557.752625
  0
VERTEX
  8
0
 10
16.029921
 20
557.393921
  0
VERTEX
  8
0
 10
17.321718
 20
556.985779
  0
VERTEX
  8
0
 10
20.028358
 20
556.078247
  0
VERTEX
  8
0
 10
22.774921
 20
555.107361
  0
VERTEX
  8
0
 10
31.584843
 20
551.864502
  0
VERTEX
  8
0
 10
35.009766
 20
550.628296
  0
VERTEX
  8
0
 10
37.708279
 20
549.696716
  0
VERTEX
  8
0
 10
39.188515
 20
549.214844
  0
VERTEX
  8
0
 10
40.115234
 20
548.932007
  0
VERTEX
  8
0
 10
41.004608
 20
548.681396
  0
VERTEX
  8
0
 10
41.866405
 20
548.463745
  0
VERTEX
  8
0
 10
42.709999
 20
548.280457
  0
VERTEX
  8
0
 10
43.544842
 20
548.132324
  0
VERTEX
  8
0
 10
44.380547
 20
548.020447
  0
VERTEX
  8
0
 10
45.226563
 20
547.946106
  0
VERTEX
  8
0
 10
46.092499
 20
547.909973
  0
VERTEX
  8
0
 10
46.535702
 20
547.906555
  0
VERTEX
  8
0
 10
47.445545
 20
547.930298
  0
VERTEX
  8
0
 10
47.912811
 20
547.957458
  0
VERTEX
  8
0
 10
48.873516
 20
548.043884
  0
VERTEX
  8
0
 10
49.871563
 20
548.173767
  0
VERTEX
  8
0
 10
50.909451
 20
548.348572
  0
VERTEX
  8
0
 10
52.546875
 20
548.698242
  0
VERTEX
  8
0
 10
53.696014
 20
548.991699
  0
VERTEX
  8
0
 10
54.894138
 20
549.334656
  0
VERTEX
  8
0
 10
56.143669
 20
549.728760
  0
VERTEX
  8
0
 10
58.102734
 20
550.405945
  0
VERTEX
  8
0
 10
60.130154
 20
551.160461
  0
VERTEX
  8
0
 10
62.187656
 20
551.963135
  0
VERTEX
  8
0
 10
67.531013
 20
554.113403
  0
VERTEX
  8
0
 10
69.977028
 20
555.078918
  0
VERTEX
  8
0
 10
73.374527
 20
556.378601
  0
VERTEX
  8
0
 10
77.625778
 20
557.959229
  0
SEQEND
  8
0
  0
POLYLINE
  8
0
  0
VERTEX
  8
0
 10
12.100625
 20
538.999817
  0
VERTEX
  8
0
 10
15.916875
 20
549.015930
  0
SEQEND
  8
0
  0
POLYLINE
  8
0
  0
VERTEX
  8
0
 10
19.925859
 20
524.573792
  0
VERTEX
  8
0
 10
22.587578
 20
529.060120
  0
SEQEND
  8
0
  0
POLYLINE
  8
0
  0
VERTEX
  8
0
 10
29.983593
 20
544.900452
  0
VERTEX
  8
0
 10
31.473436
 20
548.861389
  0
SEQEND
  8
0
  0
POLYLINE
  8
0
  0
VERTEX
  8
0
 10
39.195469
 20
444.318207
  0
VERTEX
  8
0
 10
31.103281
 20
448.203430
  0
SEQEND
  8
0
  0
POLYLINE
  8
0
  0
VERTEX
  8
0
 10
54.312420
 20
490.318970
  0
VERTEX
  8
0
 10
45.135078
 20
494.938904
  0
SEQEND
  8
0
  0
POLYLINE
  8
0
  0
VERTEX
  8
0
 10
41.687969
 20
426.030457
  0
VERTEX
  8
0
 10
44.848358
 20
435.366638
  0
VERTEX
  8
0
 10
47.070782
 20
442.031952
  0
VERTEX
  8
0
 10
48.644375
 20
446.826630
  0
VERTEX
  8
0
 10
52.570000
 20
458.906464
  0
VERTEX
  8
0
 10
55.044922
 20
466.415070
  0
VERTEX
  8
0
 10
57.208672
 20
472.840302
  0
VERTEX
  8
0
 10
60.110935
 20
481.255707
  0
VERTEX
  8
0
 10
61.891171
 20
486.324982
  0
VERTEX
  8
0
 10
63.651093
 20
491.274200
  0
VERTEX
  8
0
 10
65.350464
 20
495.992188
  0
VERTEX
  8
0
 10
67.452263
 20
501.733185
  0
VERTEX
  8
0
 10
68.877495
 20
505.553650
  0
VERTEX
  8
0
 10
70.610542
 20
510.113129
  0
VERTEX
  8
0
 10
72.203827
 20
514.225464
  0
VERTEX
  8
0
 10
74.453827
 20
519.946838
  0
SEQEND
  8
0
  0
POLYLINE
  8
0
  0
VERTEX
  8
0
 10
19.978203
 20
525.572510
  0
VERTEX
  8
0
 10
19.592110
 20
525.516541
  0
VERTEX
  8
0
 10
19.256718
 20
525.317078
  0
VERTEX
  8
0
 10
19.023281
 20
525.004456
  0
VERTEX
  8
0
 10
18.927187
 20
524.626160
  0
VERTEX
  8
0
 10
18.983202
 20
524.240051
  0
VERTEX
  8
0
 10
19.182734
 20
523.904846
  0
VERTEX
  8
0
 10
19.495390
 20
523.671326
  0
VERTEX
  8
0
 10
19.873516
 20
523.575195
  0
VERTEX
  8
0
 10
20.259609
 20
523.631226
  0
VERTEX
  8
0
 10
20.594999
 20
523.830750
  0
VERTEX
  8
0
 10
20.828438
 20
524.143372
  0
VERTEX
  8
0
 10
20.924452
 20
524.521545
  0
VERTEX
  8
0
 10
20.868515
 20
524.907715
  0
VERTEX
  8
0
 10
20.668983
 20
525.243042
  0
VERTEX
  8
0
 10
20.356327
 20
525.476379
  0
VERTEX
  8
0
 10
19.978203
 20
525.572510
  0
SEQEND
  8
0
  0
POLYLINE
  8
0
  0
VERTEX
  8
0
 10
22.639921
 20
530.058716
  0
VERTEX
  8
0
 10
22.253828
 20
530.002808
  0
VERTEX
  8
0
 10
21.918438
 20
529.803284
  0
VERTEX
  8
0
 10
21.684999
 20
529.490601
  0
VERTEX
  8
0
 10
21.588984
 20
529.112305
  0
VERTEX
  8
0
 10
21.644922
 20
528.726257
  0
VERTEX
  8
0
 10
21.844452
 20
528.390930
  0
VERTEX
  8
0
 10
22.157108
 20
528.157471
  0
VERTEX
  8
0
 10
22.535234
 20
528.061401
  0
VERTEX
  8
0
 10
22.921328
 20
528.117310
  0
VERTEX
  8
0
 10
23.256718
 20
528.316833
  0
VERTEX
  8
0
 10
23.490156
 20
528.629517
  0
VERTEX
  8
0
 10
23.586172
 20
529.007813
  0
VERTEX
  8
0
 10
23.530233
 20
529.393921
  0
VERTEX
  8
0
 10
23.330702
 20
529.729187
  0
VERTEX
  8
0
 10
23.018045
 20
529.962646
  0
VERTEX
  8
0
 10
22.639921
 20
530.058716
  0
SEQEND
  8
0
  0
POLYLINE
  8
0
  0
VERTEX
  8
0
 10
30.035936
 20
545.899048
  0
VERTEX
  8
0
 10
29.649843
 20
545.843140
  0
VERTEX
  8
0
 10
29.314531
 20
545.643738
  0
VERTEX
  8
0
 10
29.081093
 20
545.331055
  0
VERTEX
  8
0
 10
28.984999
 20
544.952820
  0
VERTEX
  8
0
 10
29.041016
 20
544.566711
  0
VERTEX
  8
0
 10
29.240545
 20
544.231384
  0
VERTEX
  8
0
 10
29.553123
 20
543.997986
  0
VERTEX
  8
0
 10
29.931250
 20
543.901855
  0
VERTEX
  8
0
 10
30.317499
 20
543.957947
  0
VERTEX
  8
0
 10
30.652811
 20
544.157349
  0
VERTEX
  8
0
 10
30.886250
 20
544.469971
  0
VERTEX
  8
0
 10
30.982265
 20
544.848083
  0
VERTEX
  8
0
 10
30.926249
 20
545.234375
  0
VERTEX
  8
0
 10
30.726873
 20
545.569702
  0
VERTEX
  8
0
 10
30.414141
 20
545.803101
  0
VERTEX
  8
0
 10
30.035936
 20
545.899048
  0
SEQEND
  8
0
  0
POLYLINE
  8
0
  0
VERTEX
  8
0
 10
31.525780
 20
549.859985
  0
VERTEX
  8
0
 10
31.139608
 20
549.804077
  0
VERTEX
  8
0
 10
30.804296
 20
549.604675
  0
VERTEX
  8
0
 10
30.570780
 20
549.291870
  0
VERTEX
  8
0
 10
30.474766
 20
548.913757
  0
VERTEX
  8
0
 10
30.530781
 20
548.527649
  0
VERTEX
  8
0
 10
30.730312
 20
548.192322
  0
VERTEX
  8
0
 10
31.042969
 20
547.958923
  0
VERTEX
  8
0
 10
31.421093
 20
547.862793
  0
VERTEX
  8
0
 10
31.807186
 20
547.918762
  0
VERTEX
  8
0
 10
32.142578
 20
548.118286
  0
VERTEX
  8
0
 10
32.376015
 20
548.430908
  0
VERTEX
  8
0
 10
32.472031
 20
548.809021
  0
VERTEX
  8
0
 10
32.416092
 20
549.195313
  0
VERTEX
  8
0
 10
32.216560
 20
549.530640
  0
VERTEX
  8
0
 10
31.903906
 20
549.764038
  0
VERTEX
  8
0
 10
31.525780
 20
549.859985
  0
SEQEND
  8
0
  0
POLYLINE
  8
0
  0
VERTEX
  8
0
 10
12.205312
 20
540.997192
  0
VERTEX
  8
0
 10
11.583047
 20
540.931702
  0
VERTEX
  8
0
 10
11.011328
 20
540.677185
  0
VERTEX
  8
0
 10
10.546406
 20
540.258423
  0
VERTEX
  8
0
 10
10.233438
 20
539.716553
  0
VERTEX
  8
0
 10
10.103359
 20
539.104492
  0
VERTEX
  8
0
 10
10.168750
 20
538.482178
  0
VERTEX
  8
0
 10
10.423359
 20
537.910583
  0
VERTEX
  8
0
 10
10.841953
 20
537.445435
  0
VERTEX
  8
0
 10
11.383906
 20
537.132629
  0
VERTEX
  8
0
 10
11.995937
 20
537.002625
  0
VERTEX
  8
0
 10
12.618281
 20
537.067932
  0
VERTEX
  8
0
 10
13.189921
 20
537.322510
  0
VERTEX
  8
0
 10
13.654922
 20
537.741211
  0
VERTEX
  8
0
 10
13.967734
 20
538.283142
  0
VERTEX
  8
0
 10
14.097890
 20
538.895142
  0
VERTEX
  8
0
 10
14.032421
 20
539.517517
  0
VERTEX
  8
0
 10
13.777968
 20
540.089233
  0
VERTEX
  8
0
 10
13.359297
 20
540.554077
  0
VERTEX
  8
0
 10
12.817344
 20
540.867004
  0
VERTEX
  8
0
 10
12.205312
 20
540.997192
  0
SEQEND
  8
0
  0
POLYLINE
  8
0
  0
VERTEX
  8
0
 10
16.021563
 20
551.013123
  0
VERTEX
  8
0
 10
15.399297
 20
550.947632
  0
VERTEX
  8
0
 10
14.827656
 20
550.693115
  0
VERTEX
  8
0
 10
14.362656
 20
550.274536
  0
VERTEX
  8
0
 10
14.049844
 20
549.732666
  0
VERTEX
  8
0
 10
13.919609
 20
549.120605
  0
VERTEX
  8
0
 10
13.985156
 20
548.498108
  0
VERTEX
  8
0
 10
14.239609
 20
547.926575
  0
VERTEX
  8
0
 10
14.658281
 20
547.461548
  0
VERTEX
  8
0
 10
15.200234
 20
547.148743
  0
VERTEX
  8
0
 10
15.812265
 20
547.018555
  0
VERTEX
  8
0
 10
16.434530
 20
547.084045
  0
VERTEX
  8
0
 10
17.006250
 20
547.338440
  0
VERTEX
  8
0
 10
17.471172
 20
547.757202
  0
VERTEX
  8
0
 10
17.784140
 20
548.299072
  0
VERTEX
  8
0
 10
17.914141
 20
548.911255
  0
VERTEX
  8
0
 10
17.848827
 20
549.533447
  0
VERTEX
  8
0
 10
17.594219
 20
550.105164
  0
VERTEX
  8
0
 10
17.175625
 20
550.570129
  0
VERTEX
  8
0
 10
16.633671
 20
550.882935
  0
VERTEX
  8
0
 10
16.021563
 20
551.013123
  0
SEQEND
  8
0
  0
POLYLINE
  8
0
  0
VERTEX
  8
0
 10
16.897968
 20
662.963196
  0
VERTEX
  8
0
 10
16.538280
 20
655.480225
  0
VERTEX
  8
0
 10
16.321405
 20
650.454285
  0
VERTEX
  8
0
 10
16.240156
 20
647.794067
  0
VERTEX
  8
0
 10
16.220469
 20
645.302429
  0
VERTEX
  8
0
 10
16.249922
 20
643.913757
  0
VERTEX
  8
0
 10
16.290312
 20
643.040283
  0
VERTEX
  8
0
 10
16.348047
 20
642.211060
  0
VERTEX
  8
0
 10
16.465780
 20
641.049438
  0
VERTEX
  8
0
 10
16.563749
 20
640.329041
  0
VERTEX
  8
0
 10
16.738047
 20
639.328491
  0
VERTEX
  8
0
 10
16.871250
 20
638.714233
  0
VERTEX
  8
0
 10
17.094687
 20
637.870605
  0
VERTEX
  8
0
 10
17.344219
 20
637.119019
  0
VERTEX
  8
0
 10
17.524921
 20
636.665527
  0
VERTEX
  8
0
 10
17.719297
 20
636.243042
  0
VERTEX
  8
0
 10
18.040234
 20
635.654419
  0
VERTEX
  8
0
 10
18.276640
 20
635.282959
  0
VERTEX
  8
0
 10
18.533125
 20
634.920898
  0
VERTEX
  8
0
 10
19.113827
 20
634.200867
  0
VERTEX
  8
0
 10
19.796015
 20
633.446167
  0
VERTEX
  8
0
 10
20.559139
 20
632.650757
  0
VERTEX
  8
0
 10
22.462891
 20
630.720947
  0
VERTEX
  8
0
 10
23.337969
 20
629.774841
  0
VERTEX
  8
0
 10
23.777889
 20
629.224060
  0
VERTEX
  8
0
 10
24.052656
 20
628.818359
  0
VERTEX
  8
0
 10
24.293983
 20
628.395447
  0
VERTEX
  8
0
 10
24.514063
 20
627.934509
  0
VERTEX
  8
0
 10
24.796406
 20
627.223816
  0
VERTEX
  8
0
 10
25.094687
 20
626.350952
  0
VERTEX
  8
0
 10
26.899843
 20
620.641968
  0
VERTEX
  8
0
 10
28.893202
 20
614.594299
  0
VERTEX
  8
0
 10
30.652422
 20
609.390076
  0
VERTEX
  8
0
 10
31.984764
 20
605.572388
  0
VERTEX
  8
0
 10
33.341797
 20
601.869751
  0
VERTEX
  8
0
 10
34.502892
 20
598.893982
  0
VERTEX
  8
0
 10
35.216717
 20
597.166992
  0
VERTEX
  8
0
 10
35.700703
 20
596.044189
  0
VERTEX
  8
0
 10
36.691013
 20
593.876221
  0
VERTEX
  8
0
 10
37.198124
 20
592.834900
  0
VERTEX
  8
0
 10
37.714062
 20
591.824829
  0
VERTEX
  8
0
 10
38.239296
 20
590.848022
  0
VERTEX
  8
0
 10
38.773750
 20
589.906067
  0
VERTEX
  8
0
 10
39.314453
 20
589.000305
  0
VERTEX
  8
0
 10
40.129608
 20
587.711182
  0
VERTEX
  8
0
 10
40.670704
 20
586.899353
  0
VERTEX
  8
0
 10
41.470078
 20
585.755127
  0
VERTEX
  8
0
 10
42.244061
 20
584.702026
  0
VERTEX
  8
0
 10
42.980938
 20
583.742737
  0
VERTEX
  8
0
 10
43.673122
 20
582.877563
  0
VERTEX
  8
0
 10
44.331169
 20
582.095764
  0
VERTEX
  8
0
 10
44.969921
 20
581.384033
  0
VERTEX
  8
0
 10
45.604374
 20
580.728821
  0
VERTEX
  8
0
 10
46.249218
 20
580.116882
  0
VERTEX
  8
0
 10
46.919373
 20
579.534607
  0
VERTEX
  8
0
 10
47.628513
 20
578.972046
  0
VERTEX
  8
0
 10
48.126953
 20
578.609497
  0
VERTEX
  8
0
 10
48.918125
 20
578.089355
  0
VERTEX
  8
0
 10
49.477497
 20
577.761536
  0
VERTEX
  8
0
 10
50.064842
 20
577.451111
  0
VERTEX
  8
0
 10
50.681953
 20
577.160217
  0
VERTEX
  8
0
 10
51.330856
 20
576.890747
  0
VERTEX
  8
0
 10
52.013828
 20
576.644897
  0
VERTEX
  8
0
 10
52.731640
 20
576.424255
  0
VERTEX
  8
0
 10
53.482029
 20
576.229126
  0
VERTEX
  8
0
 10
54.261562
 20
576.059509
  0
VERTEX
  8
0
 10
55.066875
 20
575.915161
  0
VERTEX
  8
0
 10
55.894608
 20
575.796021
  0
VERTEX
  8
0
 10
56.741405
 20
575.702026
  0
VERTEX
  8
0
 10
57.603905
 20
575.633118
  0
VERTEX
  8
0
 10
58.919685
 20
575.576477
  0
VERTEX
  8
0
 10
59.806717
 20
575.569763
  0
VERTEX
  8
0
 10
60.697186
 20
575.587646
  0
VERTEX
  8
0
 10
61.586716
 20
575.629822
  0
VERTEX
  8
0
 10
62.910000
 20
575.737854
  0
VERTEX
  8
0
 10
63.778435
 20
575.839539
  0
VERTEX
  8
0
 10
64.630783
 20
575.964294
  0
VERTEX
  8
0
 10
65.462967
 20
576.111877
  0
VERTEX
  8
0
 10
66.270386
 20
576.282104
  0
VERTEX
  8
0
 10
67.048752
 20
576.474548
  0
VERTEX
  8
0
 10
67.794846
 20
576.688904
  0
VERTEX
  8
0
 10
68.509140
 20
576.924500
  0
VERTEX
  8
0
 10
69.193359
 20
577.180786
  0
VERTEX
  8
0
 10
69.848824
 20
577.457092
  0
VERTEX
  8
0
 10
70.477341
 20
577.752869
  0
VERTEX
  8
0
 10
71.080467
 20
578.067322
  0
VERTEX
  8
0
 10
71.940857
 20
578.572815
  0
VERTEX
  8
0
 10
72.487183
 20
578.931396
  0
VERTEX
  8
0
 10
73.270157
 20
579.500793
  0
VERTEX
  8
0
 10
73.772110
 20
579.904236
  0
VERTEX
  8
0
 10
74.262184
 20
580.330383
  0
VERTEX
  8
0
 10
74.744064
 20
580.782715
  0
VERTEX
  8
0
 10
75.221481
 20
581.264343
  0
VERTEX
  8
0
 10
75.697968
 20
581.778870
  0
VERTEX
  8
0
 10
76.419220
 20
582.619141
  0
VERTEX
  8
0
 10
76.909607
 20
583.229736
  0
VERTEX
  8
0
 10
77.667580
 20
584.228821
  0
VERTEX
  8
0
 10
78.447891
 20
585.324463
  0
VERTEX
  8
0
 10
78.974449
 20
586.103760
  0
VERTEX
  8
0
 10
79.501640
 20
586.918823
  0
VERTEX
  8
0
 10
80.025856
 20
587.766602
  0
VERTEX
  8
0
 10
80.543198
 20
588.644531
  0
VERTEX
  8
0
 10
81.049995
 20
589.549255
  0
VERTEX
  8
0
 10
81.542496
 20
590.478027
  0
VERTEX
  8
0
 10
82.017029
 20
591.428162
  0
VERTEX
  8
0
 10
82.472496
 20
592.398376
  0
VERTEX
  8
0
 10
82.910156
 20
593.388733
  0
VERTEX
  8
0
 10
83.331329
 20
594.399780
  0
VERTEX
  8
0
 10
83.737419
 20
595.431763
  0
VERTEX
  8
0
 10
84.510155
 20
597.560547
  0
VERTEX
  8
0
 10
85.239372
 20
599.777954
  0
VERTEX
  8
0
 10
85.936325
 20
602.085327
  0
VERTEX
  8
0
 10
86.613121
 20
604.468506
  0
VERTEX
  8
0
 10
88.648048
 20
611.856689
  0
VERTEX
  8
0
 10
89.363983
 20
614.315613
  0
VERTEX
  8
0
 10
90.099686
 20
616.700378
  0
VERTEX
  8
0
 10
90.849609
 20
618.956299
  0
VERTEX
  8
0
 10
91.607964
 20
621.028687
  0
VERTEX
  8
0
 10
91.988510
 20
621.978943
  0
VERTEX
  8
0
 10
92.370781
 20
622.868835
  0
VERTEX
  8
0
 10
92.756874
 20
623.701965
  0
VERTEX
  8
0
 10
93.149292
 20
624.482727
  0
VERTEX
  8
0
 10
93.754845
 20
625.565063
  0
VERTEX
  8
0
 10
94.173279
 20
626.233582
  0
VERTEX
  8
0
 10
94.606323
 20
626.864685
  0
VERTEX
  8
0
 10
95.056328
 20
627.462463
  0
VERTEX
  8
0
 10
95.525703
 20
628.031494
  0
VERTEX
  8
0
 10
96.015701
 20
628.575012
  0
VERTEX
  8
0
 10
96.522964
 20
629.093750
  0
VERTEX
  8
0
 10
97.043121
 20
629.587402
  0
VERTEX
  8
0
 10
97.837807
 20
630.280823
  0
VERTEX
  8
0
 10
98.370857
 20
630.711487
  0
VERTEX
  8
0
 10
99.164375
 20
631.309509
  0
VERTEX
  8
0
 10
100.433670
 20
632.177185
  0
VERTEX
  8
0
 10
102.818275
 20
633.676392
  0
VERTEX
  8
0
 10
103.357109
 20
634.059692
  0
VERTEX
  8
0
 10
103.687416
 20
634.324219
  0
VERTEX
  8
0
 10
104.138199
 20
634.747070
  0
VERTEX
  8
0
 10
104.408905
 20
635.059937
  0
VERTEX
  8
0
 10
104.535782
 20
635.229736
  0
VERTEX
  8
0
 10
104.772339
 20
635.604126
  0
VERTEX
  8
0
 10
104.882339
 20
635.811401
  0
VERTEX
  8
0
 10
105.086014
 20
636.273560
  0
VERTEX
  8
0
 10
105.179916
 20
636.531372
  0
VERTEX
  8
0
 10
105.352264
 20
637.107727
  0
VERTEX
  8
0
 10
105.504372
 20
637.774780
  0
VERTEX
  8
0
 10
105.696251
 20
638.970825
  0
VERTEX
  8
0
 10
105.801094
 20
639.911011
  0
VERTEX
  8
0
 10
105.888748
 20
640.955383
  0
VERTEX
  8
0
 10
106.019920
 20
643.293396
  0
VERTEX
  8
0
 10
106.117416
 20
646.521484
  0
VERTEX
  8
0
 10
106.170387
 20
650.518738
  0
VERTEX
  8
0
 10
106.186562
 20
655.008118
  0
VERTEX
  8
0
 10
106.167183
 20
661.190002
  0
VERTEX
  8
0
 10
121.349373
 20
663.852112
  0
VERTEX
  8
0
 10
121.308670
 20
654.320435
  0
VERTEX
  8
0
 10
121.254761
 20
649.225037
  0
VERTEX
  8
0
 10
121.155540
 20
645.012878
  0
VERTEX
  8
0
 10
121.094528
 20
643.420471
  0
VERTEX
  8
0
 10
120.998199
 20
641.550049
  0
VERTEX
  8
0
 10
120.909447
 20
640.240234
  0
VERTEX
  8
0
 10
120.772339
 20
638.664673
  0
VERTEX
  8
0
 10
120.605385
 20
637.196777
  0
VERTEX
  8
0
 10
120.403824
 20
635.817505
  0
VERTEX
  8
0
 10
120.164139
 20
634.509644
  0
VERTEX
  8
0
 10
119.884369
 20
633.256104
  0
VERTEX
  8
0
 10
119.552887
 20
632.004700
  0
VERTEX
  8
0
 10
119.152969
 20
630.745117
  0
VERTEX
  8
0
 10
118.768356
 20
629.721802
  0
VERTEX
  8
0
 10
118.322968
 20
628.702576
  0
VERTEX
  8
0
 10
117.817574
 20
627.711548
  0
VERTEX
  8
0
 10
117.378510
 20
626.955627
  0
VERTEX
  8
0
 10
116.763359
 20
626.019836
  0
VERTEX
  8
0
 10
116.086876
 20
625.118652
  0
VERTEX
  8
0
 10
115.386322
 20
624.288757
  0
VERTEX
  8
0
 10
114.671478
 20
623.525818
  0
VERTEX
  8
0
 10
113.932892
 20
622.807068
  0
VERTEX
  8
0
 10
112.987968
 20
621.970215
  0
VERTEX
  8
0
 10
112.010307
 20
621.183350
  0
VERTEX
  8
0
 10
111.035622
 20
620.465820
  0
VERTEX
  8
0
 10
110.255386
 20
619.932739
  0
VERTEX
  8
0
 10
109.264526
 20
619.302429
  0
VERTEX
  8
0
 10
106.924294
 20
617.932861
  0
VERTEX
  8
0
 10
106.652657
 20
617.728638
  0
VERTEX
  8
0
 10
106.658669
 20
617.669739
  0
VERTEX
  8
0
 10
106.538277
 20
617.462952
  0
VERTEX
  8
0
 10
106.423668
 20
617.247192
  0
VERTEX
  8
0
 10
106.032806
 20
616.411865
  0
VERTEX
  8
0
 10
105.862183
 20
616.004211
  0
VERTEX
  8
0
 10
105.564140
 20
615.240112
  0
VERTEX
  8
0
 10
105.045151
 20
613.801453
  0
VERTEX
  8
0
 10
104.457184
 20
612.006470
  0
VERTEX
  8
0
 10
104.029922
 20
610.581848
  0
VERTEX
  8
0
 10
103.554688
 20
608.880127
  0
VERTEX
  8
0
 10
101.929214
 20
602.634338
  0
VERTEX
  8
0
 10
101.039375
 20
599.370544
  0
VERTEX
  8
0
 10
100.448433
 20
597.351563
  0
VERTEX
  8
0
 10
100.031563
 20
596.002808
  0
VERTEX
  8
0
 10
99.601402
 20
594.669617
  0
VERTEX
  8
0
 10
98.944374
 20
592.737854
  0
VERTEX
  8
0
 10
98.260307
 20
590.849426
  0
VERTEX
  8
0
 10
97.555466
 20
589.024902
  0
VERTEX
  8
0
 10
96.838432
 20
587.289490
  0
VERTEX
  8
0
 10
96.339844
 20
586.152588
  0
VERTEX
  8
0
 10
95.834297
 20
585.055237
  0
VERTEX
  8
0
 10
95.087418
 20
583.529114
  0
VERTEX
  8
0
 10
94.322578
 20
582.073364
  0
VERTEX
  8
0
 10
93.549767
 20
580.698730
  0
VERTEX
  8
0
 10
92.771797
 20
579.399414
  0
VERTEX
  8
0
 10
91.989532
 20
578.166077
  0
VERTEX
  8
0
 10
91.192261
 20
576.973755
  0
VERTEX
  8
0
 10
90.362892
 20
575.802551
  0
VERTEX
  8
0
 10
89.492577
 20
574.649414
  0
VERTEX
  8
0
 10
88.575699
 20
573.515564
  0
VERTEX
  8
0
 10
87.624840
 20
572.422852
  0
VERTEX
  8
0
 10
86.932579
 20
571.676331
  0
VERTEX
  8
0
 10
86.215622
 20
570.942505
  0
VERTEX
  8
0
 10
85.148666
 20
569.918884
  0
VERTEX
  8
0
 10
84.023666
 20
568.919128
  0
VERTEX
  8
0
 10
82.862656
 20
567.963257
  0
VERTEX
  8
0
 10
81.689064
 20
567.070129
  0
VERTEX
  8
0
 10
80.831169
 20
566.460388
  0
VERTEX
  8
0
 10
79.628983
 20
565.665955
  0
VERTEX
  8
0
 10
78.727890
 20
565.115295
  0
VERTEX
  8
0
 10
77.473671
 20
564.412537
  0
VERTEX
  8
0
 10
76.522339
 20
563.927856
  0
VERTEX
  8
0
 10
75.208748
 20
563.325134
  0
VERTEX
  8
0
 10
74.210861
 20
562.916443
  0
VERTEX
  8
0
 10
72.839371
 20
562.420593
  0
VERTEX
  8
0
 10
71.833908
 20
562.103088
  0
VERTEX
  8
0
 10
70.822807
 20
561.819275
  0
VERTEX
  8
0
 10
69.400627
 20
561.476685
  0
VERTEX
  8
0
 10
68.370308
 20
561.264771
  0
VERTEX
  8
0
 10
66.935547
 20
561.014587
  0
VERTEX
  8
0
 10
65.491875
 20
560.811523
  0
VERTEX
  8
0
 10
64.070465
 20
560.654663
  0
VERTEX
  8
0
 10
62.675625
 20
560.539490
  0
VERTEX
  8
0
 10
61.302422
 20
560.462341
  0
VERTEX
  8
0
 10
59.938202
 20
560.423035
  0
VERTEX
  8
0
 10
58.578201
 20
560.422180
  0
VERTEX
  8
0
 10
57.201015
 20
560.460876
  0
VERTEX
  8
0
 10
55.426327
 20
560.570068
  0
VERTEX
  8
0
 10
54.029610
 20
560.701599
  0
VERTEX
  8
0
 10
52.597420
 20
560.880066
  0
VERTEX
  8
0
 10
51.124451
 20
561.119507
  0
VERTEX
  8
0
 10
50.022812
 20
561.340088
  0
VERTEX
  8
0
 10
48.478748
 20
561.716003
  0
VERTEX
  8
0
 10
47.304920
 20
562.058105
  0
VERTEX
  8
0
 10
45.693516
 20
562.613953
  0
VERTEX
  8
0
 10
44.524921
 20
563.084595
  0
VERTEX
  8
0
 10
43.408047
 20
563.586853
  0
VERTEX
  8
0
 10
42.314686
 20
564.128174
  0
VERTEX
  8
0
 10
41.244843
 20
564.705078
  0
VERTEX
  8
0
 10
40.198906
 20
565.315125
  0
VERTEX
  8
0
 10
39.150154
 20
565.973755
  0
VERTEX
  8
0
 10
37.721794
 20
566.953735
  0
VERTEX
  8
0
 10
36.742420
 20
567.687500
  0
VERTEX
  8
0
 10
35.821407
 20
568.429077
  0
VERTEX
  8
0
 10
34.943436
 20
569.190308
  0
VERTEX
  8
0
 10
34.116405
 20
569.961060
  0
VERTEX
  8
0
 10
33.319298
 20
570.756775
  0
VERTEX
  8
0
 10
32.289608
 20
571.870544
  0
VERTEX
  8
0
 10
31.597967
 20
572.675781
  0
VERTEX
  8
0
 10
30.712500
 20
573.775513
  0
VERTEX
  8
0
 10
29.887264
 20
574.870117
  0
VERTEX
  8
0
 10
28.908749
 20
576.244995
  0
VERTEX
  8
0
 10
28.190155
 20
577.307251
  0
VERTEX
  8
0
 10
27.300781
 20
578.687256
  0
VERTEX
  8
0
 10
26.442421
 20
580.088745
  0
VERTEX
  8
0
 10
25.603828
 20
581.520142
  0
VERTEX
  8
0
 10
24.749765
 20
583.044739
  0
VERTEX
  8
0
 10
24.056015
 20
584.361694
  0
VERTEX
  8
0
 10
23.339296
 20
585.815552
  0
VERTEX
  8
0
 10
22.819687
 20
586.932251
  0
VERTEX
  8
0
 10
22.037266
 20
588.712708
  0
VERTEX
  8
0
 10
21.461250
 20
590.095520
  0
VERTEX
  8
0
 10
20.269609
 20
593.122314
  0
VERTEX
  8
0
 10
18.681797
 20
597.387146
  0
VERTEX
  8
0
 10
16.807812
 20
602.627747
  0
VERTEX
  8
0
 10
14.736172
 20
608.600952
  0
VERTEX
  8
0
 10
13.765156
 20
611.476135
  0
VERTEX
  8
0
 10
12.997890
 20
613.807861
  0
VERTEX
  8
0
 10
11.447109
 20
618.745361
  0
VERTEX
  8
0
 10
11.248984
 20
619.312805
  0
VERTEX
  8
0
 10
11.176171
 20
619.492065
  0
VERTEX
  8
0
 10
11.066015
 20
619.715820
  0
VERTEX
  8
0
 10
10.971171
 20
619.875610
  0
VERTEX
  8
0
 10
10.733438
 20
620.226135
  0
VERTEX
  8
0
 10
10.326484
 20
620.771912
  0
VERTEX
  8
0
 10
9.791797
 20
621.445862
  0
VERTEX
  8
0
 10
9.031172
 20
622.358032
  0
VERTEX
  8
0
 10
6.491250
 20
625.229126
  0
VERTEX
  8
0
 10
5.669453
 20
626.254822
  0
VERTEX
  8
0
 10
4.982344
 20
627.222229
  0
VERTEX
  8
0
 10
4.182656
 20
628.539124
  0
VERTEX
  8
0
 10
3.460938
 20
629.988586
  0
VERTEX
  8
0
 10
2.849062
 20
631.509460
  0
VERTEX
  8
0
 10
2.343984
 20
633.093567
  0
VERTEX
  8
0
 10
1.946797
 20
634.709412
  0
VERTEX
  8
0
 10
1.694609
 20
636.039429
  0
VERTEX
  8
0
 10
1.452344
 20
637.757202
  0
VERTEX
  8
0
 10
1.308828
 20
639.173584
  0
VERTEX
  8
0
 10
1.199062
 20
640.655823
  0
VERTEX
  8
0
 10
1.095234
 20
642.760986
  0
VERTEX
  8
0
 10
1.028516
 20
645.095398
  0
VERTEX
  8
0
 10
1.001953
 20
646.986389
  0
VERTEX
  8
0
 10
1.000000
 20
649.569458
  0
VERTEX
  8
0
 10
1.024844
 20
651.555298
  0
VERTEX
  8
0
 10
1.073906
 20
653.521057
  0
VERTEX
  8
0
 10
1.148281
 20
655.432861
  0
VERTEX
  8
0
 10
1.245781
 20
657.276917
  0
VERTEX
  8
0
 10
1.402500
 20
659.624023
  0
VERTEX
  8
0
 10
1.833047
 20
664.813049
  0
VERTEX
  8
0
 10
16.897968
 20
662.963196
  0
SEQEND
  8
0
  0
POLYLINE
  8
0
  0
VERTEX
  8
0
 10
113.343277
 20
662.448364
  0
VERTEX
  8
0
 10
113.308907
 20
654.379822
  0
VERTEX
  8
0
 10
113.255775
 20
649.361694
  0
VERTEX
  8
0
 10
113.159142
 20
645.260071
  0
VERTEX
  8
0
 10
113.102501
 20
643.779419
  0
VERTEX
  8
0
 10
113.012108
 20
642.026367
  0
VERTEX
  8
0
 10
112.932892
 20
640.857300
  0
VERTEX
  8
0
 10
112.811638
 20
639.463562
  0
VERTEX
  8
0
 10
112.671013
 20
638.227356
  0
VERTEX
  8
0
 10
112.508904
 20
637.117493
  0
VERTEX
  8
0
 10
112.322891
 20
636.102966
  0
VERTEX
  8
0
 10
112.110703
 20
635.152344
  0
VERTEX
  8
0
 10
111.869141
 20
634.240479
  0
VERTEX
  8
0
 10
111.591095
 20
633.364624
  0
VERTEX
  8
0
 10
111.353745
 20
632.732971
  0
VERTEX
  8
0
 10
111.087730
 20
632.124512
  0
VERTEX
  8
0
 10
110.789917
 20
631.540283
  0
VERTEX
  8
0
 10
110.571953
 20
631.164978
  0
VERTEX
  8
0
 10
110.215622
 20
630.622864
  0
VERTEX
  8
0
 10
109.826324
 20
630.104370
  0
VERTEX
  8
0
 10
109.406876
 20
629.607483
  0
VERTEX
  8
0
 10
108.959923
 20
629.130432
  0
VERTEX
  8
0
 10
108.488121
 20
628.671326
  0
VERTEX
  8
0
 10
107.824997
 20
628.084045
  0
VERTEX
  8
0
 10
107.128983
 20
627.523865
  0
VERTEX
  8
0
 10
106.406250
 20
626.991882
  0
VERTEX
  8
0
 10
105.850311
 20
626.612000
  0
VERTEX
  8
0
 10
105.095779
 20
626.132019
  0
VERTEX
  8
0
 10
102.667343
 20
624.710815
  0
VERTEX
  8
0
 10
101.993752
 20
624.257813
  0
VERTEX
  8
0
 10
101.531952
 20
623.894226
  0
VERTEX
  8
0
 10
101.247108
 20
623.637573
  0
VERTEX
  8
0
 10
100.979294
 20
623.369507
  0
VERTEX
  8
0
 10
100.726875
 20
623.090088
  0
VERTEX
  8
0
 10
100.373985
 20
622.649597
  0
VERTEX
  8
0
 10
100.153435
 20
622.341919
  0
VERTEX
  8
0
 10
99.840935
 20
621.859741
  0
VERTEX
  8
0
 10
99.545937
 20
621.352905
  0
VERTEX
  8
0
 10
99.263046
 20
620.820374
  0
VERTEX
  8
0
 10
98.716873
 20
619.652710
  0
VERTEX
  8
0
 10
98.444923
 20
619.003052
  0
VERTEX
  8
0
 10
98.073830
 20
618.051758
  0
VERTEX
  8
0
 10
97.479530
 20
616.404541
  0
VERTEX
  8
0
 10
96.823357
 20
614.401062
  0
VERTEX
  8
0
 10
96.345230
 20
612.807007
  0
VERTEX
  8
0
 10
95.830467
 20
610.963562
  0
VERTEX
  8
0
 10
94.198746
 20
604.694031
  0
VERTEX
  8
0
 10
93.340622
 20
601.546570
  0
VERTEX
  8
0
 10
92.787422
 20
599.656372
  0
VERTEX
  8
0
 10
92.402885
 20
598.412231
  0
VERTEX
  8
0
 10
92.007187
 20
597.185913
  0
VERTEX
  8
0
 10
91.395859
 20
595.388611
  0
VERTEX
  8
0
 10
90.767342
 20
593.653503
  0
VERTEX
  8
0
 10
90.126328
 20
591.994141
  0
VERTEX
  8
0
 10
89.477501
 20
590.423889
  0
VERTEX
  8
0
 10
89.042885
 20
589.432861
  0
VERTEX
  8
0
 10
88.607498
 20
588.487732
  0
VERTEX
  8
0
 10
87.952110
 20
587.148743
  0
VERTEX
  8
0
 10
87.293282
 20
585.894653
  0
VERTEX
  8
0
 10
86.629921
 20
584.714661
  0
VERTEX
  8
0
 10
85.961014
 20
583.597473
  0
VERTEX
  8
0
 10
85.285385
 20
582.532410
  0
VERTEX
  8
0
 10
84.601639
 20
581.509705
  0
VERTEX
  8
0
 10
83.904297
 20
580.525085
  0
VERTEX
  8
0
 10
83.187653
 20
579.575439
  0
VERTEX
  8
0
 10
82.445778
 20
578.658020
  0
VERTEX
  8
0
 10
81.672890
 20
577.769836
  0
VERTEX
  8
0
 10
81.137421
 20
577.192383
  0
VERTEX
  8
0
 10
80.583908
 20
576.625854
  0
VERTEX
  8
0
 10
79.720314
 20
575.797424
  0
VERTEX
  8
0
 10
78.822342
 20
574.999268
  0
VERTEX
  8
0
 10
77.896172
 20
574.236755
  0
VERTEX
  8
0
 10
76.948044
 20
573.515320
  0
VERTEX
  8
0
 10
76.307030
 20
573.059692
  0
VERTEX
  8
0
 10
75.336563
 20
572.418274
  0
VERTEX
  8
0
 10
74.685783
 20
572.020630
  0
VERTEX
  8
0
 10
73.701248
 20
571.469055
  0
VERTEX
  8
0
 10
73.036873
 20
571.130554
  0
VERTEX
  8
0
 10
72.023361
 20
570.665405
  0
VERTEX
  8
0
 10
71.333748
 20
570.383118
  0
VERTEX
  8
0
 10
70.274063
 20
569.999817
  0
VERTEX
  8
0
 10
69.547966
 20
569.770691
  0
VERTEX
  8
0
 10
68.804138
 20
569.561890
  0
VERTEX
  8
0
 10
67.657501
 20
569.285583
  0
VERTEX
  8
0
 10
66.877266
 20
569.125122
  0
VERTEX
  8
0
 10
65.691017
 20
568.918274
  0
VERTEX
  8
0
 10
64.495781
 20
568.750244
  0
VERTEX
  8
0
 10
63.302422
 20
568.618530
  0
VERTEX
  8
0
 10
62.122028
 20
568.520996
  0
VERTEX
  8
0
 10
60.962654
 20
568.455933
  0
VERTEX
  8
0
 10
59.820313
 20
568.422974
  0
VERTEX
  8
0
 10
58.688202
 20
568.422241
  0
VERTEX
  8
0
 10
57.559219
 20
568.453979
  0
VERTEX
  8
0
 10
56.047264
 20
568.546997
  0
VERTEX
  8
0
 10
54.899139
 20
568.655151
  0
VERTEX
  8
0
 10
53.734219
 20
568.800232
  0
VERTEX
  8
0
 10
52.552109
 20
568.992432
  0
VERTEX
  8
0
 10
51.754841
 20
569.152100
  0
VERTEX
  8
0
 10
50.545311
 20
569.446533
  0
VERTEX
  8
0
 10
49.730000
 20
569.684143
  0
VERTEX
  8
0
 10
48.493904
 20
570.110535
  0
VERTEX
  8
0
 10
47.661247
 20
570.445923
  0
VERTEX
  8
0
 10
46.824532
 20
570.822205
  0
VERTEX
  8
0
 10
45.988983
 20
571.235840
  0
VERTEX
  8
0
 10
45.159920
 20
571.682861
  0
VERTEX
  8
0
 10
44.342499
 20
572.159729
  0
VERTEX
  8
0
 10
43.542187
 20
572.662231
  0
VERTEX
  8
0
 10
42.385235
 20
573.456055
  0
VERTEX
  8
0
 10
41.650780
 20
574.006287
  0
VERTEX
  8
0
 10
40.951954
 20
574.568970
  0
VERTEX
  8
0
 10
40.292656
 20
575.140625
  0
VERTEX
  8
0
 10
39.671169
 20
575.719727
  0
VERTEX
  8
0
 10
39.084530
 20
576.305481
  0
VERTEX
  8
0
 10
38.262966
 20
577.193970
  0
VERTEX
  8
0
 10
37.749687
 20
577.791626
  0
VERTEX
  8
0
 10
37.023750
 20
578.693359
  0
VERTEX
  8
0
 10
36.341248
 20
579.598511
  0
VERTEX
  8
0
 10
35.481873
 20
580.806152
  0
VERTEX
  8
0
 10
34.866405
 20
581.715820
  0
VERTEX
  8
0
 10
34.074921
 20
582.943970
  0
VERTEX
  8
0
 10
33.305313
 20
584.200439
  0
VERTEX
  8
0
 10
32.545547
 20
585.497253
  0
VERTEX
  8
0
 10
31.779764
 20
586.864441
  0
VERTEX
  8
0
 10
31.184061
 20
587.995361
  0
VERTEX
  8
0
 10
30.554453
 20
589.272339
  0
VERTEX
  8
0
 10
30.109140
 20
590.229309
  0
VERTEX
  8
0
 10
29.392578
 20
591.860168
  0
VERTEX
  8
0
 10
28.876406
 20
593.099304
  0
VERTEX
  8
0
 10
27.740780
 20
595.983521
  0
VERTEX
  8
0
 10
26.197187
 20
600.129822
  0
VERTEX
  8
0
 10
24.353594
 20
605.285400
  0
VERTEX
  8
0
 10
22.305155
 20
611.191528
  0
VERTEX
  8
0
 10
21.354530
 20
614.006409
  0
VERTEX
  8
0
 10
20.614061
 20
616.256836
  0
VERTEX
  8
0
 10
19.041561
 20
621.263367
  0
VERTEX
  8
0
 10
18.736563
 20
622.136597
  0
VERTEX
  8
0
 10
18.480860
 20
622.767029
  0
VERTEX
  8
0
 10
18.105000
 20
623.530396
  0
VERTEX
  8
0
 10
17.727499
 20
624.166321
  0
VERTEX
  8
0
 10
17.253672
 20
624.864929
  0
VERTEX
  8
0
 10
16.668282
 20
625.650146
  0
VERTEX
  8
0
 10
15.998437
 20
626.494446
  0
VERTEX
  8
0
 10
15.100390
 20
627.571228
  0
VERTEX
  8
0
 10
12.612500
 20
630.383667
  0
VERTEX
  8
0
 10
12.057422
 20
631.076416
  0
VERTEX
  8
0
 10
11.670938
 20
631.620544
  0
VERTEX
  8
0
 10
11.194609
 20
632.404968
  0
VERTEX
  8
0
 10
10.764062
 20
633.269653
  0
VERTEX
  8
0
 10
10.381249
 20
634.221130
  0
VERTEX
  8
0
 10
10.048124
 20
635.265930
  0
VERTEX
  8
0
 10
9.766719
 20
636.410461
  0
VERTEX
  8
0
 10
9.589766
 20
637.343811
  0
VERTEX
  8
0
 10
9.395781
 20
638.719543
  0
VERTEX
  8
0
 10
9.278984
 20
639.872253
  0
VERTEX
  8
0
 10
9.184531
 20
641.148438
  0
VERTEX
  8
0
 10
9.089609
 20
643.072388
  0
VERTEX
  8
0
 10
9.026953
 20
645.265869
  0
VERTEX
  8
0
 10
9.001875
 20
647.045776
  0
VERTEX
  8
0
 10
9.000000
 20
649.522278
  0
VERTEX
  8
0
 10
9.023594
 20
651.405273
  0
VERTEX
  8
0
 10
9.070078
 20
653.265747
  0
VERTEX
  8
0
 10
9.140156
 20
655.066101
  0
VERTEX
  8
0
 10
9.231796
 20
656.799133
  0
VERTEX
  8
0
 10
9.380468
 20
659.026733
  0
VERTEX
  8
0
 10
9.779531
 20
663.837280
  0
SEQEND
  8
0
  0
POLYLINE
  8
0
  0
VERTEX
  8
0
 10
93.401093
 20
607.560669
  0
VERTEX
  8
0
 10
92.563042
 20
611.401062
  0
VERTEX
  8
0
 10
90.437340
 20
608.700439
  0
VERTEX
  8
0
 10
93.402344
 20
607.490601
  0
SEQEND
  8
0
  0
POLYLINE
  8
0
  0
VERTEX
  8
0
 10
59.261326
 20
572.929932
  0
VERTEX
  8
0
 10
58.784687
 20
572.826416
  0
VERTEX
  8
0
 10
58.383904
 20
572.548401
  0
VERTEX
  8
0
 10
58.119999
 20
572.138184
  0
VERTEX
  8
0
 10
58.033279
 20
571.658264
  0
VERTEX
  8
0
 10
58.136719
 20
571.181641
  0
VERTEX
  8
0
 10
58.414764
 20
570.781006
  0
VERTEX
  8
0
 10
58.824997
 20
570.517090
  0
VERTEX
  8
0
 10
59.304920
 20
570.430298
  0
VERTEX
  8
0
 10
59.781563
 20
570.533752
  0
VERTEX
  8
0
 10
60.182262
 20
570.811768
  0
VERTEX
  8
0
 10
60.446171
 20
571.221924
  0
VERTEX
  8
0
 10
60.532967
 20
571.701843
  0
VERTEX
  8
0
 10
60.429451
 20
572.178528
  0
VERTEX
  8
0
 10
60.151405
 20
572.579285
  0
VERTEX
  8
0
 10
59.741249
 20
572.843140
  0
VERTEX
  8
0
 10
59.261326
 20
572.929932
  0
SEQEND
  8
0
  0
POLYLINE
  8
0
  0
VERTEX
  8
0
 10
136.831161
 20
2.270937
  0
VERTEX
  8
0
 10
149.434067
 20
1.611797
  0
VERTEX
  8
0
 10
154.307892
 20
1.390391
  0
VERTEX
  8
0
 10
157.856094
 20
1.251172
  0
VERTEX
  8
0
 10
162.418747
 20
1.110703
  0
VERTEX
  8
0
 10
165.758743
 20
1.041484
  0
VERTEX
  8
0
 10
169.091248
 20
1.004297
  0
VERTEX
  8
0
 10
172.472885
 20
1.000000
  0
VERTEX
  8
0
 10
177.156174
 20
1.046328
  0
VERTEX
  8
0
 10
180.872421
 20
1.121328
  0
VERTEX
  8
0
 10
186.136093
 20
1.278125
  0
VERTEX
  8
0
 10
190.270706
 20
1.442344
  0
VERTEX
  8
0
 10
194.523193
 20
1.650234
  0
VERTEX
  8
0
 10
198.855545
 20
1.904687
  0
VERTEX
  8
0
 10
203.229919
 20
2.209062
  0
VERTEX
  8
0
 10
207.612411
 20
2.566484
  0
VERTEX
  8
0
 10
210.544846
 20
2.836484
  0
VERTEX
  8
0
 10
213.502731
 20
3.133281
  0
VERTEX
  8
0
 10
216.500778
 20
3.458594
  0
VERTEX
  8
0
 10
219.553665
 20
3.813750
  0
VERTEX
  8
0
 10
222.676010
 20
4.200078
  0
VERTEX
  8
0
 10
225.882492
 20
4.619141
  0
VERTEX
  8
0
 10
229.187958
 20
5.072500
  0
VERTEX
  8
0
 10
234.362885
 20
5.819453
  0
VERTEX
  8
0
 10
239.806015
 20
6.643906
  0
VERTEX
  8
0
 10
245.474762
 20
7.531406
  0
VERTEX
  8
0
 10
259.314911
 20
9.762109
  0
VERTEX
  8
0
 10
275.573822
 20
12.389140
  0
VERTEX
  8
0
 10
289.843597
 20
14.656640
  0
VERTEX
  8
0
 10
304.125854
 20
16.907343
  0
VERTEX
  8
0
 10
297.713440
 20
22.554688
  0
VERTEX
  8
0
 10
292.464050
 20
27.153593
  0
VERTEX
  8
0
 10
288.420380
 20
30.662031
  0
VERTEX
  8
0
 10
284.764282
 20
33.787968
  0
VERTEX
  8
0
 10
281.415009
 20
36.595467
  0
VERTEX
  8
0
 10
278.251953
 20
39.184532
  0
VERTEX
  8
0
 10
275.155853
 20
41.654140
  0
VERTEX
  8
0
 10
272.055237
 20
44.059608
  0
VERTEX
  8
0
 10
270.188446
 20
45.471794
  0
VERTEX
  8
0
 10
268.315216
 20
46.859219
  0
VERTEX
  8
0
 10
265.176331
 20
49.113827
  0
VERTEX
  8
0
 10
262.037720
 20
51.276249
  0
VERTEX
  8
0
 10
259.026154
 20
53.265156
  0
VERTEX
  8
0
 10
256.294617
 20
54.983356
  0
VERTEX
  8
0
 10
254.853745
 20
55.844296
  0
VERTEX
  8
0
 10
253.993118
 20
56.336250
  0
VERTEX
  8
0
 10
253.208435
 20
56.765781
  0
VERTEX
  8
0
 10
252.155930
 20
57.305157
  0
VERTEX
  8
0
 10
251.228516
 20
57.735077
  0
VERTEX
  8
0
 10
250.399063
 20
58.074688
  0
VERTEX
  8
0
 10
249.639999
 20
58.342575
  0
VERTEX
  8
0
 10
248.924133
 20
58.557499
  0
VERTEX
  8
0
 10
248.226791
 20
58.730312
  0
VERTEX
  8
0
 10
247.761551
 20
58.821716
  0
VERTEX
  8
0
 10
247.048035
 20
58.921638
  0
VERTEX
  8
0
 10
246.552963
 20
58.962498
  0
VERTEX
  8
0
 10
246.035233
 20
58.982109
  0
VERTEX
  8
0
 10
245.488663
 20
58.979919
  0
VERTEX
  8
0
 10
244.601318
 20
58.934063
  0
VERTEX
  8
0
 10
243.956558
 20
58.874138
  0
VERTEX
  8
0
 10
242.904297
 20
58.735390
  0
VERTEX
  8
0
 10
242.144211
 20
58.606873
  0
VERTEX
  8
0
 10
241.335938
 20
58.447186
  0
VERTEX
  8
0
 10
240.478439
 20
58.253826
  0
VERTEX
  8
0
 10
239.570465
 20
58.024685
  0
VERTEX
  8
0
 10
238.610931
 20
57.757420
  0
VERTEX
  8
0
 10
237.072495
 20
57.280231
  0
VERTEX
  8
0
 10
235.979050
 20
56.908592
  0
VERTEX
  8
0
 10
234.830460
 20
56.495701
  0
VERTEX
  8
0
 10
233.001953
 20
55.804295
  0
VERTEX
  8
0
 10
230.362411
 20
54.760391
  0
VERTEX
  8
0
 10
220.176407
 20
50.642578
  0
VERTEX
  8
0
 10
212.401474
 20
47.567497
  0
VERTEX
  8
0
 10
208.310547
 20
45.980782
  0
VERTEX
  8
0
 10
204.589066
 20
44.563747
  0
VERTEX
  8
0
 10
201.327026
 20
43.351639
  0
VERTEX
  8
0
 10
198.610001
 20
42.377499
  0
VERTEX
  8
0
 10
196.876953
 20
41.789452
  0
VERTEX
  8
0
 10
195.808899
 20
41.456638
  0
VERTEX
  8
0
 10
194.896637
 20
41.207733
  0
VERTEX
  8
0
 10
194.101639
 20
41.034763
  0
VERTEX
  8
0
 10
193.385071
 20
40.929375
  0
VERTEX
  8
0
 10
192.931870
 20
40.892891
  0
VERTEX
  8
0
 10
192.485077
 20
40.880466
  0
VERTEX
  8
0
 10
191.816010
 20
40.904217
  0
VERTEX
  8
0
 10
191.370392
 20
40.947342
  0
VERTEX
  8
0
 10
190.924911
 20
41.011719
  0
VERTEX
  8
0
 10
190.034531
 20
41.201485
  0
VERTEX
  8
0
 10
189.144058
 20
41.468906
  0
VERTEX
  8
0
 10
188.251633
 20
41.810547
  0
VERTEX
  8
0
 10
187.797180
 20
42.015545
  0
VERTEX
  8
0
 10
187.327957
 20
42.252499
  0
VERTEX
  8
0
 10
186.836563
 20
42.528515
  0
VERTEX
  8
0
 10
186.315933
 20
42.850700
  0
VERTEX
  8
0
 10
185.464066
 20
43.436172
  0
VERTEX
  8
0
 10
184.505234
 20
44.165703
  0
VERTEX
  8
0
 10
183.415390
 20
45.063126
  0
VERTEX
  8
0
 10
182.191559
 20
46.130466
  0
VERTEX
  8
0
 10
180.403824
 20
47.763748
  0
VERTEX
  8
0
 10
178.988907
 20
49.102188
  0
VERTEX
  8
0
 10
177.066086
 20
50.973282
  0
VERTEX
  8
0
 10
175.639526
 20
52.397419
  0
VERTEX
  8
0
 10
174.256561
 20
53.806404
  0
VERTEX
  8
0
 10
167.935471
 20
60.376640
  0
VERTEX
  8
0
 10
166.374130
 20
61.945934
  0
VERTEX
  8
0
 10
164.860550
 20
63.430000
  0
VERTEX
  8
0
 10
161.662659
 20
66.475624
  0
VERTEX
  8
0
 10
154.538986
 20
73.117111
  0
VERTEX
  8
0
 10
153.670776
 20
73.884766
  0
VERTEX
  8
0
 10
152.941483
 20
74.479683
  0
VERTEX
  8
0
 10
152.183823
 20
75.033669
  0
VERTEX
  8
0
 10
151.572723
 20
75.418045
  0
VERTEX
  8
0
 10
150.970703
 20
75.724998
  0
VERTEX
  8
0
 10
150.676865
 20
75.842262
  0
VERTEX
  8
0
 10
150.389221
 20
75.932030
  0
VERTEX
  8
0
 10
150.105469
 20
75.993980
  0
VERTEX
  8
0
 10
149.822815
 20
76.028435
  0
VERTEX
  8
0
 10
149.394379
 20
76.028748
  0
VERTEX
  8
0
 10
149.101486
 20
75.995079
  0
VERTEX
  8
0
 10
148.799377
 20
75.934761
  0
VERTEX
  8
0
 10
148.485077
 20
75.847656
  0
VERTEX
  8
0
 10
147.984680
 20
75.667656
  0
VERTEX
  8
0
 10
147.248199
 20
75.335938
  0
VERTEX
  8
0
 10
146.186951
 20
74.772339
  0
VERTEX
  8
0
 10
144.654297
 20
73.873672
  0
VERTEX
  8
0
 10
141.729599
 20
72.084610
  0
VERTEX
  8
0
 10
137.755386
 20
69.615311
  0
VERTEX
  8
0
 10
135.555695
 20
68.219292
  0
VERTEX
  8
0
 10
134.753662
 20
67.680702
  0
VERTEX
  8
0
 10
134.046875
 20
67.171562
  0
VERTEX
  8
0
 10
133.442886
 20
66.687263
  0
VERTEX
  8
0
 10
132.949142
 20
66.223434
  0
VERTEX
  8
0
 10
132.683899
 20
65.923126
  0
VERTEX
  8
0
 10
132.376709
 20
65.480232
  0
VERTEX
  8
0
 10
132.168274
 20
65.038902
  0
VERTEX
  8
0
 10
132.047180
 20
64.590622
  0
VERTEX
  8
0
 10
132.009369
 20
64.283592
  0
VERTEX
  8
0
 10
132.008514
 20
63.804451
  0
VERTEX
  8
0
 10
132.064758
 20
63.295391
  0
VERTEX
  8
0
 10
132.169449
 20
62.751404
  0
VERTEX
  8
0
 10
132.318512
 20
62.172733
  0
VERTEX
  8
0
 10
132.508041
 20
61.560154
  0
VERTEX
  8
0
 10
132.993591
 20
60.236248
  0
VERTEX
  8
0
 10
133.384445
 20
59.281406
  0
VERTEX
  8
0
 10
133.963821
 20
57.945702
  0
VERTEX
  8
0
 10
137.607803
 20
49.853748
  0
VERTEX
  8
0
 10
139.737106
 20
45.002968
  0
VERTEX
  8
0
 10
141.067261
 20
41.820782
  0
VERTEX
  8
0
 10
141.601013
 20
40.467812
  0
VERTEX
  8
0
 10
142.202103
 20
38.852032
  0
VERTEX
  8
0
 10
142.587418
 20
37.742657
  0
VERTEX
  8
0
 10
143.039139
 20
36.343201
  0
VERTEX
  8
0
 10
143.347336
 20
35.315468
  0
VERTEX
  8
0
 10
143.627808
 20
34.282032
  0
VERTEX
  8
0
 10
143.868271
 20
33.227501
  0
VERTEX
  8
0
 10
144.000229
 20
32.505001
  0
VERTEX
  8
0
 10
144.104996
 20
31.761484
  0
VERTEX
  8
0
 10
144.179062
 20
30.992344
  0
VERTEX
  8
0
 10
144.224365
 20
29.780624
  0
VERTEX
  8
0
 10
144.205460
 20
28.927422
  0
VERTEX
  8
0
 10
144.145782
 20
28.035936
  0
VERTEX
  8
0
 10
144.047028
 20
27.108046
  0
VERTEX
  8
0
 10
143.911331
 20
26.145702
  0
VERTEX
  8
0
 10
143.642426
 20
24.642187
  0
VERTEX
  8
0
 10
143.422577
 20
23.602812
  0
VERTEX
  8
0
 10
143.036713
 20
21.993202
  0
VERTEX
  8
0
 10
142.427582
 20
19.763515
  0
VERTEX
  8
0
 10
141.732269
 20
17.466875
  0
VERTEX
  8
0
 10
140.988205
 20
15.158750
  0
VERTEX
  8
0
 10
138.700623
 20
8.274062
  0
VERTEX
  8
0
 10
137.851013
 20
5.591328
  0
VERTEX
  8
0
 10
136.831161
 20
2.270937
  0
SEQEND
  8
0
  0
POLYLINE
  8
0
  0
VERTEX
  8
0
 10
141.506714
 20
60.780544
  0
VERTEX
  8
0
 10
151.765625
 20
64.736168
  0
SEQEND
  8
0
  0
POLYLINE
  8
0
  0
VERTEX
  8
0
 10
142.485077
 20
45.036404
  0
VERTEX
  8
0
 10
146.524521
 20
46.769295
  0
SEQEND
  8
0
  0
POLYLINE
  8
0
  0
VERTEX
  8
0
 10
162.384140
 20
55.401875
  0
VERTEX
  8
0
 10
166.704132
 20
57.534687
  0
SEQEND
  8
0
  0
POLYLINE
  8
0
  0
VERTEX
  8
0
 10
265.671021
 20
41.488983
  0
VERTEX
  8
0
 10
252.341721
 20
36.293438
  0
VERTEX
  8
0
 10
236.607498
 20
30.184765
  0
VERTEX
  8
0
 10
227.201874
 20
26.500546
  0
VERTEX
  8
0
 10
221.048828
 20
24.064766
  0
VERTEX
  8
0
 10
214.404678
 20
21.409922
  0
VERTEX
  8
0
 10
209.284836
 20
19.343281
  0
VERTEX
  8
0
 10
204.196945
 20
17.267109
  0
VERTEX
  8
0
 10
199.275543
 20
15.231172
  0
VERTEX
  8
0
 10
196.153275
 20
13.920625
  0
VERTEX
  8
0
 10
193.203201
 20
12.664141
  0
VERTEX
  8
0
 10
189.111710
 20
10.886328
  0
VERTEX
  8
0
 10
185.358505
 20
9.216953
  0
VERTEX
  8
0
 10
181.871170
 20
7.632578
  0
VERTEX
  8
0
 10
178.577179
 20
6.110312
  0
VERTEX
  8
0
 10
173.319763
 20
3.647578
  0
SEQEND
  8
0
  0
POLYLINE
  8
0
  0
VERTEX
  8
0
 10
216.734680
 20
14.153671
  0
VERTEX
  8
0
 10
214.648193
 20
9.937265
  0
VERTEX
  8
0
 10
221.466721
 20
10.183046
  0
VERTEX
  8
0
 10
216.863113
 20
14.691015
  0
SEQEND
  8
0
  0
POLYLINE
  8
0
  0
VERTEX
  8
0
 10
143.499130
 20
60.954842
  0
VERTEX
  8
0
 10
143.347733
 20
61.562031
  0
VERTEX
  8
0
 10
143.016174
 20
62.092655
  0
VERTEX
  8
0
 10
142.536789
 20
62.494843
  0
VERTEX
  8
0
 10
141.956635
 20
62.729294
  0
VERTEX
  8
0
 10
141.332413
 20
62.772888
  0
VERTEX
  8
0
 10
140.725235
 20
62.621563
  0
VERTEX
  8
0
 10
140.194611
 20
62.289921
  0
VERTEX
  8
0
 10
139.792419
 20
61.810547
  0
VERTEX
  8
0
 10
139.558044
 20
61.230469
  0
VERTEX
  8
0
 10
139.514374
 20
60.606247
  0
VERTEX
  8
0
 10
139.665695
 20
59.999062
  0
VERTEX
  8
0
 10
139.997345
 20
59.468437
  0
VERTEX
  8
0
 10
140.476639
 20
59.066170
  0
VERTEX
  8
0
 10
141.056793
 20
58.831795
  0
VERTEX
  8
0
 10
141.681091
 20
58.788124
  0
VERTEX
  8
0
 10
142.288193
 20
58.939529
  0
VERTEX
  8
0
 10
142.818832
 20
59.271091
  0
VERTEX
  8
0
 10
143.221085
 20
59.750469
  0
VERTEX
  8
0
 10
143.455460
 20
60.330624
  0
VERTEX
  8
0
 10
143.499130
 20
60.954842
  0
SEQEND
  8
0
  0
POLYLINE
  8
0
  0
VERTEX
  8
0
 10
153.758041
 20
64.910469
  0
VERTEX
  8
0
 10
153.606644
 20
65.517654
  0
VERTEX
  8
0
 10
153.275070
 20
66.048279
  0
VERTEX
  8
0
 10
152.795776
 20
66.450546
  0
VERTEX
  8
0
 10
152.215546
 20
66.684921
  0
VERTEX
  8
0
 10
151.591324
 20
66.728592
  0
VERTEX
  8
0
 10
150.984131
 20
66.577187
  0
VERTEX
  8
0
 10
150.453506
 20
66.245621
  0
VERTEX
  8
0
 10
150.051331
 20
65.766251
  0
VERTEX
  8
0
 10
149.816879
 20
65.186089
  0
VERTEX
  8
0
 10
149.773285
 20
64.561874
  0
VERTEX
  8
0
 10
149.924606
 20
63.954685
  0
VERTEX
  8
0
 10
150.256165
 20
63.424061
  0
VERTEX
  8
0
 10
150.735550
 20
63.021873
  0
VERTEX
  8
0
 10
151.315704
 20
62.787422
  0
VERTEX
  8
0
 10
151.939911
 20
62.743828
  0
VERTEX
  8
0
 10
152.547104
 20
62.895153
  0
VERTEX
  8
0
 10
153.077805
 20
63.226795
  0
VERTEX
  8
0
 10
153.479996
 20
63.706169
  0
VERTEX
  8
0
 10
153.714371
 20
64.286247
  0
VERTEX
  8
0
 10
153.758041
 20
64.910469
  0
SEQEND
  8
0
  0
POLYLINE
  8
0
  0
VERTEX
  8
0
 10
143.481247
 20
45.123592
  0
VERTEX
  8
0
 10
143.372025
 20
45.498123
  0
VERTEX
  8
0
 10
143.127884
 20
45.802498
  0
VERTEX
  8
0
 10
142.785782
 20
45.990154
  0
VERTEX
  8
0
 10
142.397888
 20
46.032654
  0
VERTEX
  8
0
 10
142.023285
 20
45.923435
  0
VERTEX
  8
0
 10
141.719055
 20
45.679218
  0
VERTEX
  8
0
 10
141.531326
 20
45.337109
  0
VERTEX
  8
0
 10
141.488907
 20
44.949295
  0
VERTEX
  8
0
 10
141.598038
 20
44.574688
  0
VERTEX
  8
0
 10
141.842270
 20
44.270390
  0
VERTEX
  8
0
 10
142.184296
 20
44.082657
  0
VERTEX
  8
0
 10
142.572266
 20
44.040234
  0
VERTEX
  8
0
 10
142.946793
 20
44.149376
  0
VERTEX
  8
0
 10
143.251083
 20
44.393669
  0
VERTEX
  8
0
 10
143.438751
 20
44.735779
  0
VERTEX
  8
0
 10
143.481247
 20
45.123592
  0
SEQEND
  8
0
  0
POLYLINE
  8
0
  0
VERTEX
  8
0
 10
147.520706
 20
46.856483
  0
VERTEX
  8
0
 10
147.411484
 20
47.231014
  0
VERTEX
  8
0
 10
147.167267
 20
47.535389
  0
VERTEX
  8
0
 10
146.825150
 20
47.723045
  0
VERTEX
  8
0
 10
146.437347
 20
47.765469
  0
VERTEX
  8
0
 10
146.062729
 20
47.656326
  0
VERTEX
  8
0
 10
145.758438
 20
47.412109
  0
VERTEX
  8
0
 10
145.570786
 20
47.070000
  0
VERTEX
  8
0
 10
145.528275
 20
46.682186
  0
VERTEX
  8
0
 10
145.637421
 20
46.307575
  0
VERTEX
  8
0
 10
145.881714
 20
46.003281
  0
VERTEX
  8
0
 10
146.223740
 20
45.815544
  0
VERTEX
  8
0
 10
146.611633
 20
45.773125
  0
VERTEX
  8
0
 10
146.986252
 20
45.882263
  0
VERTEX
  8
0
 10
147.290543
 20
46.126484
  0
VERTEX
  8
0
 10
147.478195
 20
46.468594
  0
VERTEX
  8
0
 10
147.520706
 20
46.856483
  0
SEQEND
  8
0
  0
POLYLINE
  8
0
  0
VERTEX
  8
0
 10
163.380310
 20
55.489059
  0
VERTEX
  8
0
 10
163.271088
 20
55.863594
  0
VERTEX
  8
0
 10
163.026871
 20
56.167969
  0
VERTEX
  8
0
 10
162.684769
 20
56.355625
  0
VERTEX
  8
0
 10
162.296951
 20
56.398125
  0
VERTEX
  8
0
 10
161.922333
 20
56.288906
  0
VERTEX
  8
0
 10
161.618042
 20
56.044685
  0
VERTEX
  8
0
 10
161.430389
 20
55.702576
  0
VERTEX
  8
0
 10
161.387894
 20
55.314766
  0
VERTEX
  8
0
 10
161.497101
 20
54.940155
  0
VERTEX
  8
0
 10
161.741318
 20
54.635857
  0
VERTEX
  8
0
 10
162.083359
 20
54.448124
  0
VERTEX
  8
0
 10
162.471252
 20
54.405701
  0
VERTEX
  8
0
 10
162.845856
 20
54.514843
  0
VERTEX
  8
0
 10
163.150146
 20
54.759140
  0
VERTEX
  8
0
 10
163.337738
 20
55.101250
  0
VERTEX
  8
0
 10
163.380310
 20
55.489059
  0
SEQEND
  8
0
  0
POLYLINE
  8
0
  0
VERTEX
  8
0
 10
167.700302
 20
57.621796
  0
VERTEX
  8
0
 10
167.591171
 20
57.996407
  0
VERTEX
  8
0
 10
167.346954
 20
58.300701
  0
VERTEX
  8
0
 10
167.004837
 20
58.488438
  0
VERTEX
  8
0
 10
166.616943
 20
58.530857
  0
VERTEX
  8
0
 10
166.242416
 20
58.421719
  0
VERTEX
  8
0
 10
165.938049
 20
58.177422
  0
VERTEX
  8
0
 10
165.750458
 20
57.835312
  0
VERTEX
  8
0
 10
165.707886
 20
57.447498
  0
VERTEX
  8
0
 10
165.817184
 20
57.072968
  0
VERTEX
  8
0
 10
166.061325
 20
56.768593
  0
VERTEX
  8
0
 10
166.403427
 20
56.580936
  0
VERTEX
  8
0
 10
166.791245
 20
56.538437
  0
VERTEX
  8
0
 10
167.165939
 20
56.647655
  0
VERTEX
  8
0
 10
167.470154
 20
56.891872
  0
VERTEX
  8
0
 10
167.657883
 20
57.233982
  0
VERTEX
  8
0
 10
167.700302
 20
57.621796
  0
SEQEND
  8
0
  0
POLYLINE
  8
0
  0
VERTEX
  8
0
 10
104.738747
 20
763.542725
  0
VERTEX
  8
0
 10
105.042885
 20
756.532227
  0
VERTEX
  8
0
 10
105.234604
 20
751.012817
  0
VERTEX
  8
0
 10
105.311874
 20
746.994690
  0
VERTEX
  8
0
 10
105.316406
 20
745.163635
  0
VERTEX
  8
0
 10
105.294136
 20
743.472961
  0
VERTEX
  8
0
 10
105.243904
 20
741.926331
  0
VERTEX
  8
0
 10
105.166794
 20
740.515686
  0
VERTEX
  8
0
 10
105.063751
 20
739.232178
  0
VERTEX
  8
0
 10
104.935936
 20
738.067200
  0
VERTEX
  8
0
 10
104.784294
 20
737.011780
  0
VERTEX
  8
0
 10
104.610001
 20
736.057434
  0
VERTEX
  8
0
 10
104.413979
 20
735.195190
  0
VERTEX
  8
0
 10
104.197418
 20
734.416443
  0
VERTEX
  8
0
 10
104.081718
 20
734.055603
  0
VERTEX
  8
0
 10
103.835854
 20
733.385742
  0
VERTEX
  8
0
 10
103.569527
 20
732.778259
  0
VERTEX
  8
0
 10
103.281326
 20
732.225159
  0
VERTEX
  8
0
 10
103.128593
 20
731.966492
  0
VERTEX
  8
0
 10
102.805000
 20
731.479919
  0
VERTEX
  8
0
 10
102.455933
 20
731.027893
  0
VERTEX
  8
0
 10
102.079994
 20
730.602173
  0
VERTEX
  8
0
 10
101.675858
 20
730.195007
  0
VERTEX
  8
0
 10
101.242027
 20
729.798279
  0
VERTEX
  8
0
 10
100.283669
 20
729.009460
  0
VERTEX
  8
0
 10
98.962029
 20
728.023315
  0
VERTEX
  8
0
 10
96.000938
 20
725.915894
  0
VERTEX
  8
0
 10
95.270233
 20
725.358032
  0
VERTEX
  8
0
 10
94.585075
 20
724.776001
  0
VERTEX
  8
0
 10
93.944214
 20
724.141052
  0
VERTEX
  8
0
 10
93.540779
 20
723.674194
  0
VERTEX
  8
0
 10
93.346169
 20
723.424438
  0
VERTEX
  8
0
 10
92.970543
 20
722.887146
  0
VERTEX
  8
0
 10
92.789528
 20
722.597473
  0
VERTEX
  8
0
 10
92.440857
 20
721.970581
  0
VERTEX
  8
0
 10
92.272964
 20
721.631653
  0
VERTEX
  8
0
 10
91.949295
 20
720.902405
  0
VERTEX
  8
0
 10
91.489761
 20
719.686768
  0
VERTEX
  8
0
 10
91.054916
 20
718.334839
  0
VERTEX
  8
0
 10
90.637657
 20
716.857422
  0
VERTEX
  8
0
 10
90.365623
 20
715.808167
  0
VERTEX
  8
0
 10
89.961563
 20
714.145813
  0
VERTEX
  8
0
 10
88.411247
 20
707.337769
  0
VERTEX
  8
0
 10
87.603355
 20
704.014282
  0
VERTEX
  8
0
 10
87.067421
 20
701.994995
  0
VERTEX
  8
0
 10
86.684448
 20
700.646912
  0
VERTEX
  8
0
 10
86.279137
 20
699.298279
  0
VERTEX
  8
0
 10
85.849998
 20
697.948486
  0
VERTEX
  8
0
 10
85.158745
 20
695.920471
  0
VERTEX
  8
0
 10
84.664215
 20
694.565369
  0
VERTEX
  8
0
 10
83.868126
 20
692.526855
  0
VERTEX
  8
0
 10
83.299294
 20
691.163025
  0
VERTEX
  8
0
 10
82.385468
 20
689.108948
  0
VERTEX
  8
0
 10
81.736168
 20
687.737854
  0
VERTEX
  8
0
 10
81.058121
 20
686.374573
  0
VERTEX
  8
0
 10
80.354370
 20
685.027771
  0
VERTEX
  8
0
 10
79.628281
 20
683.705994
  0
VERTEX
  8
0
 10
78.882813
 20
682.417847
  0
VERTEX
  8
0
 10
77.735313
 20
680.567383
  0
VERTEX
  8
0
 10
76.955391
 20
679.400818
  0
VERTEX
  8
0
 10
76.167267
 20
678.297974
  0
VERTEX
  8
0
 10
75.771011
 20
677.772827
  0
VERTEX
  8
0
 10
74.974533
 20
676.774963
  0
VERTEX
  8
0
 10
74.574219
 20
676.301392
  0
VERTEX
  8
0
 10
73.769218
 20
675.402649
  0
VERTEX
  8
0
 10
72.958122
 20
674.565552
  0
VERTEX
  8
0
 10
72.140465
 20
673.786560
  0
VERTEX
  8
0
 10
71.315933
 20
673.062073
  0
VERTEX
  8
0
 10
70.484215
 20
672.388733
  0
VERTEX
  8
0
 10
69.644997
 20
671.762878
  0
VERTEX
  8
0
 10
68.797813
 20
671.180908
  0
VERTEX
  8
0
 10
67.941719
 20
670.639832
  0
VERTEX
  8
0
 10
67.072807
 20
670.138123
  0
VERTEX
  8
0
 10
66.186562
 20
669.674744
  0
VERTEX
  8
0
 10
65.278358
 20
669.248718
  0
VERTEX
  8
0
 10
64.343826
 20
668.858948
  0
VERTEX
  8
0
 10
63.378281
 20
668.504333
  0
VERTEX
  8
0
 10
62.377186
 20
668.183960
  0
VERTEX
  8
0
 10
61.861950
 20
668.036255
  0
VERTEX
  8
0
 10
60.799141
 20
667.765137
  0
VERTEX
  8
0
 10
59.689766
 20
667.525696
  0
VERTEX
  8
0
 10
58.536560
 20
667.318115
  0
VERTEX
  8
0
 10
57.349216
 20
667.143982
  0
VERTEX
  8
0
 10
56.137890
 20
667.004761
  0
VERTEX
  8
0
 10
54.912498
 20
666.902161
  0
VERTEX
  8
0
 10
53.683125
 20
666.837708
  0
VERTEX
  8
0
 10
52.459843
 20
666.812927
  0
VERTEX
  8
0
 10
51.252499
 20
666.829468
  0
VERTEX
  8
0
 10
50.071327
 20
666.888794
  0
VERTEX
  8
0
 10
49.493671
 20
666.935059
  0
VERTEX
  8
0
 10
48.368202
 20
667.060974
  0
VERTEX
  8
0
 10
47.280937
 20
667.229980
  0
VERTEX
  8
0
 10
46.228905
 20
667.439880
  0
VERTEX
  8
0
 10
45.209061
 20
667.688477
  0
VERTEX
  8
0
 10
44.218513
 20
667.973633
  0
VERTEX
  8
0
 10
43.254219
 20
668.293213
  0
VERTEX
  8
0
 10
42.313358
 20
668.644958
  0
VERTEX
  8
0
 10
41.392811
 20
669.026794
  0
VERTEX
  8
0
 10
40.043827
 20
669.651306
  0
VERTEX
  8
0
 10
38.722969
 20
670.343994
  0
VERTEX
  8
0
 10
37.851952
 20
670.855347
  0
VERTEX
  8
0
 10
36.984219
 20
671.415405
  0
VERTEX
  8
0
 10
36.116016
 20
672.031555
  0
VERTEX
  8
0
 10
35.243671
 20
672.711731
  0
VERTEX
  8
0
 10
34.363438
 20
673.463257
  0
VERTEX
  8
0
 10
33.471561
 20
674.293945
  0
VERTEX
  8
0
 10
33.020077
 20
674.741333
  0
VERTEX
  8
0
 10
32.564297
 20
675.211365
  0
VERTEX
  8
0
 10
31.639765
 20
676.220398
  0
VERTEX
  8
0
 10
30.703360
 20
677.314209
  0
VERTEX
  8
0
 10
29.762108
 20
678.483337
  0
VERTEX
  8
0
 10
28.823280
 20
679.718445
  0
VERTEX
  8
0
 10
27.893984
 20
681.009827
  0
VERTEX
  8
0
 10
26.981405
 20
682.348083
  0
VERTEX
  8
0
 10
26.533592
 20
683.031860
  0
VERTEX
  8
0
 10
25.659452
 20
684.422546
  0
VERTEX
  8
0
 10
24.819921
 20
685.836487
  0
VERTEX
  8
0
 10
24.415312
 20
686.549133
  0
VERTEX
  8
0
 10
23.639374
 20
687.981018
  0
VERTEX
  8
0
 10
22.554688
 20
690.140869
  0
VERTEX
  8
0
 10
21.556953
 20
692.308594
  0
VERTEX
  8
0
 10
20.637264
 20
694.476990
  0
VERTEX
  8
0
 10
19.786562
 20
696.638977
  0
VERTEX
  8
0
 10
18.995859
 20
698.787231
  0
VERTEX
  8
0
 10
18.019688
 20
701.616943
  0
VERTEX
  8
0
 10
17.116093
 20
704.383484
  0
VERTEX
  8
0
 10
15.258828
 20
710.227966
  0
VERTEX
  8
0
 10
14.668124
 20
712.015747
  0
VERTEX
  8
0
 10
14.083750
 20
713.705383
  0
VERTEX
  8
0
 10
13.509375
 20
715.290527
  0
VERTEX
  8
0
 10
12.765937
 20
717.231140
  0
VERTEX
  8
0
 10
12.057187
 20
718.960938
  0
VERTEX
  8
0
 10
11.392500
 20
720.465759
  0
VERTEX
  8
0
 10
10.768281
 20
721.752380
  0
VERTEX
  8
0
 10
10.308984
 20
722.602539
  0
VERTEX
  8
0
 10
9.842031
 20
723.378662
  0
VERTEX
  8
0
 10
9.519766
 20
723.865784
  0
VERTEX
  8
0
 10
9.183984
 20
724.336243
  0
VERTEX
  8
0
 10
8.645937
 20
725.024963
  0
VERTEX
  8
0
 10
8.059453
 20
725.710083
  0
VERTEX
  8
0
 10
6.139453
 20
727.806152
  0
VERTEX
  8
0
 10
5.499141
 20
728.533813
  0
VERTEX
  8
0
 10
4.689297
 20
729.539307
  0
VERTEX
  8
0
 10
4.129766
 20
730.330505
  0
VERTEX
  8
0
 10
3.780859
 20
730.884460
  0
VERTEX
  8
0
 10
3.451562
 20
731.465210
  0
VERTEX
  8
0
 10
2.995000
 20
732.398132
  0
VERTEX
  8
0
 10
2.583906
 20
733.419983
  0
VERTEX
  8
0
 10
2.219219
 20
734.547974
  0
VERTEX
  8
0
 10
2.002344
 20
735.367004
  0
VERTEX
  8
0
 10
1.716563
 20
736.698242
  0
VERTEX
  8
0
 10
1.552500
 20
737.649231
  0
VERTEX
  8
0
 10
1.346250
 20
739.161987
  0
VERTEX
  8
0
 10
1.235312
 20
740.223022
  0
VERTEX
  8
0
 10
1.108828
 20
741.884521
  0
VERTEX
  8
0
 10
1.030469
 20
743.619263
  0
VERTEX
  8
0
 10
0.999844
 20
745.414856
  0
VERTEX
  8
0
 10
1.012266
 20
747.249023
  0
VERTEX
  8
0
 10
1.060156
 20
749.093811
  0
VERTEX
  8
0
 10
1.135859
 20
750.921082
  0
VERTEX
  8
0
 10
1.231719
 20
752.702637
  0
VERTEX
  8
0
 10
1.377500
 20
754.958191
  0
VERTEX
  8
0
 10
1.568984
 20
757.527222
  0
VERTEX
  8
0
 10
1.804609
 20
760.322571
  0
VERTEX
  8
0
 10
2.083750
 20
763.375061
  0
VERTEX
  8
0
 10
11.088750
 20
761.296143
  0
VERTEX
  8
0
 10
22.344921
 20
758.697388
  0
VERTEX
  8
0
 10
31.349844
 20
756.618469
  0
VERTEX
  8
0
 10
42.606014
 20
754.019775
  0
VERTEX
  8
0
 10
42.258514
 20
752.937195
  0
VERTEX
  8
0
 10
42.025467
 20
752.109497
  0
VERTEX
  8
0
 10
41.829609
 20
751.302185
  0
VERTEX
  8
0
 10
41.410625
 20
749.416443
  0
VERTEX
  8
0
 10
41.168358
 20
748.443787
  0
VERTEX
  8
0
 10
40.892109
 20
747.520081
  0
VERTEX
  8
0
 10
40.644531
 20
746.832153
  0
VERTEX
  8
0
 10
40.443279
 20
746.349670
  0
VERTEX
  8
0
 10
40.228592
 20
745.898254
  0
VERTEX
  8
0
 10
40.000313
 20
745.480042
  0
VERTEX
  8
0
 10
39.758904
 20
745.097351
  0
VERTEX
  8
0
 10
39.508202
 20
744.750305
  0
VERTEX
  8
0
 10
39.254765
 20
744.438354
  0
VERTEX
  8
0
 10
38.923748
 20
744.075500
  0
VERTEX
  8
0
 10
38.614685
 20
743.771790
  0
VERTEX
  8
0
 10
38.279610
 20
743.471863
  0
VERTEX
  8
0
 10
38.041561
 20
743.284973
  0
VERTEX
  8
0
 10
37.802029
 20
743.130676
  0
VERTEX
  8
0
 10
37.534451
 20
742.995361
  0
VERTEX
  8
0
 10
37.120937
 20
742.832397
  0
VERTEX
  8
0
 10
36.715157
 20
742.700317
  0
VERTEX
  8
0
 10
35.757263
 20
742.453674
  0
VERTEX
  8
0
 10
34.965702
 20
742.306946
  0
VERTEX
  8
0
 10
34.007500
 20
742.189270
  0
VERTEX
  8
0
 10
33.159687
 20
742.122070
  0
VERTEX
  8
0
 10
30.938984
 20
741.995239
  0
VERTEX
  8
0
 10
29.858124
 20
741.890869
  0
VERTEX
  8
0
 10
29.237343
 20
741.800842
  0
VERTEX
  8
0
 10
28.786484
 20
741.716675
  0
VERTEX
  8
0
 10
28.226171
 20
741.580505
  0
VERTEX
  8
0
 10
27.851015
 20
741.459290
  0
VERTEX
  8
0
 10
27.526718
 20
741.320740
  0
VERTEX
  8
0
 10
27.343515
 20
741.218506
  0
VERTEX
  8
0
 10
27.186249
 20
741.108704
  0
VERTEX
  8
0
 10
26.995234
 20
740.931152
  0
VERTEX
  8
0
 10
26.815781
 20
740.672974
  0
VERTEX
  8
0
 10
26.709999
 20
740.394287
  0
VERTEX
  8
0
 10
26.680624
 20
740.248657
  0
VERTEX
  8
0
 10
26.661484
 20
740.023804
  0
VERTEX
  8
0
 10
26.678827
 20
739.714355
  0
VERTEX
  8
0
 10
26.766327
 20
739.316284
  0
VERTEX
  8
0
 10
26.886250
 20
738.992798
  0
VERTEX
  8
0
 10
27.047890
 20
738.668091
  0
VERTEX
  8
0
 10
27.252655
 20
738.344360
  0
VERTEX
  8
0
 10
27.439140
 20
738.101990
  0
VERTEX
  8
0
 10
27.738594
 20
737.779358
  0
VERTEX
  8
0
 10
28.006016
 20
737.537415
  0
VERTEX
  8
0
 10
28.314219
 20
737.295471
  0
VERTEX
  8
0
 10
28.665155
 20
737.053589
  0
VERTEX
  8
0
 10
29.054531
 20
736.813049
  0
VERTEX
  8
0
 10
29.623203
 20
736.497498
  0
VERTEX
  8
0
 10
30.235312
 20
736.191223
  0
VERTEX
  8
0
 10
30.876875
 20
735.898254
  0
VERTEX
  8
0
 10
31.542734
 20
735.621094
  0
VERTEX
  8
0
 10
32.076797
 20
735.421753
  0
VERTEX
  8
0
 10
32.659763
 20
735.227844
  0
VERTEX
  8
0
 10
33.308983
 20
735.037415
  0
VERTEX
  8
0
 10
34.041641
 20
734.848633
  0
VERTEX
  8
0
 10
34.875000
 20
734.659607
  0
VERTEX
  8
0
 10
36.494061
 20
734.346680
  0
VERTEX
  8
0
 10
38.349453
 20
734.051880
  0
VERTEX
  8
0
 10
40.377968
 20
733.793335
  0
VERTEX
  8
0
 10
42.521328
 20
733.588989
  0
VERTEX
  8
0
 10
44.326405
 20
733.469360
  0
VERTEX
  8
0
 10
46.755779
 20
733.373352
  0
VERTEX
  8
0
 10
48.883514
 20
733.338257
  0
VERTEX
  8
0
 10
51.212811
 20
733.339355
  0
VERTEX
  8
0
 10
53.711094
 20
733.378784
  0
VERTEX
  8
0
 10
56.278671
 20
733.461853
  0
VERTEX
  8
0
 10
58.812969
 20
733.593811
  0
VERTEX
  8
0
 10
61.211483
 20
733.779846
  0
VERTEX
  8
0
 10
62.868202
 20
733.956482
  0
VERTEX
  8
0
 10
64.399376
 20
734.158875
  0
VERTEX
  8
0
 10
66.260620
 20
734.455444
  0
VERTEX
  8
0
 10
68.707809
 20
734.920715
  0
VERTEX
  8
0
 10
72.015625
 20
735.623718
  0
VERTEX
  8
0
 10
74.253517
 20
736.146240
  0
VERTEX
  8
0
 10
75.216873
 20
736.397583
  0
VERTEX
  8
0
 10
75.872734
 20
736.590942
  0
VERTEX
  8
0
 10
76.456329
 20
736.790710
  0
VERTEX
  8
0
 10
76.995155
 20
737.009216
  0
VERTEX
  8
0
 10
77.515549
 20
737.258118
  0
VERTEX
  8
0
 10
78.020386
 20
737.536621
  0
VERTEX
  8
0
 10
78.488823
 20
737.831482
  0
VERTEX
  8
0
 10
78.898979
 20
738.128662
  0
VERTEX
  8
0
 10
79.229057
 20
738.414429
  0
VERTEX
  8
0
 10
79.463516
 20
738.679138
  0
VERTEX
  8
0
 10
79.582344
 20
738.867737
  0
VERTEX
  8
0
 10
79.659920
 20
739.052856
  0
VERTEX
  8
0
 10
79.703201
 20
739.239258
  0
VERTEX
  8
0
 10
79.719139
 20
739.431641
  0
VERTEX
  8
0
 10
79.709526
 20
739.704773
  0
VERTEX
  8
0
 10
79.672653
 20
739.994751
  0
VERTEX
  8
0
 10
79.610779
 20
740.288635
  0
VERTEX
  8
0
 10
79.526245
 20
740.572815
  0
VERTEX
  8
0
 10
79.421013
 20
740.833496
  0
VERTEX
  8
0
 10
79.329453
 20
741.006958
  0
VERTEX
  8
0
 10
79.225937
 20
741.161804
  0
VERTEX
  8
0
 10
79.109062
 20
741.300598
  0
VERTEX
  8
0
 10
78.828979
 20
741.539063
  0
VERTEX
  8
0
 10
78.603127
 20
741.676636
  0
VERTEX
  8
0
 10
78.407417
 20
741.771179
  0
VERTEX
  8
0
 10
78.094139
 20
741.884216
  0
VERTEX
  8
0
 10
77.807266
 20
741.958008
  0
VERTEX
  8
0
 10
77.464920
 20
742.021240
  0
VERTEX
  8
0
 10
77.057266
 20
742.072693
  0
VERTEX
  8
0
 10
76.212814
 20
742.132568
  0
VERTEX
  8
0
 10
73.980621
 20
742.233276
  0
VERTEX
  8
0
 10
72.657265
 20
742.326965
  0
VERTEX
  8
0
 10
71.822105
 20
742.409973
  0
VERTEX
  8
0
 10
70.982498
 20
742.513794
  0
VERTEX
  8
0
 10
69.639061
 20
742.732727
  0
VERTEX
  8
0
 10
68.905937
 20
742.891174
  0
VERTEX
  8
0
 10
68.462341
 20
743.007935
  0
VERTEX
  8
0
 10
68.063202
 20
743.133606
  0
VERTEX
  8
0
 10
67.709610
 20
743.267456
  0
VERTEX
  8
0
 10
67.397186
 20
743.408997
  0
VERTEX
  8
0
 10
66.995781
 20
743.633240
  0
VERTEX
  8
0
 10
66.660934
 20
743.869568
  0
VERTEX
  8
0
 10
66.377190
 20
744.114990
  0
VERTEX
  8
0
 10
66.051170
 20
744.451233
  0
VERTEX
  8
0
 10
65.756248
 20
744.797424
  0
VERTEX
  8
0
 10
65.481247
 20
745.176636
  0
VERTEX
  8
0
 10
65.284370
 20
745.500061
  0
VERTEX
  8
0
 10
65.029762
 20
746.006775
  0
VERTEX
  8
0
 10
64.841324
 20
746.459229
  0
VERTEX
  8
0
 10
64.653511
 20
746.982544
  0
VERTEX
  8
0
 10
64.469528
 20
747.565857
  0
VERTEX
  8
0
 10
64.238121
 20
748.409302
  0
VERTEX
  8
0
 10
64.080780
 20
749.070679
  0
VERTEX
  8
0
 10
63.901093
 20
749.960815
  0
VERTEX
  8
0
 10
63.794296
 20
750.615051
  0
VERTEX
  8
0
 10
63.710857
 20
751.252380
  0
VERTEX
  8
0
 10
63.628513
 20
752.080994
  0
VERTEX
  8
0
 10
63.513123
 20
753.894409
  0
VERTEX
  8
0
 10
75.358047
 20
756.679382
  0
VERTEX
  8
0
 10
93.556015
 20
761.032715
  0
VERTEX
  8
0
 10
99.013985
 20
762.283508
  0
VERTEX
  8
0
 10
104.738747
 20
763.542725
  0
SEQEND
  8
0
  0
POLYLINE
  8
0
  0
VERTEX
  8
0
 10
84.149139
 20
744.210144
  0
VERTEX
  8
0
 10
92.235542
 20
744.381775
  0
SEQEND
  8
0
  0
POLYLINE
  8
0
  0
VERTEX
  8
0
 10
12.773749
 20
744.010071
  0
VERTEX
  8
0
 10
21.037811
 20
743.895508
  0
SEQEND
  8
0
  0
POLYLINE
  8
0
  0
VERTEX
  8
0
 10
97.242653
 20
763.301331
  0
VERTEX
  8
0
 10
97.522888
 20
756.411926
  0
VERTEX
  8
0
 10
97.671402
 20
752.082703
  0
VERTEX
  8
0
 10
97.762421
 20
748.148987
  0
VERTEX
  8
0
 10
97.779137
 20
746.379822
  0
VERTEX
  8
0
 10
97.772888
 20
744.768860
  0
VERTEX
  8
0
 10
97.741875
 20
743.330688
  0
VERTEX
  8
0
 10
97.688438
 20
742.058716
  0
VERTEX
  8
0
 10
97.616173
 20
740.941406
  0
VERTEX
  8
0
 10
97.528511
 20
739.966919
  0
VERTEX
  8
0
 10
97.428986
 20
739.123718
  0
VERTEX
  8
0
 10
97.264999
 20
738.079346
  0
VERTEX
  8
0
 10
97.094063
 20
737.264465
  0
VERTEX
  8
0
 10
96.927650
 20
736.639587
  0
VERTEX
  8
0
 10
96.765388
 20
736.165344
  0
VERTEX
  8
0
 10
96.588120
 20
735.802551
  0
VERTEX
  8
0
 10
96.375229
 20
735.511963
  0
VERTEX
  8
0
 10
96.106094
 20
735.254272
  0
VERTEX
  8
0
 10
95.623749
 20
734.894226
  0
VERTEX
  8
0
 10
93.890152
 20
733.695374
  0
VERTEX
  8
0
 10
92.876640
 20
732.974304
  0
VERTEX
  8
0
 10
91.166870
 20
731.696594
  0
VERTEX
  8
0
 10
90.255936
 20
730.972412
  0
VERTEX
  8
0
 10
89.639763
 20
730.450439
  0
VERTEX
  8
0
 10
89.023438
 20
729.890625
  0
VERTEX
  8
0
 10
88.412811
 20
729.287170
  0
VERTEX
  8
0
 10
87.813904
 20
728.634521
  0
VERTEX
  8
0
 10
87.520699
 20
728.287964
  0
VERTEX
  8
0
 10
86.950470
 20
727.550781
  0
VERTEX
  8
0
 10
86.674919
 20
727.158752
  0
VERTEX
  8
0
 10
86.146797
 20
726.324280
  0
VERTEX
  8
0
 10
85.895622
 20
725.880554
  0
VERTEX
  8
0
 10
85.421249
 20
724.938293
  0
VERTEX
  8
0
 10
84.981720
 20
723.928833
  0
VERTEX
  8
0
 10
84.773827
 20
723.401306
  0
VERTEX
  8
0
 10
84.379684
 20
722.305359
  0
VERTEX
  8
0
 10
84.011406
 20
721.161133
  0
VERTEX
  8
0
 10
83.499298
 20
719.370911
  0
VERTEX
  8
0
 10
83.179611
 20
718.139221
  0
VERTEX
  8
0
 10
82.723595
 20
716.253357
  0
VERTEX
  8
0
 10
81.274689
 20
709.851318
  0
VERTEX
  8
0
 10
80.513748
 20
706.643494
  0
VERTEX
  8
0
 10
79.849373
 20
704.096619
  0
VERTEX
  8
0
 10
79.491562
 20
702.833679
  0
VERTEX
  8
0
 10
79.114532
 20
701.577820
  0
VERTEX
  8
0
 10
78.510620
 20
699.705994
  0
VERTEX
  8
0
 10
78.080933
 20
698.465149
  0
VERTEX
  8
0
 10
77.628357
 20
697.229126
  0
VERTEX
  8
0
 10
77.151871
 20
695.997437
  0
VERTEX
  8
0
 10
76.389839
 20
694.156128
  0
VERTEX
  8
0
 10
75.848747
 20
692.932068
  0
VERTEX
  8
0
 10
75.280937
 20
691.711487
  0
VERTEX
  8
0
 10
74.689377
 20
690.500854
  0
VERTEX
  8
0
 10
74.078125
 20
689.308411
  0
VERTEX
  8
0
 10
73.451096
 20
688.142334
  0
VERTEX
  8
0
 10
72.489761
 20
686.460388
  0
VERTEX
  8
0
 10
71.840698
 20
685.395691
  0
VERTEX
  8
0
 10
71.189842
 20
684.385681
  0
VERTEX
  8
0
 10
70.218750
 20
682.991211
  0
VERTEX
  8
0
 10
69.262886
 20
681.758362
  0
VERTEX
  8
0
 10
68.634064
 20
681.022095
  0
VERTEX
  8
0
 10
68.010704
 20
680.348450
  0
VERTEX
  8
0
 10
67.391876
 20
679.732544
  0
VERTEX
  8
0
 10
66.776482
 20
679.169434
  0
VERTEX
  8
0
 10
66.163513
 20
678.654175
  0
VERTEX
  8
0
 10
65.552032
 20
678.181763
  0
VERTEX
  8
0
 10
64.940933
 20
677.747314
  0
VERTEX
  8
0
 10
64.022186
 20
677.156494
  0
VERTEX
  8
0
 10
63.402966
 20
676.799683
  0
VERTEX
  8
0
 10
62.772655
 20
676.471130
  0
VERTEX
  8
0
 10
62.126171
 20
676.169800
  0
VERTEX
  8
0
 10
61.458591
 20
675.894653
  0
VERTEX
  8
0
 10
60.764763
 20
675.644592
  0
VERTEX
  8
0
 10
60.039764
 20
675.418579
  0
VERTEX
  8
0
 10
59.278515
 20
675.215393
  0
VERTEX
  8
0
 10
58.476093
 20
675.033997
  0
VERTEX
  8
0
 10
57.629841
 20
674.873840
  0
VERTEX
  8
0
 10
56.294529
 20
674.675293
  0
VERTEX
  8
0
 10
55.374218
 20
674.572937
  0
VERTEX
  8
0
 10
54.440781
 20
674.496094
  0
VERTEX
  8
0
 10
53.503826
 20
674.446167
  0
VERTEX
  8
0
 10
52.572811
 20
674.424500
  0
VERTEX
  8
0
 10
51.657108
 20
674.432495
  0
VERTEX
  8
0
 10
50.766327
 20
674.471558
  0
VERTEX
  8
0
 10
49.909607
 20
674.542969
  0
VERTEX
  8
0
 10
49.090000
 20
674.646484
  0
VERTEX
  8
0
 10
48.304531
 20
674.780457
  0
VERTEX
  8
0
 10
47.549843
 20
674.943054
  0
VERTEX
  8
0
 10
46.822655
 20
675.132507
  0
VERTEX
  8
0
 10
46.119530
 20
675.347107
  0
VERTEX
  8
0
 10
45.437187
 20
675.584900
  0
VERTEX
  8
0
 10
44.445389
 20
675.981567
  0
VERTEX
  8
0
 10
43.481716
 20
676.420837
  0
VERTEX
  8
0
 10
42.848747
 20
676.739441
  0
VERTEX
  8
0
 10
41.903046
 20
677.274780
  0
VERTEX
  8
0
 10
41.268669
 20
677.681641
  0
VERTEX
  8
0
 10
40.626171
 20
678.137939
  0
VERTEX
  8
0
 10
39.971172
 20
678.651794
  0
VERTEX
  8
0
 10
39.299374
 20
679.231323
  0
VERTEX
  8
0
 10
38.606407
 20
679.884521
  0
VERTEX
  8
0
 10
37.887966
 20
680.619568
  0
VERTEX
  8
0
 10
37.141720
 20
681.441833
  0
VERTEX
  8
0
 10
36.372890
 20
682.346008
  0
VERTEX
  8
0
 10
35.588829
 20
683.323914
  0
VERTEX
  8
0
 10
34.399765
 20
684.911499
  0
VERTEX
  8
0
 10
33.609138
 20
686.038635
  0
VERTEX
  8
0
 10
32.828514
 20
687.211304
  0
VERTEX
  8
0
 10
31.692343
 20
689.038208
  0
VERTEX
  8
0
 10
30.619297
 20
690.922424
  0
VERTEX
  8
0
 10
29.946327
 20
692.200317
  0
VERTEX
  8
0
 10
29.305624
 20
693.493103
  0
VERTEX
  8
0
 10
28.695078
 20
694.799133
  0
VERTEX
  8
0
 10
27.831249
 20
696.779297
  0
VERTEX
  8
0
 10
27.023438
 20
698.779968
  0
VERTEX
  8
0
 10
26.264530
 20
700.795593
  0
VERTEX
  8
0
 10
25.547577
 20
702.820557
  0
VERTEX
  8
0
 10
24.865469
 20
704.846497
  0
VERTEX
  8
0
 10
22.348280
 20
712.710205
  0
VERTEX
  8
0
 10
21.737577
 20
714.552734
  0
VERTEX
  8
0
 10
21.124218
 20
716.322510
  0
VERTEX
  8
0
 10
20.510468
 20
718.011963
  0
VERTEX
  8
0
 10
19.696093
 20
720.127258
  0
VERTEX
  8
0
 10
18.892031
 20
722.069641
  0
VERTEX
  8
0
 10
18.299608
 20
723.402710
  0
VERTEX
  8
0
 10
17.717812
 20
724.624756
  0
VERTEX
  8
0
 10
17.141953
 20
725.744263
  0
VERTEX
  8
0
 10
16.566015
 20
726.772888
  0
VERTEX
  8
0
 10
16.178984
 20
727.413940
  0
VERTEX
  8
0
 10
15.787343
 20
728.023193
  0
VERTEX
  8
0
 10
15.389375
 20
728.604065
  0
VERTEX
  8
0
 10
14.983281
 20
729.160034
  0
VERTEX
  8
0
 10
14.143046
 20
730.209534
  0
VERTEX
  8
0
 10
13.288906
 20
731.181641
  0
VERTEX
  8
0
 10
11.349999
 20
733.288513
  0
VERTEX
  8
0
 10
10.889531
 20
733.835510
  0
VERTEX
  8
0
 10
10.620937
 20
734.187927
  0
VERTEX
  8
0
 10
10.268437
 20
734.720154
  0
VERTEX
  8
0
 10
9.967343
 20
735.283020
  0
VERTEX
  8
0
 10
9.707578
 20
735.906616
  0
VERTEX
  8
0
 10
9.478984
 20
736.620605
  0
VERTEX
  8
0
 10
9.271641
 20
737.454773
  0
VERTEX
  8
0
 10
9.081016
 20
738.424744
  0
VERTEX
  8
0
 10
8.911016
 20
739.525085
  0
VERTEX
  8
0
 10
8.766406
 20
740.748169
  0
VERTEX
  8
0
 10
8.651796
 20
742.086548
  0
VERTEX
  8
0
 10
8.571953
 20
743.532776
  0
VERTEX
  8
0
 10
8.540313
 20
744.553162
  0
VERTEX
  8
0
 10
8.526953
 20
746.158508
  0
VERTEX
  8
0
 10
8.549687
 20
747.827576
  0
VERTEX
  8
0
 10
8.602187
 20
749.528625
  0
VERTEX
  8
0
 10
8.677891
 20
751.229980
  0
VERTEX
  8
0
 10
8.803985
 20
753.444214
  0
VERTEX
  8
0
 10
9.092891
 20
757.468018
  0
VERTEX
  8
0
 10
9.558437
 20
762.758423
  0
SEQEND
  8
0
  0
POLYLINE
  8
0
  0
VERTEX
  8
0
 10
53.347343
 20
733.254700
  0
VERTEX
  8
0
 10
53.347343
 20
718.509583
  0
VERTEX
  8
0
 10
53.347343
 20
700.078247
  0
VERTEX
  8
0
 10
53.347343
 20
685.333191
  0
VERTEX
  8
0
 10
53.347343
 20
666.901855
  0
SEQEND
  8
0
  0
POLYLINE
  8
0
  0
VERTEX
  8
0
 10
21.176718
 20
724.857117
  0
VERTEX
  8
0
 10
21.925703
 20
722.031311
  0
VERTEX
  8
0
 10
22.467655
 20
720.076233
  0
VERTEX
  8
0
 10
23.020546
 20
718.221008
  0
VERTEX
  8
0
 10
23.473671
 20
716.832642
  0
VERTEX
  8
0
 10
24.174141
 20
714.867493
  0
VERTEX
  8
0
 10
26.044140
 20
709.857727
  0
VERTEX
  8
0
 10
28.567968
 20
702.794678
  0
VERTEX
  8
0
 10
29.527187
 20
700.218262
  0
VERTEX
  8
0
 10
30.093906
 20
698.795227
  0
VERTEX
  8
0
 10
30.679296
 20
697.419312
  0
VERTEX
  8
0
 10
31.286406
 20
696.082153
  0
VERTEX
  8
0
 10
32.080391
 20
694.446411
  0
VERTEX
  8
0
 10
32.918671
 20
692.827698
  0
VERTEX
  8
0
 10
33.625000
 20
691.533081
  0
VERTEX
  8
0
 10
34.365391
 20
690.247742
  0
VERTEX
  8
0
 10
35.141720
 20
688.985352
  0
VERTEX
  8
0
 10
35.956017
 20
687.759827
  0
VERTEX
  8
0
 10
36.810078
 20
686.584412
  0
VERTEX
  8
0
 10
37.705235
 20
685.462585
  0
VERTEX
  8
0
 10
38.168438
 20
684.919678
  0
VERTEX
  8
0
 10
38.882732
 20
684.125366
  0
VERTEX
  8
0
 10
39.372108
 20
683.607971
  0
VERTEX
  8
0
 10
40.126091
 20
682.847717
  0
VERTEX
  8
0
 10
41.436092
 20
681.617615
  0
VERTEX
  8
0
 10
42.530701
 20
680.678955
  0
VERTEX
  8
0
 10
43.092812
 20
680.231995
  0
VERTEX
  8
0
 10
43.664375
 20
679.803406
  0
VERTEX
  8
0
 10
44.244999
 20
679.395935
  0
VERTEX
  8
0
 10
44.834610
 20
679.012146
  0
VERTEX
  8
0
 10
45.735001
 20
678.486938
  0
VERTEX
  8
0
 10
46.653671
 20
678.028687
  0
VERTEX
  8
0
 10
47.276016
 20
677.760986
  0
VERTEX
  8
0
 10
47.905937
 20
677.523682
  0
VERTEX
  8
0
 10
48.864765
 20
677.224121
  0
VERTEX
  8
0
 10
49.839531
 20
676.992310
  0
VERTEX
  8
0
 10
50.829529
 20
676.828003
  0
VERTEX
  8
0
 10
51.497654
 20
676.755859
  0
VERTEX
  8
0
 10
52.172031
 20
676.713257
  0
VERTEX
  8
0
 10
52.851952
 20
676.699341
  0
VERTEX
  8
0
 10
53.536716
 20
676.713013
  0
VERTEX
  8
0
 10
54.225700
 20
676.753174
  0
VERTEX
  8
0
 10
54.918201
 20
676.818665
  0
VERTEX
  8
0
 10
55.613594
 20
676.908325
  0
VERTEX
  8
0
 10
56.311016
 20
677.021179
  0
VERTEX
  8
0
 10
57.009922
 20
677.155823
  0
VERTEX
  8
0
 10
57.709530
 20
677.311462
  0
VERTEX
  8
0
 10
59.104843
 20
677.682312
  0
VERTEX
  8
0
 10
59.794453
 20
677.897583
  0
VERTEX
  8
0
 10
60.474297
 20
678.132629
  0
VERTEX
  8
0
 10
61.141094
 20
678.387695
  0
VERTEX
  8
0
 10
61.791637
 20
678.662964
  0
VERTEX
  8
0
 10
62.422653
 20
678.958191
  0
VERTEX
  8
0
 10
63.030857
 20
679.273682
  0
VERTEX
  8
0
 10
63.893280
 20
679.784912
  0
VERTEX
  8
0
 10
64.694611
 20
680.342651
  0
VERTEX
  8
0
 10
65.445076
 20
680.948914
  0
VERTEX
  8
0
 10
65.922813
 20
681.380981
  0
VERTEX
  8
0
 10
66.386330
 20
681.836182
  0
VERTEX
  8
0
 10
66.839058
 20
682.315063
  0
VERTEX
  8
0
 10
67.284531
 20
682.818237
  0
VERTEX
  8
0
 10
68.166557
 20
683.899902
  0
VERTEX
  8
0
 10
69.046173
 20
685.079895
  0
VERTEX
  8
0
 10
69.911560
 20
686.344910
  0
VERTEX
  8
0
 10
70.747887
 20
687.680115
  0
VERTEX
  8
0
 10
71.347183
 20
688.718811
  0
VERTEX
  8
0
 10
71.915627
 20
689.782593
  0
VERTEX
  8
0
 10
72.449844
 20
690.865845
  0
VERTEX
  8
0
 10
72.951012
 20
691.964722
  0
VERTEX
  8
0
 10
73.570313
 20
693.447083
  0
VERTEX
  8
0
 10
74.136795
 20
694.940369
  0
VERTEX
  8
0
 10
74.654060
 20
696.434937
  0
VERTEX
  8
0
 10
75.241402
 20
698.288818
  0
VERTEX
  8
0
 10
76.512184
 20
702.535461
  0
VERTEX
  8
0
 10
77.873512
 20
706.785400
  0
VERTEX
  8
0
 10
78.380623
 20
708.521729
  0
VERTEX
  8
0
 10
78.674530
 20
709.635315
  0
VERTEX
  8
0
 10
79.055626
 20
711.189331
  0
VERTEX
  8
0
 10
80.529449
 20
717.524902
  0
VERTEX
  8
0
 10
81.731010
 20
722.326782
  0
SEQEND
  8
0
  0
POLYLINE
  8
0
  0
VERTEX
  8
0
 10
25.032578
 20
725.477417
  0
VERTEX
  8
0
 10
26.864296
 20
719.726013
  0
VERTEX
  8
0
 10
28.933672
 20
713.554688
  0
VERTEX
  8
0
 10
30.283125
 20
709.348083
  0
VERTEX
  8
0
 10
30.866796
 20
707.669739
  0
VERTEX
  8
0
 10
31.265156
 20
706.614502
  0
VERTEX
  8
0
 10
31.702656
 20
705.519836
  0
VERTEX
  8
0
 10
33.111248
 20
702.139465
  0
VERTEX
  8
0
 10
33.708904
 20
700.666565
  0
VERTEX
  8
0
 10
34.117031
 20
699.603516
  0
VERTEX
  8
0
 10
34.974453
 20
697.275085
  0
VERTEX
  8
0
 10
35.339218
 20
696.334229
  0
VERTEX
  8
0
 10
35.861404
 20
695.124573
  0
VERTEX
  8
0
 10
36.148438
 20
694.536804
  0
VERTEX
  8
0
 10
36.457657
 20
693.958984
  0
VERTEX
  8
0
 10
36.957188
 20
693.109619
  0
VERTEX
  8
0
 10
37.669922
 20
692.006409
  0
VERTEX
  8
0
 10
40.698906
 20
687.609619
  0
VERTEX
  8
0
 10
41.227345
 20
686.895325
  0
VERTEX
  8
0
 10
41.594532
 20
686.436096
  0
VERTEX
  8
0
 10
42.178673
 20
685.776855
  0
VERTEX
  8
0
 10
42.596405
 20
685.359497
  0
VERTEX
  8
0
 10
43.272030
 20
684.769775
  0
VERTEX
  8
0
 10
43.998280
 20
684.222717
  0
VERTEX
  8
0
 10
44.763203
 20
683.716858
  0
VERTEX
  8
0
 10
45.555157
 20
683.250549
  0
VERTEX
  8
0
 10
46.632656
 20
682.687561
  0
VERTEX
  8
0
 10
47.709843
 20
682.188599
  0
VERTEX
  8
0
 10
48.775154
 20
681.753601
  0
VERTEX
  8
0
 10
49.568829
 20
681.471619
  0
VERTEX
  8
0
 10
50.623749
 20
681.158081
  0
VERTEX
  8
0
 10
51.679451
 20
680.919617
  0
VERTEX
  8
0
 10
52.740311
 20
680.759644
  0
VERTEX
  8
0
 10
53.806797
 20
680.679565
  0
VERTEX
  8
0
 10
54.877655
 20
680.679382
  0
VERTEX
  8
0
 10
55.951485
 20
680.758728
  0
VERTEX
  8
0
 10
57.026951
 20
680.917542
  0
VERTEX
  8
0
 10
57.564842
 20
681.027344
  0
VERTEX
  8
0
 10
58.102810
 20
681.158447
  0
VERTEX
  8
0
 10
58.640545
 20
681.311890
  0
VERTEX
  8
0
 10
59.178047
 20
681.488647
  0
VERTEX
  8
0
 10
59.983593
 20
681.799927
  0
VERTEX
  8
0
 10
60.519920
 20
682.039429
  0
VERTEX
  8
0
 10
61.055622
 20
682.305908
  0
VERTEX
  8
0
 10
61.857655
 20
682.758118
  0
VERTEX
  8
0
 10
62.389530
 20
683.094849
  0
VERTEX
  8
0
 10
62.915859
 20
683.458496
  0
VERTEX
  8
0
 10
63.687969
 20
684.051758
  0
VERTEX
  8
0
 10
64.186485
 20
684.477234
  0
VERTEX
  8
0
 10
64.668434
 20
684.925049
  0
VERTEX
  8
0
 10
65.353279
 20
685.636230
  0
VERTEX
  8
0
 10
65.779999
 20
686.134583
  0
VERTEX
  8
0
 10
66.179138
 20
686.651001
  0
VERTEX
  8
0
 10
66.550392
 20
687.183899
  0
VERTEX
  8
0
 10
67.059998
 20
688.010864
  0
VERTEX
  8
0
 10
67.371719
 20
688.578247
  0
VERTEX
  8
0
 10
67.803276
 20
689.449585
  0
VERTEX
  8
0
 10
68.198593
 20
690.340637
  0
VERTEX
  8
0
 10
68.565781
 20
691.245911
  0
VERTEX
  8
0
 10
69.246094
 20
693.082275
  0
VERTEX
  8
0
 10
70.663673
 20
697.147095
  0
VERTEX
  8
0
 10
72.096016
 20
701.008728
  0
VERTEX
  8
0
 10
72.676796
 20
702.675049
  0
VERTEX
  8
0
 10
73.109215
 20
704.042236
  0
VERTEX
  8
0
 10
73.512970
 20
705.436707
  0
VERTEX
  8
0
 10
73.988907
 20
707.207092
  0
VERTEX
  8
0
 10
74.537651
 20
709.353027
  0
SEQEND
  8
0
  0
POLYLINE
  8
0
  0
VERTEX
  8
0
 10
66.570236
 20
718.531616
  0
VERTEX
  8
0
 10
69.322029
 20
716.959106
  0
VERTEX
  8
0
 10
69.300156
 20
718.575317
  0
VERTEX
  8
0
 10
69.278358
 20
720.191406
  0
VERTEX
  8
0
 10
66.570236
 20
718.531616
  0
SEQEND
  8
0
  0
POLYLINE
  8
0
  0
VERTEX
  8
0
 10
78.127419
 20
723.909912
  0
VERTEX
  8
0
 10
77.649063
 20
723.814758
  0
VERTEX
  8
0
 10
77.243515
 20
723.543762
  0
VERTEX
  8
0
 10
76.972580
 20
723.138184
  0
VERTEX
  8
0
 10
76.877419
 20
722.659912
  0
VERTEX
  8
0
 10
76.972580
 20
722.181458
  0
VERTEX
  8
0
 10
77.243515
 20
721.776001
  0
VERTEX
  8
0
 10
77.649063
 20
721.505066
  0
VERTEX
  8
0
 10
78.127419
 20
721.409912
  0
VERTEX
  8
0
 10
78.605782
 20
721.505066
  0
VERTEX
  8
0
 10
79.011330
 20
721.776001
  0
VERTEX
  8
0
 10
79.282265
 20
722.181458
  0
VERTEX
  8
0
 10
79.377419
 20
722.659912
  0
VERTEX
  8
0
 10
79.282265
 20
723.138184
  0
VERTEX
  8
0
 10
79.011330
 20
723.543762
  0
VERTEX
  8
0
 10
78.605782
 20
723.814758
  0
VERTEX
  8
0
 10
78.127419
 20
723.909912
  0
SEQEND
  8
0
  0
POLYLINE
  8
0
  0
VERTEX
  8
0
 10
76.131714
 20
717.401611
  0
VERTEX
  8
0
 10
75.653358
 20
717.306458
  0
VERTEX
  8
0
 10
75.247810
 20
717.035522
  0
VERTEX
  8
0
 10
74.976799
 20
716.630005
  0
VERTEX
  8
0
 10
74.881714
 20
716.151611
  0
VERTEX
  8
0
 10
74.976799
 20
715.673279
  0
VERTEX
  8
0
 10
75.247810
 20
715.267700
  0
VERTEX
  8
0
 10
75.653358
 20
714.996765
  0
VERTEX
  8
0
 10
76.131714
 20
714.901611
  0
VERTEX
  8
0
 10
76.610001
 20
714.996765
  0
VERTEX
  8
0
 10
77.015549
 20
715.267700
  0
VERTEX
  8
0
 10
77.286560
 20
715.673279
  0
VERTEX
  8
0
 10
77.381714
 20
716.151611
  0
VERTEX
  8
0
 10
77.286560
 20
716.630005
  0
VERTEX
  8
0
 10
77.015549
 20
717.035522
  0
VERTEX
  8
0
 10
76.610001
 20
717.306458
  0
VERTEX
  8
0
 10
76.131714
 20
717.401611
  0
SEQEND
  8
0
  0
POLYLINE
  8
0
  0
VERTEX
  8
0
 10
53.350780
 20
674.280640
  0
VERTEX
  8
0
 10
52.872498
 20
674.185425
  0
VERTEX
  8
0
 10
52.466953
 20
673.914490
  0
VERTEX
  8
0
 10
52.195938
 20
673.508972
  0
VERTEX
  8
0
 10
52.100780
 20
673.030640
  0
VERTEX
  8
0
 10
52.195938
 20
672.552246
  0
VERTEX
  8
0
 10
52.466953
 20
672.146729
  0
VERTEX
  8
0
 10
52.872498
 20
671.875793
  0
VERTEX
  8
0
 10
53.350780
 20
671.780640
  0
VERTEX
  8
0
 10
53.829140
 20
671.875793
  0
VERTEX
  8
0
 10
54.234688
 20
672.146729
  0
VERTEX
  8
0
 10
54.505623
 20
672.552246
  0
VERTEX
  8
0
 10
54.600780
 20
673.030640
  0
VERTEX
  8
0
 10
54.505623
 20
673.508972
  0
VERTEX
  8
0
 10
54.234688
 20
673.914490
  0
VERTEX
  8
0
 10
53.829140
 20
674.185425
  0
VERTEX
  8
0
 10
53.350780
 20
674.280640
  0
SEQEND
  8
0
  0
POLYLINE
  8
0
  0
VERTEX
  8
0
 10
19.150860
 20
740.589722
  0
VERTEX
  8
0
 10
18.672499
 20
740.494568
  0
VERTEX
  8
0
 10
18.266953
 20
740.223572
  0
VERTEX
  8
0
 10
17.996016
 20
739.818054
  0
VERTEX
  8
0
 10
17.900860
 20
739.339722
  0
VERTEX
  8
0
 10
17.996016
 20
738.861328
  0
VERTEX
  8
0
 10
18.266953
 20
738.455872
  0
VERTEX
  8
0
 10
18.672499
 20
738.184875
  0
VERTEX
  8
0
 10
19.150860
 20
738.089722
  0
VERTEX
  8
0
 10
19.629219
 20
738.184875
  0
VERTEX
  8
0
 10
20.034687
 20
738.455872
  0
VERTEX
  8
0
 10
20.305702
 20
738.861328
  0
VERTEX
  8
0
 10
20.400860
 20
739.339722
  0
VERTEX
  8
0
 10
20.305702
 20
739.818054
  0
VERTEX
  8
0
 10
20.034687
 20
740.223572
  0
VERTEX
  8
0
 10
19.629219
 20
740.494568
  0
VERTEX
  8
0
 10
19.150860
 20
740.589722
  0
SEQEND
  8
0
  0
POLYLINE
  8
0
  0
VERTEX
  8
0
 10
32.581406
 20
751.676331
  0
VERTEX
  8
0
 10
32.103046
 20
751.581177
  0
VERTEX
  8
0
 10
31.697500
 20
751.310242
  0
VERTEX
  8
0
 10
31.426561
 20
750.904663
  0
VERTEX
  8
0
 10
31.331406
 20
750.426331
  0
VERTEX
  8
0
 10
31.426561
 20
749.947937
  0
VERTEX
  8
0
 10
31.697500
 20
749.542419
  0
VERTEX
  8
0
 10
32.103046
 20
749.271484
  0
VERTEX
  8
0
 10
32.581406
 20
749.176331
  0
VERTEX
  8
0
 10
33.059765
 20
749.271484
  0
VERTEX
  8
0
 10
33.465313
 20
749.542419
  0
VERTEX
  8
0
 10
33.736248
 20
749.947937
  0
VERTEX
  8
0
 10
33.831406
 20
750.426331
  0
VERTEX
  8
0
 10
33.736248
 20
750.904663
  0
VERTEX
  8
0
 10
33.465313
 20
751.310242
  0
VERTEX
  8
0
 10
33.059765
 20
751.581177
  0
VERTEX
  8
0
 10
32.581406
 20
751.676331
  0
SEQEND
  8
0
  0
POLYLINE
  8
0
  0
VERTEX
  8
0
 10
87.054527
 20
740.543213
  0
VERTEX
  8
0
 10
86.576172
 20
740.448059
  0
VERTEX
  8
0
 10
86.170624
 20
740.177063
  0
VERTEX
  8
0
 10
85.899689
 20
739.771606
  0
VERTEX
  8
0
 10
85.804527
 20
739.293213
  0
VERTEX
  8
0
 10
85.899689
 20
738.814880
  0
VERTEX
  8
0
 10
86.170624
 20
738.409363
  0
VERTEX
  8
0
 10
86.576172
 20
738.138367
  0
VERTEX
  8
0
 10
87.054527
 20
738.043213
  0
VERTEX
  8
0
 10
87.532890
 20
738.138367
  0
VERTEX
  8
0
 10
87.938438
 20
738.409363
  0
VERTEX
  8
0
 10
88.209373
 20
738.814880
  0
VERTEX
  8
0
 10
88.304527
 20
739.293213
  0
VERTEX
  8
0
 10
88.209373
 20
739.771606
  0
VERTEX
  8
0
 10
87.938438
 20
740.177063
  0
VERTEX
  8
0
 10
87.532890
 20
740.448059
  0
VERTEX
  8
0
 10
87.054527
 20
740.543213
  0
SEQEND
  8
0
  0
POLYLINE
  8
0
  0
VERTEX
  8
0
 10
72.335861
 20
752.235291
  0
VERTEX
  8
0
 10
71.857498
 20
752.140137
  0
VERTEX
  8
0
 10
71.451950
 20
751.869141
  0
VERTEX
  8
0
 10
71.181015
 20
751.463684
  0
VERTEX
  8
0
 10
71.085861
 20
750.985291
  0
VERTEX
  8
0
 10
71.181015
 20
750.506958
  0
VERTEX
  8
0
 10
71.451950
 20
750.101379
  0
VERTEX
  8
0
 10
71.857498
 20
749.830444
  0
VERTEX
  8
0
 10
72.335861
 20
749.735291
  0
VERTEX
  8
0
 10
72.814217
 20
749.830444
  0
VERTEX
  8
0
 10
73.219765
 20
750.101379
  0
VERTEX
  8
0
 10
73.490700
 20
750.506958
  0
VERTEX
  8
0
 10
73.585861
 20
750.985291
  0
VERTEX
  8
0
 10
73.490700
 20
751.463684
  0
VERTEX
  8
0
 10
73.219765
 20
751.869141
  0
VERTEX
  8
0
 10
72.814217
 20
752.140137
  0
VERTEX
  8
0
 10
72.335861
 20
752.235291
  0
SEQEND
  8
0
  0
POLYLINE
  8
0
  0
VERTEX
  8
0
 10
53.506718
 20
731.596619
  0
VERTEX
  8
0
 10
53.124062
 20
731.520508
  0
VERTEX
  8
0
 10
52.799606
 20
731.303711
  0
VERTEX
  8
0
 10
52.582890
 20
730.979309
  0
VERTEX
  8
0
 10
52.506718
 20
730.596619
  0
VERTEX
  8
0
 10
52.582890
 20
730.213989
  0
VERTEX
  8
0
 10
52.799606
 20
729.889526
  0
VERTEX
  8
0
 10
53.124062
 20
729.672729
  0
VERTEX
  8
0
 10
53.506718
 20
729.596619
  0
VERTEX
  8
0
 10
53.889450
 20
729.672729
  0
VERTEX
  8
0
 10
54.213825
 20
729.889526
  0
VERTEX
  8
0
 10
54.430622
 20
730.213989
  0
VERTEX
  8
0
 10
54.506718
 20
730.596619
  0
VERTEX
  8
0
 10
54.430622
 20
730.979309
  0
VERTEX
  8
0
 10
54.213825
 20
731.303711
  0
VERTEX
  8
0
 10
53.889450
 20
731.520508
  0
VERTEX
  8
0
 10
53.506718
 20
731.596619
  0
SEQEND
  8
0
  0
ENDSEC
  0
EOF
