  0
SECTION
  2
HEADER
  9
$ACADVER
  1
AC1006
  9
$EXTMIN
 10
0.999922
 20
1.000000
  9
$EXTMAX
 10
309.777100
 20
850.679382
  0
ENDSEC
  0
SECTION
  2
ENTITIES
  0
POLYLINE
  8
0
  0
VERTEX
  8
0
 10
121.073280
 20
1.000000
  0
VERTEX
  8
0
 10
106.661407
 20
6.160547
  0
VERTEX
  8
0
 10
96.806870
 20
9.710625
  0
VERTEX
  8
0
 10
87.646324
 20
13.046093
  0
VERTEX
  8
0
 10
81.004532
 20
15.501171
  0
VERTEX
  8
0
 10
73.687187
 20
18.250313
  0
VERTEX
  8
0
 10
65.426407
 20
21.413671
  0
VERTEX
  8
0
 10
58.400623
 20
24.159843
  0
VERTEX
  8
0
 10
53.110310
 20
26.288202
  0
VERTEX
  8
0
 10
52.856716
 20
27.952421
  0
VERTEX
  8
0
 10
49.712341
 20
27.869843
  0
VERTEX
  8
0
 10
49.712341
 20
27.869843
  0
VERTEX
  8
0
 10
44.834454
 20
30.147499
  0
VERTEX
  8
0
 10
42.974998
 20
31.045937
  0
VERTEX
  8
0
 10
41.086796
 20
31.986172
  0
VERTEX
  8
0
 10
39.161953
 20
32.979687
  0
VERTEX
  8
0
 10
37.854763
 20
33.677185
  0
VERTEX
  8
0
 10
35.858124
 20
34.781483
  0
VERTEX
  8
0
 10
34.506874
 20
35.557343
  0
VERTEX
  8
0
 10
32.456173
 20
36.782421
  0
VERTEX
  8
0
 10
31.076796
 20
37.640938
  0
VERTEX
  8
0
 10
29.690781
 20
38.533905
  0
VERTEX
  8
0
 10
28.300703
 20
39.461876
  0
VERTEX
  8
0
 10
26.213436
 20
40.920937
  0
VERTEX
  8
0
 10
24.824764
 20
41.938904
  0
VERTEX
  8
0
 10
23.443905
 20
42.990704
  0
VERTEX
  8
0
 10
22.076406
 20
44.073280
  0
VERTEX
  8
0
 10
20.727577
 20
45.183750
  0
VERTEX
  8
0
 10
19.403202
 20
46.319141
  0
VERTEX
  8
0
 10
18.108515
 20
47.476406
  0
VERTEX
  8
0
 10
16.849140
 20
48.652657
  0
VERTEX
  8
0
 10
15.630547
 20
49.844765
  0
VERTEX
  8
0
 10
14.458125
 20
51.049843
  0
VERTEX
  8
0
 10
13.336953
 20
52.264919
  0
VERTEX
  8
0
 10
12.268750
 20
53.486641
  0
VERTEX
  8
0
 10
11.255000
 20
54.711483
  0
VERTEX
  8
0
 10
10.297031
 20
55.936092
  0
VERTEX
  8
0
 10
9.396015
 20
57.157185
  0
VERTEX
  8
0
 10
8.553515
 20
58.371250
  0
VERTEX
  8
0
 10
7.770859
 20
59.574921
  0
VERTEX
  8
0
 10
7.049219
 20
60.764763
  0
VERTEX
  8
0
 10
6.389922
 20
61.937344
  0
VERTEX
  8
0
 10
5.793281
 20
63.091248
  0
VERTEX
  8
0
 10
5.254844
 20
64.232574
  0
VERTEX
  8
0
 10
4.769141
 20
65.369293
  0
VERTEX
  8
0
 10
4.330625
 20
66.509377
  0
VERTEX
  8
0
 10
4.127344
 20
67.083282
  0
VERTEX
  8
0
 10
3.749297
 20
68.243515
  0
VERTEX
  8
0
 10
3.404609
 20
69.427261
  0
VERTEX
  8
0
 10
2.938047
 20
71.264374
  0
VERTEX
  8
0
 10
2.652734
 20
72.541870
  0
VERTEX
  8
0
 10
2.254062
 20
74.547340
  0
VERTEX
  8
0
 10
1.895312
 20
76.636948
  0
VERTEX
  8
0
 10
1.682812
 20
78.060936
  0
VERTEX
  8
0
 10
1.409844
 20
80.220001
  0
VERTEX
  8
0
 10
1.262187
 20
81.660934
  0
VERTEX
  8
0
 10
1.098516
 20
83.801247
  0
VERTEX
  8
0
 10
1.031484
 20
85.200073
  0
VERTEX
  8
0
 10
1.000000
 20
87.245079
  0
VERTEX
  8
0
 10
1.027578
 20
88.586479
  0
VERTEX
  8
0
 10
1.095781
 20
89.924217
  0
VERTEX
  8
0
 10
1.206406
 20
91.269997
  0
VERTEX
  8
0
 10
1.360859
 20
92.635704
  0
VERTEX
  8
0
 10
1.560938
 20
94.033279
  0
VERTEX
  8
0
 10
1.808281
 20
95.474373
  0
VERTEX
  8
0
 10
2.104297
 20
96.970932
  0
VERTEX
  8
0
 10
2.642500
 20
99.340385
  0
VERTEX
  8
0
 10
3.060781
 20
100.991798
  0
VERTEX
  8
0
 10
3.521719
 20
102.679604
  0
VERTEX
  8
0
 10
4.020937
 20
104.385078
  0
VERTEX
  8
0
 10
4.554375
 20
106.089844
  0
VERTEX
  8
0
 10
5.117422
 20
107.775467
  0
VERTEX
  8
0
 10
5.705937
 20
109.423431
  0
VERTEX
  8
0
 10
6.315625
 20
111.015388
  0
VERTEX
  8
0
 10
6.942031
 20
112.532730
  0
VERTEX
  8
0
 10
7.582344
 20
113.962265
  0
VERTEX
  8
0
 10
7.908281
 20
114.646011
  0
VERTEX
  8
0
 10
8.573671
 20
115.959213
  0
VERTEX
  8
0
 10
9.259922
 20
117.210541
  0
VERTEX
  8
0
 10
9.970469
 20
118.412186
  0
VERTEX
  8
0
 10
10.335781
 20
118.998276
  0
VERTEX
  8
0
 10
11.088906
 20
120.148827
  0
VERTEX
  8
0
 10
11.874531
 20
121.280777
  0
VERTEX
  8
0
 10
12.696172
 20
122.406639
  0
VERTEX
  8
0
 10
14.003047
 20
124.110542
  0
VERTEX
  8
0
 10
14.927343
 20
125.266167
  0
VERTEX
  8
0
 10
15.894531
 20
126.433823
  0
VERTEX
  8
0
 10
16.904688
 20
127.609291
  0
VERTEX
  8
0
 10
17.958202
 20
128.788116
  0
VERTEX
  8
0
 10
19.055079
 20
129.965927
  0
VERTEX
  8
0
 10
20.782343
 20
131.721252
  0
VERTEX
  8
0
 10
21.988594
 20
132.877579
  0
VERTEX
  8
0
 10
22.608280
 20
133.449844
  0
VERTEX
  8
0
 10
23.238905
 20
134.017654
  0
VERTEX
  8
0
 10
24.533827
 20
135.138046
  0
VERTEX
  8
0
 10
25.198124
 20
135.691254
  0
VERTEX
  8
0
 10
26.561640
 20
136.784760
  0
VERTEX
  8
0
 10
27.972343
 20
137.863037
  0
VERTEX
  8
0
 10
29.431406
 20
138.928116
  0
VERTEX
  8
0
 10
31.713436
 20
140.505859
  0
VERTEX
  8
0
 10
34.111248
 20
142.065857
  0
VERTEX
  8
0
 10
36.628513
 20
143.615387
  0
VERTEX
  8
0
 10
38.373985
 20
144.645538
  0
VERTEX
  8
0
 10
40.168282
 20
145.672653
  0
VERTEX
  8
0
 10
42.005390
 20
146.694916
  0
VERTEX
  8
0
 10
43.879139
 20
147.710861
  0
VERTEX
  8
0
 10
45.783436
 20
148.718674
  0
VERTEX
  8
0
 10
48.683983
 20
150.211716
  0
VERTEX
  8
0
 10
52.601563
 20
152.158829
  0
VERTEX
  8
0
 10
55.554375
 20
153.580536
  0
VERTEX
  8
0
 10
57.540546
 20
154.514374
  0
VERTEX
  8
0
 10
61.628281
 20
156.376175
  0
VERTEX
  8
0
 10
65.979370
 20
158.271011
  0
VERTEX
  8
0
 10
70.725235
 20
160.248123
  0
VERTEX
  8
0
 10
75.989372
 20
162.353439
  0
VERTEX
  8
0
 10
81.711792
 20
164.561554
  0
VERTEX
  8
0
 10
87.649216
 20
166.775543
  0
VERTEX
  8
0
 10
90.619995
 20
167.853439
  0
VERTEX
  8
0
 10
93.550232
 20
168.895157
  0
VERTEX
  8
0
 10
96.408669
 20
169.888351
  0
VERTEX
  8
0
 10
99.163750
 20
170.820389
  0
VERTEX
  8
0
 10
101.791794
 20
171.682266
  0
VERTEX
  8
0
 10
104.299995
 20
172.478745
  0
VERTEX
  8
0
 10
106.703514
 20
173.217880
  0
VERTEX
  8
0
 10
109.017105
 20
173.907883
  0
VERTEX
  8
0
 10
113.434845
 20
175.173508
  0
VERTEX
  8
0
 10
119.762032
 20
176.908279
  0
VERTEX
  8
0
 10
122.226952
 20
175.314529
  0
VERTEX
  8
0
 10
123.597420
 20
174.455154
  0
VERTEX
  8
0
 10
124.446014
 20
173.976410
  0
VERTEX
  8
0
 10
125.433983
 20
173.494293
  0
VERTEX
  8
0
 10
126.826485
 20
172.901016
  0
VERTEX
  8
0
 10
127.567650
 20
172.618896
  0
VERTEX
  8
0
 10
128.298981
 20
172.366791
  0
VERTEX
  8
0
 10
128.997345
 20
172.155701
  0
VERTEX
  8
0
 10
129.664993
 20
171.979996
  0
VERTEX
  8
0
 10
131.257339
 20
171.628586
  0
VERTEX
  8
0
 10
127.944527
 20
155.247498
  0
VERTEX
  8
0
 10
124.631798
 20
138.866409
  0
VERTEX
  8
0
 10
117.119766
 20
139.110626
  0
VERTEX
  8
0
 10
112.358360
 20
139.218048
  0
VERTEX
  8
0
 10
110.107185
 20
139.242737
  0
VERTEX
  8
0
 10
107.964844
 20
139.243118
  0
VERTEX
  8
0
 10
105.938904
 20
139.217499
  0
VERTEX
  8
0
 10
104.034607
 20
139.164841
  0
VERTEX
  8
0
 10
102.257423
 20
139.083984
  0
VERTEX
  8
0
 10
100.612656
 20
138.974060
  0
VERTEX
  8
0
 10
99.592262
 20
138.883896
  0
VERTEX
  8
0
 10
98.179764
 20
138.723206
  0
VERTEX
  8
0
 10
96.908981
 20
138.536560
  0
VERTEX
  8
0
 10
95.778282
 20
138.332336
  0
VERTEX
  8
0
 10
94.785782
 20
138.118515
  0
VERTEX
  8
0
 10
93.673904
 20
137.832809
  0
VERTEX
  8
0
 10
92.799767
 20
137.564056
  0
VERTEX
  8
0
 10
92.132027
 20
137.309296
  0
VERTEX
  8
0
 10
91.717499
 20
137.100082
  0
VERTEX
  8
0
 10
91.461479
 20
136.940155
  0
VERTEX
  8
0
 10
91.208824
 20
136.756332
  0
VERTEX
  8
0
 10
90.812027
 20
136.421875
  0
VERTEX
  8
0
 10
90.360626
 20
135.998123
  0
VERTEX
  8
0
 10
87.293594
 20
132.913437
  0
VERTEX
  8
0
 10
86.498901
 20
132.142029
  0
VERTEX
  8
0
 10
85.965233
 20
131.653351
  0
VERTEX
  8
0
 10
85.306328
 20
131.105621
  0
VERTEX
  8
0
 10
84.825623
 20
130.756561
  0
VERTEX
  8
0
 10
84.334137
 20
130.446793
  0
VERTEX
  8
0
 10
83.627266
 20
130.073441
  0
VERTEX
  8
0
 10
82.827187
 20
129.721558
  0
VERTEX
  8
0
 10
81.694763
 20
129.289841
  0
VERTEX
  8
0
 10
76.087578
 20
127.326248
  0
VERTEX
  8
0
 10
72.907104
 20
126.239998
  0
VERTEX
  8
0
 10
64.539063
 20
123.463982
  0
VERTEX
  8
0
 10
61.886482
 20
122.539291
  0
VERTEX
  8
0
 10
60.059296
 20
121.866089
  0
VERTEX
  8
0
 10
57.882969
 20
120.999840
  0
VERTEX
  8
0
 10
55.898670
 20
120.128281
  0
VERTEX
  8
0
 10
53.981247
 20
119.204063
  0
VERTEX
  8
0
 10
51.488514
 20
117.902260
  0
VERTEX
  8
0
 10
48.736717
 20
116.380623
  0
VERTEX
  8
0
 10
47.012108
 20
115.383667
  0
VERTEX
  8
0
 10
45.859764
 20
114.695389
  0
VERTEX
  8
0
 10
44.160625
 20
113.641479
  0
VERTEX
  8
0
 10
43.067108
 20
112.932579
  0
VERTEX
  8
0
 10
42.020546
 20
112.224922
  0
VERTEX
  8
0
 10
41.034061
 20
111.523903
  0
VERTEX
  8
0
 10
40.112576
 20
110.831718
  0
VERTEX
  8
0
 10
39.252968
 20
110.146950
  0
VERTEX
  8
0
 10
38.451641
 20
109.468513
  0
VERTEX
  8
0
 10
37.351250
 20
108.459373
  0
VERTEX
  8
0
 10
36.680389
 20
107.790390
  0
VERTEX
  8
0
 10
36.055546
 20
107.122810
  0
VERTEX
  8
0
 10
35.473202
 20
106.455391
  0
VERTEX
  8
0
 10
34.671719
 20
105.451401
  0
VERTEX
  8
0
 10
33.946640
 20
104.442886
  0
VERTEX
  8
0
 10
33.287498
 20
103.432419
  0
VERTEX
  8
0
 10
32.683907
 20
102.423042
  0
VERTEX
  8
0
 10
32.125313
 20
101.417809
  0
VERTEX
  8
0
 10
31.266405
 20
99.759682
  0
VERTEX
  8
0
 10
30.624062
 20
98.442810
  0
VERTEX
  8
0
 10
30.176483
 20
97.422966
  0
VERTEX
  8
0
 10
29.768906
 20
96.339607
  0
VERTEX
  8
0
 10
29.411171
 20
95.160156
  0
VERTEX
  8
0
 10
29.205156
 20
94.304451
  0
VERTEX
  8
0
 10
29.028593
 20
93.382027
  0
VERTEX
  8
0
 10
28.884218
 20
92.383751
  0
VERTEX
  8
0
 10
28.772968
 20
91.313126
  0
VERTEX
  8
0
 10
28.693905
 20
90.185860
  0
VERTEX
  8
0
 10
28.645859
 20
89.018356
  0
VERTEX
  8
0
 10
28.630234
 20
87.227417
  0
VERTEX
  8
0
 10
28.655781
 20
86.030861
  0
VERTEX
  8
0
 10
28.708828
 20
84.851402
  0
VERTEX
  8
0
 10
28.788515
 20
83.705307
  0
VERTEX
  8
0
 10
28.893749
 20
82.608986
  0
VERTEX
  8
0
 10
29.023672
 20
81.575073
  0
VERTEX
  8
0
 10
29.177891
 20
80.601715
  0
VERTEX
  8
0
 10
29.356405
 20
79.682968
  0
VERTEX
  8
0
 10
29.558983
 20
78.813278
  0
VERTEX
  8
0
 10
29.785545
 20
77.986717
  0
VERTEX
  8
0
 10
30.035858
 20
77.197655
  0
VERTEX
  8
0
 10
30.309843
 20
76.440544
  0
VERTEX
  8
0
 10
30.607344
 20
75.709373
  0
VERTEX
  8
0
 10
30.928358
 20
74.998589
  0
VERTEX
  8
0
 10
31.272343
 20
74.303360
  0
VERTEX
  8
0
 10
31.638750
 20
73.622032
  0
VERTEX
  8
0
 10
32.228516
 20
72.624840
  0
VERTEX
  8
0
 10
32.647343
 20
71.975624
  0
VERTEX
  8
0
 10
33.311718
 20
71.023514
  0
VERTEX
  8
0
 10
34.017185
 20
70.095467
  0
VERTEX
  8
0
 10
34.760704
 20
69.189217
  0
VERTEX
  8
0
 10
35.541641
 20
68.302971
  0
VERTEX
  8
0
 10
36.086639
 20
67.722343
  0
VERTEX
  8
0
 10
36.947342
 20
66.866249
  0
VERTEX
  8
0
 10
37.554138
 20
66.304688
  0
VERTEX
  8
0
 10
38.520702
 20
65.475624
  0
VERTEX
  8
0
 10
39.206638
 20
64.930939
  0
VERTEX
  8
0
 10
39.929138
 20
64.392502
  0
VERTEX
  8
0
 10
40.691013
 20
63.859921
  0
VERTEX
  8
0
 10
41.908829
 20
63.072811
  0
VERTEX
  8
0
 10
42.769688
 20
62.557186
  0
VERTEX
  8
0
 10
43.668751
 20
62.049919
  0
VERTEX
  8
0
 10
44.605076
 20
61.551952
  0
VERTEX
  8
0
 10
46.077732
 20
60.824375
  0
VERTEX
  8
0
 10
47.103672
 20
60.353516
  0
VERTEX
  8
0
 10
48.163906
 20
59.895153
  0
VERTEX
  8
0
 10
49.257656
 20
59.450077
  0
VERTEX
  8
0
 10
50.382500
 20
59.018669
  0
VERTEX
  8
0
 10
52.120468
 20
58.395622
  0
VERTEX
  8
0
 10
53.307575
 20
57.995781
  0
VERTEX
  8
0
 10
55.121563
 20
57.417889
  0
VERTEX
  8
0
 10
58.203747
 20
56.508827
  0
VERTEX
  8
0
 10
61.927654
 20
55.498123
  0
VERTEX
  8
0
 10
65.567184
 20
54.572029
  0
VERTEX
  8
0
 10
73.041481
 20
52.744999
  0
VERTEX
  8
0
 10
74.843201
 20
52.284920
  0
VERTEX
  8
0
 10
76.112968
 20
51.942421
  0
VERTEX
  8
0
 10
77.712814
 20
51.477108
  0
VERTEX
  8
0
 10
79.222267
 20
50.987656
  0
VERTEX
  8
0
 10
79.945000
 20
50.727734
  0
VERTEX
  8
0
 10
80.646172
 20
50.453907
  0
VERTEX
  8
0
 10
81.656952
 20
50.011169
  0
VERTEX
  8
0
 10
82.303123
 20
49.690388
  0
VERTEX
  8
0
 10
82.927032
 20
49.346092
  0
VERTEX
  8
0
 10
83.820313
 20
48.779140
  0
VERTEX
  8
0
 10
84.662186
 20
48.144375
  0
VERTEX
  8
0
 10
85.196480
 20
47.686329
  0
VERTEX
  8
0
 10
85.710938
 20
47.205860
  0
VERTEX
  8
0
 10
86.449532
 20
46.453671
  0
VERTEX
  8
0
 10
87.153282
 20
45.678360
  0
VERTEX
  8
0
 10
89.911797
 20
42.435310
  0
VERTEX
  8
0
 10
91.309219
 20
40.838829
  0
VERTEX
  8
0
 10
92.112732
 20
39.977501
  0
VERTEX
  8
0
 10
92.650932
 20
39.468826
  0
VERTEX
  8
0
 10
92.957497
 20
39.220623
  0
VERTEX
  8
0
 10
93.389839
 20
38.920311
  0
VERTEX
  8
0
 10
93.893906
 20
38.617500
  0
VERTEX
  8
0
 10
94.346481
 20
38.373360
  0
VERTEX
  8
0
 10
94.881485
 20
38.119923
  0
VERTEX
  8
0
 10
95.291794
 20
37.949219
  0
VERTEX
  8
0
 10
95.750542
 20
37.779686
  0
VERTEX
  8
0
 10
96.262657
 20
37.613358
  0
VERTEX
  8
0
 10
97.141090
 20
37.374531
  0
VERTEX
  8
0
 10
98.165779
 20
37.154842
  0
VERTEX
  8
0
 10
99.338280
 20
36.959999
  0
VERTEX
  8
0
 10
100.191872
 20
36.846092
  0
VERTEX
  8
0
 10
101.562965
 20
36.702030
  0
VERTEX
  8
0
 10
102.527733
 20
36.625626
  0
VERTEX
  8
0
 10
104.034058
 20
36.543282
  0
VERTEX
  8
0
 10
105.067734
 20
36.511719
  0
VERTEX
  8
0
 10
106.645699
 20
36.502186
  0
VERTEX
  8
0
 10
108.779213
 20
36.553829
  0
VERTEX
  8
0
 10
114.736794
 20
36.855938
  0
VERTEX
  8
0
 10
117.448357
 20
36.951485
  0
VERTEX
  8
0
 10
120.687729
 20
36.987968
  0
VERTEX
  8
0
 10
125.530312
 20
36.954529
  0
VERTEX
  8
0
 10
128.983276
 20
21.482500
  0
VERTEX
  8
0
 10
132.436325
 20
6.010625
  0
VERTEX
  8
0
 10
130.118744
 20
5.189531
  0
VERTEX
  8
0
 10
128.646240
 20
4.647265
  0
VERTEX
  8
0
 10
127.281250
 20
4.112422
  0
VERTEX
  8
0
 10
126.029762
 20
3.580625
  0
VERTEX
  8
0
 10
124.862419
 20
3.040000
  0
VERTEX
  8
0
 10
123.748360
 20
2.479141
  0
VERTEX
  8
0
 10
122.665855
 20
1.896406
  0
VERTEX
  8
0
 10
121.073280
 20
1.000000
  0
SEQEND
  8
0
  0
POLYLINE
  8
0
  0
VERTEX
  8
0
 10
101.077576
 20
31.685156
  0
VERTEX
  8
0
 10
100.059372
 20
29.703436
  0
VERTEX
  8
0
 10
99.125854
 20
28.006327
  0
VERTEX
  8
0
 10
98.266563
 20
26.594217
  0
VERTEX
  8
0
 10
97.312813
 20
25.187344
  0
VERTEX
  8
0
 10
96.704765
 20
24.351171
  0
VERTEX
  8
0
 10
96.079140
 20
23.525391
  0
VERTEX
  8
0
 10
94.805542
 20
21.918671
  0
VERTEX
  8
0
 10
93.131638
 20
19.895546
  0
VERTEX
  8
0
 10
90.880234
 20
17.255547
  0
SEQEND
  8
0
  0
POLYLINE
  8
0
  0
VERTEX
  8
0
 10
76.753593
 20
23.472187
  0
VERTEX
  8
0
 10
75.561089
 20
20.166250
  0
SEQEND
  8
0
  0
POLYLINE
  8
0
  0
VERTEX
  8
0
 10
28.593437
 20
87.947655
  0
VERTEX
  8
0
 10
14.833828
 20
87.707497
  0
VERTEX
  8
0
 10
1.074297
 20
87.467262
  0
SEQEND
  8
0
  0
POLYLINE
  8
0
  0
VERTEX
  8
0
 10
88.920547
 20
160.273743
  0
VERTEX
  8
0
 10
90.795151
 20
158.025772
  0
VERTEX
  8
0
 10
92.065933
 20
156.469208
  0
VERTEX
  8
0
 10
93.229141
 20
154.990311
  0
VERTEX
  8
0
 10
94.055779
 20
153.881866
  0
VERTEX
  8
0
 10
95.325546
 20
152.062729
  0
VERTEX
  8
0
 10
97.556717
 20
148.706955
  0
VERTEX
  8
0
 10
99.971329
 20
145.126709
  0
SEQEND
  8
0
  0
POLYLINE
  8
0
  0
VERTEX
  8
0
 10
80.714531
 20
157.608200
  0
VERTEX
  8
0
 10
79.552658
 20
160.951401
  0
SEQEND
  8
0
  0
POLYLINE
  8
0
  0
VERTEX
  8
0
 10
98.947182
 20
779.083191
  0
VERTEX
  8
0
 10
99.820938
 20
791.922180
  0
VERTEX
  8
0
 10
100.909683
 20
807.714172
  0
VERTEX
  8
0
 10
103.730934
 20
807.924072
  0
VERTEX
  8
0
 10
104.036873
 20
812.572937
  0
VERTEX
  8
0
 10
104.672188
 20
821.567627
  0
VERTEX
  8
0
 10
104.914375
 20
825.243408
  0
VERTEX
  8
0
 10
105.112495
 20
828.938232
  0
VERTEX
  8
0
 10
105.172653
 20
830.595581
  0
VERTEX
  8
0
 10
105.203438
 20
832.141235
  0
VERTEX
  8
0
 10
105.198746
 20
833.928406
  0
VERTEX
  8
0
 10
105.154060
 20
835.550476
  0
VERTEX
  8
0
 10
105.061714
 20
837.267456
  0
VERTEX
  8
0
 10
104.941246
 20
838.726563
  0
VERTEX
  8
0
 10
104.812027
 20
839.784851
  0
VERTEX
  8
0
 10
104.639214
 20
840.760742
  0
VERTEX
  8
0
 10
104.406403
 20
841.712036
  0
VERTEX
  8
0
 10
104.167183
 20
842.482422
  0
VERTEX
  8
0
 10
103.794220
 20
843.451904
  0
VERTEX
  8
0
 10
103.527809
 20
844.031982
  0
VERTEX
  8
0
 10
103.331558
 20
844.416138
  0
VERTEX
  8
0
 10
103.007339
 20
844.986450
  0
VERTEX
  8
0
 10
102.770782
 20
845.361389
  0
VERTEX
  8
0
 10
102.384064
 20
845.912842
  0
VERTEX
  8
0
 10
102.104057
 20
846.271362
  0
VERTEX
  8
0
 10
101.650002
 20
846.791992
  0
VERTEX
  8
0
 10
101.323746
 20
847.125854
  0
VERTEX
  8
0
 10
100.978127
 20
847.447571
  0
VERTEX
  8
0
 10
100.612495
 20
847.755859
  0
VERTEX
  8
0
 10
100.226402
 20
848.049438
  0
VERTEX
  8
0
 10
99.820152
 20
848.327148
  0
VERTEX
  8
0
 10
99.396561
 20
848.588745
  0
VERTEX
  8
0
 10
98.959061
 20
848.834045
  0
VERTEX
  8
0
 10
98.056252
 20
849.275452
  0
VERTEX
  8
0
 10
97.598045
 20
849.471252
  0
VERTEX
  8
0
 10
96.912109
 20
849.733398
  0
VERTEX
  8
0
 10
96.460701
 20
849.887146
  0
VERTEX
  8
0
 10
95.799530
 20
850.085999
  0
VERTEX
  8
0
 10
95.145073
 20
850.248779
  0
VERTEX
  8
0
 10
94.700073
 20
850.339111
  0
VERTEX
  8
0
 10
93.755157
 20
850.481018
  0
VERTEX
  8
0
 10
92.393517
 20
850.596802
  0
VERTEX
  8
0
 10
90.730232
 20
850.659607
  0
VERTEX
  8
0
 10
88.788513
 20
850.679382
  0
VERTEX
  8
0
 10
85.840698
 20
850.643250
  0
VERTEX
  8
0
 10
82.925079
 20
850.544617
  0
VERTEX
  8
0
 10
80.499451
 20
850.421997
  0
VERTEX
  8
0
 10
73.492500
 20
850.019043
  0
VERTEX
  8
0
 10
69.400154
 20
849.842957
  0
VERTEX
  8
0
 10
67.181015
 20
849.779358
  0
VERTEX
  8
0
 10
64.829765
 20
849.734680
  0
VERTEX
  8
0
 10
58.934452
 20
849.686401
  0
VERTEX
  8
0
 10
53.638985
 20
849.679810
  0
VERTEX
  8
0
 10
48.602188
 20
849.696838
  0
VERTEX
  8
0
 10
44.112499
 20
849.737549
  0
VERTEX
  8
0
 10
40.362812
 20
849.793274
  0
VERTEX
  8
0
 10
35.599060
 20
849.892151
  0
VERTEX
  8
0
 10
30.194530
 20
850.035278
  0
VERTEX
  8
0
 10
25.678514
 20
850.180542
  0
VERTEX
  8
0
 10
19.586561
 20
850.407776
  0
VERTEX
  8
0
 10
18.440390
 20
850.424255
  0
VERTEX
  8
0
 10
17.316172
 20
850.412537
  0
VERTEX
  8
0
 10
15.912890
 20
850.357971
  0
VERTEX
  8
0
 10
14.242890
 20
850.235291
  0
VERTEX
  8
0
 10
12.872421
 20
850.086609
  0
VERTEX
  8
0
 10
11.538984
 20
849.891541
  0
VERTEX
  8
0
 10
10.270781
 20
849.638733
  0
VERTEX
  8
0
 10
9.322656
 20
849.387146
  0
VERTEX
  8
0
 10
8.449141
 20
849.085449
  0
VERTEX
  8
0
 10
7.652266
 20
848.731873
  0
VERTEX
  8
0
 10
7.098672
 20
848.434204
  0
VERTEX
  8
0
 10
6.410469
 20
847.995911
  0
VERTEX
  8
0
 10
5.925859
 20
847.637634
  0
VERTEX
  8
0
 10
5.313203
 20
847.122620
  0
VERTEX
  8
0
 10
4.735703
 20
846.568237
  0
VERTEX
  8
0
 10
4.195625
 20
845.978943
  0
VERTEX
  8
0
 10
3.695703
 20
845.359192
  0
VERTEX
  8
0
 10
3.238594
 20
844.713318
  0
VERTEX
  8
0
 10
2.826484
 20
844.041260
  0
VERTEX
  8
0
 10
2.547344
 20
843.509216
  0
VERTEX
  8
0
 10
2.293750
 20
842.942322
  0
VERTEX
  8
0
 10
2.065781
 20
842.330933
  0
VERTEX
  8
0
 10
1.863437
 20
841.665344
  0
VERTEX
  8
0
 10
1.686719
 20
840.935913
  0
VERTEX
  8
0
 10
1.534844
 20
840.134094
  0
VERTEX
  8
0
 10
1.405937
 20
839.253235
  0
VERTEX
  8
0
 10
1.297812
 20
838.287109
  0
VERTEX
  8
0
 10
1.182578
 20
836.854675
  0
VERTEX
  8
0
 10
1.115078
 20
835.664063
  0
VERTEX
  8
0
 10
1.047266
 20
833.911682
  0
VERTEX
  8
0
 10
1.007578
 20
831.984131
  0
VERTEX
  8
0
 10
0.999922
 20
830.438110
  0
VERTEX
  8
0
 10
1.013984
 20
828.817810
  0
VERTEX
  8
0
 10
1.052422
 20
827.133423
  0
VERTEX
  8
0
 10
1.145391
 20
824.806885
  0
VERTEX
  8
0
 10
1.318828
 20
821.837158
  0
VERTEX
  8
0
 10
1.950781
 20
813.267822
  0
VERTEX
  8
0
 10
2.308984
 20
807.934265
  0
VERTEX
  8
0
 10
5.316640
 20
807.759338
  0
VERTEX
  8
0
 10
5.957578
 20
800.323547
  0
VERTEX
  8
0
 10
6.777266
 20
789.105591
  0
VERTEX
  8
0
 10
7.637187
 20
778.491089
  0
VERTEX
  8
0
 10
25.455156
 20
779.406067
  0
VERTEX
  8
0
 10
29.215702
 20
779.578186
  0
VERTEX
  8
0
 10
32.513985
 20
779.708435
  0
VERTEX
  8
0
 10
37.092110
 20
779.857422
  0
VERTEX
  8
0
 10
42.976875
 20
780.007935
  0
VERTEX
  8
0
 10
48.769688
 20
780.117249
  0
VERTEX
  8
0
 10
53.158047
 20
780.168396
  0
VERTEX
  8
0
 10
58.082809
 20
780.167786
  0
VERTEX
  8
0
 10
60.633514
 20
780.135986
  0
VERTEX
  8
0
 10
63.375702
 20
780.079834
  0
VERTEX
  8
0
 10
69.791168
 20
779.886047
  0
VERTEX
  8
0
 10
84.282967
 20
779.352478
  0
VERTEX
  8
0
 10
89.243668
 20
779.193604
  0
VERTEX
  8
0
 10
91.635620
 20
779.135925
  0
VERTEX
  8
0
 10
94.286247
 20
779.093811
  0
VERTEX
  8
0
 10
98.947182
 20
779.083191
  0
SEQEND
  8
0
  0
POLYLINE
  8
0
  0
VERTEX
  8
0
 10
53.587734
 20
849.600891
  0
VERTEX
  8
0
 10
53.587734
 20
834.168701
  0
VERTEX
  8
0
 10
53.587734
 20
814.878601
  0
VERTEX
  8
0
 10
53.587734
 20
799.446411
  0
VERTEX
  8
0
 10
53.587734
 20
780.156250
  0
SEQEND
  8
0
  0
POLYLINE
  8
0
  0
VERTEX
  8
0
 10
72.590469
 20
808.880432
  0
VERTEX
  8
0
 10
72.203667
 20
798.847229
  0
VERTEX
  8
0
 10
61.681091
 20
798.715515
  0
SEQEND
  8
0
  0
POLYLINE
  8
0
  0
VERTEX
  8
0
 10
33.349529
 20
808.926697
  0
VERTEX
  8
0
 10
33.744923
 20
798.658875
  0
VERTEX
  8
0
 10
44.220078
 20
798.534363
  0
SEQEND
  8
0
  0
POLYLINE
  8
0
  0
VERTEX
  8
0
 10
100.737968
 20
808.128235
  0
VERTEX
  8
0
 10
101.072182
 20
813.190735
  0
VERTEX
  8
0
 10
101.887032
 20
824.911987
  0
VERTEX
  8
0
 10
102.093124
 20
828.616699
  0
VERTEX
  8
0
 10
102.189064
 20
831.421082
  0
VERTEX
  8
0
 10
102.203278
 20
832.865540
  0
VERTEX
  8
0
 10
102.181557
 20
834.517151
  0
VERTEX
  8
0
 10
102.125778
 20
835.987854
  0
VERTEX
  8
0
 10
102.029060
 20
837.498108
  0
VERTEX
  8
0
 10
101.910934
 20
838.731628
  0
VERTEX
  8
0
 10
101.786247
 20
839.603394
  0
VERTEX
  8
0
 10
101.625313
 20
840.393127
  0
VERTEX
  8
0
 10
101.416557
 20
841.154358
  0
VERTEX
  8
0
 10
101.265312
 20
841.607178
  0
VERTEX
  8
0
 10
101.093437
 20
842.055237
  0
VERTEX
  8
0
 10
100.759216
 20
842.786682
  0
VERTEX
  8
0
 10
100.529060
 20
843.213745
  0
VERTEX
  8
0
 10
100.275307
 20
843.629517
  0
VERTEX
  8
0
 10
99.996246
 20
844.032654
  0
VERTEX
  8
0
 10
99.794838
 20
844.293396
  0
VERTEX
  8
0
 10
99.467186
 20
844.671326
  0
VERTEX
  8
0
 10
99.230621
 20
844.913757
  0
VERTEX
  8
0
 10
98.710152
 20
845.373413
  0
VERTEX
  8
0
 10
98.121635
 20
845.796143
  0
VERTEX
  8
0
 10
97.803276
 20
845.992615
  0
VERTEX
  8
0
 10
97.302650
 20
846.267639
  0
VERTEX
  8
0
 10
96.428673
 20
846.671082
  0
VERTEX
  8
0
 10
95.540855
 20
847.001404
  0
VERTEX
  8
0
 10
94.666870
 20
847.254639
  0
VERTEX
  8
0
 10
93.931480
 20
847.406006
  0
VERTEX
  8
0
 10
93.099525
 20
847.517700
  0
VERTEX
  8
0
 10
91.832657
 20
847.610107
  0
VERTEX
  8
0
 10
90.573830
 20
847.652893
  0
VERTEX
  8
0
 10
88.732811
 20
847.671875
  0
VERTEX
  8
0
 10
85.888046
 20
847.639221
  0
VERTEX
  8
0
 10
83.036873
 20
847.544373
  0
VERTEX
  8
0
 10
80.640388
 20
847.424072
  0
VERTEX
  8
0
 10
73.622734
 20
847.021606
  0
VERTEX
  8
0
 10
69.496559
 20
846.844177
  0
VERTEX
  8
0
 10
67.258667
 20
846.779968
  0
VERTEX
  8
0
 10
64.888908
 20
846.734985
  0
VERTEX
  8
0
 10
58.954609
 20
846.686401
  0
VERTEX
  8
0
 10
53.633747
 20
846.679688
  0
VERTEX
  8
0
 10
48.577888
 20
846.696838
  0
VERTEX
  8
0
 10
44.072422
 20
846.737793
  0
VERTEX
  8
0
 10
40.309139
 20
846.793701
  0
VERTEX
  8
0
 10
35.527733
 20
846.892944
  0
VERTEX
  8
0
 10
30.106796
 20
847.036255
  0
VERTEX
  8
0
 10
25.587421
 20
847.180969
  0
VERTEX
  8
0
 10
19.861797
 20
847.395996
  0
VERTEX
  8
0
 10
18.733437
 20
847.418091
  0
VERTEX
  8
0
 10
17.658905
 20
847.413086
  0
VERTEX
  8
0
 10
16.333281
 20
847.368591
  0
VERTEX
  8
0
 10
15.038828
 20
847.283936
  0
VERTEX
  8
0
 10
13.788280
 20
847.161926
  0
VERTEX
  8
0
 10
12.596641
 20
847.003967
  0
VERTEX
  8
0
 10
11.486094
 20
846.807007
  0
VERTEX
  8
0
 10
10.672343
 20
846.618591
  0
VERTEX
  8
0
 10
9.938281
 20
846.400269
  0
VERTEX
  8
0
 10
9.604453
 20
846.279358
  0
VERTEX
  8
0
 10
9.142578
 20
846.082947
  0
VERTEX
  8
0
 10
8.588437
 20
845.793213
  0
VERTEX
  8
0
 10
8.090312
 20
845.471680
  0
VERTEX
  8
0
 10
7.631953
 20
845.118591
  0
VERTEX
  8
0
 10
7.198750
 20
844.734192
  0
VERTEX
  8
0
 10
6.787422
 20
844.321716
  0
VERTEX
  8
0
 10
6.308516
 20
843.773132
  0
VERTEX
  8
0
 10
5.874063
 20
843.195923
  0
VERTEX
  8
0
 10
5.562031
 20
842.717163
  0
VERTEX
  8
0
 10
5.281953
 20
842.205322
  0
VERTEX
  8
0
 10
5.092187
 20
841.782654
  0
VERTEX
  8
0
 10
4.919297
 20
841.313354
  0
VERTEX
  8
0
 10
4.762734
 20
840.785461
  0
VERTEX
  8
0
 10
4.622109
 20
840.186829
  0
VERTEX
  8
0
 10
4.496797
 20
839.507629
  0
VERTEX
  8
0
 10
4.386406
 20
838.740601
  0
VERTEX
  8
0
 10
4.290390
 20
837.878784
  0
VERTEX
  8
0
 10
4.183672
 20
836.570618
  0
VERTEX
  8
0
 10
4.118984
 20
835.461182
  0
VERTEX
  8
0
 10
4.029140
 20
832.896729
  0
VERTEX
  8
0
 10
4.008203
 20
831.457947
  0
VERTEX
  8
0
 10
4.006797
 20
829.930054
  0
VERTEX
  8
0
 10
4.027578
 20
828.324646
  0
VERTEX
  8
0
 10
4.073281
 20
826.653503
  0
VERTEX
  8
0
 10
4.175859
 20
824.345459
  0
VERTEX
  8
0
 10
4.316797
 20
821.997192
  0
VERTEX
  8
0
 10
4.943359
 20
813.481140
  0
VERTEX
  8
0
 10
5.301953
 20
808.139832
  0
SEQEND
  8
0
  0
POLYLINE
  8
0
  0
VERTEX
  8
0
 10
53.394138
 20
848.667969
  0
VERTEX
  8
0
 10
52.915859
 20
848.572815
  0
VERTEX
  8
0
 10
52.510311
 20
848.301880
  0
VERTEX
  8
0
 10
52.239296
 20
847.896362
  0
VERTEX
  8
0
 10
52.144138
 20
847.417969
  0
VERTEX
  8
0
 10
52.239296
 20
846.939697
  0
VERTEX
  8
0
 10
52.510311
 20
846.534119
  0
VERTEX
  8
0
 10
52.915859
 20
846.263123
  0
VERTEX
  8
0
 10
53.394138
 20
846.167969
  0
VERTEX
  8
0
 10
53.872498
 20
846.263123
  0
VERTEX
  8
0
 10
54.278046
 20
846.534119
  0
VERTEX
  8
0
 10
54.549061
 20
846.939697
  0
VERTEX
  8
0
 10
54.644138
 20
847.417969
  0
VERTEX
  8
0
 10
54.549061
 20
847.896362
  0
VERTEX
  8
0
 10
54.278046
 20
848.301880
  0
VERTEX
  8
0
 10
53.872498
 20
848.572815
  0
VERTEX
  8
0
 10
53.394138
 20
848.667969
  0
SEQEND
  8
0
  0
POLYLINE
  8
0
  0
VERTEX
  8
0
 10
53.572422
 20
783.914612
  0
VERTEX
  8
0
 10
53.094063
 20
783.819458
  0
VERTEX
  8
0
 10
52.688515
 20
783.548401
  0
VERTEX
  8
0
 10
52.417576
 20
783.142944
  0
VERTEX
  8
0
 10
52.322422
 20
782.664612
  0
VERTEX
  8
0
 10
52.417576
 20
782.186218
  0
VERTEX
  8
0
 10
52.688515
 20
781.780762
  0
VERTEX
  8
0
 10
53.094063
 20
781.509766
  0
VERTEX
  8
0
 10
53.572422
 20
781.414612
  0
VERTEX
  8
0
 10
54.050781
 20
781.509766
  0
VERTEX
  8
0
 10
54.456326
 20
781.780762
  0
VERTEX
  8
0
 10
54.727264
 20
782.186218
  0
VERTEX
  8
0
 10
54.822422
 20
782.664612
  0
VERTEX
  8
0
 10
54.727264
 20
783.142944
  0
VERTEX
  8
0
 10
54.456326
 20
783.548401
  0
VERTEX
  8
0
 10
54.050781
 20
783.819458
  0
VERTEX
  8
0
 10
53.572422
 20
783.914612
  0
SEQEND
  8
0
  0
POLYLINE
  8
0
  0
VERTEX
  8
0
 10
107.121170
 20
178.908279
  0
VERTEX
  8
0
 10
107.060074
 20
194.284286
  0
VERTEX
  8
0
 10
106.983673
 20
213.504288
  0
VERTEX
  8
0
 10
106.922501
 20
228.880310
  0
VERTEX
  8
0
 10
106.846016
 20
248.100388
  0
VERTEX
  8
0
 10
125.028671
 20
248.752411
  0
VERTEX
  8
0
 10
125.041168
 20
233.231476
  0
VERTEX
  8
0
 10
125.056870
 20
213.830383
  0
VERTEX
  8
0
 10
125.069450
 20
198.309448
  0
VERTEX
  8
0
 10
125.085075
 20
178.908279
  0
VERTEX
  8
0
 10
107.121170
 20
178.908279
  0
SEQEND
  8
0
  0
POLYLINE
  8
0
  0
VERTEX
  8
0
 10
119.663353
 20
193.212341
  0
VERTEX
  8
0
 10
113.245934
 20
193.086945
  0
SEQEND
  8
0
  0
POLYLINE
  8
0
  0
VERTEX
  8
0
 10
119.839447
 20
220.488205
  0
VERTEX
  8
0
 10
112.144295
 20
220.363510
  0
SEQEND
  8
0
  0
POLYLINE
  8
0
  0
VERTEX
  8
0
 10
108.768280
 20
394.942108
  0
VERTEX
  8
0
 10
108.996483
 20
397.773102
  0
VERTEX
  8
0
 10
109.211876
 20
399.791870
  0
VERTEX
  8
0
 10
109.305466
 20
400.450073
  0
VERTEX
  8
0
 10
109.444374
 20
401.251251
  0
VERTEX
  8
0
 10
109.560463
 20
401.809204
  0
VERTEX
  8
0
 10
109.733513
 20
402.517090
  0
VERTEX
  8
0
 10
109.929840
 20
403.208038
  0
VERTEX
  8
0
 10
110.154373
 20
403.905060
  0
VERTEX
  8
0
 10
110.421089
 20
404.618744
  0
VERTEX
  8
0
 10
110.658432
 20
405.169220
  0
VERTEX
  8
0
 10
110.935463
 20
405.736176
  0
VERTEX
  8
0
 10
111.258904
 20
406.322571
  0
VERTEX
  8
0
 10
111.634995
 20
406.931091
  0
VERTEX
  8
0
 10
112.062729
 20
407.559692
  0
VERTEX
  8
0
 10
112.536484
 20
408.203125
  0
VERTEX
  8
0
 10
113.229843
 20
409.075226
  0
VERTEX
  8
0
 10
113.788750
 20
409.733124
  0
VERTEX
  8
0
 10
114.575073
 20
410.605682
  0
VERTEX
  8
0
 10
115.401245
 20
411.464996
  0
VERTEX
  8
0
 10
116.048203
 20
412.099457
  0
VERTEX
  8
0
 10
116.720230
 20
412.724457
  0
VERTEX
  8
0
 10
117.418671
 20
413.339600
  0
VERTEX
  8
0
 10
118.645157
 20
414.341003
  0
VERTEX
  8
0
 10
119.942734
 20
415.312012
  0
VERTEX
  8
0
 10
121.009369
 20
416.068970
  0
VERTEX
  8
0
 10
124.157967
 20
418.250214
  0
VERTEX
  8
0
 10
126.009605
 20
419.586487
  0
VERTEX
  8
0
 10
127.305542
 20
420.589600
  0
VERTEX
  8
0
 10
128.121475
 20
421.300690
  0
VERTEX
  8
0
 10
128.446167
 20
421.623413
  0
VERTEX
  8
0
 10
128.815002
 20
422.040527
  0
VERTEX
  8
0
 10
129.131943
 20
422.462555
  0
VERTEX
  8
0
 10
129.416245
 20
422.908661
  0
VERTEX
  8
0
 10
129.669601
 20
423.386475
  0
VERTEX
  8
0
 10
129.837494
 20
423.768494
  0
VERTEX
  8
0
 10
130.029922
 20
424.313507
  0
VERTEX
  8
0
 10
130.149139
 20
424.751556
  0
VERTEX
  8
0
 10
130.296555
 20
425.542816
  0
VERTEX
  8
0
 10
130.375702
 20
426.414978
  0
VERTEX
  8
0
 10
130.381866
 20
427.372894
  0
VERTEX
  8
0
 10
130.331009
 20
428.204132
  0
VERTEX
  8
0
 10
130.228119
 20
429.118347
  0
VERTEX
  8
0
 10
130.071564
 20
430.184143
  0
VERTEX
  8
0
 10
129.087265
 20
436.106079
  0
VERTEX
  8
0
 10
128.529999
 20
439.695068
  0
VERTEX
  8
0
 10
128.093124
 20
442.817810
  0
VERTEX
  8
0
 10
127.800468
 20
445.239746
  0
VERTEX
  8
0
 10
127.525391
 20
448.088043
  0
VERTEX
  8
0
 10
127.344917
 20
450.762085
  0
VERTEX
  8
0
 10
127.251244
 20
453.292267
  0
VERTEX
  8
0
 10
127.236244
 20
455.707886
  0
VERTEX
  8
0
 10
127.260620
 20
457.111633
  0
VERTEX
  8
0
 10
127.306717
 20
458.485840
  0
VERTEX
  8
0
 10
127.453903
 20
461.161774
  0
VERTEX
  8
0
 10
127.697731
 20
464.197815
  0
VERTEX
  8
0
 10
127.967812
 20
466.770142
  0
VERTEX
  8
0
 10
128.242966
 20
468.924286
  0
VERTEX
  8
0
 10
128.638428
 20
471.548828
  0
VERTEX
  8
0
 10
129.077972
 20
474.143036
  0
VERTEX
  8
0
 10
130.007660
 20
479.320862
  0
VERTEX
  8
0
 10
130.325470
 20
481.243652
  0
VERTEX
  8
0
 10
130.519531
 20
482.752869
  0
VERTEX
  8
0
 10
130.561249
 20
483.290070
  0
VERTEX
  8
0
 10
130.576721
 20
483.779358
  0
VERTEX
  8
0
 10
130.555313
 20
484.381165
  0
VERTEX
  8
0
 10
130.458115
 20
485.098419
  0
VERTEX
  8
0
 10
130.279053
 20
485.829193
  0
VERTEX
  8
0
 10
130.015305
 20
486.575836
  0
VERTEX
  8
0
 10
129.741562
 20
487.169769
  0
VERTEX
  8
0
 10
129.410706
 20
487.748260
  0
VERTEX
  8
0
 10
129.019135
 20
488.303040
  0
VERTEX
  8
0
 10
128.544052
 20
488.850677
  0
VERTEX
  8
0
 10
128.113358
 20
489.274750
  0
VERTEX
  8
0
 10
127.783119
 20
489.570679
  0
VERTEX
  8
0
 10
127.212807
 20
490.044037
  0
VERTEX
  8
0
 10
126.540306
 20
490.563660
  0
VERTEX
  8
0
 10
125.188591
 20
491.545837
  0
VERTEX
  8
0
 10
121.456558
 20
494.157715
  0
VERTEX
  8
0
 10
120.028198
 20
495.188354
  0
VERTEX
  8
0
 10
118.508278
 20
496.346161
  0
VERTEX
  8
0
 10
117.147812
 20
497.464905
  0
VERTEX
  8
0
 10
116.509995
 20
498.025391
  0
VERTEX
  8
0
 10
115.694527
 20
498.781464
  0
VERTEX
  8
0
 10
115.110703
 20
499.352875
  0
VERTEX
  8
0
 10
114.372421
 20
500.116791
  0
VERTEX
  8
0
 10
113.683510
 20
500.878510
  0
VERTEX
  8
0
 10
113.047653
 20
501.633514
  0
VERTEX
  8
0
 10
112.467186
 20
502.381622
  0
VERTEX
  8
0
 10
112.068359
 20
502.940857
  0
VERTEX
  8
0
 10
111.701088
 20
503.500549
  0
VERTEX
  8
0
 10
111.365547
 20
504.062714
  0
VERTEX
  8
0
 10
111.061874
 20
504.629272
  0
VERTEX
  8
0
 10
110.789764
 20
505.202728
  0
VERTEX
  8
0
 10
110.545937
 20
505.787872
  0
VERTEX
  8
0
 10
110.326485
 20
506.389923
  0
VERTEX
  8
0
 10
110.127731
 20
507.014130
  0
VERTEX
  8
0
 10
109.888275
 20
507.890228
  0
VERTEX
  8
0
 10
109.669922
 20
508.826630
  0
VERTEX
  8
0
 10
109.424843
 20
510.058807
  0
VERTEX
  8
0
 10
109.257263
 20
511.047089
  0
VERTEX
  8
0
 10
109.092499
 20
512.221130
  0
VERTEX
  8
0
 10
109.002655
 20
513.064880
  0
VERTEX
  8
0
 10
108.948746
 20
513.813171
  0
VERTEX
  8
0
 10
108.918594
 20
514.648987
  0
VERTEX
  8
0
 10
108.914063
 20
515.703186
  0
VERTEX
  8
0
 10
105.341560
 20
514.586792
  0
VERTEX
  8
0
 10
103.754921
 20
514.057434
  0
VERTEX
  8
0
 10
102.583588
 20
513.643005
  0
VERTEX
  8
0
 10
101.054375
 20
513.060852
  0
VERTEX
  8
0
 10
99.945313
 20
512.604126
  0
VERTEX
  8
0
 10
98.887184
 20
512.136963
  0
VERTEX
  8
0
 10
97.896797
 20
511.666168
  0
VERTEX
  8
0
 10
96.991013
 20
511.198029
  0
VERTEX
  8
0
 10
96.186874
 20
510.739594
  0
VERTEX
  8
0
 10
95.499527
 20
510.295837
  0
VERTEX
  8
0
 10
94.925934
 20
509.861481
  0
VERTEX
  8
0
 10
94.599060
 20
509.570374
  0
VERTEX
  8
0
 10
94.180779
 20
509.121643
  0
VERTEX
  8
0
 10
93.835152
 20
508.646149
  0
VERTEX
  8
0
 10
93.546875
 20
508.130859
  0
VERTEX
  8
0
 10
93.300392
 20
507.562256
  0
VERTEX
  8
0
 10
93.019295
 20
506.714600
  0
VERTEX
  8
0
 10
92.839142
 20
506.021484
  0
VERTEX
  8
0
 10
92.633667
 20
505.037262
  0
VERTEX
  8
0
 10
92.460464
 20
504.002869
  0
VERTEX
  8
0
 10
92.278358
 20
502.665863
  0
VERTEX
  8
0
 10
92.160072
 20
501.542419
  0
VERTEX
  8
0
 10
92.072029
 20
500.328491
  0
VERTEX
  8
0
 10
92.019844
 20
498.983337
  0
VERTEX
  8
0
 10
92.008904
 20
497.466949
  0
VERTEX
  8
0
 10
92.037811
 20
495.767731
  0
VERTEX
  8
0
 10
92.213982
 20
489.552582
  0
VERTEX
  8
0
 10
92.236015
 20
487.142883
  0
VERTEX
  8
0
 10
92.222420
 20
484.878571
  0
VERTEX
  8
0
 10
92.165466
 20
482.150055
  0
VERTEX
  8
0
 10
92.072495
 20
479.909119
  0
VERTEX
  8
0
 10
92.008591
 20
479.097870
  0
VERTEX
  8
0
 10
91.948433
 20
478.590698
  0
VERTEX
  8
0
 10
91.875076
 20
478.150543
  0
VERTEX
  8
0
 10
91.786011
 20
477.760223
  0
VERTEX
  8
0
 10
91.675308
 20
477.406555
  0
VERTEX
  8
0
 10
91.585464
 20
477.185760
  0
VERTEX
  8
0
 10
91.420860
 20
476.869202
  0
VERTEX
  8
0
 10
91.287651
 20
476.663361
  0
VERTEX
  8
0
 10
91.132965
 20
476.457886
  0
VERTEX
  8
0
 10
90.855309
 20
476.143494
  0
VERTEX
  8
0
 10
90.256088
 20
475.582794
  0
VERTEX
  8
0
 10
89.493904
 20
474.981018
  0
VERTEX
  8
0
 10
88.588905
 20
474.357422
  0
VERTEX
  8
0
 10
87.775620
 20
473.855682
  0
VERTEX
  8
0
 10
85.559608
 20
472.590057
  0
VERTEX
  8
0
 10
84.919060
 20
472.181396
  0
VERTEX
  8
0
 10
84.516251
 20
471.894897
  0
VERTEX
  8
0
 10
83.962502
 20
471.438965
  0
VERTEX
  8
0
 10
83.634216
 20
471.114838
  0
VERTEX
  8
0
 10
83.201874
 20
470.596954
  0
VERTEX
  8
0
 10
82.835312
 20
470.040680
  0
VERTEX
  8
0
 10
82.623749
 20
469.648346
  0
VERTEX
  8
0
 10
82.435936
 20
469.238647
  0
VERTEX
  8
0
 10
82.269608
 20
468.811615
  0
VERTEX
  8
0
 10
82.122658
 20
468.367035
  0
VERTEX
  8
0
 10
81.878357
 20
467.423828
  0
VERTEX
  8
0
 10
81.691246
 20
466.385071
  0
VERTEX
  8
0
 10
81.555313
 20
465.204529
  0
VERTEX
  8
0
 10
81.464531
 20
463.835083
  0
VERTEX
  8
0
 10
81.413124
 20
462.229431
  0
VERTEX
  8
0
 10
81.394997
 20
460.362091
  0
VERTEX
  8
0
 10
81.414528
 20
457.208649
  0
VERTEX
  8
0
 10
81.478745
 20
453.324219
  0
VERTEX
  8
0
 10
81.579689
 20
448.646942
  0
VERTEX
  8
0
 10
81.677498
 20
445.674530
  0
VERTEX
  8
0
 10
81.766792
 20
444.094513
  0
VERTEX
  8
0
 10
81.855858
 20
443.174591
  0
VERTEX
  8
0
 10
81.908356
 20
442.805847
  0
VERTEX
  8
0
 10
81.999451
 20
442.340149
  0
VERTEX
  8
0
 10
82.069527
 20
442.074219
  0
VERTEX
  8
0
 10
82.190620
 20
441.718414
  0
VERTEX
  8
0
 10
82.333435
 20
441.386322
  0
VERTEX
  8
0
 10
82.501404
 20
441.057495
  0
VERTEX
  8
0
 10
82.698982
 20
440.729523
  0
VERTEX
  8
0
 10
82.931091
 20
440.401398
  0
VERTEX
  8
0
 10
83.202339
 20
440.072174
  0
VERTEX
  8
0
 10
83.517502
 20
439.740845
  0
VERTEX
  8
0
 10
83.754295
 20
439.518280
  0
VERTEX
  8
0
 10
84.150780
 20
439.181946
  0
VERTEX
  8
0
 10
84.903748
 20
438.620941
  0
VERTEX
  8
0
 10
85.911095
 20
437.964203
  0
VERTEX
  8
0
 10
86.791245
 20
437.446716
  0
VERTEX
  8
0
 10
88.354530
 20
436.576019
  0
VERTEX
  8
0
 10
89.163200
 20
436.082336
  0
VERTEX
  8
0
 10
89.613594
 20
435.768341
  0
VERTEX
  8
0
 10
89.895935
 20
435.548187
  0
VERTEX
  8
0
 10
90.415390
 20
435.076630
  0
VERTEX
  8
0
 10
90.764214
 20
434.691956
  0
VERTEX
  8
0
 10
90.976875
 20
434.418823
  0
VERTEX
  8
0
 10
91.265152
 20
433.981628
  0
VERTEX
  8
0
 10
91.436562
 20
433.670380
  0
VERTEX
  8
0
 10
91.591011
 20
433.342255
  0
VERTEX
  8
0
 10
91.790855
 20
432.818665
  0
VERTEX
  8
0
 10
91.954605
 20
432.267181
  0
VERTEX
  8
0
 10
92.085152
 20
431.700226
  0
VERTEX
  8
0
 10
92.185234
 20
431.130157
  0
VERTEX
  8
0
 10
92.276016
 20
430.386780
  0
VERTEX
  8
0
 10
92.324135
 20
429.686951
  0
VERTEX
  8
0
 10
92.337105
 20
428.999908
  0
VERTEX
  8
0
 10
92.154610
 20
422.861786
  0
VERTEX
  8
0
 10
92.022652
 20
416.537659
  0
VERTEX
  8
0
 10
91.981873
 20
412.542328
  0
VERTEX
  8
0
 10
91.989998
 20
410.963898
  0
VERTEX
  8
0
 10
92.019684
 20
409.530396
  0
VERTEX
  8
0
 10
92.075935
 20
408.243591
  0
VERTEX
  8
0
 10
92.138588
 20
407.367249
  0
VERTEX
  8
0
 10
92.221329
 20
406.560944
  0
VERTEX
  8
0
 10
92.326401
 20
405.818817
  0
VERTEX
  8
0
 10
92.456169
 20
405.135529
  0
VERTEX
  8
0
 10
92.611954
 20
404.505707
  0
VERTEX
  8
0
 10
92.792183
 20
403.925537
  0
VERTEX
  8
0
 10
92.994370
 20
403.391632
  0
VERTEX
  8
0
 10
93.294136
 20
402.745392
  0
VERTEX
  8
0
 10
93.455231
 20
402.448181
  0
VERTEX
  8
0
 10
93.709061
 20
402.031708
  0
VERTEX
  8
0
 10
94.072891
 20
401.523834
  0
VERTEX
  8
0
 10
94.493355
 20
401.052185
  0
VERTEX
  8
0
 10
95.004997
 20
400.596008
  0
VERTEX
  8
0
 10
95.469452
 20
400.251465
  0
VERTEX
  8
0
 10
96.224060
 20
399.772186
  0
VERTEX
  8
0
 10
96.903122
 20
399.391083
  0
VERTEX
  8
0
 10
97.954140
 20
398.858887
  0
VERTEX
  8
0
 10
99.161797
 20
398.306946
  0
VERTEX
  8
0
 10
100.515465
 20
397.743805
  0
VERTEX
  8
0
 10
101.620079
 20
397.319275
  0
VERTEX
  8
0
 10
102.793434
 20
396.895386
  0
VERTEX
  8
0
 10
104.444374
 20
396.331238
  0
VERTEX
  8
0
 10
108.768280
 20
394.942108
  0
SEQEND
  8
0
  0
POLYLINE
  8
0
  0
VERTEX
  8
0
 10
127.268982
 20
455.302246
  0
VERTEX
  8
0
 10
117.102028
 20
455.302246
  0
VERTEX
  8
0
 10
104.393280
 20
455.302246
  0
VERTEX
  8
0
 10
94.226326
 20
455.302246
  0
VERTEX
  8
0
 10
81.517578
 20
455.302246
  0
SEQEND
  8
0
  0
POLYLINE
  8
0
  0
VERTEX
  8
0
 10
99.219528
 20
452.344910
  0
VERTEX
  8
0
 10
99.377655
 20
457.959991
  0
SEQEND
  8
0
  0
POLYLINE
  8
0
  0
VERTEX
  8
0
 10
118.606560
 20
451.497101
  0
VERTEX
  8
0
 10
118.634529
 20
458.805847
  0
SEQEND
  8
0
  0
POLYLINE
  8
0
  0
VERTEX
  8
0
 10
104.783669
 20
395.291321
  0
VERTEX
  8
0
 10
105.018829
 20
398.258820
  0
VERTEX
  8
0
 10
105.127892
 20
399.376617
  0
VERTEX
  8
0
 10
105.252029
 20
400.425293
  0
VERTEX
  8
0
 10
105.357498
 20
401.157715
  0
VERTEX
  8
0
 10
105.518120
 20
402.074524
  0
VERTEX
  8
0
 10
105.705078
 20
402.945923
  0
VERTEX
  8
0
 10
105.922501
 20
403.796722
  0
VERTEX
  8
0
 10
106.174530
 20
404.651642
  0
VERTEX
  8
0
 10
106.468979
 20
405.528259
  0
VERTEX
  8
0
 10
106.726639
 20
406.202179
  0
VERTEX
  8
0
 10
107.023354
 20
406.891022
  0
VERTEX
  8
0
 10
107.365776
 20
407.595703
  0
VERTEX
  8
0
 10
107.760704
 20
408.316864
  0
VERTEX
  8
0
 10
108.214142
 20
409.055084
  0
VERTEX
  8
0
 10
108.724060
 20
409.807190
  0
VERTEX
  8
0
 10
109.283356
 20
410.567719
  0
VERTEX
  8
0
 10
109.884842
 20
411.331329
  0
VERTEX
  8
0
 10
110.521248
 20
412.092407
  0
VERTEX
  8
0
 10
111.185387
 20
412.845459
  0
VERTEX
  8
0
 10
111.870392
 20
413.585388
  0
VERTEX
  8
0
 10
112.574219
 20
414.309601
  0
VERTEX
  8
0
 10
113.297890
 20
415.017792
  0
VERTEX
  8
0
 10
114.042267
 20
415.709442
  0
VERTEX
  8
0
 10
115.331871
 20
416.823975
  0
VERTEX
  8
0
 10
116.136482
 20
417.469116
  0
VERTEX
  8
0
 10
116.961479
 20
418.096252
  0
VERTEX
  8
0
 10
118.356010
 20
419.101929
  0
VERTEX
  8
0
 10
121.054291
 20
420.969604
  0
VERTEX
  8
0
 10
122.494370
 20
421.987335
  0
VERTEX
  8
0
 10
123.710388
 20
422.878510
  0
VERTEX
  8
0
 10
124.630386
 20
423.592010
  0
VERTEX
  8
0
 10
125.302025
 20
424.178040
  0
VERTEX
  8
0
 10
125.541557
 20
424.426636
  0
VERTEX
  8
0
 10
125.714447
 20
424.637573
  0
VERTEX
  8
0
 10
125.881325
 20
424.878662
  0
VERTEX
  8
0
 10
126.018204
 20
425.124603
  0
VERTEX
  8
0
 10
126.131012
 20
425.403259
  0
VERTEX
  8
0
 10
126.207657
 20
425.668182
  0
VERTEX
  8
0
 10
126.314995
 20
426.264771
  0
VERTEX
  8
0
 10
126.357498
 20
426.948669
  0
VERTEX
  8
0
 10
126.336716
 20
427.666931
  0
VERTEX
  8
0
 10
126.247963
 20
428.551636
  0
VERTEX
  8
0
 10
126.036713
 20
429.983673
  0
VERTEX
  8
0
 10
125.036560
 20
436.079285
  0
VERTEX
  8
0
 10
124.472656
 20
439.779602
  0
VERTEX
  8
0
 10
124.038277
 20
442.973267
  0
VERTEX
  8
0
 10
123.692963
 20
446.034210
  0
VERTEX
  8
0
 10
123.489449
 20
448.350372
  0
VERTEX
  8
0
 10
123.346718
 20
450.562500
  0
VERTEX
  8
0
 10
123.261322
 20
452.683502
  0
VERTEX
  8
0
 10
123.229530
 20
455.226471
  0
VERTEX
  8
0
 10
123.246483
 20
456.702576
  0
VERTEX
  8
0
 10
123.287186
 20
458.146149
  0
VERTEX
  8
0
 10
123.428749
 20
460.951477
  0
VERTEX
  8
0
 10
123.672028
 20
464.121155
  0
VERTEX
  8
0
 10
123.845078
 20
465.903046
  0
VERTEX
  8
0
 10
123.992966
 20
467.234436
  0
VERTEX
  8
0
 10
124.276947
 20
469.458740
  0
VERTEX
  8
0
 10
124.682808
 20
472.155212
  0
VERTEX
  8
0
 10
125.054527
 20
474.368256
  0
VERTEX
  8
0
 10
125.935860
 20
479.319122
  0
VERTEX
  8
0
 10
126.297188
 20
481.470215
  0
VERTEX
  8
0
 10
126.480156
 20
482.783203
  0
VERTEX
  8
0
 10
126.528358
 20
483.313416
  0
VERTEX
  8
0
 10
126.541016
 20
483.722412
  0
VERTEX
  8
0
 10
126.515388
 20
484.119843
  0
VERTEX
  8
0
 10
126.453979
 20
484.458984
  0
VERTEX
  8
0
 10
126.361404
 20
484.793335
  0
VERTEX
  8
0
 10
126.228119
 20
485.133179
  0
VERTEX
  8
0
 10
126.042572
 20
485.483185
  0
VERTEX
  8
0
 10
125.848045
 20
485.774048
  0
VERTEX
  8
0
 10
125.586403
 20
486.090546
  0
VERTEX
  8
0
 10
125.319603
 20
486.361938
  0
VERTEX
  8
0
 10
124.684059
 20
486.915070
  0
VERTEX
  8
0
 10
123.734062
 20
487.643280
  0
VERTEX
  8
0
 10
122.447495
 20
488.565063
  0
VERTEX
  8
0
 10
119.077728
 20
490.930695
  0
VERTEX
  8
0
 10
117.332886
 20
492.200684
  0
VERTEX
  8
0
 10
115.751167
 20
493.421173
  0
VERTEX
  8
0
 10
114.292183
 20
494.636169
  0
VERTEX
  8
0
 10
113.368904
 20
495.463654
  0
VERTEX
  8
0
 10
112.699921
 20
496.096619
  0
VERTEX
  8
0
 10
111.842110
 20
496.954590
  0
VERTEX
  8
0
 10
111.226250
 20
497.607086
  0
VERTEX
  8
0
 10
110.444374
 20
498.487244
  0
VERTEX
  8
0
 10
109.889374
 20
499.153351
  0
VERTEX
  8
0
 10
109.194839
 20
500.049591
  0
VERTEX
  8
0
 10
108.710541
 20
500.728821
  0
VERTEX
  8
0
 10
108.260078
 20
501.414917
  0
VERTEX
  8
0
 10
107.845467
 20
502.108490
  0
VERTEX
  8
0
 10
107.468750
 20
502.810547
  0
VERTEX
  8
0
 10
107.131012
 20
503.522095
  0
VERTEX
  8
0
 10
106.828979
 20
504.246155
  0
VERTEX
  8
0
 10
106.558357
 20
504.986633
  0
VERTEX
  8
0
 10
106.314995
 20
505.746796
  0
VERTEX
  8
0
 10
106.025307
 20
506.797577
  0
VERTEX
  8
0
 10
105.766716
 20
507.897247
  0
VERTEX
  8
0
 10
105.536095
 20
509.030060
  0
VERTEX
  8
0
 10
105.337654
 20
510.156464
  0
VERTEX
  8
0
 10
105.141563
 20
511.494141
  0
VERTEX
  8
0
 10
105.031639
 20
512.458679
  0
VERTEX
  8
0
 10
104.952026
 20
513.504272
  0
VERTEX
  8
0
 10
104.919762
 20
514.417114
  0
VERTEX
  8
0
 10
104.916557
 20
515.577087
  0
SEQEND
  8
0
  0
POLYLINE
  8
0
  0
VERTEX
  8
0
 10
84.499451
 20
465.029755
  0
VERTEX
  8
0
 10
84.021095
 20
464.934601
  0
VERTEX
  8
0
 10
83.615547
 20
464.663666
  0
VERTEX
  8
0
 10
83.344604
 20
464.258179
  0
VERTEX
  8
0
 10
83.249451
 20
463.779755
  0
VERTEX
  8
0
 10
83.344604
 20
463.301483
  0
VERTEX
  8
0
 10
83.615547
 20
462.895935
  0
VERTEX
  8
0
 10
84.021095
 20
462.624908
  0
VERTEX
  8
0
 10
84.499451
 20
462.529755
  0
VERTEX
  8
0
 10
84.977814
 20
462.624908
  0
VERTEX
  8
0
 10
85.383278
 20
462.895935
  0
VERTEX
  8
0
 10
85.654297
 20
463.301483
  0
VERTEX
  8
0
 10
85.749451
 20
463.779755
  0
VERTEX
  8
0
 10
85.654297
 20
464.258179
  0
VERTEX
  8
0
 10
85.383278
 20
464.663666
  0
VERTEX
  8
0
 10
84.977814
 20
464.934601
  0
VERTEX
  8
0
 10
84.499451
 20
465.029755
  0
SEQEND
  8
0
  0
POLYLINE
  8
0
  0
VERTEX
  8
0
 10
84.420937
 20
448.029449
  0
VERTEX
  8
0
 10
83.942574
 20
447.934296
  0
VERTEX
  8
0
 10
83.537033
 20
447.663361
  0
VERTEX
  8
0
 10
83.266090
 20
447.257813
  0
VERTEX
  8
0
 10
83.170937
 20
446.779449
  0
VERTEX
  8
0
 10
83.266090
 20
446.301086
  0
VERTEX
  8
0
 10
83.537033
 20
445.895538
  0
VERTEX
  8
0
 10
83.942574
 20
445.624603
  0
VERTEX
  8
0
 10
84.420937
 20
445.529449
  0
VERTEX
  8
0
 10
84.899292
 20
445.624603
  0
VERTEX
  8
0
 10
85.304840
 20
445.895538
  0
VERTEX
  8
0
 10
85.575783
 20
446.301086
  0
VERTEX
  8
0
 10
85.670937
 20
446.779449
  0
VERTEX
  8
0
 10
85.575783
 20
447.257813
  0
VERTEX
  8
0
 10
85.304840
 20
447.663361
  0
VERTEX
  8
0
 10
84.899292
 20
447.934296
  0
VERTEX
  8
0
 10
84.420937
 20
448.029449
  0
SEQEND
  8
0
  0
POLYLINE
  8
0
  0
VERTEX
  8
0
 10
124.394997
 20
456.610229
  0
VERTEX
  8
0
 10
123.916641
 20
456.515076
  0
VERTEX
  8
0
 10
123.511093
 20
456.244141
  0
VERTEX
  8
0
 10
123.240150
 20
455.838593
  0
VERTEX
  8
0
 10
123.144997
 20
455.360229
  0
VERTEX
  8
0
 10
123.240150
 20
454.881866
  0
VERTEX
  8
0
 10
123.511093
 20
454.476318
  0
VERTEX
  8
0
 10
123.916641
 20
454.205383
  0
VERTEX
  8
0
 10
124.394997
 20
454.110229
  0
VERTEX
  8
0
 10
124.873360
 20
454.205383
  0
VERTEX
  8
0
 10
125.278900
 20
454.476318
  0
VERTEX
  8
0
 10
125.549843
 20
454.881866
  0
VERTEX
  8
0
 10
125.644997
 20
455.360229
  0
VERTEX
  8
0
 10
125.549843
 20
455.838593
  0
VERTEX
  8
0
 10
125.278900
 20
456.244141
  0
VERTEX
  8
0
 10
124.873360
 20
456.515076
  0
VERTEX
  8
0
 10
124.394997
 20
456.610229
  0
SEQEND
  8
0
  0
POLYLINE
  8
0
  0
VERTEX
  8
0
 10
98.458748
 20
179.094604
  0
VERTEX
  8
0
 10
99.676010
 20
192.834763
  0
VERTEX
  8
0
 10
101.197655
 20
210.009995
  0
VERTEX
  8
0
 10
102.415077
 20
223.750076
  0
VERTEX
  8
0
 10
103.936714
 20
240.925308
  0
VERTEX
  8
0
 10
90.231094
 20
253.279755
  0
VERTEX
  8
0
 10
92.313042
 20
267.993042
  0
VERTEX
  8
0
 10
93.781563
 20
278.566620
  0
VERTEX
  8
0
 10
95.366638
 20
290.246307
  0
VERTEX
  8
0
 10
97.283279
 20
304.500702
  0
VERTEX
  8
0
 10
98.568436
 20
313.866150
  0
VERTEX
  8
0
 10
99.262108
 20
318.738190
  0
VERTEX
  8
0
 10
100.067574
 20
324.098206
  0
VERTEX
  8
0
 10
100.749916
 20
328.372192
  0
VERTEX
  8
0
 10
101.837502
 20
334.949219
  0
VERTEX
  8
0
 10
102.288513
 20
337.888824
  0
VERTEX
  8
0
 10
102.601326
 20
340.112091
  0
VERTEX
  8
0
 10
102.992188
 20
343.101013
  0
VERTEX
  8
0
 10
104.845932
 20
358.513824
  0
VERTEX
  8
0
 10
96.336327
 20
363.396149
  0
VERTEX
  8
0
 10
88.963043
 20
367.607574
  0
VERTEX
  8
0
 10
83.118980
 20
370.923187
  0
VERTEX
  8
0
 10
71.069214
 20
377.722260
  0
VERTEX
  8
0
 10
64.529221
 20
381.444763
  0
VERTEX
  8
0
 10
56.597187
 20
386.021484
  0
VERTEX
  8
0
 10
44.719685
 20
392.941620
  0
VERTEX
  8
0
 10
35.971561
 20
377.041779
  0
VERTEX
  8
0
 10
31.028046
 20
368.031311
  0
VERTEX
  8
0
 10
21.501797
 20
350.579041
  0
VERTEX
  8
0
 10
14.268594
 20
337.356323
  0
VERTEX
  8
0
 10
10.839844
 20
339.138031
  0
VERTEX
  8
0
 10
9.201875
 20
336.410217
  0
VERTEX
  8
0
 10
7.839766
 20
334.095917
  0
VERTEX
  8
0
 10
6.741641
 20
332.167267
  0
VERTEX
  8
0
 10
5.692500
 20
330.246399
  0
VERTEX
  8
0
 10
4.714297
 20
328.373901
  0
VERTEX
  8
0
 10
3.666016
 20
326.258423
  0
VERTEX
  8
0
 10
2.790703
 20
324.359528
  0
VERTEX
  8
0
 10
2.203203
 20
322.951019
  0
VERTEX
  8
0
 10
1.742969
 20
321.679138
  0
VERTEX
  8
0
 10
1.465156
 20
320.746094
  0
VERTEX
  8
0
 10
1.264375
 20
319.875061
  0
VERTEX
  8
0
 10
1.105156
 20
318.847961
  0
VERTEX
  8
0
 10
1.048984
 20
318.250763
  0
VERTEX
  8
0
 10
1.015547
 20
317.658600
  0
VERTEX
  8
0
 10
1.000000
 20
316.456177
  0
VERTEX
  8
0
 10
1.055469
 20
315.594513
  0
VERTEX
  8
0
 10
1.120859
 20
315.128052
  0
VERTEX
  8
0
 10
1.219609
 20
314.629517
  0
VERTEX
  8
0
 10
1.443906
 20
313.808746
  0
VERTEX
  8
0
 10
1.778359
 20
312.882172
  0
VERTEX
  8
0
 10
2.072578
 20
312.195618
  0
VERTEX
  8
0
 10
2.624922
 20
311.061310
  0
VERTEX
  8
0
 10
3.062656
 20
310.241882
  0
VERTEX
  8
0
 10
3.815391
 20
308.930084
  0
VERTEX
  8
0
 10
4.674062
 20
307.533112
  0
VERTEX
  8
0
 10
5.627734
 20
306.067108
  0
VERTEX
  8
0
 10
6.311094
 20
305.059296
  0
VERTEX
  8
0
 10
7.399687
 20
303.512726
  0
VERTEX
  8
0
 10
8.559218
 20
301.926239
  0
VERTEX
  8
0
 10
9.785781
 20
300.295776
  0
VERTEX
  8
0
 10
11.967734
 20
297.469757
  0
VERTEX
  8
0
 10
18.244062
 20
289.483521
  0
VERTEX
  8
0
 10
21.530077
 20
285.255859
  0
VERTEX
  8
0
 10
23.931250
 20
282.085541
  0
VERTEX
  8
0
 10
24.955313
 20
280.690613
  0
VERTEX
  8
0
 10
25.881172
 20
279.395630
  0
VERTEX
  8
0
 10
26.991249
 20
277.784607
  0
VERTEX
  8
0
 10
27.994921
 20
276.257019
  0
VERTEX
  8
0
 10
28.928123
 20
274.763428
  0
VERTEX
  8
0
 10
29.802265
 20
273.293671
  0
VERTEX
  8
0
 10
30.615545
 20
271.858032
  0
VERTEX
  8
0
 10
31.543905
 20
270.126953
  0
VERTEX
  8
0
 10
32.371094
 20
268.483673
  0
VERTEX
  8
0
 10
32.960625
 20
267.228729
  0
VERTEX
  8
0
 10
33.609921
 20
265.713043
  0
VERTEX
  8
0
 10
34.061874
 20
264.526489
  0
VERTEX
  8
0
 10
34.455235
 20
263.348206
  0
VERTEX
  8
0
 10
34.627892
 20
262.755554
  0
VERTEX
  8
0
 10
34.781639
 20
262.155457
  0
VERTEX
  8
0
 10
34.914063
 20
261.543823
  0
VERTEX
  8
0
 10
35.022732
 20
260.916962
  0
VERTEX
  8
0
 10
35.136169
 20
259.939056
  0
VERTEX
  8
0
 10
35.182968
 20
258.904205
  0
VERTEX
  8
0
 10
35.155312
 20
257.799377
  0
VERTEX
  8
0
 10
35.095310
 20
257.025787
  0
VERTEX
  8
0
 10
35.007420
 20
256.235138
  0
VERTEX
  8
0
 10
34.896641
 20
255.439606
  0
VERTEX
  8
0
 10
34.698513
 20
254.263748
  0
VERTEX
  8
0
 10
34.325001
 20
252.451324
  0
VERTEX
  8
0
 10
34.102577
 20
251.519058
  0
VERTEX
  8
0
 10
33.834923
 20
250.516006
  0
VERTEX
  8
0
 10
33.653282
 20
249.922409
  0
VERTEX
  8
0
 10
33.482891
 20
249.436951
  0
VERTEX
  8
0
 10
33.319061
 20
249.034760
  0
VERTEX
  8
0
 10
33.157032
 20
248.690857
  0
VERTEX
  8
0
 10
32.936249
 20
248.281082
  0
VERTEX
  8
0
 10
32.706406
 20
247.898895
  0
VERTEX
  8
0
 10
31.911562
 20
246.738586
  0
VERTEX
  8
0
 10
32.053204
 20
242.545776
  0
VERTEX
  8
0
 10
31.911797
 20
242.253281
  0
VERTEX
  8
0
 10
31.768280
 20
242.001953
  0
VERTEX
  8
0
 10
31.448124
 20
241.565384
  0
VERTEX
  8
0
 10
31.036406
 20
241.119293
  0
VERTEX
  8
0
 10
30.358749
 20
240.489288
  0
VERTEX
  8
0
 10
29.548985
 20
239.818512
  0
VERTEX
  8
0
 10
28.682186
 20
239.175308
  0
VERTEX
  8
0
 10
27.903358
 20
238.674911
  0
VERTEX
  8
0
 10
27.168282
 20
238.271088
  0
VERTEX
  8
0
 10
26.270155
 20
237.840546
  0
VERTEX
  8
0
 10
25.151014
 20
237.361557
  0
VERTEX
  8
0
 10
23.803202
 20
236.830078
  0
VERTEX
  8
0
 10
21.937187
 20
236.138351
  0
VERTEX
  8
0
 10
20.424452
 20
235.604767
  0
VERTEX
  8
0
 10
18.676329
 20
235.018356
  0
VERTEX
  8
0
 10
17.466719
 20
234.635468
  0
VERTEX
  8
0
 10
14.878359
 20
233.849442
  0
VERTEX
  8
0
 10
13.615937
 20
233.444061
  0
VERTEX
  8
0
 10
12.316015
 20
232.986710
  0
VERTEX
  8
0
 10
11.060781
 20
232.489990
  0
VERTEX
  8
0
 10
10.366484
 20
232.179291
  0
VERTEX
  8
0
 10
9.739843
 20
231.863113
  0
VERTEX
  8
0
 10
9.367890
 20
231.651016
  0
VERTEX
  8
0
 10
8.877188
 20
231.334061
  0
VERTEX
  8
0
 10
8.460078
 20
231.022888
  0
VERTEX
  8
0
 10
8.004453
 20
230.625626
  0
VERTEX
  8
0
 10
7.646172
 20
230.259064
  0
VERTEX
  8
0
 10
7.305781
 20
229.851486
  0
VERTEX
  8
0
 10
7.193750
 20
229.679764
  0
VERTEX
  8
0
 10
7.090781
 20
229.479294
  0
VERTEX
  8
0
 10
6.945547
 20
229.089294
  0
VERTEX
  8
0
 10
6.752265
 20
228.316864
  0
VERTEX
  8
0
 10
6.593047
 20
227.477020
  0
VERTEX
  8
0
 10
6.273359
 20
225.464142
  0
VERTEX
  8
0
 10
5.372734
 20
219.272812
  0
VERTEX
  8
0
 10
4.915937
 20
216.286942
  0
VERTEX
  8
0
 10
4.448828
 20
213.467728
  0
VERTEX
  8
0
 10
3.878203
 20
210.316162
  0
VERTEX
  8
0
 10
3.396719
 20
207.881165
  0
VERTEX
  8
0
 10
2.911719
 20
205.610855
  0
VERTEX
  8
0
 10
2.326641
 20
203.046631
  0
VERTEX
  8
0
 10
1.641875
 20
200.171402
  0
VERTEX
  8
0
 10
13.441015
 20
196.239365
  0
VERTEX
  8
0
 10
22.341406
 20
193.325394
  0
VERTEX
  8
0
 10
28.840780
 20
191.268036
  0
VERTEX
  8
0
 10
32.908592
 20
190.021484
  0
VERTEX
  8
0
 10
36.211639
 20
189.031326
  0
VERTEX
  8
0
 10
40.950157
 20
187.643127
  0
VERTEX
  8
0
 10
44.665390
 20
186.581955
  0
VERTEX
  8
0
 10
48.436794
 20
185.531876
  0
VERTEX
  8
0
 10
52.190857
 20
184.518280
  0
VERTEX
  8
0
 10
55.853748
 20
183.566635
  0
VERTEX
  8
0
 10
58.209141
 20
182.978973
  0
VERTEX
  8
0
 10
60.481171
 20
182.433594
  0
VERTEX
  8
0
 10
63.734608
 20
181.694366
  0
VERTEX
  8
0
 10
65.801796
 20
181.253830
  0
VERTEX
  8
0
 10
67.788750
 20
180.854767
  0
VERTEX
  8
0
 10
70.620857
 20
180.333282
  0
VERTEX
  8
0
 10
72.411407
 20
180.036560
  0
VERTEX
  8
0
 10
74.125237
 20
179.780304
  0
VERTEX
  8
0
 10
75.763359
 20
179.564209
  0
VERTEX
  8
0
 10
77.329842
 20
179.386322
  0
VERTEX
  8
0
 10
79.560776
 20
179.183273
  0
VERTEX
  8
0
 10
80.978981
 20
179.085159
  0
VERTEX
  8
0
 10
83.021172
 20
178.984924
  0
VERTEX
  8
0
 10
84.982262
 20
178.930145
  0
VERTEX
  8
0
 10
86.886330
 20
178.908661
  0
VERTEX
  8
0
 10
89.374840
 20
178.912033
  0
VERTEX
  8
0
 10
91.826401
 20
178.940704
  0
VERTEX
  8
0
 10
98.458748
 20
179.094604
  0
SEQEND
  8
0
  0
POLYLINE
  8
0
  0
VERTEX
  8
0
 10
103.808197
 20
349.885864
  0
VERTEX
  8
0
 10
92.361870
 20
356.453339
  0
VERTEX
  8
0
 10
85.005234
 20
360.655060
  0
VERTEX
  8
0
 10
79.179375
 20
363.960541
  0
VERTEX
  8
0
 10
67.124840
 20
370.762268
  0
VERTEX
  8
0
 10
60.551403
 20
374.503815
  0
VERTEX
  8
0
 10
52.584454
 20
379.100708
  0
VERTEX
  8
0
 10
40.862030
 20
385.930237
  0
SEQEND
  8
0
  0
POLYLINE
  8
0
  0
VERTEX
  8
0
 10
94.861870
 20
232.659988
  0
VERTEX
  8
0
 10
87.076797
 20
240.807175
  0
VERTEX
  8
0
 10
85.407578
 20
242.577423
  0
VERTEX
  8
0
 10
84.119919
 20
243.971405
  0
VERTEX
  8
0
 10
82.798981
 20
245.438278
  0
VERTEX
  8
0
 10
81.442497
 20
246.992340
  0
VERTEX
  8
0
 10
80.048355
 20
248.648041
  0
VERTEX
  8
0
 10
78.615936
 20
250.412888
  0
VERTEX
  8
0
 10
76.659607
 20
252.898743
  0
VERTEX
  8
0
 10
70.677032
 20
260.649292
  0
VERTEX
  8
0
 10
63.942108
 20
269.143982
  0
VERTEX
  8
0
 10
62.554451
 20
270.947113
  0
VERTEX
  8
0
 10
61.661247
 20
272.153595
  0
VERTEX
  8
0
 10
60.881016
 20
273.257965
  0
VERTEX
  8
0
 10
60.416950
 20
273.947968
  0
VERTEX
  8
0
 10
59.993359
 20
274.608368
  0
VERTEX
  8
0
 10
59.424919
 20
275.557190
  0
VERTEX
  8
0
 10
59.085075
 20
276.171234
  0
VERTEX
  8
0
 10
58.624607
 20
277.079132
  0
VERTEX
  8
0
 10
58.218906
 20
277.975006
  0
VERTEX
  8
0
 10
57.866482
 20
278.855164
  0
VERTEX
  8
0
 10
57.477341
 20
279.998444
  0
VERTEX
  8
0
 10
57.177811
 20
281.099121
  0
VERTEX
  8
0
 10
56.964375
 20
282.148895
  0
VERTEX
  8
0
 10
56.831093
 20
283.141388
  0
VERTEX
  8
0
 10
56.768669
 20
284.072021
  0
VERTEX
  8
0
 10
56.761250
 20
284.512817
  0
VERTEX
  8
0
 10
56.776405
 20
285.141724
  0
VERTEX
  8
0
 10
56.863514
 20
286.103027
  0
VERTEX
  8
0
 10
56.959297
 20
286.672333
  0
VERTEX
  8
0
 10
57.050076
 20
287.089142
  0
VERTEX
  8
0
 10
57.237812
 20
287.822174
  0
VERTEX
  8
0
 10
57.501484
 20
288.747192
  0
VERTEX
  8
0
 10
58.497108
 20
292.040863
  0
VERTEX
  8
0
 10
59.830467
 20
296.357727
  0
VERTEX
  8
0
 10
61.255936
 20
300.852112
  0
VERTEX
  8
0
 10
62.236950
 20
303.870941
  0
VERTEX
  8
0
 10
63.305309
 20
307.089996
  0
VERTEX
  8
0
 10
66.749527
 20
317.250153
  0
VERTEX
  8
0
 10
68.177261
 20
321.534058
  0
VERTEX
  8
0
 10
69.396950
 20
325.362793
  0
VERTEX
  8
0
 10
70.124214
 20
327.824677
  0
VERTEX
  8
0
 10
70.521561
 20
329.273132
  0
VERTEX
  8
0
 10
71.000237
 20
331.183807
  0
VERTEX
  8
0
 10
71.355232
 20
332.813202
  0
VERTEX
  8
0
 10
71.605392
 20
334.198364
  0
VERTEX
  8
0
 10
71.723198
 20
335.004303
  0
VERTEX
  8
0
 10
71.808517
 20
335.729126
  0
VERTEX
  8
0
 10
71.866249
 20
336.383270
  0
VERTEX
  8
0
 10
71.898903
 20
336.974304
  0
VERTEX
  8
0
 10
71.908203
 20
337.509460
  0
VERTEX
  8
0
 10
71.896172
 20
337.995605
  0
VERTEX
  8
0
 10
71.864449
 20
338.439911
  0
VERTEX
  8
0
 10
71.814995
 20
338.849609
  0
VERTEX
  8
0
 10
71.711403
 20
339.414276
  0
VERTEX
  8
0
 10
71.578125
 20
339.940765
  0
VERTEX
  8
0
 10
71.413750
 20
340.455933
  0
VERTEX
  8
0
 10
71.271637
 20
340.812256
  0
VERTEX
  8
0
 10
71.089844
 20
341.193359
  0
VERTEX
  8
0
 10
70.856560
 20
341.612030
  0
VERTEX
  8
0
 10
70.560310
 20
342.080475
  0
VERTEX
  8
0
 10
70.189217
 20
342.611389
  0
VERTEX
  8
0
 10
69.731636
 20
343.217346
  0
VERTEX
  8
0
 10
69.175934
 20
343.910706
  0
VERTEX
  8
0
 10
67.734612
 20
345.596008
  0
VERTEX
  8
0
 10
65.881714
 20
347.631256
  0
VERTEX
  8
0
 10
64.822105
 20
348.749207
  0
VERTEX
  8
0
 10
63.685078
 20
349.917572
  0
VERTEX
  8
0
 10
61.852654
 20
351.737427
  0
VERTEX
  8
0
 10
59.893826
 20
353.600525
  0
VERTEX
  8
0
 10
58.531796
 20
354.846466
  0
VERTEX
  8
0
 10
56.420391
 20
356.705994
  0
VERTEX
  8
0
 10
54.240391
 20
358.555847
  0
VERTEX
  8
0
 10
52.006405
 20
360.398193
  0
VERTEX
  8
0
 10
49.733204
 20
362.235077
  0
VERTEX
  8
0
 10
45.897266
 20
365.289612
  0
SEQEND
  8
0
  0
POLYLINE
  8
0
  0
VERTEX
  8
0
 10
70.102814
 20
252.327728
  0
VERTEX
  8
0
 10
69.048668
 20
248.840622
  0
VERTEX
  8
0
 10
68.332184
 20
246.300613
  0
VERTEX
  8
0
 10
67.928436
 20
244.741486
  0
VERTEX
  8
0
 10
67.673439
 20
243.683121
  0
VERTEX
  8
0
 10
67.203751
 20
241.518661
  0
VERTEX
  8
0
 10
66.889923
 20
239.884369
  0
VERTEX
  8
0
 10
66.611481
 20
238.280930
  0
VERTEX
  8
0
 10
66.370621
 20
236.744675
  0
VERTEX
  8
0
 10
66.169373
 20
235.312027
  0
VERTEX
  8
0
 10
66.009842
 20
234.019363
  0
VERTEX
  8
0
 10
65.893593
 20
232.891251
  0
VERTEX
  8
0
 10
65.820702
 20
231.904999
  0
VERTEX
  8
0
 10
65.790627
 20
231.026093
  0
VERTEX
  8
0
 10
65.793907
 20
230.482727
  0
VERTEX
  8
0
 10
65.833748
 20
229.706085
  0
VERTEX
  8
0
 10
65.914764
 20
228.944763
  0
VERTEX
  8
0
 10
66.036797
 20
228.165771
  0
VERTEX
  8
0
 10
66.203667
 20
227.354523
  0
VERTEX
  8
0
 10
66.342812
 20
226.794220
  0
VERTEX
  8
0
 10
66.598434
 20
225.922501
  0
VERTEX
  8
0
 10
66.802734
 20
225.319366
  0
VERTEX
  8
0
 10
67.036324
 20
224.697571
  0
VERTEX
  8
0
 10
67.301170
 20
224.056564
  0
VERTEX
  8
0
 10
67.599136
 20
223.395157
  0
VERTEX
  8
0
 10
67.930466
 20
222.713821
  0
VERTEX
  8
0
 10
68.667267
 20
221.310699
  0
VERTEX
  8
0
 10
70.582108
 20
217.834213
  0
VERTEX
  8
0
 10
71.070389
 20
216.878662
  0
VERTEX
  8
0
 10
71.609451
 20
215.707031
  0
VERTEX
  8
0
 10
71.835701
 20
215.163361
  0
VERTEX
  8
0
 10
72.128120
 20
214.397964
  0
VERTEX
  8
0
 10
72.372032
 20
213.689606
  0
VERTEX
  8
0
 10
72.575859
 20
213.034836
  0
VERTEX
  8
0
 10
72.892815
 20
211.855148
  0
VERTEX
  8
0
 10
73.004997
 20
211.263596
  0
VERTEX
  8
0
 10
73.059296
 20
210.836166
  0
VERTEX
  8
0
 10
73.106171
 20
210.109680
  0
VERTEX
  8
0
 10
73.112343
 20
209.547501
  0
VERTEX
  8
0
 10
73.079842
 20
208.551559
  0
VERTEX
  8
0
 10
73.028511
 20
207.765457
  0
VERTEX
  8
0
 10
72.799530
 20
205.380386
  0
VERTEX
  8
0
 10
72.451561
 20
202.536331
  0
VERTEX
  8
0
 10
72.015152
 20
199.411942
  0
VERTEX
  8
0
 10
71.416252
 20
195.529526
  0
VERTEX
  8
0
 10
70.766251
 20
191.611084
  0
VERTEX
  8
0
 10
69.857811
 20
186.358749
  0
SEQEND
  8
0
  0
POLYLINE
  8
0
  0
VERTEX
  8
0
 10
45.228123
 20
196.054840
  0
VERTEX
  8
0
 10
45.697342
 20
197.840851
  0
VERTEX
  8
0
 10
46.044140
 20
199.279755
  0
VERTEX
  8
0
 10
46.266872
 20
200.369919
  0
VERTEX
  8
0
 10
46.421638
 20
201.383987
  0
VERTEX
  8
0
 10
46.498516
 20
202.307648
  0
VERTEX
  8
0
 10
46.504452
 20
203.138275
  0
VERTEX
  8
0
 10
46.447811
 20
203.874527
  0
VERTEX
  8
0
 10
46.398827
 20
204.206863
  0
VERTEX
  8
0
 10
46.302498
 20
204.660156
  0
VERTEX
  8
0
 10
46.180702
 20
205.061401
  0
VERTEX
  8
0
 10
46.031250
 20
205.423904
  0
VERTEX
  8
0
 10
45.850700
 20
205.763504
  0
VERTEX
  8
0
 10
45.555622
 20
206.208359
  0
VERTEX
  8
0
 10
45.190857
 20
206.678741
  0
VERTEX
  8
0
 10
44.750546
 20
207.208191
  0
VERTEX
  8
0
 10
42.748047
 20
209.527267
  0
VERTEX
  8
0
 10
41.982967
 20
210.443283
  0
VERTEX
  8
0
 10
41.321014
 20
211.322342
  0
VERTEX
  8
0
 10
41.040546
 20
211.752106
  0
VERTEX
  8
0
 10
40.875389
 20
212.036240
  0
VERTEX
  8
0
 10
40.663750
 20
212.460541
  0
VERTEX
  8
0
 10
40.547031
 20
212.747025
  0
VERTEX
  8
0
 10
40.407654
 20
213.194138
  0
VERTEX
  8
0
 10
40.338047
 20
213.510773
  0
VERTEX
  8
0
 10
40.267654
 20
214.025467
  0
VERTEX
  8
0
 10
40.242889
 20
214.402176
  0
VERTEX
  8
0
 10
40.235390
 20
214.811401
  0
VERTEX
  8
0
 10
40.256016
 20
215.496323
  0
VERTEX
  8
0
 10
40.318829
 20
216.280228
  0
VERTEX
  8
0
 10
40.390156
 20
216.864441
  0
VERTEX
  8
0
 10
40.489296
 20
217.502579
  0
VERTEX
  8
0
 10
40.620079
 20
218.198425
  0
VERTEX
  8
0
 10
40.786327
 20
218.956329
  0
VERTEX
  8
0
 10
40.991718
 20
219.779755
  0
VERTEX
  8
0
 10
41.240234
 20
220.673035
  0
VERTEX
  8
0
 10
41.535313
 20
221.640076
  0
VERTEX
  8
0
 10
42.065937
 20
223.224289
  0
VERTEX
  8
0
 10
42.889687
 20
225.496796
  0
VERTEX
  8
0
 10
45.198826
 20
231.505463
  0
VERTEX
  8
0
 10
45.826954
 20
233.189056
  0
VERTEX
  8
0
 10
46.416016
 20
234.899597
  0
VERTEX
  8
0
 10
46.765938
 20
236.063431
  0
VERTEX
  8
0
 10
46.976795
 20
236.876709
  0
VERTEX
  8
0
 10
47.157032
 20
237.680939
  0
VERTEX
  8
0
 10
47.358749
 20
238.763901
  0
VERTEX
  8
0
 10
47.476093
 20
239.564758
  0
VERTEX
  8
0
 10
47.559528
 20
240.336868
  0
VERTEX
  8
0
 10
47.604763
 20
241.062958
  0
VERTEX
  8
0
 10
47.607342
 20
241.726013
  0
VERTEX
  8
0
 10
47.563046
 20
242.310699
  0
VERTEX
  8
0
 10
47.506248
 20
242.659210
  0
VERTEX
  8
0
 10
47.379139
 20
243.135300
  0
VERTEX
  8
0
 10
47.200703
 20
243.573593
  0
VERTEX
  8
0
 10
46.969685
 20
243.994522
  0
VERTEX
  8
0
 10
46.684841
 20
244.418823
  0
VERTEX
  8
0
 10
46.344921
 20
244.866943
  0
VERTEX
  8
0
 10
45.804451
 20
245.520157
  0
VERTEX
  8
0
 10
45.332733
 20
246.050537
  0
VERTEX
  8
0
 10
44.803516
 20
246.613281
  0
VERTEX
  8
0
 10
44.216015
 20
247.206787
  0
VERTEX
  8
0
 10
43.569763
 20
247.828903
  0
VERTEX
  8
0
 10
42.864452
 20
248.477646
  0
VERTEX
  8
0
 10
41.029999
 20
250.073898
  0
VERTEX
  8
0
 10
38.450157
 20
252.222885
  0
SEQEND
  8
0
  0
POLYLINE
  8
0
  0
VERTEX
  8
0
 10
92.329376
 20
187.898987
  0
VERTEX
  8
0
 10
78.787964
 20
188.506409
  0
SEQEND
  8
0
  0
POLYLINE
  8
0
  0
VERTEX
  8
0
 10
66.153908
 20
190.390701
  0
VERTEX
  8
0
 10
51.603985
 20
193.843353
  0
SEQEND
  8
0
  0
POLYLINE
  8
0
  0
VERTEX
  8
0
 10
36.857735
 20
198.098038
  0
VERTEX
  8
0
 10
31.844374
 20
199.544922
  0
VERTEX
  8
0
 10
29.993437
 20
195.130539
  0
SEQEND
  8
0
  0
POLYLINE
  8
0
  0
VERTEX
  8
0
 10
14.267735
 20
337.076782
  0
VERTEX
  8
0
 10
11.544141
 20
332.505157
  0
VERTEX
  8
0
 10
10.459374
 20
330.612488
  0
VERTEX
  8
0
 10
9.628515
 20
329.109222
  0
VERTEX
  8
0
 10
8.654375
 20
327.275146
  0
VERTEX
  8
0
 10
7.775234
 20
325.542023
  0
VERTEX
  8
0
 10
6.880859
 20
323.672424
  0
VERTEX
  8
0
 10
6.288750
 20
322.331543
  0
VERTEX
  8
0
 10
5.911172
 20
321.391541
  0
VERTEX
  8
0
 10
5.550468
 20
320.362976
  0
VERTEX
  8
0
 10
5.344453
 20
319.642792
  0
VERTEX
  8
0
 10
5.176719
 20
318.847412
  0
VERTEX
  8
0
 10
5.071562
 20
317.998352
  0
VERTEX
  8
0
 10
5.015937
 20
316.802094
  0
VERTEX
  8
0
 10
5.042187
 20
316.222351
  0
VERTEX
  8
0
 10
5.086406
 20
315.897034
  0
VERTEX
  8
0
 10
5.159297
 20
315.538666
  0
VERTEX
  8
0
 10
5.267109
 20
315.140228
  0
VERTEX
  8
0
 10
5.415859
 20
314.694672
  0
VERTEX
  8
0
 10
5.728984
 20
313.922424
  0
VERTEX
  8
0
 10
6.164063
 20
313.010681
  0
VERTEX
  8
0
 10
6.718984
 20
311.967896
  0
VERTEX
  8
0
 10
7.634140
 20
310.398285
  0
VERTEX
  8
0
 10
8.443438
 20
309.105682
  0
VERTEX
  8
0
 10
9.351093
 20
307.730469
  0
VERTEX
  8
0
 10
10.350390
 20
306.286957
  0
VERTEX
  8
0
 10
11.814921
 20
304.269226
  0
VERTEX
  8
0
 10
13.840000
 20
301.594208
  0
VERTEX
  8
0
 10
16.057734
 20
298.742737
  0
VERTEX
  8
0
 10
22.391171
 20
290.676086
  0
VERTEX
  8
0
 10
24.277578
 20
288.246155
  0
VERTEX
  8
0
 10
26.008905
 20
285.983582
  0
VERTEX
  8
0
 10
27.531328
 20
283.948029
  0
VERTEX
  8
0
 10
28.546719
 20
282.553497
  0
VERTEX
  8
0
 10
29.471561
 20
281.247101
  0
VERTEX
  8
0
 10
30.591484
 20
279.604218
  0
VERTEX
  8
0
 10
31.367109
 20
278.417175
  0
VERTEX
  8
0
 10
32.343357
 20
276.856720
  0
VERTEX
  8
0
 10
33.261719
 20
275.314606
  0
VERTEX
  8
0
 10
34.121250
 20
273.799591
  0
VERTEX
  8
0
 10
34.920937
 20
272.320709
  0
VERTEX
  8
0
 10
35.834610
 20
270.535461
  0
VERTEX
  8
0
 10
36.496407
 20
269.154846
  0
VERTEX
  8
0
 10
37.097889
 20
267.797821
  0
VERTEX
  8
0
 10
37.509998
 20
266.784210
  0
VERTEX
  8
0
 10
37.766407
 20
266.106171
  0
VERTEX
  8
0
 10
38.235703
 20
264.733826
  0
VERTEX
  8
0
 10
38.447186
 20
264.034668
  0
VERTEX
  8
0
 10
38.639687
 20
263.323212
  0
VERTEX
  8
0
 10
38.886482
 20
262.227173
  0
VERTEX
  8
0
 10
39.073357
 20
261.087952
  0
VERTEX
  8
0
 10
39.190311
 20
259.896393
  0
VERTEX
  8
0
 10
39.227032
 20
258.643127
  0
VERTEX
  8
0
 10
39.174610
 20
257.321320
  0
VERTEX
  8
0
 10
39.093437
 20
256.411865
  0
VERTEX
  8
0
 10
38.981796
 20
255.494293
  0
VERTEX
  8
0
 10
38.845467
 20
254.580612
  0
VERTEX
  8
0
 10
38.606873
 20
253.244522
  0
VERTEX
  8
0
 10
38.433514
 20
252.394913
  0
VERTEX
  8
0
 10
38.165936
 20
251.212723
  0
VERTEX
  8
0
 10
37.906563
 20
250.177811
  0
VERTEX
  8
0
 10
37.588673
 20
249.049530
  0
VERTEX
  8
0
 10
37.366875
 20
248.363586
  0
VERTEX
  8
0
 10
37.154686
 20
247.787811
  0
VERTEX
  8
0
 10
36.947811
 20
247.297806
  0
VERTEX
  8
0
 10
36.741638
 20
246.868973
  0
VERTEX
  8
0
 10
36.461796
 20
246.353348
  0
VERTEX
  8
0
 10
36.174686
 20
245.880310
  0
VERTEX
  8
0
 10
35.808826
 20
245.331329
  0
VERTEX
  8
0
 10
35.364063
 20
244.705383
  0
SEQEND
  8
0
  0
POLYLINE
  8
0
  0
VERTEX
  8
0
 10
52.079842
 20
359.653351
  0
VERTEX
  8
0
 10
51.592888
 20
359.625702
  0
VERTEX
  8
0
 10
51.153591
 20
359.413818
  0
VERTEX
  8
0
 10
50.828827
 20
359.049927
  0
VERTEX
  8
0
 10
50.667969
 20
358.589447
  0
VERTEX
  8
0
 10
50.695625
 20
358.102570
  0
VERTEX
  8
0
 10
50.907578
 20
357.663208
  0
VERTEX
  8
0
 10
51.271404
 20
357.338501
  0
VERTEX
  8
0
 10
51.731873
 20
357.177582
  0
VERTEX
  8
0
 10
52.218826
 20
357.205231
  0
VERTEX
  8
0
 10
52.658047
 20
357.417114
  0
VERTEX
  8
0
 10
52.982891
 20
357.781006
  0
VERTEX
  8
0
 10
53.143669
 20
358.241486
  0
VERTEX
  8
0
 10
53.116013
 20
358.728516
  0
VERTEX
  8
0
 10
52.904060
 20
359.167725
  0
VERTEX
  8
0
 10
52.540234
 20
359.492584
  0
VERTEX
  8
0
 10
52.079842
 20
359.653351
  0
SEQEND
  8
0
  0
POLYLINE
  8
0
  0
VERTEX
  8
0
 10
46.146404
 20
378.508362
  0
VERTEX
  8
0
 10
45.659451
 20
378.480682
  0
VERTEX
  8
0
 10
45.220154
 20
378.268829
  0
VERTEX
  8
0
 10
44.895390
 20
377.904907
  0
VERTEX
  8
0
 10
44.734608
 20
377.444458
  0
VERTEX
  8
0
 10
44.762264
 20
376.957581
  0
VERTEX
  8
0
 10
44.974140
 20
376.518188
  0
VERTEX
  8
0
 10
45.338047
 20
376.193512
  0
VERTEX
  8
0
 10
45.798515
 20
376.032715
  0
VERTEX
  8
0
 10
46.285389
 20
376.060394
  0
VERTEX
  8
0
 10
46.724766
 20
376.272247
  0
VERTEX
  8
0
 10
47.049454
 20
376.636169
  0
VERTEX
  8
0
 10
47.210312
 20
377.096619
  0
VERTEX
  8
0
 10
47.182655
 20
377.583496
  0
VERTEX
  8
0
 10
46.970779
 20
378.022888
  0
VERTEX
  8
0
 10
46.606873
 20
378.347565
  0
VERTEX
  8
0
 10
46.146404
 20
378.508362
  0
SEQEND
  8
0
  0
POLYLINE
  8
0
  0
VERTEX
  8
0
 10
16.323906
 20
337.250153
  0
VERTEX
  8
0
 10
15.836953
 20
337.222504
  0
VERTEX
  8
0
 10
15.397734
 20
337.010529
  0
VERTEX
  8
0
 10
15.072890
 20
336.646637
  0
VERTEX
  8
0
 10
14.912109
 20
336.186249
  0
VERTEX
  8
0
 10
14.939765
 20
335.699280
  0
VERTEX
  8
0
 10
15.151718
 20
335.259979
  0
VERTEX
  8
0
 10
15.515547
 20
334.935303
  0
VERTEX
  8
0
 10
15.976015
 20
334.774445
  0
VERTEX
  8
0
 10
16.462891
 20
334.802094
  0
VERTEX
  8
0
 10
16.902187
 20
335.013977
  0
VERTEX
  8
0
 10
17.226954
 20
335.377808
  0
VERTEX
  8
0
 10
17.387812
 20
335.838348
  0
VERTEX
  8
0
 10
17.360077
 20
336.325226
  0
VERTEX
  8
0
 10
17.148203
 20
336.764526
  0
VERTEX
  8
0
 10
16.784374
 20
337.089355
  0
VERTEX
  8
0
 10
16.323906
 20
337.250153
  0
SEQEND
  8
0
  0
POLYLINE
  8
0
  0
VERTEX
  8
0
 10
78.735542
 20
567.447388
  0
VERTEX
  8
0
 10
79.077263
 20
553.475220
  0
VERTEX
  8
0
 10
79.260704
 20
544.065552
  0
VERTEX
  8
0
 10
79.328979
 20
539.310547
  0
VERTEX
  8
0
 10
79.376480
 20
534.502869
  0
VERTEX
  8
0
 10
79.395073
 20
529.585632
  0
VERTEX
  8
0
 10
79.387184
 20
526.213501
  0
VERTEX
  8
0
 10
79.338432
 20
520.965210
  0
VERTEX
  8
0
 10
79.277344
 20
517.310608
  0
VERTEX
  8
0
 10
79.190544
 20
513.508362
  0
VERTEX
  8
0
 10
79.075233
 20
509.538818
  0
VERTEX
  8
0
 10
78.929062
 20
505.383270
  0
VERTEX
  8
0
 10
78.752029
 20
501.054352
  0
VERTEX
  8
0
 10
78.546638
 20
496.595154
  0
VERTEX
  8
0
 10
78.315544
 20
492.050232
  0
VERTEX
  8
0
 10
78.061401
 20
487.464142
  0
VERTEX
  8
0
 10
77.786873
 20
482.881226
  0
VERTEX
  8
0
 10
77.342575
 20
476.110626
  0
VERTEX
  8
0
 10
76.867416
 20
469.597961
  0
VERTEX
  8
0
 10
76.537811
 20
465.472015
  0
VERTEX
  8
0
 10
76.199684
 20
461.528503
  0
VERTEX
  8
0
 10
75.853516
 20
457.729919
  0
VERTEX
  8
0
 10
75.319611
 20
452.218201
  0
VERTEX
  8
0
 10
73.423752
 20
433.868042
  0
VERTEX
  8
0
 10
72.416954
 20
423.749207
  0
VERTEX
  8
0
 10
71.172653
 20
410.743042
  0
VERTEX
  8
0
 10
69.695000
 20
394.942322
  0
VERTEX
  8
0
 10
63.291561
 20
401.560303
  0
VERTEX
  8
0
 10
58.849686
 20
406.185547
  0
VERTEX
  8
0
 10
55.442184
 20
409.772888
  0
VERTEX
  8
0
 10
52.211716
 20
413.223419
  0
VERTEX
  8
0
 10
48.457344
 20
417.309052
  0
VERTEX
  8
0
 10
45.026638
 20
421.117554
  0
VERTEX
  8
0
 10
41.347733
 20
425.285919
  0
VERTEX
  8
0
 10
38.144375
 20
428.997406
  0
VERTEX
  8
0
 10
35.355938
 20
432.322418
  0
VERTEX
  8
0
 10
33.294609
 20
434.865234
  0
VERTEX
  8
0
 10
32.153358
 20
436.315216
  0
VERTEX
  8
0
 10
31.079687
 20
437.714996
  0
VERTEX
  8
0
 10
29.446562
 20
439.936401
  0
VERTEX
  8
0
 10
28.564297
 20
441.201935
  0
VERTEX
  8
0
 10
28.018280
 20
442.017578
  0
VERTEX
  8
0
 10
27.030468
 20
443.581085
  0
VERTEX
  8
0
 10
26.589218
 20
444.329224
  0
VERTEX
  8
0
 10
25.991640
 20
445.410217
  0
VERTEX
  8
0
 10
25.634922
 20
446.104126
  0
VERTEX
  8
0
 10
25.160469
 20
447.105621
  0
VERTEX
  8
0
 10
24.883280
 20
447.747711
  0
VERTEX
  8
0
 10
24.636641
 20
448.369843
  0
VERTEX
  8
0
 10
24.419687
 20
448.972412
  0
VERTEX
  8
0
 10
24.231718
 20
449.555695
  0
VERTEX
  8
0
 10
24.070780
 20
450.119690
  0
VERTEX
  8
0
 10
23.874374
 20
450.927490
  0
VERTEX
  8
0
 10
23.644297
 20
452.165375
  0
VERTEX
  8
0
 10
23.549608
 20
452.838654
  0
VERTEX
  8
0
 10
23.434921
 20
453.836945
  0
VERTEX
  8
0
 10
23.402889
 20
454.207245
  0
VERTEX
  8
0
 10
23.390156
 20
454.598114
  0
VERTEX
  8
0
 10
23.406717
 20
455.040863
  0
VERTEX
  8
0
 10
23.462812
 20
455.566315
  0
VERTEX
  8
0
 10
23.643124
 20
456.578278
  0
VERTEX
  8
0
 10
23.969374
 20
457.952087
  0
VERTEX
  8
0
 10
24.475546
 20
459.793121
  0
VERTEX
  8
0
 10
25.182577
 20
462.167267
  0
VERTEX
  8
0
 10
26.377499
 20
465.995758
  0
VERTEX
  8
0
 10
27.759140
 20
470.295929
  0
VERTEX
  8
0
 10
29.216484
 20
474.755707
  0
VERTEX
  8
0
 10
34.218826
 20
489.834991
  0
VERTEX
  8
0
 10
35.612423
 20
494.077240
  0
VERTEX
  8
0
 10
36.908749
 20
498.156860
  0
VERTEX
  8
0
 10
37.743828
 20
500.952087
  0
VERTEX
  8
0
 10
38.162342
 20
502.474609
  0
VERTEX
  8
0
 10
38.474453
 20
503.745392
  0
VERTEX
  8
0
 10
38.692577
 20
504.817169
  0
VERTEX
  8
0
 10
38.831326
 20
505.751465
  0
VERTEX
  8
0
 10
38.915154
 20
506.818970
  0
VERTEX
  8
0
 10
38.927654
 20
507.451080
  0
VERTEX
  8
0
 10
38.918201
 20
507.878815
  0
VERTEX
  8
0
 10
38.890076
 20
508.313660
  0
VERTEX
  8
0
 10
38.839218
 20
508.757019
  0
VERTEX
  8
0
 10
38.711639
 20
509.441620
  0
VERTEX
  8
0
 10
38.586720
 20
509.913269
  0
VERTEX
  8
0
 10
38.425156
 20
510.399139
  0
VERTEX
  8
0
 10
38.105389
 20
511.157562
  0
VERTEX
  8
0
 10
37.684532
 20
511.954742
  0
VERTEX
  8
0
 10
37.166954
 20
512.787354
  0
VERTEX
  8
0
 10
36.561016
 20
513.649963
  0
VERTEX
  8
0
 10
36.111874
 20
514.239380
  0
VERTEX
  8
0
 10
35.629295
 20
514.838440
  0
VERTEX
  8
0
 10
34.848282
 20
515.751526
  0
VERTEX
  8
0
 10
33.710781
 20
516.990540
  0
VERTEX
  8
0
 10
32.769688
 20
517.954346
  0
VERTEX
  8
0
 10
31.718203
 20
518.983887
  0
VERTEX
  8
0
 10
30.523905
 20
520.112854
  0
VERTEX
  8
0
 10
28.653280
 20
521.831055
  0
VERTEX
  8
0
 10
24.442343
 20
525.607117
  0
VERTEX
  8
0
 10
14.711953
 20
534.234131
  0
VERTEX
  8
0
 10
11.447812
 20
537.149292
  0
VERTEX
  8
0
 10
8.498125
 20
539.844727
  0
VERTEX
  8
0
 10
6.451562
 20
541.799255
  0
VERTEX
  8
0
 10
4.961484
 20
543.295227
  0
VERTEX
  8
0
 10
3.681015
 20
544.647095
  0
VERTEX
  8
0
 10
2.641875
 20
545.813049
  0
VERTEX
  8
0
 10
1.873516
 20
546.756287
  0
VERTEX
  8
0
 10
1.449687
 20
547.373047
  0
VERTEX
  8
0
 10
1.294844
 20
547.652100
  0
VERTEX
  8
0
 10
1.174922
 20
547.919739
  0
VERTEX
  8
0
 10
1.087578
 20
548.182434
  0
VERTEX
  8
0
 10
1.030234
 20
548.445984
  0
VERTEX
  8
0
 10
1.000469
 20
548.716919
  0
VERTEX
  8
0
 10
1.002969
 20
549.149414
  0
VERTEX
  8
0
 10
1.034844
 20
549.459412
  0
VERTEX
  8
0
 10
1.091094
 20
549.788330
  0
VERTEX
  8
0
 10
1.277422
 20
550.507080
  0
VERTEX
  8
0
 10
1.563437
 20
551.314575
  0
VERTEX
  8
0
 10
2.063359
 20
552.463196
  0
VERTEX
  8
0
 10
2.437500
 20
553.231628
  0
VERTEX
  8
0
 10
3.011953
 20
554.347229
  0
VERTEX
  8
0
 10
7.559375
 20
562.920227
  0
VERTEX
  8
0
 10
8.065937
 20
563.827393
  0
VERTEX
  8
0
 10
8.675312
 20
564.857727
  0
VERTEX
  8
0
 10
9.211328
 20
565.697571
  0
VERTEX
  8
0
 10
9.787031
 20
566.519592
  0
VERTEX
  8
0
 10
10.268672
 20
567.136780
  0
VERTEX
  8
0
 10
10.608516
 20
567.510559
  0
VERTEX
  8
0
 10
10.884218
 20
567.716187
  0
VERTEX
  8
0
 10
11.099531
 20
567.813477
  0
VERTEX
  8
0
 10
11.221015
 20
567.849426
  0
VERTEX
  8
0
 10
11.498906
 20
567.894592
  0
VERTEX
  8
0
 10
11.657969
 20
567.903198
  0
VERTEX
  8
0
 10
12.024140
 20
567.891296
  0
VERTEX
  8
0
 10
12.463593
 20
567.838501
  0
VERTEX
  8
0
 10
13.281796
 20
567.679138
  0
VERTEX
  8
0
 10
13.929609
 20
567.522400
  0
VERTEX
  8
0
 10
15.029297
 20
567.222229
  0
VERTEX
  8
0
 10
16.251640
 20
566.857117
  0
VERTEX
  8
0
 10
17.561874
 20
566.441650
  0
VERTEX
  8
0
 10
19.846640
 20
565.676636
  0
VERTEX
  8
0
 10
22.623592
 20
564.698486
  0
VERTEX
  8
0
 10
25.507265
 20
563.645691
  0
VERTEX
  8
0
 10
32.029453
 20
561.227112
  0
VERTEX
  8
0
 10
35.503513
 20
559.968201
  0
VERTEX
  8
0
 10
38.240704
 20
559.019775
  0
VERTEX
  8
0
 10
39.742107
 20
558.529114
  0
VERTEX
  8
0
 10
40.682186
 20
558.241333
  0
VERTEX
  8
0
 10
41.584373
 20
557.986023
  0
VERTEX
  8
0
 10
42.458515
 20
557.764587
  0
VERTEX
  8
0
 10
43.314217
 20
557.578064
  0
VERTEX
  8
0
 10
44.161015
 20
557.427246
  0
VERTEX
  8
0
 10
45.008747
 20
557.313477
  0
VERTEX
  8
0
 10
45.866951
 20
557.237854
  0
VERTEX
  8
0
 10
46.745312
 20
557.201294
  0
VERTEX
  8
0
 10
47.195000
 20
557.198059
  0
VERTEX
  8
0
 10
48.117889
 20
557.222229
  0
VERTEX
  8
0
 10
48.591873
 20
557.250244
  0
VERTEX
  8
0
 10
49.566563
 20
557.338318
  0
VERTEX
  8
0
 10
50.578983
 20
557.471008
  0
VERTEX
  8
0
 10
51.631874
 20
557.649414
  0
VERTEX
  8
0
 10
53.292969
 20
558.005981
  0
VERTEX
  8
0
 10
54.458672
 20
558.305237
  0
VERTEX
  8
0
 10
55.674217
 20
558.655090
  0
VERTEX
  8
0
 10
56.941795
 20
559.056763
  0
VERTEX
  8
0
 10
58.929375
 20
559.747253
  0
VERTEX
  8
0
 10
60.986172
 20
560.516479
  0
VERTEX
  8
0
 10
63.073513
 20
561.334595
  0
VERTEX
  8
0
 10
68.494293
 20
563.526794
  0
VERTEX
  8
0
 10
70.975861
 20
564.510986
  0
VERTEX
  8
0
 10
74.422653
 20
565.835999
  0
VERTEX
  8
0
 10
78.735542
 20
567.447388
  0
SEQEND
  8
0
  0
POLYLINE
  8
0
  0
VERTEX
  8
0
 10
12.261406
 20
548.115234
  0
VERTEX
  8
0
 10
16.135157
 20
558.320984
  0
SEQEND
  8
0
  0
POLYLINE
  8
0
  0
VERTEX
  8
0
 10
20.196093
 20
533.419128
  0
VERTEX
  8
0
 10
22.897264
 20
537.990356
  0
SEQEND
  8
0
  0
POLYLINE
  8
0
  0
VERTEX
  8
0
 10
30.403593
 20
554.131287
  0
VERTEX
  8
0
 10
31.915781
 20
558.167236
  0
SEQEND
  8
0
  0
POLYLINE
  8
0
  0
VERTEX
  8
0
 10
39.724686
 20
451.654602
  0
VERTEX
  8
0
 10
31.516874
 20
455.611237
  0
SEQEND
  8
0
  0
POLYLINE
  8
0
  0
VERTEX
  8
0
 10
55.070313
 20
498.526245
  0
VERTEX
  8
0
 10
45.761719
 20
503.231171
  0
SEQEND
  8
0
  0
POLYLINE
  8
0
  0
VERTEX
  8
0
 10
42.248985
 20
433.022644
  0
VERTEX
  8
0
 10
45.457031
 20
442.535614
  0
VERTEX
  8
0
 10
47.713047
 20
449.327026
  0
VERTEX
  8
0
 10
49.310467
 20
454.212494
  0
VERTEX
  8
0
 10
53.295547
 20
466.521088
  0
VERTEX
  8
0
 10
55.807968
 20
474.171783
  0
VERTEX
  8
0
 10
58.004219
 20
480.718811
  0
VERTEX
  8
0
 10
60.950310
 20
489.293335
  0
VERTEX
  8
0
 10
62.757420
 20
494.458832
  0
VERTEX
  8
0
 10
64.543983
 20
499.501617
  0
VERTEX
  8
0
 10
66.268829
 20
504.309052
  0
VERTEX
  8
0
 10
68.402184
 20
510.158813
  0
VERTEX
  8
0
 10
69.848984
 20
514.051636
  0
VERTEX
  8
0
 10
71.608124
 20
518.697388
  0
VERTEX
  8
0
 10
73.225235
 20
522.887695
  0
VERTEX
  8
0
 10
75.509064
 20
528.717590
  0
SEQEND
  8
0
  0
POLYLINE
  8
0
  0
VERTEX
  8
0
 10
20.248438
 20
534.417725
  0
VERTEX
  8
0
 10
19.862343
 20
534.361633
  0
VERTEX
  8
0
 10
19.526953
 20
534.162109
  0
VERTEX
  8
0
 10
19.293514
 20
533.849609
  0
VERTEX
  8
0
 10
19.197422
 20
533.471497
  0
VERTEX
  8
0
 10
19.253515
 20
533.085205
  0
VERTEX
  8
0
 10
19.452969
 20
532.749939
  0
VERTEX
  8
0
 10
19.765625
 20
532.516479
  0
VERTEX
  8
0
 10
20.143749
 20
532.420471
  0
VERTEX
  8
0
 10
20.529921
 20
532.476501
  0
VERTEX
  8
0
 10
20.865234
 20
532.675842
  0
VERTEX
  8
0
 10
21.098671
 20
532.988525
  0
VERTEX
  8
0
 10
21.194687
 20
533.366760
  0
VERTEX
  8
0
 10
21.138750
 20
533.752869
  0
VERTEX
  8
0
 10
20.939219
 20
534.088196
  0
VERTEX
  8
0
 10
20.626640
 20
534.321655
  0
VERTEX
  8
0
 10
20.248438
 20
534.417725
  0
SEQEND
  8
0
  0
POLYLINE
  8
0
  0
VERTEX
  8
0
 10
22.949610
 20
538.988953
  0
VERTEX
  8
0
 10
22.563437
 20
538.933044
  0
VERTEX
  8
0
 10
22.228125
 20
538.733643
  0
VERTEX
  8
0
 10
21.994610
 20
538.421021
  0
VERTEX
  8
0
 10
21.898594
 20
538.042725
  0
VERTEX
  8
0
 10
21.954531
 20
537.656616
  0
VERTEX
  8
0
 10
22.154062
 20
537.321289
  0
VERTEX
  8
0
 10
22.466719
 20
537.087891
  0
VERTEX
  8
0
 10
22.844921
 20
536.991760
  0
VERTEX
  8
0
 10
23.231014
 20
537.047852
  0
VERTEX
  8
0
 10
23.566406
 20
537.247437
  0
VERTEX
  8
0
 10
23.799843
 20
537.559937
  0
VERTEX
  8
0
 10
23.895859
 20
537.938049
  0
VERTEX
  8
0
 10
23.839922
 20
538.324280
  0
VERTEX
  8
0
 10
23.640390
 20
538.659607
  0
VERTEX
  8
0
 10
23.327734
 20
538.893005
  0
VERTEX
  8
0
 10
22.949610
 20
538.988953
  0
SEQEND
  8
0
  0
POLYLINE
  8
0
  0
VERTEX
  8
0
 10
30.455936
 20
555.129883
  0
VERTEX
  8
0
 10
30.069843
 20
555.073975
  0
VERTEX
  8
0
 10
29.734453
 20
554.874451
  0
VERTEX
  8
0
 10
29.501015
 20
554.561951
  0
VERTEX
  8
0
 10
29.404999
 20
554.183655
  0
VERTEX
  8
0
 10
29.460938
 20
553.797424
  0
VERTEX
  8
0
 10
29.660467
 20
553.462280
  0
VERTEX
  8
0
 10
29.973124
 20
553.228821
  0
VERTEX
  8
0
 10
30.351250
 20
553.132751
  0
VERTEX
  8
0
 10
30.737421
 20
553.188660
  0
VERTEX
  8
0
 10
31.072733
 20
553.388184
  0
VERTEX
  8
0
 10
31.306250
 20
553.700684
  0
VERTEX
  8
0
 10
31.402266
 20
554.078979
  0
VERTEX
  8
0
 10
31.346249
 20
554.465210
  0
VERTEX
  8
0
 10
31.146719
 20
554.800354
  0
VERTEX
  8
0
 10
30.834063
 20
555.033813
  0
VERTEX
  8
0
 10
30.455936
 20
555.129883
  0
SEQEND
  8
0
  0
POLYLINE
  8
0
  0
VERTEX
  8
0
 10
31.968124
 20
559.165833
  0
VERTEX
  8
0
 10
31.581953
 20
559.109741
  0
VERTEX
  8
0
 10
31.246639
 20
558.910400
  0
VERTEX
  8
0
 10
31.013203
 20
558.597717
  0
VERTEX
  8
0
 10
30.917187
 20
558.219604
  0
VERTEX
  8
0
 10
30.973124
 20
557.833374
  0
VERTEX
  8
0
 10
31.172655
 20
557.498047
  0
VERTEX
  8
0
 10
31.485233
 20
557.264771
  0
VERTEX
  8
0
 10
31.863438
 20
557.168640
  0
VERTEX
  8
0
 10
32.249607
 20
557.224609
  0
VERTEX
  8
0
 10
32.584923
 20
557.424133
  0
VERTEX
  8
0
 10
32.818359
 20
557.736633
  0
VERTEX
  8
0
 10
32.914452
 20
558.114929
  0
VERTEX
  8
0
 10
32.858360
 20
558.501160
  0
VERTEX
  8
0
 10
32.658985
 20
558.836304
  0
VERTEX
  8
0
 10
32.346249
 20
559.069763
  0
VERTEX
  8
0
 10
31.968124
 20
559.165833
  0
SEQEND
  8
0
  0
POLYLINE
  8
0
  0
VERTEX
  8
0
 10
12.366015
 20
550.112427
  0
VERTEX
  8
0
 10
11.743750
 20
550.047119
  0
VERTEX
  8
0
 10
11.172109
 20
549.792542
  0
VERTEX
  8
0
 10
10.707109
 20
549.373840
  0
VERTEX
  8
0
 10
10.394218
 20
548.831970
  0
VERTEX
  8
0
 10
10.264140
 20
548.219910
  0
VERTEX
  8
0
 10
10.329531
 20
547.597595
  0
VERTEX
  8
0
 10
10.584063
 20
547.026001
  0
VERTEX
  8
0
 10
11.002734
 20
546.560852
  0
VERTEX
  8
0
 10
11.544609
 20
546.248047
  0
VERTEX
  8
0
 10
12.156718
 20
546.118042
  0
VERTEX
  8
0
 10
12.779062
 20
546.183350
  0
VERTEX
  8
0
 10
13.350625
 20
546.437866
  0
VERTEX
  8
0
 10
13.815702
 20
546.856628
  0
VERTEX
  8
0
 10
14.128515
 20
547.398499
  0
VERTEX
  8
0
 10
14.258672
 20
548.010559
  0
VERTEX
  8
0
 10
14.193203
 20
548.632874
  0
VERTEX
  8
0
 10
13.938749
 20
549.204468
  0
VERTEX
  8
0
 10
13.520000
 20
549.669617
  0
VERTEX
  8
0
 10
12.978125
 20
549.982422
  0
VERTEX
  8
0
 10
12.366015
 20
550.112427
  0
SEQEND
  8
0
  0
POLYLINE
  8
0
  0
VERTEX
  8
0
 10
16.239765
 20
560.318176
  0
VERTEX
  8
0
 10
15.617499
 20
560.252869
  0
VERTEX
  8
0
 10
15.045781
 20
559.998352
  0
VERTEX
  8
0
 10
14.580781
 20
559.579590
  0
VERTEX
  8
0
 10
14.267890
 20
559.037720
  0
VERTEX
  8
0
 10
14.137890
 20
558.425720
  0
VERTEX
  8
0
 10
14.203203
 20
557.803345
  0
VERTEX
  8
0
 10
14.457734
 20
557.231812
  0
VERTEX
  8
0
 10
14.876406
 20
556.766602
  0
VERTEX
  8
0
 10
15.418359
 20
556.453796
  0
VERTEX
  8
0
 10
16.030468
 20
556.323792
  0
VERTEX
  8
0
 10
16.652657
 20
556.389099
  0
VERTEX
  8
0
 10
17.224375
 20
556.643677
  0
VERTEX
  8
0
 10
17.689375
 20
557.062439
  0
VERTEX
  8
0
 10
18.002188
 20
557.604309
  0
VERTEX
  8
0
 10
18.132343
 20
558.216309
  0
VERTEX
  8
0
 10
18.066875
 20
558.838684
  0
VERTEX
  8
0
 10
17.812422
 20
559.410217
  0
VERTEX
  8
0
 10
17.393749
 20
559.875366
  0
VERTEX
  8
0
 10
16.851797
 20
560.188171
  0
VERTEX
  8
0
 10
16.239765
 20
560.318176
  0
SEQEND
  8
0
  0
POLYLINE
  8
0
  0
VERTEX
  8
0
 10
17.010702
 20
674.231873
  0
VERTEX
  8
0
 10
16.646484
 20
666.607727
  0
VERTEX
  8
0
 10
16.426874
 20
661.487000
  0
VERTEX
  8
0
 10
16.344608
 20
658.776611
  0
VERTEX
  8
0
 10
16.324921
 20
656.238037
  0
VERTEX
  8
0
 10
16.354843
 20
654.823120
  0
VERTEX
  8
0
 10
16.395859
 20
653.933167
  0
VERTEX
  8
0
 10
16.454531
 20
653.088318
  0
VERTEX
  8
0
 10
16.574062
 20
651.904663
  0
VERTEX
  8
0
 10
16.673515
 20
651.170776
  0
VERTEX
  8
0
 10
16.850389
 20
650.151306
  0
VERTEX
  8
0
 10
16.985546
 20
649.525391
  0
VERTEX
  8
0
 10
17.212265
 20
648.665833
  0
VERTEX
  8
0
 10
17.465391
 20
647.900146
  0
VERTEX
  8
0
 10
17.648750
 20
647.437927
  0
VERTEX
  8
0
 10
17.845938
 20
647.007568
  0
VERTEX
  8
0
 10
18.171640
 20
646.407776
  0
VERTEX
  8
0
 10
18.411406
 20
646.029297
  0
VERTEX
  8
0
 10
18.671562
 20
645.660461
  0
VERTEX
  8
0
 10
19.260780
 20
644.926697
  0
VERTEX
  8
0
 10
19.952812
 20
644.157715
  0
VERTEX
  8
0
 10
20.727032
 20
643.347229
  0
VERTEX
  8
0
 10
22.658360
 20
641.380859
  0
VERTEX
  8
0
 10
23.546093
 20
640.416809
  0
VERTEX
  8
0
 10
23.992422
 20
639.855713
  0
VERTEX
  8
0
 10
24.271093
 20
639.442200
  0
VERTEX
  8
0
 10
24.515938
 20
639.011414
  0
VERTEX
  8
0
 10
24.739374
 20
638.541687
  0
VERTEX
  8
0
 10
25.025703
 20
637.817627
  0
VERTEX
  8
0
 10
25.328360
 20
636.928162
  0
VERTEX
  8
0
 10
27.160000
 20
631.111328
  0
VERTEX
  8
0
 10
29.182577
 20
624.949524
  0
VERTEX
  8
0
 10
30.967499
 20
619.647034
  0
VERTEX
  8
0
 10
32.319298
 20
615.757202
  0
VERTEX
  8
0
 10
33.696251
 20
611.984619
  0
VERTEX
  8
0
 10
34.874294
 20
608.952393
  0
VERTEX
  8
0
 10
35.598438
 20
607.192871
  0
VERTEX
  8
0
 10
36.089531
 20
606.048889
  0
VERTEX
  8
0
 10
37.094219
 20
603.839844
  0
VERTEX
  8
0
 10
37.608749
 20
602.778992
  0
VERTEX
  8
0
 10
38.132263
 20
601.749817
  0
VERTEX
  8
0
 10
38.665077
 20
600.754456
  0
VERTEX
  8
0
 10
39.207344
 20
599.794739
  0
VERTEX
  8
0
 10
39.755859
 20
598.871765
  0
VERTEX
  8
0
 10
40.582890
 20
597.558289
  0
VERTEX
  8
0
 10
41.131874
 20
596.731079
  0
VERTEX
  8
0
 10
41.942810
 20
595.565308
  0
VERTEX
  8
0
 10
42.728046
 20
594.492249
  0
VERTEX
  8
0
 10
43.475548
 20
593.514771
  0
VERTEX
  8
0
 10
44.177811
 20
592.633179
  0
VERTEX
  8
0
 10
44.845390
 20
591.836609
  0
VERTEX
  8
0
 10
45.493435
 20
591.111389
  0
VERTEX
  8
0
 10
46.137032
 20
590.443787
  0
VERTEX
  8
0
 10
46.791248
 20
589.820251
  0
VERTEX
  8
0
 10
47.471092
 20
589.226929
  0
VERTEX
  8
0
 10
48.190468
 20
588.653748
  0
VERTEX
  8
0
 10
48.696095
 20
588.284302
  0
VERTEX
  8
0
 10
49.498749
 20
587.754272
  0
VERTEX
  8
0
 10
50.066170
 20
587.420227
  0
VERTEX
  8
0
 10
50.661953
 20
587.103882
  0
VERTEX
  8
0
 10
51.287968
 20
586.807434
  0
VERTEX
  8
0
 10
51.946404
 20
586.532776
  0
VERTEX
  8
0
 10
52.639141
 20
586.282349
  0
VERTEX
  8
0
 10
53.367344
 20
586.057495
  0
VERTEX
  8
0
 10
54.128593
 20
585.858643
  0
VERTEX
  8
0
 10
54.919296
 20
585.685669
  0
VERTEX
  8
0
 10
55.736172
 20
585.538513
  0
VERTEX
  8
0
 10
56.575859
 20
585.416992
  0
VERTEX
  8
0
 10
57.434841
 20
585.321228
  0
VERTEX
  8
0
 10
58.309841
 20
585.250916
  0
VERTEX
  8
0
 10
59.644531
 20
585.193176
  0
VERTEX
  8
0
 10
60.544373
 20
585.186218
  0
VERTEX
  8
0
 10
61.447655
 20
585.204346
  0
VERTEX
  8
0
 10
62.349998
 20
585.247314
  0
VERTEX
  8
0
 10
63.692265
 20
585.357422
  0
VERTEX
  8
0
 10
64.573280
 20
585.460754
  0
VERTEX
  8
0
 10
65.437965
 20
585.587891
  0
VERTEX
  8
0
 10
66.282028
 20
585.738220
  0
VERTEX
  8
0
 10
67.101013
 20
585.911560
  0
VERTEX
  8
0
 10
67.890701
 20
586.107544
  0
VERTEX
  8
0
 10
68.647499
 20
586.325867
  0
VERTEX
  8
0
 10
69.372108
 20
586.565857
  0
VERTEX
  8
0
 10
70.066093
 20
586.827026
  0
VERTEX
  8
0
 10
70.731010
 20
587.108398
  0
VERTEX
  8
0
 10
71.368591
 20
587.409668
  0
VERTEX
  8
0
 10
71.980392
 20
587.730042
  0
VERTEX
  8
0
 10
72.853043
 20
588.244995
  0
VERTEX
  8
0
 10
73.407265
 20
588.610352
  0
VERTEX
  8
0
 10
74.201485
 20
589.190430
  0
VERTEX
  8
0
 10
74.710625
 20
589.601379
  0
VERTEX
  8
0
 10
75.207657
 20
590.035583
  0
VERTEX
  8
0
 10
75.696480
 20
590.496399
  0
VERTEX
  8
0
 10
76.180702
 20
590.987183
  0
VERTEX
  8
0
 10
76.664063
 20
591.511292
  0
VERTEX
  8
0
 10
77.395546
 20
592.367310
  0
VERTEX
  8
0
 10
77.893044
 20
592.989502
  0
VERTEX
  8
0
 10
78.661797
 20
594.007324
  0
VERTEX
  8
0
 10
79.453278
 20
595.123596
  0
VERTEX
  8
0
 10
79.987343
 20
595.917542
  0
VERTEX
  8
0
 10
80.522186
 20
596.747986
  0
VERTEX
  8
0
 10
81.053825
 20
597.611694
  0
VERTEX
  8
0
 10
81.578514
 20
598.505981
  0
VERTEX
  8
0
 10
82.092499
 20
599.427856
  0
VERTEX
  8
0
 10
82.592110
 20
600.374146
  0
VERTEX
  8
0
 10
83.073357
 20
601.342224
  0
VERTEX
  8
0
 10
83.535309
 20
602.330505
  0
VERTEX
  8
0
 10
83.979141
 20
603.339600
  0
VERTEX
  8
0
 10
84.406403
 20
604.369568
  0
VERTEX
  8
0
 10
84.818283
 20
605.421265
  0
VERTEX
  8
0
 10
85.601952
 20
607.590088
  0
VERTEX
  8
0
 10
86.341408
 20
609.849182
  0
VERTEX
  8
0
 10
87.048279
 20
612.200012
  0
VERTEX
  8
0
 10
87.734528
 20
614.628296
  0
VERTEX
  8
0
 10
89.798355
 20
622.155640
  0
VERTEX
  8
0
 10
90.524376
 20
624.660828
  0
VERTEX
  8
0
 10
91.270470
 20
627.090515
  0
VERTEX
  8
0
 10
92.031013
 20
629.388977
  0
VERTEX
  8
0
 10
92.800079
 20
631.500305
  0
VERTEX
  8
0
 10
93.186172
 20
632.468628
  0
VERTEX
  8
0
 10
93.573830
 20
633.375122
  0
VERTEX
  8
0
 10
93.965385
 20
634.223999
  0
VERTEX
  8
0
 10
94.363434
 20
635.019531
  0
VERTEX
  8
0
 10
94.977577
 20
636.122192
  0
VERTEX
  8
0
 10
95.402031
 20
636.803284
  0
VERTEX
  8
0
 10
95.841324
 20
637.446167
  0
VERTEX
  8
0
 10
96.297729
 20
638.055359
  0
VERTEX
  8
0
 10
96.773827
 20
638.635010
  0
VERTEX
  8
0
 10
97.270782
 20
639.188721
  0
VERTEX
  8
0
 10
97.785233
 20
639.717163
  0
VERTEX
  8
0
 10
98.312889
 20
640.220215
  0
VERTEX
  8
0
 10
99.119057
 20
640.926636
  0
VERTEX
  8
0
 10
99.659767
 20
641.365295
  0
VERTEX
  8
0
 10
100.464531
 20
641.974487
  0
VERTEX
  8
0
 10
100.990463
 20
642.347900
  0
VERTEX
  8
0
 10
101.752106
 20
642.858521
  0
VERTEX
  8
0
 10
104.170937
 20
644.385864
  0
VERTEX
  8
0
 10
104.717575
 20
644.776306
  0
VERTEX
  8
0
 10
105.052574
 20
645.045776
  0
VERTEX
  8
0
 10
105.509766
 20
645.476685
  0
VERTEX
  8
0
 10
105.784454
 20
645.795288
  0
VERTEX
  8
0
 10
105.913048
 20
645.968445
  0
VERTEX
  8
0
 10
106.152969
 20
646.349731
  0
VERTEX
  8
0
 10
106.264526
 20
646.560974
  0
VERTEX
  8
0
 10
106.471169
 20
647.031921
  0
VERTEX
  8
0
 10
106.566406
 20
647.294617
  0
VERTEX
  8
0
 10
106.741173
 20
647.881775
  0
VERTEX
  8
0
 10
106.895470
 20
648.561340
  0
VERTEX
  8
0
 10
107.090073
 20
649.779907
  0
VERTEX
  8
0
 10
107.196167
 20
650.737854
  0
VERTEX
  8
0
 10
107.285156
 20
651.801880
  0
VERTEX
  8
0
 10
107.418045
 20
654.184021
  0
VERTEX
  8
0
 10
107.516716
 20
657.473022
  0
VERTEX
  8
0
 10
107.570000
 20
661.545715
  0
VERTEX
  8
0
 10
107.586014
 20
666.119751
  0
VERTEX
  8
0
 10
107.565933
 20
672.418335
  0
VERTEX
  8
0
 10
122.851250
 20
675.109131
  0
VERTEX
  8
0
 10
122.810860
 20
665.420532
  0
VERTEX
  8
0
 10
122.756561
 20
660.230835
  0
VERTEX
  8
0
 10
122.656403
 20
655.941772
  0
VERTEX
  8
0
 10
122.594688
 20
654.321960
  0
VERTEX
  8
0
 10
122.497185
 20
652.418945
  0
VERTEX
  8
0
 10
122.407494
 20
651.087646
  0
VERTEX
  8
0
 10
122.268982
 20
649.486633
  0
VERTEX
  8
0
 10
122.100311
 20
647.996399
  0
VERTEX
  8
0
 10
121.896873
 20
646.597229
  0
VERTEX
  8
0
 10
121.654999
 20
645.271362
  0
VERTEX
  8
0
 10
121.372734
 20
644.001099
  0
VERTEX
  8
0
 10
121.038589
 20
642.733582
  0
VERTEX
  8
0
 10
120.635780
 20
641.458740
  0
VERTEX
  8
0
 10
120.248749
 20
640.424500
  0
VERTEX
  8
0
 10
119.800781
 20
639.394775
  0
VERTEX
  8
0
 10
119.292419
 20
638.393372
  0
VERTEX
  8
0
 10
118.851563
 20
637.630676
  0
VERTEX
  8
0
 10
118.232498
 20
636.684753
  0
VERTEX
  8
0
 10
117.551559
 20
635.773682
  0
VERTEX
  8
0
 10
116.845856
 20
634.934021
  0
VERTEX
  8
0
 10
116.125229
 20
634.161560
  0
VERTEX
  8
0
 10
115.380386
 20
633.433472
  0
VERTEX
  8
0
 10
114.426407
 20
632.584839
  0
VERTEX
  8
0
 10
113.438904
 20
631.786682
  0
VERTEX
  8
0
 10
112.453827
 20
631.058411
  0
VERTEX
  8
0
 10
111.665543
 20
630.517395
  0
VERTEX
  8
0
 10
110.663826
 20
629.877380
  0
VERTEX
  8
0
 10
108.288750
 20
628.481445
  0
VERTEX
  8
0
 10
108.034920
 20
628.317261
  0
VERTEX
  8
0
 10
108.079292
 20
628.329224
  0
VERTEX
  8
0
 10
108.089371
 20
628.343262
  0
VERTEX
  8
0
 10
107.977654
 20
628.170044
  0
VERTEX
  8
0
 10
107.852188
 20
627.953491
  0
VERTEX
  8
0
 10
107.703125
 20
627.671448
  0
VERTEX
  8
0
 10
107.538361
 20
627.331909
  0
VERTEX
  8
0
 10
107.355934
 20
626.924438
  0
VERTEX
  8
0
 10
107.157806
 20
626.448792
  0
VERTEX
  8
0
 10
106.853905
 20
625.666443
  0
VERTEX
  8
0
 10
106.325935
 20
624.196167
  0
VERTEX
  8
0
 10
105.728203
 20
622.362793
  0
VERTEX
  8
0
 10
105.293747
 20
620.907593
  0
VERTEX
  8
0
 10
104.810936
 20
619.170715
  0
VERTEX
  8
0
 10
103.162338
 20
612.806641
  0
VERTEX
  8
0
 10
102.260620
 20
609.483887
  0
VERTEX
  8
0
 10
101.662186
 20
607.429688
  0
VERTEX
  8
0
 10
101.240074
 20
606.057800
  0
VERTEX
  8
0
 10
100.804604
 20
604.701782
  0
VERTEX
  8
0
 10
100.139297
 20
602.736694
  0
VERTEX
  8
0
 10
99.446716
 20
600.815857
  0
VERTEX
  8
0
 10
98.733200
 20
598.960449
  0
VERTEX
  8
0
 10
98.007500
 20
597.195984
  0
VERTEX
  8
0
 10
97.503044
 20
596.040710
  0
VERTEX
  8
0
 10
96.991798
 20
594.925842
  0
VERTEX
  8
0
 10
96.236092
 20
593.374939
  0
VERTEX
  8
0
 10
95.462502
 20
591.895752
  0
VERTEX
  8
0
 10
94.680855
 20
590.499146
  0
VERTEX
  8
0
 10
93.893906
 20
589.179077
  0
VERTEX
  8
0
 10
93.102501
 20
587.925598
  0
VERTEX
  8
0
 10
92.296013
 20
586.714111
  0
VERTEX
  8
0
 10
91.457184
 20
585.524414
  0
VERTEX
  8
0
 10
90.577187
 20
584.353210
  0
VERTEX
  8
0
 10
89.650391
 20
583.201965
  0
VERTEX
  8
0
 10
88.689064
 20
582.092224
  0
VERTEX
  8
0
 10
87.989449
 20
581.334534
  0
VERTEX
  8
0
 10
87.264923
 20
580.589783
  0
VERTEX
  8
0
 10
86.185936
 20
579.550049
  0
VERTEX
  8
0
 10
85.048355
 20
578.534668
  0
VERTEX
  8
0
 10
83.874298
 20
577.563843
  0
VERTEX
  8
0
 10
82.687111
 20
576.656372
  0
VERTEX
  8
0
 10
81.820000
 20
576.037415
  0
VERTEX
  8
0
 10
80.603745
 20
575.230042
  0
VERTEX
  8
0
 10
79.693123
 20
574.671326
  0
VERTEX
  8
0
 10
78.424370
 20
573.957336
  0
VERTEX
  8
0
 10
77.462967
 20
573.465454
  0
VERTEX
  8
0
 10
76.134216
 20
572.853027
  0
VERTEX
  8
0
 10
75.125542
 20
572.438293
  0
VERTEX
  8
0
 10
73.737968
 20
571.934448
  0
VERTEX
  8
0
 10
72.721092
 20
571.612122
  0
VERTEX
  8
0
 10
71.698433
 20
571.323792
  0
VERTEX
  8
0
 10
70.258667
 20
570.975525
  0
VERTEX
  8
0
 10
69.216095
 20
570.760315
  0
VERTEX
  8
0
 10
67.763283
 20
570.505981
  0
VERTEX
  8
0
 10
66.301323
 20
570.299500
  0
VERTEX
  8
0
 10
64.861794
 20
570.140137
  0
VERTEX
  8
0
 10
63.448982
 20
570.023010
  0
VERTEX
  8
0
 10
62.058125
 20
569.944702
  0
VERTEX
  8
0
 10
60.676559
 20
569.904663
  0
VERTEX
  8
0
 10
59.299141
 20
569.903992
  0
VERTEX
  8
0
 10
57.904610
 20
569.943420
  0
VERTEX
  8
0
 10
56.107109
 20
570.054688
  0
VERTEX
  8
0
 10
54.692734
 20
570.188599
  0
VERTEX
  8
0
 10
53.242577
 20
570.370056
  0
VERTEX
  8
0
 10
51.751484
 20
570.613708
  0
VERTEX
  8
0
 10
50.637188
 20
570.837830
  0
VERTEX
  8
0
 10
49.074451
 20
571.220093
  0
VERTEX
  8
0
 10
47.887733
 20
571.567627
  0
VERTEX
  8
0
 10
46.257420
 20
572.132568
  0
VERTEX
  8
0
 10
45.076015
 20
572.610535
  0
VERTEX
  8
0
 10
43.946327
 20
573.120850
  0
VERTEX
  8
0
 10
42.840546
 20
573.670715
  0
VERTEX
  8
0
 10
41.758438
 20
574.256958
  0
VERTEX
  8
0
 10
40.700546
 20
574.876770
  0
VERTEX
  8
0
 10
39.639999
 20
575.545715
  0
VERTEX
  8
0
 10
38.195000
 20
576.541626
  0
VERTEX
  8
0
 10
37.205154
 20
577.286377
  0
VERTEX
  8
0
 10
36.274220
 20
578.039307
  0
VERTEX
  8
0
 10
35.386951
 20
578.811951
  0
VERTEX
  8
0
 10
34.551407
 20
579.594116
  0
VERTEX
  8
0
 10
33.746170
 20
580.401489
  0
VERTEX
  8
0
 10
32.705311
 20
581.532227
  0
VERTEX
  8
0
 10
32.006798
 20
582.349060
  0
VERTEX
  8
0
 10
31.111406
 20
583.466064
  0
VERTEX
  8
0
 10
30.276796
 20
584.577820
  0
VERTEX
  8
0
 10
29.286327
 20
585.975525
  0
VERTEX
  8
0
 10
28.559374
 20
587.054932
  0
VERTEX
  8
0
 10
27.658905
 20
588.458191
  0
VERTEX
  8
0
 10
26.789764
 20
589.883179
  0
VERTEX
  8
0
 10
25.940702
 20
591.338867
  0
VERTEX
  8
0
 10
25.076015
 20
592.889221
  0
VERTEX
  8
0
 10
24.374140
 20
594.227173
  0
VERTEX
  8
0
 10
23.648750
 20
595.704895
  0
VERTEX
  8
0
 10
23.123125
 20
596.839355
  0
VERTEX
  8
0
 10
22.330780
 20
598.650208
  0
VERTEX
  8
0
 10
21.747656
 20
600.056152
  0
VERTEX
  8
0
 10
20.539686
 20
603.137024
  0
VERTEX
  8
0
 10
18.929688
 20
607.479919
  0
VERTEX
  8
0
 10
17.028984
 20
612.817505
  0
VERTEX
  8
0
 10
14.927578
 20
618.902161
  0
VERTEX
  8
0
 10
13.942734
 20
621.830322
  0
VERTEX
  8
0
 10
13.164844
 20
624.204285
  0
VERTEX
  8
0
 10
11.590859
 20
629.236633
  0
VERTEX
  8
0
 10
11.387500
 20
629.821411
  0
VERTEX
  8
0
 10
11.309688
 20
630.013794
  0
VERTEX
  8
0
 10
11.192422
 20
630.253113
  0
VERTEX
  8
0
 10
11.090547
 20
630.425476
  0
VERTEX
  8
0
 10
10.844687
 20
630.789490
  0
VERTEX
  8
0
 10
10.428594
 20
631.349976
  0
VERTEX
  8
0
 10
9.883750
 20
632.039856
  0
VERTEX
  8
0
 10
9.109531
 20
632.972229
  0
VERTEX
  8
0
 10
6.533750
 20
635.896729
  0
VERTEX
  8
0
 10
5.704922
 20
636.935608
  0
VERTEX
  8
0
 10
5.013437
 20
637.913269
  0
VERTEX
  8
0
 10
4.251563
 20
639.173523
  0
VERTEX
  8
0
 10
3.835469
 20
639.970947
  0
VERTEX
  8
0
 10
3.452500
 20
640.783813
  0
VERTEX
  8
0
 10
2.866484
 20
642.246460
  0
VERTEX
  8
0
 10
2.357812
 20
643.848633
  0
VERTEX
  8
0
 10
1.957500
 20
645.484192
  0
VERTEX
  8
0
 10
1.707969
 20
646.805664
  0
VERTEX
  8
0
 10
1.508828
 20
648.161011
  0
VERTEX
  8
0
 10
1.314922
 20
649.989441
  0
VERTEX
  8
0
 10
1.202344
 20
651.515137
  0
VERTEX
  8
0
 10
1.097031
 20
653.655762
  0
VERTEX
  8
0
 10
1.029219
 20
656.031006
  0
VERTEX
  8
0
 10
1.002266
 20
657.955078
  0
VERTEX
  8
0
 10
1.000000
 20
660.584290
  0
VERTEX
  8
0
 10
1.025078
 20
662.605225
  0
VERTEX
  8
0
 10
1.074609
 20
664.605713
  0
VERTEX
  8
0
 10
1.149922
 20
666.550903
  0
VERTEX
  8
0
 10
1.248516
 20
668.427246
  0
VERTEX
  8
0
 10
1.407031
 20
670.815796
  0
VERTEX
  8
0
 10
1.843437
 20
676.103638
  0
VERTEX
  8
0
 10
17.010702
 20
674.231873
  0
SEQEND
  8
0
  0
POLYLINE
  8
0
  0
VERTEX
  8
0
 10
114.845306
 20
673.699768
  0
VERTEX
  8
0
 10
114.811089
 20
665.479065
  0
VERTEX
  8
0
 10
114.757576
 20
660.366211
  0
VERTEX
  8
0
 10
114.659843
 20
656.187317
  0
VERTEX
  8
0
 10
114.602501
 20
654.678650
  0
VERTEX
  8
0
 10
114.511017
 20
652.892578
  0
VERTEX
  8
0
 10
114.430779
 20
651.701477
  0
VERTEX
  8
0
 10
114.307892
 20
650.281494
  0
VERTEX
  8
0
 10
114.165314
 20
649.021851
  0
VERTEX
  8
0
 10
114.000854
 20
647.891052
  0
VERTEX
  8
0
 10
113.812340
 20
646.857300
  0
VERTEX
  8
0
 10
113.597183
 20
645.888916
  0
VERTEX
  8
0
 10
113.352264
 20
644.959900
  0
VERTEX
  8
0
 10
113.070152
 20
644.067505
  0
VERTEX
  8
0
 10
112.829453
 20
643.423950
  0
VERTEX
  8
0
 10
112.559761
 20
642.804077
  0
VERTEX
  8
0
 10
112.257576
 20
642.208801
  0
VERTEX
  8
0
 10
112.036484
 20
641.826477
  0
VERTEX
  8
0
 10
111.675079
 20
641.274231
  0
VERTEX
  8
0
 10
111.280235
 20
640.745911
  0
VERTEX
  8
0
 10
110.854767
 20
640.239685
  0
VERTEX
  8
0
 10
110.401405
 20
639.753662
  0
VERTEX
  8
0
 10
109.922813
 20
639.286011
  0
VERTEX
  8
0
 10
109.250313
 20
638.687561
  0
VERTEX
  8
0
 10
108.544296
 20
638.116943
  0
VERTEX
  8
0
 10
107.811089
 20
637.575012
  0
VERTEX
  8
0
 10
107.247261
 20
637.187927
  0
VERTEX
  8
0
 10
106.481949
 20
636.698975
  0
VERTEX
  8
0
 10
104.018517
 20
635.251221
  0
VERTEX
  8
0
 10
103.335312
 20
634.789612
  0
VERTEX
  8
0
 10
102.866875
 20
634.419189
  0
VERTEX
  8
0
 10
102.577965
 20
634.157776
  0
VERTEX
  8
0
 10
102.306328
 20
633.884644
  0
VERTEX
  8
0
 10
102.050308
 20
633.599915
  0
VERTEX
  8
0
 10
101.692345
 20
633.151184
  0
VERTEX
  8
0
 10
101.468590
 20
632.837769
  0
VERTEX
  8
0
 10
101.151718
 20
632.346558
  0
VERTEX
  8
0
 10
100.852417
 20
631.830139
  0
VERTEX
  8
0
 10
100.565620
 20
631.287537
  0
VERTEX
  8
0
 10
100.286797
 20
630.712646
  0
VERTEX
  8
0
 10
100.011635
 20
630.097961
  0
VERTEX
  8
0
 10
99.735703
 20
629.435913
  0
VERTEX
  8
0
 10
99.359375
 20
628.466858
  0
VERTEX
  8
0
 10
98.756638
 20
626.788574
  0
VERTEX
  8
0
 10
98.091171
 20
624.747314
  0
VERTEX
  8
0
 10
97.606323
 20
623.123291
  0
VERTEX
  8
0
 10
97.084297
 20
621.245117
  0
VERTEX
  8
0
 10
95.429527
 20
614.857422
  0
VERTEX
  8
0
 10
94.559296
 20
611.650513
  0
VERTEX
  8
0
 10
93.998276
 20
609.724854
  0
VERTEX
  8
0
 10
93.608276
 20
608.457275
  0
VERTEX
  8
0
 10
93.207031
 20
607.207825
  0
VERTEX
  8
0
 10
92.587029
 20
605.376526
  0
VERTEX
  8
0
 10
91.949532
 20
603.608826
  0
VERTEX
  8
0
 10
91.299454
 20
601.918274
  0
VERTEX
  8
0
 10
90.641403
 20
600.318298
  0
VERTEX
  8
0
 10
90.200623
 20
599.308716
  0
VERTEX
  8
0
 10
89.759064
 20
598.345642
  0
VERTEX
  8
0
 10
89.094292
 20
596.981445
  0
VERTEX
  8
0
 10
88.426010
 20
595.703918
  0
VERTEX
  8
0
 10
87.753281
 20
594.501648
  0
VERTEX
  8
0
 10
87.074760
 20
593.363403
  0
VERTEX
  8
0
 10
86.389610
 20
592.278320
  0
VERTEX
  8
0
 10
85.695938
 20
591.236328
  0
VERTEX
  8
0
 10
84.988670
 20
590.233215
  0
VERTEX
  8
0
 10
84.261719
 20
589.265747
  0
VERTEX
  8
0
 10
83.509377
 20
588.331055
  0
VERTEX
  8
0
 10
82.725311
 20
587.426147
  0
VERTEX
  8
0
 10
82.182266
 20
586.837891
  0
VERTEX
  8
0
 10
81.620781
 20
586.260681
  0
VERTEX
  8
0
 10
80.744766
 20
585.416687
  0
VERTEX
  8
0
 10
79.833908
 20
584.603516
  0
VERTEX
  8
0
 10
78.894455
 20
583.826782
  0
VERTEX
  8
0
 10
77.932808
 20
583.091797
  0
VERTEX
  8
0
 10
77.282578
 20
582.627563
  0
VERTEX
  8
0
 10
76.298203
 20
581.974121
  0
VERTEX
  8
0
 10
75.637970
 20
581.569031
  0
VERTEX
  8
0
 10
74.639450
 20
581.007080
  0
VERTEX
  8
0
 10
73.965385
 20
580.662231
  0
VERTEX
  8
0
 10
72.937263
 20
580.188416
  0
VERTEX
  8
0
 10
72.237808
 20
579.900757
  0
VERTEX
  8
0
 10
71.162888
 20
579.510559
  0
VERTEX
  8
0
 10
70.426323
 20
579.277100
  0
VERTEX
  8
0
 10
69.671875
 20
579.064392
  0
VERTEX
  8
0
 10
68.508751
 20
578.782959
  0
VERTEX
  8
0
 10
67.717186
 20
578.619507
  0
VERTEX
  8
0
 10
66.513985
 20
578.408875
  0
VERTEX
  8
0
 10
65.301483
 20
578.237732
  0
VERTEX
  8
0
 10
64.091011
 20
578.103638
  0
VERTEX
  8
0
 10
62.893513
 20
578.004333
  0
VERTEX
  8
0
 10
61.717499
 20
577.938110
  0
VERTEX
  8
0
 10
60.558670
 20
577.904663
  0
VERTEX
  8
0
 10
59.410233
 20
577.903992
  0
VERTEX
  8
0
 10
58.265156
 20
577.936401
  0
VERTEX
  8
0
 10
56.731247
 20
578.031372
  0
VERTEX
  8
0
 10
55.566719
 20
578.141602
  0
VERTEX
  8
0
 10
54.384842
 20
578.289490
  0
VERTEX
  8
0
 10
53.185780
 20
578.485474
  0
VERTEX
  8
0
 10
52.377029
 20
578.648132
  0
VERTEX
  8
0
 10
51.150078
 20
578.948242
  0
VERTEX
  8
0
 10
50.322968
 20
579.190369
  0
VERTEX
  8
0
 10
49.068905
 20
579.624939
  0
VERTEX
  8
0
 10
48.224373
 20
579.966614
  0
VERTEX
  8
0
 10
47.375546
 20
580.350159
  0
VERTEX
  8
0
 10
46.527889
 20
580.771606
  0
VERTEX
  8
0
 10
45.686874
 20
581.227234
  0
VERTEX
  8
0
 10
44.857655
 20
581.713013
  0
VERTEX
  8
0
 10
44.045780
 20
582.225159
  0
VERTEX
  8
0
 10
42.872108
 20
583.034119
  0
VERTEX
  8
0
 10
42.127029
 20
583.594727
  0
VERTEX
  8
0
 10
41.418125
 20
584.168091
  0
VERTEX
  8
0
 10
40.749218
 20
584.750549
  0
VERTEX
  8
0
 10
40.118828
 20
585.340698
  0
VERTEX
  8
0
 10
39.523670
 20
585.937439
  0
VERTEX
  8
0
 10
38.690155
 20
586.842896
  0
VERTEX
  8
0
 10
38.169453
 20
587.451782
  0
VERTEX
  8
0
 10
37.432968
 20
588.370605
  0
VERTEX
  8
0
 10
36.740623
 20
589.292786
  0
VERTEX
  8
0
 10
35.868671
 20
590.523376
  0
VERTEX
  8
0
 10
35.244373
 20
591.450317
  0
VERTEX
  8
0
 10
34.441326
 20
592.701599
  0
VERTEX
  8
0
 10
33.660545
 20
593.981873
  0
VERTEX
  8
0
 10
32.889767
 20
595.303162
  0
VERTEX
  8
0
 10
32.112812
 20
596.696289
  0
VERTEX
  8
0
 10
31.508358
 20
597.848633
  0
VERTEX
  8
0
 10
30.869608
 20
599.149658
  0
VERTEX
  8
0
 10
30.417891
 20
600.124756
  0
VERTEX
  8
0
 10
29.690781
 20
601.786499
  0
VERTEX
  8
0
 10
29.167109
 20
603.049072
  0
VERTEX
  8
0
 10
28.014999
 20
605.987671
  0
VERTEX
  8
0
 10
26.448750
 20
610.212341
  0
VERTEX
  8
0
 10
24.578125
 20
615.465271
  0
VERTEX
  8
0
 10
22.499844
 20
621.483093
  0
VERTEX
  8
0
 10
21.535234
 20
624.351074
  0
VERTEX
  8
0
 10
20.783905
 20
626.643982
  0
VERTEX
  8
0
 10
19.188437
 20
631.745117
  0
VERTEX
  8
0
 10
18.878984
 20
632.634888
  0
VERTEX
  8
0
 10
18.619610
 20
633.277222
  0
VERTEX
  8
0
 10
18.238125
 20
634.054993
  0
VERTEX
  8
0
 10
17.855234
 20
634.703003
  0
VERTEX
  8
0
 10
17.374531
 20
635.414856
  0
VERTEX
  8
0
 10
16.780624
 20
636.214905
  0
VERTEX
  8
0
 10
16.101015
 20
637.075073
  0
VERTEX
  8
0
 10
15.190000
 20
638.172302
  0
VERTEX
  8
0
 10
12.666016
 20
641.038025
  0
VERTEX
  8
0
 10
12.102968
 20
641.743835
  0
VERTEX
  8
0
 10
11.710859
 20
642.298279
  0
VERTEX
  8
0
 10
11.227656
 20
643.097534
  0
VERTEX
  8
0
 10
11.003202
 20
643.527405
  0
VERTEX
  8
0
 10
10.790781
 20
643.978638
  0
VERTEX
  8
0
 10
10.402344
 20
644.948120
  0
VERTEX
  8
0
 10
10.064375
 20
646.012573
  0
VERTEX
  8
0
 10
9.778906
 20
647.178711
  0
VERTEX
  8
0
 10
9.599297
 20
648.129822
  0
VERTEX
  8
0
 10
9.447266
 20
649.164673
  0
VERTEX
  8
0
 10
9.283828
 20
650.705933
  0
VERTEX
  8
0
 10
9.187812
 20
652.006165
  0
VERTEX
  8
0
 10
9.091406
 20
653.966370
  0
VERTEX
  8
0
 10
9.027656
 20
656.201294
  0
VERTEX
  8
0
 10
9.002188
 20
658.014648
  0
VERTEX
  8
0
 10
9.000000
 20
660.538025
  0
VERTEX
  8
0
 10
9.023906
 20
662.456543
  0
VERTEX
  8
0
 10
9.070781
 20
664.352112
  0
VERTEX
  8
0
 10
9.141719
 20
666.186462
  0
VERTEX
  8
0
 10
9.234531
 20
667.952148
  0
VERTEX
  8
0
 10
9.385312
 20
670.221680
  0
VERTEX
  8
0
 10
9.789687
 20
675.123047
  0
SEQEND
  8
0
  0
POLYLINE
  8
0
  0
VERTEX
  8
0
 10
94.620155
 20
617.778137
  0
VERTEX
  8
0
 10
93.769684
 20
621.691101
  0
VERTEX
  8
0
 10
91.613670
 20
618.939697
  0
VERTEX
  8
0
 10
94.621407
 20
617.706726
  0
SEQEND
  8
0
  0
POLYLINE
  8
0
  0
VERTEX
  8
0
 10
59.991718
 20
582.473083
  0
VERTEX
  8
0
 10
59.515076
 20
582.369568
  0
VERTEX
  8
0
 10
59.114296
 20
582.091614
  0
VERTEX
  8
0
 10
58.850468
 20
581.681396
  0
VERTEX
  8
0
 10
58.763672
 20
581.201477
  0
VERTEX
  8
0
 10
58.867188
 20
580.724854
  0
VERTEX
  8
0
 10
59.145153
 20
580.324158
  0
VERTEX
  8
0
 10
59.555389
 20
580.060303
  0
VERTEX
  8
0
 10
60.035313
 20
579.973511
  0
VERTEX
  8
0
 10
60.511951
 20
580.076965
  0
VERTEX
  8
0
 10
60.912655
 20
580.354919
  0
VERTEX
  8
0
 10
61.176483
 20
580.765137
  0
VERTEX
  8
0
 10
61.263279
 20
581.245056
  0
VERTEX
  8
0
 10
61.159843
 20
581.721680
  0
VERTEX
  8
0
 10
60.881874
 20
582.122498
  0
VERTEX
  8
0
 10
60.471638
 20
582.386292
  0
VERTEX
  8
0
 10
59.991718
 20
582.473083
  0
SEQEND
  8
0
  0
POLYLINE
  8
0
  0
VERTEX
  8
0
 10
139.325928
 20
2.275547
  0
VERTEX
  8
0
 10
152.165939
 20
1.611875
  0
VERTEX
  8
0
 10
157.131485
 20
1.388984
  0
VERTEX
  8
0
 10
160.746475
 20
1.249297
  0
VERTEX
  8
0
 10
165.395081
 20
1.108437
  0
VERTEX
  8
0
 10
168.797882
 20
1.039609
  0
VERTEX
  8
0
 10
172.193115
 20
1.003203
  0
VERTEX
  8
0
 10
175.638428
 20
1.000078
  0
VERTEX
  8
0
 10
179.191559
 20
1.030937
  0
VERTEX
  8
0
 10
184.196320
 20
1.126406
  0
VERTEX
  8
0
 10
189.559143
 20
1.287500
  0
VERTEX
  8
0
 10
193.771637
 20
1.455781
  0
VERTEX
  8
0
 10
198.104370
 20
1.668203
  0
VERTEX
  8
0
 10
202.518433
 20
1.928047
  0
VERTEX
  8
0
 10
206.975311
 20
2.238437
  0
VERTEX
  8
0
 10
211.440460
 20
2.602813
  0
VERTEX
  8
0
 10
214.428192
 20
2.877812
  0
VERTEX
  8
0
 10
217.441956
 20
3.180156
  0
VERTEX
  8
0
 10
220.496552
 20
3.511172
  0
VERTEX
  8
0
 10
223.607101
 20
3.872656
  0
VERTEX
  8
0
 10
226.788361
 20
4.265781
  0
VERTEX
  8
0
 10
230.055466
 20
4.692187
  0
VERTEX
  8
0
 10
233.423279
 20
5.153281
  0
VERTEX
  8
0
 10
238.696014
 20
5.913203
  0
VERTEX
  8
0
 10
244.241943
 20
6.751562
  0
VERTEX
  8
0
 10
250.017731
 20
7.654062
  0
VERTEX
  8
0
 10
264.119598
 20
9.922343
  0
VERTEX
  8
0
 10
280.685608
 20
12.593594
  0
VERTEX
  8
0
 10
295.225067
 20
14.899375
  0
VERTEX
  8
0
 10
309.777100
 20
17.188047
  0
VERTEX
  8
0
 10
309.777100
 20
17.188047
  0
VERTEX
  8
0
 10
302.332581
 20
23.713749
  0
VERTEX
  8
0
 10
297.899750
 20
27.577734
  0
VERTEX
  8
0
 10
293.781311
 20
31.135311
  0
VERTEX
  8
0
 10
290.057495
 20
34.304920
  0
VERTEX
  8
0
 10
286.646179
 20
37.151638
  0
VERTEX
  8
0
 10
283.424591
 20
39.776951
  0
VERTEX
  8
0
 10
280.271179
 20
42.281013
  0
VERTEX
  8
0
 10
277.113129
 20
44.719997
  0
VERTEX
  8
0
 10
275.211639
 20
46.151794
  0
VERTEX
  8
0
 10
273.303833
 20
47.558514
  0
VERTEX
  8
0
 10
270.106628
 20
49.844532
  0
VERTEX
  8
0
 10
266.909760
 20
52.036953
  0
VERTEX
  8
0
 10
263.842194
 20
54.053280
  0
VERTEX
  8
0
 10
261.059753
 20
55.795311
  0
VERTEX
  8
0
 10
259.592194
 20
56.667969
  0
VERTEX
  8
0
 10
258.715546
 20
57.166874
  0
VERTEX
  8
0
 10
257.916168
 20
57.602264
  0
VERTEX
  8
0
 10
256.844055
 20
58.148983
  0
VERTEX
  8
0
 10
255.899445
 20
58.584843
  0
VERTEX
  8
0
 10
255.054443
 20
58.928905
  0
VERTEX
  8
0
 10
254.281250
 20
59.200390
  0
VERTEX
  8
0
 10
253.552032
 20
59.418125
  0
VERTEX
  8
0
 10
252.841476
 20
59.593201
  0
VERTEX
  8
0
 10
252.367569
 20
59.685780
  0
VERTEX
  8
0
 10
251.640701
 20
59.786873
  0
VERTEX
  8
0
 10
251.136246
 20
59.828201
  0
VERTEX
  8
0
 10
250.608749
 20
59.847889
  0
VERTEX
  8
0
 10
250.051865
 20
59.845310
  0
VERTEX
  8
0
 10
249.147812
 20
59.798515
  0
VERTEX
  8
0
 10
248.490936
 20
59.737419
  0
VERTEX
  8
0
 10
247.418747
 20
59.596249
  0
VERTEX
  8
0
 10
246.644287
 20
59.465622
  0
VERTEX
  8
0
 10
245.820770
 20
59.303280
  0
VERTEX
  8
0
 10
244.947021
 20
59.106873
  0
VERTEX
  8
0
 10
244.021942
 20
58.874062
  0
VERTEX
  8
0
 10
243.044220
 20
58.602577
  0
VERTEX
  8
0
 10
241.476563
 20
58.117809
  0
VERTEX
  8
0
 10
240.362411
 20
57.740467
  0
VERTEX
  8
0
 10
239.192032
 20
57.321171
  0
VERTEX
  8
0
 10
237.328751
 20
56.618984
  0
VERTEX
  8
0
 10
234.639206
 20
55.559139
  0
VERTEX
  8
0
 10
224.259766
 20
51.377811
  0
VERTEX
  8
0
 10
216.337097
 20
48.255310
  0
VERTEX
  8
0
 10
212.168518
 20
46.644138
  0
VERTEX
  8
0
 10
208.376404
 20
45.205235
  0
VERTEX
  8
0
 10
205.052490
 20
43.974373
  0
VERTEX
  8
0
 10
202.283905
 20
42.985077
  0
VERTEX
  8
0
 10
200.517960
 20
42.387810
  0
VERTEX
  8
0
 10
199.429688
 20
42.049767
  0
VERTEX
  8
0
 10
198.500229
 20
41.796951
  0
VERTEX
  8
0
 10
197.690079
 20
41.621094
  0
VERTEX
  8
0
 10
196.959991
 20
41.513985
  0
VERTEX
  8
0
 10
196.498199
 20
41.476795
  0
VERTEX
  8
0
 10
196.042969
 20
41.464062
  0
VERTEX
  8
0
 10
195.361328
 20
41.487968
  0
VERTEX
  8
0
 10
194.907425
 20
41.531483
  0
VERTEX
  8
0
 10
194.453583
 20
41.596561
  0
VERTEX
  8
0
 10
193.546478
 20
41.788826
  0
VERTEX
  8
0
 10
192.639374
 20
42.059765
  0
VERTEX
  8
0
 10
191.730225
 20
42.405937
  0
VERTEX
  8
0
 10
191.267258
 20
42.613750
  0
VERTEX
  8
0
 10
190.789291
 20
42.853905
  0
VERTEX
  8
0
 10
190.288818
 20
43.133751
  0
VERTEX
  8
0
 10
189.758438
 20
43.460388
  0
VERTEX
  8
0
 10
188.890778
 20
44.053982
  0
VERTEX
  8
0
 10
187.914215
 20
44.793751
  0
VERTEX
  8
0
 10
186.804138
 20
45.703594
  0
VERTEX
  8
0
 10
185.557571
 20
46.785938
  0
VERTEX
  8
0
 10
183.736954
 20
48.442032
  0
VERTEX
  8
0
 10
182.295929
 20
49.799217
  0
VERTEX
  8
0
 10
180.337646
 20
51.696560
  0
VERTEX
  8
0
 10
178.884689
 20
53.140781
  0
VERTEX
  8
0
 10
177.476166
 20
54.569530
  0
VERTEX
  8
0
 10
171.038666
 20
61.232185
  0
VERTEX
  8
0
 10
169.448441
 20
62.823593
  0
VERTEX
  8
0
 10
167.906952
 20
64.328438
  0
VERTEX
  8
0
 10
164.649994
 20
67.416794
  0
VERTEX
  8
0
 10
157.394684
 20
74.151405
  0
VERTEX
  8
0
 10
156.510544
 20
74.929840
  0
VERTEX
  8
0
 10
155.767654
 20
75.532967
  0
VERTEX
  8
0
 10
154.996017
 20
76.094765
  0
VERTEX
  8
0
 10
154.373596
 20
76.484375
  0
VERTEX
  8
0
 10
153.760315
 20
76.795547
  0
VERTEX
  8
0
 10
153.461014
 20
76.914375
  0
VERTEX
  8
0
 10
153.167892
 20
77.005386
  0
VERTEX
  8
0
 10
152.878906
 20
77.068047
  0
VERTEX
  8
0
 10
152.590851
 20
77.102890
  0
VERTEX
  8
0
 10
152.154373
 20
77.103127
  0
VERTEX
  8
0
 10
151.855927
 20
77.068901
  0
VERTEX
  8
0
 10
151.548126
 20
77.007500
  0
VERTEX
  8
0
 10
151.227966
 20
76.918983
  0
VERTEX
  8
0
 10
150.718048
 20
76.736252
  0
VERTEX
  8
0
 10
149.967499
 20
76.399452
  0
VERTEX
  8
0
 10
148.886093
 20
75.827263
  0
VERTEX
  8
0
 10
147.324219
 20
74.915001
  0
VERTEX
  8
0
 10
144.343674
 20
73.099060
  0
VERTEX
  8
0
 10
140.293671
 20
70.592575
  0
VERTEX
  8
0
 10
138.052032
 20
69.175468
  0
VERTEX
  8
0
 10
137.234680
 20
68.628906
  0
VERTEX
  8
0
 10
136.514450
 20
68.112106
  0
VERTEX
  8
0
 10
135.898911
 20
67.620621
  0
VERTEX
  8
0
 10
135.395538
 20
67.149841
  0
VERTEX
  8
0
 10
135.125229
 20
66.845078
  0
VERTEX
  8
0
 10
134.812103
 20
66.395622
  0
VERTEX
  8
0
 10
134.599609
 20
65.947968
  0
VERTEX
  8
0
 10
134.476089
 20
65.493126
  0
VERTEX
  8
0
 10
134.437347
 20
65.181641
  0
VERTEX
  8
0
 10
134.436325
 20
64.695549
  0
VERTEX
  8
0
 10
134.493439
 20
64.179214
  0
VERTEX
  8
0
 10
134.599915
 20
63.627422
  0
VERTEX
  8
0
 10
134.751556
 20
63.040390
  0
VERTEX
  8
0
 10
134.944443
 20
62.418983
  0
VERTEX
  8
0
 10
135.174759
 20
61.763985
  0
VERTEX
  8
0
 10
135.438507
 20
61.076248
  0
VERTEX
  8
0
 10
135.836487
 20
60.107735
  0
VERTEX
  8
0
 10
136.426254
 20
58.753044
  0
VERTEX
  8
0
 10
140.135773
 20
50.545624
  0
VERTEX
  8
0
 10
142.303207
 20
45.625702
  0
VERTEX
  8
0
 10
143.657257
 20
42.398045
  0
VERTEX
  8
0
 10
144.200394
 20
41.025703
  0
VERTEX
  8
0
 10
144.812256
 20
39.386875
  0
VERTEX
  8
0
 10
145.204453
 20
38.261639
  0
VERTEX
  8
0
 10
145.664063
 20
36.842110
  0
VERTEX
  8
0
 10
145.977646
 20
35.799610
  0
VERTEX
  8
0
 10
146.263046
 20
34.751484
  0
VERTEX
  8
0
 10
146.507568
 20
33.681717
  0
VERTEX
  8
0
 10
146.641800
 20
32.948826
  0
VERTEX
  8
0
 10
146.748276
 20
32.194607
  0
VERTEX
  8
0
 10
146.823441
 20
31.414452
  0
VERTEX
  8
0
 10
146.869141
 20
30.185234
  0
VERTEX
  8
0
 10
146.849457
 20
29.319687
  0
VERTEX
  8
0
 10
146.788284
 20
28.415390
  0
VERTEX
  8
0
 10
146.687347
 20
27.474062
  0
VERTEX
  8
0
 10
146.548752
 20
26.497734
  0
VERTEX
  8
0
 10
146.274216
 20
24.972500
  0
VERTEX
  8
0
 10
146.049759
 20
23.917969
  0
VERTEX
  8
0
 10
145.656006
 20
22.285000
  0
VERTEX
  8
0
 10
145.034531
 20
20.022890
  0
VERTEX
  8
0
 10
144.325226
 20
17.692734
  0
VERTEX
  8
0
 10
143.566406
 20
15.351015
  0
VERTEX
  8
0
 10
141.232895
 20
8.366015
  0
VERTEX
  8
0
 10
140.366318
 20
5.644375
  0
VERTEX
  8
0
 10
139.325928
 20
2.275547
  0
VERTEX
  8
0
 10
139.325928
 20
2.275547
  0
SEQEND
  8
0
  0
POLYLINE
  8
0
  0
VERTEX
  8
0
 10
144.112259
 20
61.631718
  0
VERTEX
  8
0
 10
154.565933
 20
65.648361
  0
SEQEND
  8
0
  0
POLYLINE
  8
0
  0
VERTEX
  8
0
 10
145.102890
 20
45.660625
  0
VERTEX
  8
0
 10
149.219131
 20
47.420078
  0
SEQEND
  8
0
  0
POLYLINE
  8
0
  0
VERTEX
  8
0
 10
165.380783
 20
56.183514
  0
VERTEX
  8
0
 10
169.783051
 20
58.348747
  0
SEQEND
  8
0
  0
POLYLINE
  8
0
  0
VERTEX
  8
0
 10
270.607574
 20
42.109688
  0
VERTEX
  8
0
 10
257.025146
 20
36.833984
  0
VERTEX
  8
0
 10
240.992264
 20
30.631016
  0
VERTEX
  8
0
 10
231.408127
 20
26.889999
  0
VERTEX
  8
0
 10
225.138199
 20
24.416718
  0
VERTEX
  8
0
 10
218.367889
 20
21.720860
  0
VERTEX
  8
0
 10
213.150848
 20
19.622421
  0
VERTEX
  8
0
 10
207.966400
 20
17.514374
  0
VERTEX
  8
0
 10
202.951401
 20
15.447109
  0
VERTEX
  8
0
 10
199.769913
 20
14.116328
  0
VERTEX
  8
0
 10
196.763672
 20
12.840703
  0
VERTEX
  8
0
 10
192.594528
 20
11.035625
  0
VERTEX
  8
0
 10
188.770081
 20
9.340625
  0
VERTEX
  8
0
 10
185.216400
 20
7.732187
  0
VERTEX
  8
0
 10
181.859680
 20
6.186563
  0
VERTEX
  8
0
 10
176.502335
 20
3.686172
  0
SEQEND
  8
0
  0
POLYLINE
  8
0
  0
VERTEX
  8
0
 10
220.738983
 20
14.360781
  0
VERTEX
  8
0
 10
218.611633
 20
10.082812
  0
VERTEX
  8
0
 10
225.558670
 20
10.334687
  0
VERTEX
  8
0
 10
220.870071
 20
14.905937
  0
SEQEND
  8
0
  0
POLYLINE
  8
0
  0
VERTEX
  8
0
 10
146.104599
 20
61.806015
  0
VERTEX
  8
0
 10
145.953278
 20
62.413124
  0
VERTEX
  8
0
 10
145.621719
 20
62.943748
  0
VERTEX
  8
0
 10
145.142426
 20
63.346016
  0
VERTEX
  8
0
 10
144.562180
 20
63.580391
  0
VERTEX
  8
0
 10
143.937973
 20
63.624062
  0
VERTEX
  8
0
 10
143.330780
 20
63.472656
  0
VERTEX
  8
0
 10
142.800156
 20
63.141094
  0
VERTEX
  8
0
 10
142.397888
 20
62.661716
  0
VERTEX
  8
0
 10
142.163513
 20
62.081562
  0
VERTEX
  8
0
 10
142.119843
 20
61.457344
  0
VERTEX
  8
0
 10
142.271240
 20
60.850231
  0
VERTEX
  8
0
 10
142.602814
 20
60.319607
  0
VERTEX
  8
0
 10
143.082184
 20
59.917343
  0
VERTEX
  8
0
 10
143.662338
 20
59.682968
  0
VERTEX
  8
0
 10
144.286560
 20
59.639294
  0
VERTEX
  8
0
 10
144.893753
 20
59.790703
  0
VERTEX
  8
0
 10
145.424454
 20
60.122265
  0
VERTEX
  8
0
 10
145.826645
 20
60.601639
  0
VERTEX
  8
0
 10
146.061020
 20
61.181797
  0
VERTEX
  8
0
 10
146.104599
 20
61.806015
  0
SEQEND
  8
0
  0
POLYLINE
  8
0
  0
VERTEX
  8
0
 10
156.558350
 20
65.822655
  0
VERTEX
  8
0
 10
156.406952
 20
66.429840
  0
VERTEX
  8
0
 10
156.075394
 20
66.960548
  0
VERTEX
  8
0
 10
155.596008
 20
67.362732
  0
VERTEX
  8
0
 10
155.015854
 20
67.597183
  0
VERTEX
  8
0
 10
154.391632
 20
67.640778
  0
VERTEX
  8
0
 10
153.784454
 20
67.489449
  0
VERTEX
  8
0
 10
153.253830
 20
67.157814
  0
VERTEX
  8
0
 10
152.851563
 20
66.678513
  0
VERTEX
  8
0
 10
152.617188
 20
66.098282
  0
VERTEX
  8
0
 10
152.573517
 20
65.474060
  0
VERTEX
  8
0
 10
152.724915
 20
64.866951
  0
VERTEX
  8
0
 10
153.056488
 20
64.336250
  0
VERTEX
  8
0
 10
153.535858
 20
63.934139
  0
VERTEX
  8
0
 10
154.116013
 20
63.699688
  0
VERTEX
  8
0
 10
154.740234
 20
63.656013
  0
VERTEX
  8
0
 10
155.347412
 20
63.807419
  0
VERTEX
  8
0
 10
155.878036
 20
64.138985
  0
VERTEX
  8
0
 10
156.280304
 20
64.618355
  0
VERTEX
  8
0
 10
156.514679
 20
65.198517
  0
VERTEX
  8
0
 10
156.558350
 20
65.822655
  0
SEQEND
  8
0
  0
POLYLINE
  8
0
  0
VERTEX
  8
0
 10
146.099136
 20
45.747734
  0
VERTEX
  8
0
 10
145.989914
 20
46.122421
  0
VERTEX
  8
0
 10
145.745697
 20
46.426640
  0
VERTEX
  8
0
 10
145.403671
 20
46.614372
  0
VERTEX
  8
0
 10
145.015778
 20
46.656796
  0
VERTEX
  8
0
 10
144.641174
 20
46.547657
  0
VERTEX
  8
0
 10
144.336868
 20
46.303360
  0
VERTEX
  8
0
 10
144.149216
 20
45.961407
  0
VERTEX
  8
0
 10
144.106720
 20
45.573437
  0
VERTEX
  8
0
 10
144.215927
 20
45.198906
  0
VERTEX
  8
0
 10
144.460159
 20
44.894531
  0
VERTEX
  8
0
 10
144.802261
 20
44.706951
  0
VERTEX
  8
0
 10
145.190079
 20
44.664375
  0
VERTEX
  8
0
 10
145.564682
 20
44.773670
  0
VERTEX
  8
0
 10
145.868988
 20
45.017811
  0
VERTEX
  8
0
 10
146.056641
 20
45.359921
  0
VERTEX
  8
0
 10
146.099136
 20
45.747734
  0
SEQEND
  8
0
  0
POLYLINE
  8
0
  0
VERTEX
  8
0
 10
150.215302
 20
47.507263
  0
VERTEX
  8
0
 10
150.106094
 20
47.881794
  0
VERTEX
  8
0
 10
149.861877
 20
48.186172
  0
VERTEX
  8
0
 10
149.519836
 20
48.373749
  0
VERTEX
  8
0
 10
149.131943
 20
48.416328
  0
VERTEX
  8
0
 10
148.757339
 20
48.307110
  0
VERTEX
  8
0
 10
148.453125
 20
48.062889
  0
VERTEX
  8
0
 10
148.265381
 20
47.720779
  0
VERTEX
  8
0
 10
148.222961
 20
47.332966
  0
VERTEX
  8
0
 10
148.332108
 20
46.958279
  0
VERTEX
  8
0
 10
148.576324
 20
46.654060
  0
VERTEX
  8
0
 10
148.918350
 20
46.466404
  0
VERTEX
  8
0
 10
149.306320
 20
46.423904
  0
VERTEX
  8
0
 10
149.680862
 20
46.533047
  0
VERTEX
  8
0
 10
149.985077
 20
46.777344
  0
VERTEX
  8
0
 10
150.172806
 20
47.119373
  0
VERTEX
  8
0
 10
150.215302
 20
47.507263
  0
SEQEND
  8
0
  0
POLYLINE
  8
0
  0
VERTEX
  8
0
 10
166.376953
 20
56.270702
  0
VERTEX
  8
0
 10
166.267807
 20
56.645233
  0
VERTEX
  8
0
 10
166.023514
 20
56.949608
  0
VERTEX
  8
0
 10
165.681396
 20
57.137264
  0
VERTEX
  8
0
 10
165.293594
 20
57.179688
  0
VERTEX
  8
0
 10
164.919052
 20
57.070545
  0
VERTEX
  8
0
 10
164.614685
 20
56.826328
  0
VERTEX
  8
0
 10
164.427032
 20
56.484219
  0
VERTEX
  8
0
 10
164.384613
 20
56.096405
  0
VERTEX
  8
0
 10
164.493744
 20
55.721794
  0
VERTEX
  8
0
 10
164.737961
 20
55.417500
  0
VERTEX
  8
0
 10
165.080078
 20
55.229763
  0
VERTEX
  8
0
 10
165.467880
 20
55.187344
  0
VERTEX
  8
0
 10
165.842499
 20
55.296482
  0
VERTEX
  8
0
 10
166.146790
 20
55.540703
  0
VERTEX
  8
0
 10
166.334534
 20
55.882813
  0
VERTEX
  8
0
 10
166.376953
 20
56.270702
  0
SEQEND
  8
0
  0
POLYLINE
  8
0
  0
VERTEX
  8
0
 10
170.779221
 20
58.435860
  0
VERTEX
  8
0
 10
170.669998
 20
58.810467
  0
VERTEX
  8
0
 10
170.425858
 20
59.114685
  0
VERTEX
  8
0
 10
170.083664
 20
59.302422
  0
VERTEX
  8
0
 10
169.695862
 20
59.344921
  0
VERTEX
  8
0
 10
169.321243
 20
59.235703
  0
VERTEX
  8
0
 10
169.016953
 20
58.991405
  0
VERTEX
  8
0
 10
168.829300
 20
58.649372
  0
VERTEX
  8
0
 10
168.786789
 20
58.261562
  0
VERTEX
  8
0
 10
168.896011
 20
57.886951
  0
VERTEX
  8
0
 10
169.140228
 20
57.582577
  0
VERTEX
  8
0
 10
169.482269
 20
57.395000
  0
VERTEX
  8
0
 10
169.870148
 20
57.352497
  0
VERTEX
  8
0
 10
170.244766
 20
57.461716
  0
VERTEX
  8
0
 10
170.549057
 20
57.705856
  0
VERTEX
  8
0
 10
170.736710
 20
58.047966
  0
VERTEX
  8
0
 10
170.779221
 20
58.435860
  0
SEQEND
  8
0
  0
POLYLINE
  8
0
  0
VERTEX
  8
0
 10
106.017578
 20
776.491211
  0
VERTEX
  8
0
 10
106.324921
 20
769.369934
  0
VERTEX
  8
0
 10
106.519218
 20
763.749329
  0
VERTEX
  8
0
 10
106.597496
 20
759.659363
  0
VERTEX
  8
0
 10
106.602188
 20
757.796448
  0
VERTEX
  8
0
 10
106.579605
 20
756.076965
  0
VERTEX
  8
0
 10
106.528748
 20
754.504822
  0
VERTEX
  8
0
 10
106.450699
 20
753.071594
  0
VERTEX
  8
0
 10
106.346558
 20
751.768433
  0
VERTEX
  8
0
 10
106.217339
 20
750.586243
  0
VERTEX
  8
0
 10
106.064217
 20
749.516174
  0
VERTEX
  8
0
 10
105.888275
 20
748.549133
  0
VERTEX
  8
0
 10
105.690704
 20
747.676208
  0
VERTEX
  8
0
 10
105.472496
 20
746.888489
  0
VERTEX
  8
0
 10
105.356010
 20
746.523743
  0
VERTEX
  8
0
 10
105.108513
 20
745.847107
  0
VERTEX
  8
0
 10
104.840622
 20
745.233887
  0
VERTEX
  8
0
 10
104.550781
 20
744.676025
  0
VERTEX
  8
0
 10
104.397186
 20
744.415283
  0
VERTEX
  8
0
 10
104.071564
 20
743.924988
  0
VERTEX
  8
0
 10
103.720230
 20
743.469543
  0
VERTEX
  8
0
 10
103.341637
 20
743.040588
  0
VERTEX
  8
0
 10
102.934296
 20
742.630127
  0
VERTEX
  8
0
 10
102.496719
 20
742.229980
  0
VERTEX
  8
0
 10
101.528748
 20
741.432495
  0
VERTEX
  8
0
 10
100.191719
 20
740.432312
  0
VERTEX
  8
0
 10
97.187111
 20
738.282776
  0
VERTEX
  8
0
 10
96.443123
 20
737.710938
  0
VERTEX
  8
0
 10
95.744682
 20
737.113281
  0
VERTEX
  8
0
 10
95.090622
 20
736.460938
  0
VERTEX
  8
0
 10
94.678749
 20
735.981262
  0
VERTEX
  8
0
 10
94.479919
 20
735.724670
  0
VERTEX
  8
0
 10
94.096329
 20
735.172852
  0
VERTEX
  8
0
 10
93.911484
 20
734.875427
  0
VERTEX
  8
0
 10
93.555389
 20
734.232178
  0
VERTEX
  8
0
 10
93.384064
 20
733.884460
  0
VERTEX
  8
0
 10
93.053825
 20
733.136841
  0
VERTEX
  8
0
 10
92.585236
 20
731.891418
  0
VERTEX
  8
0
 10
92.142342
 20
730.507385
  0
VERTEX
  8
0
 10
91.717651
 20
728.996216
  0
VERTEX
  8
0
 10
91.441093
 20
727.923645
  0
VERTEX
  8
0
 10
91.030464
 20
726.225830
  0
VERTEX
  8
0
 10
89.457184
 20
719.284851
  0
VERTEX
  8
0
 10
88.638046
 20
715.900940
  0
VERTEX
  8
0
 10
88.094841
 20
713.845581
  0
VERTEX
  8
0
 10
87.706718
 20
712.473633
  0
VERTEX
  8
0
 10
87.296013
 20
711.101379
  0
VERTEX
  8
0
 10
86.861168
 20
709.727966
  0
VERTEX
  8
0
 10
86.160782
 20
707.664856
  0
VERTEX
  8
0
 10
85.659683
 20
706.286377
  0
VERTEX
  8
0
 10
84.853203
 20
704.213013
  0
VERTEX
  8
0
 10
84.276955
 20
702.826050
  0
VERTEX
  8
0
 10
83.351250
 20
700.737305
  0
VERTEX
  8
0
 10
82.693672
 20
699.343262
  0
VERTEX
  8
0
 10
82.006874
 20
697.957336
  0
VERTEX
  8
0
 10
81.294296
 20
696.588257
  0
VERTEX
  8
0
 10
80.558983
 20
695.244812
  0
VERTEX
  8
0
 10
79.804214
 20
693.935669
  0
VERTEX
  8
0
 10
78.642731
 20
692.055481
  0
VERTEX
  8
0
 10
77.853516
 20
690.870483
  0
VERTEX
  8
0
 10
77.056015
 20
689.750305
  0
VERTEX
  8
0
 10
76.655151
 20
689.217102
  0
VERTEX
  8
0
 10
75.849533
 20
688.204041
  0
VERTEX
  8
0
 10
75.444687
 20
687.723328
  0
VERTEX
  8
0
 10
74.630699
 20
686.811340
  0
VERTEX
  8
0
 10
73.810547
 20
685.962097
  0
VERTEX
  8
0
 10
72.984062
 20
685.171936
  0
VERTEX
  8
0
 10
72.150703
 20
684.437378
  0
VERTEX
  8
0
 10
71.310158
 20
683.754700
  0
VERTEX
  8
0
 10
70.462105
 20
683.120300
  0
VERTEX
  8
0
 10
69.606171
 20
682.530457
  0
VERTEX
  8
0
 10
68.741173
 20
681.982117
  0
VERTEX
  8
0
 10
67.863358
 20
681.473633
  0
VERTEX
  8
0
 10
66.968048
 20
681.004150
  0
VERTEX
  8
0
 10
66.050545
 20
680.572327
  0
VERTEX
  8
0
 10
65.106407
 20
680.177429
  0
VERTEX
  8
0
 10
64.130859
 20
679.818115
  0
VERTEX
  8
0
 10
63.119373
 20
679.493408
  0
VERTEX
  8
0
 10
62.598671
 20
679.343750
  0
VERTEX
  8
0
 10
61.524609
 20
679.069031
  0
VERTEX
  8
0
 10
60.403358
 20
678.826416
  0
VERTEX
  8
0
 10
59.237656
 20
678.615906
  0
VERTEX
  8
0
 10
58.037498
 20
678.439453
  0
VERTEX
  8
0
 10
56.812889
 20
678.298340
  0
VERTEX
  8
0
 10
55.574062
 20
678.194275
  0
VERTEX
  8
0
 10
54.331169
 20
678.128784
  0
VERTEX
  8
0
 10
53.094376
 20
678.103638
  0
VERTEX
  8
0
 10
51.873905
 20
678.120300
  0
VERTEX
  8
0
 10
50.679920
 20
678.180359
  0
VERTEX
  8
0
 10
50.095936
 20
678.227234
  0
VERTEX
  8
0
 10
48.958435
 20
678.354858
  0
VERTEX
  8
0
 10
47.859688
 20
678.526062
  0
VERTEX
  8
0
 10
46.796482
 20
678.738831
  0
VERTEX
  8
0
 10
45.766014
 20
678.990784
  0
VERTEX
  8
0
 10
44.765156
 20
679.279663
  0
VERTEX
  8
0
 10
43.790936
 20
679.603516
  0
VERTEX
  8
0
 10
42.840313
 20
679.959961
  0
VERTEX
  8
0
 10
41.910389
 20
680.346863
  0
VERTEX
  8
0
 10
40.547421
 20
680.979675
  0
VERTEX
  8
0
 10
39.212967
 20
681.681519
  0
VERTEX
  8
0
 10
38.332890
 20
682.199829
  0
VERTEX
  8
0
 10
37.456017
 20
682.767456
  0
VERTEX
  8
0
 10
36.578594
 20
683.392334
  0
VERTEX
  8
0
 10
35.696796
 20
684.082153
  0
VERTEX
  8
0
 10
34.806873
 20
684.844666
  0
VERTEX
  8
0
 10
33.904999
 20
685.687744
  0
VERTEX
  8
0
 10
33.448360
 20
686.141846
  0
VERTEX
  8
0
 10
32.987343
 20
686.618958
  0
VERTEX
  8
0
 10
32.052109
 20
687.643494
  0
VERTEX
  8
0
 10
31.104609
 20
688.754333
  0
VERTEX
  8
0
 10
30.152109
 20
689.942017
  0
VERTEX
  8
0
 10
29.201874
 20
691.196716
  0
VERTEX
  8
0
 10
28.261093
 20
692.508911
  0
VERTEX
  8
0
 10
27.337187
 20
693.868896
  0
VERTEX
  8
0
 10
26.883827
 20
694.563843
  0
VERTEX
  8
0
 10
25.998671
 20
695.977417
  0
VERTEX
  8
0
 10
25.148438
 20
697.414673
  0
VERTEX
  8
0
 10
24.738749
 20
698.139099
  0
VERTEX
  8
0
 10
23.952890
 20
699.595093
  0
VERTEX
  8
0
 10
22.854139
 20
701.791382
  0
VERTEX
  8
0
 10
21.843437
 20
703.996155
  0
VERTEX
  8
0
 10
20.911484
 20
706.202087
  0
VERTEX
  8
0
 10
20.049374
 20
708.401855
  0
VERTEX
  8
0
 10
19.247969
 20
710.588257
  0
VERTEX
  8
0
 10
18.258436
 20
713.468872
  0
VERTEX
  8
0
 10
17.342188
 20
716.286255
  0
VERTEX
  8
0
 10
15.458125
 20
722.241089
  0
VERTEX
  8
0
 10
14.858593
 20
724.063599
  0
VERTEX
  8
0
 10
14.265469
 20
725.786682
  0
VERTEX
  8
0
 10
13.682187
 20
727.403748
  0
VERTEX
  8
0
 10
12.927031
 20
729.384216
  0
VERTEX
  8
0
 10
12.206640
 20
731.150635
  0
VERTEX
  8
0
 10
11.530624
 20
732.688477
  0
VERTEX
  8
0
 10
10.895312
 20
734.004700
  0
VERTEX
  8
0
 10
10.427734
 20
734.874756
  0
VERTEX
  8
0
 10
9.952499
 20
735.669189
  0
VERTEX
  8
0
 10
9.624531
 20
736.167786
  0
VERTEX
  8
0
 10
9.282969
 20
736.649231
  0
VERTEX
  8
0
 10
8.923672
 20
737.120056
  0
VERTEX
  8
0
 10
8.343985
 20
737.820007
  0
VERTEX
  8
0
 10
7.721562
 20
738.521179
  0
VERTEX
  8
0
 10
6.193438
 20
740.188721
  0
VERTEX
  8
0
 10
5.334140
 20
741.178894
  0
VERTEX
  8
0
 10
4.725625
 20
741.947632
  0
VERTEX
  8
0
 10
4.160078
 20
742.748901
  0
VERTEX
  8
0
 10
3.807734
 20
743.309448
  0
VERTEX
  8
0
 10
3.475312
 20
743.897095
  0
VERTEX
  8
0
 10
3.014609
 20
744.840942
  0
VERTEX
  8
0
 10
2.600000
 20
745.875061
  0
VERTEX
  8
0
 10
2.232109
 20
747.017151
  0
VERTEX
  8
0
 10
2.013281
 20
747.846985
  0
VERTEX
  8
0
 10
1.724687
 20
749.196533
  0
VERTEX
  8
0
 10
1.558984
 20
750.161072
  0
VERTEX
  8
0
 10
1.350469
 20
751.696228
  0
VERTEX
  8
0
 10
1.238281
 20
752.773315
  0
VERTEX
  8
0
 10
1.110391
 20
754.460754
  0
VERTEX
  8
0
 10
1.031016
 20
756.223511
  0
VERTEX
  8
0
 10
1.000000
 20
758.048828
  0
VERTEX
  8
0
 10
1.012656
 20
759.914124
  0
VERTEX
  8
0
 10
1.061172
 20
761.790894
  0
VERTEX
  8
0
 10
1.137812
 20
763.650269
  0
VERTEX
  8
0
 10
1.234922
 20
765.463562
  0
VERTEX
  8
0
 10
1.382656
 20
767.759888
  0
VERTEX
  8
0
 10
1.576797
 20
770.375916
  0
VERTEX
  8
0
 10
1.815703
 20
773.222961
  0
VERTEX
  8
0
 10
2.097656
 20
776.319458
  0
VERTEX
  8
0
 10
11.125781
 20
774.225891
  0
VERTEX
  8
0
 10
22.544062
 20
771.578186
  0
VERTEX
  8
0
 10
31.678749
 20
769.459961
  0
VERTEX
  8
0
 10
43.097031
 20
766.812256
  0
VERTEX
  8
0
 10
42.744530
 20
765.709290
  0
VERTEX
  8
0
 10
42.508125
 20
764.866028
  0
VERTEX
  8
0
 10
42.309452
 20
764.043396
  0
VERTEX
  8
0
 10
41.884453
 20
762.122070
  0
VERTEX
  8
0
 10
41.638748
 20
761.131104
  0
VERTEX
  8
0
 10
41.358513
 20
760.189880
  0
VERTEX
  8
0
 10
41.107342
 20
759.489136
  0
VERTEX
  8
0
 10
40.903202
 20
758.997498
  0
VERTEX
  8
0
 10
40.685390
 20
758.537476
  0
VERTEX
  8
0
 10
40.453827
 20
758.111450
  0
VERTEX
  8
0
 10
40.208904
 20
757.721497
  0
VERTEX
  8
0
 10
39.954609
 20
757.367981
  0
VERTEX
  8
0
 10
39.612343
 20
756.951843
  0
VERTEX
  8
0
 10
39.280624
 20
756.597473
  0
VERTEX
  8
0
 10
38.975155
 20
756.302795
  0
VERTEX
  8
0
 10
38.466873
 20
755.875000
  0
VERTEX
  8
0
 10
38.223827
 20
755.717773
  0
VERTEX
  8
0
 10
37.952419
 20
755.579834
  0
VERTEX
  8
0
 10
37.532967
 20
755.413879
  0
VERTEX
  8
0
 10
37.121407
 20
755.279297
  0
VERTEX
  8
0
 10
36.532265
 20
755.117249
  0
VERTEX
  8
0
 10
36.018593
 20
755.000000
  0
VERTEX
  8
0
 10
35.209999
 20
754.858032
  0
VERTEX
  8
0
 10
34.233047
 20
754.745361
  0
VERTEX
  8
0
 10
33.368904
 20
754.680908
  0
VERTEX
  8
0
 10
31.262030
 20
754.560852
  0
VERTEX
  8
0
 10
30.165546
 20
754.454529
  0
VERTEX
  8
0
 10
29.535858
 20
754.362854
  0
VERTEX
  8
0
 10
29.078514
 20
754.277100
  0
VERTEX
  8
0
 10
28.510155
 20
754.138367
  0
VERTEX
  8
0
 10
28.129530
 20
754.014832
  0
VERTEX
  8
0
 10
27.800547
 20
753.873718
  0
VERTEX
  8
0
 10
27.614687
 20
753.769531
  0
VERTEX
  8
0
 10
27.455156
 20
753.657654
  0
VERTEX
  8
0
 10
27.261406
 20
753.476685
  0
VERTEX
  8
0
 10
27.160234
 20
753.348022
  0
VERTEX
  8
0
 10
27.079374
 20
753.213684
  0
VERTEX
  8
0
 10
26.972109
 20
752.929749
  0
VERTEX
  8
0
 10
26.942343
 20
752.781372
  0
VERTEX
  8
0
 10
26.922812
 20
752.552246
  0
VERTEX
  8
0
 10
26.940468
 20
752.236938
  0
VERTEX
  8
0
 10
27.029219
 20
751.831360
  0
VERTEX
  8
0
 10
27.150858
 20
751.501770
  0
VERTEX
  8
0
 10
27.314842
 20
751.171021
  0
VERTEX
  8
0
 10
27.522577
 20
750.841064
  0
VERTEX
  8
0
 10
27.711718
 20
750.594177
  0
VERTEX
  8
0
 10
28.015469
 20
750.265442
  0
VERTEX
  8
0
 10
28.286797
 20
750.018982
  0
VERTEX
  8
0
 10
28.599375
 20
749.772461
  0
VERTEX
  8
0
 10
28.955391
 20
749.525940
  0
VERTEX
  8
0
 10
29.350389
 20
749.280945
  0
VERTEX
  8
0
 10
29.927265
 20
748.959351
  0
VERTEX
  8
0
 10
30.548203
 20
748.647339
  0
VERTEX
  8
0
 10
31.198984
 20
748.348877
  0
VERTEX
  8
0
 10
31.874453
 20
748.066406
  0
VERTEX
  8
0
 10
32.416248
 20
747.863403
  0
VERTEX
  8
0
 10
33.007576
 20
747.665833
  0
VERTEX
  8
0
 10
33.666092
 20
747.471802
  0
VERTEX
  8
0
 10
34.409374
 20
747.279358
  0
VERTEX
  8
0
 10
35.254688
 20
747.086853
  0
VERTEX
  8
0
 10
36.897110
 20
746.768005
  0
VERTEX
  8
0
 10
38.779217
 20
746.467651
  0
VERTEX
  8
0
 10
40.836876
 20
746.204285
  0
VERTEX
  8
0
 10
43.011169
 20
745.995972
  0
VERTEX
  8
0
 10
44.842186
 20
745.874146
  0
VERTEX
  8
0
 10
47.306641
 20
745.776306
  0
VERTEX
  8
0
 10
49.465000
 20
745.740601
  0
VERTEX
  8
0
 10
51.827812
 20
745.741699
  0
VERTEX
  8
0
 10
54.362030
 20
745.781921
  0
VERTEX
  8
0
 10
56.966640
 20
745.866516
  0
VERTEX
  8
0
 10
59.537498
 20
746.000916
  0
VERTEX
  8
0
 10
61.970547
 20
746.190430
  0
VERTEX
  8
0
 10
63.651093
 20
746.370422
  0
VERTEX
  8
0
 10
65.204292
 20
746.576721
  0
VERTEX
  8
0
 10
67.092422
 20
746.878906
  0
VERTEX
  8
0
 10
69.574760
 20
747.352844
  0
VERTEX
  8
0
 10
72.930229
 20
748.069153
  0
VERTEX
  8
0
 10
75.200386
 20
748.601563
  0
VERTEX
  8
0
 10
76.177574
 20
748.857544
  0
VERTEX
  8
0
 10
76.842964
 20
749.054565
  0
VERTEX
  8
0
 10
77.434921
 20
749.258118
  0
VERTEX
  8
0
 10
77.981483
 20
749.480774
  0
VERTEX
  8
0
 10
78.509377
 20
749.734375
  0
VERTEX
  8
0
 10
79.021484
 20
750.018127
  0
VERTEX
  8
0
 10
79.496719
 20
750.318481
  0
VERTEX
  8
0
 10
79.912811
 20
750.621399
  0
VERTEX
  8
0
 10
80.247658
 20
750.912537
  0
VERTEX
  8
0
 10
80.485466
 20
751.182251
  0
VERTEX
  8
0
 10
80.605934
 20
751.374329
  0
VERTEX
  8
0
 10
80.684685
 20
751.562927
  0
VERTEX
  8
0
 10
80.728592
 20
751.752930
  0
VERTEX
  8
0
 10
80.744766
 20
751.948914
  0
VERTEX
  8
0
 10
80.735001
 20
752.227173
  0
VERTEX
  8
0
 10
80.697578
 20
752.522644
  0
VERTEX
  8
0
 10
80.634842
 20
752.822083
  0
VERTEX
  8
0
 10
80.549057
 20
753.111633
  0
VERTEX
  8
0
 10
80.442345
 20
753.377258
  0
VERTEX
  8
0
 10
80.349449
 20
753.553894
  0
VERTEX
  8
0
 10
80.244453
 20
753.711731
  0
VERTEX
  8
0
 10
80.125854
 20
753.853088
  0
VERTEX
  8
0
 10
79.841721
 20
754.096069
  0
VERTEX
  8
0
 10
79.612656
 20
754.236206
  0
VERTEX
  8
0
 10
79.414063
 20
754.332458
  0
VERTEX
  8
0
 10
79.096329
 20
754.447815
  0
VERTEX
  8
0
 10
78.805313
 20
754.522949
  0
VERTEX
  8
0
 10
78.458046
 20
754.587341
  0
VERTEX
  8
0
 10
78.044533
 20
754.639832
  0
VERTEX
  8
0
 10
77.187889
 20
754.700745
  0
VERTEX
  8
0
 10
74.923515
 20
754.803406
  0
VERTEX
  8
0
 10
73.581093
 20
754.898865
  0
VERTEX
  8
0
 10
72.733902
 20
754.983398
  0
VERTEX
  8
0
 10
71.882263
 20
755.089294
  0
VERTEX
  8
0
 10
70.519531
 20
755.312317
  0
VERTEX
  8
0
 10
69.775780
 20
755.473755
  0
VERTEX
  8
0
 10
69.325859
 20
755.592712
  0
VERTEX
  8
0
 10
68.920937
 20
755.720703
  0
VERTEX
  8
0
 10
68.562187
 20
755.857178
  0
VERTEX
  8
0
 10
68.245308
 20
756.001221
  0
VERTEX
  8
0
 10
67.838127
 20
756.229797
  0
VERTEX
  8
0
 10
67.498436
 20
756.470581
  0
VERTEX
  8
0
 10
67.210625
 20
756.720581
  0
VERTEX
  8
0
 10
66.879921
 20
757.063171
  0
VERTEX
  8
0
 10
66.580780
 20
757.415894
  0
VERTEX
  8
0
 10
66.301720
 20
757.802246
  0
VERTEX
  8
0
 10
66.102104
 20
758.131836
  0
VERTEX
  8
0
 10
65.843750
 20
758.648132
  0
VERTEX
  8
0
 10
65.652657
 20
759.109070
  0
VERTEX
  8
0
 10
65.462105
 20
759.642334
  0
VERTEX
  8
0
 10
65.275543
 20
760.236633
  0
VERTEX
  8
0
 10
65.040779
 20
761.095947
  0
VERTEX
  8
0
 10
64.881096
 20
761.769836
  0
VERTEX
  8
0
 10
64.698830
 20
762.676697
  0
VERTEX
  8
0
 10
64.590469
 20
763.343445
  0
VERTEX
  8
0
 10
64.505859
 20
763.992615
  0
VERTEX
  8
0
 10
64.422340
 20
764.836914
  0
VERTEX
  8
0
 10
64.305229
 20
766.684509
  0
VERTEX
  8
0
 10
76.320854
 20
769.522095
  0
VERTEX
  8
0
 10
94.780861
 20
773.957642
  0
VERTEX
  8
0
 10
100.317497
 20
775.231934
  0
VERTEX
  8
0
 10
106.017578
 20
776.491211
  0
SEQEND
  8
0
  0
POLYLINE
  8
0
  0
VERTEX
  8
0
 10
85.238594
 20
756.817566
  0
VERTEX
  8
0
 10
93.441406
 20
756.992493
  0
SEQEND
  8
0
  0
POLYLINE
  8
0
  0
VERTEX
  8
0
 10
12.835078
 20
756.613708
  0
VERTEX
  8
0
 10
21.218203
 20
756.497009
  0
SEQEND
  8
0
  0
POLYLINE
  8
0
  0
VERTEX
  8
0
 10
98.520622
 20
776.269043
  0
VERTEX
  8
0
 10
98.804916
 20
769.249695
  0
VERTEX
  8
0
 10
98.955544
 20
764.838745
  0
VERTEX
  8
0
 10
99.047890
 20
760.830688
  0
VERTEX
  8
0
 10
99.064842
 20
759.028198
  0
VERTEX
  8
0
 10
99.058510
 20
757.386841
  0
VERTEX
  8
0
 10
99.027031
 20
755.921570
  0
VERTEX
  8
0
 10
98.972885
 20
754.625610
  0
VERTEX
  8
0
 10
98.899529
 20
753.487183
  0
VERTEX
  8
0
 10
98.810623
 20
752.494385
  0
VERTEX
  8
0
 10
98.709610
 20
751.635193
  0
VERTEX
  8
0
 10
98.543358
 20
750.571167
  0
VERTEX
  8
0
 10
98.369919
 20
749.740845
  0
VERTEX
  8
0
 10
98.201088
 20
749.104187
  0
VERTEX
  8
0
 10
98.036484
 20
748.620972
  0
VERTEX
  8
0
 10
97.856720
 20
748.251282
  0
VERTEX
  8
0
 10
97.640778
 20
747.955200
  0
VERTEX
  8
0
 10
97.367653
 20
747.692688
  0
VERTEX
  8
0
 10
96.878433
 20
747.325867
  0
VERTEX
  8
0
 10
95.119843
 20
746.104431
  0
VERTEX
  8
0
 10
94.091713
 20
745.369751
  0
VERTEX
  8
0
 10
92.357338
 20
744.067932
  0
VERTEX
  8
0
 10
91.433281
 20
743.330078
  0
VERTEX
  8
0
 10
90.808205
 20
742.798279
  0
VERTEX
  8
0
 10
90.182968
 20
742.227844
  0
VERTEX
  8
0
 10
89.563591
 20
741.613098
  0
VERTEX
  8
0
 10
88.956093
 20
740.948120
  0
VERTEX
  8
0
 10
88.658669
 20
740.594971
  0
VERTEX
  8
0
 10
88.080231
 20
739.843872
  0
VERTEX
  8
0
 10
87.800705
 20
739.444458
  0
VERTEX
  8
0
 10
87.264923
 20
738.594299
  0
VERTEX
  8
0
 10
87.010155
 20
738.142090
  0
VERTEX
  8
0
 10
86.528984
 20
737.182068
  0
VERTEX
  8
0
 10
86.083046
 20
736.153564
  0
VERTEX
  8
0
 10
85.872261
 20
735.616150
  0
VERTEX
  8
0
 10
85.472420
 20
734.499512
  0
VERTEX
  8
0
 10
85.098824
 20
733.333679
  0
VERTEX
  8
0
 10
84.579376
 20
731.509644
  0
VERTEX
  8
0
 10
84.255074
 20
730.254761
  0
VERTEX
  8
0
 10
83.792496
 20
728.333252
  0
VERTEX
  8
0
 10
82.322655
 20
721.810547
  0
VERTEX
  8
0
 10
81.550781
 20
718.542114
  0
VERTEX
  8
0
 10
80.876793
 20
715.947144
  0
VERTEX
  8
0
 10
80.513824
 20
714.660400
  0
VERTEX
  8
0
 10
80.131401
 20
713.380859
  0
VERTEX
  8
0
 10
79.518829
 20
711.473755
  0
VERTEX
  8
0
 10
79.082970
 20
710.209412
  0
VERTEX
  8
0
 10
78.623825
 20
708.950134
  0
VERTEX
  8
0
 10
78.140465
 20
707.695129
  0
VERTEX
  8
0
 10
77.367416
 20
705.819214
  0
VERTEX
  8
0
 10
76.818588
 20
704.572021
  0
VERTEX
  8
0
 10
76.242577
 20
703.328369
  0
VERTEX
  8
0
 10
75.642502
 20
702.094910
  0
VERTEX
  8
0
 10
75.022499
 20
700.880005
  0
VERTEX
  8
0
 10
74.386406
 20
699.691956
  0
VERTEX
  8
0
 10
73.411247
 20
697.978210
  0
VERTEX
  8
0
 10
72.752892
 20
696.893433
  0
VERTEX
  8
0
 10
72.092575
 20
695.864380
  0
VERTEX
  8
0
 10
71.107498
 20
694.443604
  0
VERTEX
  8
0
 10
70.137886
 20
693.187500
  0
VERTEX
  8
0
 10
69.500000
 20
692.437256
  0
VERTEX
  8
0
 10
68.867653
 20
691.750916
  0
VERTEX
  8
0
 10
68.239845
 20
691.123413
  0
VERTEX
  8
0
 10
67.615623
 20
690.549683
  0
VERTEX
  8
0
 10
66.993904
 20
690.024658
  0
VERTEX
  8
0
 10
66.373589
 20
689.543396
  0
VERTEX
  8
0
 10
65.753670
 20
689.100708
  0
VERTEX
  8
0
 10
64.821716
 20
688.498718
  0
VERTEX
  8
0
 10
64.193596
 20
688.135193
  0
VERTEX
  8
0
 10
63.554218
 20
687.800476
  0
VERTEX
  8
0
 10
62.898438
 20
687.493530
  0
VERTEX
  8
0
 10
62.221172
 20
687.213196
  0
VERTEX
  8
0
 10
61.517342
 20
686.958435
  0
VERTEX
  8
0
 10
60.781872
 20
686.728027
  0
VERTEX
  8
0
 10
60.009686
 20
686.520996
  0
VERTEX
  8
0
 10
59.195702
 20
686.336243
  0
VERTEX
  8
0
 10
58.337265
 20
686.172974
  0
VERTEX
  8
0
 10
56.982735
 20
685.970764
  0
VERTEX
  8
0
 10
56.049141
 20
685.866455
  0
VERTEX
  8
0
 10
55.102341
 20
685.788086
  0
VERTEX
  8
0
 10
54.151875
 20
685.737244
  0
VERTEX
  8
0
 10
53.207420
 20
685.715210
  0
VERTEX
  8
0
 10
52.278515
 20
685.723450
  0
VERTEX
  8
0
 10
51.374920
 20
685.763184
  0
VERTEX
  8
0
 10
50.505859
 20
685.835938
  0
VERTEX
  8
0
 10
49.674454
 20
685.941406
  0
VERTEX
  8
0
 10
48.877655
 20
686.077881
  0
VERTEX
  8
0
 10
48.112110
 20
686.243591
  0
VERTEX
  8
0
 10
47.374374
 20
686.436646
  0
VERTEX
  8
0
 10
46.661091
 20
686.655212
  0
VERTEX
  8
0
 10
45.968983
 20
686.897583
  0
VERTEX
  8
0
 10
44.962891
 20
687.301636
  0
VERTEX
  8
0
 10
43.985313
 20
687.749207
  0
VERTEX
  8
0
 10
43.343281
 20
688.073914
  0
VERTEX
  8
0
 10
42.383904
 20
688.619263
  0
VERTEX
  8
0
 10
41.740467
 20
689.033813
  0
VERTEX
  8
0
 10
41.088673
 20
689.498718
  0
VERTEX
  8
0
 10
40.424217
 20
690.022339
  0
VERTEX
  8
0
 10
39.742733
 20
690.612732
  0
VERTEX
  8
0
 10
39.039845
 20
691.278259
  0
VERTEX
  8
0
 10
38.311092
 20
692.027161
  0
VERTEX
  8
0
 10
37.554062
 20
692.864990
  0
VERTEX
  8
0
 10
36.774220
 20
693.786133
  0
VERTEX
  8
0
 10
35.978748
 20
694.782593
  0
VERTEX
  8
0
 10
34.772655
 20
696.400085
  0
VERTEX
  8
0
 10
33.970623
 20
697.548523
  0
VERTEX
  8
0
 10
33.178749
 20
698.743286
  0
VERTEX
  8
0
 10
32.026173
 20
700.604675
  0
VERTEX
  8
0
 10
30.937735
 20
702.524414
  0
VERTEX
  8
0
 10
30.255077
 20
703.826416
  0
VERTEX
  8
0
 10
29.605078
 20
705.143555
  0
VERTEX
  8
0
 10
28.985781
 20
706.474182
  0
VERTEX
  8
0
 10
28.109453
 20
708.491760
  0
VERTEX
  8
0
 10
27.289999
 20
710.530273
  0
VERTEX
  8
0
 10
26.520233
 20
712.583862
  0
VERTEX
  8
0
 10
25.792891
 20
714.647034
  0
VERTEX
  8
0
 10
25.100937
 20
716.711243
  0
VERTEX
  8
0
 10
22.547499
 20
724.723328
  0
VERTEX
  8
0
 10
21.928047
 20
726.600586
  0
VERTEX
  8
0
 10
21.305859
 20
728.403748
  0
VERTEX
  8
0
 10
20.476093
 20
730.679443
  0
VERTEX
  8
0
 10
19.857187
 20
732.280273
  0
VERTEX
  8
0
 10
19.041485
 20
734.259338
  0
VERTEX
  8
0
 10
18.440546
 20
735.617554
  0
VERTEX
  8
0
 10
17.850311
 20
736.862610
  0
VERTEX
  8
0
 10
17.266249
 20
738.003235
  0
VERTEX
  8
0
 10
16.681953
 20
739.051331
  0
VERTEX
  8
0
 10
16.289375
 20
739.704407
  0
VERTEX
  8
0
 10
15.892109
 20
740.325134
  0
VERTEX
  8
0
 10
15.488437
 20
740.916992
  0
VERTEX
  8
0
 10
15.076484
 20
741.483582
  0
VERTEX
  8
0
 10
14.224140
 20
742.552795
  0
VERTEX
  8
0
 10
13.357734
 20
743.543274
  0
VERTEX
  8
0
 10
11.390859
 20
745.689880
  0
VERTEX
  8
0
 10
10.923750
 20
746.247253
  0
VERTEX
  8
0
 10
10.651328
 20
746.606323
  0
VERTEX
  8
0
 10
10.293750
 20
747.148499
  0
VERTEX
  8
0
 10
9.988281
 20
747.722107
  0
VERTEX
  8
0
 10
9.724766
 20
748.357422
  0
VERTEX
  8
0
 10
9.492890
 20
749.084900
  0
VERTEX
  8
0
 10
9.282578
 20
749.934753
  0
VERTEX
  8
0
 10
9.089141
 20
750.923096
  0
VERTEX
  8
0
 10
8.916718
 20
752.044128
  0
VERTEX
  8
0
 10
8.770000
 20
753.290283
  0
VERTEX
  8
0
 10
8.653828
 20
754.653870
  0
VERTEX
  8
0
 10
8.572812
 20
756.127502
  0
VERTEX
  8
0
 10
8.540703
 20
757.167114
  0
VERTEX
  8
0
 10
8.527109
 20
758.802795
  0
VERTEX
  8
0
 10
8.550234
 20
760.503235
  0
VERTEX
  8
0
 10
8.603437
 20
762.236450
  0
VERTEX
  8
0
 10
8.680234
 20
763.969910
  0
VERTEX
  8
0
 10
8.808125
 20
766.225891
  0
VERTEX
  8
0
 10
9.101250
 20
770.325623
  0
VERTEX
  8
0
 10
9.573438
 20
775.715820
  0
SEQEND
  8
0
  0
POLYLINE
  8
0
  0
VERTEX
  8
0
 10
53.993122
 20
745.655396
  0
VERTEX
  8
0
 10
53.993122
 20
730.632141
  0
VERTEX
  8
0
 10
53.993122
 20
711.853027
  0
VERTEX
  8
0
 10
53.993122
 20
696.829773
  0
VERTEX
  8
0
 10
53.993122
 20
678.050659
  0
SEQEND
  8
0
  0
POLYLINE
  8
0
  0
VERTEX
  8
0
 10
21.317265
 20
737.073486
  0
VERTEX
  8
0
 10
22.089766
 20
734.169128
  0
VERTEX
  8
0
 10
22.645781
 20
732.166809
  0
VERTEX
  8
0
 10
23.208672
 20
730.278564
  0
VERTEX
  8
0
 10
23.665859
 20
728.877319
  0
VERTEX
  8
0
 10
24.249453
 20
727.228943
  0
VERTEX
  8
0
 10
25.993202
 20
722.546570
  0
VERTEX
  8
0
 10
28.679922
 20
714.985596
  0
VERTEX
  8
0
 10
29.777422
 20
712.023743
  0
VERTEX
  8
0
 10
30.350155
 20
710.583862
  0
VERTEX
  8
0
 10
30.946405
 20
709.175476
  0
VERTEX
  8
0
 10
31.567656
 20
707.795715
  0
VERTEX
  8
0
 10
32.379608
 20
706.104492
  0
VERTEX
  8
0
 10
33.231407
 20
704.442810
  0
VERTEX
  8
0
 10
33.942654
 20
703.130615
  0
VERTEX
  8
0
 10
34.684765
 20
701.838440
  0
VERTEX
  8
0
 10
35.462734
 20
700.572388
  0
VERTEX
  8
0
 10
36.281639
 20
699.339111
  0
VERTEX
  8
0
 10
37.146328
 20
698.144836
  0
VERTEX
  8
0
 10
38.058437
 20
696.991882
  0
VERTEX
  8
0
 10
38.531796
 20
696.430481
  0
VERTEX
  8
0
 10
39.262890
 20
695.606323
  0
VERTEX
  8
0
 10
39.763985
 20
695.068604
  0
VERTEX
  8
0
 10
40.535625
 20
694.279175
  0
VERTEX
  8
0
 10
41.330704
 20
693.509583
  0
VERTEX
  8
0
 10
41.873360
 20
693.008606
  0
VERTEX
  8
0
 10
42.988125
 20
692.045898
  0
VERTEX
  8
0
 10
43.559685
 20
691.589111
  0
VERTEX
  8
0
 10
44.140545
 20
691.152039
  0
VERTEX
  8
0
 10
44.730469
 20
690.737000
  0
VERTEX
  8
0
 10
45.329140
 20
690.346619
  0
VERTEX
  8
0
 10
46.243202
 20
689.812500
  0
VERTEX
  8
0
 10
47.175938
 20
689.346130
  0
VERTEX
  8
0
 10
47.807812
 20
689.073608
  0
VERTEX
  8
0
 10
48.447655
 20
688.831787
  0
VERTEX
  8
0
 10
49.421719
 20
688.526367
  0
VERTEX
  8
0
 10
50.412655
 20
688.289856
  0
VERTEX
  8
0
 10
51.419765
 20
688.121887
  0
VERTEX
  8
0
 10
52.099998
 20
688.048035
  0
VERTEX
  8
0
 10
52.786953
 20
688.004456
  0
VERTEX
  8
0
 10
53.479919
 20
687.990112
  0
VERTEX
  8
0
 10
54.177967
 20
688.003906
  0
VERTEX
  8
0
 10
54.880466
 20
688.044739
  0
VERTEX
  8
0
 10
55.586483
 20
688.111389
  0
VERTEX
  8
0
 10
56.295155
 20
688.202820
  0
VERTEX
  8
0
 10
57.005703
 20
688.317749
  0
VERTEX
  8
0
 10
57.717342
 20
688.455078
  0
VERTEX
  8
0
 10
58.429138
 20
688.613708
  0
VERTEX
  8
0
 10
59.139999
 20
688.792664
  0
VERTEX
  8
0
 10
59.847031
 20
688.991882
  0
VERTEX
  8
0
 10
60.547031
 20
689.211243
  0
VERTEX
  8
0
 10
61.236874
 20
689.451050
  0
VERTEX
  8
0
 10
61.913280
 20
689.711365
  0
VERTEX
  8
0
 10
62.573124
 20
689.992249
  0
VERTEX
  8
0
 10
63.213203
 20
690.293762
  0
VERTEX
  8
0
 10
63.830311
 20
690.616028
  0
VERTEX
  8
0
 10
64.706017
 20
691.138367
  0
VERTEX
  8
0
 10
65.520546
 20
691.708740
  0
VERTEX
  8
0
 10
66.284370
 20
692.329529
  0
VERTEX
  8
0
 10
66.771011
 20
692.772583
  0
VERTEX
  8
0
 10
67.243591
 20
693.239990
  0
VERTEX
  8
0
 10
67.705620
 20
693.732483
  0
VERTEX
  8
0
 10
68.160393
 20
694.250671
  0
VERTEX
  8
0
 10
69.061798
 20
695.367554
  0
VERTEX
  8
0
 10
69.961174
 20
696.588440
  0
VERTEX
  8
0
 10
70.845390
 20
697.895325
  0
VERTEX
  8
0
 10
71.697968
 20
699.268555
  0
VERTEX
  8
0
 10
72.306877
 20
700.330139
  0
VERTEX
  8
0
 10
72.882027
 20
701.409729
  0
VERTEX
  8
0
 10
73.420074
 20
702.501709
  0
VERTEX
  8
0
 10
73.923042
 20
703.604614
  0
VERTEX
  8
0
 10
74.543358
 20
705.090454
  0
VERTEX
  8
0
 10
75.111557
 20
706.591675
  0
VERTEX
  8
0
 10
75.633667
 20
708.105896
  0
VERTEX
  8
0
 10
76.232498
 20
710.003418
  0
VERTEX
  8
0
 10
77.534294
 20
714.362183
  0
VERTEX
  8
0
 10
78.902885
 20
718.638184
  0
VERTEX
  8
0
 10
79.412109
 20
720.390076
  0
VERTEX
  8
0
 10
79.709137
 20
721.523254
  0
VERTEX
  8
0
 10
80.096558
 20
723.114502
  0
VERTEX
  8
0
 10
81.136169
 20
727.653137
  0
VERTEX
  8
0
 10
81.608276
 20
729.644958
  0
VERTEX
  8
0
 10
82.843513
 20
734.591858
  0
SEQEND
  8
0
  0
POLYLINE
  8
0
  0
VERTEX
  8
0
 10
25.173203
 20
737.693909
  0
VERTEX
  8
0
 10
26.933046
 20
732.149353
  0
VERTEX
  8
0
 10
29.021484
 20
725.912720
  0
VERTEX
  8
0
 10
30.399061
 20
721.589050
  0
VERTEX
  8
0
 10
31.105391
 20
719.522461
  0
VERTEX
  8
0
 10
31.508436
 20
718.447021
  0
VERTEX
  8
0
 10
31.948437
 20
717.340942
  0
VERTEX
  8
0
 10
33.360622
 20
713.947327
  0
VERTEX
  8
0
 10
33.963123
 20
712.460815
  0
VERTEX
  8
0
 10
34.378124
 20
711.377747
  0
VERTEX
  8
0
 10
35.259453
 20
708.977356
  0
VERTEX
  8
0
 10
35.763985
 20
707.685364
  0
VERTEX
  8
0
 10
36.312889
 20
706.451294
  0
VERTEX
  8
0
 10
36.773357
 20
705.563416
  0
VERTEX
  8
0
 10
37.275391
 20
704.704651
  0
VERTEX
  8
0
 10
37.989529
 20
703.596069
  0
VERTEX
  8
0
 10
41.062344
 20
699.120300
  0
VERTEX
  8
0
 10
41.607498
 20
698.376160
  0
VERTEX
  8
0
 10
41.986404
 20
697.896729
  0
VERTEX
  8
0
 10
42.588203
 20
697.208374
  0
VERTEX
  8
0
 10
43.017498
 20
696.773254
  0
VERTEX
  8
0
 10
43.709373
 20
696.160767
  0
VERTEX
  8
0
 10
44.450703
 20
695.595093
  0
VERTEX
  8
0
 10
45.230156
 20
695.074036
  0
VERTEX
  8
0
 10
46.036015
 20
694.595276
  0
VERTEX
  8
0
 10
47.131718
 20
694.018982
  0
VERTEX
  8
0
 10
48.227345
 20
693.508667
  0
VERTEX
  8
0
 10
49.311874
 20
693.063904
  0
VERTEX
  8
0
 10
50.120625
 20
692.775757
  0
VERTEX
  8
0
 10
51.196873
 20
692.455627
  0
VERTEX
  8
0
 10
52.275703
 20
692.212463
  0
VERTEX
  8
0
 10
52.817654
 20
692.121216
  0
VERTEX
  8
0
 10
53.361717
 20
692.050537
  0
VERTEX
  8
0
 10
53.907497
 20
692.000366
  0
VERTEX
  8
0
 10
54.454842
 20
691.970764
  0
VERTEX
  8
0
 10
55.003281
 20
691.961609
  0
VERTEX
  8
0
 10
55.552578
 20
691.972900
  0
VERTEX
  8
0
 10
56.102497
 20
692.004517
  0
VERTEX
  8
0
 10
56.652657
 20
692.056519
  0
VERTEX
  8
0
 10
57.202732
 20
692.128906
  0
VERTEX
  8
0
 10
57.752422
 20
692.221497
  0
VERTEX
  8
0
 10
58.301559
 20
692.334839
  0
VERTEX
  8
0
 10
58.850231
 20
692.469971
  0
VERTEX
  8
0
 10
59.398201
 20
692.627930
  0
VERTEX
  8
0
 10
59.945469
 20
692.809692
  0
VERTEX
  8
0
 10
60.765076
 20
693.129211
  0
VERTEX
  8
0
 10
61.310547
 20
693.375000
  0
VERTEX
  8
0
 10
61.855156
 20
693.648193
  0
VERTEX
  8
0
 10
62.670391
 20
694.111572
  0
VERTEX
  8
0
 10
63.211094
 20
694.456482
  0
VERTEX
  8
0
 10
63.746250
 20
694.829224
  0
VERTEX
  8
0
 10
64.531715
 20
695.437744
  0
VERTEX
  8
0
 10
65.039299
 20
695.874756
  0
VERTEX
  8
0
 10
65.530312
 20
696.335510
  0
VERTEX
  8
0
 10
66.229218
 20
697.068665
  0
VERTEX
  8
0
 10
66.665466
 20
697.583801
  0
VERTEX
  8
0
 10
67.074371
 20
698.118591
  0
VERTEX
  8
0
 10
67.455620
 20
698.671448
  0
VERTEX
  8
0
 10
67.979919
 20
699.529846
  0
VERTEX
  8
0
 10
68.301094
 20
700.118286
  0
VERTEX
  8
0
 10
68.745621
 20
701.019836
  0
VERTEX
  8
0
 10
69.152184
 20
701.937317
  0
VERTEX
  8
0
 10
69.647964
 20
703.172791
  0
VERTEX
  8
0
 10
70.217110
 20
704.719666
  0
VERTEX
  8
0
 10
71.641640
 20
708.811768
  0
VERTEX
  8
0
 10
73.104454
 20
712.787659
  0
VERTEX
  8
0
 10
73.697968
 20
714.500610
  0
VERTEX
  8
0
 10
74.136871
 20
715.891052
  0
VERTEX
  8
0
 10
74.543510
 20
717.296021
  0
VERTEX
  8
0
 10
75.019531
 20
719.066772
  0
VERTEX
  8
0
 10
75.565620
 20
721.203003
  0
SEQEND
  8
0
  0
POLYLINE
  8
0
  0
VERTEX
  8
0
 10
67.406487
 20
730.654541
  0
VERTEX
  8
0
 10
70.197891
 20
729.052429
  0
VERTEX
  8
0
 10
70.175705
 20
730.699036
  0
VERTEX
  8
0
 10
70.153595
 20
732.345703
  0
VERTEX
  8
0
 10
67.406487
 20
730.654541
  0
SEQEND
  8
0
  0
POLYLINE
  8
0
  0
VERTEX
  8
0
 10
79.130074
 20
736.110657
  0
VERTEX
  8
0
 10
78.651718
 20
736.015503
  0
VERTEX
  8
0
 10
78.246170
 20
735.744568
  0
VERTEX
  8
0
 10
77.975235
 20
735.339050
  0
VERTEX
  8
0
 10
77.880074
 20
734.860657
  0
VERTEX
  8
0
 10
77.975235
 20
734.382324
  0
VERTEX
  8
0
 10
78.246170
 20
733.976807
  0
VERTEX
  8
0
 10
78.651718
 20
733.705872
  0
VERTEX
  8
0
 10
79.130074
 20
733.610657
  0
VERTEX
  8
0
 10
79.608437
 20
733.705872
  0
VERTEX
  8
0
 10
80.013985
 20
733.976807
  0
VERTEX
  8
0
 10
80.284920
 20
734.382324
  0
VERTEX
  8
0
 10
80.380074
 20
734.860657
  0
VERTEX
  8
0
 10
80.284920
 20
735.339050
  0
VERTEX
  8
0
 10
80.013985
 20
735.744568
  0
VERTEX
  8
0
 10
79.608437
 20
736.015503
  0
VERTEX
  8
0
 10
79.130074
 20
736.110657
  0
SEQEND
  8
0
  0
POLYLINE
  8
0
  0
VERTEX
  8
0
 10
77.105621
 20
729.479675
  0
VERTEX
  8
0
 10
76.627266
 20
729.384521
  0
VERTEX
  8
0
 10
76.221718
 20
729.113525
  0
VERTEX
  8
0
 10
75.950783
 20
728.707947
  0
VERTEX
  8
0
 10
75.855621
 20
728.229675
  0
VERTEX
  8
0
 10
75.950783
 20
727.751221
  0
VERTEX
  8
0
 10
76.221718
 20
727.345764
  0
VERTEX
  8
0
 10
76.627266
 20
727.074829
  0
VERTEX
  8
0
 10
77.105621
 20
726.979675
  0
VERTEX
  8
0
 10
77.583984
 20
727.074829
  0
VERTEX
  8
0
 10
77.989532
 20
727.345764
  0
VERTEX
  8
0
 10
78.260468
 20
727.751221
  0
VERTEX
  8
0
 10
78.355621
 20
728.229675
  0
VERTEX
  8
0
 10
78.260468
 20
728.707947
  0
VERTEX
  8
0
 10
77.989532
 20
729.113525
  0
VERTEX
  8
0
 10
77.583984
 20
729.384521
  0
VERTEX
  8
0
 10
77.105621
 20
729.479675
  0
SEQEND
  8
0
  0
POLYLINE
  8
0
  0
VERTEX
  8
0
 10
53.996639
 20
685.545044
  0
VERTEX
  8
0
 10
53.518280
 20
685.449890
  0
VERTEX
  8
0
 10
53.112732
 20
685.178894
  0
VERTEX
  8
0
 10
52.841717
 20
684.773438
  0
VERTEX
  8
0
 10
52.746639
 20
684.295044
  0
VERTEX
  8
0
 10
52.841717
 20
683.816711
  0
VERTEX
  8
0
 10
53.112732
 20
683.411133
  0
VERTEX
  8
0
 10
53.518280
 20
683.140137
  0
VERTEX
  8
0
 10
53.996639
 20
683.045044
  0
VERTEX
  8
0
 10
54.474998
 20
683.140137
  0
VERTEX
  8
0
 10
54.880466
 20
683.411133
  0
VERTEX
  8
0
 10
55.151482
 20
683.816711
  0
VERTEX
  8
0
 10
55.246639
 20
684.295044
  0
VERTEX
  8
0
 10
55.151482
 20
684.773438
  0
VERTEX
  8
0
 10
54.880466
 20
685.178894
  0
VERTEX
  8
0
 10
54.474998
 20
685.449890
  0
VERTEX
  8
0
 10
53.996639
 20
685.545044
  0
SEQEND
  8
0
  0
POLYLINE
  8
0
  0
VERTEX
  8
0
 10
19.304062
 20
753.105286
  0
VERTEX
  8
0
 10
18.825703
 20
753.010132
  0
VERTEX
  8
0
 10
18.420156
 20
752.739136
  0
VERTEX
  8
0
 10
18.149218
 20
752.333557
  0
VERTEX
  8
0
 10
18.054062
 20
751.855286
  0
VERTEX
  8
0
 10
18.149218
 20
751.376831
  0
VERTEX
  8
0
 10
18.420156
 20
750.971375
  0
VERTEX
  8
0
 10
18.825703
 20
750.700439
  0
VERTEX
  8
0
 10
19.304062
 20
750.605286
  0
VERTEX
  8
0
 10
19.782421
 20
750.700439
  0
VERTEX
  8
0
 10
20.187969
 20
750.971375
  0
VERTEX
  8
0
 10
20.458906
 20
751.376831
  0
VERTEX
  8
0
 10
20.554062
 20
751.855286
  0
VERTEX
  8
0
 10
20.458906
 20
752.333557
  0
VERTEX
  8
0
 10
20.187969
 20
752.739136
  0
VERTEX
  8
0
 10
19.782421
 20
753.010132
  0
VERTEX
  8
0
 10
19.304062
 20
753.105286
  0
SEQEND
  8
0
  0
POLYLINE
  8
0
  0
VERTEX
  8
0
 10
32.928047
 20
764.401001
  0
VERTEX
  8
0
 10
32.449688
 20
764.305847
  0
VERTEX
  8
0
 10
32.044216
 20
764.034912
  0
VERTEX
  8
0
 10
31.773203
 20
763.629333
  0
VERTEX
  8
0
 10
31.678045
 20
763.151001
  0
VERTEX
  8
0
 10
31.773203
 20
762.672668
  0
VERTEX
  8
0
 10
32.044216
 20
762.267151
  0
VERTEX
  8
0
 10
32.449688
 20
761.996155
  0
VERTEX
  8
0
 10
32.928047
 20
761.901001
  0
VERTEX
  8
0
 10
33.406406
 20
761.996155
  0
VERTEX
  8
0
 10
33.811951
 20
762.267151
  0
VERTEX
  8
0
 10
34.082970
 20
762.672668
  0
VERTEX
  8
0
 10
34.178047
 20
763.151001
  0
VERTEX
  8
0
 10
34.082970
 20
763.629333
  0
VERTEX
  8
0
 10
33.811951
 20
764.034912
  0
VERTEX
  8
0
 10
33.406406
 20
764.305847
  0
VERTEX
  8
0
 10
32.928047
 20
764.401001
  0
SEQEND
  8
0
  0
POLYLINE
  8
0
  0
VERTEX
  8
0
 10
88.185776
 20
753.057861
  0
VERTEX
  8
0
 10
87.707420
 20
752.962708
  0
VERTEX
  8
0
 10
87.301872
 20
752.691772
  0
VERTEX
  8
0
 10
87.030937
 20
752.286255
  0
VERTEX
  8
0
 10
86.935776
 20
751.807861
  0
VERTEX
  8
0
 10
87.030937
 20
751.329529
  0
VERTEX
  8
0
 10
87.301872
 20
750.924072
  0
VERTEX
  8
0
 10
87.707420
 20
750.653015
  0
VERTEX
  8
0
 10
88.185776
 20
750.557861
  0
VERTEX
  8
0
 10
88.664139
 20
750.653015
  0
VERTEX
  8
0
 10
89.069687
 20
750.924072
  0
VERTEX
  8
0
 10
89.340622
 20
751.329529
  0
VERTEX
  8
0
 10
89.435776
 20
751.807861
  0
VERTEX
  8
0
 10
89.340622
 20
752.286255
  0
VERTEX
  8
0
 10
89.069687
 20
752.691772
  0
VERTEX
  8
0
 10
88.664139
 20
752.962708
  0
VERTEX
  8
0
 10
88.185776
 20
753.057861
  0
SEQEND
  8
0
  0
POLYLINE
  8
0
  0
VERTEX
  8
0
 10
73.255074
 20
764.970520
  0
VERTEX
  8
0
 10
72.776718
 20
764.875366
  0
VERTEX
  8
0
 10
72.371246
 20
764.604431
  0
VERTEX
  8
0
 10
72.100235
 20
764.198914
  0
VERTEX
  8
0
 10
72.005074
 20
763.720520
  0
VERTEX
  8
0
 10
72.100235
 20
763.242188
  0
VERTEX
  8
0
 10
72.371246
 20
762.836731
  0
VERTEX
  8
0
 10
72.776718
 20
762.565674
  0
VERTEX
  8
0
 10
73.255074
 20
762.470520
  0
VERTEX
  8
0
 10
73.733437
 20
762.565674
  0
VERTEX
  8
0
 10
74.138985
 20
762.836731
  0
VERTEX
  8
0
 10
74.409996
 20
763.242188
  0
VERTEX
  8
0
 10
74.505074
 20
763.720520
  0
VERTEX
  8
0
 10
74.409996
 20
764.198914
  0
VERTEX
  8
0
 10
74.138985
 20
764.604431
  0
VERTEX
  8
0
 10
73.733437
 20
764.875366
  0
VERTEX
  8
0
 10
73.255074
 20
764.970520
  0
SEQEND
  8
0
  0
POLYLINE
  8
0
  0
VERTEX
  8
0
 10
54.154766
 20
743.947144
  0
VERTEX
  8
0
 10
53.772110
 20
743.871094
  0
VERTEX
  8
0
 10
53.447655
 20
743.654358
  0
VERTEX
  8
0
 10
53.230938
 20
743.329895
  0
VERTEX
  8
0
 10
53.154766
 20
742.947144
  0
VERTEX
  8
0
 10
53.230938
 20
742.564514
  0
VERTEX
  8
0
 10
53.447655
 20
742.240112
  0
VERTEX
  8
0
 10
53.772110
 20
742.023315
  0
VERTEX
  8
0
 10
54.154766
 20
741.947144
  0
VERTEX
  8
0
 10
54.537498
 20
742.023315
  0
VERTEX
  8
0
 10
54.861874
 20
742.240112
  0
VERTEX
  8
0
 10
55.078671
 20
742.564514
  0
VERTEX
  8
0
 10
55.154766
 20
742.947144
  0
VERTEX
  8
0
 10
55.078671
 20
743.329895
  0
VERTEX
  8
0
 10
54.861874
 20
743.654358
  0
VERTEX
  8
0
 10
54.537498
 20
743.871094
  0
VERTEX
  8
0
 10
54.154766
 20
743.947144
  0
SEQEND
  8
0
  0
ENDSEC
  0
EOF
