  0
SECTION
  2
HEADER
  9
$ACADVER
  1
AC1006
  9
$EXTMIN
 10
0.999766
 20
0.999844
  9
$EXTMAX
 10
315.428192
 20
916.041626
  0
ENDSEC
  0
SECTION
  2
ENTITIES
  0
POLYLINE
  8
0
  0
VERTEX
  8
0
 10
123.290154
 20
1.000000
  0
VERTEX
  8
0
 10
108.611794
 20
6.232734
  0
VERTEX
  8
0
 10
98.574997
 20
9.832500
  0
VERTEX
  8
0
 10
89.245155
 20
13.214531
  0
VERTEX
  8
0
 10
82.480545
 20
15.703984
  0
VERTEX
  8
0
 10
75.027885
 20
18.491718
  0
VERTEX
  8
0
 10
66.614449
 20
21.699297
  0
VERTEX
  8
0
 10
59.458672
 20
24.483906
  0
VERTEX
  8
0
 10
54.070625
 20
26.642187
  0
VERTEX
  8
0
 10
53.812420
 20
28.330000
  0
VERTEX
  8
0
 10
50.609844
 20
28.246016
  0
VERTEX
  8
0
 10
45.641796
 20
30.555702
  0
VERTEX
  8
0
 10
43.747890
 20
31.466562
  0
VERTEX
  8
0
 10
41.824764
 20
32.419998
  0
VERTEX
  8
0
 10
39.864452
 20
33.427578
  0
VERTEX
  8
0
 10
38.533123
 20
34.134922
  0
VERTEX
  8
0
 10
36.499607
 20
35.254608
  0
VERTEX
  8
0
 10
35.123360
 20
36.041485
  0
VERTEX
  8
0
 10
33.034763
 20
37.283749
  0
VERTEX
  8
0
 10
31.629921
 20
38.154373
  0
VERTEX
  8
0
 10
30.218359
 20
39.059921
  0
VERTEX
  8
0
 10
28.802500
 20
40.000938
  0
VERTEX
  8
0
 10
26.676796
 20
41.480625
  0
VERTEX
  8
0
 10
25.262421
 20
42.512890
  0
VERTEX
  8
0
 10
23.856092
 20
43.579529
  0
VERTEX
  8
0
 10
22.463282
 20
44.677422
  0
VERTEX
  8
0
 10
21.089687
 20
45.803593
  0
VERTEX
  8
0
 10
19.740780
 20
46.954998
  0
VERTEX
  8
0
 10
18.422266
 20
48.128513
  0
VERTEX
  8
0
 10
17.139687
 20
49.321327
  0
VERTEX
  8
0
 10
15.898593
 20
50.530312
  0
VERTEX
  8
0
 10
14.704609
 20
51.752499
  0
VERTEX
  8
0
 10
13.562656
 20
52.984688
  0
VERTEX
  8
0
 10
12.474766
 20
54.223591
  0
VERTEX
  8
0
 10
11.442344
 20
55.465778
  0
VERTEX
  8
0
 10
10.466719
 20
56.707809
  0
VERTEX
  8
0
 10
9.549218
 20
57.946171
  0
VERTEX
  8
0
 10
8.691172
 20
59.177422
  0
VERTEX
  8
0
 10
7.894063
 20
60.398045
  0
VERTEX
  8
0
 10
7.159141
 20
61.604687
  0
VERTEX
  8
0
 10
6.487734
 20
62.793983
  0
VERTEX
  8
0
 10
5.880078
 20
63.964138
  0
VERTEX
  8
0
 10
5.331875
 20
65.121635
  0
VERTEX
  8
0
 10
4.837187
 20
66.274452
  0
VERTEX
  8
0
 10
4.390625
 20
67.430702
  0
VERTEX
  8
0
 10
4.183672
 20
68.012733
  0
VERTEX
  8
0
 10
3.798672
 20
69.189529
  0
VERTEX
  8
0
 10
3.447656
 20
70.389999
  0
VERTEX
  8
0
 10
2.972734
 20
72.253204
  0
VERTEX
  8
0
 10
2.682188
 20
73.548828
  0
VERTEX
  8
0
 10
2.276172
 20
75.582733
  0
VERTEX
  8
0
 10
1.911094
 20
77.701874
  0
VERTEX
  8
0
 10
1.694609
 20
79.146172
  0
VERTEX
  8
0
 10
1.416797
 20
81.335861
  0
VERTEX
  8
0
 10
1.266562
 20
82.797264
  0
VERTEX
  8
0
 10
1.100000
 20
84.967812
  0
VERTEX
  8
0
 10
1.031875
 20
86.386642
  0
VERTEX
  8
0
 10
1.000000
 20
88.460701
  0
VERTEX
  8
0
 10
1.028125
 20
89.821167
  0
VERTEX
  8
0
 10
1.097734
 20
91.177887
  0
VERTEX
  8
0
 10
1.210469
 20
92.542809
  0
VERTEX
  8
0
 10
1.367891
 20
93.927963
  0
VERTEX
  8
0
 10
1.571797
 20
95.345314
  0
VERTEX
  8
0
 10
1.823750
 20
96.806870
  0
VERTEX
  8
0
 10
2.125391
 20
98.324684
  0
VERTEX
  8
0
 10
2.673828
 20
100.727890
  0
VERTEX
  8
0
 10
3.099922
 20
102.402809
  0
VERTEX
  8
0
 10
3.569531
 20
104.114449
  0
VERTEX
  8
0
 10
4.078125
 20
105.844215
  0
VERTEX
  8
0
 10
4.621484
 20
107.573280
  0
VERTEX
  8
0
 10
5.195078
 20
109.282890
  0
VERTEX
  8
0
 10
5.794687
 20
110.954292
  0
VERTEX
  8
0
 10
6.415781
 20
112.568901
  0
VERTEX
  8
0
 10
7.053906
 20
114.107811
  0
VERTEX
  8
0
 10
7.706250
 20
115.557732
  0
VERTEX
  8
0
 10
8.038203
 20
116.251167
  0
VERTEX
  8
0
 10
8.716016
 20
117.583122
  0
VERTEX
  8
0
 10
9.415078
 20
118.852188
  0
VERTEX
  8
0
 10
10.138828
 20
120.071014
  0
VERTEX
  8
0
 10
10.511015
 20
120.665390
  0
VERTEX
  8
0
 10
11.278125
 20
121.832420
  0
VERTEX
  8
0
 10
12.078437
 20
122.980469
  0
VERTEX
  8
0
 10
12.915312
 20
124.122337
  0
VERTEX
  8
0
 10
14.246640
 20
125.850624
  0
VERTEX
  8
0
 10
15.188046
 20
127.022728
  0
VERTEX
  8
0
 10
16.173203
 20
128.207031
  0
VERTEX
  8
0
 10
17.202265
 20
129.399216
  0
VERTEX
  8
0
 10
18.275312
 20
130.594833
  0
VERTEX
  8
0
 10
19.392578
 20
131.789444
  0
VERTEX
  8
0
 10
21.151875
 20
133.569916
  0
VERTEX
  8
0
 10
22.380547
 20
134.742661
  0
VERTEX
  8
0
 10
23.011797
 20
135.323120
  0
VERTEX
  8
0
 10
23.654219
 20
135.898987
  0
VERTEX
  8
0
 10
24.973047
 20
137.035461
  0
VERTEX
  8
0
 10
25.649843
 20
137.596558
  0
VERTEX
  8
0
 10
27.038593
 20
138.705780
  0
VERTEX
  8
0
 10
28.475546
 20
139.799530
  0
VERTEX
  8
0
 10
29.961718
 20
140.879837
  0
VERTEX
  8
0
 10
32.286171
 20
142.479996
  0
VERTEX
  8
0
 10
34.728436
 20
144.062424
  0
VERTEX
  8
0
 10
37.292419
 20
145.634140
  0
VERTEX
  8
0
 10
39.070232
 20
146.679062
  0
VERTEX
  8
0
 10
40.897888
 20
147.720779
  0
VERTEX
  8
0
 10
42.769062
 20
148.757813
  0
VERTEX
  8
0
 10
44.677654
 20
149.788361
  0
VERTEX
  8
0
 10
46.617264
 20
150.810623
  0
VERTEX
  8
0
 10
49.571640
 20
152.325073
  0
VERTEX
  8
0
 10
53.561874
 20
154.300079
  0
VERTEX
  8
0
 10
56.569530
 20
155.742111
  0
VERTEX
  8
0
 10
58.592575
 20
156.689453
  0
VERTEX
  8
0
 10
62.756172
 20
158.577972
  0
VERTEX
  8
0
 10
67.187889
 20
160.500000
  0
VERTEX
  8
0
 10
72.021797
 20
162.505539
  0
VERTEX
  8
0
 10
77.383591
 20
164.641174
  0
VERTEX
  8
0
 10
83.212105
 20
166.881088
  0
VERTEX
  8
0
 10
89.259605
 20
169.127029
  0
VERTEX
  8
0
 10
92.285469
 20
170.220383
  0
VERTEX
  8
0
 10
95.270157
 20
171.277191
  0
VERTEX
  8
0
 10
98.181557
 20
172.284683
  0
VERTEX
  8
0
 10
100.987656
 20
173.230148
  0
VERTEX
  8
0
 10
103.664452
 20
174.104446
  0
VERTEX
  8
0
 10
106.219215
 20
174.912338
  0
VERTEX
  8
0
 10
108.667267
 20
175.662186
  0
VERTEX
  8
0
 10
111.023827
 20
176.362259
  0
VERTEX
  8
0
 10
115.523438
 20
177.646088
  0
VERTEX
  8
0
 10
121.967888
 20
179.405930
  0
VERTEX
  8
0
 10
124.478279
 20
177.789841
  0
VERTEX
  8
0
 10
125.874062
 20
176.918350
  0
VERTEX
  8
0
 10
126.738434
 20
176.432892
  0
VERTEX
  8
0
 10
127.744606
 20
175.943985
  0
VERTEX
  8
0
 10
129.162811
 20
175.342422
  0
VERTEX
  8
0
 10
129.917572
 20
175.056320
  0
VERTEX
  8
0
 10
130.662582
 20
174.800705
  0
VERTEX
  8
0
 10
131.373825
 20
174.586716
  0
VERTEX
  8
0
 10
132.053741
 20
174.408508
  0
VERTEX
  8
0
 10
133.675629
 20
174.052185
  0
VERTEX
  8
0
 10
130.300232
 20
157.438278
  0
VERTEX
  8
0
 10
126.924919
 20
140.824295
  0
VERTEX
  8
0
 10
119.273827
 20
141.071396
  0
VERTEX
  8
0
 10
114.424294
 20
141.180069
  0
VERTEX
  8
0
 10
112.131485
 20
141.205002
  0
VERTEX
  8
0
 10
109.949448
 20
141.205078
  0
VERTEX
  8
0
 10
107.885933
 20
141.178986
  0
VERTEX
  8
0
 10
105.946327
 20
141.125473
  0
VERTEX
  8
0
 10
104.136246
 20
141.043350
  0
VERTEX
  8
0
 10
102.461014
 20
140.931641
  0
VERTEX
  8
0
 10
101.421791
 20
140.840149
  0
VERTEX
  8
0
 10
99.983047
 20
140.677109
  0
VERTEX
  8
0
 10
98.688828
 20
140.487732
  0
VERTEX
  8
0
 10
97.537109
 20
140.280472
  0
VERTEX
  8
0
 10
96.526093
 20
140.063583
  0
VERTEX
  8
0
 10
95.393745
 20
139.773819
  0
VERTEX
  8
0
 10
94.503357
 20
139.501083
  0
VERTEX
  8
0
 10
93.823280
 20
139.242661
  0
VERTEX
  8
0
 10
93.401093
 20
139.030472
  0
VERTEX
  8
0
 10
93.140312
 20
138.868118
  0
VERTEX
  8
0
 10
92.882965
 20
138.681717
  0
VERTEX
  8
0
 10
92.478745
 20
138.342575
  0
VERTEX
  8
0
 10
92.018906
 20
137.912735
  0
VERTEX
  8
0
 10
88.894844
 20
134.783981
  0
VERTEX
  8
0
 10
88.085388
 20
134.001633
  0
VERTEX
  8
0
 10
87.541794
 20
133.505936
  0
VERTEX
  8
0
 10
86.870705
 20
132.950302
  0
VERTEX
  8
0
 10
86.381088
 20
132.596329
  0
VERTEX
  8
0
 10
85.880470
 20
132.282104
  0
VERTEX
  8
0
 10
85.160469
 20
131.903351
  0
VERTEX
  8
0
 10
84.345467
 20
131.546402
  0
VERTEX
  8
0
 10
83.192184
 20
131.108505
  0
VERTEX
  8
0
 10
77.480934
 20
129.116562
  0
VERTEX
  8
0
 10
74.241486
 20
128.014603
  0
VERTEX
  8
0
 10
65.718277
 20
125.198669
  0
VERTEX
  8
0
 10
63.016483
 20
124.260620
  0
VERTEX
  8
0
 10
61.155388
 20
123.577812
  0
VERTEX
  8
0
 10
58.938747
 20
122.699059
  0
VERTEX
  8
0
 10
56.917656
 20
121.814919
  0
VERTEX
  8
0
 10
54.964687
 20
120.877495
  0
VERTEX
  8
0
 10
53.974140
 20
120.373589
  0
VERTEX
  8
0
 10
52.425625
 20
119.556953
  0
VERTEX
  8
0
 10
49.622810
 20
118.013512
  0
VERTEX
  8
0
 10
47.866249
 20
117.002266
  0
VERTEX
  8
0
 10
46.692421
 20
116.304138
  0
VERTEX
  8
0
 10
44.961720
 20
115.235153
  0
VERTEX
  8
0
 10
43.847969
 20
114.516090
  0
VERTEX
  8
0
 10
42.781952
 20
113.798279
  0
VERTEX
  8
0
 10
41.777187
 20
113.087265
  0
VERTEX
  8
0
 10
40.838593
 20
112.385155
  0
VERTEX
  8
0
 10
39.962891
 20
111.690620
  0
VERTEX
  8
0
 10
39.146717
 20
111.002495
  0
VERTEX
  8
0
 10
38.025936
 20
109.978905
  0
VERTEX
  8
0
 10
37.342579
 20
109.300385
  0
VERTEX
  8
0
 10
36.706093
 20
108.623360
  0
VERTEX
  8
0
 10
36.112888
 20
107.946327
  0
VERTEX
  8
0
 10
35.296482
 20
106.927963
  0
VERTEX
  8
0
 10
34.557968
 20
105.905075
  0
VERTEX
  8
0
 10
33.886562
 20
104.880234
  0
VERTEX
  8
0
 10
33.271641
 20
103.856483
  0
VERTEX
  8
0
 10
32.702732
 20
102.836952
  0
VERTEX
  8
0
 10
31.827734
 20
101.155235
  0
VERTEX
  8
0
 10
31.173359
 20
99.819527
  0
VERTEX
  8
0
 10
30.717421
 20
98.785309
  0
VERTEX
  8
0
 10
30.302265
 20
97.686485
  0
VERTEX
  8
0
 10
29.937735
 20
96.490234
  0
VERTEX
  8
0
 10
29.727968
 20
95.622345
  0
VERTEX
  8
0
 10
29.548046
 20
94.686798
  0
VERTEX
  8
0
 10
29.400858
 20
93.674454
  0
VERTEX
  8
0
 10
29.287498
 20
92.588516
  0
VERTEX
  8
0
 10
29.206797
 20
91.445229
  0
VERTEX
  8
0
 10
29.157890
 20
90.261169
  0
VERTEX
  8
0
 10
29.141796
 20
88.444763
  0
VERTEX
  8
0
 10
29.167656
 20
87.231247
  0
VERTEX
  8
0
 10
29.221718
 20
86.035080
  0
VERTEX
  8
0
 10
29.302734
 20
84.872658
  0
VERTEX
  8
0
 10
29.409843
 20
83.760857
  0
VERTEX
  8
0
 10
29.542030
 20
82.712341
  0
VERTEX
  8
0
 10
29.699062
 20
81.725075
  0
VERTEX
  8
0
 10
29.880859
 20
80.793358
  0
VERTEX
  8
0
 10
30.087109
 20
79.911171
  0
VERTEX
  8
0
 10
30.317734
 20
79.072968
  0
VERTEX
  8
0
 10
30.572655
 20
78.272736
  0
VERTEX
  8
0
 10
30.851719
 20
77.504845
  0
VERTEX
  8
0
 10
31.154764
 20
76.763359
  0
VERTEX
  8
0
 10
31.481483
 20
76.042580
  0
VERTEX
  8
0
 10
31.831797
 20
75.337418
  0
VERTEX
  8
0
 10
32.205078
 20
74.646484
  0
VERTEX
  8
0
 10
32.805702
 20
73.635155
  0
VERTEX
  8
0
 10
33.232185
 20
72.976715
  0
VERTEX
  8
0
 10
33.908829
 20
72.011093
  0
VERTEX
  8
0
 10
34.627186
 20
71.070000
  0
VERTEX
  8
0
 10
35.384453
 20
70.150932
  0
VERTEX
  8
0
 10
36.179764
 20
69.252106
  0
VERTEX
  8
0
 10
36.734764
 20
68.663361
  0
VERTEX
  8
0
 10
37.611404
 20
67.795074
  0
VERTEX
  8
0
 10
38.229374
 20
67.225700
  0
VERTEX
  8
0
 10
39.213749
 20
66.384766
  0
VERTEX
  8
0
 10
39.912422
 20
65.832497
  0
VERTEX
  8
0
 10
40.648281
 20
65.286560
  0
VERTEX
  8
0
 10
41.424141
 20
64.746407
  0
VERTEX
  8
0
 10
42.664452
 20
63.948280
  0
VERTEX
  8
0
 10
43.541172
 20
63.425312
  0
VERTEX
  8
0
 10
44.456875
 20
62.910934
  0
VERTEX
  8
0
 10
45.410545
 20
62.405937
  0
VERTEX
  8
0
 10
46.910313
 20
61.668201
  0
VERTEX
  8
0
 10
47.955235
 20
61.190701
  0
VERTEX
  8
0
 10
49.035076
 20
60.725937
  0
VERTEX
  8
0
 10
50.149063
 20
60.274609
  0
VERTEX
  8
0
 10
51.294765
 20
59.837109
  0
VERTEX
  8
0
 10
53.064922
 20
59.205467
  0
VERTEX
  8
0
 10
54.273827
 20
58.799999
  0
VERTEX
  8
0
 10
56.121407
 20
58.214062
  0
VERTEX
  8
0
 10
59.260700
 20
57.292263
  0
VERTEX
  8
0
 10
63.053356
 20
56.267498
  0
VERTEX
  8
0
 10
66.760307
 20
55.328514
  0
VERTEX
  8
0
 10
74.372810
 20
53.476093
  0
VERTEX
  8
0
 10
76.207886
 20
53.009686
  0
VERTEX
  8
0
 10
77.501167
 20
52.662342
  0
VERTEX
  8
0
 10
79.130547
 20
52.190544
  0
VERTEX
  8
0
 10
80.667892
 20
51.694218
  0
VERTEX
  8
0
 10
81.404060
 20
51.430622
  0
VERTEX
  8
0
 10
82.118126
 20
51.153046
  0
VERTEX
  8
0
 10
83.147575
 20
50.704060
  0
VERTEX
  8
0
 10
83.805779
 20
50.378906
  0
VERTEX
  8
0
 10
84.441170
 20
50.029686
  0
VERTEX
  8
0
 10
85.350937
 20
49.454685
  0
VERTEX
  8
0
 10
86.208359
 20
48.811016
  0
VERTEX
  8
0
 10
86.752419
 20
48.346485
  0
VERTEX
  8
0
 10
87.276482
 20
47.859219
  0
VERTEX
  8
0
 10
88.028671
 20
47.096485
  0
VERTEX
  8
0
 10
88.745392
 20
46.310154
  0
VERTEX
  8
0
 10
91.554764
 20
43.021248
  0
VERTEX
  8
0
 10
92.977966
 20
41.402264
  0
VERTEX
  8
0
 10
93.796249
 20
40.528748
  0
VERTEX
  8
0
 10
94.344376
 20
40.012966
  0
VERTEX
  8
0
 10
94.656563
 20
39.761250
  0
VERTEX
  8
0
 10
95.096954
 20
39.456638
  0
VERTEX
  8
0
 10
95.610229
 20
39.149609
  0
VERTEX
  8
0
 10
96.071251
 20
38.901951
  0
VERTEX
  8
0
 10
96.616173
 20
38.645000
  0
VERTEX
  8
0
 10
97.034058
 20
38.471951
  0
VERTEX
  8
0
 10
97.501328
 20
38.299999
  0
VERTEX
  8
0
 10
98.022888
 20
38.131405
  0
VERTEX
  8
0
 10
98.917496
 20
37.889217
  0
VERTEX
  8
0
 10
99.961166
 20
37.666405
  0
VERTEX
  8
0
 10
101.155388
 20
37.468906
  0
VERTEX
  8
0
 10
102.024765
 20
37.353436
  0
VERTEX
  8
0
 10
103.421249
 20
37.207500
  0
VERTEX
  8
0
 10
104.403900
 20
37.130001
  0
VERTEX
  8
0
 10
105.938042
 20
37.046719
  0
VERTEX
  8
0
 10
106.990860
 20
37.014687
  0
VERTEX
  8
0
 10
108.598045
 20
37.005077
  0
VERTEX
  8
0
 10
110.771088
 20
37.057655
  0
VERTEX
  8
0
 10
112.416954
 20
37.130779
  0
VERTEX
  8
0
 10
116.838982
 20
37.364529
  0
VERTEX
  8
0
 10
119.600853
 20
37.461639
  0
VERTEX
  8
0
 10
122.900154
 20
37.498985
  0
VERTEX
  8
0
 10
127.832344
 20
37.465389
  0
VERTEX
  8
0
 10
131.348129
 20
21.773907
  0
VERTEX
  8
0
 10
134.863907
 20
6.082500
  0
VERTEX
  8
0
 10
132.503357
 20
5.249609
  0
VERTEX
  8
0
 10
131.003662
 20
4.699609
  0
VERTEX
  8
0
 10
129.613281
 20
4.157031
  0
VERTEX
  8
0
 10
128.338593
 20
3.617578
  0
VERTEX
  8
0
 10
127.149529
 20
3.069219
  0
VERTEX
  8
0
 10
126.014839
 20
2.500312
  0
VERTEX
  8
0
 10
124.912262
 20
1.909141
  0
VERTEX
  8
0
 10
123.290154
 20
1.000000
  0
SEQEND
  8
0
  0
POLYLINE
  8
0
  0
VERTEX
  8
0
 10
102.926559
 20
32.119373
  0
VERTEX
  8
0
 10
101.736328
 20
29.822344
  0
VERTEX
  8
0
 10
100.938354
 20
28.388124
  0
VERTEX
  8
0
 10
100.063042
 20
26.955858
  0
VERTEX
  8
0
 10
99.091560
 20
25.528906
  0
VERTEX
  8
0
 10
98.472183
 20
24.680859
  0
VERTEX
  8
0
 10
97.834839
 20
23.843281
  0
VERTEX
  8
0
 10
96.537575
 20
22.213671
  0
VERTEX
  8
0
 10
94.832573
 20
20.161718
  0
VERTEX
  8
0
 10
92.539215
 20
17.484062
  0
SEQEND
  8
0
  0
POLYLINE
  8
0
  0
VERTEX
  8
0
 10
78.151405
 20
23.787889
  0
VERTEX
  8
0
 10
76.936562
 20
20.434921
  0
SEQEND
  8
0
  0
POLYLINE
  8
0
  0
VERTEX
  8
0
 10
29.104452
 20
89.175308
  0
VERTEX
  8
0
 10
15.089999
 20
88.930626
  0
VERTEX
  8
0
 10
1.075547
 20
88.686012
  0
SEQEND
  8
0
  0
POLYLINE
  8
0
  0
VERTEX
  8
0
 10
90.553986
 20
162.532959
  0
VERTEX
  8
0
 10
92.463120
 20
160.253128
  0
VERTEX
  8
0
 10
93.757339
 20
158.674606
  0
VERTEX
  8
0
 10
94.942032
 20
157.174759
  0
VERTEX
  8
0
 10
95.783829
 20
156.050781
  0
VERTEX
  8
0
 10
97.076950
 20
154.205856
  0
VERTEX
  8
0
 10
99.349220
 20
150.802658
  0
VERTEX
  8
0
 10
101.808357
 20
147.171722
  0
SEQEND
  8
0
  0
POLYLINE
  8
0
  0
VERTEX
  8
0
 10
82.195854
 20
159.828979
  0
VERTEX
  8
0
 10
81.012733
 20
163.219528
  0
SEQEND
  8
0
  0
POLYLINE
  8
0
  0
VERTEX
  8
0
 10
98.947342
 20
791.352539
  0
VERTEX
  8
0
 10
99.821014
 20
804.429382
  0
VERTEX
  8
0
 10
100.909843
 20
820.513733
  0
VERTEX
  8
0
 10
103.730858
 20
820.727478
  0
VERTEX
  8
0
 10
104.036949
 20
825.466370
  0
VERTEX
  8
0
 10
104.672188
 20
834.627502
  0
VERTEX
  8
0
 10
104.914452
 20
838.370605
  0
VERTEX
  8
0
 10
105.112495
 20
842.132813
  0
VERTEX
  8
0
 10
105.172729
 20
843.820129
  0
VERTEX
  8
0
 10
105.203514
 20
845.393494
  0
VERTEX
  8
0
 10
105.198906
 20
847.212463
  0
VERTEX
  8
0
 10
105.154213
 20
848.863098
  0
VERTEX
  8
0
 10
105.061798
 20
850.609802
  0
VERTEX
  8
0
 10
104.941322
 20
852.093506
  0
VERTEX
  8
0
 10
104.812103
 20
853.168701
  0
VERTEX
  8
0
 10
104.639297
 20
854.159729
  0
VERTEX
  8
0
 10
104.406479
 20
855.125122
  0
VERTEX
  8
0
 10
104.167183
 20
855.906860
  0
VERTEX
  8
0
 10
103.794296
 20
856.890198
  0
VERTEX
  8
0
 10
103.527969
 20
857.478333
  0
VERTEX
  8
0
 10
103.331558
 20
857.867798
  0
VERTEX
  8
0
 10
103.007416
 20
858.446045
  0
VERTEX
  8
0
 10
102.770859
 20
858.826050
  0
VERTEX
  8
0
 10
102.384064
 20
859.385010
  0
VERTEX
  8
0
 10
102.104218
 20
859.748291
  0
VERTEX
  8
0
 10
101.650078
 20
860.275940
  0
VERTEX
  8
0
 10
101.323830
 20
860.614380
  0
VERTEX
  8
0
 10
100.978127
 20
860.940369
  0
VERTEX
  8
0
 10
100.612495
 20
861.252808
  0
VERTEX
  8
0
 10
100.226479
 20
861.550476
  0
VERTEX
  8
0
 10
99.820229
 20
861.832031
  0
VERTEX
  8
0
 10
99.396561
 20
862.097168
  0
VERTEX
  8
0
 10
98.959061
 20
862.345947
  0
VERTEX
  8
0
 10
98.056328
 20
862.793579
  0
VERTEX
  8
0
 10
97.598122
 20
862.992188
  0
VERTEX
  8
0
 10
96.912186
 20
863.258362
  0
VERTEX
  8
0
 10
96.460777
 20
863.414368
  0
VERTEX
  8
0
 10
95.799606
 20
863.616089
  0
VERTEX
  8
0
 10
95.145157
 20
863.781372
  0
VERTEX
  8
0
 10
94.700157
 20
863.873108
  0
VERTEX
  8
0
 10
93.755234
 20
864.017151
  0
VERTEX
  8
0
 10
93.240311
 20
864.071838
  0
VERTEX
  8
0
 10
92.393593
 20
864.134888
  0
VERTEX
  8
0
 10
90.730309
 20
864.198914
  0
VERTEX
  8
0
 10
88.788589
 20
864.218872
  0
VERTEX
  8
0
 10
85.840782
 20
864.182251
  0
VERTEX
  8
0
 10
82.925156
 20
864.081787
  0
VERTEX
  8
0
 10
80.499527
 20
863.957031
  0
VERTEX
  8
0
 10
73.492577
 20
863.546570
  0
VERTEX
  8
0
 10
69.400230
 20
863.367188
  0
VERTEX
  8
0
 10
67.181091
 20
863.302307
  0
VERTEX
  8
0
 10
64.829842
 20
863.256836
  0
VERTEX
  8
0
 10
58.934528
 20
863.207642
  0
VERTEX
  8
0
 10
53.639061
 20
863.200928
  0
VERTEX
  8
0
 10
48.602264
 20
863.218445
  0
VERTEX
  8
0
 10
44.112576
 20
863.259827
  0
VERTEX
  8
0
 10
40.362888
 20
863.316528
  0
VERTEX
  8
0
 10
35.599140
 20
863.417236
  0
VERTEX
  8
0
 10
30.194609
 20
863.563049
  0
VERTEX
  8
0
 10
25.678593
 20
863.710999
  0
VERTEX
  8
0
 10
19.586639
 20
863.942322
  0
VERTEX
  8
0
 10
18.440468
 20
863.959106
  0
VERTEX
  8
0
 10
17.316250
 20
863.947144
  0
VERTEX
  8
0
 10
15.912969
 20
863.891541
  0
VERTEX
  8
0
 10
14.242969
 20
863.766846
  0
VERTEX
  8
0
 10
12.872499
 20
863.615601
  0
VERTEX
  8
0
 10
11.539063
 20
863.417297
  0
VERTEX
  8
0
 10
10.270859
 20
863.160583
  0
VERTEX
  8
0
 10
9.322734
 20
862.905273
  0
VERTEX
  8
0
 10
8.449219
 20
862.599182
  0
VERTEX
  8
0
 10
7.652344
 20
862.240784
  0
VERTEX
  8
0
 10
7.098750
 20
861.938965
  0
VERTEX
  8
0
 10
6.410547
 20
861.494751
  0
VERTEX
  8
0
 10
5.925937
 20
861.131592
  0
VERTEX
  8
0
 10
5.313281
 20
860.609680
  0
VERTEX
  8
0
 10
4.735781
 20
860.047791
  0
VERTEX
  8
0
 10
4.195703
 20
859.450500
  0
VERTEX
  8
0
 10
3.695781
 20
858.822327
  0
VERTEX
  8
0
 10
3.238672
 20
858.167847
  0
VERTEX
  8
0
 10
2.826562
 20
857.486877
  0
VERTEX
  8
0
 10
2.547422
 20
856.947632
  0
VERTEX
  8
0
 10
2.293828
 20
856.372864
  0
VERTEX
  8
0
 10
2.065859
 20
855.752808
  0
VERTEX
  8
0
 10
1.863516
 20
855.077454
  0
VERTEX
  8
0
 10
1.686797
 20
854.336853
  0
VERTEX
  8
0
 10
1.534922
 20
853.522461
  0
VERTEX
  8
0
 10
1.406016
 20
852.627502
  0
VERTEX
  8
0
 10
1.297891
 20
851.645264
  0
VERTEX
  8
0
 10
1.182656
 20
850.188721
  0
VERTEX
  8
0
 10
1.115156
 20
848.977478
  0
VERTEX
  8
0
 10
1.047344
 20
847.194458
  0
VERTEX
  8
0
 10
1.007656
 20
845.232483
  0
VERTEX
  8
0
 10
1.000000
 20
843.658752
  0
VERTEX
  8
0
 10
1.014063
 20
842.009033
  0
VERTEX
  8
0
 10
1.052500
 20
840.294189
  0
VERTEX
  8
0
 10
1.145469
 20
837.925293
  0
VERTEX
  8
0
 10
1.318906
 20
834.901245
  0
VERTEX
  8
0
 10
1.950859
 20
826.174194
  0
VERTEX
  8
0
 10
2.309375
 20
820.737976
  0
VERTEX
  8
0
 10
5.316719
 20
820.559875
  0
VERTEX
  8
0
 10
5.957656
 20
812.986206
  0
VERTEX
  8
0
 10
6.777344
 20
801.560608
  0
VERTEX
  8
0
 10
7.637266
 20
790.749512
  0
VERTEX
  8
0
 10
25.455235
 20
791.681519
  0
VERTEX
  8
0
 10
29.215780
 20
791.856689
  0
VERTEX
  8
0
 10
32.514061
 20
791.989380
  0
VERTEX
  8
0
 10
37.092186
 20
792.141174
  0
VERTEX
  8
0
 10
42.976952
 20
792.294495
  0
VERTEX
  8
0
 10
48.769764
 20
792.405762
  0
VERTEX
  8
0
 10
53.158123
 20
792.457947
  0
VERTEX
  8
0
 10
58.082890
 20
792.457275
  0
VERTEX
  8
0
 10
60.633591
 20
792.424927
  0
VERTEX
  8
0
 10
63.375778
 20
792.367737
  0
VERTEX
  8
0
 10
69.791252
 20
792.170471
  0
VERTEX
  8
0
 10
84.283043
 20
791.626953
  0
VERTEX
  8
0
 10
89.243752
 20
791.465088
  0
VERTEX
  8
0
 10
91.635704
 20
791.406311
  0
VERTEX
  8
0
 10
94.286324
 20
791.363403
  0
VERTEX
  8
0
 10
98.947342
 20
791.352539
  0
SEQEND
  8
0
  0
POLYLINE
  8
0
  0
VERTEX
  8
0
 10
53.587811
 20
863.176208
  0
VERTEX
  8
0
 10
53.587811
 20
847.458252
  0
VERTEX
  8
0
 10
53.587811
 20
827.810913
  0
VERTEX
  8
0
 10
53.587811
 20
812.092957
  0
VERTEX
  8
0
 10
53.587811
 20
792.445435
  0
SEQEND
  8
0
  0
POLYLINE
  8
0
  0
VERTEX
  8
0
 10
72.590546
 20
821.701721
  0
VERTEX
  8
0
 10
72.203751
 20
811.482666
  0
VERTEX
  8
0
 10
61.681171
 20
811.348511
  0
SEQEND
  8
0
  0
POLYLINE
  8
0
  0
VERTEX
  8
0
 10
33.349609
 20
821.748718
  0
VERTEX
  8
0
 10
33.744999
 20
811.290771
  0
VERTEX
  8
0
 10
44.220154
 20
811.163879
  0
SEQEND
  8
0
  0
POLYLINE
  8
0
  0
VERTEX
  8
0
 10
100.738045
 20
820.935425
  0
VERTEX
  8
0
 10
101.072182
 20
826.091858
  0
VERTEX
  8
0
 10
101.887108
 20
838.030029
  0
VERTEX
  8
0
 10
102.093277
 20
841.803345
  0
VERTEX
  8
0
 10
102.189140
 20
844.659668
  0
VERTEX
  8
0
 10
102.203354
 20
846.130920
  0
VERTEX
  8
0
 10
102.181641
 20
847.813110
  0
VERTEX
  8
0
 10
102.125854
 20
849.311096
  0
VERTEX
  8
0
 10
102.029137
 20
850.849182
  0
VERTEX
  8
0
 10
101.910934
 20
852.105591
  0
VERTEX
  8
0
 10
101.786324
 20
852.993591
  0
VERTEX
  8
0
 10
101.625465
 20
853.797791
  0
VERTEX
  8
0
 10
101.416641
 20
854.573242
  0
VERTEX
  8
0
 10
101.265312
 20
855.034424
  0
VERTEX
  8
0
 10
101.093437
 20
855.490784
  0
VERTEX
  8
0
 10
100.759293
 20
856.235840
  0
VERTEX
  8
0
 10
100.529060
 20
856.670654
  0
VERTEX
  8
0
 10
100.275467
 20
857.094177
  0
VERTEX
  8
0
 10
99.996407
 20
857.504761
  0
VERTEX
  8
0
 10
99.794922
 20
857.770264
  0
VERTEX
  8
0
 10
99.467262
 20
858.155273
  0
VERTEX
  8
0
 10
99.230698
 20
858.402161
  0
VERTEX
  8
0
 10
98.710236
 20
858.870361
  0
VERTEX
  8
0
 10
98.121719
 20
859.300903
  0
VERTEX
  8
0
 10
97.803360
 20
859.501099
  0
VERTEX
  8
0
 10
97.302734
 20
859.781250
  0
VERTEX
  8
0
 10
96.428749
 20
860.192139
  0
VERTEX
  8
0
 10
95.540932
 20
860.528503
  0
VERTEX
  8
0
 10
94.666954
 20
860.786560
  0
VERTEX
  8
0
 10
93.931557
 20
860.940613
  0
VERTEX
  8
0
 10
93.319923
 20
861.029419
  0
VERTEX
  8
0
 10
92.869530
 20
861.077148
  0
VERTEX
  8
0
 10
91.832733
 20
861.148560
  0
VERTEX
  8
0
 10
90.573906
 20
861.192078
  0
VERTEX
  8
0
 10
88.732887
 20
861.211487
  0
VERTEX
  8
0
 10
85.888123
 20
861.178101
  0
VERTEX
  8
0
 10
83.036949
 20
861.081604
  0
VERTEX
  8
0
 10
80.640465
 20
860.959045
  0
VERTEX
  8
0
 10
73.622810
 20
860.549133
  0
VERTEX
  8
0
 10
69.496635
 20
860.368347
  0
VERTEX
  8
0
 10
67.258751
 20
860.303040
  0
VERTEX
  8
0
 10
64.888985
 20
860.257141
  0
VERTEX
  8
0
 10
58.954685
 20
860.207642
  0
VERTEX
  8
0
 10
53.633827
 20
860.200928
  0
VERTEX
  8
0
 10
48.577969
 20
860.218445
  0
VERTEX
  8
0
 10
44.072498
 20
860.260010
  0
VERTEX
  8
0
 10
40.309219
 20
860.317017
  0
VERTEX
  8
0
 10
35.527813
 20
860.418091
  0
VERTEX
  8
0
 10
30.106874
 20
860.564026
  0
VERTEX
  8
0
 10
25.587500
 20
860.711487
  0
VERTEX
  8
0
 10
19.861874
 20
860.930420
  0
VERTEX
  8
0
 10
18.733515
 20
860.952942
  0
VERTEX
  8
0
 10
17.658983
 20
860.947937
  0
VERTEX
  8
0
 10
16.333359
 20
860.902588
  0
VERTEX
  8
0
 10
15.038906
 20
860.816406
  0
VERTEX
  8
0
 10
13.788359
 20
860.692017
  0
VERTEX
  8
0
 10
12.596719
 20
860.531128
  0
VERTEX
  8
0
 10
11.486172
 20
860.330627
  0
VERTEX
  8
0
 10
10.672421
 20
860.138550
  0
VERTEX
  8
0
 10
9.938359
 20
859.916260
  0
VERTEX
  8
0
 10
9.604531
 20
859.793030
  0
VERTEX
  8
0
 10
9.142656
 20
859.593018
  0
VERTEX
  8
0
 10
8.588515
 20
859.297974
  0
VERTEX
  8
0
 10
8.090390
 20
858.970520
  0
VERTEX
  8
0
 10
7.632031
 20
858.610901
  0
VERTEX
  8
0
 10
7.198828
 20
858.219421
  0
VERTEX
  8
0
 10
6.787500
 20
857.799194
  0
VERTEX
  8
0
 10
6.308594
 20
857.240479
  0
VERTEX
  8
0
 10
5.874140
 20
856.652649
  0
VERTEX
  8
0
 10
5.562109
 20
856.164978
  0
VERTEX
  8
0
 10
5.282031
 20
855.643677
  0
VERTEX
  8
0
 10
5.092266
 20
855.213135
  0
VERTEX
  8
0
 10
4.919375
 20
854.735107
  0
VERTEX
  8
0
 10
4.762813
 20
854.197510
  0
VERTEX
  8
0
 10
4.622188
 20
853.587769
  0
VERTEX
  8
0
 10
4.496875
 20
852.895996
  0
VERTEX
  8
0
 10
4.386484
 20
852.114746
  0
VERTEX
  8
0
 10
4.290469
 20
851.237000
  0
VERTEX
  8
0
 10
4.183750
 20
849.904602
  0
VERTEX
  8
0
 10
4.119062
 20
848.774597
  0
VERTEX
  8
0
 10
4.029219
 20
846.162720
  0
VERTEX
  8
0
 10
4.008281
 20
844.697266
  0
VERTEX
  8
0
 10
4.006875
 20
843.141052
  0
VERTEX
  8
0
 10
4.027656
 20
841.505981
  0
VERTEX
  8
0
 10
4.073359
 20
839.803894
  0
VERTEX
  8
0
 10
4.175937
 20
837.453003
  0
VERTEX
  8
0
 10
4.316875
 20
835.061218
  0
VERTEX
  8
0
 10
4.943438
 20
826.387573
  0
VERTEX
  8
0
 10
5.302031
 20
820.947266
  0
SEQEND
  8
0
  0
POLYLINE
  8
0
  0
VERTEX
  8
0
 10
53.394218
 20
862.202820
  0
VERTEX
  8
0
 10
52.915936
 20
862.107666
  0
VERTEX
  8
0
 10
52.510391
 20
861.836670
  0
VERTEX
  8
0
 10
52.239372
 20
861.431213
  0
VERTEX
  8
0
 10
52.144218
 20
860.952820
  0
VERTEX
  8
0
 10
52.239372
 20
860.474487
  0
VERTEX
  8
0
 10
52.510391
 20
860.068970
  0
VERTEX
  8
0
 10
52.915936
 20
859.797974
  0
VERTEX
  8
0
 10
53.394218
 20
859.702820
  0
VERTEX
  8
0
 10
53.872578
 20
859.797974
  0
VERTEX
  8
0
 10
54.278122
 20
860.068970
  0
VERTEX
  8
0
 10
54.549141
 20
860.474487
  0
VERTEX
  8
0
 10
54.644218
 20
860.952820
  0
VERTEX
  8
0
 10
54.549141
 20
861.431213
  0
VERTEX
  8
0
 10
54.278122
 20
861.836670
  0
VERTEX
  8
0
 10
53.872578
 20
862.107666
  0
VERTEX
  8
0
 10
53.394218
 20
862.202820
  0
SEQEND
  8
0
  0
POLYLINE
  8
0
  0
VERTEX
  8
0
 10
53.572498
 20
796.250305
  0
VERTEX
  8
0
 10
53.094139
 20
796.155151
  0
VERTEX
  8
0
 10
52.688591
 20
795.884216
  0
VERTEX
  8
0
 10
52.417656
 20
795.478638
  0
VERTEX
  8
0
 10
52.322498
 20
795.000305
  0
VERTEX
  8
0
 10
52.417656
 20
794.521912
  0
VERTEX
  8
0
 10
52.688591
 20
794.116394
  0
VERTEX
  8
0
 10
53.094139
 20
793.845459
  0
VERTEX
  8
0
 10
53.572498
 20
793.750305
  0
VERTEX
  8
0
 10
54.050858
 20
793.845459
  0
VERTEX
  8
0
 10
54.456406
 20
794.116394
  0
VERTEX
  8
0
 10
54.727341
 20
794.521912
  0
VERTEX
  8
0
 10
54.822498
 20
795.000305
  0
VERTEX
  8
0
 10
54.727341
 20
795.478638
  0
VERTEX
  8
0
 10
54.456406
 20
795.884216
  0
VERTEX
  8
0
 10
54.050858
 20
796.155151
  0
VERTEX
  8
0
 10
53.572498
 20
796.250305
  0
SEQEND
  8
0
  0
POLYLINE
  8
0
  0
VERTEX
  8
0
 10
108.548279
 20
181.405930
  0
VERTEX
  8
0
 10
108.487183
 20
197.000229
  0
VERTEX
  8
0
 10
108.410782
 20
216.493118
  0
VERTEX
  8
0
 10
108.349609
 20
232.087494
  0
VERTEX
  8
0
 10
108.273125
 20
251.580460
  0
VERTEX
  8
0
 10
126.455780
 20
252.241791
  0
VERTEX
  8
0
 10
126.468277
 20
236.500458
  0
VERTEX
  8
0
 10
126.483978
 20
216.823822
  0
VERTEX
  8
0
 10
126.496559
 20
201.082489
  0
VERTEX
  8
0
 10
126.512184
 20
181.405930
  0
VERTEX
  8
0
 10
108.548279
 20
181.405930
  0
SEQEND
  8
0
  0
POLYLINE
  8
0
  0
VERTEX
  8
0
 10
121.090469
 20
195.913116
  0
VERTEX
  8
0
 10
114.673042
 20
195.785858
  0
SEQEND
  8
0
  0
POLYLINE
  8
0
  0
VERTEX
  8
0
 10
121.266563
 20
223.576172
  0
VERTEX
  8
0
 10
113.571404
 20
223.449768
  0
SEQEND
  8
0
  0
POLYLINE
  8
0
  0
VERTEX
  8
0
 10
1.000000
 20
888.335388
  0
VERTEX
  8
0
 10
3.874531
 20
888.104736
  0
VERTEX
  8
0
 10
5.933359
 20
887.885986
  0
VERTEX
  8
0
 10
6.605156
 20
887.790894
  0
VERTEX
  8
0
 10
7.423281
 20
887.649719
  0
VERTEX
  8
0
 10
7.993437
 20
887.531677
  0
VERTEX
  8
0
 10
8.717109
 20
887.355713
  0
VERTEX
  8
0
 10
9.423750
 20
887.155945
  0
VERTEX
  8
0
 10
10.136953
 20
886.927307
  0
VERTEX
  8
0
 10
10.867188
 20
886.655945
  0
VERTEX
  8
0
 10
11.430469
 20
886.414307
  0
VERTEX
  8
0
 10
12.010390
 20
886.132385
  0
VERTEX
  8
0
 10
12.610156
 20
885.803345
  0
VERTEX
  8
0
 10
13.232344
 20
885.420837
  0
VERTEX
  8
0
 10
13.874844
 20
884.985840
  0
VERTEX
  8
0
 10
14.532421
 20
884.504211
  0
VERTEX
  8
0
 10
15.423359
 20
883.799255
  0
VERTEX
  8
0
 10
16.095390
 20
883.231201
  0
VERTEX
  8
0
 10
16.986328
 20
882.432068
  0
VERTEX
  8
0
 10
17.863594
 20
881.592712
  0
VERTEX
  8
0
 10
18.511093
 20
880.935425
  0
VERTEX
  8
0
 10
19.148983
 20
880.252808
  0
VERTEX
  8
0
 10
19.776640
 20
879.543518
  0
VERTEX
  8
0
 10
20.798124
 20
878.298157
  0
VERTEX
  8
0
 10
21.788359
 20
876.981018
  0
VERTEX
  8
0
 10
22.559921
 20
875.898499
  0
VERTEX
  8
0
 10
24.781796
 20
872.704956
  0
VERTEX
  8
0
 10
26.141249
 20
870.828857
  0
VERTEX
  8
0
 10
27.160156
 20
869.517151
  0
VERTEX
  8
0
 10
27.880703
 20
868.692810
  0
VERTEX
  8
0
 10
28.207188
 20
868.365234
  0
VERTEX
  8
0
 10
28.628515
 20
867.993591
  0
VERTEX
  8
0
 10
29.054296
 20
867.674377
  0
VERTEX
  8
0
 10
29.503906
 20
867.388245
  0
VERTEX
  8
0
 10
29.985312
 20
867.133423
  0
VERTEX
  8
0
 10
30.370390
 20
866.964539
  0
VERTEX
  8
0
 10
30.919844
 20
866.770935
  0
VERTEX
  8
0
 10
31.361874
 20
866.651001
  0
VERTEX
  8
0
 10
32.161015
 20
866.502502
  0
VERTEX
  8
0
 10
33.043045
 20
866.422607
  0
VERTEX
  8
0
 10
34.013123
 20
866.416382
  0
VERTEX
  8
0
 10
34.856171
 20
866.467896
  0
VERTEX
  8
0
 10
35.784531
 20
866.572021
  0
VERTEX
  8
0
 10
36.867889
 20
866.730591
  0
VERTEX
  8
0
 10
42.897186
 20
867.728394
  0
VERTEX
  8
0
 10
46.553593
 20
868.293640
  0
VERTEX
  8
0
 10
49.735466
 20
868.736877
  0
VERTEX
  8
0
 10
52.203594
 20
869.033813
  0
VERTEX
  8
0
 10
55.106560
 20
869.312866
  0
VERTEX
  8
0
 10
57.832031
 20
869.496094
  0
VERTEX
  8
0
 10
60.411091
 20
869.591064
  0
VERTEX
  8
0
 10
62.873436
 20
869.606384
  0
VERTEX
  8
0
 10
64.304214
 20
869.581726
  0
VERTEX
  8
0
 10
65.705002
 20
869.534912
  0
VERTEX
  8
0
 10
68.432655
 20
869.385437
  0
VERTEX
  8
0
 10
71.527107
 20
869.138000
  0
VERTEX
  8
0
 10
74.148827
 20
868.863953
  0
VERTEX
  8
0
 10
76.344139
 20
868.584717
  0
VERTEX
  8
0
 10
79.018593
 20
868.183472
  0
VERTEX
  8
0
 10
81.661873
 20
867.737610
  0
VERTEX
  8
0
 10
86.934532
 20
866.795166
  0
VERTEX
  8
0
 10
88.890076
 20
866.473083
  0
VERTEX
  8
0
 10
90.422188
 20
866.276672
  0
VERTEX
  8
0
 10
90.966560
 20
866.234619
  0
VERTEX
  8
0
 10
91.461639
 20
866.218872
  0
VERTEX
  8
0
 10
92.069839
 20
866.240479
  0
VERTEX
  8
0
 10
92.793594
 20
866.338440
  0
VERTEX
  8
0
 10
93.530624
 20
866.518555
  0
VERTEX
  8
0
 10
94.283432
 20
866.783875
  0
VERTEX
  8
0
 10
94.882500
 20
867.059448
  0
VERTEX
  8
0
 10
95.466248
 20
867.392639
  0
VERTEX
  8
0
 10
96.026405
 20
867.787170
  0
VERTEX
  8
0
 10
96.580154
 20
868.266235
  0
VERTEX
  8
0
 10
96.864059
 20
868.547974
  0
VERTEX
  8
0
 10
97.309448
 20
869.034851
  0
VERTEX
  8
0
 10
97.789528
 20
869.611572
  0
VERTEX
  8
0
 10
98.317345
 20
870.291992
  0
VERTEX
  8
0
 10
99.315933
 20
871.661255
  0
VERTEX
  8
0
 10
101.975311
 20
875.445007
  0
VERTEX
  8
0
 10
103.025467
 20
876.894226
  0
VERTEX
  8
0
 10
104.205933
 20
878.437012
  0
VERTEX
  8
0
 10
105.347343
 20
879.818420
  0
VERTEX
  8
0
 10
105.919136
 20
880.466125
  0
VERTEX
  8
0
 10
106.690704
 20
881.294495
  0
VERTEX
  8
0
 10
107.273979
 20
881.887634
  0
VERTEX
  8
0
 10
108.053902
 20
882.637817
  0
VERTEX
  8
0
 10
108.831871
 20
883.337952
  0
VERTEX
  8
0
 10
109.603279
 20
883.984375
  0
VERTEX
  8
0
 10
110.367966
 20
884.574768
  0
VERTEX
  8
0
 10
110.939766
 20
884.980469
  0
VERTEX
  8
0
 10
111.512184
 20
885.354126
  0
VERTEX
  8
0
 10
112.087189
 20
885.695618
  0
VERTEX
  8
0
 10
112.666718
 20
886.004517
  0
VERTEX
  8
0
 10
113.253433
 20
886.281494
  0
VERTEX
  8
0
 10
113.851952
 20
886.529663
  0
VERTEX
  8
0
 10
114.467651
 20
886.752869
  0
VERTEX
  8
0
 10
115.106094
 20
886.955078
  0
VERTEX
  8
0
 10
116.001556
 20
887.198669
  0
VERTEX
  8
0
 10
116.958359
 20
887.420654
  0
VERTEX
  8
0
 10
118.216713
 20
887.669800
  0
VERTEX
  8
0
 10
119.225777
 20
887.839966
  0
VERTEX
  8
0
 10
120.424217
 20
888.007507
  0
VERTEX
  8
0
 10
121.285233
 20
888.098633
  0
VERTEX
  8
0
 10
122.048668
 20
888.153442
  0
VERTEX
  8
0
 10
122.901405
 20
888.184021
  0
VERTEX
  8
0
 10
123.961563
 20
888.188477
  0
VERTEX
  8
0
 10
122.842339
 20
891.755066
  0
VERTEX
  8
0
 10
122.303276
 20
893.364197
  0
VERTEX
  8
0
 10
121.881172
 20
894.552246
  0
VERTEX
  8
0
 10
121.288277
 20
896.103088
  0
VERTEX
  8
0
 10
120.822968
 20
897.227844
  0
VERTEX
  8
0
 10
120.347183
 20
898.301086
  0
VERTEX
  8
0
 10
119.867653
 20
899.305542
  0
VERTEX
  8
0
 10
119.390938
 20
900.224121
  0
VERTEX
  8
0
 10
118.923904
 20
901.039734
  0
VERTEX
  8
0
 10
118.472107
 20
901.736877
  0
VERTEX
  8
0
 10
118.029610
 20
902.318665
  0
VERTEX
  8
0
 10
117.733124
 20
902.650146
  0
VERTEX
  8
0
 10
117.275932
 20
903.074280
  0
VERTEX
  8
0
 10
116.791794
 20
903.424805
  0
VERTEX
  8
0
 10
116.266953
 20
903.717224
  0
VERTEX
  8
0
 10
115.687813
 20
903.967163
  0
VERTEX
  8
0
 10
114.824371
 20
904.252319
  0
VERTEX
  8
0
 10
114.118439
 20
904.434998
  0
VERTEX
  8
0
 10
113.116089
 20
904.643433
  0
VERTEX
  8
0
 10
112.062500
 20
904.819031
  0
VERTEX
  8
0
 10
110.700623
 20
905.003723
  0
VERTEX
  8
0
 10
109.556557
 20
905.123718
  0
VERTEX
  8
0
 10
108.320000
 20
905.212952
  0
VERTEX
  8
0
 10
106.949997
 20
905.265930
  0
VERTEX
  8
0
 10
105.405464
 20
905.277039
  0
VERTEX
  8
0
 10
103.674683
 20
905.247742
  0
VERTEX
  8
0
 10
97.344528
 20
905.069031
  0
VERTEX
  8
0
 10
94.890236
 20
905.046692
  0
VERTEX
  8
0
 10
92.583984
 20
905.060425
  0
VERTEX
  8
0
 10
89.804916
 20
905.118286
  0
VERTEX
  8
0
 10
87.522499
 20
905.212463
  0
VERTEX
  8
0
 10
86.696251
 20
905.277344
  0
VERTEX
  8
0
 10
86.179688
 20
905.338440
  0
VERTEX
  8
0
 10
85.731323
 20
905.412781
  0
VERTEX
  8
0
 10
85.333824
 20
905.503113
  0
VERTEX
  8
0
 10
84.973595
 20
905.615479
  0
VERTEX
  8
0
 10
84.748749
 20
905.706482
  0
VERTEX
  8
0
 10
84.426323
 20
905.873413
  0
VERTEX
  8
0
 10
84.216560
 20
906.008545
  0
VERTEX
  8
0
 10
84.007339
 20
906.165466
  0
VERTEX
  8
0
 10
83.687187
 20
906.447021
  0
VERTEX
  8
0
 10
83.116089
 20
907.054749
  0
VERTEX
  8
0
 10
82.503120
 20
907.827820
  0
VERTEX
  8
0
 10
81.867966
 20
908.745605
  0
VERTEX
  8
0
 10
81.357033
 20
909.570435
  0
VERTEX
  8
0
 10
80.067970
 20
911.817932
  0
VERTEX
  8
0
 10
79.651642
 20
912.467529
  0
VERTEX
  8
0
 10
79.359840
 20
912.876099
  0
VERTEX
  8
0
 10
78.895546
 20
913.437622
  0
VERTEX
  8
0
 10
78.565392
 20
913.770630
  0
VERTEX
  8
0
 10
78.037888
 20
914.209045
  0
VERTEX
  8
0
 10
77.471329
 20
914.580811
  0
VERTEX
  8
0
 10
77.071716
 20
914.795471
  0
VERTEX
  8
0
 10
76.654526
 20
914.985901
  0
VERTEX
  8
0
 10
76.219528
 20
915.154602
  0
VERTEX
  8
0
 10
75.766716
 20
915.303589
  0
VERTEX
  8
0
 10
74.806015
 20
915.551392
  0
VERTEX
  8
0
 10
73.748047
 20
915.741150
  0
VERTEX
  8
0
 10
72.545624
 20
915.879028
  0
VERTEX
  8
0
 10
71.150780
 20
915.971069
  0
VERTEX
  8
0
 10
69.515465
 20
916.023193
  0
VERTEX
  8
0
 10
67.613594
 20
916.041626
  0
VERTEX
  8
0
 10
64.401718
 20
916.021790
  0
VERTEX
  8
0
 10
60.445313
 20
915.956726
  0
VERTEX
  8
0
 10
55.681404
 20
915.854370
  0
VERTEX
  8
0
 10
52.653984
 20
915.755127
  0
VERTEX
  8
0
 10
51.044685
 20
915.664612
  0
VERTEX
  8
0
 10
50.107735
 20
915.574280
  0
VERTEX
  8
0
 10
49.732109
 20
915.520996
  0
VERTEX
  8
0
 10
49.257813
 20
915.428589
  0
VERTEX
  8
0
 10
48.986954
 20
915.357544
  0
VERTEX
  8
0
 10
48.624607
 20
915.234680
  0
VERTEX
  8
0
 10
48.286247
 20
915.089844
  0
VERTEX
  8
0
 10
47.951405
 20
914.919617
  0
VERTEX
  8
0
 10
47.617344
 20
914.719116
  0
VERTEX
  8
0
 10
47.283203
 20
914.483704
  0
VERTEX
  8
0
 10
46.947891
 20
914.208557
  0
VERTEX
  8
0
 10
46.610390
 20
913.888977
  0
VERTEX
  8
0
 10
46.383747
 20
913.648804
  0
VERTEX
  8
0
 10
46.041092
 20
913.246704
  0
VERTEX
  8
0
 10
45.469765
 20
912.483032
  0
VERTEX
  8
0
 10
44.800858
 20
911.461365
  0
VERTEX
  8
0
 10
44.273750
 20
910.568726
  0
VERTEX
  8
0
 10
43.386875
 20
908.983276
  0
VERTEX
  8
0
 10
42.884140
 20
908.163086
  0
VERTEX
  8
0
 10
42.564373
 20
907.706360
  0
VERTEX
  8
0
 10
42.340076
 20
907.419983
  0
VERTEX
  8
0
 10
41.859844
 20
906.893127
  0
VERTEX
  8
0
 10
41.467968
 20
906.539368
  0
VERTEX
  8
0
 10
41.189766
 20
906.323730
  0
VERTEX
  8
0
 10
40.744453
 20
906.031311
  0
VERTEX
  8
0
 10
40.427498
 20
905.857483
  0
VERTEX
  8
0
 10
40.093281
 20
905.700867
  0
VERTEX
  8
0
 10
39.559998
 20
905.498169
  0
VERTEX
  8
0
 10
38.998360
 20
905.332092
  0
VERTEX
  8
0
 10
38.420860
 20
905.199646
  0
VERTEX
  8
0
 10
37.840233
 20
905.098206
  0
VERTEX
  8
0
 10
37.083126
 20
905.006165
  0
VERTEX
  8
0
 10
36.370312
 20
904.957336
  0
VERTEX
  8
0
 10
35.670624
 20
904.944214
  0
VERTEX
  8
0
 10
29.418749
 20
905.129272
  0
VERTEX
  8
0
 10
22.977499
 20
905.263000
  0
VERTEX
  8
0
 10
18.908203
 20
905.304443
  0
VERTEX
  8
0
 10
17.300547
 20
905.296204
  0
VERTEX
  8
0
 10
15.840468
 20
905.266052
  0
VERTEX
  8
0
 10
14.529843
 20
905.209045
  0
VERTEX
  8
0
 10
13.637343
 20
905.145447
  0
VERTEX
  8
0
 10
12.816015
 20
905.061523
  0
VERTEX
  8
0
 10
12.060234
 20
904.954956
  0
VERTEX
  8
0
 10
11.364219
 20
904.823425
  0
VERTEX
  8
0
 10
10.722813
 20
904.665466
  0
VERTEX
  8
0
 10
10.131875
 20
904.482666
  0
VERTEX
  8
0
 10
9.588047
 20
904.277466
  0
VERTEX
  8
0
 10
8.929844
 20
903.973572
  0
VERTEX
  8
0
 10
8.627110
 20
903.810120
  0
VERTEX
  8
0
 10
8.202969
 20
903.552795
  0
VERTEX
  8
0
 10
7.685625
 20
903.183716
  0
VERTEX
  8
0
 10
7.205312
 20
902.757324
  0
VERTEX
  8
0
 10
6.740703
 20
902.238403
  0
VERTEX
  8
0
 10
6.389765
 20
901.767334
  0
VERTEX
  8
0
 10
5.901562
 20
901.002014
  0
VERTEX
  8
0
 10
5.513437
 20
900.313354
  0
VERTEX
  8
0
 10
4.971406
 20
899.247375
  0
VERTEX
  8
0
 10
4.409219
 20
898.022583
  0
VERTEX
  8
0
 10
3.835703
 20
896.649658
  0
VERTEX
  8
0
 10
3.403281
 20
895.529358
  0
VERTEX
  8
0
 10
2.971484
 20
894.339355
  0
VERTEX
  8
0
 10
2.396875
 20
892.664978
  0
VERTEX
  8
0
 10
1.000000
 20
888.335388
  0
SEQEND
  8
0
  0
POLYLINE
  8
0
  0
VERTEX
  8
0
 10
62.459999
 20
869.516296
  0
VERTEX
  8
0
 10
62.459999
 20
879.827637
  0
VERTEX
  8
0
 10
62.459999
 20
892.716797
  0
VERTEX
  8
0
 10
62.459999
 20
903.028076
  0
VERTEX
  8
0
 10
62.459999
 20
915.917297
  0
SEQEND
  8
0
  0
POLYLINE
  8
0
  0
VERTEX
  8
0
 10
59.447887
 20
897.964050
  0
VERTEX
  8
0
 10
65.166954
 20
897.803650
  0
SEQEND
  8
0
  0
POLYLINE
  8
0
  0
VERTEX
  8
0
 10
58.584373
 20
878.301697
  0
VERTEX
  8
0
 10
66.028435
 20
878.273315
  0
SEQEND
  8
0
  0
POLYLINE
  8
0
  0
VERTEX
  8
0
 10
1.337812
 20
892.320923
  0
VERTEX
  8
0
 10
4.360156
 20
892.082397
  0
VERTEX
  8
0
 10
5.498750
 20
891.971802
  0
VERTEX
  8
0
 10
6.566797
 20
891.845947
  0
VERTEX
  8
0
 10
7.551953
 20
891.700439
  0
VERTEX
  8
0
 10
8.246562
 20
891.576050
  0
VERTEX
  8
0
 10
9.134063
 20
891.386414
  0
VERTEX
  8
0
 10
10.000625
 20
891.165833
  0
VERTEX
  8
0
 10
10.871406
 20
890.910217
  0
VERTEX
  8
0
 10
11.764218
 20
890.611633
  0
VERTEX
  8
0
 10
12.450624
 20
890.350281
  0
VERTEX
  8
0
 10
13.152266
 20
890.049377
  0
VERTEX
  8
0
 10
13.869922
 20
889.702087
  0
VERTEX
  8
0
 10
14.604453
 20
889.301514
  0
VERTEX
  8
0
 10
15.356406
 20
888.841675
  0
VERTEX
  8
0
 10
16.122421
 20
888.324524
  0
VERTEX
  8
0
 10
16.897108
 20
887.757324
  0
VERTEX
  8
0
 10
17.674765
 20
887.147217
  0
VERTEX
  8
0
 10
18.449921
 20
886.501831
  0
VERTEX
  8
0
 10
19.216953
 20
885.828247
  0
VERTEX
  8
0
 10
19.970547
 20
885.133484
  0
VERTEX
  8
0
 10
20.708202
 20
884.419678
  0
VERTEX
  8
0
 10
21.429531
 20
883.685791
  0
VERTEX
  8
0
 10
22.133905
 20
882.930786
  0
VERTEX
  8
0
 10
23.269218
 20
881.622925
  0
VERTEX
  8
0
 10
23.926249
 20
880.806885
  0
VERTEX
  8
0
 10
24.564999
 20
879.970154
  0
VERTEX
  8
0
 10
25.589375
 20
878.555847
  0
VERTEX
  8
0
 10
27.491562
 20
875.819275
  0
VERTEX
  8
0
 10
28.528124
 20
874.358704
  0
VERTEX
  8
0
 10
29.435858
 20
873.125427
  0
VERTEX
  8
0
 10
30.162498
 20
872.192383
  0
VERTEX
  8
0
 10
30.759453
 20
871.511230
  0
VERTEX
  8
0
 10
31.012577
 20
871.268250
  0
VERTEX
  8
0
 10
31.227421
 20
871.092957
  0
VERTEX
  8
0
 10
31.472967
 20
870.923645
  0
VERTEX
  8
0
 10
31.723515
 20
870.784851
  0
VERTEX
  8
0
 10
32.007343
 20
870.670471
  0
VERTEX
  8
0
 10
32.277107
 20
870.592712
  0
VERTEX
  8
0
 10
32.884766
 20
870.483887
  0
VERTEX
  8
0
 10
33.581326
 20
870.440674
  0
VERTEX
  8
0
 10
34.312889
 20
870.461853
  0
VERTEX
  8
0
 10
35.213985
 20
870.551880
  0
VERTEX
  8
0
 10
36.672501
 20
870.766052
  0
VERTEX
  8
0
 10
42.881092
 20
871.780396
  0
VERTEX
  8
0
 10
46.649841
 20
872.352417
  0
VERTEX
  8
0
 10
49.902657
 20
872.792847
  0
VERTEX
  8
0
 10
53.020309
 20
873.143127
  0
VERTEX
  8
0
 10
55.379375
 20
873.349487
  0
VERTEX
  8
0
 10
57.632420
 20
873.494202
  0
VERTEX
  8
0
 10
59.792812
 20
873.580811
  0
VERTEX
  8
0
 10
62.382813
 20
873.613098
  0
VERTEX
  8
0
 10
63.886250
 20
873.595947
  0
VERTEX
  8
0
 10
65.356560
 20
873.554565
  0
VERTEX
  8
0
 10
68.213745
 20
873.411072
  0
VERTEX
  8
0
 10
71.442184
 20
873.164368
  0
VERTEX
  8
0
 10
73.257111
 20
872.988831
  0
VERTEX
  8
0
 10
74.613205
 20
872.838867
  0
VERTEX
  8
0
 10
76.878593
 20
872.550842
  0
VERTEX
  8
0
 10
79.625000
 20
872.139221
  0
VERTEX
  8
0
 10
81.879059
 20
871.762146
  0
VERTEX
  8
0
 10
86.921638
 20
870.868347
  0
VERTEX
  8
0
 10
89.112495
 20
870.501831
  0
VERTEX
  8
0
 10
90.449844
 20
870.316406
  0
VERTEX
  8
0
 10
90.989922
 20
870.267456
  0
VERTEX
  8
0
 10
91.406403
 20
870.254639
  0
VERTEX
  8
0
 10
91.811249
 20
870.280579
  0
VERTEX
  8
0
 10
92.156715
 20
870.342896
  0
VERTEX
  8
0
 10
92.497185
 20
870.436707
  0
VERTEX
  8
0
 10
92.843277
 20
870.571960
  0
VERTEX
  8
0
 10
93.199760
 20
870.760071
  0
VERTEX
  8
0
 10
93.496094
 20
870.957397
  0
VERTEX
  8
0
 10
93.818436
 20
871.222717
  0
VERTEX
  8
0
 10
94.094841
 20
871.493347
  0
VERTEX
  8
0
 10
94.658119
 20
872.137878
  0
VERTEX
  8
0
 10
95.399918
 20
873.101440
  0
VERTEX
  8
0
 10
96.338829
 20
874.406250
  0
VERTEX
  8
0
 10
98.748276
 20
877.823914
  0
VERTEX
  8
0
 10
100.041718
 20
879.593445
  0
VERTEX
  8
0
 10
101.284843
 20
881.197632
  0
VERTEX
  8
0
 10
102.522339
 20
882.677307
  0
VERTEX
  8
0
 10
103.365234
 20
883.613708
  0
VERTEX
  8
0
 10
104.009842
 20
884.292175
  0
VERTEX
  8
0
 10
104.883751
 20
885.162170
  0
VERTEX
  8
0
 10
105.548355
 20
885.786865
  0
VERTEX
  8
0
 10
106.444687
 20
886.579834
  0
VERTEX
  8
0
 10
107.123123
 20
887.142639
  0
VERTEX
  8
0
 10
108.036011
 20
887.847168
  0
VERTEX
  8
0
 10
108.727814
 20
888.338257
  0
VERTEX
  8
0
 10
109.426559
 20
888.795166
  0
VERTEX
  8
0
 10
110.133125
 20
889.215576
  0
VERTEX
  8
0
 10
110.848045
 20
889.597656
  0
VERTEX
  8
0
 10
111.572807
 20
889.940186
  0
VERTEX
  8
0
 10
112.310310
 20
890.246521
  0
VERTEX
  8
0
 10
113.064529
 20
890.520996
  0
VERTEX
  8
0
 10
113.838745
 20
890.767822
  0
VERTEX
  8
0
 10
114.908905
 20
891.061523
  0
VERTEX
  8
0
 10
116.028900
 20
891.323914
  0
VERTEX
  8
0
 10
117.182655
 20
891.557800
  0
VERTEX
  8
0
 10
118.329994
 20
891.759033
  0
VERTEX
  8
0
 10
119.692345
 20
891.957886
  0
VERTEX
  8
0
 10
120.674843
 20
892.069336
  0
VERTEX
  8
0
 10
121.739838
 20
892.150085
  0
VERTEX
  8
0
 10
122.669525
 20
892.182800
  0
VERTEX
  8
0
 10
123.851089
 20
892.186157
  0
SEQEND
  8
0
  0
POLYLINE
  8
0
  0
VERTEX
  8
0
 10
72.187500
 20
912.935425
  0
VERTEX
  8
0
 10
72.092339
 20
913.413818
  0
VERTEX
  8
0
 10
71.821404
 20
913.819336
  0
VERTEX
  8
0
 10
71.415855
 20
914.090271
  0
VERTEX
  8
0
 10
70.937500
 20
914.185425
  0
VERTEX
  8
0
 10
70.459137
 20
914.090271
  0
VERTEX
  8
0
 10
70.053589
 20
913.819336
  0
VERTEX
  8
0
 10
69.782654
 20
913.413818
  0
VERTEX
  8
0
 10
69.687500
 20
912.935425
  0
VERTEX
  8
0
 10
69.782654
 20
912.457092
  0
VERTEX
  8
0
 10
70.053589
 20
912.051514
  0
VERTEX
  8
0
 10
70.459137
 20
911.780579
  0
VERTEX
  8
0
 10
70.937500
 20
911.685425
  0
VERTEX
  8
0
 10
71.415855
 20
911.780579
  0
VERTEX
  8
0
 10
71.821404
 20
912.051514
  0
VERTEX
  8
0
 10
72.092339
 20
912.457092
  0
VERTEX
  8
0
 10
72.187500
 20
912.935425
  0
SEQEND
  8
0
  0
POLYLINE
  8
0
  0
VERTEX
  8
0
 10
55.187187
 20
913.013916
  0
VERTEX
  8
0
 10
55.092030
 20
913.492310
  0
VERTEX
  8
0
 10
54.821091
 20
913.897766
  0
VERTEX
  8
0
 10
54.415546
 20
914.168701
  0
VERTEX
  8
0
 10
53.937187
 20
914.263916
  0
VERTEX
  8
0
 10
53.458828
 20
914.168701
  0
VERTEX
  8
0
 10
53.053280
 20
913.897766
  0
VERTEX
  8
0
 10
52.782341
 20
913.492310
  0
VERTEX
  8
0
 10
52.687187
 20
913.013916
  0
VERTEX
  8
0
 10
52.782341
 20
912.535583
  0
VERTEX
  8
0
 10
53.053280
 20
912.130066
  0
VERTEX
  8
0
 10
53.458828
 20
911.859070
  0
VERTEX
  8
0
 10
53.937187
 20
911.763916
  0
VERTEX
  8
0
 10
54.415546
 20
911.859070
  0
VERTEX
  8
0
 10
54.821091
 20
912.130066
  0
VERTEX
  8
0
 10
55.092030
 20
912.535583
  0
VERTEX
  8
0
 10
55.187187
 20
913.013916
  0
SEQEND
  8
0
  0
POLYLINE
  8
0
  0
VERTEX
  8
0
 10
63.768982
 20
872.431091
  0
VERTEX
  8
0
 10
63.673828
 20
872.909424
  0
VERTEX
  8
0
 10
63.402889
 20
873.315002
  0
VERTEX
  8
0
 10
62.997341
 20
873.585938
  0
VERTEX
  8
0
 10
62.518982
 20
873.681091
  0
VERTEX
  8
0
 10
62.040623
 20
873.585938
  0
VERTEX
  8
0
 10
61.635155
 20
873.315002
  0
VERTEX
  8
0
 10
61.364140
 20
872.909424
  0
VERTEX
  8
0
 10
61.268982
 20
872.431091
  0
VERTEX
  8
0
 10
61.364140
 20
871.952698
  0
VERTEX
  8
0
 10
61.635155
 20
871.547180
  0
VERTEX
  8
0
 10
62.040623
 20
871.276245
  0
VERTEX
  8
0
 10
62.518982
 20
871.181091
  0
VERTEX
  8
0
 10
62.997341
 20
871.276245
  0
VERTEX
  8
0
 10
63.402889
 20
871.547180
  0
VERTEX
  8
0
 10
63.673828
 20
871.952698
  0
VERTEX
  8
0
 10
63.768982
 20
872.431091
  0
SEQEND
  8
0
  0
POLYLINE
  8
0
  0
VERTEX
  8
0
 10
101.779686
 20
181.820313
  0
VERTEX
  8
0
 10
102.778122
 20
195.834061
  0
VERTEX
  8
0
 10
104.026245
 20
213.351242
  0
VERTEX
  8
0
 10
105.024689
 20
227.364914
  0
VERTEX
  8
0
 10
106.272812
 20
244.882111
  0
VERTEX
  8
0
 10
92.161484
 20
257.211792
  0
VERTEX
  8
0
 10
94.020157
 20
272.232330
  0
VERTEX
  8
0
 10
95.327736
 20
283.026093
  0
VERTEX
  8
0
 10
96.734451
 20
294.948364
  0
VERTEX
  8
0
 10
98.433205
 20
309.498596
  0
VERTEX
  8
0
 10
99.575783
 20
319.058899
  0
VERTEX
  8
0
 10
100.195625
 20
324.032715
  0
VERTEX
  8
0
 10
100.920235
 20
329.505554
  0
VERTEX
  8
0
 10
101.538826
 20
333.870148
  0
VERTEX
  8
0
 10
102.528824
 20
340.587341
  0
VERTEX
  8
0
 10
102.935699
 20
343.588806
  0
VERTEX
  8
0
 10
103.214684
 20
345.858521
  0
VERTEX
  8
0
 10
103.559685
 20
348.909302
  0
VERTEX
  8
0
 10
105.158981
 20
364.483032
  0
VERTEX
  8
0
 10
96.412964
 20
369.316956
  0
VERTEX
  8
0
 10
88.863358
 20
373.470062
  0
VERTEX
  8
0
 10
82.880157
 20
376.739594
  0
VERTEX
  8
0
 10
70.543434
 20
383.442566
  0
VERTEX
  8
0
 10
63.846638
 20
387.113678
  0
VERTEX
  8
0
 10
55.723591
 20
391.629303
  0
VERTEX
  8
0
 10
43.541641
 20
398.468506
  0
VERTEX
  8
0
 10
35.009922
 20
382.244751
  0
VERTEX
  8
0
 10
30.151327
 20
372.978821
  0
VERTEX
  8
0
 10
25.279140
 20
363.645233
  0
VERTEX
  8
0
 10
20.790468
 20
355.033112
  0
VERTEX
  8
0
 10
13.682265
 20
341.436096
  0
VERTEX
  8
0
 10
10.463672
 20
343.043427
  0
VERTEX
  8
0
 10
8.857578
 20
340.259766
  0
VERTEX
  8
0
 10
7.536094
 20
337.922028
  0
VERTEX
  8
0
 10
6.471719
 20
335.974609
  0
VERTEX
  8
0
 10
5.456406
 20
334.035767
  0
VERTEX
  8
0
 10
4.510859
 20
332.146393
  0
VERTEX
  8
0
 10
3.499766
 20
330.012878
  0
VERTEX
  8
0
 10
2.657734
 20
328.099060
  0
VERTEX
  8
0
 10
2.094844
 20
326.680603
  0
VERTEX
  8
0
 10
1.656953
 20
325.400848
  0
VERTEX
  8
0
 10
1.395312
 20
324.463043
  0
VERTEX
  8
0
 10
1.209922
 20
323.588654
  0
VERTEX
  8
0
 10
1.068672
 20
322.558899
  0
VERTEX
  8
0
 10
1.022812
 20
321.960938
  0
VERTEX
  8
0
 10
0.999766
 20
321.368195
  0
VERTEX
  8
0
 10
1.005156
 20
320.165619
  0
VERTEX
  8
0
 10
1.075781
 20
319.305145
  0
VERTEX
  8
0
 10
1.149219
 20
318.839844
  0
VERTEX
  8
0
 10
1.256562
 20
318.343109
  0
VERTEX
  8
0
 10
1.495234
 20
317.526398
  0
VERTEX
  8
0
 10
1.845859
 20
316.605774
  0
VERTEX
  8
0
 10
2.152031
 20
315.924530
  0
VERTEX
  8
0
 10
2.724062
 20
314.799988
  0
VERTEX
  8
0
 10
3.175937
 20
313.988281
  0
VERTEX
  8
0
 10
3.951484
 20
312.689911
  0
VERTEX
  8
0
 10
4.834375
 20
311.308105
  0
VERTEX
  8
0
 10
5.813437
 20
309.858887
  0
VERTEX
  8
0
 10
6.514375
 20
308.863281
  0
VERTEX
  8
0
 10
7.629844
 20
307.335846
  0
VERTEX
  8
0
 10
8.816875
 20
305.769836
  0
VERTEX
  8
0
 10
10.071640
 20
304.161072
  0
VERTEX
  8
0
 10
12.302656
 20
301.373505
  0
VERTEX
  8
0
 10
18.717344
 20
293.498108
  0
VERTEX
  8
0
 10
22.076717
 20
289.328430
  0
VERTEX
  8
0
 10
24.532734
 20
286.200470
  0
VERTEX
  8
0
 10
25.581015
 20
284.823730
  0
VERTEX
  8
0
 10
26.529375
 20
283.544922
  0
VERTEX
  8
0
 10
27.667421
 20
281.953674
  0
VERTEX
  8
0
 10
28.697500
 20
280.443756
  0
VERTEX
  8
0
 10
29.656717
 20
278.966705
  0
VERTEX
  8
0
 10
30.556328
 20
277.512421
  0
VERTEX
  8
0
 10
31.394531
 20
276.091156
  0
VERTEX
  8
0
 10
32.353046
 20
274.376648
  0
VERTEX
  8
0
 10
33.208828
 20
272.748047
  0
VERTEX
  8
0
 10
33.820076
 20
271.503510
  0
VERTEX
  8
0
 10
34.495781
 20
269.999451
  0
VERTEX
  8
0
 10
34.968281
 20
268.820923
  0
VERTEX
  8
0
 10
35.382187
 20
267.649689
  0
VERTEX
  8
0
 10
35.565235
 20
267.060150
  0
VERTEX
  8
0
 10
35.729454
 20
266.462799
  0
VERTEX
  8
0
 10
35.872421
 20
265.853668
  0
VERTEX
  8
0
 10
35.992107
 20
265.228729
  0
VERTEX
  8
0
 10
36.122498
 20
264.252899
  0
VERTEX
  8
0
 10
36.187420
 20
263.219055
  0
VERTEX
  8
0
 10
36.178982
 20
262.113983
  0
VERTEX
  8
0
 10
36.132500
 20
261.339355
  0
VERTEX
  8
0
 10
36.058514
 20
260.547272
  0
VERTEX
  8
0
 10
35.961639
 20
259.749908
  0
VERTEX
  8
0
 10
35.783905
 20
258.570770
  0
VERTEX
  8
0
 10
35.442108
 20
256.752258
  0
VERTEX
  8
0
 10
35.236015
 20
255.816238
  0
VERTEX
  8
0
 10
34.985859
 20
254.808670
  0
VERTEX
  8
0
 10
34.814686
 20
254.211945
  0
VERTEX
  8
0
 10
34.652733
 20
253.723511
  0
VERTEX
  8
0
 10
34.495937
 20
253.318588
  0
VERTEX
  8
0
 10
34.340076
 20
252.971954
  0
VERTEX
  8
0
 10
34.126404
 20
252.558350
  0
VERTEX
  8
0
 10
33.903282
 20
252.172180
  0
VERTEX
  8
0
 10
33.059765
 20
250.893661
  0
VERTEX
  8
0
 10
33.346718
 20
245.216949
  0
VERTEX
  8
0
 10
33.208359
 20
244.916473
  0
VERTEX
  8
0
 10
33.067032
 20
244.658035
  0
VERTEX
  8
0
 10
32.749920
 20
244.207565
  0
VERTEX
  8
0
 10
32.340076
 20
243.745850
  0
VERTEX
  8
0
 10
31.663671
 20
243.091949
  0
VERTEX
  8
0
 10
30.853983
 20
242.393982
  0
VERTEX
  8
0
 10
29.985937
 20
241.723190
  0
VERTEX
  8
0
 10
29.204687
 20
241.199448
  0
VERTEX
  8
0
 10
28.466249
 20
240.774765
  0
VERTEX
  8
0
 10
27.562889
 20
240.319916
  0
VERTEX
  8
0
 10
26.436014
 20
239.811630
  0
VERTEX
  8
0
 10
25.078360
 20
239.245697
  0
VERTEX
  8
0
 10
23.197968
 20
238.507263
  0
VERTEX
  8
0
 10
21.673124
 20
237.936249
  0
VERTEX
  8
0
 10
19.910313
 20
237.307175
  0
VERTEX
  8
0
 10
18.690155
 20
236.895065
  0
VERTEX
  8
0
 10
16.078827
 20
236.047409
  0
VERTEX
  8
0
 10
14.805547
 20
235.611404
  0
VERTEX
  8
0
 10
13.495078
 20
235.121948
  0
VERTEX
  8
0
 10
12.230781
 20
234.593201
  0
VERTEX
  8
0
 10
11.531875
 20
234.264130
  0
VERTEX
  8
0
 10
10.901796
 20
233.930618
  0
VERTEX
  8
0
 10
10.528281
 20
233.707809
  0
VERTEX
  8
0
 10
10.036094
 20
233.376083
  0
VERTEX
  8
0
 10
9.618437
 20
233.051712
  0
VERTEX
  8
0
 10
9.163125
 20
232.638824
  0
VERTEX
  8
0
 10
8.806250
 20
232.258896
  0
VERTEX
  8
0
 10
8.467969
 20
231.837646
  0
VERTEX
  8
0
 10
8.357344
 20
231.660782
  0
VERTEX
  8
0
 10
8.256328
 20
231.454834
  0
VERTEX
  8
0
 10
8.115781
 20
231.054993
  0
VERTEX
  8
0
 10
7.933125
 20
230.264923
  0
VERTEX
  8
0
 10
7.786016
 20
229.406799
  0
VERTEX
  8
0
 10
7.496328
 20
227.351242
  0
VERTEX
  8
0
 10
6.689375
 20
221.030228
  0
VERTEX
  8
0
 10
6.277344
 20
217.981400
  0
VERTEX
  8
0
 10
5.852109
 20
215.101944
  0
VERTEX
  8
0
 10
5.327656
 20
211.882339
  0
VERTEX
  8
0
 10
4.881094
 20
209.393982
  0
VERTEX
  8
0
 10
4.428281
 20
207.073273
  0
VERTEX
  8
0
 10
3.970859
 20
204.879456
  0
VERTEX
  8
0
 10
3.234062
 20
201.511169
  0
VERTEX
  8
0
 10
15.267265
 20
197.723114
  0
VERTEX
  8
0
 10
24.343281
 20
194.918671
  0
VERTEX
  8
0
 10
30.969843
 20
192.942657
  0
VERTEX
  8
0
 10
35.116405
 20
191.747650
  0
VERTEX
  8
0
 10
38.483124
 20
190.799911
  0
VERTEX
  8
0
 10
43.312420
 20
189.472961
  0
VERTEX
  8
0
 10
47.098282
 20
188.460312
  0
VERTEX
  8
0
 10
50.941013
 20
187.460068
  0
VERTEX
  8
0
 10
54.765469
 20
186.496643
  0
VERTEX
  8
0
 10
58.496407
 20
185.594604
  0
VERTEX
  8
0
 10
60.895153
 20
185.039291
  0
VERTEX
  8
0
 10
64.333672
 20
184.284134
  0
VERTEX
  8
0
 10
66.520699
 20
183.832260
  0
VERTEX
  8
0
 10
68.624687
 20
183.421555
  0
VERTEX
  8
0
 10
70.646561
 20
183.051483
  0
VERTEX
  8
0
 10
72.587265
 20
182.721878
  0
VERTEX
  8
0
 10
75.348511
 20
182.302887
  0
VERTEX
  8
0
 10
77.090935
 20
182.073349
  0
VERTEX
  8
0
 10
78.755859
 20
181.883194
  0
VERTEX
  8
0
 10
80.347496
 20
181.730774
  0
VERTEX
  8
0
 10
82.613281
 20
181.564758
  0
VERTEX
  8
0
 10
84.053513
 20
181.490936
  0
VERTEX
  8
0
 10
86.126091
 20
181.426163
  0
VERTEX
  8
0
 10
88.115776
 20
181.406250
  0
VERTEX
  8
0
 10
90.047104
 20
181.419144
  0
VERTEX
  8
0
 10
92.570702
 20
181.468201
  0
VERTEX
  8
0
 10
95.056404
 20
181.542267
  0
VERTEX
  8
0
 10
101.779686
 20
181.820313
  0
SEQEND
  8
0
  0
POLYLINE
  8
0
  0
VERTEX
  8
0
 10
104.270699
 20
355.833191
  0
VERTEX
  8
0
 10
92.549919
 20
362.311462
  0
VERTEX
  8
0
 10
85.017342
 20
366.455231
  0
VERTEX
  8
0
 10
79.052422
 20
369.714600
  0
VERTEX
  8
0
 10
66.710938
 20
376.420227
  0
VERTEX
  8
0
 10
59.980312
 20
380.110077
  0
VERTEX
  8
0
 10
51.821873
 20
384.645233
  0
VERTEX
  8
0
 10
39.816719
 20
391.385223
  0
SEQEND
  8
0
  0
POLYLINE
  8
0
  0
VERTEX
  8
0
 10
96.315155
 20
238.020386
  0
VERTEX
  8
0
 10
88.389061
 20
246.030380
  0
VERTEX
  8
0
 10
86.689293
 20
247.771317
  0
VERTEX
  8
0
 10
85.377495
 20
249.142654
  0
VERTEX
  8
0
 10
84.031090
 20
250.586243
  0
VERTEX
  8
0
 10
82.647812
 20
252.116394
  0
VERTEX
  8
0
 10
81.224922
 20
253.747498
  0
VERTEX
  8
0
 10
79.761948
 20
255.486954
  0
VERTEX
  8
0
 10
77.762497
 20
257.938354
  0
VERTEX
  8
0
 10
71.645546
 20
265.583344
  0
VERTEX
  8
0
 10
64.763435
 20
273.959137
  0
VERTEX
  8
0
 10
63.344452
 20
275.737793
  0
VERTEX
  8
0
 10
62.430389
 20
276.928589
  0
VERTEX
  8
0
 10
61.630936
 20
278.019135
  0
VERTEX
  8
0
 10
61.154919
 20
278.700928
  0
VERTEX
  8
0
 10
60.719841
 20
279.353821
  0
VERTEX
  8
0
 10
60.134998
 20
280.292664
  0
VERTEX
  8
0
 10
59.784451
 20
280.900604
  0
VERTEX
  8
0
 10
59.308201
 20
281.800385
  0
VERTEX
  8
0
 10
58.886951
 20
282.688965
  0
VERTEX
  8
0
 10
58.519218
 20
283.562805
  0
VERTEX
  8
0
 10
58.110310
 20
284.699066
  0
VERTEX
  8
0
 10
57.791485
 20
285.794373
  0
VERTEX
  8
0
 10
57.559765
 20
286.840302
  0
VERTEX
  8
0
 10
57.409138
 20
287.830383
  0
VERTEX
  8
0
 10
57.330547
 20
288.759674
  0
VERTEX
  8
0
 10
57.315388
 20
289.200317
  0
VERTEX
  8
0
 10
57.319687
 20
289.829437
  0
VERTEX
  8
0
 10
57.389999
 20
290.792114
  0
VERTEX
  8
0
 10
57.475700
 20
291.362976
  0
VERTEX
  8
0
 10
57.559219
 20
291.781403
  0
VERTEX
  8
0
 10
57.734138
 20
292.517578
  0
VERTEX
  8
0
 10
57.981560
 20
293.447021
  0
VERTEX
  8
0
 10
58.919609
 20
296.757507
  0
VERTEX
  8
0
 10
60.177422
 20
301.096954
  0
VERTEX
  8
0
 10
61.524296
 20
305.615692
  0
VERTEX
  8
0
 10
62.452419
 20
308.651093
  0
VERTEX
  8
0
 10
63.464451
 20
311.888275
  0
VERTEX
  8
0
 10
66.730858
 20
322.106934
  0
VERTEX
  8
0
 10
68.083595
 20
326.415161
  0
VERTEX
  8
0
 10
69.236252
 20
330.264679
  0
VERTEX
  8
0
 10
69.920464
 20
332.738831
  0
VERTEX
  8
0
 10
70.292419
 20
334.193970
  0
VERTEX
  8
0
 10
70.737808
 20
336.112732
  0
VERTEX
  8
0
 10
71.064217
 20
337.748047
  0
VERTEX
  8
0
 10
71.290154
 20
339.137329
  0
VERTEX
  8
0
 10
71.393906
 20
339.945313
  0
VERTEX
  8
0
 10
71.466560
 20
340.671570
  0
VERTEX
  8
0
 10
71.512810
 20
341.326569
  0
VERTEX
  8
0
 10
71.535156
 20
341.918121
  0
VERTEX
  8
0
 10
71.535156
 20
342.453186
  0
VERTEX
  8
0
 10
71.514610
 20
342.939056
  0
VERTEX
  8
0
 10
71.475151
 20
343.382813
  0
VERTEX
  8
0
 10
71.418510
 20
343.791473
  0
VERTEX
  8
0
 10
71.305153
 20
344.354431
  0
VERTEX
  8
0
 10
71.162811
 20
344.878510
  0
VERTEX
  8
0
 10
70.989372
 20
345.390686
  0
VERTEX
  8
0
 10
70.841095
 20
345.744446
  0
VERTEX
  8
0
 10
70.652580
 20
346.122345
  0
VERTEX
  8
0
 10
70.412109
 20
346.536804
  0
VERTEX
  8
0
 10
70.107658
 20
347.000061
  0
VERTEX
  8
0
 10
69.727417
 20
347.524445
  0
VERTEX
  8
0
 10
69.259377
 20
348.122345
  0
VERTEX
  8
0
 10
68.691559
 20
348.805847
  0
VERTEX
  8
0
 10
67.221016
 20
350.465698
  0
VERTEX
  8
0
 10
65.332970
 20
352.468262
  0
VERTEX
  8
0
 10
64.253983
 20
353.567566
  0
VERTEX
  8
0
 10
63.096718
 20
354.715942
  0
VERTEX
  8
0
 10
61.232811
 20
356.503510
  0
VERTEX
  8
0
 10
59.241795
 20
358.332245
  0
VERTEX
  8
0
 10
57.858200
 20
359.554138
  0
VERTEX
  8
0
 10
55.714607
 20
361.376617
  0
VERTEX
  8
0
 10
53.502655
 20
363.188202
  0
VERTEX
  8
0
 10
51.236954
 20
364.991150
  0
VERTEX
  8
0
 10
48.932030
 20
366.788025
  0
VERTEX
  8
0
 10
45.043438
 20
369.775238
  0
SEQEND
  8
0
  0
POLYLINE
  8
0
  0
VERTEX
  8
0
 10
71.216637
 20
257.253052
  0
VERTEX
  8
0
 10
70.223511
 20
253.748123
  0
VERTEX
  8
0
 10
69.551483
 20
251.196014
  0
VERTEX
  8
0
 10
69.175079
 20
249.629990
  0
VERTEX
  8
0
 10
68.938515
 20
248.567337
  0
VERTEX
  8
0
 10
68.506638
 20
246.394989
  0
VERTEX
  8
0
 10
68.221405
 20
244.755539
  0
VERTEX
  8
0
 10
67.971092
 20
243.147415
  0
VERTEX
  8
0
 10
67.757027
 20
241.607254
  0
VERTEX
  8
0
 10
67.580780
 20
240.171326
  0
VERTEX
  8
0
 10
67.443825
 20
238.876083
  0
VERTEX
  8
0
 10
67.347420
 20
237.746017
  0
VERTEX
  8
0
 10
67.291641
 20
236.758667
  0
VERTEX
  8
0
 10
67.276871
 20
235.879288
  0
VERTEX
  8
0
 10
67.289688
 20
235.336166
  0
VERTEX
  8
0
 10
67.343048
 20
234.560226
  0
VERTEX
  8
0
 10
67.437263
 20
233.800461
  0
VERTEX
  8
0
 10
67.572968
 20
233.023743
  0
VERTEX
  8
0
 10
67.753906
 20
232.215546
  0
VERTEX
  8
0
 10
67.902885
 20
231.657730
  0
VERTEX
  8
0
 10
68.173668
 20
230.790695
  0
VERTEX
  8
0
 10
68.388435
 20
230.191238
  0
VERTEX
  8
0
 10
68.632889
 20
229.573669
  0
VERTEX
  8
0
 10
68.908829
 20
228.937180
  0
VERTEX
  8
0
 10
69.218361
 20
228.281174
  0
VERTEX
  8
0
 10
69.561562
 20
227.605698
  0
VERTEX
  8
0
 10
70.322655
 20
226.215698
  0
VERTEX
  8
0
 10
72.297813
 20
222.773193
  0
VERTEX
  8
0
 10
72.802734
 20
221.826324
  0
VERTEX
  8
0
 10
73.362183
 20
220.664139
  0
VERTEX
  8
0
 10
73.597893
 20
220.124603
  0
VERTEX
  8
0
 10
73.903671
 20
219.364365
  0
VERTEX
  8
0
 10
74.159843
 20
218.660461
  0
VERTEX
  8
0
 10
74.375076
 20
218.009369
  0
VERTEX
  8
0
 10
74.712654
 20
216.835312
  0
VERTEX
  8
0
 10
74.835075
 20
216.245850
  0
VERTEX
  8
0
 10
74.896797
 20
215.819443
  0
VERTEX
  8
0
 10
74.956482
 20
215.093903
  0
VERTEX
  8
0
 10
74.972343
 20
214.531799
  0
VERTEX
  8
0
 10
74.957344
 20
213.535461
  0
VERTEX
  8
0
 10
74.919609
 20
212.748505
  0
VERTEX
  8
0
 10
74.732422
 20
210.359756
  0
VERTEX
  8
0
 10
74.434059
 20
207.510223
  0
VERTEX
  8
0
 10
74.052261
 20
204.378738
  0
VERTEX
  8
0
 10
73.521248
 20
200.486404
  0
VERTEX
  8
0
 10
72.939606
 20
196.557190
  0
VERTEX
  8
0
 10
72.123123
 20
191.289764
  0
SEQEND
  8
0
  0
POLYLINE
  8
0
  0
VERTEX
  8
0
 10
47.327888
 20
200.554520
  0
VERTEX
  8
0
 10
47.765858
 20
202.348511
  0
VERTEX
  8
0
 10
48.087421
 20
203.793198
  0
VERTEX
  8
0
 10
48.291172
 20
204.887177
  0
VERTEX
  8
0
 10
48.428204
 20
205.903748
  0
VERTEX
  8
0
 10
48.488907
 20
206.828674
  0
VERTEX
  8
0
 10
48.480312
 20
207.659210
  0
VERTEX
  8
0
 10
48.410858
 20
208.394455
  0
VERTEX
  8
0
 10
48.356094
 20
208.725861
  0
VERTEX
  8
0
 10
48.251873
 20
209.177338
  0
VERTEX
  8
0
 10
48.123123
 20
209.576401
  0
VERTEX
  8
0
 10
47.967342
 20
209.936325
  0
VERTEX
  8
0
 10
47.780857
 20
210.272736
  0
VERTEX
  8
0
 10
47.478123
 20
210.712341
  0
VERTEX
  8
0
 10
47.105156
 20
211.176239
  0
VERTEX
  8
0
 10
46.655701
 20
211.697968
  0
VERTEX
  8
0
 10
44.613045
 20
213.981720
  0
VERTEX
  8
0
 10
43.832031
 20
214.884293
  0
VERTEX
  8
0
 10
43.154922
 20
215.751633
  0
VERTEX
  8
0
 10
42.866951
 20
216.176407
  0
VERTEX
  8
0
 10
42.696873
 20
216.457489
  0
VERTEX
  8
0
 10
42.477890
 20
216.878113
  0
VERTEX
  8
0
 10
42.356171
 20
217.162491
  0
VERTEX
  8
0
 10
42.209061
 20
217.607178
  0
VERTEX
  8
0
 10
42.133904
 20
217.922501
  0
VERTEX
  8
0
 10
42.054531
 20
218.435928
  0
VERTEX
  8
0
 10
42.023201
 20
218.812180
  0
VERTEX
  8
0
 10
42.008595
 20
219.221161
  0
VERTEX
  8
0
 10
42.017185
 20
219.906403
  0
VERTEX
  8
0
 10
42.066326
 20
220.691238
  0
VERTEX
  8
0
 10
42.127422
 20
221.276550
  0
VERTEX
  8
0
 10
42.215469
 20
221.916321
  0
VERTEX
  8
0
 10
42.334061
 20
222.614441
  0
VERTEX
  8
0
 10
42.487110
 20
223.375000
  0
VERTEX
  8
0
 10
42.678047
 20
224.202026
  0
VERTEX
  8
0
 10
42.910858
 20
225.099442
  0
VERTEX
  8
0
 10
43.189060
 20
226.071472
  0
VERTEX
  8
0
 10
43.691952
 20
227.664688
  0
VERTEX
  8
0
 10
44.475937
 20
229.951248
  0
VERTEX
  8
0
 10
46.679920
 20
235.999374
  0
VERTEX
  8
0
 10
47.278515
 20
237.693665
  0
VERTEX
  8
0
 10
47.837578
 20
239.414139
  0
VERTEX
  8
0
 10
48.167187
 20
240.583984
  0
VERTEX
  8
0
 10
48.363750
 20
241.400696
  0
VERTEX
  8
0
 10
48.529999
 20
242.207962
  0
VERTEX
  8
0
 10
48.712811
 20
243.294296
  0
VERTEX
  8
0
 10
48.816170
 20
244.097183
  0
VERTEX
  8
0
 10
48.886169
 20
244.870544
  0
VERTEX
  8
0
 10
48.918671
 20
245.597336
  0
VERTEX
  8
0
 10
48.909607
 20
246.260223
  0
VERTEX
  8
0
 10
48.855232
 20
246.844131
  0
VERTEX
  8
0
 10
48.792263
 20
247.191635
  0
VERTEX
  8
0
 10
48.656876
 20
247.665466
  0
VERTEX
  8
0
 10
48.470779
 20
248.100540
  0
VERTEX
  8
0
 10
48.232422
 20
248.517410
  0
VERTEX
  8
0
 10
47.940235
 20
248.936630
  0
VERTEX
  8
0
 10
47.592655
 20
249.378662
  0
VERTEX
  8
0
 10
47.040779
 20
250.022491
  0
VERTEX
  8
0
 10
46.559921
 20
250.544525
  0
VERTEX
  8
0
 10
46.020935
 20
251.097961
  0
VERTEX
  8
0
 10
45.423122
 20
251.681091
  0
VERTEX
  8
0
 10
44.766094
 20
252.291794
  0
VERTEX
  8
0
 10
44.049686
 20
252.928116
  0
VERTEX
  8
0
 10
42.187576
 20
254.492188
  0
VERTEX
  8
0
 10
39.570702
 20
256.595856
  0
SEQEND
  8
0
  0
POLYLINE
  8
0
  0
VERTEX
  8
0
 10
95.340385
 20
190.504288
  0
VERTEX
  8
0
 10
81.614220
 20
190.877106
  0
SEQEND
  8
0
  0
POLYLINE
  8
0
  0
VERTEX
  8
0
 10
68.697029
 20
192.591171
  0
VERTEX
  8
0
 10
54.089062
 20
195.789444
  0
SEQEND
  8
0
  0
POLYLINE
  8
0
  0
VERTEX
  8
0
 10
38.948048
 20
199.884064
  0
VERTEX
  8
0
 10
33.910156
 20
201.243118
  0
VERTEX
  8
0
 10
32.136562
 20
196.797256
  0
SEQEND
  8
0
  0
POLYLINE
  8
0
  0
VERTEX
  8
0
 10
13.911094
 20
341.014771
  0
VERTEX
  8
0
 10
11.267656
 20
336.396179
  0
VERTEX
  8
0
 10
10.216093
 20
334.484985
  0
VERTEX
  8
0
 10
9.411562
 20
332.967346
  0
VERTEX
  8
0
 10
8.469531
 20
331.116638
  0
VERTEX
  8
0
 10
7.620781
 20
329.368347
  0
VERTEX
  8
0
 10
6.759219
 20
327.483429
  0
VERTEX
  8
0
 10
6.190625
 20
326.132568
  0
VERTEX
  8
0
 10
5.829453
 20
325.186096
  0
VERTEX
  8
0
 10
5.486719
 20
324.151306
  0
VERTEX
  8
0
 10
5.293359
 20
323.427643
  0
VERTEX
  8
0
 10
5.139453
 20
322.629517
  0
VERTEX
  8
0
 10
5.049219
 20
321.778656
  0
VERTEX
  8
0
 10
5.014453
 20
320.581726
  0
VERTEX
  8
0
 10
5.050937
 20
320.002411
  0
VERTEX
  8
0
 10
5.100703
 20
319.677887
  0
VERTEX
  8
0
 10
5.179843
 20
319.320862
  0
VERTEX
  8
0
 10
5.294531
 20
318.924438
  0
VERTEX
  8
0
 10
5.451094
 20
318.481476
  0
VERTEX
  8
0
 10
5.777734
 20
317.714752
  0
VERTEX
  8
0
 10
6.228672
 20
316.810944
  0
VERTEX
  8
0
 10
6.801719
 20
315.777802
  0
VERTEX
  8
0
 10
7.744141
 20
314.224457
  0
VERTEX
  8
0
 10
8.575859
 20
312.946228
  0
VERTEX
  8
0
 10
9.507265
 20
311.587097
  0
VERTEX
  8
0
 10
10.531562
 20
310.161163
  0
VERTEX
  8
0
 10
12.031094
 20
308.169373
  0
VERTEX
  8
0
 10
14.102656
 20
305.530060
  0
VERTEX
  8
0
 10
16.369843
 20
302.717804
  0
VERTEX
  8
0
 10
22.843046
 20
294.762878
  0
VERTEX
  8
0
 10
24.771563
 20
292.366180
  0
VERTEX
  8
0
 10
26.542109
 20
290.134125
  0
VERTEX
  8
0
 10
28.099844
 20
288.125549
  0
VERTEX
  8
0
 10
29.139452
 20
286.748810
  0
VERTEX
  8
0
 10
30.086952
 20
285.458832
  0
VERTEX
  8
0
 10
31.235312
 20
283.835693
  0
VERTEX
  8
0
 10
32.031483
 20
282.662415
  0
VERTEX
  8
0
 10
33.034843
 20
281.119293
  0
VERTEX
  8
0
 10
33.980000
 20
279.593506
  0
VERTEX
  8
0
 10
34.865860
 20
278.093750
  0
VERTEX
  8
0
 10
35.691326
 20
276.628906
  0
VERTEX
  8
0
 10
36.635860
 20
274.859924
  0
VERTEX
  8
0
 10
37.321716
 20
273.491089
  0
VERTEX
  8
0
 10
37.946796
 20
272.144684
  0
VERTEX
  8
0
 10
38.376560
 20
271.138519
  0
VERTEX
  8
0
 10
38.644764
 20
270.464905
  0
VERTEX
  8
0
 10
39.137890
 20
269.101074
  0
VERTEX
  8
0
 10
39.361485
 20
268.405701
  0
VERTEX
  8
0
 10
39.566406
 20
267.697723
  0
VERTEX
  8
0
 10
39.832264
 20
266.606171
  0
VERTEX
  8
0
 10
40.039139
 20
265.470459
  0
VERTEX
  8
0
 10
40.176872
 20
264.281097
  0
VERTEX
  8
0
 10
40.235390
 20
263.028595
  0
VERTEX
  8
0
 10
40.206017
 20
261.706024
  0
VERTEX
  8
0
 10
40.140781
 20
260.795380
  0
VERTEX
  8
0
 10
40.045235
 20
259.875854
  0
VERTEX
  8
0
 10
39.924686
 20
258.959991
  0
VERTEX
  8
0
 10
39.709530
 20
257.620087
  0
VERTEX
  8
0
 10
39.551014
 20
256.767578
  0
VERTEX
  8
0
 10
39.304218
 20
255.580780
  0
VERTEX
  8
0
 10
39.062813
 20
254.541550
  0
VERTEX
  8
0
 10
38.764763
 20
253.407883
  0
VERTEX
  8
0
 10
38.555000
 20
252.718201
  0
VERTEX
  8
0
 10
38.352890
 20
252.138824
  0
VERTEX
  8
0
 10
38.154453
 20
251.645157
  0
VERTEX
  8
0
 10
37.955936
 20
251.212891
  0
VERTEX
  8
0
 10
37.684998
 20
250.692490
  0
VERTEX
  8
0
 10
37.406250
 20
250.214447
  0
VERTEX
  8
0
 10
37.049923
 20
249.659134
  0
VERTEX
  8
0
 10
36.616249
 20
249.025620
  0
SEQEND
  8
0
  0
POLYLINE
  8
0
  0
VERTEX
  8
0
 10
51.641403
 20
364.809906
  0
VERTEX
  8
0
 10
51.155079
 20
364.773651
  0
VERTEX
  8
0
 10
50.719532
 20
364.554291
  0
VERTEX
  8
0
 10
50.401173
 20
364.184753
  0
VERTEX
  8
0
 10
50.248436
 20
363.721466
  0
VERTEX
  8
0
 10
50.284607
 20
363.235229
  0
VERTEX
  8
0
 10
50.504063
 20
362.799591
  0
VERTEX
  8
0
 10
50.873592
 20
362.481323
  0
VERTEX
  8
0
 10
51.336796
 20
362.328522
  0
VERTEX
  8
0
 10
51.823124
 20
362.364594
  0
VERTEX
  8
0
 10
52.258671
 20
362.584137
  0
VERTEX
  8
0
 10
52.577030
 20
362.953674
  0
VERTEX
  8
0
 10
52.729763
 20
363.416931
  0
VERTEX
  8
0
 10
52.693672
 20
363.903198
  0
VERTEX
  8
0
 10
52.474140
 20
364.338806
  0
VERTEX
  8
0
 10
52.104607
 20
364.657104
  0
VERTEX
  8
0
 10
51.641403
 20
364.809906
  0
SEQEND
  8
0
  0
POLYLINE
  8
0
  0
VERTEX
  8
0
 10
45.300388
 20
383.901154
  0
VERTEX
  8
0
 10
44.813984
 20
383.865082
  0
VERTEX
  8
0
 10
44.378437
 20
383.645538
  0
VERTEX
  8
0
 10
44.060078
 20
383.276001
  0
VERTEX
  8
0
 10
43.907341
 20
382.812897
  0
VERTEX
  8
0
 10
43.943516
 20
382.326477
  0
VERTEX
  8
0
 10
44.162968
 20
381.891022
  0
VERTEX
  8
0
 10
44.532497
 20
381.572571
  0
VERTEX
  8
0
 10
44.995701
 20
381.419922
  0
VERTEX
  8
0
 10
45.482109
 20
381.455994
  0
VERTEX
  8
0
 10
45.917656
 20
381.675537
  0
VERTEX
  8
0
 10
46.235935
 20
382.045074
  0
VERTEX
  8
0
 10
46.388672
 20
382.508209
  0
VERTEX
  8
0
 10
46.352577
 20
382.994598
  0
VERTEX
  8
0
 10
46.133045
 20
383.430084
  0
VERTEX
  8
0
 10
45.763592
 20
383.748505
  0
VERTEX
  8
0
 10
45.300388
 20
383.901154
  0
SEQEND
  8
0
  0
POLYLINE
  8
0
  0
VERTEX
  8
0
 10
15.765625
 20
341.342651
  0
VERTEX
  8
0
 10
15.279219
 20
341.306549
  0
VERTEX
  8
0
 10
14.843750
 20
341.086945
  0
VERTEX
  8
0
 10
14.525391
 20
340.717499
  0
VERTEX
  8
0
 10
14.372656
 20
340.254303
  0
VERTEX
  8
0
 10
14.408750
 20
339.767975
  0
VERTEX
  8
0
 10
14.628281
 20
339.332489
  0
VERTEX
  8
0
 10
14.997734
 20
339.014069
  0
VERTEX
  8
0
 10
15.461016
 20
338.861328
  0
VERTEX
  8
0
 10
15.947266
 20
338.897491
  0
VERTEX
  8
0
 10
16.382813
 20
339.117035
  0
VERTEX
  8
0
 10
16.701250
 20
339.486481
  0
VERTEX
  8
0
 10
16.853985
 20
339.949677
  0
VERTEX
  8
0
 10
16.817890
 20
340.436005
  0
VERTEX
  8
0
 10
16.598280
 20
340.871552
  0
VERTEX
  8
0
 10
16.228750
 20
341.189911
  0
VERTEX
  8
0
 10
15.765625
 20
341.342651
  0
SEQEND
  8
0
  0
POLYLINE
  8
0
  0
VERTEX
  8
0
 10
79.843903
 20
576.168396
  0
VERTEX
  8
0
 10
80.187340
 20
561.937927
  0
VERTEX
  8
0
 10
80.371170
 20
552.353882
  0
VERTEX
  8
0
 10
80.439453
 20
547.511108
  0
VERTEX
  8
0
 10
80.486404
 20
542.614380
  0
VERTEX
  8
0
 10
80.504219
 20
537.606018
  0
VERTEX
  8
0
 10
80.495468
 20
534.171570
  0
VERTEX
  8
0
 10
80.444763
 20
528.826111
  0
VERTEX
  8
0
 10
80.382027
 20
525.103821
  0
VERTEX
  8
0
 10
80.293045
 20
521.231262
  0
VERTEX
  8
0
 10
80.175308
 20
517.188110
  0
VERTEX
  8
0
 10
80.026169
 20
512.955750
  0
VERTEX
  8
0
 10
79.845627
 20
508.546722
  0
VERTEX
  8
0
 10
79.636246
 20
504.004822
  0
VERTEX
  8
0
 10
79.400856
 20
499.375763
  0
VERTEX
  8
0
 10
79.142105
 20
494.704681
  0
VERTEX
  8
0
 10
78.862579
 20
490.037018
  0
VERTEX
  8
0
 10
78.410469
 20
483.140930
  0
VERTEX
  8
0
 10
77.927032
 20
476.507721
  0
VERTEX
  8
0
 10
77.591797
 20
472.305298
  0
VERTEX
  8
0
 10
77.248123
 20
468.288727
  0
VERTEX
  8
0
 10
76.896172
 20
464.419678
  0
VERTEX
  8
0
 10
76.353439
 20
458.805939
  0
VERTEX
  8
0
 10
74.426483
 20
440.115784
  0
VERTEX
  8
0
 10
73.403046
 20
429.809357
  0
VERTEX
  8
0
 10
72.351013
 20
418.819214
  0
VERTEX
  8
0
 10
70.635857
 20
400.468811
  0
VERTEX
  8
0
 10
64.142967
 20
407.207886
  0
VERTEX
  8
0
 10
59.639061
 20
411.917572
  0
VERTEX
  8
0
 10
56.183826
 20
415.570679
  0
VERTEX
  8
0
 10
52.908360
 20
419.084351
  0
VERTEX
  8
0
 10
49.101563
 20
423.244751
  0
VERTEX
  8
0
 10
45.622890
 20
427.122894
  0
VERTEX
  8
0
 10
42.480156
 20
430.692871
  0
VERTEX
  8
0
 10
39.154686
 20
434.547028
  0
VERTEX
  8
0
 10
36.262577
 20
437.991852
  0
VERTEX
  8
0
 10
34.128281
 20
440.618439
  0
VERTEX
  8
0
 10
32.948360
 20
442.112427
  0
VERTEX
  8
0
 10
31.836639
 20
443.554901
  0
VERTEX
  8
0
 10
30.140547
 20
445.845459
  0
VERTEX
  8
0
 10
29.220860
 20
447.151398
  0
VERTEX
  8
0
 10
28.650078
 20
447.993439
  0
VERTEX
  8
0
 10
27.858984
 20
449.213501
  0
VERTEX
  8
0
 10
27.376093
 20
449.998108
  0
VERTEX
  8
0
 10
26.928671
 20
450.759979
  0
VERTEX
  8
0
 10
26.322889
 20
451.860840
  0
VERTEX
  8
0
 10
25.961250
 20
452.567413
  0
VERTEX
  8
0
 10
25.480234
 20
453.587402
  0
VERTEX
  8
0
 10
25.199297
 20
454.241333
  0
VERTEX
  8
0
 10
24.949297
 20
454.874908
  0
VERTEX
  8
0
 10
24.729374
 20
455.488495
  0
VERTEX
  8
0
 10
24.538828
 20
456.082581
  0
VERTEX
  8
0
 10
24.375780
 20
456.656952
  0
VERTEX
  8
0
 10
24.176718
 20
457.479767
  0
VERTEX
  8
0
 10
23.943672
 20
458.740540
  0
VERTEX
  8
0
 10
23.847813
 20
459.426147
  0
VERTEX
  8
0
 10
23.731718
 20
460.442871
  0
VERTEX
  8
0
 10
23.699297
 20
460.820160
  0
VERTEX
  8
0
 10
23.686483
 20
461.218262
  0
VERTEX
  8
0
 10
23.703438
 20
461.669067
  0
VERTEX
  8
0
 10
23.760389
 20
462.204285
  0
VERTEX
  8
0
 10
23.943516
 20
463.234985
  0
VERTEX
  8
0
 10
24.274609
 20
464.634369
  0
VERTEX
  8
0
 10
24.788437
 20
466.509613
  0
VERTEX
  8
0
 10
25.506094
 20
468.927887
  0
VERTEX
  8
0
 10
26.718906
 20
472.827423
  0
VERTEX
  8
0
 10
28.121094
 20
477.207489
  0
VERTEX
  8
0
 10
29.600155
 20
481.750153
  0
VERTEX
  8
0
 10
34.677029
 20
497.109680
  0
VERTEX
  8
0
 10
36.091328
 20
501.430695
  0
VERTEX
  8
0
 10
37.406952
 20
505.586151
  0
VERTEX
  8
0
 10
38.254608
 20
508.433258
  0
VERTEX
  8
0
 10
38.679451
 20
509.984039
  0
VERTEX
  8
0
 10
38.996250
 20
511.278503
  0
VERTEX
  8
0
 10
39.217812
 20
512.370117
  0
VERTEX
  8
0
 10
39.358669
 20
513.321716
  0
VERTEX
  8
0
 10
39.403515
 20
513.764343
  0
VERTEX
  8
0
 10
39.443905
 20
514.409058
  0
VERTEX
  8
0
 10
39.456718
 20
515.052795
  0
VERTEX
  8
0
 10
39.447266
 20
515.488403
  0
VERTEX
  8
0
 10
39.418827
 20
515.931335
  0
VERTEX
  8
0
 10
39.367264
 20
516.382935
  0
VERTEX
  8
0
 10
39.238125
 20
517.080139
  0
VERTEX
  8
0
 10
39.111561
 20
517.560608
  0
VERTEX
  8
0
 10
38.947655
 20
518.055298
  0
VERTEX
  8
0
 10
38.623592
 20
518.827698
  0
VERTEX
  8
0
 10
38.196873
 20
519.639587
  0
VERTEX
  8
0
 10
37.672264
 20
520.487427
  0
VERTEX
  8
0
 10
37.057888
 20
521.365906
  0
VERTEX
  8
0
 10
36.602421
 20
521.966064
  0
VERTEX
  8
0
 10
36.113201
 20
522.576111
  0
VERTEX
  8
0
 10
35.321327
 20
523.505981
  0
VERTEX
  8
0
 10
34.167889
 20
524.767639
  0
VERTEX
  8
0
 10
33.213593
 20
525.749023
  0
VERTEX
  8
0
 10
32.147423
 20
526.797424
  0
VERTEX
  8
0
 10
30.936405
 20
527.947021
  0
VERTEX
  8
0
 10
29.039608
 20
529.696716
  0
VERTEX
  8
0
 10
24.769688
 20
533.541565
  0
VERTEX
  8
0
 10
14.902968
 20
542.326111
  0
VERTEX
  8
0
 10
11.593124
 20
545.294373
  0
VERTEX
  8
0
 10
8.602031
 20
548.039185
  0
VERTEX
  8
0
 10
6.526875
 20
550.029358
  0
VERTEX
  8
0
 10
5.015937
 20
551.552673
  0
VERTEX
  8
0
 10
3.717500
 20
552.929199
  0
VERTEX
  8
0
 10
2.663906
 20
554.116577
  0
VERTEX
  8
0
 10
1.884844
 20
555.077026
  0
VERTEX
  8
0
 10
1.455078
 20
555.705017
  0
VERTEX
  8
0
 10
1.298203
 20
555.989197
  0
VERTEX
  8
0
 10
1.176641
 20
556.262024
  0
VERTEX
  8
0
 10
1.088125
 20
556.529358
  0
VERTEX
  8
0
 10
1.030000
 20
556.797791
  0
VERTEX
  8
0
 10
0.999922
 20
557.073730
  0
VERTEX
  8
0
 10
1.002500
 20
557.514221
  0
VERTEX
  8
0
 10
1.034844
 20
557.830017
  0
VERTEX
  8
0
 10
1.092031
 20
558.164978
  0
VERTEX
  8
0
 10
1.281172
 20
558.897034
  0
VERTEX
  8
0
 10
1.571562
 20
559.719666
  0
VERTEX
  8
0
 10
2.078672
 20
560.889648
  0
VERTEX
  8
0
 10
2.458359
 20
561.672302
  0
VERTEX
  8
0
 10
3.041250
 20
562.808716
  0
VERTEX
  8
0
 10
7.655156
 20
571.541382
  0
VERTEX
  8
0
 10
8.169141
 20
572.465271
  0
VERTEX
  8
0
 10
8.787499
 20
573.515137
  0
VERTEX
  8
0
 10
9.331250
 20
574.370483
  0
VERTEX
  8
0
 10
9.915312
 20
575.207825
  0
VERTEX
  8
0
 10
10.403984
 20
575.836548
  0
VERTEX
  8
0
 10
10.748750
 20
576.217346
  0
VERTEX
  8
0
 10
11.028438
 20
576.426880
  0
VERTEX
  8
0
 10
11.246875
 20
576.526062
  0
VERTEX
  8
0
 10
11.370078
 20
576.562622
  0
VERTEX
  8
0
 10
11.651796
 20
576.608765
  0
VERTEX
  8
0
 10
11.813203
 20
576.617493
  0
VERTEX
  8
0
 10
12.184531
 20
576.605469
  0
VERTEX
  8
0
 10
12.630312
 20
576.551880
  0
VERTEX
  8
0
 10
13.460078
 20
576.389648
  0
VERTEX
  8
0
 10
14.117031
 20
576.230164
  0
VERTEX
  8
0
 10
15.232187
 20
575.924805
  0
VERTEX
  8
0
 10
16.471874
 20
575.553101
  0
VERTEX
  8
0
 10
17.800781
 20
575.130127
  0
VERTEX
  8
0
 10
20.117733
 20
574.351563
  0
VERTEX
  8
0
 10
22.933907
 20
573.355896
  0
VERTEX
  8
0
 10
25.858280
 20
572.284180
  0
VERTEX
  8
0
 10
32.472733
 20
569.822510
  0
VERTEX
  8
0
 10
35.995781
 20
568.541260
  0
VERTEX
  8
0
 10
38.771641
 20
567.575623
  0
VERTEX
  8
0
 10
40.294296
 20
567.076233
  0
VERTEX
  8
0
 10
41.247654
 20
566.783264
  0
VERTEX
  8
0
 10
42.162655
 20
566.523560
  0
VERTEX
  8
0
 10
43.049061
 20
566.298279
  0
VERTEX
  8
0
 10
43.916874
 20
566.108398
  0
VERTEX
  8
0
 10
44.775780
 20
565.955139
  0
VERTEX
  8
0
 10
45.635468
 20
565.839539
  0
VERTEX
  8
0
 10
46.505936
 20
565.762512
  0
VERTEX
  8
0
 10
47.396797
 20
565.725464
  0
VERTEX
  8
0
 10
47.852810
 20
565.722168
  0
VERTEX
  8
0
 10
48.788906
 20
565.747192
  0
VERTEX
  8
0
 10
49.269531
 20
565.775635
  0
VERTEX
  8
0
 10
50.258125
 20
565.865601
  0
VERTEX
  8
0
 10
51.285000
 20
566.000916
  0
VERTEX
  8
0
 10
52.352810
 20
566.182983
  0
VERTEX
  8
0
 10
54.037579
 20
566.546570
  0
VERTEX
  8
0
 10
55.219921
 20
566.851379
  0
VERTEX
  8
0
 10
56.452812
 20
567.208130
  0
VERTEX
  8
0
 10
57.738594
 20
567.617615
  0
VERTEX
  8
0
 10
59.754375
 20
568.321228
  0
VERTEX
  8
0
 10
61.840622
 20
569.105164
  0
VERTEX
  8
0
 10
63.957890
 20
569.938904
  0
VERTEX
  8
0
 10
69.456245
 20
572.172974
  0
VERTEX
  8
0
 10
71.973282
 20
573.175903
  0
VERTEX
  8
0
 10
75.469292
 20
574.526062
  0
VERTEX
  8
0
 10
79.843903
 20
576.168396
  0
SEQEND
  8
0
  0
POLYLINE
  8
0
  0
VERTEX
  8
0
 10
12.420703
 20
556.463440
  0
VERTEX
  8
0
 10
16.351797
 20
566.859070
  0
SEQEND
  8
0
  0
POLYLINE
  8
0
  0
VERTEX
  8
0
 10
20.464844
 20
541.497009
  0
VERTEX
  8
0
 10
23.205391
 20
546.153748
  0
SEQEND
  8
0
  0
POLYLINE
  8
0
  0
VERTEX
  8
0
 10
30.822109
 20
562.594971
  0
VERTEX
  8
0
 10
32.356716
 20
566.705933
  0
SEQEND
  8
0
  0
POLYLINE
  8
0
  0
VERTEX
  8
0
 10
40.252499
 20
458.223907
  0
VERTEX
  8
0
 10
31.928905
 20
462.251953
  0
SEQEND
  8
0
  0
POLYLINE
  8
0
  0
VERTEX
  8
0
 10
55.826717
 20
505.966461
  0
VERTEX
  8
0
 10
46.386951
 20
510.756226
  0
SEQEND
  8
0
  0
POLYLINE
  8
0
  0
VERTEX
  8
0
 10
42.808437
 20
439.247650
  0
VERTEX
  8
0
 10
46.064297
 20
448.937347
  0
VERTEX
  8
0
 10
48.353828
 20
455.855072
  0
VERTEX
  8
0
 10
49.975079
 20
460.831238
  0
VERTEX
  8
0
 10
54.019451
 20
473.368591
  0
VERTEX
  8
0
 10
56.569374
 20
481.161407
  0
VERTEX
  8
0
 10
58.798435
 20
487.830078
  0
VERTEX
  8
0
 10
61.788280
 20
496.564056
  0
VERTEX
  8
0
 10
63.622265
 20
501.825470
  0
VERTEX
  8
0
 10
65.435310
 20
506.961945
  0
VERTEX
  8
0
 10
67.185783
 20
511.858826
  0
VERTEX
  8
0
 10
69.350777
 20
517.817261
  0
VERTEX
  8
0
 10
70.818901
 20
521.782593
  0
VERTEX
  8
0
 10
72.604141
 20
526.514648
  0
VERTEX
  8
0
 10
74.245232
 20
530.782776
  0
VERTEX
  8
0
 10
76.562653
 20
536.721069
  0
SEQEND
  8
0
  0
POLYLINE
  8
0
  0
VERTEX
  8
0
 10
20.517187
 20
542.495789
  0
VERTEX
  8
0
 10
20.131016
 20
542.439819
  0
VERTEX
  8
0
 10
19.795702
 20
542.240295
  0
VERTEX
  8
0
 10
19.562187
 20
541.927673
  0
VERTEX
  8
0
 10
19.466171
 20
541.549377
  0
VERTEX
  8
0
 10
19.522186
 20
541.163269
  0
VERTEX
  8
0
 10
19.721718
 20
540.828125
  0
VERTEX
  8
0
 10
20.034374
 20
540.594543
  0
VERTEX
  8
0
 10
20.412500
 20
540.498413
  0
VERTEX
  8
0
 10
20.798594
 20
540.554504
  0
VERTEX
  8
0
 10
21.133984
 20
540.754028
  0
VERTEX
  8
0
 10
21.367422
 20
541.066528
  0
VERTEX
  8
0
 10
21.463436
 20
541.444702
  0
VERTEX
  8
0
 10
21.407499
 20
541.830933
  0
VERTEX
  8
0
 10
21.207968
 20
542.166260
  0
VERTEX
  8
0
 10
20.895311
 20
542.399658
  0
VERTEX
  8
0
 10
20.517187
 20
542.495789
  0
SEQEND
  8
0
  0
POLYLINE
  8
0
  0
VERTEX
  8
0
 10
23.257734
 20
547.152466
  0
VERTEX
  8
0
 10
22.871639
 20
547.096375
  0
VERTEX
  8
0
 10
22.536249
 20
546.896851
  0
VERTEX
  8
0
 10
22.302813
 20
546.584229
  0
VERTEX
  8
0
 10
22.206797
 20
546.206055
  0
VERTEX
  8
0
 10
22.262733
 20
545.820007
  0
VERTEX
  8
0
 10
22.462265
 20
545.484497
  0
VERTEX
  8
0
 10
22.774921
 20
545.251221
  0
VERTEX
  8
0
 10
23.153124
 20
545.155151
  0
VERTEX
  8
0
 10
23.539219
 20
545.211060
  0
VERTEX
  8
0
 10
23.874531
 20
545.410583
  0
VERTEX
  8
0
 10
24.108046
 20
545.723267
  0
VERTEX
  8
0
 10
24.204062
 20
546.101379
  0
VERTEX
  8
0
 10
24.148125
 20
546.487488
  0
VERTEX
  8
0
 10
23.948593
 20
546.822815
  0
VERTEX
  8
0
 10
23.635937
 20
547.056396
  0
VERTEX
  8
0
 10
23.257734
 20
547.152466
  0
SEQEND
  8
0
  0
POLYLINE
  8
0
  0
VERTEX
  8
0
 10
30.874453
 20
563.593750
  0
VERTEX
  8
0
 10
30.488359
 20
563.537659
  0
VERTEX
  8
0
 10
30.152967
 20
563.338135
  0
VERTEX
  8
0
 10
29.919531
 20
563.025452
  0
VERTEX
  8
0
 10
29.823515
 20
562.647339
  0
VERTEX
  8
0
 10
29.879452
 20
562.261230
  0
VERTEX
  8
0
 10
30.078983
 20
561.925781
  0
VERTEX
  8
0
 10
30.391640
 20
561.692505
  0
VERTEX
  8
0
 10
30.769766
 20
561.596375
  0
VERTEX
  8
0
 10
31.155859
 20
561.652344
  0
VERTEX
  8
0
 10
31.491249
 20
561.851868
  0
VERTEX
  8
0
 10
31.724688
 20
562.164490
  0
VERTEX
  8
0
 10
31.820702
 20
562.542664
  0
VERTEX
  8
0
 10
31.764765
 20
562.928711
  0
VERTEX
  8
0
 10
31.565233
 20
563.264038
  0
VERTEX
  8
0
 10
31.252577
 20
563.497620
  0
VERTEX
  8
0
 10
30.874453
 20
563.593750
  0
SEQEND
  8
0
  0
POLYLINE
  8
0
  0
VERTEX
  8
0
 10
32.409061
 20
567.704651
  0
VERTEX
  8
0
 10
32.022812
 20
567.648560
  0
VERTEX
  8
0
 10
31.687500
 20
567.449036
  0
VERTEX
  8
0
 10
31.454062
 20
567.136414
  0
VERTEX
  8
0
 10
31.358046
 20
566.758240
  0
VERTEX
  8
0
 10
31.414063
 20
566.372192
  0
VERTEX
  8
0
 10
31.613516
 20
566.036682
  0
VERTEX
  8
0
 10
31.926170
 20
565.803406
  0
VERTEX
  8
0
 10
32.304375
 20
565.707336
  0
VERTEX
  8
0
 10
32.690468
 20
565.763245
  0
VERTEX
  8
0
 10
33.025780
 20
565.962830
  0
VERTEX
  8
0
 10
33.259216
 20
566.275452
  0
VERTEX
  8
0
 10
33.355312
 20
566.653564
  0
VERTEX
  8
0
 10
33.299297
 20
567.039856
  0
VERTEX
  8
0
 10
33.099766
 20
567.375000
  0
VERTEX
  8
0
 10
32.787186
 20
567.608582
  0
VERTEX
  8
0
 10
32.409061
 20
567.704651
  0
SEQEND
  8
0
  0
POLYLINE
  8
0
  0
VERTEX
  8
0
 10
12.525312
 20
558.460754
  0
VERTEX
  8
0
 10
11.903125
 20
558.395325
  0
VERTEX
  8
0
 10
11.331406
 20
558.140747
  0
VERTEX
  8
0
 10
10.866484
 20
557.722168
  0
VERTEX
  8
0
 10
10.553594
 20
557.180115
  0
VERTEX
  8
0
 10
10.423437
 20
556.568115
  0
VERTEX
  8
0
 10
10.488906
 20
555.945740
  0
VERTEX
  8
0
 10
10.743437
 20
555.374023
  0
VERTEX
  8
0
 10
11.162031
 20
554.909180
  0
VERTEX
  8
0
 10
11.703984
 20
554.596252
  0
VERTEX
  8
0
 10
12.316015
 20
554.466248
  0
VERTEX
  8
0
 10
12.938359
 20
554.531555
  0
VERTEX
  8
0
 10
13.509999
 20
554.786072
  0
VERTEX
  8
0
 10
13.974999
 20
555.204651
  0
VERTEX
  8
0
 10
14.287890
 20
555.746704
  0
VERTEX
  8
0
 10
14.417969
 20
556.358765
  0
VERTEX
  8
0
 10
14.352578
 20
556.981079
  0
VERTEX
  8
0
 10
14.098046
 20
557.552795
  0
VERTEX
  8
0
 10
13.679375
 20
558.017822
  0
VERTEX
  8
0
 10
13.137422
 20
558.330627
  0
VERTEX
  8
0
 10
12.525312
 20
558.460754
  0
SEQEND
  8
0
  0
POLYLINE
  8
0
  0
VERTEX
  8
0
 10
16.456406
 20
568.856262
  0
VERTEX
  8
0
 10
15.834140
 20
568.790771
  0
VERTEX
  8
0
 10
15.262500
 20
568.536377
  0
VERTEX
  8
0
 10
14.797500
 20
568.117615
  0
VERTEX
  8
0
 10
14.484609
 20
567.575745
  0
VERTEX
  8
0
 10
14.354531
 20
566.963562
  0
VERTEX
  8
0
 10
14.419922
 20
566.341370
  0
VERTEX
  8
0
 10
14.674375
 20
565.769653
  0
VERTEX
  8
0
 10
15.093124
 20
565.304688
  0
VERTEX
  8
0
 10
15.634999
 20
564.991882
  0
VERTEX
  8
0
 10
16.247108
 20
564.861694
  0
VERTEX
  8
0
 10
16.869453
 20
564.927185
  0
VERTEX
  8
0
 10
17.441015
 20
565.181580
  0
VERTEX
  8
0
 10
17.906094
 20
565.600281
  0
VERTEX
  8
0
 10
18.218906
 20
566.142151
  0
VERTEX
  8
0
 10
18.349062
 20
566.754333
  0
VERTEX
  8
0
 10
18.283594
 20
567.376709
  0
VERTEX
  8
0
 10
18.029140
 20
567.948242
  0
VERTEX
  8
0
 10
17.610390
 20
568.413269
  0
VERTEX
  8
0
 10
17.068516
 20
568.726074
  0
VERTEX
  8
0
 10
16.456406
 20
568.856262
  0
SEQEND
  8
0
  0
POLYLINE
  8
0
  0
VERTEX
  8
0
 10
16.888985
 20
683.967590
  0
VERTEX
  8
0
 10
16.655781
 20
676.197021
  0
VERTEX
  8
0
 10
16.524452
 20
670.978394
  0
VERTEX
  8
0
 10
16.489452
 20
668.216675
  0
VERTEX
  8
0
 10
16.514843
 20
665.631226
  0
VERTEX
  8
0
 10
16.570391
 20
664.190857
  0
VERTEX
  8
0
 10
16.627890
 20
663.285278
  0
VERTEX
  8
0
 10
16.702499
 20
662.425903
  0
VERTEX
  8
0
 10
16.844765
 20
661.222717
  0
VERTEX
  8
0
 10
16.958750
 20
660.476990
  0
VERTEX
  8
0
 10
17.156250
 20
659.442017
  0
VERTEX
  8
0
 10
17.304609
 20
658.806946
  0
VERTEX
  8
0
 10
17.549843
 20
657.935669
  0
VERTEX
  8
0
 10
17.820078
 20
657.160400
  0
VERTEX
  8
0
 10
18.014374
 20
656.692932
  0
VERTEX
  8
0
 10
18.222031
 20
656.258057
  0
VERTEX
  8
0
 10
18.562969
 20
655.653015
  0
VERTEX
  8
0
 10
18.812891
 20
655.271790
  0
VERTEX
  8
0
 10
19.083281
 20
654.900757
  0
VERTEX
  8
0
 10
19.693829
 20
654.163879
  0
VERTEX
  8
0
 10
20.409374
 20
653.393005
  0
VERTEX
  8
0
 10
21.208906
 20
652.581421
  0
VERTEX
  8
0
 10
23.202421
 20
650.612854
  0
VERTEX
  8
0
 10
24.119843
 20
649.646790
  0
VERTEX
  8
0
 10
24.582422
 20
649.083191
  0
VERTEX
  8
0
 10
24.872499
 20
648.667114
  0
VERTEX
  8
0
 10
25.128437
 20
648.232666
  0
VERTEX
  8
0
 10
25.363281
 20
647.758362
  0
VERTEX
  8
0
 10
25.666639
 20
647.025940
  0
VERTEX
  8
0
 10
25.989531
 20
646.125610
  0
VERTEX
  8
0
 10
27.765625
 20
640.778687
  0
VERTEX
  8
0
 10
30.111639
 20
633.994812
  0
VERTEX
  8
0
 10
32.016251
 20
628.626404
  0
VERTEX
  8
0
 10
33.456482
 20
624.688965
  0
VERTEX
  8
0
 10
34.920155
 20
620.871460
  0
VERTEX
  8
0
 10
36.168827
 20
617.804382
  0
VERTEX
  8
0
 10
36.934608
 20
616.025269
  0
VERTEX
  8
0
 10
37.453045
 20
614.868896
  0
VERTEX
  8
0
 10
38.511169
 20
612.637024
  0
VERTEX
  8
0
 10
39.051952
 20
611.565796
  0
VERTEX
  8
0
 10
39.601093
 20
610.526917
  0
VERTEX
  8
0
 10
40.159294
 20
609.522644
  0
VERTEX
  8
0
 10
40.726170
 20
608.554932
  0
VERTEX
  8
0
 10
41.298904
 20
607.624756
  0
VERTEX
  8
0
 10
42.161095
 20
606.301636
  0
VERTEX
  8
0
 10
42.732498
 20
605.468872
  0
VERTEX
  8
0
 10
43.575546
 20
604.296082
  0
VERTEX
  8
0
 10
44.391014
 20
603.217102
  0
VERTEX
  8
0
 10
45.166485
 20
602.234802
  0
VERTEX
  8
0
 10
45.894375
 20
601.349487
  0
VERTEX
  8
0
 10
46.585545
 20
600.550049
  0
VERTEX
  8
0
 10
47.255623
 20
599.822937
  0
VERTEX
  8
0
 10
47.920155
 20
599.154358
  0
VERTEX
  8
0
 10
48.594685
 20
598.530945
  0
VERTEX
  8
0
 10
49.294765
 20
597.938660
  0
VERTEX
  8
0
 10
50.034451
 20
597.367554
  0
VERTEX
  8
0
 10
50.553749
 20
597.000305
  0
VERTEX
  8
0
 10
51.377110
 20
596.474731
  0
VERTEX
  8
0
 10
51.958515
 20
596.144531
  0
VERTEX
  8
0
 10
52.568279
 20
595.832886
  0
VERTEX
  8
0
 10
53.208435
 20
595.541992
  0
VERTEX
  8
0
 10
53.880936
 20
595.274048
  0
VERTEX
  8
0
 10
54.587891
 20
595.031067
  0
VERTEX
  8
0
 10
55.330311
 20
594.815002
  0
VERTEX
  8
0
 10
56.105782
 20
594.625916
  0
VERTEX
  8
0
 10
56.910782
 20
594.463745
  0
VERTEX
  8
0
 10
57.741795
 20
594.328247
  0
VERTEX
  8
0
 10
58.595390
 20
594.219360
  0
VERTEX
  8
0
 10
59.468201
 20
594.136963
  0
VERTEX
  8
0
 10
60.356640
 20
594.080688
  0
VERTEX
  8
0
 10
61.711170
 20
594.045349
  0
VERTEX
  8
0
 10
62.623749
 20
594.054199
  0
VERTEX
  8
0
 10
63.539375
 20
594.088562
  0
VERTEX
  8
0
 10
64.453590
 20
594.148193
  0
VERTEX
  8
0
 10
65.812813
 20
594.283997
  0
VERTEX
  8
0
 10
66.704292
 20
594.404907
  0
VERTEX
  8
0
 10
67.578903
 20
594.549438
  0
VERTEX
  8
0
 10
68.432106
 20
594.717468
  0
VERTEX
  8
0
 10
69.259529
 20
594.908447
  0
VERTEX
  8
0
 10
70.056793
 20
595.121948
  0
VERTEX
  8
0
 10
70.820313
 20
595.357666
  0
VERTEX
  8
0
 10
71.550858
 20
595.614807
  0
VERTEX
  8
0
 10
72.249924
 20
595.892944
  0
VERTEX
  8
0
 10
72.919220
 20
596.191345
  0
VERTEX
  8
0
 10
73.560387
 20
596.509277
  0
VERTEX
  8
0
 10
74.174919
 20
596.846313
  0
VERTEX
  8
0
 10
75.050781
 20
597.386108
  0
VERTEX
  8
0
 10
75.606171
 20
597.767883
  0
VERTEX
  8
0
 10
76.401245
 20
598.372620
  0
VERTEX
  8
0
 10
76.910156
 20
598.800171
  0
VERTEX
  8
0
 10
77.406479
 20
599.250977
  0
VERTEX
  8
0
 10
77.893906
 20
599.728943
  0
VERTEX
  8
0
 10
78.376167
 20
600.237244
  0
VERTEX
  8
0
 10
78.856949
 20
600.779541
  0
VERTEX
  8
0
 10
79.583511
 20
601.664185
  0
VERTEX
  8
0
 10
80.076797
 20
602.306519
  0
VERTEX
  8
0
 10
80.838203
 20
603.356567
  0
VERTEX
  8
0
 10
81.620934
 20
604.507263
  0
VERTEX
  8
0
 10
82.148361
 20
605.325195
  0
VERTEX
  8
0
 10
82.675781
 20
606.180298
  0
VERTEX
  8
0
 10
83.199448
 20
607.069336
  0
VERTEX
  8
0
 10
83.715622
 20
607.989380
  0
VERTEX
  8
0
 10
84.220390
 20
608.937195
  0
VERTEX
  8
0
 10
84.710075
 20
609.909668
  0
VERTEX
  8
0
 10
85.180855
 20
610.903870
  0
VERTEX
  8
0
 10
85.631561
 20
611.918518
  0
VERTEX
  8
0
 10
86.063667
 20
612.953918
  0
VERTEX
  8
0
 10
86.478439
 20
614.010437
  0
VERTEX
  8
0
 10
86.877419
 20
615.088501
  0
VERTEX
  8
0
 10
87.633354
 20
617.311096
  0
VERTEX
  8
0
 10
88.342964
 20
619.624756
  0
VERTEX
  8
0
 10
89.017654
 20
622.031128
  0
VERTEX
  8
0
 10
89.670311
 20
624.516052
  0
VERTEX
  8
0
 10
91.628746
 20
632.218018
  0
VERTEX
  8
0
 10
92.320229
 20
634.782043
  0
VERTEX
  8
0
 10
93.033432
 20
637.269409
  0
VERTEX
  8
0
 10
93.763672
 20
639.623474
  0
VERTEX
  8
0
 10
94.133591
 20
640.732727
  0
VERTEX
  8
0
 10
94.505859
 20
641.787109
  0
VERTEX
  8
0
 10
94.880074
 20
642.780090
  0
VERTEX
  8
0
 10
95.256950
 20
643.710083
  0
VERTEX
  8
0
 10
95.638901
 20
644.581421
  0
VERTEX
  8
0
 10
96.028282
 20
645.398499
  0
VERTEX
  8
0
 10
96.631401
 20
646.532227
  0
VERTEX
  8
0
 10
97.049683
 20
647.233337
  0
VERTEX
  8
0
 10
97.483589
 20
647.895874
  0
VERTEX
  8
0
 10
97.935547
 20
648.524231
  0
VERTEX
  8
0
 10
98.407967
 20
649.122864
  0
VERTEX
  8
0
 10
98.902031
 20
649.695557
  0
VERTEX
  8
0
 10
99.414375
 20
650.242798
  0
VERTEX
  8
0
 10
99.940392
 20
650.764282
  0
VERTEX
  8
0
 10
100.745308
 20
651.497925
  0
VERTEX
  8
0
 10
101.285782
 20
651.954224
  0
VERTEX
  8
0
 10
102.091011
 20
652.588806
  0
VERTEX
  8
0
 10
102.617653
 20
652.978271
  0
VERTEX
  8
0
 10
103.380775
 20
653.511719
  0
VERTEX
  8
0
 10
105.806404
 20
655.109619
  0
VERTEX
  8
0
 10
106.353668
 20
655.516968
  0
VERTEX
  8
0
 10
106.688667
 20
655.797302
  0
VERTEX
  8
0
 10
107.144531
 20
656.244141
  0
VERTEX
  8
0
 10
107.417419
 20
656.573425
  0
VERTEX
  8
0
 10
107.544685
 20
656.752014
  0
VERTEX
  8
0
 10
107.781166
 20
657.144592
  0
VERTEX
  8
0
 10
107.890541
 20
657.361694
  0
VERTEX
  8
0
 10
108.091713
 20
657.844910
  0
VERTEX
  8
0
 10
108.183594
 20
658.114075
  0
VERTEX
  8
0
 10
108.350311
 20
658.715088
  0
VERTEX
  8
0
 10
108.494682
 20
659.409851
  0
VERTEX
  8
0
 10
108.670151
 20
660.654297
  0
VERTEX
  8
0
 10
108.760704
 20
661.631653
  0
VERTEX
  8
0
 10
108.831947
 20
662.716797
  0
VERTEX
  8
0
 10
108.924217
 20
665.145081
  0
VERTEX
  8
0
 10
108.965469
 20
668.496094
  0
VERTEX
  8
0
 10
108.946869
 20
672.644531
  0
VERTEX
  8
0
 10
108.881485
 20
677.302795
  0
VERTEX
  8
0
 10
108.748672
 20
683.716675
  0
VERTEX
  8
0
 10
124.087265
 20
686.704285
  0
VERTEX
  8
0
 10
124.219063
 20
676.859680
  0
VERTEX
  8
0
 10
124.256638
 20
671.575562
  0
VERTEX
  8
0
 10
124.231560
 20
667.208435
  0
VERTEX
  8
0
 10
124.198044
 20
665.560303
  0
VERTEX
  8
0
 10
124.133202
 20
663.623352
  0
VERTEX
  8
0
 10
124.066170
 20
662.269104
  0
VERTEX
  8
0
 10
123.954529
 20
660.640320
  0
VERTEX
  8
0
 10
123.810547
 20
659.124878
  0
VERTEX
  8
0
 10
123.629997
 20
657.702637
  0
VERTEX
  8
0
 10
123.409531
 20
656.354736
  0
VERTEX
  8
0
 10
123.147339
 20
655.062622
  0
VERTEX
  8
0
 10
122.832886
 20
653.773499
  0
VERTEX
  8
0
 10
122.449608
 20
652.476440
  0
VERTEX
  8
0
 10
122.078590
 20
651.424683
  0
VERTEX
  8
0
 10
121.646172
 20
650.376526
  0
VERTEX
  8
0
 10
121.152496
 20
649.356018
  0
VERTEX
  8
0
 10
120.723122
 20
648.579041
  0
VERTEX
  8
0
 10
120.116951
 20
647.612305
  0
VERTEX
  8
0
 10
119.447807
 20
646.679443
  0
VERTEX
  8
0
 10
118.751793
 20
645.817749
  0
VERTEX
  8
0
 10
118.039291
 20
645.023193
  0
VERTEX
  8
0
 10
117.301094
 20
644.273010
  0
VERTEX
  8
0
 10
116.353119
 20
643.395752
  0
VERTEX
  8
0
 10
115.370079
 20
642.569031
  0
VERTEX
  8
0
 10
114.387733
 20
641.812805
  0
VERTEX
  8
0
 10
113.601166
 20
641.250122
  0
VERTEX
  8
0
 10
112.599838
 20
640.582886
  0
VERTEX
  8
0
 10
110.215157
 20
639.118713
  0
VERTEX
  8
0
 10
109.944839
 20
638.931641
  0
VERTEX
  8
0
 10
109.973358
 20
638.928650
  0
VERTEX
  8
0
 10
109.979218
 20
638.937073
  0
VERTEX
  8
0
 10
109.865234
 20
638.752747
  0
VERTEX
  8
0
 10
109.738510
 20
638.524048
  0
VERTEX
  8
0
 10
109.589844
 20
638.229126
  0
VERTEX
  8
0
 10
109.426720
 20
637.875610
  0
VERTEX
  8
0
 10
109.247108
 20
637.453125
  0
VERTEX
  8
0
 10
109.053123
 20
636.961365
  0
VERTEX
  8
0
 10
108.757500
 20
636.155396
  0
VERTEX
  8
0
 10
108.246872
 20
634.644287
  0
VERTEX
  8
0
 10
107.672028
 20
632.762329
  0
VERTEX
  8
0
 10
107.256485
 20
631.269043
  0
VERTEX
  8
0
 10
106.797104
 20
629.488586
  0
VERTEX
  8
0
 10
105.238907
 20
622.978210
  0
VERTEX
  8
0
 10
104.384453
 20
619.580994
  0
VERTEX
  8
0
 10
103.814995
 20
617.481323
  0
VERTEX
  8
0
 10
103.412109
 20
616.079041
  0
VERTEX
  8
0
 10
102.995392
 20
614.692932
  0
VERTEX
  8
0
 10
102.356720
 20
612.682861
  0
VERTEX
  8
0
 10
101.689766
 20
610.717773
  0
VERTEX
  8
0
 10
101.000702
 20
608.819275
  0
VERTEX
  8
0
 10
100.297577
 20
607.013123
  0
VERTEX
  8
0
 10
99.807892
 20
605.830627
  0
VERTEX
  8
0
 10
99.310699
 20
604.689331
  0
VERTEX
  8
0
 10
98.573906
 20
603.100403
  0
VERTEX
  8
0
 10
97.817886
 20
601.584534
  0
VERTEX
  8
0
 10
97.052185
 20
600.152344
  0
VERTEX
  8
0
 10
96.279762
 20
598.797729
  0
VERTEX
  8
0
 10
95.501640
 20
597.510559
  0
VERTEX
  8
0
 10
94.707344
 20
596.265686
  0
VERTEX
  8
0
 10
93.880386
 20
595.042969
  0
VERTEX
  8
0
 10
93.011719
 20
593.838318
  0
VERTEX
  8
0
 10
92.095314
 20
592.653442
  0
VERTEX
  8
0
 10
91.143280
 20
591.510071
  0
VERTEX
  8
0
 10
90.449921
 20
590.728882
  0
VERTEX
  8
0
 10
89.731094
 20
589.960449
  0
VERTEX
  8
0
 10
88.658669
 20
588.885864
  0
VERTEX
  8
0
 10
87.526794
 20
587.834900
  0
VERTEX
  8
0
 10
86.356949
 20
586.828674
  0
VERTEX
  8
0
 10
85.172501
 20
585.886169
  0
VERTEX
  8
0
 10
84.307182
 20
585.242798
  0
VERTEX
  8
0
 10
83.091484
 20
584.401367
  0
VERTEX
  8
0
 10
82.181252
 20
583.818359
  0
VERTEX
  8
0
 10
80.910858
 20
583.070923
  0
VERTEX
  8
0
 10
79.948280
 20
582.554993
  0
VERTEX
  8
0
 10
78.615387
 20
581.909668
  0
VERTEX
  8
0
 10
77.603516
 20
581.471069
  0
VERTEX
  8
0
 10
76.208908
 20
580.934814
  0
VERTEX
  8
0
 10
75.186562
 20
580.589661
  0
VERTEX
  8
0
 10
74.157654
 20
580.278992
  0
VERTEX
  8
0
 10
72.706718
 20
579.899597
  0
VERTEX
  8
0
 10
71.655937
 20
579.662659
  0
VERTEX
  8
0
 10
70.189842
 20
579.378601
  0
VERTEX
  8
0
 10
68.713593
 20
579.142944
  0
VERTEX
  8
0
 10
67.258980
 20
578.955505
  0
VERTEX
  8
0
 10
65.830544
 20
578.811646
  0
VERTEX
  8
0
 10
64.423752
 20
578.707397
  0
VERTEX
  8
0
 10
63.025623
 20
578.642517
  0
VERTEX
  8
0
 10
61.631172
 20
578.617493
  0
VERTEX
  8
0
 10
60.218906
 20
578.633118
  0
VERTEX
  8
0
 10
58.396717
 20
578.714600
  0
VERTEX
  8
0
 10
56.962654
 20
578.825745
  0
VERTEX
  8
0
 10
55.491562
 20
578.984802
  0
VERTEX
  8
0
 10
53.978279
 20
579.206177
  0
VERTEX
  8
0
 10
52.847500
 20
579.414307
  0
VERTEX
  8
0
 10
51.259609
 20
579.775146
  0
VERTEX
  8
0
 10
50.054138
 20
580.106934
  0
VERTEX
  8
0
 10
48.395077
 20
580.652100
  0
VERTEX
  8
0
 10
47.192577
 20
581.116455
  0
VERTEX
  8
0
 10
46.041485
 20
581.614807
  0
VERTEX
  8
0
 10
44.913593
 20
582.153748
  0
VERTEX
  8
0
 10
43.809063
 20
582.729919
  0
VERTEX
  8
0
 10
42.728279
 20
583.340759
  0
VERTEX
  8
0
 10
41.644375
 20
584.001099
  0
VERTEX
  8
0
 10
40.165154
 20
584.987305
  0
VERTEX
  8
0
 10
39.151875
 20
585.725708
  0
VERTEX
  8
0
 10
38.197811
 20
586.473267
  0
VERTEX
  8
0
 10
37.287811
 20
587.241577
  0
VERTEX
  8
0
 10
36.429764
 20
588.020386
  0
VERTEX
  8
0
 10
35.602501
 20
588.824829
  0
VERTEX
  8
0
 10
34.530392
 20
589.954224
  0
VERTEX
  8
0
 10
33.810703
 20
590.770081
  0
VERTEX
  8
0
 10
32.885704
 20
591.888367
  0
VERTEX
  8
0
 10
32.022110
 20
593.002319
  0
VERTEX
  8
0
 10
30.995155
 20
594.405212
  0
VERTEX
  8
0
 10
30.240623
 20
595.488708
  0
VERTEX
  8
0
 10
29.304453
 20
596.898865
  0
VERTEX
  8
0
 10
28.399452
 20
598.332092
  0
VERTEX
  8
0
 10
27.513906
 20
599.796936
  0
VERTEX
  8
0
 10
26.611250
 20
601.357300
  0
VERTEX
  8
0
 10
25.877733
 20
602.703796
  0
VERTEX
  8
0
 10
25.117579
 20
604.192261
  0
VERTEX
  8
0
 10
24.565859
 20
605.334961
  0
VERTEX
  8
0
 10
23.731483
 20
607.162109
  0
VERTEX
  8
0
 10
23.116327
 20
608.580505
  0
VERTEX
  8
0
 10
21.837734
 20
611.693665
  0
VERTEX
  8
0
 10
20.128515
 20
616.085449
  0
VERTEX
  8
0
 10
18.106483
 20
621.485718
  0
VERTEX
  8
0
 10
15.867499
 20
627.643555
  0
VERTEX
  8
0
 10
14.817031
 20
630.606873
  0
VERTEX
  8
0
 10
13.986328
 20
633.008972
  0
VERTEX
  8
0
 10
12.300000
 20
638.107483
  0
VERTEX
  8
0
 10
12.080937
 20
638.705933
  0
VERTEX
  8
0
 10
11.994687
 20
638.909912
  0
VERTEX
  8
0
 10
11.865937
 20
639.162415
  0
VERTEX
  8
0
 10
11.753828
 20
639.345398
  0
VERTEX
  8
0
 10
11.493515
 20
639.718323
  0
VERTEX
  8
0
 10
11.058125
 20
640.286133
  0
VERTEX
  8
0
 10
10.490781
 20
640.982117
  0
VERTEX
  8
0
 10
9.663437
 20
641.947876
  0
VERTEX
  8
0
 10
8.994375
 20
642.697632
  0
VERTEX
  8
0
 10
7.032734
 20
644.841248
  0
VERTEX
  8
0
 10
6.169297
 20
645.890015
  0
VERTEX
  8
0
 10
5.507031
 20
646.796326
  0
VERTEX
  8
0
 10
5.045938
 20
647.498840
  0
VERTEX
  8
0
 10
4.626797
 20
648.200439
  0
VERTEX
  8
0
 10
4.234531
 20
648.924194
  0
VERTEX
  8
0
 10
3.869609
 20
649.667969
  0
VERTEX
  8
0
 10
3.532109
 20
650.430908
  0
VERTEX
  8
0
 10
3.195469
 20
651.277954
  0
VERTEX
  8
0
 10
2.678906
 20
652.817566
  0
VERTEX
  8
0
 10
2.246484
 20
654.465820
  0
VERTEX
  8
0
 10
1.971563
 20
655.798889
  0
VERTEX
  8
0
 10
1.746719
 20
657.168335
  0
VERTEX
  8
0
 10
1.518125
 20
659.020386
  0
VERTEX
  8
0
 10
1.377187
 20
660.567017
  0
VERTEX
  8
0
 10
1.232500
 20
662.741028
  0
VERTEX
  8
0
 10
1.121562
 20
665.155457
  0
VERTEX
  8
0
 10
1.059766
 20
667.111755
  0
VERTEX
  8
0
 10
1.010703
 20
669.786926
  0
VERTEX
  8
0
 10
1.000000
 20
671.843140
  0
VERTEX
  8
0
 10
1.014531
 20
673.878723
  0
VERTEX
  8
0
 10
1.056016
 20
675.858521
  0
VERTEX
  8
0
 10
1.122422
 20
677.768433
  0
VERTEX
  8
0
 10
1.240547
 20
680.200989
  0
VERTEX
  8
0
 10
1.588672
 20
685.594299
  0
VERTEX
  8
0
 10
16.888985
 20
683.967590
  0
SEQEND
  8
0
  0
POLYLINE
  8
0
  0
VERTEX
  8
0
 10
116.107338
 20
685.149963
  0
VERTEX
  8
0
 10
116.219376
 20
676.777710
  0
VERTEX
  8
0
 10
116.256485
 20
671.570068
  0
VERTEX
  8
0
 10
116.232025
 20
667.312744
  0
VERTEX
  8
0
 10
116.200699
 20
665.775391
  0
VERTEX
  8
0
 10
116.139839
 20
663.954834
  0
VERTEX
  8
0
 10
116.079681
 20
662.740479
  0
VERTEX
  8
0
 10
115.980385
 20
661.292175
  0
VERTEX
  8
0
 10
115.858360
 20
660.007019
  0
VERTEX
  8
0
 10
115.711876
 20
658.852539
  0
VERTEX
  8
0
 10
115.538979
 20
657.796570
  0
VERTEX
  8
0
 10
115.338203
 20
656.806519
  0
VERTEX
  8
0
 10
115.106407
 20
655.856140
  0
VERTEX
  8
0
 10
114.836327
 20
654.942322
  0
VERTEX
  8
0
 10
114.603668
 20
654.282776
  0
VERTEX
  8
0
 10
114.341248
 20
653.646729
  0
VERTEX
  8
0
 10
114.045464
 20
653.035278
  0
VERTEX
  8
0
 10
113.828125
 20
652.641968
  0
VERTEX
  8
0
 10
113.471481
 20
652.073181
  0
VERTEX
  8
0
 10
113.080544
 20
651.528198
  0
VERTEX
  8
0
 10
112.658119
 20
651.005249
  0
VERTEX
  8
0
 10
112.207108
 20
650.502258
  0
VERTEX
  8
0
 10
111.730156
 20
650.017456
  0
VERTEX
  8
0
 10
111.058823
 20
649.396301
  0
VERTEX
  8
0
 10
110.353043
 20
648.802734
  0
VERTEX
  8
0
 10
109.619293
 20
648.237854
  0
VERTEX
  8
0
 10
109.054375
 20
647.833862
  0
VERTEX
  8
0
 10
108.287025
 20
647.322388
  0
VERTEX
  8
0
 10
105.814919
 20
645.804688
  0
VERTEX
  8
0
 10
105.130310
 20
645.322571
  0
VERTEX
  8
0
 10
104.661873
 20
644.937073
  0
VERTEX
  8
0
 10
104.373589
 20
644.665771
  0
VERTEX
  8
0
 10
104.102966
 20
644.382813
  0
VERTEX
  8
0
 10
103.848511
 20
644.088318
  0
VERTEX
  8
0
 10
103.493439
 20
643.625061
  0
VERTEX
  8
0
 10
103.272186
 20
643.301941
  0
VERTEX
  8
0
 10
102.959686
 20
642.796143
  0
VERTEX
  8
0
 10
102.665390
 20
642.265015
  0
VERTEX
  8
0
 10
102.384216
 20
641.707336
  0
VERTEX
  8
0
 10
102.111717
 20
641.117004
  0
VERTEX
  8
0
 10
101.843666
 20
640.486145
  0
VERTEX
  8
0
 10
101.575699
 20
639.807190
  0
VERTEX
  8
0
 10
101.211327
 20
638.813599
  0
VERTEX
  8
0
 10
100.630234
 20
637.093872
  0
VERTEX
  8
0
 10
99.991798
 20
635.003479
  0
VERTEX
  8
0
 10
99.529060
 20
633.341003
  0
VERTEX
  8
0
 10
99.033279
 20
631.419189
  0
VERTEX
  8
0
 10
97.469292
 20
624.885010
  0
VERTEX
  8
0
 10
96.644058
 20
621.603882
  0
VERTEX
  8
0
 10
96.109528
 20
619.632935
  0
VERTEX
  8
0
 10
95.736717
 20
618.335205
  0
VERTEX
  8
0
 10
95.352104
 20
617.055847
  0
VERTEX
  8
0
 10
94.756088
 20
615.179993
  0
VERTEX
  8
0
 10
94.141251
 20
613.368591
  0
VERTEX
  8
0
 10
93.512108
 20
611.635437
  0
VERTEX
  8
0
 10
92.873436
 20
609.994568
  0
VERTEX
  8
0
 10
92.444527
 20
608.958740
  0
VERTEX
  8
0
 10
92.013901
 20
607.970215
  0
VERTEX
  8
0
 10
91.364220
 20
606.569275
  0
VERTEX
  8
0
 10
90.709373
 20
605.256409
  0
VERTEX
  8
0
 10
90.048515
 20
604.020142
  0
VERTEX
  8
0
 10
89.380775
 20
602.849121
  0
VERTEX
  8
0
 10
88.705467
 20
601.731995
  0
VERTEX
  8
0
 10
88.020622
 20
600.658752
  0
VERTEX
  8
0
 10
87.321251
 20
599.624573
  0
VERTEX
  8
0
 10
86.601563
 20
598.626709
  0
VERTEX
  8
0
 10
85.855156
 20
597.661560
  0
VERTEX
  8
0
 10
85.076324
 20
596.726257
  0
VERTEX
  8
0
 10
84.536095
 20
596.117615
  0
VERTEX
  8
0
 10
83.977028
 20
595.519836
  0
VERTEX
  8
0
 10
83.103828
 20
594.644897
  0
VERTEX
  8
0
 10
82.194687
 20
593.800842
  0
VERTEX
  8
0
 10
81.255859
 20
592.993286
  0
VERTEX
  8
0
 10
80.293907
 20
592.227722
  0
VERTEX
  8
0
 10
79.642731
 20
591.743652
  0
VERTEX
  8
0
 10
78.656174
 20
591.060852
  0
VERTEX
  8
0
 10
77.993980
 20
590.636658
  0
VERTEX
  8
0
 10
76.991325
 20
590.046814
  0
VERTEX
  8
0
 10
76.313980
 20
589.683838
  0
VERTEX
  8
0
 10
75.279999
 20
589.183105
  0
VERTEX
  8
0
 10
74.575859
 20
588.877869
  0
VERTEX
  8
0
 10
73.492729
 20
588.461487
  0
VERTEX
  8
0
 10
72.750076
 20
588.210693
  0
VERTEX
  8
0
 10
71.988670
 20
587.980774
  0
VERTEX
  8
0
 10
70.814293
 20
587.673767
  0
VERTEX
  8
0
 10
70.014610
 20
587.493347
  0
VERTEX
  8
0
 10
68.798126
 20
587.257629
  0
VERTEX
  8
0
 10
67.571716
 20
587.061951
  0
VERTEX
  8
0
 10
66.346558
 20
586.904053
  0
VERTEX
  8
0
 10
65.134140
 20
586.781921
  0
VERTEX
  8
0
 10
63.942654
 20
586.693726
  0
VERTEX
  8
0
 10
62.768280
 20
586.639221
  0
VERTEX
  8
0
 10
61.603672
 20
586.618286
  0
VERTEX
  8
0
 10
60.441875
 20
586.631104
  0
VERTEX
  8
0
 10
58.884842
 20
586.700745
  0
VERTEX
  8
0
 10
57.701874
 20
586.792542
  0
VERTEX
  8
0
 10
56.500778
 20
586.922302
  0
VERTEX
  8
0
 10
55.281406
 20
587.100708
  0
VERTEX
  8
0
 10
54.458359
 20
587.252075
  0
VERTEX
  8
0
 10
53.208748
 20
587.536072
  0
VERTEX
  8
0
 10
52.365780
 20
587.768250
  0
VERTEX
  8
0
 10
51.086407
 20
588.188599
  0
VERTEX
  8
0
 10
50.223827
 20
588.521729
  0
VERTEX
  8
0
 10
49.356251
 20
588.897278
  0
VERTEX
  8
0
 10
48.489296
 20
589.311523
  0
VERTEX
  8
0
 10
47.628201
 20
589.760681
  0
VERTEX
  8
0
 10
46.778671
 20
590.240845
  0
VERTEX
  8
0
 10
45.946247
 20
590.748047
  0
VERTEX
  8
0
 10
44.741718
 20
591.551025
  0
VERTEX
  8
0
 10
43.976170
 20
592.108948
  0
VERTEX
  8
0
 10
43.246952
 20
592.680237
  0
VERTEX
  8
0
 10
42.558357
 20
593.261658
  0
VERTEX
  8
0
 10
41.908516
 20
593.851563
  0
VERTEX
  8
0
 10
41.294373
 20
594.448730
  0
VERTEX
  8
0
 10
40.433044
 20
595.356079
  0
VERTEX
  8
0
 10
39.894062
 20
595.966919
  0
VERTEX
  8
0
 10
39.130859
 20
596.889771
  0
VERTEX
  8
0
 10
38.412342
 20
597.816711
  0
VERTEX
  8
0
 10
37.506172
 20
599.054443
  0
VERTEX
  8
0
 10
36.856483
 20
599.987427
  0
VERTEX
  8
0
 10
36.019844
 20
601.247559
  0
VERTEX
  8
0
 10
35.205391
 20
602.537476
  0
VERTEX
  8
0
 10
34.399998
 20
603.869568
  0
VERTEX
  8
0
 10
33.587341
 20
605.274536
  0
VERTEX
  8
0
 10
32.953827
 20
606.437317
  0
VERTEX
  8
0
 10
32.282967
 20
607.750977
  0
VERTEX
  8
0
 10
31.807421
 20
608.736023
  0
VERTEX
  8
0
 10
31.040468
 20
610.415466
  0
VERTEX
  8
0
 10
30.486952
 20
611.692017
  0
VERTEX
  8
0
 10
29.266092
 20
614.664185
  0
VERTEX
  8
0
 10
27.602577
 20
618.938904
  0
VERTEX
  8
0
 10
25.611874
 20
624.255310
  0
VERTEX
  8
0
 10
23.396952
 20
630.347046
  0
VERTEX
  8
0
 10
22.367579
 20
633.250610
  0
VERTEX
  8
0
 10
21.564688
 20
635.572388
  0
VERTEX
  8
0
 10
19.855782
 20
640.739075
  0
VERTEX
  8
0
 10
19.526093
 20
641.639832
  0
VERTEX
  8
0
 10
19.251562
 20
642.289307
  0
VERTEX
  8
0
 10
18.850937
 20
643.074585
  0
VERTEX
  8
0
 10
18.451094
 20
643.727783
  0
VERTEX
  8
0
 10
17.950937
 20
644.444153
  0
VERTEX
  8
0
 10
17.334297
 20
645.248413
  0
VERTEX
  8
0
 10
16.629843
 20
646.112488
  0
VERTEX
  8
0
 10
15.686484
 20
647.213806
  0
VERTEX
  8
0
 10
14.929999
 20
648.061646
  0
VERTEX
  8
0
 10
13.075859
 20
650.087646
  0
VERTEX
  8
0
 10
12.492344
 20
650.796448
  0
VERTEX
  8
0
 10
12.084687
 20
651.354187
  0
VERTEX
  8
0
 10
11.827031
 20
651.746887
  0
VERTEX
  8
0
 10
11.580468
 20
652.159607
  0
VERTEX
  8
0
 10
11.345234
 20
652.593506
  0
VERTEX
  8
0
 10
11.121718
 20
653.049133
  0
VERTEX
  8
0
 10
10.910078
 20
653.527649
  0
VERTEX
  8
0
 10
10.710625
 20
654.029602
  0
VERTEX
  8
0
 10
10.348828
 20
655.107727
  0
VERTEX
  8
0
 10
10.038593
 20
656.290222
  0
VERTEX
  8
0
 10
9.839531
 20
657.255554
  0
VERTEX
  8
0
 10
9.666875
 20
658.306702
  0
VERTEX
  8
0
 10
9.473516
 20
659.873413
  0
VERTEX
  8
0
 10
9.353046
 20
661.195862
  0
VERTEX
  8
0
 10
9.220312
 20
663.190369
  0
VERTEX
  8
0
 10
9.115781
 20
665.465210
  0
VERTEX
  8
0
 10
9.057422
 20
667.311462
  0
VERTEX
  8
0
 10
9.010234
 20
669.880981
  0
VERTEX
  8
0
 10
9.000156
 20
671.835205
  0
VERTEX
  8
0
 10
9.013984
 20
673.766418
  0
VERTEX
  8
0
 10
9.053124
 20
675.635620
  0
VERTEX
  8
0
 10
9.115703
 20
677.435425
  0
VERTEX
  8
0
 10
9.228046
 20
679.749390
  0
VERTEX
  8
0
 10
9.550625
 20
684.747803
  0
SEQEND
  8
0
  0
POLYLINE
  8
0
  0
VERTEX
  8
0
 10
96.596405
 20
627.845154
  0
VERTEX
  8
0
 10
95.664215
 20
631.814880
  0
VERTEX
  8
0
 10
93.526955
 20
628.974976
  0
VERTEX
  8
0
 10
96.598984
 20
627.772400
  0
SEQEND
  8
0
  0
POLYLINE
  8
0
  0
VERTEX
  8
0
 10
62.112576
 20
591.258423
  0
VERTEX
  8
0
 10
61.637810
 20
591.146606
  0
VERTEX
  8
0
 10
61.242031
 20
590.861633
  0
VERTEX
  8
0
 10
60.985310
 20
590.446960
  0
VERTEX
  8
0
 10
60.906952
 20
589.965515
  0
VERTEX
  8
0
 10
61.018669
 20
589.490784
  0
VERTEX
  8
0
 10
61.303669
 20
589.094971
  0
VERTEX
  8
0
 10
61.718437
 20
588.838318
  0
VERTEX
  8
0
 10
62.199841
 20
588.759888
  0
VERTEX
  8
0
 10
62.674530
 20
588.871704
  0
VERTEX
  8
0
 10
63.070313
 20
589.156616
  0
VERTEX
  8
0
 10
63.327030
 20
589.571411
  0
VERTEX
  8
0
 10
63.405468
 20
590.052795
  0
VERTEX
  8
0
 10
63.293671
 20
590.527588
  0
VERTEX
  8
0
 10
63.008671
 20
590.923340
  0
VERTEX
  8
0
 10
62.593906
 20
591.179993
  0
VERTEX
  8
0
 10
62.112576
 20
591.258423
  0
SEQEND
  8
0
  0
POLYLINE
  8
0
  0
VERTEX
  8
0
 10
141.820465
 20
2.279922
  0
VERTEX
  8
0
 10
154.897568
 20
1.611641
  0
VERTEX
  8
0
 10
159.954834
 20
1.387500
  0
VERTEX
  8
0
 10
163.636642
 20
1.247031
  0
VERTEX
  8
0
 10
168.371017
 20
1.105937
  0
VERTEX
  8
0
 10
171.836868
 20
1.037422
  0
VERTEX
  8
0
 10
175.294769
 20
1.001719
  0
VERTEX
  8
0
 10
178.803741
 20
0.999844
  0
VERTEX
  8
0
 10
182.422653
 20
1.032500
  0
VERTEX
  8
0
 10
187.519836
 20
1.131250
  0
VERTEX
  8
0
 10
192.981873
 20
1.296641
  0
VERTEX
  8
0
 10
197.272339
 20
1.468906
  0
VERTEX
  8
0
 10
201.685226
 20
1.685937
  0
VERTEX
  8
0
 10
206.181015
 20
1.951172
  0
VERTEX
  8
0
 10
210.720306
 20
2.267656
  0
VERTEX
  8
0
 10
215.268280
 20
2.638906
  0
VERTEX
  8
0
 10
218.311325
 20
2.918906
  0
VERTEX
  8
0
 10
221.380936
 20
3.226640
  0
VERTEX
  8
0
 10
224.492111
 20
3.563594
  0
VERTEX
  8
0
 10
227.660233
 20
3.931328
  0
VERTEX
  8
0
 10
230.900467
 20
4.331328
  0
VERTEX
  8
0
 10
234.228119
 20
4.765000
  0
VERTEX
  8
0
 10
237.658356
 20
5.233984
  0
VERTEX
  8
0
 10
243.028900
 20
6.006562
  0
VERTEX
  8
0
 10
248.677567
 20
6.858984
  0
VERTEX
  8
0
 10
254.560623
 20
7.776484
  0
VERTEX
  8
0
 10
268.923889
 20
10.082343
  0
VERTEX
  8
0
 10
285.797180
 20
12.797812
  0
VERTEX
  8
0
 10
300.606171
 20
15.141796
  0
VERTEX
  8
0
 10
315.428192
 20
17.468594
  0
VERTEX
  8
0
 10
307.848419
 20
24.084297
  0
VERTEX
  8
0
 10
303.335144
 20
28.001640
  0
VERTEX
  8
0
 10
299.141876
 20
31.608280
  0
VERTEX
  8
0
 10
295.350372
 20
34.821640
  0
VERTEX
  8
0
 10
291.877167
 20
37.707577
  0
VERTEX
  8
0
 10
288.597015
 20
40.369061
  0
VERTEX
  8
0
 10
285.386169
 20
42.907497
  0
VERTEX
  8
0
 10
282.170624
 20
45.380154
  0
VERTEX
  8
0
 10
280.234589
 20
46.831562
  0
VERTEX
  8
0
 10
278.291962
 20
48.257656
  0
VERTEX
  8
0
 10
275.036560
 20
50.574844
  0
VERTEX
  8
0
 10
271.781403
 20
52.797344
  0
VERTEX
  8
0
 10
268.657898
 20
54.841248
  0
VERTEX
  8
0
 10
265.824829
 20
56.607029
  0
VERTEX
  8
0
 10
264.330292
 20
57.491562
  0
VERTEX
  8
0
 10
263.437653
 20
57.997185
  0
VERTEX
  8
0
 10
262.623657
 20
58.438515
  0
VERTEX
  8
0
 10
261.531952
 20
58.992500
  0
VERTEX
  8
0
 10
260.570068
 20
59.434296
  0
VERTEX
  8
0
 10
259.709595
 20
59.782967
  0
VERTEX
  8
0
 10
258.922089
 20
60.058044
  0
VERTEX
  8
0
 10
258.179535
 20
60.278515
  0
VERTEX
  8
0
 10
257.455933
 20
60.455780
  0
VERTEX
  8
0
 10
256.973267
 20
60.549530
  0
VERTEX
  8
0
 10
256.232971
 20
60.651875
  0
VERTEX
  8
0
 10
255.719208
 20
60.693516
  0
VERTEX
  8
0
 10
255.182022
 20
60.713280
  0
VERTEX
  8
0
 10
254.614914
 20
60.710545
  0
VERTEX
  8
0
 10
253.694061
 20
60.662731
  0
VERTEX
  8
0
 10
253.025070
 20
60.600468
  0
VERTEX
  8
0
 10
251.932968
 20
60.456875
  0
VERTEX
  8
0
 10
251.144211
 20
60.324219
  0
VERTEX
  8
0
 10
250.305389
 20
60.159218
  0
VERTEX
  8
0
 10
249.415390
 20
59.959606
  0
VERTEX
  8
0
 10
248.473038
 20
59.723125
  0
VERTEX
  8
0
 10
247.477188
 20
59.447422
  0
VERTEX
  8
0
 10
245.880310
 20
58.955311
  0
VERTEX
  8
0
 10
244.745544
 20
58.572109
  0
VERTEX
  8
0
 10
243.553268
 20
58.146404
  0
VERTEX
  8
0
 10
241.655380
 20
57.433514
  0
VERTEX
  8
0
 10
238.915695
 20
56.357498
  0
VERTEX
  8
0
 10
228.342804
 20
52.112888
  0
VERTEX
  8
0
 10
220.272491
 20
48.942966
  0
VERTEX
  8
0
 10
216.026321
 20
47.307186
  0
VERTEX
  8
0
 10
212.163513
 20
45.846485
  0
VERTEX
  8
0
 10
208.777649
 20
44.596794
  0
VERTEX
  8
0
 10
205.957489
 20
43.592499
  0
VERTEX
  8
0
 10
204.158752
 20
42.986015
  0
VERTEX
  8
0
 10
203.050156
 20
42.642811
  0
VERTEX
  8
0
 10
202.103516
 20
42.386013
  0
VERTEX
  8
0
 10
201.278351
 20
42.207344
  0
VERTEX
  8
0
 10
200.534683
 20
42.098438
  0
VERTEX
  8
0
 10
200.064285
 20
42.060547
  0
VERTEX
  8
0
 10
199.600784
 20
42.047421
  0
VERTEX
  8
0
 10
198.906479
 20
42.071404
  0
VERTEX
  8
0
 10
198.444061
 20
42.115391
  0
VERTEX
  8
0
 10
197.981949
 20
42.181171
  0
VERTEX
  8
0
 10
197.520081
 20
42.268204
  0
VERTEX
  8
0
 10
197.058121
 20
42.375782
  0
VERTEX
  8
0
 10
196.134369
 20
42.650234
  0
VERTEX
  8
0
 10
195.208588
 20
43.001015
  0
VERTEX
  8
0
 10
194.737183
 20
43.211720
  0
VERTEX
  8
0
 10
194.250458
 20
43.455078
  0
VERTEX
  8
0
 10
193.740784
 20
43.738670
  0
VERTEX
  8
0
 10
193.200775
 20
44.069763
  0
VERTEX
  8
0
 10
192.317184
 20
44.671482
  0
VERTEX
  8
0
 10
191.322815
 20
45.421326
  0
VERTEX
  8
0
 10
190.192657
 20
46.343826
  0
VERTEX
  8
0
 10
188.923508
 20
47.441013
  0
VERTEX
  8
0
 10
187.069839
 20
49.120075
  0
VERTEX
  8
0
 10
185.602570
 20
50.496014
  0
VERTEX
  8
0
 10
183.608826
 20
52.419685
  0
VERTEX
  8
0
 10
182.129608
 20
53.883827
  0
VERTEX
  8
0
 10
180.695618
 20
55.332500
  0
VERTEX
  8
0
 10
174.141556
 20
62.087498
  0
VERTEX
  8
0
 10
172.522568
 20
63.700935
  0
VERTEX
  8
0
 10
170.953125
 20
65.226639
  0
VERTEX
  8
0
 10
167.637100
 20
68.357735
  0
VERTEX
  8
0
 10
160.250229
 20
75.185471
  0
VERTEX
  8
0
 10
159.349915
 20
75.974609
  0
VERTEX
  8
0
 10
158.593674
 20
76.586090
  0
VERTEX
  8
0
 10
157.807892
 20
77.155548
  0
VERTEX
  8
0
 10
157.174133
 20
77.550545
  0
VERTEX
  8
0
 10
156.549683
 20
77.865860
  0
VERTEX
  8
0
 10
156.244919
 20
77.986252
  0
VERTEX
  8
0
 10
155.946396
 20
78.078354
  0
VERTEX
  8
0
 10
155.652023
 20
78.141953
  0
VERTEX
  8
0
 10
155.358826
 20
78.177109
  0
VERTEX
  8
0
 10
154.914139
 20
78.177185
  0
VERTEX
  8
0
 10
154.610153
 20
78.142342
  0
VERTEX
  8
0
 10
154.296631
 20
78.079918
  0
VERTEX
  8
0
 10
153.970627
 20
77.990158
  0
VERTEX
  8
0
 10
153.451096
 20
77.804527
  0
VERTEX
  8
0
 10
152.686554
 20
77.462730
  0
VERTEX
  8
0
 10
151.584991
 20
76.882027
  0
VERTEX
  8
0
 10
149.993820
 20
75.956169
  0
VERTEX
  8
0
 10
146.957581
 20
74.113205
  0
VERTEX
  8
0
 10
142.831711
 20
71.569527
  0
VERTEX
  8
0
 10
140.548126
 20
70.131485
  0
VERTEX
  8
0
 10
139.715469
 20
69.576714
  0
VERTEX
  8
0
 10
138.981720
 20
69.052345
  0
VERTEX
  8
0
 10
138.354599
 20
68.553589
  0
VERTEX
  8
0
 10
137.841797
 20
68.076012
  0
VERTEX
  8
0
 10
137.566406
 20
67.766716
  0
VERTEX
  8
0
 10
137.247345
 20
67.310860
  0
VERTEX
  8
0
 10
137.030701
 20
66.856720
  0
VERTEX
  8
0
 10
136.904678
 20
66.395386
  0
VERTEX
  8
0
 10
136.865158
 20
66.079376
  0
VERTEX
  8
0
 10
136.863983
 20
65.586479
  0
VERTEX
  8
0
 10
136.921875
 20
65.062737
  0
VERTEX
  8
0
 10
137.030075
 20
64.503044
  0
VERTEX
  8
0
 10
137.184372
 20
63.907810
  0
VERTEX
  8
0
 10
137.380615
 20
63.277733
  0
VERTEX
  8
0
 10
137.614914
 20
62.613514
  0
VERTEX
  8
0
 10
137.883286
 20
61.915936
  0
VERTEX
  8
0
 10
138.288284
 20
60.933826
  0
VERTEX
  8
0
 10
138.888351
 20
59.560078
  0
VERTEX
  8
0
 10
142.663361
 20
51.237343
  0
VERTEX
  8
0
 10
144.869064
 20
46.248047
  0
VERTEX
  8
0
 10
145.605316
 20
44.525311
  0
VERTEX
  8
0
 10
146.246948
 20
42.975079
  0
VERTEX
  8
0
 10
146.799606
 20
41.583435
  0
VERTEX
  8
0
 10
147.422180
 20
39.921482
  0
VERTEX
  8
0
 10
147.821091
 20
38.780388
  0
VERTEX
  8
0
 10
148.288742
 20
37.340782
  0
VERTEX
  8
0
 10
148.607727
 20
36.283672
  0
VERTEX
  8
0
 10
148.898041
 20
35.220703
  0
VERTEX
  8
0
 10
149.146713
 20
34.135780
  0
VERTEX
  8
0
 10
149.283051
 20
33.392498
  0
VERTEX
  8
0
 10
149.391251
 20
32.627655
  0
VERTEX
  8
0
 10
149.467499
 20
31.836327
  0
VERTEX
  8
0
 10
149.507965
 20
31.013906
  0
VERTEX
  8
0
 10
149.513596
 20
30.589609
  0
VERTEX
  8
0
 10
149.493271
 20
29.711718
  0
VERTEX
  8
0
 10
149.430618
 20
28.794531
  0
VERTEX
  8
0
 10
149.327499
 20
27.839687
  0
VERTEX
  8
0
 10
149.185852
 20
26.849531
  0
VERTEX
  8
0
 10
148.905777
 20
25.302422
  0
VERTEX
  8
0
 10
148.676788
 20
24.232889
  0
VERTEX
  8
0
 10
148.275070
 20
22.576563
  0
VERTEX
  8
0
 10
147.641327
 20
20.281952
  0
VERTEX
  8
0
 10
146.918045
 20
17.918360
  0
VERTEX
  8
0
 10
146.144211
 20
15.543047
  0
VERTEX
  8
0
 10
143.764999
 20
8.457812
  0
VERTEX
  8
0
 10
142.881332
 20
5.697031
  0
VERTEX
  8
0
 10
141.820465
 20
2.279922
  0
VERTEX
  8
0
 10
141.820465
 20
2.279922
  0
SEQEND
  8
0
  0
POLYLINE
  8
0
  0
VERTEX
  8
0
 10
146.717575
 20
62.482578
  0
VERTEX
  8
0
 10
157.366013
 20
66.560387
  0
SEQEND
  8
0
  0
POLYLINE
  8
0
  0
VERTEX
  8
0
 10
147.720627
 20
46.284607
  0
VERTEX
  8
0
 10
151.913437
 20
48.070702
  0
SEQEND
  8
0
  0
POLYLINE
  8
0
  0
VERTEX
  8
0
 10
168.377182
 20
56.964844
  0
VERTEX
  8
0
 10
172.861633
 20
59.162498
  0
SEQEND
  8
0
  0
POLYLINE
  8
0
  0
VERTEX
  8
0
 10
275.543915
 20
42.730232
  0
VERTEX
  8
0
 10
261.708435
 20
37.374218
  0
VERTEX
  8
0
 10
245.376877
 20
31.077108
  0
VERTEX
  8
0
 10
235.614059
 20
27.279219
  0
VERTEX
  8
0
 10
229.227417
 20
24.768358
  0
VERTEX
  8
0
 10
222.330856
 20
22.031563
  0
VERTEX
  8
0
 10
217.016632
 20
19.901327
  0
VERTEX
  8
0
 10
211.735535
 20
17.761328
  0
VERTEX
  8
0
 10
206.627029
 20
15.662734
  0
VERTEX
  8
0
 10
203.386169
 20
14.311953
  0
VERTEX
  8
0
 10
200.323975
 20
13.016953
  0
VERTEX
  8
0
 10
196.077026
 20
11.184609
  0
VERTEX
  8
0
 10
192.181244
 20
9.464140
  0
VERTEX
  8
0
 10
188.561325
 20
7.831328
  0
VERTEX
  8
0
 10
185.142029
 20
6.262500
  0
VERTEX
  8
0
 10
179.684677
 20
3.724609
  0
SEQEND
  8
0
  0
POLYLINE
  8
0
  0
VERTEX
  8
0
 10
224.743042
 20
14.567656
  0
VERTEX
  8
0
 10
222.574768
 20
10.227968
  0
VERTEX
  8
0
 10
229.650314
 20
10.486172
  0
VERTEX
  8
0
 10
224.876709
 20
15.120703
  0
SEQEND
  8
0
  0
POLYLINE
  8
0
  0
VERTEX
  8
0
 10
148.709991
 20
62.656872
  0
VERTEX
  8
0
 10
148.558594
 20
63.264061
  0
VERTEX
  8
0
 10
148.226944
 20
63.794685
  0
VERTEX
  8
0
 10
147.747650
 20
64.196953
  0
VERTEX
  8
0
 10
147.167419
 20
64.431328
  0
VERTEX
  8
0
 10
146.543274
 20
64.474998
  0
VERTEX
  8
0
 10
145.936096
 20
64.323593
  0
VERTEX
  8
0
 10
145.405472
 20
63.992031
  0
VERTEX
  8
0
 10
145.003281
 20
63.512653
  0
VERTEX
  8
0
 10
144.768906
 20
62.932499
  0
VERTEX
  8
0
 10
144.725235
 20
62.308281
  0
VERTEX
  8
0
 10
144.876556
 20
61.701092
  0
VERTEX
  8
0
 10
145.208206
 20
61.170467
  0
VERTEX
  8
0
 10
145.687500
 20
60.768200
  0
VERTEX
  8
0
 10
146.267654
 20
60.533825
  0
VERTEX
  8
0
 10
146.891876
 20
60.490234
  0
VERTEX
  8
0
 10
147.498978
 20
60.641560
  0
VERTEX
  8
0
 10
148.029678
 20
60.973125
  0
VERTEX
  8
0
 10
148.431870
 20
61.452499
  0
VERTEX
  8
0
 10
148.666321
 20
62.032654
  0
VERTEX
  8
0
 10
148.709991
 20
62.656872
  0
SEQEND
  8
0
  0
POLYLINE
  8
0
  0
VERTEX
  8
0
 10
159.358353
 20
66.734688
  0
VERTEX
  8
0
 10
159.207031
 20
67.341873
  0
VERTEX
  8
0
 10
158.875458
 20
67.872498
  0
VERTEX
  8
0
 10
158.396088
 20
68.274765
  0
VERTEX
  8
0
 10
157.815933
 20
68.509140
  0
VERTEX
  8
0
 10
157.191711
 20
68.552811
  0
VERTEX
  8
0
 10
156.584534
 20
68.401405
  0
VERTEX
  8
0
 10
156.053909
 20
68.069839
  0
VERTEX
  8
0
 10
155.651642
 20
67.590469
  0
VERTEX
  8
0
 10
155.417267
 20
67.010307
  0
VERTEX
  8
0
 10
155.373596
 20
66.386093
  0
VERTEX
  8
0
 10
155.524994
 20
65.778908
  0
VERTEX
  8
0
 10
155.856552
 20
65.248283
  0
VERTEX
  8
0
 10
156.335938
 20
64.846016
  0
VERTEX
  8
0
 10
156.916092
 20
64.611641
  0
VERTEX
  8
0
 10
157.540314
 20
64.567970
  0
VERTEX
  8
0
 10
158.147491
 20
64.719376
  0
VERTEX
  8
0
 10
158.678116
 20
65.050934
  0
VERTEX
  8
0
 10
159.080307
 20
65.530312
  0
VERTEX
  8
0
 10
159.314758
 20
66.110466
  0
VERTEX
  8
0
 10
159.358353
 20
66.734688
  0
SEQEND
  8
0
  0
POLYLINE
  8
0
  0
VERTEX
  8
0
 10
148.716797
 20
46.371796
  0
VERTEX
  8
0
 10
148.607574
 20
46.746326
  0
VERTEX
  8
0
 10
148.363358
 20
47.050625
  0
VERTEX
  8
0
 10
148.021240
 20
47.238281
  0
VERTEX
  8
0
 10
147.633438
 20
47.280781
  0
VERTEX
  8
0
 10
147.258820
 20
47.171562
  0
VERTEX
  8
0
 10
146.954529
 20
46.927422
  0
VERTEX
  8
0
 10
146.766876
 20
46.585312
  0
VERTEX
  8
0
 10
146.724365
 20
46.197422
  0
VERTEX
  8
0
 10
146.833588
 20
45.822811
  0
VERTEX
  8
0
 10
147.077805
 20
45.518593
  0
VERTEX
  8
0
 10
147.419846
 20
45.330860
  0
VERTEX
  8
0
 10
147.807724
 20
45.288437
  0
VERTEX
  8
0
 10
148.182343
 20
45.397575
  0
VERTEX
  8
0
 10
148.486633
 20
45.641796
  0
VERTEX
  8
0
 10
148.674210
 20
45.983826
  0
VERTEX
  8
0
 10
148.716797
 20
46.371796
  0
SEQEND
  8
0
  0
POLYLINE
  8
0
  0
VERTEX
  8
0
 10
152.909683
 20
48.157810
  0
VERTEX
  8
0
 10
152.800461
 20
48.532421
  0
VERTEX
  8
0
 10
152.556244
 20
48.836639
  0
VERTEX
  8
0
 10
152.214218
 20
49.024372
  0
VERTEX
  8
0
 10
151.826324
 20
49.066875
  0
VERTEX
  8
0
 10
151.451721
 20
48.957657
  0
VERTEX
  8
0
 10
151.147415
 20
48.713360
  0
VERTEX
  8
0
 10
150.959763
 20
48.371326
  0
VERTEX
  8
0
 10
150.917267
 20
47.983513
  0
VERTEX
  8
0
 10
151.026474
 20
47.608906
  0
VERTEX
  8
0
 10
151.270706
 20
47.304531
  0
VERTEX
  8
0
 10
151.612808
 20
47.116951
  0
VERTEX
  8
0
 10
152.000626
 20
47.074451
  0
VERTEX
  8
0
 10
152.375229
 20
47.183670
  0
VERTEX
  8
0
 10
152.679535
 20
47.427811
  0
VERTEX
  8
0
 10
152.867188
 20
47.769920
  0
VERTEX
  8
0
 10
152.909683
 20
48.157810
  0
SEQEND
  8
0
  0
POLYLINE
  8
0
  0
VERTEX
  8
0
 10
169.373352
 20
57.051952
  0
VERTEX
  8
0
 10
169.264221
 20
57.426640
  0
VERTEX
  8
0
 10
169.019989
 20
57.730858
  0
VERTEX
  8
0
 10
168.677887
 20
57.918594
  0
VERTEX
  8
0
 10
168.289993
 20
57.961014
  0
VERTEX
  8
0
 10
167.915466
 20
57.851875
  0
VERTEX
  8
0
 10
167.611084
 20
57.607578
  0
VERTEX
  8
0
 10
167.423431
 20
57.265545
  0
VERTEX
  8
0
 10
167.381012
 20
56.877655
  0
VERTEX
  8
0
 10
167.490158
 20
56.503124
  0
VERTEX
  8
0
 10
167.734375
 20
56.198750
  0
VERTEX
  8
0
 10
168.076477
 20
56.011169
  0
VERTEX
  8
0
 10
168.464371
 20
55.968594
  0
VERTEX
  8
0
 10
168.838898
 20
56.077888
  0
VERTEX
  8
0
 10
169.143204
 20
56.322029
  0
VERTEX
  8
0
 10
169.330933
 20
56.664139
  0
VERTEX
  8
0
 10
169.373352
 20
57.051952
  0
SEQEND
  8
0
  0
POLYLINE
  8
0
  0
VERTEX
  8
0
 10
173.857803
 20
59.249607
  0
VERTEX
  8
0
 10
173.748672
 20
59.624294
  0
VERTEX
  8
0
 10
173.504364
 20
59.928513
  0
VERTEX
  8
0
 10
173.162262
 20
60.116169
  0
VERTEX
  8
0
 10
172.774445
 20
60.158672
  0
VERTEX
  8
0
 10
172.399918
 20
60.049530
  0
VERTEX
  8
0
 10
172.095551
 20
59.805233
  0
VERTEX
  8
0
 10
171.907883
 20
59.463203
  0
VERTEX
  8
0
 10
171.865387
 20
59.075310
  0
VERTEX
  8
0
 10
171.974609
 20
58.700703
  0
VERTEX
  8
0
 10
172.218826
 20
58.396404
  0
VERTEX
  8
0
 10
172.560928
 20
58.208828
  0
VERTEX
  8
0
 10
172.948746
 20
58.166248
  0
VERTEX
  8
0
 10
173.323349
 20
58.275467
  0
VERTEX
  8
0
 10
173.627655
 20
58.519688
  0
VERTEX
  8
0
 10
173.815384
 20
58.861797
  0
VERTEX
  8
0
 10
173.857803
 20
59.249607
  0
SEQEND
  8
0
  0
POLYLINE
  8
0
  0
VERTEX
  8
0
 10
107.296089
 20
788.749512
  0
VERTEX
  8
0
 10
107.606636
 20
781.517456
  0
VERTEX
  8
0
 10
107.803436
 20
775.795898
  0
VERTEX
  8
0
 10
107.882813
 20
771.634033
  0
VERTEX
  8
0
 10
107.887573
 20
769.739136
  0
VERTEX
  8
0
 10
107.864685
 20
767.990845
  0
VERTEX
  8
0
 10
107.813278
 20
766.393188
  0
VERTEX
  8
0
 10
107.734291
 20
764.937500
  0
VERTEX
  8
0
 10
107.628983
 20
763.614563
  0
VERTEX
  8
0
 10
107.498436
 20
762.415283
  0
VERTEX
  8
0
 10
107.343826
 20
761.330444
  0
VERTEX
  8
0
 10
107.166245
 20
760.350769
  0
VERTEX
  8
0
 10
106.967026
 20
759.467224
  0
VERTEX
  8
0
 10
106.747185
 20
758.670532
  0
VERTEX
  8
0
 10
106.629921
 20
758.301880
  0
VERTEX
  8
0
 10
106.380936
 20
757.618347
  0
VERTEX
  8
0
 10
106.111404
 20
756.999451
  0
VERTEX
  8
0
 10
105.819916
 20
756.436829
  0
VERTEX
  8
0
 10
105.665390
 20
756.173950
  0
VERTEX
  8
0
 10
105.337807
 20
755.679932
  0
VERTEX
  8
0
 10
104.984215
 20
755.221069
  0
VERTEX
  8
0
 10
104.602966
 20
754.788940
  0
VERTEX
  8
0
 10
104.192421
 20
754.375305
  0
VERTEX
  8
0
 10
103.751015
 20
753.971558
  0
VERTEX
  8
0
 10
102.773590
 20
753.165466
  0
VERTEX
  8
0
 10
101.421089
 20
752.151306
  0
VERTEX
  8
0
 10
98.372963
 20
749.959595
  0
VERTEX
  8
0
 10
97.615776
 20
749.373596
  0
VERTEX
  8
0
 10
96.903984
 20
748.760437
  0
VERTEX
  8
0
 10
96.236794
 20
748.090637
  0
VERTEX
  8
0
 10
95.816406
 20
747.598083
  0
VERTEX
  8
0
 10
95.613434
 20
747.334778
  0
VERTEX
  8
0
 10
95.221794
 20
746.768494
  0
VERTEX
  8
0
 10
95.033043
 20
746.463318
  0
VERTEX
  8
0
 10
94.669609
 20
745.803711
  0
VERTEX
  8
0
 10
94.494843
 20
745.447266
  0
VERTEX
  8
0
 10
94.157967
 20
744.681152
  0
VERTEX
  8
0
 10
93.680466
 20
743.405945
  0
VERTEX
  8
0
 10
93.229370
 20
741.989807
  0
VERTEX
  8
0
 10
92.797340
 20
740.444824
  0
VERTEX
  8
0
 10
92.516167
 20
739.349121
  0
VERTEX
  8
0
 10
92.098984
 20
737.615662
  0
VERTEX
  8
0
 10
90.502731
 20
730.541809
  0
VERTEX
  8
0
 10
89.672501
 20
727.097412
  0
VERTEX
  8
0
 10
89.122032
 20
725.006104
  0
VERTEX
  8
0
 10
88.728745
 20
723.610352
  0
VERTEX
  8
0
 10
88.312576
 20
722.214355
  0
VERTEX
  8
0
 10
87.872032
 20
720.817383
  0
VERTEX
  8
0
 10
87.162422
 20
718.719055
  0
VERTEX
  8
0
 10
86.654839
 20
717.317322
  0
VERTEX
  8
0
 10
85.837891
 20
715.209106
  0
VERTEX
  8
0
 10
85.254295
 20
713.799072
  0
VERTEX
  8
0
 10
84.316795
 20
711.675659
  0
VERTEX
  8
0
 10
83.650780
 20
710.258667
  0
VERTEX
  8
0
 10
82.955307
 20
708.850037
  0
VERTEX
  8
0
 10
82.233826
 20
707.458740
  0
VERTEX
  8
0
 10
81.489372
 20
706.093506
  0
VERTEX
  8
0
 10
80.725388
 20
704.763428
  0
VERTEX
  8
0
 10
79.549843
 20
702.853394
  0
VERTEX
  8
0
 10
78.751251
 20
701.649902
  0
VERTEX
  8
0
 10
77.944450
 20
700.512634
  0
VERTEX
  8
0
 10
77.538986
 20
699.971252
  0
VERTEX
  8
0
 10
76.724220
 20
698.943115
  0
VERTEX
  8
0
 10
76.314842
 20
698.455322
  0
VERTEX
  8
0
 10
75.491798
 20
697.529968
  0
VERTEX
  8
0
 10
74.662735
 20
696.668579
  0
VERTEX
  8
0
 10
73.827339
 20
695.867310
  0
VERTEX
  8
0
 10
72.985153
 20
695.122559
  0
VERTEX
  8
0
 10
72.135780
 20
694.430603
  0
VERTEX
  8
0
 10
71.278908
 20
693.787659
  0
VERTEX
  8
0
 10
70.414215
 20
693.190002
  0
VERTEX
  8
0
 10
69.540390
 20
692.634277
  0
VERTEX
  8
0
 10
68.653671
 20
692.119141
  0
VERTEX
  8
0
 10
67.749214
 20
691.643433
  0
VERTEX
  8
0
 10
66.822502
 20
691.205933
  0
VERTEX
  8
0
 10
65.868668
 20
690.805786
  0
VERTEX
  8
0
 10
64.883125
 20
690.441772
  0
VERTEX
  8
0
 10
63.861172
 20
690.112793
  0
VERTEX
  8
0
 10
63.335075
 20
689.961182
  0
VERTEX
  8
0
 10
62.249763
 20
689.682800
  0
VERTEX
  8
0
 10
61.116638
 20
689.436951
  0
VERTEX
  8
0
 10
59.938515
 20
689.223755
  0
VERTEX
  8
0
 10
58.725388
 20
689.044800
  0
VERTEX
  8
0
 10
57.487499
 20
688.901794
  0
VERTEX
  8
0
 10
56.235233
 20
688.796265
  0
VERTEX
  8
0
 10
54.978905
 20
688.729919
  0
VERTEX
  8
0
 10
53.728672
 20
688.704285
  0
VERTEX
  8
0
 10
52.494999
 20
688.721069
  0
VERTEX
  8
0
 10
51.288200
 20
688.781921
  0
VERTEX
  8
0
 10
50.697968
 20
688.829346
  0
VERTEX
  8
0
 10
49.548435
 20
688.958679
  0
VERTEX
  8
0
 10
48.438046
 20
689.132202
  0
VERTEX
  8
0
 10
47.363827
 20
689.347656
  0
VERTEX
  8
0
 10
46.322655
 20
689.602905
  0
VERTEX
  8
0
 10
45.311481
 20
689.895691
  0
VERTEX
  8
0
 10
44.327343
 20
690.223755
  0
VERTEX
  8
0
 10
43.367031
 20
690.584900
  0
VERTEX
  8
0
 10
42.427578
 20
690.976868
  0
VERTEX
  8
0
 10
41.050781
 20
691.618042
  0
VERTEX
  8
0
 10
39.702656
 20
692.329102
  0
VERTEX
  8
0
 10
38.813515
 20
692.854309
  0
VERTEX
  8
0
 10
37.927498
 20
693.429688
  0
VERTEX
  8
0
 10
37.040779
 20
694.063110
  0
VERTEX
  8
0
 10
36.149532
 20
694.762573
  0
VERTEX
  8
0
 10
35.249920
 20
695.536011
  0
VERTEX
  8
0
 10
34.338123
 20
696.391418
  0
VERTEX
  8
0
 10
33.876404
 20
696.852234
  0
VERTEX
  8
0
 10
33.410156
 20
697.336548
  0
VERTEX
  8
0
 10
32.464138
 20
698.376526
  0
VERTEX
  8
0
 10
31.505547
 20
699.504456
  0
VERTEX
  8
0
 10
30.541718
 20
700.710510
  0
VERTEX
  8
0
 10
29.580078
 20
701.984985
  0
VERTEX
  8
0
 10
28.627968
 20
703.317932
  0
VERTEX
  8
0
 10
27.692656
 20
704.699646
  0
VERTEX
  8
0
 10
27.233671
 20
705.405762
  0
VERTEX
  8
0
 10
26.337578
 20
706.842163
  0
VERTEX
  8
0
 10
25.476719
 20
708.302795
  0
VERTEX
  8
0
 10
25.061874
 20
709.039124
  0
VERTEX
  8
0
 10
24.266092
 20
710.518982
  0
VERTEX
  8
0
 10
23.153358
 20
712.751770
  0
VERTEX
  8
0
 10
22.129530
 20
714.993591
  0
VERTEX
  8
0
 10
21.185469
 20
717.237122
  0
VERTEX
  8
0
 10
20.311953
 20
719.474731
  0
VERTEX
  8
0
 10
19.499844
 20
721.699219
  0
VERTEX
  8
0
 10
18.496874
 20
724.630859
  0
VERTEX
  8
0
 10
17.567968
 20
727.498901
  0
VERTEX
  8
0
 10
15.657031
 20
733.564026
  0
VERTEX
  8
0
 10
15.048750
 20
735.421387
  0
VERTEX
  8
0
 10
14.446718
 20
737.177795
  0
VERTEX
  8
0
 10
13.854687
 20
738.826721
  0
VERTEX
  8
0
 10
13.087812
 20
740.847168
  0
VERTEX
  8
0
 10
12.355781
 20
742.650208
  0
VERTEX
  8
0
 10
11.668437
 20
744.221130
  0
VERTEX
  8
0
 10
11.022031
 20
745.566711
  0
VERTEX
  8
0
 10
10.546171
 20
746.456787
  0
VERTEX
  8
0
 10
10.062578
 20
747.269653
  0
VERTEX
  8
0
 10
9.728984
 20
747.779724
  0
VERTEX
  8
0
 10
9.381719
 20
748.272095
  0
VERTEX
  8
0
 10
8.826015
 20
748.992004
  0
VERTEX
  8
0
 10
8.221250
 20
749.706482
  0
VERTEX
  8
0
 10
6.247109
 20
751.881226
  0
VERTEX
  8
0
 10
5.377109
 20
752.886536
  0
VERTEX
  8
0
 10
4.761641
 20
753.665894
  0
VERTEX
  8
0
 10
4.190156
 20
754.477173
  0
VERTEX
  8
0
 10
3.834297
 20
755.044373
  0
VERTEX
  8
0
 10
3.498750
 20
755.638794
  0
VERTEX
  8
0
 10
3.033906
 20
756.593567
  0
VERTEX
  8
0
 10
2.615703
 20
757.639954
  0
VERTEX
  8
0
 10
2.244688
 20
758.796204
  0
VERTEX
  8
0
 10
2.023828
 20
759.636963
  0
VERTEX
  8
0
 10
1.732578
 20
761.004761
  0
VERTEX
  8
0
 10
1.565156
 20
761.982849
  0
VERTEX
  8
0
 10
1.354453
 20
763.540283
  0
VERTEX
  8
0
 10
1.241016
 20
764.633606
  0
VERTEX
  8
0
 10
1.111641
 20
766.346924
  0
VERTEX
  8
0
 10
1.031250
 20
768.137634
  0
VERTEX
  8
0
 10
0.999922
 20
769.992615
  0
VERTEX
  8
0
 10
1.012656
 20
771.889221
  0
VERTEX
  8
0
 10
1.061875
 20
773.797852
  0
VERTEX
  8
0
 10
1.139531
 20
775.689453
  0
VERTEX
  8
0
 10
1.237813
 20
777.534485
  0
VERTEX
  8
0
 10
1.387578
 20
779.871521
  0
VERTEX
  8
0
 10
1.584297
 20
782.534485
  0
VERTEX
  8
0
 10
1.826562
 20
785.433289
  0
VERTEX
  8
0
 10
2.111172
 20
788.573486
  0
VERTEX
  8
0
 10
11.162578
 20
786.465637
  0
VERTEX
  8
0
 10
22.743046
 20
783.768860
  0
VERTEX
  8
0
 10
32.007343
 20
781.611450
  0
VERTEX
  8
0
 10
43.587734
 20
778.914734
  0
VERTEX
  8
0
 10
43.230312
 20
777.791321
  0
VERTEX
  8
0
 10
42.990547
 20
776.932434
  0
VERTEX
  8
0
 10
42.788982
 20
776.094543
  0
VERTEX
  8
0
 10
42.357967
 20
774.137634
  0
VERTEX
  8
0
 10
42.108749
 20
773.128235
  0
VERTEX
  8
0
 10
41.824532
 20
772.169678
  0
VERTEX
  8
0
 10
41.569843
 20
771.455933
  0
VERTEX
  8
0
 10
41.362732
 20
770.955200
  0
VERTEX
  8
0
 10
41.141872
 20
770.486694
  0
VERTEX
  8
0
 10
40.907032
 20
770.052795
  0
VERTEX
  8
0
 10
40.658592
 20
769.655579
  0
VERTEX
  8
0
 10
40.400780
 20
769.295471
  0
VERTEX
  8
0
 10
40.053593
 20
768.871704
  0
VERTEX
  8
0
 10
39.717186
 20
768.510742
  0
VERTEX
  8
0
 10
39.407341
 20
768.210632
  0
VERTEX
  8
0
 10
39.136719
 20
767.968750
  0
VERTEX
  8
0
 10
38.891796
 20
767.774841
  0
VERTEX
  8
0
 10
38.645390
 20
767.614746
  0
VERTEX
  8
0
 10
38.370079
 20
767.474304
  0
VERTEX
  8
0
 10
37.944687
 20
767.305115
  0
VERTEX
  8
0
 10
37.527264
 20
767.168091
  0
VERTEX
  8
0
 10
36.929764
 20
767.003113
  0
VERTEX
  8
0
 10
36.408905
 20
766.883667
  0
VERTEX
  8
0
 10
35.588749
 20
766.739075
  0
VERTEX
  8
0
 10
34.597969
 20
766.624329
  0
VERTEX
  8
0
 10
33.721561
 20
766.558655
  0
VERTEX
  8
0
 10
31.584686
 20
766.436401
  0
VERTEX
  8
0
 10
30.472656
 20
766.328125
  0
VERTEX
  8
0
 10
29.833984
 20
766.234802
  0
VERTEX
  8
0
 10
29.370155
 20
766.147400
  0
VERTEX
  8
0
 10
28.793749
 20
766.006104
  0
VERTEX
  8
0
 10
28.407734
 20
765.880310
  0
VERTEX
  8
0
 10
28.074141
 20
765.736572
  0
VERTEX
  8
0
 10
27.885624
 20
765.630432
  0
VERTEX
  8
0
 10
27.723827
 20
765.516541
  0
VERTEX
  8
0
 10
27.527344
 20
765.332153
  0
VERTEX
  8
0
 10
27.424686
 20
765.201172
  0
VERTEX
  8
0
 10
27.342655
 20
765.064209
  0
VERTEX
  8
0
 10
27.233906
 20
764.775146
  0
VERTEX
  8
0
 10
27.203671
 20
764.623962
  0
VERTEX
  8
0
 10
27.183907
 20
764.390625
  0
VERTEX
  8
0
 10
27.201796
 20
764.069519
  0
VERTEX
  8
0
 10
27.291874
 20
763.656372
  0
VERTEX
  8
0
 10
27.415155
 20
763.320679
  0
VERTEX
  8
0
 10
27.581484
 20
762.983826
  0
VERTEX
  8
0
 10
27.792187
 20
762.647766
  0
VERTEX
  8
0
 10
27.983984
 20
762.396362
  0
VERTEX
  8
0
 10
28.292109
 20
762.061462
  0
VERTEX
  8
0
 10
28.567186
 20
761.810425
  0
VERTEX
  8
0
 10
28.884296
 20
761.559387
  0
VERTEX
  8
0
 10
29.245390
 20
761.308289
  0
VERTEX
  8
0
 10
29.645937
 20
761.058716
  0
VERTEX
  8
0
 10
30.231014
 20
760.731262
  0
VERTEX
  8
0
 10
30.860781
 20
760.413391
  0
VERTEX
  8
0
 10
31.520781
 20
760.109375
  0
VERTEX
  8
0
 10
32.205860
 20
759.821716
  0
VERTEX
  8
0
 10
32.755310
 20
759.614990
  0
VERTEX
  8
0
 10
33.355076
 20
759.413757
  0
VERTEX
  8
0
 10
34.022968
 20
759.216064
  0
VERTEX
  8
0
 10
34.776718
 20
759.020142
  0
VERTEX
  8
0
 10
35.634060
 20
758.823975
  0
VERTEX
  8
0
 10
37.299767
 20
758.499268
  0
VERTEX
  8
0
 10
39.208591
 20
758.193237
  0
VERTEX
  8
0
 10
41.295547
 20
757.925049
  0
VERTEX
  8
0
 10
43.500626
 20
757.712952
  0
VERTEX
  8
0
 10
45.357735
 20
757.588806
  0
VERTEX
  8
0
 10
47.857109
 20
757.489197
  0
VERTEX
  8
0
 10
50.046169
 20
757.452820
  0
VERTEX
  8
0
 10
52.442497
 20
757.453979
  0
VERTEX
  8
0
 10
55.012733
 20
757.494934
  0
VERTEX
  8
0
 10
57.654297
 20
757.581055
  0
VERTEX
  8
0
 10
60.261639
 20
757.717957
  0
VERTEX
  8
0
 10
62.729218
 20
757.911072
  0
VERTEX
  8
0
 10
64.433670
 20
758.094360
  0
VERTEX
  8
0
 10
66.008904
 20
758.304382
  0
VERTEX
  8
0
 10
67.923828
 20
758.612183
  0
VERTEX
  8
0
 10
70.441483
 20
759.094910
  0
VERTEX
  8
0
 10
73.844528
 20
759.824524
  0
VERTEX
  8
0
 10
76.146950
 20
760.366699
  0
VERTEX
  8
0
 10
77.137970
 20
760.627502
  0
VERTEX
  8
0
 10
77.812813
 20
760.828186
  0
VERTEX
  8
0
 10
78.413200
 20
761.035522
  0
VERTEX
  8
0
 10
78.967499
 20
761.262329
  0
VERTEX
  8
0
 10
79.502892
 20
761.520630
  0
VERTEX
  8
0
 10
80.022339
 20
761.809570
  0
VERTEX
  8
0
 10
80.504219
 20
762.115540
  0
VERTEX
  8
0
 10
80.926247
 20
762.423950
  0
VERTEX
  8
0
 10
81.265854
 20
762.720581
  0
VERTEX
  8
0
 10
81.507027
 20
762.995239
  0
VERTEX
  8
0
 10
81.629219
 20
763.190918
  0
VERTEX
  8
0
 10
81.709061
 20
763.383057
  0
VERTEX
  8
0
 10
81.753593
 20
763.576477
  0
VERTEX
  8
0
 10
81.769997
 20
763.776062
  0
VERTEX
  8
0
 10
81.760155
 20
764.059509
  0
VERTEX
  8
0
 10
81.722183
 20
764.360474
  0
VERTEX
  8
0
 10
81.658592
 20
764.665466
  0
VERTEX
  8
0
 10
81.571564
 20
764.960266
  0
VERTEX
  8
0
 10
81.463280
 20
765.230896
  0
VERTEX
  8
0
 10
81.369064
 20
765.410828
  0
VERTEX
  8
0
 10
81.262657
 20
765.571533
  0
VERTEX
  8
0
 10
81.142342
 20
765.715637
  0
VERTEX
  8
0
 10
81.006714
 20
765.845276
  0
VERTEX
  8
0
 10
80.854218
 20
765.963013
  0
VERTEX
  8
0
 10
80.621796
 20
766.105774
  0
VERTEX
  8
0
 10
80.420464
 20
766.203918
  0
VERTEX
  8
0
 10
80.098198
 20
766.321228
  0
VERTEX
  8
0
 10
79.803047
 20
766.397766
  0
VERTEX
  8
0
 10
79.450859
 20
766.463440
  0
VERTEX
  8
0
 10
79.031479
 20
766.516846
  0
VERTEX
  8
0
 10
78.162651
 20
766.578979
  0
VERTEX
  8
0
 10
75.866173
 20
766.683472
  0
VERTEX
  8
0
 10
74.504684
 20
766.780701
  0
VERTEX
  8
0
 10
73.645470
 20
766.866882
  0
VERTEX
  8
0
 10
72.781715
 20
766.974609
  0
VERTEX
  8
0
 10
71.399605
 20
767.201782
  0
VERTEX
  8
0
 10
70.645309
 20
767.366211
  0
VERTEX
  8
0
 10
70.188980
 20
767.487305
  0
VERTEX
  8
0
 10
69.778282
 20
767.617737
  0
VERTEX
  8
0
 10
69.414528
 20
767.756714
  0
VERTEX
  8
0
 10
69.093124
 20
767.903503
  0
VERTEX
  8
0
 10
68.680077
 20
768.136292
  0
VERTEX
  8
0
 10
68.335625
 20
768.381531
  0
VERTEX
  8
0
 10
68.043747
 20
768.636230
  0
VERTEX
  8
0
 10
67.708359
 20
768.985168
  0
VERTEX
  8
0
 10
67.404922
 20
769.344360
  0
VERTEX
  8
0
 10
67.121948
 20
769.737854
  0
VERTEX
  8
0
 10
66.919449
 20
770.073547
  0
VERTEX
  8
0
 10
66.657501
 20
770.599365
  0
VERTEX
  8
0
 10
66.463669
 20
771.068909
  0
VERTEX
  8
0
 10
66.270386
 20
771.612000
  0
VERTEX
  8
0
 10
66.081169
 20
772.217346
  0
VERTEX
  8
0
 10
65.843048
 20
773.092590
  0
VERTEX
  8
0
 10
65.681168
 20
773.778870
  0
VERTEX
  8
0
 10
65.496246
 20
774.702637
  0
VERTEX
  8
0
 10
65.386406
 20
775.381531
  0
VERTEX
  8
0
 10
65.300621
 20
776.042969
  0
VERTEX
  8
0
 10
65.215858
 20
776.902771
  0
VERTEX
  8
0
 10
65.097107
 20
778.784607
  0
VERTEX
  8
0
 10
77.283356
 20
781.674683
  0
VERTEX
  8
0
 10
96.005470
 20
786.192322
  0
VERTEX
  8
0
 10
101.620621
 20
787.490295
  0
VERTEX
  8
0
 10
107.296089
 20
788.749512
  0
SEQEND
  8
0
  0
POLYLINE
  8
0
  0
VERTEX
  8
0
 10
86.327652
 20
768.734924
  0
VERTEX
  8
0
 10
94.646950
 20
768.913086
  0
SEQEND
  8
0
  0
POLYLINE
  8
0
  0
VERTEX
  8
0
 10
12.896093
 20
768.527344
  0
VERTEX
  8
0
 10
21.398281
 20
768.408447
  0
SEQEND
  8
0
  0
POLYLINE
  8
0
  0
VERTEX
  8
0
 10
99.798279
 20
788.546570
  0
VERTEX
  8
0
 10
100.086639
 20
781.397156
  0
VERTEX
  8
0
 10
100.239372
 20
776.904602
  0
VERTEX
  8
0
 10
100.333046
 20
772.822327
  0
VERTEX
  8
0
 10
100.350235
 20
770.986450
  0
VERTEX
  8
0
 10
100.343826
 20
769.314758
  0
VERTEX
  8
0
 10
100.311874
 20
767.822266
  0
VERTEX
  8
0
 10
100.256950
 20
766.502319
  0
VERTEX
  8
0
 10
100.182579
 20
765.342773
  0
VERTEX
  8
0
 10
100.092422
 20
764.331604
  0
VERTEX
  8
0
 10
99.989998
 20
763.456604
  0
VERTEX
  8
0
 10
99.821327
 20
762.372803
  0
VERTEX
  8
0
 10
99.645470
 20
761.527161
  0
VERTEX
  8
0
 10
99.474220
 20
760.878662
  0
VERTEX
  8
0
 10
99.307266
 20
760.386536
  0
VERTEX
  8
0
 10
99.124916
 20
760.010071
  0
VERTEX
  8
0
 10
98.905937
 20
759.708435
  0
VERTEX
  8
0
 10
98.628983
 20
759.441101
  0
VERTEX
  8
0
 10
98.132729
 20
759.067505
  0
VERTEX
  8
0
 10
96.349220
 20
757.823425
  0
VERTEX
  8
0
 10
95.306480
 20
757.075073
  0
VERTEX
  8
0
 10
93.547501
 20
755.749207
  0
VERTEX
  8
0
 10
92.610313
 20
754.997620
  0
VERTEX
  8
0
 10
91.976402
 20
754.455994
  0
VERTEX
  8
0
 10
91.342262
 20
753.875061
  0
VERTEX
  8
0
 10
90.714142
 20
753.248901
  0
VERTEX
  8
0
 10
90.097969
 20
752.571533
  0
VERTEX
  8
0
 10
89.796326
 20
752.211853
  0
VERTEX
  8
0
 10
89.209686
 20
751.446838
  0
VERTEX
  8
0
 10
88.926170
 20
751.040161
  0
VERTEX
  8
0
 10
88.382813
 20
750.174194
  0
VERTEX
  8
0
 10
88.124374
 20
749.713562
  0
VERTEX
  8
0
 10
87.636406
 20
748.735779
  0
VERTEX
  8
0
 10
87.184135
 20
747.688293
  0
VERTEX
  8
0
 10
86.970314
 20
747.140869
  0
VERTEX
  8
0
 10
86.564842
 20
746.003601
  0
VERTEX
  8
0
 10
86.185936
 20
744.816162
  0
VERTEX
  8
0
 10
85.659058
 20
742.958313
  0
VERTEX
  8
0
 10
85.330154
 20
741.680237
  0
VERTEX
  8
0
 10
84.861015
 20
739.723083
  0
VERTEX
  8
0
 10
83.370392
 20
733.079590
  0
VERTEX
  8
0
 10
82.587502
 20
729.750610
  0
VERTEX
  8
0
 10
81.903984
 20
727.107666
  0
VERTEX
  8
0
 10
81.535858
 20
725.796997
  0
VERTEX
  8
0
 10
81.147964
 20
724.493835
  0
VERTEX
  8
0
 10
80.526718
 20
722.551392
  0
VERTEX
  8
0
 10
80.084610
 20
721.263733
  0
VERTEX
  8
0
 10
79.618980
 20
719.981079
  0
VERTEX
  8
0
 10
79.128746
 20
718.702820
  0
VERTEX
  8
0
 10
78.344765
 20
716.792175
  0
VERTEX
  8
0
 10
77.788124
 20
715.521851
  0
VERTEX
  8
0
 10
77.203903
 20
714.255127
  0
VERTEX
  8
0
 10
76.595314
 20
712.998901
  0
VERTEX
  8
0
 10
75.966484
 20
711.761475
  0
VERTEX
  8
0
 10
75.321404
 20
710.551392
  0
VERTEX
  8
0
 10
74.332344
 20
708.805908
  0
VERTEX
  8
0
 10
73.664688
 20
707.701050
  0
VERTEX
  8
0
 10
72.994995
 20
706.652954
  0
VERTEX
  8
0
 10
71.995934
 20
705.205933
  0
VERTEX
  8
0
 10
71.012497
 20
703.926575
  0
VERTEX
  8
0
 10
70.365547
 20
703.162415
  0
VERTEX
  8
0
 10
69.724297
 20
702.463318
  0
VERTEX
  8
0
 10
69.087578
 20
701.824219
  0
VERTEX
  8
0
 10
68.454453
 20
701.239929
  0
VERTEX
  8
0
 10
67.823906
 20
700.705139
  0
VERTEX
  8
0
 10
67.194763
 20
700.214966
  0
VERTEX
  8
0
 10
66.566093
 20
699.764038
  0
VERTEX
  8
0
 10
65.620857
 20
699.150940
  0
VERTEX
  8
0
 10
64.983826
 20
698.780701
  0
VERTEX
  8
0
 10
64.335388
 20
698.439758
  0
VERTEX
  8
0
 10
63.670311
 20
698.127075
  0
VERTEX
  8
0
 10
62.983437
 20
697.841553
  0
VERTEX
  8
0
 10
62.269608
 20
697.582031
  0
VERTEX
  8
0
 10
61.523670
 20
697.347412
  0
VERTEX
  8
0
 10
60.740547
 20
697.136536
  0
VERTEX
  8
0
 10
59.914997
 20
696.948364
  0
VERTEX
  8
0
 10
59.044373
 20
696.782104
  0
VERTEX
  8
0
 10
57.670624
 20
696.576172
  0
VERTEX
  8
0
 10
56.723747
 20
696.469910
  0
VERTEX
  8
0
 10
55.763515
 20
696.390137
  0
VERTEX
  8
0
 10
54.799530
 20
696.338318
  0
VERTEX
  8
0
 10
53.841717
 20
696.315857
  0
VERTEX
  8
0
 10
52.899609
 20
696.324219
  0
VERTEX
  8
0
 10
51.983200
 20
696.364685
  0
VERTEX
  8
0
 10
51.101795
 20
696.438843
  0
VERTEX
  8
0
 10
50.258595
 20
696.546265
  0
VERTEX
  8
0
 10
49.450466
 20
696.685242
  0
VERTEX
  8
0
 10
48.674061
 20
696.853943
  0
VERTEX
  8
0
 10
47.925858
 20
697.050598
  0
VERTEX
  8
0
 10
47.202499
 20
697.273254
  0
VERTEX
  8
0
 10
46.500469
 20
697.520142
  0
VERTEX
  8
0
 10
45.480156
 20
697.931702
  0
VERTEX
  8
0
 10
44.488670
 20
698.387512
  0
VERTEX
  8
0
 10
43.837498
 20
698.718201
  0
VERTEX
  8
0
 10
42.864529
 20
699.273682
  0
VERTEX
  8
0
 10
42.211876
 20
699.695923
  0
VERTEX
  8
0
 10
41.550858
 20
700.169434
  0
VERTEX
  8
0
 10
40.877029
 20
700.702698
  0
VERTEX
  8
0
 10
40.185860
 20
701.304077
  0
VERTEX
  8
0
 10
39.472969
 20
701.981934
  0
VERTEX
  8
0
 10
38.733826
 20
702.744751
  0
VERTEX
  8
0
 10
37.966091
 20
703.598022
  0
VERTEX
  8
0
 10
37.175156
 20
704.536255
  0
VERTEX
  8
0
 10
36.368435
 20
705.551086
  0
VERTEX
  8
0
 10
35.145157
 20
707.198608
  0
VERTEX
  8
0
 10
34.331718
 20
708.368286
  0
VERTEX
  8
0
 10
33.528671
 20
709.585205
  0
VERTEX
  8
0
 10
32.359688
 20
711.481018
  0
VERTEX
  8
0
 10
31.255781
 20
713.436401
  0
VERTEX
  8
0
 10
30.563437
 20
714.762512
  0
VERTEX
  8
0
 10
29.904297
 20
716.104065
  0
VERTEX
  8
0
 10
29.276093
 20
717.459290
  0
VERTEX
  8
0
 10
28.387421
 20
719.514221
  0
VERTEX
  8
0
 10
27.556328
 20
721.590454
  0
VERTEX
  8
0
 10
26.775625
 20
723.682068
  0
VERTEX
  8
0
 10
26.037968
 20
725.783447
  0
VERTEX
  8
0
 10
25.336172
 20
727.885864
  0
VERTEX
  8
0
 10
22.746485
 20
736.046387
  0
VERTEX
  8
0
 10
22.118202
 20
737.958313
  0
VERTEX
  8
0
 10
21.487186
 20
739.794922
  0
VERTEX
  8
0
 10
20.645624
 20
742.112793
  0
VERTEX
  8
0
 10
20.017891
 20
743.743286
  0
VERTEX
  8
0
 10
19.190702
 20
745.758972
  0
VERTEX
  8
0
 10
18.581171
 20
747.142334
  0
VERTEX
  8
0
 10
17.982578
 20
748.410461
  0
VERTEX
  8
0
 10
17.390156
 20
749.572266
  0
VERTEX
  8
0
 10
16.797655
 20
750.639648
  0
VERTEX
  8
0
 10
16.399452
 20
751.304810
  0
VERTEX
  8
0
 10
15.996562
 20
751.937073
  0
VERTEX
  8
0
 10
15.587187
 20
752.539917
  0
VERTEX
  8
0
 10
15.169374
 20
753.116943
  0
VERTEX
  8
0
 10
14.304921
 20
754.205994
  0
VERTEX
  8
0
 10
13.426171
 20
755.214844
  0
VERTEX
  8
0
 10
11.431406
 20
757.401184
  0
VERTEX
  8
0
 10
10.957656
 20
757.968811
  0
VERTEX
  8
0
 10
10.681328
 20
758.334534
  0
VERTEX
  8
0
 10
10.318671
 20
758.886780
  0
VERTEX
  8
0
 10
10.008906
 20
759.471008
  0
VERTEX
  8
0
 10
9.741640
 20
760.118042
  0
VERTEX
  8
0
 10
9.506484
 20
760.859070
  0
VERTEX
  8
0
 10
9.293125
 20
761.724670
  0
VERTEX
  8
0
 10
9.097031
 20
762.731262
  0
VERTEX
  8
0
 10
8.922187
 20
763.873108
  0
VERTEX
  8
0
 10
8.773359
 20
765.142334
  0
VERTEX
  8
0
 10
8.655469
 20
766.531250
  0
VERTEX
  8
0
 10
8.573359
 20
768.032043
  0
VERTEX
  8
0
 10
8.540781
 20
769.090942
  0
VERTEX
  8
0
 10
8.527031
 20
770.756836
  0
VERTEX
  8
0
 10
8.550468
 20
772.488892
  0
VERTEX
  8
0
 10
8.604375
 20
774.254150
  0
VERTEX
  8
0
 10
8.682343
 20
776.019653
  0
VERTEX
  8
0
 10
8.812031
 20
778.317505
  0
VERTEX
  8
0
 10
9.109219
 20
782.493103
  0
VERTEX
  8
0
 10
9.588202
 20
787.983215
  0
SEQEND
  8
0
  0
POLYLINE
  8
0
  0
VERTEX
  8
0
 10
54.638515
 20
757.366089
  0
VERTEX
  8
0
 10
54.638515
 20
742.064514
  0
VERTEX
  8
0
 10
54.638515
 20
722.937744
  0
VERTEX
  8
0
 10
54.638515
 20
707.636230
  0
VERTEX
  8
0
 10
54.638515
 20
688.509338
  0
SEQEND
  8
0
  0
POLYLINE
  8
0
  0
VERTEX
  8
0
 10
21.457577
 20
748.599915
  0
VERTEX
  8
0
 10
22.253437
 20
745.616760
  0
VERTEX
  8
0
 10
22.823593
 20
743.567322
  0
VERTEX
  8
0
 10
23.281641
 20
742.017456
  0
VERTEX
  8
0
 10
23.742031
 20
740.575623
  0
VERTEX
  8
0
 10
24.443047
 20
738.578430
  0
VERTEX
  8
0
 10
25.674999
 20
735.279175
  0
VERTEX
  8
0
 10
26.334999
 20
733.463257
  0
VERTEX
  8
0
 10
29.061640
 20
725.735657
  0
VERTEX
  8
0
 10
30.027422
 20
723.139221
  0
VERTEX
  8
0
 10
30.606014
 20
721.682495
  0
VERTEX
  8
0
 10
31.213280
 20
720.241638
  0
VERTEX
  8
0
 10
31.848593
 20
718.819214
  0
VERTEX
  8
0
 10
32.678516
 20
717.072571
  0
VERTEX
  8
0
 10
33.543751
 20
715.367737
  0
VERTEX
  8
0
 10
34.259922
 20
714.038086
  0
VERTEX
  8
0
 10
35.003750
 20
712.738892
  0
VERTEX
  8
0
 10
35.783436
 20
711.469360
  0
VERTEX
  8
0
 10
36.396484
 20
710.535950
  0
VERTEX
  8
0
 10
36.820625
 20
709.922485
  0
VERTEX
  8
0
 10
37.709610
 20
708.716309
  0
VERTEX
  8
0
 10
38.651562
 20
707.539978
  0
VERTEX
  8
0
 10
39.141251
 20
706.964111
  0
VERTEX
  8
0
 10
39.897812
 20
706.116943
  0
VERTEX
  8
0
 10
40.679218
 20
705.290894
  0
VERTEX
  8
0
 10
41.213203
 20
704.752808
  0
VERTEX
  8
0
 10
42.310390
 20
703.709534
  0
VERTEX
  8
0
 10
43.445156
 20
702.722717
  0
VERTEX
  8
0
 10
44.026329
 20
702.256165
  0
VERTEX
  8
0
 10
44.616482
 20
701.810547
  0
VERTEX
  8
0
 10
45.215546
 20
701.388062
  0
VERTEX
  8
0
 10
45.823357
 20
700.990906
  0
VERTEX
  8
0
 10
46.751171
 20
700.447937
  0
VERTEX
  8
0
 10
47.697891
 20
699.973572
  0
VERTEX
  8
0
 10
48.339375
 20
699.696167
  0
VERTEX
  8
0
 10
48.988983
 20
699.449829
  0
VERTEX
  8
0
 10
49.978359
 20
699.138489
  0
VERTEX
  8
0
 10
50.985466
 20
698.897156
  0
VERTEX
  8
0
 10
52.009766
 20
698.725586
  0
VERTEX
  8
0
 10
52.702030
 20
698.650146
  0
VERTEX
  8
0
 10
53.401562
 20
698.605530
  0
VERTEX
  8
0
 10
54.107578
 20
698.590759
  0
VERTEX
  8
0
 10
54.818985
 20
698.604675
  0
VERTEX
  8
0
 10
55.534920
 20
698.646240
  0
VERTEX
  8
0
 10
56.254375
 20
698.714050
  0
VERTEX
  8
0
 10
56.976482
 20
698.807190
  0
VERTEX
  8
0
 10
57.700153
 20
698.924255
  0
VERTEX
  8
0
 10
58.424450
 20
699.064209
  0
VERTEX
  8
0
 10
59.148438
 20
699.225830
  0
VERTEX
  8
0
 10
59.870857
 20
699.408264
  0
VERTEX
  8
0
 10
60.588825
 20
699.611206
  0
VERTEX
  8
0
 10
61.299297
 20
699.834900
  0
VERTEX
  8
0
 10
61.999138
 20
700.079529
  0
VERTEX
  8
0
 10
62.685234
 20
700.344971
  0
VERTEX
  8
0
 10
63.354374
 20
700.631531
  0
VERTEX
  8
0
 10
64.003517
 20
700.939209
  0
VERTEX
  8
0
 10
64.629532
 20
701.268188
  0
VERTEX
  8
0
 10
65.518433
 20
701.801697
  0
VERTEX
  8
0
 10
66.346245
 20
702.384644
  0
VERTEX
  8
0
 10
67.123283
 20
703.019958
  0
VERTEX
  8
0
 10
67.618904
 20
703.474121
  0
VERTEX
  8
0
 10
68.100624
 20
703.953735
  0
VERTEX
  8
0
 10
68.571877
 20
704.459778
  0
VERTEX
  8
0
 10
69.036011
 20
704.993042
  0
VERTEX
  8
0
 10
69.956718
 20
706.145081
  0
VERTEX
  8
0
 10
70.875938
 20
707.406677
  0
VERTEX
  8
0
 10
71.778908
 20
708.755615
  0
VERTEX
  8
0
 10
72.647812
 20
710.166870
  0
VERTEX
  8
0
 10
73.266327
 20
711.251465
  0
VERTEX
  8
0
 10
73.848198
 20
712.346863
  0
VERTEX
  8
0
 10
74.389999
 20
713.447327
  0
VERTEX
  8
0
 10
74.894768
 20
714.554199
  0
VERTEX
  8
0
 10
75.516090
 20
716.043762
  0
VERTEX
  8
0
 10
76.086014
 20
717.553040
  0
VERTEX
  8
0
 10
76.612892
 20
719.086853
  0
VERTEX
  8
0
 10
77.223282
 20
721.027954
  0
VERTEX
  8
0
 10
78.556091
 20
725.498718
  0
VERTEX
  8
0
 10
79.931953
 20
729.800903
  0
VERTEX
  8
0
 10
80.443283
 20
731.568237
  0
VERTEX
  8
0
 10
81.039375
 20
733.934814
  0
VERTEX
  8
0
 10
82.201950
 20
739.022644
  0
VERTEX
  8
0
 10
82.686714
 20
741.075073
  0
VERTEX
  8
0
 10
83.955780
 20
746.166870
  0
SEQEND
  8
0
  0
POLYLINE
  8
0
  0
VERTEX
  8
0
 10
25.313437
 20
749.220276
  0
VERTEX
  8
0
 10
27.117500
 20
743.528015
  0
VERTEX
  8
0
 10
29.217733
 20
737.250793
  0
VERTEX
  8
0
 10
30.622734
 20
732.812927
  0
VERTEX
  8
0
 10
31.343672
 20
730.685242
  0
VERTEX
  8
0
 10
31.751484
 20
729.589417
  0
VERTEX
  8
0
 10
32.193905
 20
728.471985
  0
VERTEX
  8
0
 10
33.609764
 20
725.065063
  0
VERTEX
  8
0
 10
34.217110
 20
723.565002
  0
VERTEX
  8
0
 10
34.638905
 20
722.461853
  0
VERTEX
  8
0
 10
35.671638
 20
719.649658
  0
VERTEX
  8
0
 10
36.062969
 20
718.653442
  0
VERTEX
  8
0
 10
36.335857
 20
718.009521
  0
VERTEX
  8
0
 10
36.623203
 20
717.383179
  0
VERTEX
  8
0
 10
37.088749
 20
716.477844
  0
VERTEX
  8
0
 10
37.593281
 20
715.609680
  0
VERTEX
  8
0
 10
38.126560
 20
714.770447
  0
VERTEX
  8
0
 10
39.979530
 20
712.076538
  0
VERTEX
  8
0
 10
41.425468
 20
709.940918
  0
VERTEX
  8
0
 10
41.987343
 20
709.166992
  0
VERTEX
  8
0
 10
42.378044
 20
708.667358
  0
VERTEX
  8
0
 10
42.997498
 20
707.949768
  0
VERTEX
  8
0
 10
43.438282
 20
707.497009
  0
VERTEX
  8
0
 10
44.146328
 20
706.861633
  0
VERTEX
  8
0
 10
44.902889
 20
706.277344
  0
VERTEX
  8
0
 10
45.696716
 20
705.741089
  0
VERTEX
  8
0
 10
46.516560
 20
705.250000
  0
VERTEX
  8
0
 10
47.630466
 20
704.660217
  0
VERTEX
  8
0
 10
48.744610
 20
704.138672
  0
VERTEX
  8
0
 10
49.848282
 20
703.684143
  0
VERTEX
  8
0
 10
50.672031
 20
703.389771
  0
VERTEX
  8
0
 10
51.769688
 20
703.062927
  0
VERTEX
  8
0
 10
52.319843
 20
702.928955
  0
VERTEX
  8
0
 10
52.871639
 20
702.815369
  0
VERTEX
  8
0
 10
53.425938
 20
702.722778
  0
VERTEX
  8
0
 10
53.982811
 20
702.651306
  0
VERTEX
  8
0
 10
54.541794
 20
702.601074
  0
VERTEX
  8
0
 10
55.102497
 20
702.571838
  0
VERTEX
  8
0
 10
55.664452
 20
702.563599
  0
VERTEX
  8
0
 10
56.227188
 20
702.576294
  0
VERTEX
  8
0
 10
56.790390
 20
702.609924
  0
VERTEX
  8
0
 10
57.353436
 20
702.664368
  0
VERTEX
  8
0
 10
57.916016
 20
702.739441
  0
VERTEX
  8
0
 10
58.477577
 20
702.835327
  0
VERTEX
  8
0
 10
59.038044
 20
702.952271
  0
VERTEX
  8
0
 10
59.597343
 20
703.091492
  0
VERTEX
  8
0
 10
60.155468
 20
703.253906
  0
VERTEX
  8
0
 10
60.712578
 20
703.440613
  0
VERTEX
  8
0
 10
61.268593
 20
703.652649
  0
VERTEX
  8
0
 10
61.823669
 20
703.891052
  0
VERTEX
  8
0
 10
62.377655
 20
704.156860
  0
VERTEX
  8
0
 10
62.930779
 20
704.451050
  0
VERTEX
  8
0
 10
63.758045
 20
704.947815
  0
VERTEX
  8
0
 10
64.305229
 20
705.315369
  0
VERTEX
  8
0
 10
64.845230
 20
705.710999
  0
VERTEX
  8
0
 10
65.635231
 20
706.354736
  0
VERTEX
  8
0
 10
66.391953
 20
707.055908
  0
VERTEX
  8
0
 10
67.104843
 20
707.811096
  0
VERTEX
  8
0
 10
67.550621
 20
708.342773
  0
VERTEX
  8
0
 10
67.969292
 20
708.896057
  0
VERTEX
  8
0
 10
68.360466
 20
709.468872
  0
VERTEX
  8
0
 10
68.899529
 20
710.358704
  0
VERTEX
  8
0
 10
69.230080
 20
710.968262
  0
VERTEX
  8
0
 10
69.687653
 20
711.899902
  0
VERTEX
  8
0
 10
70.105469
 20
712.843994
  0
VERTEX
  8
0
 10
70.612183
 20
714.105530
  0
VERTEX
  8
0
 10
71.297890
 20
715.978394
  0
VERTEX
  8
0
 10
72.619217
 20
719.786316
  0
VERTEX
  8
0
 10
74.112656
 20
723.876526
  0
VERTEX
  8
0
 10
74.718903
 20
725.635986
  0
VERTEX
  8
0
 10
75.164139
 20
727.049744
  0
VERTEX
  8
0
 10
75.573669
 20
728.465271
  0
VERTEX
  8
0
 10
76.049767
 20
730.236389
  0
VERTEX
  8
0
 10
76.593277
 20
732.362976
  0
SEQEND
  8
0
  0
POLYLINE
  8
0
  0
VERTEX
  8
0
 10
68.242340
 20
742.087402
  0
VERTEX
  8
0
 10
71.073433
 20
740.455627
  0
VERTEX
  8
0
 10
71.050934
 20
742.132690
  0
VERTEX
  8
0
 10
71.028435
 20
743.809814
  0
VERTEX
  8
0
 10
68.242340
 20
742.087402
  0
SEQEND
  8
0
  0
POLYLINE
  8
0
  0
VERTEX
  8
0
 10
80.132423
 20
747.621399
  0
VERTEX
  8
0
 10
79.654060
 20
747.526245
  0
VERTEX
  8
0
 10
79.248589
 20
747.255310
  0
VERTEX
  8
0
 10
78.977577
 20
746.849854
  0
VERTEX
  8
0
 10
78.882423
 20
746.371399
  0
VERTEX
  8
0
 10
78.977577
 20
745.893127
  0
VERTEX
  8
0
 10
79.248589
 20
745.487549
  0
VERTEX
  8
0
 10
79.654060
 20
745.216553
  0
VERTEX
  8
0
 10
80.132423
 20
745.121399
  0
VERTEX
  8
0
 10
80.610779
 20
745.216553
  0
VERTEX
  8
0
 10
81.016327
 20
745.487549
  0
VERTEX
  8
0
 10
81.287262
 20
745.893127
  0
VERTEX
  8
0
 10
81.382423
 20
746.371399
  0
VERTEX
  8
0
 10
81.287262
 20
746.849854
  0
VERTEX
  8
0
 10
81.016327
 20
747.255310
  0
VERTEX
  8
0
 10
80.610779
 20
747.526245
  0
VERTEX
  8
0
 10
80.132423
 20
747.621399
  0
SEQEND
  8
0
  0
POLYLINE
  8
0
  0
VERTEX
  8
0
 10
78.079216
 20
740.867554
  0
VERTEX
  8
0
 10
77.600861
 20
740.772400
  0
VERTEX
  8
0
 10
77.195313
 20
740.501465
  0
VERTEX
  8
0
 10
76.924370
 20
740.095947
  0
VERTEX
  8
0
 10
76.829216
 20
739.617554
  0
VERTEX
  8
0
 10
76.924370
 20
739.139221
  0
VERTEX
  8
0
 10
77.195313
 20
738.733704
  0
VERTEX
  8
0
 10
77.600861
 20
738.462708
  0
VERTEX
  8
0
 10
78.079216
 20
738.367554
  0
VERTEX
  8
0
 10
78.557579
 20
738.462708
  0
VERTEX
  8
0
 10
78.963120
 20
738.733704
  0
VERTEX
  8
0
 10
79.234062
 20
739.139221
  0
VERTEX
  8
0
 10
79.329216
 20
739.617554
  0
VERTEX
  8
0
 10
79.234062
 20
740.095947
  0
VERTEX
  8
0
 10
78.963120
 20
740.501465
  0
VERTEX
  8
0
 10
78.557579
 20
740.772400
  0
VERTEX
  8
0
 10
78.079216
 20
740.867554
  0
SEQEND
  8
0
  0
POLYLINE
  8
0
  0
VERTEX
  8
0
 10
54.642109
 20
696.119385
  0
VERTEX
  8
0
 10
54.163750
 20
696.024231
  0
VERTEX
  8
0
 10
53.758202
 20
695.753296
  0
VERTEX
  8
0
 10
53.487263
 20
695.347717
  0
VERTEX
  8
0
 10
53.392109
 20
694.869385
  0
VERTEX
  8
0
 10
53.487263
 20
694.390991
  0
VERTEX
  8
0
 10
53.758202
 20
693.985474
  0
VERTEX
  8
0
 10
54.163750
 20
693.714539
  0
VERTEX
  8
0
 10
54.642109
 20
693.619385
  0
VERTEX
  8
0
 10
55.120468
 20
693.714539
  0
VERTEX
  8
0
 10
55.526016
 20
693.985474
  0
VERTEX
  8
0
 10
55.796951
 20
694.390991
  0
VERTEX
  8
0
 10
55.892109
 20
694.869385
  0
VERTEX
  8
0
 10
55.796951
 20
695.347717
  0
VERTEX
  8
0
 10
55.526016
 20
695.753296
  0
VERTEX
  8
0
 10
55.120468
 20
696.024231
  0
VERTEX
  8
0
 10
54.642109
 20
696.119385
  0
SEQEND
  8
0
  0
POLYLINE
  8
0
  0
VERTEX
  8
0
 10
19.456953
 20
764.930664
  0
VERTEX
  8
0
 10
18.978594
 20
764.835510
  0
VERTEX
  8
0
 10
18.573046
 20
764.564575
  0
VERTEX
  8
0
 10
18.302109
 20
764.159058
  0
VERTEX
  8
0
 10
18.206953
 20
763.680664
  0
VERTEX
  8
0
 10
18.302109
 20
763.202332
  0
VERTEX
  8
0
 10
18.573046
 20
762.796875
  0
VERTEX
  8
0
 10
18.978594
 20
762.525818
  0
VERTEX
  8
0
 10
19.456953
 20
762.430664
  0
VERTEX
  8
0
 10
19.935312
 20
762.525818
  0
VERTEX
  8
0
 10
20.340858
 20
762.796875
  0
VERTEX
  8
0
 10
20.611797
 20
763.202332
  0
VERTEX
  8
0
 10
20.706953
 20
763.680664
  0
VERTEX
  8
0
 10
20.611797
 20
764.159058
  0
VERTEX
  8
0
 10
20.340858
 20
764.564575
  0
VERTEX
  8
0
 10
19.935312
 20
764.835510
  0
VERTEX
  8
0
 10
19.456953
 20
764.930664
  0
SEQEND
  8
0
  0
POLYLINE
  8
0
  0
VERTEX
  8
0
 10
33.274452
 20
776.435608
  0
VERTEX
  8
0
 10
32.796093
 20
776.340454
  0
VERTEX
  8
0
 10
32.390545
 20
776.069519
  0
VERTEX
  8
0
 10
32.119530
 20
775.664063
  0
VERTEX
  8
0
 10
32.024452
 20
775.185608
  0
VERTEX
  8
0
 10
32.119530
 20
774.707336
  0
VERTEX
  8
0
 10
32.390545
 20
774.301758
  0
VERTEX
  8
0
 10
32.796093
 20
774.030762
  0
VERTEX
  8
0
 10
33.274452
 20
773.935608
  0
VERTEX
  8
0
 10
33.752811
 20
774.030762
  0
VERTEX
  8
0
 10
34.158279
 20
774.301758
  0
VERTEX
  8
0
 10
34.429295
 20
774.707336
  0
VERTEX
  8
0
 10
34.524452
 20
775.185608
  0
VERTEX
  8
0
 10
34.429295
 20
775.664063
  0
VERTEX
  8
0
 10
34.158279
 20
776.069519
  0
VERTEX
  8
0
 10
33.752811
 20
776.340454
  0
VERTEX
  8
0
 10
33.274452
 20
776.435608
  0
SEQEND
  8
0
  0
POLYLINE
  8
0
  0
VERTEX
  8
0
 10
89.316719
 20
764.882507
  0
VERTEX
  8
0
 10
88.838356
 20
764.787354
  0
VERTEX
  8
0
 10
88.432808
 20
764.516418
  0
VERTEX
  8
0
 10
88.161873
 20
764.110840
  0
VERTEX
  8
0
 10
88.066719
 20
763.632507
  0
VERTEX
  8
0
 10
88.161873
 20
763.154114
  0
VERTEX
  8
0
 10
88.432808
 20
762.748596
  0
VERTEX
  8
0
 10
88.838356
 20
762.477661
  0
VERTEX
  8
0
 10
89.316719
 20
762.382507
  0
VERTEX
  8
0
 10
89.795074
 20
762.477661
  0
VERTEX
  8
0
 10
90.200623
 20
762.748596
  0
VERTEX
  8
0
 10
90.471558
 20
763.154114
  0
VERTEX
  8
0
 10
90.566719
 20
763.632507
  0
VERTEX
  8
0
 10
90.471558
 20
764.110840
  0
VERTEX
  8
0
 10
90.200623
 20
764.516418
  0
VERTEX
  8
0
 10
89.795074
 20
764.787354
  0
VERTEX
  8
0
 10
89.316719
 20
764.882507
  0
SEQEND
  8
0
  0
POLYLINE
  8
0
  0
VERTEX
  8
0
 10
74.174065
 20
777.015747
  0
VERTEX
  8
0
 10
73.695702
 20
776.920593
  0
VERTEX
  8
0
 10
73.290154
 20
776.649597
  0
VERTEX
  8
0
 10
73.019218
 20
776.244019
  0
VERTEX
  8
0
 10
72.924065
 20
775.765747
  0
VERTEX
  8
0
 10
73.019218
 20
775.287354
  0
VERTEX
  8
0
 10
73.290154
 20
774.881836
  0
VERTEX
  8
0
 10
73.695702
 20
774.610901
  0
VERTEX
  8
0
 10
74.174065
 20
774.515747
  0
VERTEX
  8
0
 10
74.652420
 20
774.610901
  0
VERTEX
  8
0
 10
75.057968
 20
774.881836
  0
VERTEX
  8
0
 10
75.328903
 20
775.287354
  0
VERTEX
  8
0
 10
75.424057
 20
775.765747
  0
VERTEX
  8
0
 10
75.328903
 20
776.244019
  0
VERTEX
  8
0
 10
75.057968
 20
776.649597
  0
VERTEX
  8
0
 10
74.652420
 20
776.920593
  0
VERTEX
  8
0
 10
74.174065
 20
777.015747
  0
SEQEND
  8
0
  0
POLYLINE
  8
0
  0
VERTEX
  8
0
 10
54.802498
 20
755.607727
  0
VERTEX
  8
0
 10
54.419842
 20
755.531555
  0
VERTEX
  8
0
 10
54.095390
 20
755.314819
  0
VERTEX
  8
0
 10
53.878670
 20
754.990356
  0
VERTEX
  8
0
 10
53.802498
 20
754.607727
  0
VERTEX
  8
0
 10
53.878670
 20
754.224976
  0
VERTEX
  8
0
 10
54.095390
 20
753.900635
  0
VERTEX
  8
0
 10
54.419842
 20
753.683838
  0
VERTEX
  8
0
 10
54.802498
 20
753.607727
  0
VERTEX
  8
0
 10
55.185234
 20
753.683838
  0
VERTEX
  8
0
 10
55.509609
 20
753.900635
  0
VERTEX
  8
0
 10
55.726406
 20
754.224976
  0
VERTEX
  8
0
 10
55.802498
 20
754.607727
  0
VERTEX
  8
0
 10
55.726406
 20
754.990356
  0
VERTEX
  8
0
 10
55.509609
 20
755.314819
  0
VERTEX
  8
0
 10
55.185234
 20
755.531555
  0
VERTEX
  8
0
 10
54.802498
 20
755.607727
  0
SEQEND
  8
0
  0
ENDSEC
  0
EOF
