  0
SECTION
  2
HEADER
  9
$ACADVER
  1
AC1006
  9
$EXTMIN
 10
1.000000
 20
1.000000
  9
$EXTMAX
 10
321.079437
 20
951.119690
  0
ENDSEC
  0
SECTION
  2
ENTITIES
  0
POLYLINE
  8
0
  0
VERTEX
  8
0
 10
125.507027
 20
1.000000
  0
VERTEX
  8
0
 10
110.562263
 20
6.305000
  0
VERTEX
  8
0
 10
100.343277
 20
9.954453
  0
VERTEX
  8
0
 10
90.843979
 20
13.383203
  0
VERTEX
  8
0
 10
83.956558
 20
15.906953
  0
VERTEX
  8
0
 10
76.368668
 20
18.733202
  0
VERTEX
  8
0
 10
67.802498
 20
21.985155
  0
VERTEX
  8
0
 10
60.516872
 20
24.808125
  0
VERTEX
  8
0
 10
55.030937
 20
26.996250
  0
VERTEX
  8
0
 10
54.768280
 20
28.707655
  0
VERTEX
  8
0
 10
51.507343
 20
28.622187
  0
VERTEX
  8
0
 10
51.507343
 20
28.622187
  0
VERTEX
  8
0
 10
46.449139
 20
30.963905
  0
VERTEX
  8
0
 10
44.520935
 20
31.887421
  0
VERTEX
  8
0
 10
42.563046
 20
32.854061
  0
VERTEX
  8
0
 10
40.567032
 20
33.875626
  0
VERTEX
  8
0
 10
39.211563
 20
34.592735
  0
VERTEX
  8
0
 10
37.141171
 20
35.728046
  0
VERTEX
  8
0
 10
35.739922
 20
36.525703
  0
VERTEX
  8
0
 10
33.613358
 20
37.785313
  0
VERTEX
  8
0
 10
32.183201
 20
38.668045
  0
VERTEX
  8
0
 10
30.746016
 20
39.586094
  0
VERTEX
  8
0
 10
29.304531
 20
40.540234
  0
VERTEX
  8
0
 10
27.140156
 20
42.040466
  0
VERTEX
  8
0
 10
25.700233
 20
43.087109
  0
VERTEX
  8
0
 10
24.268358
 20
44.168594
  0
VERTEX
  8
0
 10
22.850389
 20
45.281719
  0
VERTEX
  8
0
 10
21.451796
 20
46.423515
  0
VERTEX
  8
0
 10
20.078516
 20
47.590858
  0
VERTEX
  8
0
 10
18.736094
 20
48.780857
  0
VERTEX
  8
0
 10
17.430235
 20
49.990234
  0
VERTEX
  8
0
 10
16.166639
 20
51.216091
  0
VERTEX
  8
0
 10
14.951094
 20
52.455235
  0
VERTEX
  8
0
 10
13.788515
 20
53.704609
  0
VERTEX
  8
0
 10
12.680937
 20
54.960857
  0
VERTEX
  8
0
 10
11.629766
 20
56.220390
  0
VERTEX
  8
0
 10
10.636484
 20
57.479607
  0
VERTEX
  8
0
 10
9.702421
 20
58.735233
  0
VERTEX
  8
0
 10
8.828906
 20
59.983593
  0
VERTEX
  8
0
 10
8.017344
 20
61.221405
  0
VERTEX
  8
0
 10
7.269140
 20
62.444920
  0
VERTEX
  8
0
 10
6.585703
 20
63.650780
  0
VERTEX
  8
0
 10
5.967031
 20
64.837341
  0
VERTEX
  8
0
 10
5.408906
 20
66.010933
  0
VERTEX
  8
0
 10
4.905391
 20
67.179840
  0
VERTEX
  8
0
 10
4.450781
 20
68.352264
  0
VERTEX
  8
0
 10
4.240078
 20
68.942421
  0
VERTEX
  8
0
 10
3.848203
 20
70.135620
  0
VERTEX
  8
0
 10
3.490859
 20
71.352890
  0
VERTEX
  8
0
 10
3.007422
 20
73.242188
  0
VERTEX
  8
0
 10
2.711719
 20
74.555779
  0
VERTEX
  8
0
 10
2.298516
 20
76.618202
  0
VERTEX
  8
0
 10
1.926875
 20
78.767029
  0
VERTEX
  8
0
 10
1.706563
 20
80.231560
  0
VERTEX
  8
0
 10
1.423906
 20
82.451874
  0
VERTEX
  8
0
 10
1.271016
 20
83.933746
  0
VERTEX
  8
0
 10
1.101563
 20
86.134689
  0
VERTEX
  8
0
 10
1.032344
 20
87.573357
  0
VERTEX
  8
0
 10
1.000000
 20
89.676323
  0
VERTEX
  8
0
 10
1.028828
 20
91.055939
  0
VERTEX
  8
0
 10
1.099766
 20
92.431641
  0
VERTEX
  8
0
 10
1.214609
 20
93.815620
  0
VERTEX
  8
0
 10
1.375000
 20
95.220230
  0
VERTEX
  8
0
 10
1.582734
 20
96.657417
  0
VERTEX
  8
0
 10
1.839375
 20
98.139450
  0
VERTEX
  8
0
 10
2.146641
 20
99.678513
  0
VERTEX
  8
0
 10
2.705078
 20
102.115463
  0
VERTEX
  8
0
 10
3.139141
 20
103.813904
  0
VERTEX
  8
0
 10
3.617422
 20
105.549606
  0
VERTEX
  8
0
 10
4.135391
 20
107.303513
  0
VERTEX
  8
0
 10
4.688750
 20
109.056793
  0
VERTEX
  8
0
 10
5.272969
 20
110.790390
  0
VERTEX
  8
0
 10
5.883515
 20
112.485313
  0
VERTEX
  8
0
 10
6.516016
 20
114.122498
  0
VERTEX
  8
0
 10
7.165859
 20
115.683121
  0
VERTEX
  8
0
 10
7.830078
 20
117.153358
  0
VERTEX
  8
0
 10
8.168203
 20
117.856560
  0
VERTEX
  8
0
 10
8.858359
 20
119.207184
  0
VERTEX
  8
0
 10
9.570234
 20
120.494057
  0
VERTEX
  8
0
 10
10.307343
 20
121.729919
  0
VERTEX
  8
0
 10
10.686328
 20
122.332809
  0
VERTEX
  8
0
 10
11.467422
 20
123.516090
  0
VERTEX
  8
0
 10
12.282344
 20
124.680313
  0
VERTEX
  8
0
 10
13.134531
 20
125.838280
  0
VERTEX
  8
0
 10
14.490234
 20
127.590782
  0
VERTEX
  8
0
 10
15.448906
 20
128.779297
  0
VERTEX
  8
0
 10
16.451952
 20
129.980316
  0
VERTEX
  8
0
 10
17.499765
 20
131.189301
  0
VERTEX
  8
0
 10
18.592499
 20
132.401794
  0
VERTEX
  8
0
 10
19.730156
 20
133.613205
  0
VERTEX
  8
0
 10
21.521641
 20
135.418671
  0
VERTEX
  8
0
 10
22.772655
 20
136.607971
  0
VERTEX
  8
0
 10
23.415390
 20
137.196716
  0
VERTEX
  8
0
 10
24.069609
 20
137.780548
  0
VERTEX
  8
0
 10
25.412500
 20
138.933044
  0
VERTEX
  8
0
 10
26.101563
 20
139.502029
  0
VERTEX
  8
0
 10
27.515703
 20
140.626877
  0
VERTEX
  8
0
 10
28.978828
 20
141.736008
  0
VERTEX
  8
0
 10
30.492109
 20
142.831558
  0
VERTEX
  8
0
 10
32.858906
 20
144.454376
  0
VERTEX
  8
0
 10
35.345703
 20
146.059067
  0
VERTEX
  8
0
 10
37.956482
 20
147.652969
  0
VERTEX
  8
0
 10
39.766716
 20
148.712738
  0
VERTEX
  8
0
 10
41.627655
 20
149.769135
  0
VERTEX
  8
0
 10
43.532890
 20
150.820770
  0
VERTEX
  8
0
 10
45.476170
 20
151.865860
  0
VERTEX
  8
0
 10
47.451172
 20
152.902649
  0
VERTEX
  8
0
 10
50.459373
 20
154.438431
  0
VERTEX
  8
0
 10
54.522343
 20
156.441483
  0
VERTEX
  8
0
 10
57.584763
 20
157.903976
  0
VERTEX
  8
0
 10
59.644608
 20
158.864609
  0
VERTEX
  8
0
 10
63.884060
 20
160.779999
  0
VERTEX
  8
0
 10
66.097580
 20
161.747177
  0
VERTEX
  8
0
 10
68.396484
 20
162.729294
  0
VERTEX
  8
0
 10
70.797813
 20
163.732498
  0
VERTEX
  8
0
 10
73.318436
 20
164.763199
  0
VERTEX
  8
0
 10
78.777809
 20
166.929138
  0
VERTEX
  8
0
 10
84.712502
 20
169.200851
  0
VERTEX
  8
0
 10
90.870079
 20
171.478516
  0
VERTEX
  8
0
 10
93.951172
 20
172.587494
  0
VERTEX
  8
0
 10
96.990074
 20
173.659210
  0
VERTEX
  8
0
 10
99.954529
 20
174.681168
  0
VERTEX
  8
0
 10
102.811714
 20
175.640076
  0
VERTEX
  8
0
 10
105.537186
 20
176.526794
  0
VERTEX
  8
0
 10
108.138435
 20
177.346252
  0
VERTEX
  8
0
 10
110.631088
 20
178.106720
  0
VERTEX
  8
0
 10
113.030548
 20
178.816711
  0
VERTEX
  8
0
 10
117.612030
 20
180.118896
  0
VERTEX
  8
0
 10
124.173744
 20
181.903900
  0
VERTEX
  8
0
 10
126.729759
 20
180.265305
  0
VERTEX
  8
0
 10
128.150772
 20
179.381790
  0
VERTEX
  8
0
 10
129.030777
 20
178.889526
  0
VERTEX
  8
0
 10
130.055237
 20
178.393829
  0
VERTEX
  8
0
 10
131.499222
 20
177.783905
  0
VERTEX
  8
0
 10
132.267731
 20
177.493896
  0
VERTEX
  8
0
 10
133.026245
 20
177.234756
  0
VERTEX
  8
0
 10
133.750381
 20
177.017807
  0
VERTEX
  8
0
 10
134.442734
 20
176.837112
  0
VERTEX
  8
0
 10
136.093979
 20
176.476089
  0
VERTEX
  8
0
 10
132.656097
 20
159.629288
  0
VERTEX
  8
0
 10
129.218201
 20
142.782425
  0
VERTEX
  8
0
 10
121.427887
 20
143.032333
  0
VERTEX
  8
0
 10
116.490234
 20
143.142181
  0
VERTEX
  8
0
 10
114.155701
 20
143.167267
  0
VERTEX
  8
0
 10
111.934059
 20
143.167267
  0
VERTEX
  8
0
 10
109.833046
 20
143.140625
  0
VERTEX
  8
0
 10
107.858200
 20
143.086166
  0
VERTEX
  8
0
 10
106.015152
 20
143.002808
  0
VERTEX
  8
0
 10
104.309448
 20
142.889450
  0
VERTEX
  8
0
 10
103.251404
 20
142.796555
  0
VERTEX
  8
0
 10
101.786484
 20
142.631088
  0
VERTEX
  8
0
 10
100.468590
 20
142.439056
  0
VERTEX
  8
0
 10
99.296013
 20
142.228745
  0
VERTEX
  8
0
 10
98.266640
 20
142.008820
  0
VERTEX
  8
0
 10
97.113594
 20
141.714844
  0
VERTEX
  8
0
 10
96.207031
 20
141.438278
  0
VERTEX
  8
0
 10
95.514610
 20
141.176254
  0
VERTEX
  8
0
 10
95.084686
 20
140.961014
  0
VERTEX
  8
0
 10
94.819138
 20
140.796326
  0
VERTEX
  8
0
 10
94.557106
 20
140.607346
  0
VERTEX
  8
0
 10
94.145546
 20
140.263351
  0
VERTEX
  8
0
 10
93.677261
 20
139.827499
  0
VERTEX
  8
0
 10
90.496246
 20
136.654678
  0
VERTEX
  8
0
 10
89.671951
 20
135.861328
  0
VERTEX
  8
0
 10
89.118515
 20
135.358673
  0
VERTEX
  8
0
 10
88.435074
 20
134.795303
  0
VERTEX
  8
0
 10
87.936562
 20
134.436249
  0
VERTEX
  8
0
 10
87.426872
 20
134.117569
  0
VERTEX
  8
0
 10
86.693748
 20
133.733505
  0
VERTEX
  8
0
 10
85.863907
 20
133.371399
  0
VERTEX
  8
0
 10
84.689606
 20
132.927338
  0
VERTEX
  8
0
 10
78.874374
 20
130.907104
  0
VERTEX
  8
0
 10
75.575859
 20
129.789536
  0
VERTEX
  8
0
 10
69.743515
 20
127.880775
  0
VERTEX
  8
0
 10
66.897575
 20
126.933510
  0
VERTEX
  8
0
 10
64.146637
 20
125.982109
  0
VERTEX
  8
0
 10
62.251717
 20
125.289528
  0
VERTEX
  8
0
 10
59.994610
 20
124.398354
  0
VERTEX
  8
0
 10
58.948906
 20
123.953827
  0
VERTEX
  8
0
 10
57.936718
 20
123.501793
  0
VERTEX
  8
0
 10
55.948200
 20
122.551010
  0
VERTEX
  8
0
 10
54.939529
 20
122.040001
  0
VERTEX
  8
0
 10
53.362888
 20
121.211792
  0
VERTEX
  8
0
 10
50.508904
 20
119.646561
  0
VERTEX
  8
0
 10
48.720390
 20
118.621010
  0
VERTEX
  8
0
 10
47.525234
 20
117.913124
  0
VERTEX
  8
0
 10
45.763046
 20
116.828979
  0
VERTEX
  8
0
 10
44.628826
 20
116.099686
  0
VERTEX
  8
0
 10
43.543438
 20
115.371796
  0
VERTEX
  8
0
 10
42.520313
 20
114.650703
  0
VERTEX
  8
0
 10
41.564610
 20
113.938751
  0
VERTEX
  8
0
 10
40.673046
 20
113.234451
  0
VERTEX
  8
0
 10
39.841953
 20
112.536560
  0
VERTEX
  8
0
 10
38.700703
 20
111.498589
  0
VERTEX
  8
0
 10
38.004921
 20
110.810547
  0
VERTEX
  8
0
 10
37.356796
 20
110.123901
  0
VERTEX
  8
0
 10
36.752735
 20
109.437416
  0
VERTEX
  8
0
 10
35.921406
 20
108.404762
  0
VERTEX
  8
0
 10
35.169296
 20
107.367500
  0
VERTEX
  8
0
 10
34.485622
 20
106.328278
  0
VERTEX
  8
0
 10
33.859531
 20
105.290154
  0
VERTEX
  8
0
 10
33.280155
 20
104.256325
  0
VERTEX
  8
0
 10
32.389141
 20
102.551010
  0
VERTEX
  8
0
 10
31.722813
 20
101.196564
  0
VERTEX
  8
0
 10
31.258514
 20
100.147736
  0
VERTEX
  8
0
 10
30.835625
 20
99.033516
  0
VERTEX
  8
0
 10
30.464531
 20
97.820465
  0
VERTEX
  8
0
 10
30.250780
 20
96.940468
  0
VERTEX
  8
0
 10
30.067499
 20
95.991798
  0
VERTEX
  8
0
 10
29.917578
 20
94.965233
  0
VERTEX
  8
0
 10
29.802109
 20
93.864136
  0
VERTEX
  8
0
 10
29.719843
 20
92.704842
  0
VERTEX
  8
0
 10
29.669922
 20
91.504135
  0
VERTEX
  8
0
 10
29.653437
 20
89.662338
  0
VERTEX
  8
0
 10
29.679766
 20
88.431870
  0
VERTEX
  8
0
 10
29.734610
 20
87.218903
  0
VERTEX
  8
0
 10
29.817030
 20
86.040314
  0
VERTEX
  8
0
 10
29.926016
 20
84.912811
  0
VERTEX
  8
0
 10
30.060547
 20
83.849686
  0
VERTEX
  8
0
 10
30.220390
 20
82.848595
  0
VERTEX
  8
0
 10
30.405390
 20
81.903748
  0
VERTEX
  8
0
 10
30.615313
 20
81.009293
  0
VERTEX
  8
0
 10
30.850077
 20
80.159370
  0
VERTEX
  8
0
 10
31.109610
 20
79.348045
  0
VERTEX
  8
0
 10
31.393593
 20
78.569298
  0
VERTEX
  8
0
 10
31.702108
 20
77.817497
  0
VERTEX
  8
0
 10
32.034763
 20
77.086639
  0
VERTEX
  8
0
 10
32.391407
 20
76.371635
  0
VERTEX
  8
0
 10
32.771328
 20
75.671089
  0
VERTEX
  8
0
 10
33.382889
 20
74.645622
  0
VERTEX
  8
0
 10
33.817032
 20
73.978043
  0
VERTEX
  8
0
 10
34.505936
 20
72.998985
  0
VERTEX
  8
0
 10
35.237267
 20
72.044609
  0
VERTEX
  8
0
 10
36.008282
 20
71.112892
  0
VERTEX
  8
0
 10
36.817966
 20
70.201485
  0
VERTEX
  8
0
 10
37.383045
 20
69.604530
  0
VERTEX
  8
0
 10
38.275467
 20
68.724220
  0
VERTEX
  8
0
 10
38.904686
 20
68.146797
  0
VERTEX
  8
0
 10
39.906876
 20
67.294220
  0
VERTEX
  8
0
 10
40.618202
 20
66.734299
  0
VERTEX
  8
0
 10
41.367420
 20
66.180626
  0
VERTEX
  8
0
 10
42.157341
 20
65.633125
  0
VERTEX
  8
0
 10
43.420155
 20
64.823746
  0
VERTEX
  8
0
 10
44.312889
 20
64.293671
  0
VERTEX
  8
0
 10
45.245075
 20
63.772106
  0
VERTEX
  8
0
 10
46.216015
 20
63.260155
  0
VERTEX
  8
0
 10
47.743046
 20
62.512032
  0
VERTEX
  8
0
 10
48.806953
 20
62.028046
  0
VERTEX
  8
0
 10
49.906406
 20
61.556873
  0
VERTEX
  8
0
 10
51.040546
 20
61.099297
  0
VERTEX
  8
0
 10
52.207108
 20
60.655701
  0
VERTEX
  8
0
 10
54.009296
 20
60.015312
  0
VERTEX
  8
0
 10
55.240234
 20
59.604294
  0
VERTEX
  8
0
 10
57.121407
 20
59.010311
  0
VERTEX
  8
0
 10
60.317654
 20
58.075859
  0
VERTEX
  8
0
 10
64.179214
 20
57.036953
  0
VERTEX
  8
0
 10
67.953438
 20
56.085155
  0
VERTEX
  8
0
 10
75.704216
 20
54.207420
  0
VERTEX
  8
0
 10
77.572655
 20
53.734451
  0
VERTEX
  8
0
 10
78.889450
 20
53.382343
  0
VERTEX
  8
0
 10
80.548439
 20
52.904140
  0
VERTEX
  8
0
 10
82.113594
 20
52.401016
  0
VERTEX
  8
0
 10
82.863121
 20
52.133827
  0
VERTEX
  8
0
 10
83.590233
 20
51.852341
  0
VERTEX
  8
0
 10
84.638359
 20
51.397110
  0
VERTEX
  8
0
 10
85.308517
 20
51.067497
  0
VERTEX
  8
0
 10
85.955391
 20
50.713436
  0
VERTEX
  8
0
 10
86.881714
 20
50.130466
  0
VERTEX
  8
0
 10
87.754608
 20
49.477810
  0
VERTEX
  8
0
 10
88.308517
 20
49.006794
  0
VERTEX
  8
0
 10
88.842110
 20
48.512733
  0
VERTEX
  8
0
 10
89.607887
 20
47.739372
  0
VERTEX
  8
0
 10
90.337578
 20
46.942108
  0
VERTEX
  8
0
 10
93.197731
 20
43.607422
  0
VERTEX
  8
0
 10
94.646797
 20
41.965782
  0
VERTEX
  8
0
 10
95.479843
 20
41.080154
  0
VERTEX
  8
0
 10
96.037888
 20
40.557110
  0
VERTEX
  8
0
 10
96.355782
 20
40.301952
  0
VERTEX
  8
0
 10
96.804062
 20
39.993126
  0
VERTEX
  8
0
 10
97.326714
 20
39.681717
  0
VERTEX
  8
0
 10
97.796089
 20
39.430779
  0
VERTEX
  8
0
 10
98.350861
 20
39.170155
  0
VERTEX
  8
0
 10
98.776329
 20
38.994686
  0
VERTEX
  8
0
 10
99.252106
 20
38.820469
  0
VERTEX
  8
0
 10
99.783119
 20
38.649452
  0
VERTEX
  8
0
 10
100.693985
 20
38.403984
  0
VERTEX
  8
0
 10
101.756714
 20
38.178123
  0
VERTEX
  8
0
 10
102.972572
 20
37.977966
  0
VERTEX
  8
0
 10
103.857735
 20
37.861015
  0
VERTEX
  8
0
 10
105.279610
 20
37.713047
  0
VERTEX
  8
0
 10
106.280151
 20
37.634609
  0
VERTEX
  8
0
 10
107.842186
 20
37.550156
  0
VERTEX
  8
0
 10
108.914139
 20
37.517891
  0
VERTEX
  8
0
 10
110.550468
 20
37.508202
  0
VERTEX
  8
0
 10
112.763046
 20
37.561718
  0
VERTEX
  8
0
 10
114.438828
 20
37.635937
  0
VERTEX
  8
0
 10
118.941322
 20
37.873203
  0
VERTEX
  8
0
 10
121.753357
 20
37.972031
  0
VERTEX
  8
0
 10
125.112656
 20
38.009998
  0
VERTEX
  8
0
 10
130.134521
 20
37.976326
  0
VERTEX
  8
0
 10
130.134521
 20
37.976326
  0
VERTEX
  8
0
 10
133.713120
 20
22.065468
  0
VERTEX
  8
0
 10
137.291718
 20
6.154609
  0
VERTEX
  8
0
 10
134.888123
 20
5.309844
  0
VERTEX
  8
0
 10
133.361008
 20
4.752031
  0
VERTEX
  8
0
 10
131.945313
 20
4.201875
  0
VERTEX
  8
0
 10
130.647491
 20
3.654687
  0
VERTEX
  8
0
 10
129.436798
 20
3.098516
  0
VERTEX
  8
0
 10
128.281479
 20
2.521562
  0
VERTEX
  8
0
 10
127.158745
 20
1.922109
  0
VERTEX
  8
0
 10
125.507027
 20
1.000000
  0
SEQEND
  8
0
  0
POLYLINE
  8
0
  0
VERTEX
  8
0
 10
104.775467
 20
32.553673
  0
VERTEX
  8
0
 10
103.719292
 20
30.515469
  0
VERTEX
  8
0
 10
102.750938
 20
28.770077
  0
VERTEX
  8
0
 10
101.859604
 20
27.317656
  0
VERTEX
  8
0
 10
100.870308
 20
25.870625
  0
VERTEX
  8
0
 10
100.239609
 20
25.010702
  0
VERTEX
  8
0
 10
99.590698
 20
24.161327
  0
VERTEX
  8
0
 10
98.269684
 20
22.508827
  0
VERTEX
  8
0
 10
96.533516
 20
20.428047
  0
VERTEX
  8
0
 10
94.198280
 20
17.712734
  0
SEQEND
  8
0
  0
POLYLINE
  8
0
  0
VERTEX
  8
0
 10
79.549370
 20
24.103750
  0
VERTEX
  8
0
 10
78.312187
 20
20.703749
  0
SEQEND
  8
0
  0
POLYLINE
  8
0
  0
VERTEX
  8
0
 10
29.615391
 20
90.403046
  0
VERTEX
  8
0
 10
15.346171
 20
90.153984
  0
VERTEX
  8
0
 10
1.077031
 20
89.904922
  0
SEQEND
  8
0
  0
POLYLINE
  8
0
  0
VERTEX
  8
0
 10
92.187500
 20
164.792343
  0
VERTEX
  8
0
 10
94.131248
 20
162.480774
  0
VERTEX
  8
0
 10
95.448906
 20
160.880157
  0
VERTEX
  8
0
 10
96.654922
 20
159.359451
  0
VERTEX
  8
0
 10
97.512032
 20
158.219681
  0
VERTEX
  8
0
 10
98.828514
 20
156.349136
  0
VERTEX
  8
0
 10
101.141792
 20
152.898438
  0
VERTEX
  8
0
 10
103.645386
 20
149.216873
  0
SEQEND
  8
0
  0
POLYLINE
  8
0
  0
VERTEX
  8
0
 10
83.677345
 20
162.049835
  0
VERTEX
  8
0
 10
82.472885
 20
165.487885
  0
SEQEND
  8
0
  0
POLYLINE
  8
0
  0
VERTEX
  8
0
 10
98.947342
 20
804.280273
  0
VERTEX
  8
0
 10
99.821014
 20
817.594666
  0
VERTEX
  8
0
 10
100.909843
 20
833.971680
  0
VERTEX
  8
0
 10
103.730621
 20
834.189209
  0
VERTEX
  8
0
 10
104.036949
 20
839.018127
  0
VERTEX
  8
0
 10
104.672188
 20
848.345459
  0
VERTEX
  8
0
 10
104.914452
 20
852.156250
  0
VERTEX
  8
0
 10
105.112495
 20
855.985596
  0
VERTEX
  8
0
 10
105.172729
 20
857.702820
  0
VERTEX
  8
0
 10
105.203514
 20
859.304016
  0
VERTEX
  8
0
 10
105.198906
 20
861.154846
  0
VERTEX
  8
0
 10
105.154213
 20
862.834106
  0
VERTEX
  8
0
 10
105.061798
 20
864.610596
  0
VERTEX
  8
0
 10
104.941322
 20
866.118652
  0
VERTEX
  8
0
 10
104.812103
 20
867.210938
  0
VERTEX
  8
0
 10
104.639297
 20
868.217102
  0
VERTEX
  8
0
 10
104.406479
 20
869.196716
  0
VERTEX
  8
0
 10
104.167183
 20
869.989563
  0
VERTEX
  8
0
 10
103.794296
 20
870.986755
  0
VERTEX
  8
0
 10
103.527969
 20
871.583130
  0
VERTEX
  8
0
 10
103.331558
 20
871.977966
  0
VERTEX
  8
0
 10
103.007416
 20
872.563904
  0
VERTEX
  8
0
 10
102.770859
 20
872.949036
  0
VERTEX
  8
0
 10
102.384064
 20
873.515442
  0
VERTEX
  8
0
 10
102.104218
 20
873.883545
  0
VERTEX
  8
0
 10
101.650078
 20
874.418274
  0
VERTEX
  8
0
 10
101.323830
 20
874.761047
  0
VERTEX
  8
0
 10
100.978127
 20
875.091492
  0
VERTEX
  8
0
 10
100.612495
 20
875.408081
  0
VERTEX
  8
0
 10
100.226479
 20
875.709656
  0
VERTEX
  8
0
 10
99.820229
 20
875.995056
  0
VERTEX
  8
0
 10
99.396561
 20
876.263916
  0
VERTEX
  8
0
 10
98.959061
 20
876.516052
  0
VERTEX
  8
0
 10
98.056328
 20
876.970032
  0
VERTEX
  8
0
 10
97.598122
 20
877.171570
  0
VERTEX
  8
0
 10
96.912186
 20
877.441467
  0
VERTEX
  8
0
 10
96.460777
 20
877.599731
  0
VERTEX
  8
0
 10
95.799606
 20
877.804504
  0
VERTEX
  8
0
 10
95.145157
 20
877.972351
  0
VERTEX
  8
0
 10
94.700157
 20
878.065430
  0
VERTEX
  8
0
 10
93.755234
 20
878.211670
  0
VERTEX
  8
0
 10
93.240311
 20
878.267151
  0
VERTEX
  8
0
 10
92.393593
 20
878.331299
  0
VERTEX
  8
0
 10
90.730309
 20
878.396301
  0
VERTEX
  8
0
 10
88.788589
 20
878.416687
  0
VERTEX
  8
0
 10
85.840782
 20
878.379517
  0
VERTEX
  8
0
 10
82.925156
 20
878.277344
  0
VERTEX
  8
0
 10
80.499527
 20
878.150269
  0
VERTEX
  8
0
 10
73.492577
 20
877.732300
  0
VERTEX
  8
0
 10
69.400230
 20
877.549683
  0
VERTEX
  8
0
 10
67.181091
 20
877.483643
  0
VERTEX
  8
0
 10
64.829842
 20
877.437317
  0
VERTEX
  8
0
 10
58.934528
 20
877.387329
  0
VERTEX
  8
0
 10
53.639061
 20
877.380432
  0
VERTEX
  8
0
 10
48.602264
 20
877.398193
  0
VERTEX
  8
0
 10
44.112576
 20
877.440369
  0
VERTEX
  8
0
 10
40.362888
 20
877.498169
  0
VERTEX
  8
0
 10
35.599140
 20
877.600769
  0
VERTEX
  8
0
 10
30.194609
 20
877.749146
  0
VERTEX
  8
0
 10
25.678593
 20
877.899719
  0
VERTEX
  8
0
 10
19.586639
 20
878.135193
  0
VERTEX
  8
0
 10
18.440468
 20
878.152344
  0
VERTEX
  8
0
 10
17.316250
 20
878.140137
  0
VERTEX
  8
0
 10
15.912969
 20
878.083557
  0
VERTEX
  8
0
 10
14.242969
 20
877.956726
  0
VERTEX
  8
0
 10
12.872499
 20
877.802979
  0
VERTEX
  8
0
 10
11.539063
 20
877.601379
  0
VERTEX
  8
0
 10
10.270859
 20
877.340698
  0
VERTEX
  8
0
 10
9.322734
 20
877.081543
  0
VERTEX
  8
0
 10
8.449219
 20
876.771240
  0
VERTEX
  8
0
 10
7.652344
 20
876.407898
  0
VERTEX
  8
0
 10
7.098750
 20
876.101990
  0
VERTEX
  8
0
 10
6.410547
 20
875.651855
  0
VERTEX
  8
0
 10
5.925937
 20
875.283875
  0
VERTEX
  8
0
 10
5.313281
 20
874.754822
  0
VERTEX
  8
0
 10
4.735781
 20
874.185425
  0
VERTEX
  8
0
 10
4.195703
 20
873.580322
  0
VERTEX
  8
0
 10
3.695781
 20
872.943726
  0
VERTEX
  8
0
 10
3.238672
 20
872.280579
  0
VERTEX
  8
0
 10
2.826562
 20
871.590576
  0
VERTEX
  8
0
 10
2.547422
 20
871.044189
  0
VERTEX
  8
0
 10
2.293828
 20
870.461609
  0
VERTEX
  8
0
 10
2.065859
 20
869.832886
  0
VERTEX
  8
0
 10
1.863516
 20
869.147705
  0
VERTEX
  8
0
 10
1.686797
 20
868.396057
  0
VERTEX
  8
0
 10
1.534922
 20
867.569031
  0
VERTEX
  8
0
 10
1.406016
 20
866.659912
  0
VERTEX
  8
0
 10
1.297891
 20
865.661682
  0
VERTEX
  8
0
 10
1.182656
 20
864.180908
  0
VERTEX
  8
0
 10
1.115156
 20
862.949097
  0
VERTEX
  8
0
 10
1.047344
 20
861.135437
  0
VERTEX
  8
0
 10
1.007656
 20
859.139221
  0
VERTEX
  8
0
 10
1.000000
 20
857.537659
  0
VERTEX
  8
0
 10
1.014063
 20
855.858704
  0
VERTEX
  8
0
 10
1.052500
 20
854.113159
  0
VERTEX
  8
0
 10
1.145469
 20
851.701843
  0
VERTEX
  8
0
 10
1.318906
 20
848.623657
  0
VERTEX
  8
0
 10
1.950859
 20
839.738892
  0
VERTEX
  8
0
 10
2.309531
 20
834.199890
  0
VERTEX
  8
0
 10
5.316719
 20
834.018555
  0
VERTEX
  8
0
 10
5.957656
 20
826.307312
  0
VERTEX
  8
0
 10
6.777344
 20
814.673889
  0
VERTEX
  8
0
 10
7.637266
 20
803.666260
  0
VERTEX
  8
0
 10
25.455235
 20
804.615112
  0
VERTEX
  8
0
 10
29.215780
 20
804.793579
  0
VERTEX
  8
0
 10
32.514061
 20
804.928589
  0
VERTEX
  8
0
 10
37.092186
 20
805.083191
  0
VERTEX
  8
0
 10
42.976952
 20
805.239380
  0
VERTEX
  8
0
 10
48.769764
 20
805.352661
  0
VERTEX
  8
0
 10
53.158123
 20
805.405762
  0
VERTEX
  8
0
 10
58.082890
 20
805.405090
  0
VERTEX
  8
0
 10
60.633591
 20
805.372192
  0
VERTEX
  8
0
 10
63.375778
 20
805.313904
  0
VERTEX
  8
0
 10
69.791252
 20
805.112976
  0
VERTEX
  8
0
 10
84.283043
 20
804.559570
  0
VERTEX
  8
0
 10
89.243752
 20
804.394836
  0
VERTEX
  8
0
 10
91.635704
 20
804.334961
  0
VERTEX
  8
0
 10
94.286324
 20
804.291321
  0
VERTEX
  8
0
 10
98.947342
 20
804.280273
  0
SEQEND
  8
0
  0
POLYLINE
  8
0
  0
VERTEX
  8
0
 10
53.587811
 20
877.409851
  0
VERTEX
  8
0
 10
53.587811
 20
861.406067
  0
VERTEX
  8
0
 10
53.587811
 20
853.404175
  0
VERTEX
  8
0
 10
53.587811
 20
841.401367
  0
VERTEX
  8
0
 10
53.587811
 20
825.397644
  0
VERTEX
  8
0
 10
53.587811
 20
817.395813
  0
VERTEX
  8
0
 10
53.587811
 20
805.393005
  0
SEQEND
  8
0
  0
POLYLINE
  8
0
  0
VERTEX
  8
0
 10
72.590546
 20
835.181213
  0
VERTEX
  8
0
 10
72.203751
 20
824.776367
  0
VERTEX
  8
0
 10
61.681171
 20
824.639771
  0
SEQEND
  8
0
  0
POLYLINE
  8
0
  0
VERTEX
  8
0
 10
33.349609
 20
835.229065
  0
VERTEX
  8
0
 10
33.744999
 20
824.580994
  0
VERTEX
  8
0
 10
44.220154
 20
824.451843
  0
SEQEND
  8
0
  0
POLYLINE
  8
0
  0
VERTEX
  8
0
 10
100.738045
 20
834.401062
  0
VERTEX
  8
0
 10
101.072182
 20
839.651123
  0
VERTEX
  8
0
 10
101.887108
 20
851.806396
  0
VERTEX
  8
0
 10
102.093277
 20
855.648254
  0
VERTEX
  8
0
 10
102.189140
 20
858.556519
  0
VERTEX
  8
0
 10
102.203354
 20
860.054504
  0
VERTEX
  8
0
 10
102.181641
 20
861.767334
  0
VERTEX
  8
0
 10
102.125854
 20
863.292480
  0
VERTEX
  8
0
 10
102.029137
 20
864.858643
  0
VERTEX
  8
0
 10
101.910934
 20
866.137939
  0
VERTEX
  8
0
 10
101.786324
 20
867.041992
  0
VERTEX
  8
0
 10
101.625465
 20
867.860901
  0
VERTEX
  8
0
 10
101.416641
 20
868.650269
  0
VERTEX
  8
0
 10
101.265312
 20
869.119873
  0
VERTEX
  8
0
 10
101.093437
 20
869.584595
  0
VERTEX
  8
0
 10
100.759293
 20
870.343201
  0
VERTEX
  8
0
 10
100.529060
 20
870.785889
  0
VERTEX
  8
0
 10
100.275467
 20
871.217163
  0
VERTEX
  8
0
 10
99.996407
 20
871.635193
  0
VERTEX
  8
0
 10
99.794922
 20
871.905579
  0
VERTEX
  8
0
 10
99.467262
 20
872.297546
  0
VERTEX
  8
0
 10
99.230698
 20
872.548950
  0
VERTEX
  8
0
 10
98.710236
 20
873.025635
  0
VERTEX
  8
0
 10
98.121719
 20
873.464050
  0
VERTEX
  8
0
 10
97.803360
 20
873.667786
  0
VERTEX
  8
0
 10
97.302734
 20
873.953003
  0
VERTEX
  8
0
 10
96.428749
 20
874.371399
  0
VERTEX
  8
0
 10
95.540932
 20
874.713867
  0
VERTEX
  8
0
 10
94.666954
 20
874.976685
  0
VERTEX
  8
0
 10
93.931557
 20
875.133545
  0
VERTEX
  8
0
 10
93.319923
 20
875.223938
  0
VERTEX
  8
0
 10
92.869530
 20
875.272644
  0
VERTEX
  8
0
 10
91.832733
 20
875.345276
  0
VERTEX
  8
0
 10
90.573906
 20
875.389587
  0
VERTEX
  8
0
 10
88.732887
 20
875.409363
  0
VERTEX
  8
0
 10
85.888123
 20
875.375427
  0
VERTEX
  8
0
 10
83.036949
 20
875.277100
  0
VERTEX
  8
0
 10
80.640465
 20
875.152344
  0
VERTEX
  8
0
 10
73.622810
 20
874.734985
  0
VERTEX
  8
0
 10
69.496635
 20
874.550903
  0
VERTEX
  8
0
 10
67.258751
 20
874.484375
  0
VERTEX
  8
0
 10
64.888985
 20
874.437622
  0
VERTEX
  8
0
 10
58.954685
 20
874.387146
  0
VERTEX
  8
0
 10
53.633827
 20
874.380310
  0
VERTEX
  8
0
 10
48.577969
 20
874.398132
  0
VERTEX
  8
0
 10
44.072498
 20
874.440613
  0
VERTEX
  8
0
 10
40.309219
 20
874.498596
  0
VERTEX
  8
0
 10
35.527813
 20
874.601563
  0
VERTEX
  8
0
 10
30.106874
 20
874.750122
  0
VERTEX
  8
0
 10
25.587500
 20
874.900208
  0
VERTEX
  8
0
 10
19.861874
 20
875.123169
  0
VERTEX
  8
0
 10
18.733515
 20
875.146057
  0
VERTEX
  8
0
 10
17.658983
 20
875.140930
  0
VERTEX
  8
0
 10
16.333359
 20
875.094849
  0
VERTEX
  8
0
 10
15.038906
 20
875.007019
  0
VERTEX
  8
0
 10
13.788359
 20
874.880432
  0
VERTEX
  8
0
 10
12.596719
 20
874.716614
  0
VERTEX
  8
0
 10
11.486172
 20
874.512329
  0
VERTEX
  8
0
 10
10.672421
 20
874.316956
  0
VERTEX
  8
0
 10
9.938359
 20
874.090515
  0
VERTEX
  8
0
 10
9.604531
 20
873.965149
  0
VERTEX
  8
0
 10
9.142656
 20
873.761414
  0
VERTEX
  8
0
 10
8.588515
 20
873.460938
  0
VERTEX
  8
0
 10
8.090390
 20
873.127625
  0
VERTEX
  8
0
 10
7.632031
 20
872.761414
  0
VERTEX
  8
0
 10
7.198828
 20
872.362793
  0
VERTEX
  8
0
 10
6.787500
 20
871.934998
  0
VERTEX
  8
0
 10
6.308594
 20
871.366089
  0
VERTEX
  8
0
 10
5.874140
 20
870.767578
  0
VERTEX
  8
0
 10
5.562109
 20
870.271057
  0
VERTEX
  8
0
 10
5.282031
 20
869.740295
  0
VERTEX
  8
0
 10
5.092266
 20
869.301880
  0
VERTEX
  8
0
 10
4.919375
 20
868.815186
  0
VERTEX
  8
0
 10
4.762813
 20
868.267822
  0
VERTEX
  8
0
 10
4.622188
 20
867.647034
  0
VERTEX
  8
0
 10
4.496875
 20
866.942627
  0
VERTEX
  8
0
 10
4.386484
 20
866.147156
  0
VERTEX
  8
0
 10
4.290469
 20
865.253601
  0
VERTEX
  8
0
 10
4.183750
 20
863.896851
  0
VERTEX
  8
0
 10
4.119062
 20
862.746338
  0
VERTEX
  8
0
 10
4.029219
 20
860.087036
  0
VERTEX
  8
0
 10
4.008281
 20
858.594849
  0
VERTEX
  8
0
 10
4.006875
 20
857.010376
  0
VERTEX
  8
0
 10
4.027656
 20
855.345581
  0
VERTEX
  8
0
 10
4.073359
 20
853.612488
  0
VERTEX
  8
0
 10
4.175937
 20
851.218872
  0
VERTEX
  8
0
 10
4.316875
 20
848.783630
  0
VERTEX
  8
0
 10
4.943438
 20
839.952271
  0
VERTEX
  8
0
 10
5.302031
 20
834.413025
  0
SEQEND
  8
0
  0
POLYLINE
  8
0
  0
VERTEX
  8
0
 10
53.394218
 20
876.395935
  0
VERTEX
  8
0
 10
52.915936
 20
876.300781
  0
VERTEX
  8
0
 10
52.510391
 20
876.029846
  0
VERTEX
  8
0
 10
52.239372
 20
875.624329
  0
VERTEX
  8
0
 10
52.144218
 20
875.145935
  0
VERTEX
  8
0
 10
52.239372
 20
874.667664
  0
VERTEX
  8
0
 10
52.510391
 20
874.262085
  0
VERTEX
  8
0
 10
52.915936
 20
873.991089
  0
VERTEX
  8
0
 10
53.394218
 20
873.895935
  0
VERTEX
  8
0
 10
53.872578
 20
873.991089
  0
VERTEX
  8
0
 10
54.278122
 20
874.262085
  0
VERTEX
  8
0
 10
54.549141
 20
874.667664
  0
VERTEX
  8
0
 10
54.644218
 20
875.145935
  0
VERTEX
  8
0
 10
54.549141
 20
875.624329
  0
VERTEX
  8
0
 10
54.278122
 20
876.029846
  0
VERTEX
  8
0
 10
53.872578
 20
876.300781
  0
VERTEX
  8
0
 10
53.394218
 20
876.395935
  0
SEQEND
  8
0
  0
POLYLINE
  8
0
  0
VERTEX
  8
0
 10
53.572498
 20
809.244385
  0
VERTEX
  8
0
 10
53.094139
 20
809.149231
  0
VERTEX
  8
0
 10
52.688591
 20
808.878174
  0
VERTEX
  8
0
 10
52.417656
 20
808.472656
  0
VERTEX
  8
0
 10
52.322498
 20
807.994385
  0
VERTEX
  8
0
 10
52.417656
 20
807.515930
  0
VERTEX
  8
0
 10
52.688591
 20
807.110474
  0
VERTEX
  8
0
 10
53.094139
 20
806.839539
  0
VERTEX
  8
0
 10
53.572498
 20
806.744385
  0
VERTEX
  8
0
 10
54.050858
 20
806.839539
  0
VERTEX
  8
0
 10
54.456406
 20
807.110474
  0
VERTEX
  8
0
 10
54.727341
 20
807.515930
  0
VERTEX
  8
0
 10
54.822498
 20
807.994385
  0
VERTEX
  8
0
 10
54.727341
 20
808.472656
  0
VERTEX
  8
0
 10
54.456406
 20
808.878174
  0
VERTEX
  8
0
 10
54.050858
 20
809.149231
  0
VERTEX
  8
0
 10
53.572498
 20
809.244385
  0
SEQEND
  8
0
  0
POLYLINE
  8
0
  0
VERTEX
  8
0
 10
72.827736
 20
933.155762
  0
VERTEX
  8
0
 10
57.014919
 20
933.094666
  0
VERTEX
  8
0
 10
37.249142
 20
933.018250
  0
VERTEX
  8
0
 10
21.436483
 20
932.957092
  0
VERTEX
  8
0
 10
1.670625
 20
932.880615
  0
VERTEX
  8
0
 10
1.000000
 20
951.063232
  0
VERTEX
  8
0
 10
16.961718
 20
951.075745
  0
VERTEX
  8
0
 10
36.913826
 20
951.091492
  0
VERTEX
  8
0
 10
52.875546
 20
951.104065
  0
VERTEX
  8
0
 10
72.827736
 20
951.119690
  0
VERTEX
  8
0
 10
72.827736
 20
933.155762
  0
SEQEND
  8
0
  0
POLYLINE
  8
0
  0
VERTEX
  8
0
 10
58.117420
 20
945.697937
  0
VERTEX
  8
0
 10
58.246326
 20
939.280518
  0
SEQEND
  8
0
  0
POLYLINE
  8
0
  0
VERTEX
  8
0
 10
30.066952
 20
945.874023
  0
VERTEX
  8
0
 10
30.195156
 20
938.178894
  0
SEQEND
  8
0
  0
POLYLINE
  8
0
  0
VERTEX
  8
0
 10
1.000000
 20
902.841125
  0
VERTEX
  8
0
 10
3.917812
 20
902.608093
  0
VERTEX
  8
0
 10
5.011094
 20
902.502686
  0
VERTEX
  8
0
 10
6.016797
 20
902.386169
  0
VERTEX
  8
0
 10
6.702188
 20
902.289490
  0
VERTEX
  8
0
 10
7.537265
 20
902.146057
  0
VERTEX
  8
0
 10
8.119531
 20
902.026062
  0
VERTEX
  8
0
 10
8.859062
 20
901.847107
  0
VERTEX
  8
0
 10
9.581484
 20
901.643860
  0
VERTEX
  8
0
 10
10.310781
 20
901.411316
  0
VERTEX
  8
0
 10
11.057656
 20
901.135071
  0
VERTEX
  8
0
 10
11.633594
 20
900.889221
  0
VERTEX
  8
0
 10
12.226641
 20
900.602478
  0
VERTEX
  8
0
 10
12.839766
 20
900.267822
  0
VERTEX
  8
0
 10
13.475625
 20
899.878906
  0
VERTEX
  8
0
 10
14.132030
 20
899.436707
  0
VERTEX
  8
0
 10
14.803672
 20
898.947021
  0
VERTEX
  8
0
 10
15.713437
 20
898.230713
  0
VERTEX
  8
0
 10
16.399530
 20
897.653442
  0
VERTEX
  8
0
 10
17.308985
 20
896.841553
  0
VERTEX
  8
0
 10
18.204140
 20
895.988831
  0
VERTEX
  8
0
 10
18.864843
 20
895.321289
  0
VERTEX
  8
0
 10
19.515469
 20
894.628113
  0
VERTEX
  8
0
 10
20.155624
 20
893.907959
  0
VERTEX
  8
0
 10
21.197187
 20
892.643738
  0
VERTEX
  8
0
 10
22.206562
 20
891.306946
  0
VERTEX
  8
0
 10
22.992811
 20
890.208557
  0
VERTEX
  8
0
 10
25.255312
 20
886.970154
  0
VERTEX
  8
0
 10
26.637968
 20
885.069519
  0
VERTEX
  8
0
 10
27.672577
 20
883.742188
  0
VERTEX
  8
0
 10
28.052422
 20
883.293579
  0
VERTEX
  8
0
 10
28.402657
 20
882.909180
  0
VERTEX
  8
0
 10
28.732889
 20
882.578735
  0
VERTEX
  8
0
 10
29.158438
 20
882.204224
  0
VERTEX
  8
0
 10
29.587891
 20
881.882935
  0
VERTEX
  8
0
 10
30.041094
 20
881.595032
  0
VERTEX
  8
0
 10
30.526171
 20
881.338745
  0
VERTEX
  8
0
 10
30.914219
 20
881.168701
  0
VERTEX
  8
0
 10
31.468203
 20
880.974060
  0
VERTEX
  8
0
 10
31.914141
 20
880.853271
  0
VERTEX
  8
0
 10
32.721172
 20
880.703735
  0
VERTEX
  8
0
 10
33.613125
 20
880.623108
  0
VERTEX
  8
0
 10
34.595467
 20
880.616943
  0
VERTEX
  8
0
 10
35.450233
 20
880.668945
  0
VERTEX
  8
0
 10
36.392654
 20
880.774353
  0
VERTEX
  8
0
 10
37.493591
 20
880.934998
  0
VERTEX
  8
0
 10
43.630234
 20
881.946289
  0
VERTEX
  8
0
 10
47.354061
 20
882.519531
  0
VERTEX
  8
0
 10
50.595154
 20
882.969055
  0
VERTEX
  8
0
 10
53.109375
 20
883.270264
  0
VERTEX
  8
0
 10
56.066952
 20
883.553406
  0
VERTEX
  8
0
 10
58.843906
 20
883.739197
  0
VERTEX
  8
0
 10
61.471794
 20
883.835693
  0
VERTEX
  8
0
 10
63.980858
 20
883.851135
  0
VERTEX
  8
0
 10
65.438828
 20
883.826050
  0
VERTEX
  8
0
 10
66.866173
 20
883.778625
  0
VERTEX
  8
0
 10
69.645386
 20
883.627075
  0
VERTEX
  8
0
 10
72.798355
 20
883.375977
  0
VERTEX
  8
0
 10
75.469452
 20
883.097961
  0
VERTEX
  8
0
 10
77.706017
 20
882.814758
  0
VERTEX
  8
0
 10
80.430389
 20
882.407715
  0
VERTEX
  8
0
 10
83.122498
 20
881.955505
  0
VERTEX
  8
0
 10
88.490158
 20
881.000000
  0
VERTEX
  8
0
 10
90.478432
 20
880.673889
  0
VERTEX
  8
0
 10
91.417267
 20
880.543701
  0
VERTEX
  8
0
 10
92.033516
 20
880.475220
  0
VERTEX
  8
0
 10
92.584923
 20
880.432556
  0
VERTEX
  8
0
 10
93.085938
 20
880.416687
  0
VERTEX
  8
0
 10
93.700470
 20
880.438416
  0
VERTEX
  8
0
 10
94.430779
 20
880.536987
  0
VERTEX
  8
0
 10
95.173904
 20
880.718323
  0
VERTEX
  8
0
 10
95.933044
 20
880.985352
  0
VERTEX
  8
0
 10
96.537186
 20
881.262634
  0
VERTEX
  8
0
 10
97.126167
 20
881.598206
  0
VERTEX
  8
0
 10
97.691872
 20
881.995605
  0
VERTEX
  8
0
 10
98.251640
 20
882.478821
  0
VERTEX
  8
0
 10
98.686249
 20
882.917786
  0
VERTEX
  8
0
 10
98.990150
 20
883.255005
  0
VERTEX
  8
0
 10
99.477104
 20
883.837952
  0
VERTEX
  8
0
 10
100.012970
 20
884.526611
  0
VERTEX
  8
0
 10
101.027885
 20
885.913208
  0
VERTEX
  8
0
 10
103.511406
 20
889.435242
  0
VERTEX
  8
0
 10
104.804604
 20
891.218872
  0
VERTEX
  8
0
 10
106.007813
 20
892.784363
  0
VERTEX
  8
0
 10
107.171638
 20
894.186768
  0
VERTEX
  8
0
 10
107.754845
 20
894.844482
  0
VERTEX
  8
0
 10
108.541870
 20
895.685669
  0
VERTEX
  8
0
 10
109.335854
 20
896.483093
  0
VERTEX
  8
0
 10
110.131874
 20
897.232971
  0
VERTEX
  8
0
 10
110.727188
 20
897.761597
  0
VERTEX
  8
0
 10
111.514999
 20
898.418579
  0
VERTEX
  8
0
 10
112.296326
 20
899.018860
  0
VERTEX
  8
0
 10
112.880623
 20
899.431458
  0
VERTEX
  8
0
 10
113.465782
 20
899.811523
  0
VERTEX
  8
0
 10
114.053589
 20
900.158875
  0
VERTEX
  8
0
 10
114.646248
 20
900.473083
  0
VERTEX
  8
0
 10
115.246094
 20
900.754883
  0
VERTEX
  8
0
 10
115.857964
 20
901.007324
  0
VERTEX
  8
0
 10
116.487495
 20
901.234436
  0
VERTEX
  8
0
 10
117.139839
 20
901.440063
  0
VERTEX
  8
0
 10
118.054840
 20
901.687805
  0
VERTEX
  8
0
 10
119.032028
 20
901.913391
  0
VERTEX
  8
0
 10
120.316635
 20
902.166626
  0
VERTEX
  8
0
 10
121.346405
 20
902.339539
  0
VERTEX
  8
0
 10
122.569138
 20
902.509521
  0
VERTEX
  8
0
 10
123.447495
 20
902.602173
  0
VERTEX
  8
0
 10
124.226166
 20
902.657776
  0
VERTEX
  8
0
 10
125.095779
 20
902.688904
  0
VERTEX
  8
0
 10
126.161873
 20
902.693359
  0
VERTEX
  8
0
 10
125.039841
 20
906.253906
  0
VERTEX
  8
0
 10
124.491013
 20
907.885620
  0
VERTEX
  8
0
 10
124.061249
 20
909.090210
  0
VERTEX
  8
0
 10
123.457573
 20
910.662842
  0
VERTEX
  8
0
 10
122.983902
 20
911.803345
  0
VERTEX
  8
0
 10
122.499374
 20
912.891541
  0
VERTEX
  8
0
 10
122.011093
 20
913.910156
  0
VERTEX
  8
0
 10
121.525780
 20
914.841553
  0
VERTEX
  8
0
 10
121.050156
 20
915.668579
  0
VERTEX
  8
0
 10
120.590157
 20
916.375366
  0
VERTEX
  8
0
 10
120.139687
 20
916.965393
  0
VERTEX
  8
0
 10
119.837807
 20
917.301453
  0
VERTEX
  8
0
 10
119.372337
 20
917.731628
  0
VERTEX
  8
0
 10
118.879372
 20
918.087036
  0
VERTEX
  8
0
 10
118.344917
 20
918.383545
  0
VERTEX
  8
0
 10
117.755310
 20
918.637024
  0
VERTEX
  8
0
 10
116.876091
 20
918.926147
  0
VERTEX
  8
0
 10
116.157341
 20
919.111389
  0
VERTEX
  8
0
 10
115.136719
 20
919.322693
  0
VERTEX
  8
0
 10
114.064056
 20
919.500854
  0
VERTEX
  8
0
 10
112.677422
 20
919.688110
  0
VERTEX
  8
0
 10
111.512497
 20
919.809692
  0
VERTEX
  8
0
 10
110.253510
 20
919.900208
  0
VERTEX
  8
0
 10
108.858589
 20
919.953857
  0
VERTEX
  8
0
 10
107.285934
 20
919.965149
  0
VERTEX
  8
0
 10
105.523750
 20
919.935425
  0
VERTEX
  8
0
 10
99.078438
 20
919.754272
  0
VERTEX
  8
0
 10
96.579529
 20
919.731628
  0
VERTEX
  8
0
 10
94.231407
 20
919.745605
  0
VERTEX
  8
0
 10
91.401794
 20
919.804138
  0
VERTEX
  8
0
 10
89.077888
 20
919.899658
  0
VERTEX
  8
0
 10
88.236641
 20
919.965454
  0
VERTEX
  8
0
 10
87.710625
 20
920.027405
  0
VERTEX
  8
0
 10
87.254135
 20
920.102783
  0
VERTEX
  8
0
 10
86.849373
 20
920.194336
  0
VERTEX
  8
0
 10
86.482574
 20
920.308289
  0
VERTEX
  8
0
 10
86.253670
 20
920.400635
  0
VERTEX
  8
0
 10
85.925392
 20
920.570007
  0
VERTEX
  8
0
 10
85.711876
 20
920.706909
  0
VERTEX
  8
0
 10
85.498749
 20
920.865967
  0
VERTEX
  8
0
 10
85.172813
 20
921.151550
  0
VERTEX
  8
0
 10
84.830154
 20
921.500000
  0
VERTEX
  8
0
 10
84.591324
 20
921.767822
  0
VERTEX
  8
0
 10
83.967262
 20
922.551514
  0
VERTEX
  8
0
 10
83.320465
 20
923.482300
  0
VERTEX
  8
0
 10
82.800308
 20
924.318665
  0
VERTEX
  8
0
 10
81.487808
 20
926.597656
  0
VERTEX
  8
0
 10
81.063904
 20
927.256409
  0
VERTEX
  8
0
 10
80.766876
 20
927.670593
  0
VERTEX
  8
0
 10
80.294060
 20
928.240051
  0
VERTEX
  8
0
 10
79.957886
 20
928.577637
  0
VERTEX
  8
0
 10
79.420776
 20
929.022217
  0
VERTEX
  8
0
 10
78.843979
 20
929.399292
  0
VERTEX
  8
0
 10
78.437111
 20
929.616882
  0
VERTEX
  8
0
 10
78.012260
 20
929.809998
  0
VERTEX
  8
0
 10
77.569374
 20
929.981079
  0
VERTEX
  8
0
 10
77.108276
 20
930.132141
  0
VERTEX
  8
0
 10
76.628906
 20
930.265625
  0
VERTEX
  8
0
 10
76.130157
 20
930.383423
  0
VERTEX
  8
0
 10
75.052971
 20
930.575745
  0
VERTEX
  8
0
 10
73.828667
 20
930.715576
  0
VERTEX
  8
0
 10
72.408516
 20
930.808960
  0
VERTEX
  8
0
 10
70.743439
 20
930.861755
  0
VERTEX
  8
0
 10
68.806953
 20
930.880432
  0
VERTEX
  8
0
 10
65.536720
 20
930.860352
  0
VERTEX
  8
0
 10
61.508358
 20
930.794373
  0
VERTEX
  8
0
 10
56.657890
 20
930.690613
  0
VERTEX
  8
0
 10
53.575390
 20
930.589966
  0
VERTEX
  8
0
 10
51.936794
 20
930.498108
  0
VERTEX
  8
0
 10
50.982811
 20
930.406555
  0
VERTEX
  8
0
 10
50.600391
 20
930.352478
  0
VERTEX
  8
0
 10
50.117500
 20
930.258911
  0
VERTEX
  8
0
 10
49.841717
 20
930.186829
  0
VERTEX
  8
0
 10
49.472733
 20
930.062256
  0
VERTEX
  8
0
 10
49.128281
 20
929.915344
  0
VERTEX
  8
0
 10
48.787266
 20
929.742737
  0
VERTEX
  8
0
 10
48.447186
 20
929.539429
  0
VERTEX
  8
0
 10
48.106953
 20
929.300781
  0
VERTEX
  8
0
 10
47.765545
 20
929.021790
  0
VERTEX
  8
0
 10
47.421875
 20
928.697693
  0
VERTEX
  8
0
 10
47.191093
 20
928.454224
  0
VERTEX
  8
0
 10
46.842266
 20
928.046387
  0
VERTEX
  8
0
 10
46.260548
 20
927.272095
  0
VERTEX
  8
0
 10
45.579529
 20
926.236145
  0
VERTEX
  8
0
 10
45.042812
 20
925.330933
  0
VERTEX
  8
0
 10
44.139843
 20
923.723328
  0
VERTEX
  8
0
 10
43.627892
 20
922.891602
  0
VERTEX
  8
0
 10
43.302265
 20
922.428589
  0
VERTEX
  8
0
 10
43.073906
 20
922.138123
  0
VERTEX
  8
0
 10
42.584999
 20
921.603882
  0
VERTEX
  8
0
 10
42.186016
 20
921.245239
  0
VERTEX
  8
0
 10
41.902733
 20
921.026550
  0
VERTEX
  8
0
 10
41.449375
 20
920.730042
  0
VERTEX
  8
0
 10
41.126560
 20
920.553711
  0
VERTEX
  8
0
 10
40.786247
 20
920.394958
  0
VERTEX
  8
0
 10
40.243359
 20
920.189453
  0
VERTEX
  8
0
 10
39.671406
 20
920.020996
  0
VERTEX
  8
0
 10
39.083435
 20
919.886719
  0
VERTEX
  8
0
 10
38.492344
 20
919.783875
  0
VERTEX
  8
0
 10
37.721405
 20
919.690430
  0
VERTEX
  8
0
 10
36.995625
 20
919.640991
  0
VERTEX
  8
0
 10
36.283203
 20
919.627625
  0
VERTEX
  8
0
 10
29.917734
 20
919.815308
  0
VERTEX
  8
0
 10
23.359297
 20
919.950989
  0
VERTEX
  8
0
 10
19.216015
 20
919.992920
  0
VERTEX
  8
0
 10
17.579140
 20
919.984680
  0
VERTEX
  8
0
 10
16.092499
 20
919.954041
  0
VERTEX
  8
0
 10
14.758124
 20
919.896240
  0
VERTEX
  8
0
 10
13.849375
 20
919.831787
  0
VERTEX
  8
0
 10
13.013124
 20
919.746704
  0
VERTEX
  8
0
 10
12.243515
 20
919.638550
  0
VERTEX
  8
0
 10
11.534922
 20
919.505188
  0
VERTEX
  8
0
 10
10.881719
 20
919.344971
  0
VERTEX
  8
0
 10
10.280156
 20
919.159668
  0
VERTEX
  8
0
 10
9.726406
 20
918.951721
  0
VERTEX
  8
0
 10
9.056250
 20
918.643433
  0
VERTEX
  8
0
 10
8.747969
 20
918.477722
  0
VERTEX
  8
0
 10
8.316093
 20
918.216797
  0
VERTEX
  8
0
 10
7.789375
 20
917.842529
  0
VERTEX
  8
0
 10
7.300313
 20
917.410217
  0
VERTEX
  8
0
 10
6.827265
 20
916.884033
  0
VERTEX
  8
0
 10
6.470000
 20
916.406372
  0
VERTEX
  8
0
 10
5.972969
 20
915.630310
  0
VERTEX
  8
0
 10
5.577734
 20
914.931946
  0
VERTEX
  8
0
 10
5.025781
 20
913.851074
  0
VERTEX
  8
0
 10
4.453437
 20
912.609131
  0
VERTEX
  8
0
 10
3.869453
 20
911.217041
  0
VERTEX
  8
0
 10
3.429219
 20
910.081055
  0
VERTEX
  8
0
 10
2.989609
 20
908.874329
  0
VERTEX
  8
0
 10
2.404531
 20
907.176514
  0
VERTEX
  8
0
 10
1.000000
 20
902.841125
  0
SEQEND
  8
0
  0
POLYLINE
  8
0
  0
VERTEX
  8
0
 10
63.559685
 20
883.703796
  0
VERTEX
  8
0
 10
63.559685
 20
894.159485
  0
VERTEX
  8
0
 10
63.559685
 20
907.229065
  0
VERTEX
  8
0
 10
63.559685
 20
917.684814
  0
VERTEX
  8
0
 10
63.559685
 20
930.754333
  0
SEQEND
  8
0
  0
POLYLINE
  8
0
  0
VERTEX
  8
0
 10
60.492809
 20
912.549805
  0
VERTEX
  8
0
 10
66.315781
 20
912.387146
  0
SEQEND
  8
0
  0
POLYLINE
  8
0
  0
VERTEX
  8
0
 10
59.613594
 20
892.612183
  0
VERTEX
  8
0
 10
67.192970
 20
892.583435
  0
SEQEND
  8
0
  0
POLYLINE
  8
0
  0
VERTEX
  8
0
 10
1.326094
 20
906.827637
  0
VERTEX
  8
0
 10
4.403515
 20
906.585815
  0
VERTEX
  8
0
 10
5.562734
 20
906.473633
  0
VERTEX
  8
0
 10
6.650312
 20
906.346008
  0
VERTEX
  8
0
 10
7.409765
 20
906.237488
  0
VERTEX
  8
0
 10
8.360547
 20
906.072388
  0
VERTEX
  8
0
 10
9.264218
 20
905.880066
  0
VERTEX
  8
0
 10
10.146484
 20
905.656494
  0
VERTEX
  8
0
 10
11.033125
 20
905.397217
  0
VERTEX
  8
0
 10
11.942187
 20
905.094421
  0
VERTEX
  8
0
 10
12.641093
 20
904.829529
  0
VERTEX
  8
0
 10
13.355469
 20
904.524353
  0
VERTEX
  8
0
 10
14.086171
 20
904.172180
  0
VERTEX
  8
0
 10
14.834063
 20
903.766052
  0
VERTEX
  8
0
 10
15.599609
 20
903.299744
  0
VERTEX
  8
0
 10
16.379608
 20
902.775391
  0
VERTEX
  8
0
 10
17.168360
 20
902.200134
  0
VERTEX
  8
0
 10
17.960155
 20
901.581604
  0
VERTEX
  8
0
 10
18.749453
 20
900.927185
  0
VERTEX
  8
0
 10
19.530390
 20
900.244141
  0
VERTEX
  8
0
 10
20.297655
 20
899.539673
  0
VERTEX
  8
0
 10
21.048750
 20
898.815735
  0
VERTEX
  8
0
 10
21.783203
 20
898.071594
  0
VERTEX
  8
0
 10
22.500467
 20
897.306091
  0
VERTEX
  8
0
 10
23.656328
 20
895.979919
  0
VERTEX
  8
0
 10
24.325312
 20
895.152405
  0
VERTEX
  8
0
 10
24.975624
 20
894.303955
  0
VERTEX
  8
0
 10
26.018593
 20
892.869873
  0
VERTEX
  8
0
 10
27.955467
 20
890.094971
  0
VERTEX
  8
0
 10
29.010859
 20
888.614014
  0
VERTEX
  8
0
 10
29.935078
 20
887.363403
  0
VERTEX
  8
0
 10
30.674999
 20
886.417297
  0
VERTEX
  8
0
 10
31.282734
 20
885.726624
  0
VERTEX
  8
0
 10
31.540468
 20
885.480225
  0
VERTEX
  8
0
 10
31.759218
 20
885.302490
  0
VERTEX
  8
0
 10
32.009216
 20
885.130920
  0
VERTEX
  8
0
 10
32.264374
 20
884.990112
  0
VERTEX
  8
0
 10
32.553280
 20
884.874023
  0
VERTEX
  8
0
 10
32.828045
 20
884.795288
  0
VERTEX
  8
0
 10
33.446716
 20
884.684875
  0
VERTEX
  8
0
 10
34.155937
 20
884.641052
  0
VERTEX
  8
0
 10
34.900860
 20
884.662537
  0
VERTEX
  8
0
 10
35.818279
 20
884.753784
  0
VERTEX
  8
0
 10
37.303360
 20
884.971069
  0
VERTEX
  8
0
 10
43.624763
 20
885.999573
  0
VERTEX
  8
0
 10
47.462029
 20
886.579590
  0
VERTEX
  8
0
 10
50.774063
 20
887.026245
  0
VERTEX
  8
0
 10
52.067966
 20
887.181091
  0
VERTEX
  8
0
 10
53.948357
 20
887.381287
  0
VERTEX
  8
0
 10
56.350311
 20
887.590698
  0
VERTEX
  8
0
 10
58.644375
 20
887.737427
  0
VERTEX
  8
0
 10
60.843983
 20
887.825195
  0
VERTEX
  8
0
 10
63.481091
 20
887.857971
  0
VERTEX
  8
0
 10
65.011871
 20
887.840454
  0
VERTEX
  8
0
 10
66.508904
 20
887.798584
  0
VERTEX
  8
0
 10
67.976326
 20
887.735229
  0
VERTEX
  8
0
 10
69.418045
 20
887.653015
  0
VERTEX
  8
0
 10
70.838127
 20
887.554993
  0
VERTEX
  8
0
 10
72.705154
 20
887.402893
  0
VERTEX
  8
0
 10
74.553123
 20
887.224915
  0
VERTEX
  8
0
 10
75.933823
 20
887.072876
  0
VERTEX
  8
0
 10
78.240463
 20
886.780762
  0
VERTEX
  8
0
 10
81.036797
 20
886.363403
  0
VERTEX
  8
0
 10
83.331871
 20
885.981140
  0
VERTEX
  8
0
 10
88.466095
 20
885.074829
  0
VERTEX
  8
0
 10
90.696793
 20
884.703125
  0
VERTEX
  8
0
 10
92.058434
 20
884.514954
  0
VERTEX
  8
0
 10
92.608276
 20
884.465454
  0
VERTEX
  8
0
 10
93.032417
 20
884.452454
  0
VERTEX
  8
0
 10
93.444611
 20
884.478821
  0
VERTEX
  8
0
 10
93.796249
 20
884.541931
  0
VERTEX
  8
0
 10
94.142967
 20
884.637146
  0
VERTEX
  8
0
 10
94.495392
 20
884.774170
  0
VERTEX
  8
0
 10
94.858360
 20
884.964966
  0
VERTEX
  8
0
 10
95.159996
 20
885.165039
  0
VERTEX
  8
0
 10
95.488281
 20
885.434143
  0
VERTEX
  8
0
 10
95.769684
 20
885.708496
  0
VERTEX
  8
0
 10
96.343277
 20
886.362061
  0
VERTEX
  8
0
 10
97.098434
 20
887.339111
  0
VERTEX
  8
0
 10
98.054451
 20
888.662170
  0
VERTEX
  8
0
 10
100.507729
 20
892.127625
  0
VERTEX
  8
0
 10
101.824684
 20
893.921997
  0
VERTEX
  8
0
 10
103.090469
 20
895.548645
  0
VERTEX
  8
0
 10
103.718277
 20
896.312012
  0
VERTEX
  8
0
 10
104.350388
 20
897.049072
  0
VERTEX
  8
0
 10
105.208588
 20
897.998596
  0
VERTEX
  8
0
 10
105.864998
 20
898.686523
  0
VERTEX
  8
0
 10
106.754684
 20
899.568726
  0
VERTEX
  8
0
 10
107.431404
 20
900.202148
  0
VERTEX
  8
0
 10
108.344063
 20
901.006226
  0
VERTEX
  8
0
 10
109.034843
 20
901.576904
  0
VERTEX
  8
0
 10
109.964294
 20
902.291260
  0
VERTEX
  8
0
 10
110.668671
 20
902.789185
  0
VERTEX
  8
0
 10
111.380157
 20
903.252502
  0
VERTEX
  8
0
 10
112.099525
 20
903.678894
  0
VERTEX
  8
0
 10
112.827499
 20
904.066223
  0
VERTEX
  8
0
 10
113.565392
 20
904.413635
  0
VERTEX
  8
0
 10
114.316406
 20
904.724304
  0
VERTEX
  8
0
 10
115.084213
 20
905.002502
  0
VERTEX
  8
0
 10
115.872650
 20
905.252808
  0
VERTEX
  8
0
 10
116.962181
 20
905.550659
  0
VERTEX
  8
0
 10
118.102577
 20
905.816711
  0
VERTEX
  8
0
 10
119.277344
 20
906.053894
  0
VERTEX
  8
0
 10
120.445465
 20
906.257935
  0
VERTEX
  8
0
 10
121.832657
 20
906.459534
  0
VERTEX
  8
0
 10
122.832970
 20
906.572632
  0
VERTEX
  8
0
 10
123.917343
 20
906.654419
  0
VERTEX
  8
0
 10
124.863907
 20
906.687622
  0
VERTEX
  8
0
 10
126.066948
 20
906.690979
  0
SEQEND
  8
0
  0
POLYLINE
  8
0
  0
VERTEX
  8
0
 10
73.287186
 20
927.772583
  0
VERTEX
  8
0
 10
73.192032
 20
928.250916
  0
VERTEX
  8
0
 10
72.921089
 20
928.656433
  0
VERTEX
  8
0
 10
72.515549
 20
928.927429
  0
VERTEX
  8
0
 10
72.037186
 20
929.022583
  0
VERTEX
  8
0
 10
71.558830
 20
928.927429
  0
VERTEX
  8
0
 10
71.153282
 20
928.656433
  0
VERTEX
  8
0
 10
70.882339
 20
928.250916
  0
VERTEX
  8
0
 10
70.787186
 20
927.772583
  0
VERTEX
  8
0
 10
70.882339
 20
927.294189
  0
VERTEX
  8
0
 10
71.153282
 20
926.888672
  0
VERTEX
  8
0
 10
71.558830
 20
926.617737
  0
VERTEX
  8
0
 10
72.037186
 20
926.522583
  0
VERTEX
  8
0
 10
72.515549
 20
926.617737
  0
VERTEX
  8
0
 10
72.921089
 20
926.888672
  0
VERTEX
  8
0
 10
73.192032
 20
927.294189
  0
VERTEX
  8
0
 10
73.287186
 20
927.772583
  0
SEQEND
  8
0
  0
POLYLINE
  8
0
  0
VERTEX
  8
0
 10
56.286873
 20
927.851074
  0
VERTEX
  8
0
 10
56.191719
 20
928.329346
  0
VERTEX
  8
0
 10
55.920780
 20
928.734924
  0
VERTEX
  8
0
 10
55.515232
 20
929.005920
  0
VERTEX
  8
0
 10
55.036873
 20
929.101074
  0
VERTEX
  8
0
 10
54.558514
 20
929.005920
  0
VERTEX
  8
0
 10
54.152969
 20
928.734924
  0
VERTEX
  8
0
 10
53.882030
 20
928.329346
  0
VERTEX
  8
0
 10
53.786873
 20
927.851074
  0
VERTEX
  8
0
 10
53.882030
 20
927.372620
  0
VERTEX
  8
0
 10
54.152969
 20
926.967163
  0
VERTEX
  8
0
 10
54.558514
 20
926.696228
  0
VERTEX
  8
0
 10
55.036873
 20
926.601074
  0
VERTEX
  8
0
 10
55.515232
 20
926.696228
  0
VERTEX
  8
0
 10
55.920780
 20
926.967163
  0
VERTEX
  8
0
 10
56.191719
 20
927.372620
  0
VERTEX
  8
0
 10
56.286873
 20
927.851074
  0
SEQEND
  8
0
  0
POLYLINE
  8
0
  0
VERTEX
  8
0
 10
64.869766
 20
886.659363
  0
VERTEX
  8
0
 10
64.774605
 20
887.137695
  0
VERTEX
  8
0
 10
64.503670
 20
887.543274
  0
VERTEX
  8
0
 10
64.098122
 20
887.814209
  0
VERTEX
  8
0
 10
63.619762
 20
887.909363
  0
VERTEX
  8
0
 10
63.141403
 20
887.814209
  0
VERTEX
  8
0
 10
62.735859
 20
887.543274
  0
VERTEX
  8
0
 10
62.464920
 20
887.137695
  0
VERTEX
  8
0
 10
62.369762
 20
886.659363
  0
VERTEX
  8
0
 10
62.464920
 20
886.180969
  0
VERTEX
  8
0
 10
62.735859
 20
885.775452
  0
VERTEX
  8
0
 10
63.141403
 20
885.504517
  0
VERTEX
  8
0
 10
63.619762
 20
885.409363
  0
VERTEX
  8
0
 10
64.098122
 20
885.504517
  0
VERTEX
  8
0
 10
64.503670
 20
885.775452
  0
VERTEX
  8
0
 10
64.774605
 20
886.180969
  0
VERTEX
  8
0
 10
64.869766
 20
886.659363
  0
SEQEND
  8
0
  0
POLYLINE
  8
0
  0
VERTEX
  8
0
 10
102.713356
 20
184.332581
  0
VERTEX
  8
0
 10
103.732964
 20
198.600784
  0
VERTEX
  8
0
 10
105.007576
 20
216.436005
  0
VERTEX
  8
0
 10
106.027107
 20
230.704132
  0
VERTEX
  8
0
 10
107.301636
 20
248.539291
  0
VERTEX
  8
0
 10
92.998123
 20
261.085297
  0
VERTEX
  8
0
 10
94.890465
 20
276.378815
  0
VERTEX
  8
0
 10
96.221870
 20
287.368896
  0
VERTEX
  8
0
 10
97.654449
 20
299.507874
  0
VERTEX
  8
0
 10
99.384529
 20
314.322662
  0
VERTEX
  8
0
 10
100.547890
 20
324.056702
  0
VERTEX
  8
0
 10
101.178986
 20
329.120941
  0
VERTEX
  8
0
 10
101.916557
 20
334.693207
  0
VERTEX
  8
0
 10
102.546089
 20
339.137329
  0
VERTEX
  8
0
 10
103.553436
 20
345.976776
  0
VERTEX
  8
0
 10
103.967575
 20
349.032806
  0
VERTEX
  8
0
 10
104.251640
 20
351.343811
  0
VERTEX
  8
0
 10
104.602966
 20
354.450134
  0
VERTEX
  8
0
 10
106.217026
 20
370.154358
  0
VERTEX
  8
0
 10
97.318199
 20
375.089355
  0
VERTEX
  8
0
 10
89.664764
 20
379.313904
  0
VERTEX
  8
0
 10
83.599220
 20
382.639526
  0
VERTEX
  8
0
 10
71.092339
 20
389.457642
  0
VERTEX
  8
0
 10
64.302887
 20
393.192322
  0
VERTEX
  8
0
 10
56.067497
 20
397.785614
  0
VERTEX
  8
0
 10
43.700703
 20
404.752350
  0
VERTEX
  8
0
 10
35.106094
 20
388.354675
  0
VERTEX
  8
0
 10
30.174530
 20
378.918579
  0
VERTEX
  8
0
 10
25.229061
 20
369.413422
  0
VERTEX
  8
0
 10
20.672890
 20
360.643036
  0
VERTEX
  8
0
 10
13.457969
 20
346.796021
  0
VERTEX
  8
0
 10
10.479531
 20
348.288208
  0
VERTEX
  8
0
 10
8.858047
 20
345.477570
  0
VERTEX
  8
0
 10
7.536562
 20
343.139923
  0
VERTEX
  8
0
 10
6.472031
 20
341.192413
  0
VERTEX
  8
0
 10
5.456797
 20
339.253662
  0
VERTEX
  8
0
 10
4.511250
 20
337.364197
  0
VERTEX
  8
0
 10
3.500156
 20
335.230682
  0
VERTEX
  8
0
 10
2.658047
 20
333.316864
  0
VERTEX
  8
0
 10
2.095312
 20
331.898438
  0
VERTEX
  8
0
 10
1.657422
 20
330.618744
  0
VERTEX
  8
0
 10
1.395781
 20
329.680786
  0
VERTEX
  8
0
 10
1.210234
 20
328.806549
  0
VERTEX
  8
0
 10
1.068984
 20
327.776703
  0
VERTEX
  8
0
 10
1.023203
 20
327.178833
  0
VERTEX
  8
0
 10
1.000156
 20
326.586090
  0
VERTEX
  8
0
 10
1.005547
 20
325.383514
  0
VERTEX
  8
0
 10
1.076094
 20
324.523041
  0
VERTEX
  8
0
 10
1.149688
 20
324.057648
  0
VERTEX
  8
0
 10
1.257031
 20
323.561005
  0
VERTEX
  8
0
 10
1.495625
 20
322.744293
  0
VERTEX
  8
0
 10
1.846172
 20
321.823578
  0
VERTEX
  8
0
 10
2.152500
 20
321.142334
  0
VERTEX
  8
0
 10
2.724531
 20
320.017792
  0
VERTEX
  8
0
 10
3.176406
 20
319.206177
  0
VERTEX
  8
0
 10
3.951875
 20
317.907715
  0
VERTEX
  8
0
 10
4.834765
 20
316.526001
  0
VERTEX
  8
0
 10
5.813906
 20
315.076782
  0
VERTEX
  8
0
 10
6.514765
 20
314.081085
  0
VERTEX
  8
0
 10
7.630156
 20
312.553650
  0
VERTEX
  8
0
 10
8.817266
 20
310.987640
  0
VERTEX
  8
0
 10
10.072031
 20
309.378906
  0
VERTEX
  8
0
 10
12.303124
 20
306.591309
  0
VERTEX
  8
0
 10
18.717812
 20
298.716003
  0
VERTEX
  8
0
 10
22.077108
 20
294.546326
  0
VERTEX
  8
0
 10
24.533125
 20
291.418365
  0
VERTEX
  8
0
 10
25.581406
 20
290.041626
  0
VERTEX
  8
0
 10
26.529842
 20
288.762726
  0
VERTEX
  8
0
 10
27.667812
 20
287.171570
  0
VERTEX
  8
0
 10
28.697889
 20
285.661621
  0
VERTEX
  8
0
 10
29.657108
 20
284.184540
  0
VERTEX
  8
0
 10
30.556797
 20
282.730316
  0
VERTEX
  8
0
 10
31.394999
 20
281.309052
  0
VERTEX
  8
0
 10
32.353359
 20
279.594452
  0
VERTEX
  8
0
 10
33.209217
 20
277.965851
  0
VERTEX
  8
0
 10
33.820389
 20
276.721313
  0
VERTEX
  8
0
 10
34.496250
 20
275.217346
  0
VERTEX
  8
0
 10
34.968594
 20
274.038818
  0
VERTEX
  8
0
 10
35.382576
 20
272.867584
  0
VERTEX
  8
0
 10
35.565701
 20
272.277954
  0
VERTEX
  8
0
 10
35.729843
 20
271.680634
  0
VERTEX
  8
0
 10
35.872890
 20
271.071472
  0
VERTEX
  8
0
 10
35.992577
 20
270.446564
  0
VERTEX
  8
0
 10
36.122967
 20
269.470764
  0
VERTEX
  8
0
 10
36.187813
 20
268.436859
  0
VERTEX
  8
0
 10
36.179375
 20
267.331879
  0
VERTEX
  8
0
 10
36.132969
 20
266.557251
  0
VERTEX
  8
0
 10
36.058907
 20
265.765137
  0
VERTEX
  8
0
 10
35.961952
 20
264.967804
  0
VERTEX
  8
0
 10
35.784374
 20
263.788666
  0
VERTEX
  8
0
 10
35.442421
 20
261.970062
  0
VERTEX
  8
0
 10
35.236485
 20
261.034149
  0
VERTEX
  8
0
 10
34.986248
 20
260.026550
  0
VERTEX
  8
0
 10
34.815079
 20
259.429749
  0
VERTEX
  8
0
 10
34.653126
 20
258.941406
  0
VERTEX
  8
0
 10
34.496326
 20
258.536407
  0
VERTEX
  8
0
 10
34.340389
 20
258.189758
  0
VERTEX
  8
0
 10
34.126873
 20
257.776245
  0
VERTEX
  8
0
 10
33.903748
 20
257.390076
  0
VERTEX
  8
0
 10
32.992813
 20
256.009521
  0
VERTEX
  8
0
 10
33.350235
 20
248.843277
  0
VERTEX
  8
0
 10
33.209686
 20
248.537338
  0
VERTEX
  8
0
 10
33.066406
 20
248.274139
  0
VERTEX
  8
0
 10
32.744530
 20
247.815384
  0
VERTEX
  8
0
 10
32.328594
 20
247.345001
  0
VERTEX
  8
0
 10
31.642422
 20
246.678894
  0
VERTEX
  8
0
 10
30.820936
 20
245.967957
  0
VERTEX
  8
0
 10
29.940468
 20
245.284607
  0
VERTEX
  8
0
 10
29.147890
 20
244.750931
  0
VERTEX
  8
0
 10
28.398827
 20
244.318192
  0
VERTEX
  8
0
 10
27.482500
 20
243.854523
  0
VERTEX
  8
0
 10
26.339687
 20
243.336563
  0
VERTEX
  8
0
 10
24.962578
 20
242.759766
  0
VERTEX
  8
0
 10
23.055311
 20
242.006943
  0
VERTEX
  8
0
 10
21.508671
 20
241.424759
  0
VERTEX
  8
0
 10
19.720781
 20
240.783432
  0
VERTEX
  8
0
 10
18.196405
 20
240.268433
  0
VERTEX
  8
0
 10
15.834844
 20
239.498901
  0
VERTEX
  8
0
 10
14.543437
 20
239.054367
  0
VERTEX
  8
0
 10
13.214296
 20
238.555313
  0
VERTEX
  8
0
 10
11.931874
 20
238.016327
  0
VERTEX
  8
0
 10
11.223046
 20
237.681015
  0
VERTEX
  8
0
 10
10.583984
 20
237.341171
  0
VERTEX
  8
0
 10
10.205078
 20
237.114136
  0
VERTEX
  8
0
 10
9.705781
 20
236.776093
  0
VERTEX
  8
0
 10
9.282109
 20
236.445618
  0
VERTEX
  8
0
 10
8.820234
 20
236.025070
  0
VERTEX
  8
0
 10
8.458125
 20
235.638046
  0
VERTEX
  8
0
 10
8.114843
 20
235.209061
  0
VERTEX
  8
0
 10
8.002578
 20
235.028900
  0
VERTEX
  8
0
 10
7.900000
 20
234.819138
  0
VERTEX
  8
0
 10
7.757266
 20
234.411942
  0
VERTEX
  8
0
 10
7.571562
 20
233.607422
  0
VERTEX
  8
0
 10
7.422031
 20
232.733749
  0
VERTEX
  8
0
 10
7.127265
 20
230.640778
  0
VERTEX
  8
0
 10
6.305781
 20
224.204834
  0
VERTEX
  8
0
 10
5.886562
 20
221.100540
  0
VERTEX
  8
0
 10
5.453750
 20
218.168747
  0
VERTEX
  8
0
 10
4.920156
 20
214.890549
  0
VERTEX
  8
0
 10
4.466250
 20
212.356873
  0
VERTEX
  8
0
 10
4.005859
 20
209.993896
  0
VERTEX
  8
0
 10
3.540937
 20
207.759995
  0
VERTEX
  8
0
 10
2.791875
 20
204.330383
  0
VERTEX
  8
0
 10
14.992499
 20
200.479767
  0
VERTEX
  8
0
 10
24.194765
 20
197.629059
  0
VERTEX
  8
0
 10
30.913515
 20
195.620544
  0
VERTEX
  8
0
 10
35.117733
 20
194.406006
  0
VERTEX
  8
0
 10
38.531326
 20
193.442734
  0
VERTEX
  8
0
 10
43.427891
 20
192.094208
  0
VERTEX
  8
0
 10
47.266483
 20
191.065155
  0
VERTEX
  8
0
 10
51.162735
 20
190.048752
  0
VERTEX
  8
0
 10
55.040466
 20
189.069839
  0
VERTEX
  8
0
 10
58.823357
 20
188.153275
  0
VERTEX
  8
0
 10
61.255547
 20
187.589142
  0
VERTEX
  8
0
 10
63.601406
 20
187.067184
  0
VERTEX
  8
0
 10
66.959610
 20
186.363205
  0
VERTEX
  8
0
 10
69.092964
 20
185.946014
  0
VERTEX
  8
0
 10
71.143044
 20
185.570313
  0
VERTEX
  8
0
 10
73.110855
 20
185.235779
  0
VERTEX
  8
0
 10
75.910782
 20
184.810471
  0
VERTEX
  8
0
 10
77.677574
 20
184.577652
  0
VERTEX
  8
0
 10
79.365860
 20
184.384995
  0
VERTEX
  8
0
 10
80.979843
 20
184.230545
  0
VERTEX
  8
0
 10
83.277420
 20
184.062805
  0
VERTEX
  8
0
 10
84.737732
 20
183.988113
  0
VERTEX
  8
0
 10
86.839531
 20
183.923431
  0
VERTEX
  8
0
 10
88.857185
 20
183.904053
  0
VERTEX
  8
0
 10
90.815704
 20
183.918198
  0
VERTEX
  8
0
 10
93.374763
 20
183.969452
  0
VERTEX
  8
0
 10
95.895386
 20
184.046097
  0
VERTEX
  8
0
 10
102.713356
 20
184.332581
  0
SEQEND
  8
0
  0
POLYLINE
  8
0
  0
VERTEX
  8
0
 10
105.327499
 20
361.499847
  0
VERTEX
  8
0
 10
93.445229
 20
368.089355
  0
VERTEX
  8
0
 10
85.808746
 20
372.304535
  0
VERTEX
  8
0
 10
79.761642
 20
375.619995
  0
VERTEX
  8
0
 10
67.250000
 20
382.440918
  0
VERTEX
  8
0
 10
60.426559
 20
386.194061
  0
VERTEX
  8
0
 10
52.155781
 20
390.807190
  0
VERTEX
  8
0
 10
39.985157
 20
397.663269
  0
SEQEND
  8
0
  0
POLYLINE
  8
0
  0
VERTEX
  8
0
 10
96.315544
 20
243.238281
  0
VERTEX
  8
0
 10
88.389526
 20
251.248276
  0
VERTEX
  8
0
 10
86.689682
 20
252.989212
  0
VERTEX
  8
0
 10
85.377892
 20
254.360535
  0
VERTEX
  8
0
 10
84.031563
 20
255.804062
  0
VERTEX
  8
0
 10
82.648201
 20
257.334290
  0
VERTEX
  8
0
 10
81.225311
 20
258.965393
  0
VERTEX
  8
0
 10
79.762344
 20
260.704834
  0
VERTEX
  8
0
 10
77.762886
 20
263.156250
  0
VERTEX
  8
0
 10
71.645859
 20
270.801239
  0
VERTEX
  8
0
 10
64.763748
 20
279.177032
  0
VERTEX
  8
0
 10
63.344765
 20
280.955627
  0
VERTEX
  8
0
 10
62.430779
 20
282.146484
  0
VERTEX
  8
0
 10
61.631329
 20
283.237030
  0
VERTEX
  8
0
 10
61.155388
 20
283.918732
  0
VERTEX
  8
0
 10
60.720310
 20
284.571625
  0
VERTEX
  8
0
 10
60.135468
 20
285.510529
  0
VERTEX
  8
0
 10
59.784920
 20
286.118500
  0
VERTEX
  8
0
 10
59.308670
 20
287.018280
  0
VERTEX
  8
0
 10
58.887341
 20
287.906799
  0
VERTEX
  8
0
 10
58.519688
 20
288.780701
  0
VERTEX
  8
0
 10
58.110622
 20
289.916962
  0
VERTEX
  8
0
 10
57.791794
 20
291.012268
  0
VERTEX
  8
0
 10
57.560234
 20
292.058105
  0
VERTEX
  8
0
 10
57.409607
 20
293.048187
  0
VERTEX
  8
0
 10
57.330936
 20
293.977570
  0
VERTEX
  8
0
 10
57.315857
 20
294.418182
  0
VERTEX
  8
0
 10
57.320076
 20
295.047272
  0
VERTEX
  8
0
 10
57.390312
 20
296.009918
  0
VERTEX
  8
0
 10
57.476170
 20
296.580841
  0
VERTEX
  8
0
 10
57.559528
 20
296.999207
  0
VERTEX
  8
0
 10
57.734608
 20
297.735474
  0
VERTEX
  8
0
 10
57.981953
 20
298.664917
  0
VERTEX
  8
0
 10
58.920078
 20
301.975372
  0
VERTEX
  8
0
 10
60.177811
 20
306.314758
  0
VERTEX
  8
0
 10
61.524609
 20
310.833588
  0
VERTEX
  8
0
 10
62.452888
 20
313.868896
  0
VERTEX
  8
0
 10
63.464764
 20
317.106171
  0
VERTEX
  8
0
 10
66.731247
 20
327.324768
  0
VERTEX
  8
0
 10
68.083984
 20
331.632965
  0
VERTEX
  8
0
 10
69.236717
 20
335.482483
  0
VERTEX
  8
0
 10
69.920776
 20
337.956726
  0
VERTEX
  8
0
 10
70.292809
 20
339.411804
  0
VERTEX
  8
0
 10
70.738121
 20
341.330536
  0
VERTEX
  8
0
 10
71.064690
 20
342.965942
  0
VERTEX
  8
0
 10
71.290466
 20
344.355164
  0
VERTEX
  8
0
 10
71.394295
 20
345.163116
  0
VERTEX
  8
0
 10
71.466873
 20
345.889435
  0
VERTEX
  8
0
 10
71.513283
 20
346.544434
  0
VERTEX
  8
0
 10
71.535545
 20
347.135925
  0
VERTEX
  8
0
 10
71.535545
 20
347.671082
  0
VERTEX
  8
0
 10
71.514999
 20
348.156860
  0
VERTEX
  8
0
 10
71.475548
 20
348.600616
  0
VERTEX
  8
0
 10
71.418983
 20
349.009277
  0
VERTEX
  8
0
 10
71.305542
 20
349.572266
  0
VERTEX
  8
0
 10
71.163124
 20
350.096313
  0
VERTEX
  8
0
 10
70.989761
 20
350.608521
  0
VERTEX
  8
0
 10
70.841408
 20
350.962250
  0
VERTEX
  8
0
 10
70.653046
 20
351.340240
  0
VERTEX
  8
0
 10
70.412498
 20
351.754608
  0
VERTEX
  8
0
 10
70.108047
 20
352.217957
  0
VERTEX
  8
0
 10
69.727814
 20
352.742340
  0
VERTEX
  8
0
 10
69.259689
 20
353.340149
  0
VERTEX
  8
0
 10
68.692032
 20
354.023743
  0
VERTEX
  8
0
 10
67.221405
 20
355.683594
  0
VERTEX
  8
0
 10
65.333359
 20
357.686096
  0
VERTEX
  8
0
 10
64.254372
 20
358.785461
  0
VERTEX
  8
0
 10
63.097031
 20
359.933807
  0
VERTEX
  8
0
 10
61.233280
 20
361.721313
  0
VERTEX
  8
0
 10
59.242264
 20
363.550140
  0
VERTEX
  8
0
 10
57.858593
 20
364.772034
  0
VERTEX
  8
0
 10
55.715076
 20
366.594513
  0
VERTEX
  8
0
 10
53.503124
 20
368.406097
  0
VERTEX
  8
0
 10
51.237263
 20
370.209045
  0
VERTEX
  8
0
 10
48.932343
 20
372.005768
  0
VERTEX
  8
0
 10
45.043827
 20
374.993103
  0
SEQEND
  8
0
  0
POLYLINE
  8
0
  0
VERTEX
  8
0
 10
71.217110
 20
262.470917
  0
VERTEX
  8
0
 10
70.223824
 20
258.965942
  0
VERTEX
  8
0
 10
69.551872
 20
256.413818
  0
VERTEX
  8
0
 10
69.175468
 20
254.847885
  0
VERTEX
  8
0
 10
68.938904
 20
253.785233
  0
VERTEX
  8
0
 10
68.507027
 20
251.612885
  0
VERTEX
  8
0
 10
68.221794
 20
249.973434
  0
VERTEX
  8
0
 10
67.971405
 20
248.365311
  0
VERTEX
  8
0
 10
67.757423
 20
246.825150
  0
VERTEX
  8
0
 10
67.581169
 20
245.389206
  0
VERTEX
  8
0
 10
67.444214
 20
244.093903
  0
VERTEX
  8
0
 10
67.347733
 20
242.963898
  0
VERTEX
  8
0
 10
67.292107
 20
241.976563
  0
VERTEX
  8
0
 10
67.277184
 20
241.097183
  0
VERTEX
  8
0
 10
67.290001
 20
240.554062
  0
VERTEX
  8
0
 10
67.343361
 20
239.778122
  0
VERTEX
  8
0
 10
67.437737
 20
239.018356
  0
VERTEX
  8
0
 10
67.573280
 20
238.241638
  0
VERTEX
  8
0
 10
67.754295
 20
237.433426
  0
VERTEX
  8
0
 10
67.903282
 20
236.875626
  0
VERTEX
  8
0
 10
68.174065
 20
236.008591
  0
VERTEX
  8
0
 10
68.388824
 20
235.409058
  0
VERTEX
  8
0
 10
68.633202
 20
234.791550
  0
VERTEX
  8
0
 10
68.909294
 20
234.155075
  0
VERTEX
  8
0
 10
69.218674
 20
233.498978
  0
VERTEX
  8
0
 10
69.561874
 20
232.823517
  0
VERTEX
  8
0
 10
70.323120
 20
231.433594
  0
VERTEX
  8
0
 10
72.298203
 20
227.991089
  0
VERTEX
  8
0
 10
72.803200
 20
227.044220
  0
VERTEX
  8
0
 10
73.362579
 20
225.882019
  0
VERTEX
  8
0
 10
73.598282
 20
225.342499
  0
VERTEX
  8
0
 10
73.904060
 20
224.582260
  0
VERTEX
  8
0
 10
74.160233
 20
223.878357
  0
VERTEX
  8
0
 10
74.375542
 20
223.227264
  0
VERTEX
  8
0
 10
74.712967
 20
222.053116
  0
VERTEX
  8
0
 10
74.835548
 20
221.463669
  0
VERTEX
  8
0
 10
74.897186
 20
221.037338
  0
VERTEX
  8
0
 10
74.956795
 20
220.311707
  0
VERTEX
  8
0
 10
74.972733
 20
219.749680
  0
VERTEX
  8
0
 10
74.957657
 20
218.753357
  0
VERTEX
  8
0
 10
74.919922
 20
217.966400
  0
VERTEX
  8
0
 10
74.732735
 20
215.577728
  0
VERTEX
  8
0
 10
74.434448
 20
212.728043
  0
VERTEX
  8
0
 10
74.052658
 20
209.596558
  0
VERTEX
  8
0
 10
73.521637
 20
205.704285
  0
VERTEX
  8
0
 10
72.940079
 20
201.775070
  0
VERTEX
  8
0
 10
72.123436
 20
196.507645
  0
SEQEND
  8
0
  0
POLYLINE
  8
0
  0
VERTEX
  8
0
 10
47.328281
 20
205.772415
  0
VERTEX
  8
0
 10
47.766251
 20
207.566406
  0
VERTEX
  8
0
 10
48.087891
 20
209.011093
  0
VERTEX
  8
0
 10
48.291561
 20
210.104996
  0
VERTEX
  8
0
 10
48.428593
 20
211.121643
  0
VERTEX
  8
0
 10
48.489372
 20
212.046478
  0
VERTEX
  8
0
 10
48.480782
 20
212.877106
  0
VERTEX
  8
0
 10
48.411327
 20
213.612335
  0
VERTEX
  8
0
 10
48.356560
 20
213.943665
  0
VERTEX
  8
0
 10
48.252186
 20
214.395157
  0
VERTEX
  8
0
 10
48.123436
 20
214.794296
  0
VERTEX
  8
0
 10
47.967731
 20
215.154129
  0
VERTEX
  8
0
 10
47.781326
 20
215.490616
  0
VERTEX
  8
0
 10
47.478516
 20
215.930237
  0
VERTEX
  8
0
 10
47.105625
 20
216.394135
  0
VERTEX
  8
0
 10
46.656170
 20
216.915848
  0
VERTEX
  8
0
 10
44.613358
 20
219.199600
  0
VERTEX
  8
0
 10
43.832420
 20
220.102188
  0
VERTEX
  8
0
 10
43.155235
 20
220.969452
  0
VERTEX
  8
0
 10
42.867344
 20
221.394211
  0
VERTEX
  8
0
 10
42.697266
 20
221.675385
  0
VERTEX
  8
0
 10
42.478279
 20
222.095932
  0
VERTEX
  8
0
 10
42.356560
 20
222.380386
  0
VERTEX
  8
0
 10
42.209373
 20
222.824997
  0
VERTEX
  8
0
 10
42.134296
 20
223.140305
  0
VERTEX
  8
0
 10
42.055000
 20
223.653824
  0
VERTEX
  8
0
 10
42.023514
 20
224.029999
  0
VERTEX
  8
0
 10
42.008984
 20
224.438980
  0
VERTEX
  8
0
 10
42.017654
 20
225.124298
  0
VERTEX
  8
0
 10
42.066795
 20
225.909134
  0
VERTEX
  8
0
 10
42.127811
 20
226.494370
  0
VERTEX
  8
0
 10
42.215782
 20
227.134140
  0
VERTEX
  8
0
 10
42.334454
 20
227.832336
  0
VERTEX
  8
0
 10
42.487419
 20
228.592880
  0
VERTEX
  8
0
 10
42.678516
 20
229.419922
  0
VERTEX
  8
0
 10
42.911247
 20
230.317337
  0
VERTEX
  8
0
 10
43.189529
 20
231.289291
  0
VERTEX
  8
0
 10
43.692345
 20
232.882568
  0
VERTEX
  8
0
 10
44.476406
 20
235.169052
  0
VERTEX
  8
0
 10
46.680233
 20
241.217178
  0
VERTEX
  8
0
 10
47.278904
 20
242.911407
  0
VERTEX
  8
0
 10
47.837967
 20
244.632019
  0
VERTEX
  8
0
 10
48.167500
 20
245.801865
  0
VERTEX
  8
0
 10
48.364140
 20
246.618591
  0
VERTEX
  8
0
 10
48.530388
 20
247.425858
  0
VERTEX
  8
0
 10
48.713123
 20
248.512177
  0
VERTEX
  8
0
 10
48.816563
 20
249.314987
  0
VERTEX
  8
0
 10
48.886482
 20
250.088348
  0
VERTEX
  8
0
 10
48.919060
 20
250.815231
  0
VERTEX
  8
0
 10
48.910076
 20
251.478119
  0
VERTEX
  8
0
 10
48.855545
 20
252.062027
  0
VERTEX
  8
0
 10
48.792656
 20
252.409531
  0
VERTEX
  8
0
 10
48.657265
 20
252.883347
  0
VERTEX
  8
0
 10
48.471172
 20
253.318436
  0
VERTEX
  8
0
 10
48.232891
 20
253.735229
  0
VERTEX
  8
0
 10
47.940624
 20
254.154526
  0
VERTEX
  8
0
 10
47.592968
 20
254.596558
  0
VERTEX
  8
0
 10
47.041248
 20
255.240234
  0
VERTEX
  8
0
 10
46.560310
 20
255.762253
  0
VERTEX
  8
0
 10
46.021248
 20
256.315857
  0
VERTEX
  8
0
 10
45.423592
 20
256.898895
  0
VERTEX
  8
0
 10
44.766483
 20
257.509613
  0
VERTEX
  8
0
 10
44.050076
 20
258.145996
  0
VERTEX
  8
0
 10
42.187889
 20
259.710083
  0
VERTEX
  8
0
 10
39.571014
 20
261.813751
  0
SEQEND
  8
0
  0
POLYLINE
  8
0
  0
VERTEX
  8
0
 10
96.116798
 20
193.004364
  0
VERTEX
  8
0
 10
82.214371
 20
193.378983
  0
SEQEND
  8
0
  0
POLYLINE
  8
0
  0
VERTEX
  8
0
 10
69.045158
 20
195.143661
  0
VERTEX
  8
0
 10
54.437187
 20
198.341873
  0
SEQEND
  8
0
  0
POLYLINE
  8
0
  0
VERTEX
  8
0
 10
38.973358
 20
202.534531
  0
VERTEX
  8
0
 10
33.935547
 20
203.893753
  0
VERTEX
  8
0
 10
32.161873
 20
199.447723
  0
SEQEND
  8
0
  0
POLYLINE
  8
0
  0
VERTEX
  8
0
 10
13.911406
 20
346.232574
  0
VERTEX
  8
0
 10
11.268125
 20
341.613983
  0
VERTEX
  8
0
 10
10.216562
 20
339.702820
  0
VERTEX
  8
0
 10
9.412031
 20
338.185242
  0
VERTEX
  8
0
 10
8.470000
 20
336.334442
  0
VERTEX
  8
0
 10
7.621171
 20
334.586151
  0
VERTEX
  8
0
 10
6.759531
 20
332.701385
  0
VERTEX
  8
0
 10
6.191016
 20
331.350464
  0
VERTEX
  8
0
 10
5.829844
 20
330.403992
  0
VERTEX
  8
0
 10
5.487187
 20
329.369141
  0
VERTEX
  8
0
 10
5.293828
 20
328.645447
  0
VERTEX
  8
0
 10
5.139922
 20
327.847351
  0
VERTEX
  8
0
 10
5.049609
 20
326.996490
  0
VERTEX
  8
0
 10
5.014843
 20
325.799530
  0
VERTEX
  8
0
 10
5.051328
 20
325.220215
  0
VERTEX
  8
0
 10
5.101094
 20
324.895782
  0
VERTEX
  8
0
 10
5.180312
 20
324.538757
  0
VERTEX
  8
0
 10
5.295000
 20
324.142273
  0
VERTEX
  8
0
 10
5.451484
 20
323.699280
  0
VERTEX
  8
0
 10
5.778125
 20
322.932648
  0
VERTEX
  8
0
 10
6.228984
 20
322.028809
  0
VERTEX
  8
0
 10
6.802031
 20
320.995605
  0
VERTEX
  8
0
 10
7.744453
 20
319.442322
  0
VERTEX
  8
0
 10
8.576328
 20
318.164124
  0
VERTEX
  8
0
 10
9.507656
 20
316.804901
  0
VERTEX
  8
0
 10
10.531953
 20
315.379059
  0
VERTEX
  8
0
 10
12.031562
 20
313.387268
  0
VERTEX
  8
0
 10
14.103046
 20
310.747955
  0
VERTEX
  8
0
 10
16.370234
 20
307.935699
  0
VERTEX
  8
0
 10
22.843359
 20
299.980682
  0
VERTEX
  8
0
 10
24.771952
 20
297.583984
  0
VERTEX
  8
0
 10
26.542578
 20
295.352020
  0
VERTEX
  8
0
 10
28.100233
 20
293.343445
  0
VERTEX
  8
0
 10
29.139843
 20
291.966644
  0
VERTEX
  8
0
 10
30.087421
 20
290.676727
  0
VERTEX
  8
0
 10
31.235624
 20
289.053589
  0
VERTEX
  8
0
 10
32.031952
 20
287.880310
  0
VERTEX
  8
0
 10
33.035156
 20
286.337189
  0
VERTEX
  8
0
 10
33.980469
 20
284.811401
  0
VERTEX
  8
0
 10
34.866329
 20
283.311646
  0
VERTEX
  8
0
 10
35.691639
 20
281.846863
  0
VERTEX
  8
0
 10
36.636326
 20
280.077728
  0
VERTEX
  8
0
 10
37.322186
 20
278.708984
  0
VERTEX
  8
0
 10
37.947186
 20
277.362579
  0
VERTEX
  8
0
 10
38.376953
 20
276.356415
  0
VERTEX
  8
0
 10
38.645157
 20
275.682800
  0
VERTEX
  8
0
 10
39.138203
 20
274.318909
  0
VERTEX
  8
0
 10
39.361874
 20
273.623596
  0
VERTEX
  8
0
 10
39.566795
 20
272.915619
  0
VERTEX
  8
0
 10
39.832657
 20
271.824066
  0
VERTEX
  8
0
 10
40.039532
 20
270.688354
  0
VERTEX
  8
0
 10
40.177265
 20
269.498901
  0
VERTEX
  8
0
 10
40.235779
 20
268.246490
  0
VERTEX
  8
0
 10
40.206406
 20
266.923889
  0
VERTEX
  8
0
 10
40.141171
 20
266.013275
  0
VERTEX
  8
0
 10
40.045547
 20
265.093750
  0
VERTEX
  8
0
 10
39.925156
 20
264.177887
  0
VERTEX
  8
0
 10
39.709923
 20
262.837952
  0
VERTEX
  8
0
 10
39.551327
 20
261.985382
  0
VERTEX
  8
0
 10
39.304531
 20
260.798584
  0
VERTEX
  8
0
 10
39.063202
 20
259.759369
  0
VERTEX
  8
0
 10
38.765076
 20
258.625763
  0
VERTEX
  8
0
 10
38.555389
 20
257.936005
  0
VERTEX
  8
0
 10
38.353279
 20
257.356628
  0
VERTEX
  8
0
 10
38.154842
 20
256.863129
  0
VERTEX
  8
0
 10
37.956249
 20
256.430786
  0
VERTEX
  8
0
 10
37.685390
 20
255.910385
  0
VERTEX
  8
0
 10
37.406563
 20
255.432343
  0
VERTEX
  8
0
 10
37.050312
 20
254.877029
  0
VERTEX
  8
0
 10
36.616638
 20
254.243515
  0
SEQEND
  8
0
  0
POLYLINE
  8
0
  0
VERTEX
  8
0
 10
51.959843
 20
370.589996
  0
VERTEX
  8
0
 10
51.473591
 20
370.553741
  0
VERTEX
  8
0
 10
51.038044
 20
370.334198
  0
VERTEX
  8
0
 10
50.719608
 20
369.964844
  0
VERTEX
  8
0
 10
50.566875
 20
369.501556
  0
VERTEX
  8
0
 10
50.603046
 20
369.015289
  0
VERTEX
  8
0
 10
50.822578
 20
368.579681
  0
VERTEX
  8
0
 10
51.192108
 20
368.261230
  0
VERTEX
  8
0
 10
51.655231
 20
368.108582
  0
VERTEX
  8
0
 10
52.141640
 20
368.144684
  0
VERTEX
  8
0
 10
52.577106
 20
368.364197
  0
VERTEX
  8
0
 10
52.895466
 20
368.733734
  0
VERTEX
  8
0
 10
53.048203
 20
369.196869
  0
VERTEX
  8
0
 10
53.012108
 20
369.683441
  0
VERTEX
  8
0
 10
52.792576
 20
370.118896
  0
VERTEX
  8
0
 10
52.423122
 20
370.437164
  0
VERTEX
  8
0
 10
51.959843
 20
370.589996
  0
SEQEND
  8
0
  0
POLYLINE
  8
0
  0
VERTEX
  8
0
 10
45.539295
 20
390.023895
  0
VERTEX
  8
0
 10
45.052891
 20
389.987793
  0
VERTEX
  8
0
 10
44.617420
 20
389.768280
  0
VERTEX
  8
0
 10
44.299061
 20
389.398895
  0
VERTEX
  8
0
 10
44.146328
 20
388.935608
  0
VERTEX
  8
0
 10
44.182499
 20
388.449219
  0
VERTEX
  8
0
 10
44.401951
 20
388.013733
  0
VERTEX
  8
0
 10
44.771404
 20
387.695313
  0
VERTEX
  8
0
 10
45.234688
 20
387.542633
  0
VERTEX
  8
0
 10
45.720936
 20
387.578735
  0
VERTEX
  8
0
 10
46.156483
 20
387.798279
  0
VERTEX
  8
0
 10
46.474922
 20
388.167816
  0
VERTEX
  8
0
 10
46.627655
 20
388.630920
  0
VERTEX
  8
0
 10
46.591560
 20
389.117340
  0
VERTEX
  8
0
 10
46.371952
 20
389.552948
  0
VERTEX
  8
0
 10
46.002422
 20
389.871246
  0
VERTEX
  8
0
 10
45.539295
 20
390.023895
  0
SEQEND
  8
0
  0
POLYLINE
  8
0
  0
VERTEX
  8
0
 10
15.567734
 20
346.679382
  0
VERTEX
  8
0
 10
15.081327
 20
346.643188
  0
VERTEX
  8
0
 10
14.645859
 20
346.423676
  0
VERTEX
  8
0
 10
14.327499
 20
346.054199
  0
VERTEX
  8
0
 10
14.174766
 20
345.591003
  0
VERTEX
  8
0
 10
14.210938
 20
345.104614
  0
VERTEX
  8
0
 10
14.430390
 20
344.669128
  0
VERTEX
  8
0
 10
14.799844
 20
344.350769
  0
VERTEX
  8
0
 10
15.263124
 20
344.197968
  0
VERTEX
  8
0
 10
15.749374
 20
344.234131
  0
VERTEX
  8
0
 10
16.184999
 20
344.453735
  0
VERTEX
  8
0
 10
16.503359
 20
344.823120
  0
VERTEX
  8
0
 10
16.656094
 20
345.286316
  0
VERTEX
  8
0
 10
16.619999
 20
345.772736
  0
VERTEX
  8
0
 10
16.400391
 20
346.208191
  0
VERTEX
  8
0
 10
16.030859
 20
346.526642
  0
VERTEX
  8
0
 10
15.567734
 20
346.679382
  0
SEQEND
  8
0
  0
POLYLINE
  8
0
  0
VERTEX
  8
0
 10
80.953201
 20
585.646240
  0
VERTEX
  8
0
 10
81.298355
 20
571.157166
  0
VERTEX
  8
0
 10
81.482651
 20
561.399231
  0
VERTEX
  8
0
 10
81.550781
 20
556.468262
  0
VERTEX
  8
0
 10
81.597420
 20
551.482666
  0
VERTEX
  8
0
 10
81.614449
 20
546.383362
  0
VERTEX
  8
0
 10
81.604767
 20
542.886475
  0
VERTEX
  8
0
 10
81.552185
 20
537.443726
  0
VERTEX
  8
0
 10
81.487732
 20
533.653992
  0
VERTEX
  8
0
 10
81.396713
 20
529.710999
  0
VERTEX
  8
0
 10
81.276405
 20
525.594360
  0
VERTEX
  8
0
 10
81.124138
 20
521.285095
  0
VERTEX
  8
0
 10
80.940155
 20
516.795776
  0
VERTEX
  8
0
 10
80.726875
 20
512.171448
  0
VERTEX
  8
0
 10
80.487183
 20
507.458191
  0
VERTEX
  8
0
 10
80.223747
 20
502.702179
  0
VERTEX
  8
0
 10
79.939293
 20
497.949524
  0
VERTEX
  8
0
 10
79.479454
 20
490.928192
  0
VERTEX
  8
0
 10
78.987732
 20
484.174194
  0
VERTEX
  8
0
 10
78.646873
 20
479.895386
  0
VERTEX
  8
0
 10
78.297417
 20
475.805695
  0
VERTEX
  8
0
 10
77.939682
 20
471.866394
  0
VERTEX
  8
0
 10
77.388199
 20
466.150391
  0
VERTEX
  8
0
 10
75.430153
 20
447.120239
  0
VERTEX
  8
0
 10
74.390076
 20
436.626465
  0
VERTEX
  8
0
 10
73.104607
 20
423.138275
  0
VERTEX
  8
0
 10
71.577736
 20
406.752167
  0
VERTEX
  8
0
 10
64.995232
 20
413.612183
  0
VERTEX
  8
0
 10
60.429295
 20
418.406555
  0
VERTEX
  8
0
 10
56.926640
 20
422.125153
  0
VERTEX
  8
0
 10
53.605938
 20
425.701935
  0
VERTEX
  8
0
 10
49.746719
 20
429.937103
  0
VERTEX
  8
0
 10
46.220154
 20
433.885071
  0
VERTEX
  8
0
 10
43.034218
 20
437.519287
  0
VERTEX
  8
0
 10
39.662891
 20
441.442657
  0
VERTEX
  8
0
 10
36.731014
 20
444.949524
  0
VERTEX
  8
0
 10
34.567501
 20
447.623260
  0
VERTEX
  8
0
 10
33.371326
 20
449.144196
  0
VERTEX
  8
0
 10
32.244373
 20
450.612640
  0
VERTEX
  8
0
 10
30.525000
 20
452.944458
  0
VERTEX
  8
0
 10
29.592733
 20
454.273895
  0
VERTEX
  8
0
 10
29.014061
 20
455.131073
  0
VERTEX
  8
0
 10
28.212187
 20
456.373199
  0
VERTEX
  8
0
 10
27.722656
 20
457.171936
  0
VERTEX
  8
0
 10
27.269218
 20
457.947479
  0
VERTEX
  8
0
 10
26.655155
 20
459.068268
  0
VERTEX
  8
0
 10
26.288515
 20
459.787659
  0
VERTEX
  8
0
 10
25.801016
 20
460.826080
  0
VERTEX
  8
0
 10
25.516327
 20
461.491699
  0
VERTEX
  8
0
 10
25.262968
 20
462.136780
  0
VERTEX
  8
0
 10
25.040155
 20
462.761566
  0
VERTEX
  8
0
 10
24.847031
 20
463.366394
  0
VERTEX
  8
0
 10
24.681719
 20
463.951172
  0
VERTEX
  8
0
 10
24.480156
 20
464.788727
  0
VERTEX
  8
0
 10
24.244062
 20
466.072418
  0
VERTEX
  8
0
 10
24.147030
 20
466.770599
  0
VERTEX
  8
0
 10
24.029453
 20
467.805695
  0
VERTEX
  8
0
 10
23.996796
 20
468.189819
  0
VERTEX
  8
0
 10
23.983828
 20
468.595154
  0
VERTEX
  8
0
 10
24.001093
 20
469.054199
  0
VERTEX
  8
0
 10
24.058985
 20
469.599121
  0
VERTEX
  8
0
 10
24.244843
 20
470.648651
  0
VERTEX
  8
0
 10
24.580936
 20
472.073517
  0
VERTEX
  8
0
 10
25.102421
 20
473.982971
  0
VERTEX
  8
0
 10
25.830545
 20
476.445221
  0
VERTEX
  8
0
 10
27.061327
 20
480.415924
  0
VERTEX
  8
0
 10
28.484219
 20
484.875854
  0
VERTEX
  8
0
 10
29.984842
 20
489.501404
  0
VERTEX
  8
0
 10
35.136169
 20
505.141083
  0
VERTEX
  8
0
 10
36.571407
 20
509.540924
  0
VERTEX
  8
0
 10
37.906326
 20
513.772156
  0
VERTEX
  8
0
 10
38.766483
 20
516.671265
  0
VERTEX
  8
0
 10
39.197498
 20
518.250305
  0
VERTEX
  8
0
 10
39.519138
 20
519.568298
  0
VERTEX
  8
0
 10
39.743904
 20
520.679810
  0
VERTEX
  8
0
 10
39.887032
 20
521.648743
  0
VERTEX
  8
0
 10
39.932655
 20
522.099426
  0
VERTEX
  8
0
 10
39.973671
 20
522.755798
  0
VERTEX
  8
0
 10
39.986797
 20
523.411316
  0
VERTEX
  8
0
 10
39.977264
 20
523.854919
  0
VERTEX
  8
0
 10
39.948593
 20
524.305786
  0
VERTEX
  8
0
 10
39.896484
 20
524.765564
  0
VERTEX
  8
0
 10
39.765625
 20
525.475464
  0
VERTEX
  8
0
 10
39.637344
 20
525.964600
  0
VERTEX
  8
0
 10
39.471329
 20
526.468262
  0
VERTEX
  8
0
 10
39.142811
 20
527.254700
  0
VERTEX
  8
0
 10
38.710388
 20
528.081238
  0
VERTEX
  8
0
 10
38.178516
 20
528.944275
  0
VERTEX
  8
0
 10
37.555702
 20
529.838562
  0
VERTEX
  8
0
 10
37.094063
 20
530.449646
  0
VERTEX
  8
0
 10
36.598125
 20
531.070557
  0
VERTEX
  8
0
 10
35.795391
 20
532.017273
  0
VERTEX
  8
0
 10
34.626015
 20
533.301575
  0
VERTEX
  8
0
 10
33.658516
 20
534.300537
  0
VERTEX
  8
0
 10
32.577656
 20
535.367798
  0
VERTEX
  8
0
 10
31.349920
 20
536.538025
  0
VERTEX
  8
0
 10
29.426952
 20
538.318909
  0
VERTEX
  8
0
 10
25.098047
 20
542.232788
  0
VERTEX
  8
0
 10
15.094921
 20
551.174805
  0
VERTEX
  8
0
 10
11.739375
 20
554.196411
  0
VERTEX
  8
0
 10
8.707031
 20
556.990295
  0
VERTEX
  8
0
 10
6.603203
 20
559.016235
  0
VERTEX
  8
0
 10
5.071484
 20
560.566833
  0
VERTEX
  8
0
 10
3.755156
 20
561.968140
  0
VERTEX
  8
0
 10
2.687031
 20
563.176880
  0
VERTEX
  8
0
 10
1.897266
 20
564.154541
  0
VERTEX
  8
0
 10
1.461641
 20
564.793884
  0
VERTEX
  8
0
 10
1.302578
 20
565.083252
  0
VERTEX
  8
0
 10
1.179453
 20
565.360779
  0
VERTEX
  8
0
 10
1.089609
 20
565.633118
  0
VERTEX
  8
0
 10
1.030781
 20
565.906372
  0
VERTEX
  8
0
 10
1.000391
 20
566.187317
  0
VERTEX
  8
0
 10
1.003125
 20
566.635925
  0
VERTEX
  8
0
 10
1.036016
 20
566.957336
  0
VERTEX
  8
0
 10
1.093984
 20
567.298401
  0
VERTEX
  8
0
 10
1.286016
 20
568.043884
  0
VERTEX
  8
0
 10
1.580469
 20
568.881531
  0
VERTEX
  8
0
 10
1.766641
 20
569.337952
  0
VERTEX
  8
0
 10
2.095078
 20
570.072937
  0
VERTEX
  8
0
 10
2.480234
 20
570.869995
  0
VERTEX
  8
0
 10
3.071484
 20
572.027039
  0
VERTEX
  8
0
 10
7.752109
 20
580.919373
  0
VERTEX
  8
0
 10
8.273438
 20
581.860291
  0
VERTEX
  8
0
 10
8.900547
 20
582.929199
  0
VERTEX
  8
0
 10
9.452188
 20
583.800293
  0
VERTEX
  8
0
 10
10.044687
 20
584.652954
  0
VERTEX
  8
0
 10
10.540235
 20
585.293091
  0
VERTEX
  8
0
 10
10.889921
 20
585.681091
  0
VERTEX
  8
0
 10
11.173515
 20
585.894226
  0
VERTEX
  8
0
 10
11.395078
 20
585.995483
  0
VERTEX
  8
0
 10
11.520078
 20
586.032776
  0
VERTEX
  8
0
 10
11.805781
 20
586.079651
  0
VERTEX
  8
0
 10
11.969453
 20
586.088745
  0
VERTEX
  8
0
 10
12.345937
 20
586.076416
  0
VERTEX
  8
0
 10
12.797891
 20
586.021851
  0
VERTEX
  8
0
 10
13.639375
 20
585.856995
  0
VERTEX
  8
0
 10
14.305390
 20
585.694824
  0
VERTEX
  8
0
 10
15.436172
 20
585.384033
  0
VERTEX
  8
0
 10
16.693125
 20
585.005920
  0
VERTEX
  8
0
 10
18.040468
 20
584.575623
  0
VERTEX
  8
0
 10
20.389765
 20
583.783264
  0
VERTEX
  8
0
 10
23.245234
 20
582.770325
  0
VERTEX
  8
0
 10
26.210312
 20
581.679688
  0
VERTEX
  8
0
 10
32.916874
 20
579.174683
  0
VERTEX
  8
0
 10
36.488983
 20
577.870911
  0
VERTEX
  8
0
 10
39.303593
 20
576.888428
  0
VERTEX
  8
0
 10
40.847500
 20
576.380310
  0
VERTEX
  8
0
 10
41.814140
 20
576.082031
  0
VERTEX
  8
0
 10
42.741875
 20
575.817810
  0
VERTEX
  8
0
 10
43.640701
 20
575.588745
  0
VERTEX
  8
0
 10
44.520622
 20
575.395630
  0
VERTEX
  8
0
 10
45.391483
 20
575.239685
  0
VERTEX
  8
0
 10
46.263203
 20
575.122192
  0
VERTEX
  8
0
 10
47.145859
 20
575.044067
  0
VERTEX
  8
0
 10
48.049141
 20
575.006409
  0
VERTEX
  8
0
 10
48.511562
 20
575.003296
  0
VERTEX
  8
0
 10
49.460781
 20
575.028870
  0
VERTEX
  8
0
 10
49.948200
 20
575.057983
  0
VERTEX
  8
0
 10
50.950623
 20
575.149841
  0
VERTEX
  8
0
 10
51.991875
 20
575.287781
  0
VERTEX
  8
0
 10
53.074764
 20
575.473267
  0
VERTEX
  8
0
 10
54.783203
 20
575.843872
  0
VERTEX
  8
0
 10
55.982265
 20
576.154541
  0
VERTEX
  8
0
 10
57.232422
 20
576.517944
  0
VERTEX
  8
0
 10
58.536247
 20
576.935303
  0
VERTEX
  8
0
 10
60.580547
 20
577.652039
  0
VERTEX
  8
0
 10
62.696171
 20
578.450745
  0
VERTEX
  8
0
 10
64.843201
 20
579.300171
  0
VERTEX
  8
0
 10
70.419220
 20
581.575745
  0
VERTEX
  8
0
 10
72.971642
 20
582.597656
  0
VERTEX
  8
0
 10
76.517029
 20
583.973267
  0
VERTEX
  8
0
 10
80.953201
 20
585.646240
  0
SEQEND
  8
0
  0
POLYLINE
  8
0
  0
VERTEX
  8
0
 10
12.581094
 20
565.568604
  0
VERTEX
  8
0
 10
16.569452
 20
576.153870
  0
SEQEND
  8
0
  0
POLYLINE
  8
0
  0
VERTEX
  8
0
 10
20.734610
 20
550.332031
  0
VERTEX
  8
0
 10
23.514608
 20
555.073730
  0
SEQEND
  8
0
  0
POLYLINE
  8
0
  0
VERTEX
  8
0
 10
31.241562
 20
571.815430
  0
VERTEX
  8
0
 10
32.798515
 20
576.001404
  0
SEQEND
  8
0
  0
POLYLINE
  8
0
  0
VERTEX
  8
0
 10
40.781326
 20
465.549988
  0
VERTEX
  8
0
 10
32.341953
 20
469.649353
  0
SEQEND
  8
0
  0
POLYLINE
  8
0
  0
VERTEX
  8
0
 10
56.584217
 20
514.163452
  0
VERTEX
  8
0
 10
47.013203
 20
519.038208
  0
SEQEND
  8
0
  0
POLYLINE
  8
0
  0
VERTEX
  8
0
 10
43.368904
 20
446.229431
  0
VERTEX
  8
0
 10
46.672501
 20
456.096008
  0
VERTEX
  8
0
 10
48.995625
 20
463.139832
  0
VERTEX
  8
0
 10
50.640701
 20
468.206787
  0
VERTEX
  8
0
 10
54.744530
 20
480.972809
  0
VERTEX
  8
0
 10
57.331795
 20
488.907806
  0
VERTEX
  8
0
 10
59.593513
 20
495.698120
  0
VERTEX
  8
0
 10
62.627186
 20
504.591553
  0
VERTEX
  8
0
 10
64.488045
 20
509.948883
  0
VERTEX
  8
0
 10
66.327576
 20
515.179260
  0
VERTEX
  8
0
 10
68.103668
 20
520.165283
  0
VERTEX
  8
0
 10
70.300392
 20
526.232544
  0
VERTEX
  8
0
 10
71.789917
 20
530.270142
  0
VERTEX
  8
0
 10
73.601173
 20
535.088684
  0
VERTEX
  8
0
 10
75.266090
 20
539.434753
  0
VERTEX
  8
0
 10
77.617416
 20
545.481445
  0
SEQEND
  8
0
  0
POLYLINE
  8
0
  0
VERTEX
  8
0
 10
20.786953
 20
551.330627
  0
VERTEX
  8
0
 10
20.400782
 20
551.274658
  0
VERTEX
  8
0
 10
20.065468
 20
551.075134
  0
VERTEX
  8
0
 10
19.832031
 20
550.762512
  0
VERTEX
  8
0
 10
19.735937
 20
550.384338
  0
VERTEX
  8
0
 10
19.792030
 20
549.998108
  0
VERTEX
  8
0
 10
19.991405
 20
549.662781
  0
VERTEX
  8
0
 10
20.304140
 20
549.429382
  0
VERTEX
  8
0
 10
20.682264
 20
549.333435
  0
VERTEX
  8
0
 10
21.068438
 20
549.389343
  0
VERTEX
  8
0
 10
21.403749
 20
549.588745
  0
VERTEX
  8
0
 10
21.637188
 20
549.901367
  0
VERTEX
  8
0
 10
21.733202
 20
550.279663
  0
VERTEX
  8
0
 10
21.677265
 20
550.665771
  0
VERTEX
  8
0
 10
21.477734
 20
551.001099
  0
VERTEX
  8
0
 10
21.165155
 20
551.234497
  0
VERTEX
  8
0
 10
20.786953
 20
551.330627
  0
SEQEND
  8
0
  0
POLYLINE
  8
0
  0
VERTEX
  8
0
 10
23.566952
 20
556.072510
  0
VERTEX
  8
0
 10
23.180780
 20
556.016541
  0
VERTEX
  8
0
 10
22.845390
 20
555.817017
  0
VERTEX
  8
0
 10
22.612030
 20
555.504333
  0
VERTEX
  8
0
 10
22.516016
 20
555.126099
  0
VERTEX
  8
0
 10
22.571953
 20
554.739990
  0
VERTEX
  8
0
 10
22.771406
 20
554.404663
  0
VERTEX
  8
0
 10
23.084063
 20
554.171265
  0
VERTEX
  8
0
 10
23.462265
 20
554.075134
  0
VERTEX
  8
0
 10
23.848358
 20
554.131104
  0
VERTEX
  8
0
 10
24.183672
 20
554.330627
  0
VERTEX
  8
0
 10
24.417187
 20
554.643250
  0
VERTEX
  8
0
 10
24.513281
 20
555.021545
  0
VERTEX
  8
0
 10
24.457188
 20
555.407654
  0
VERTEX
  8
0
 10
24.257656
 20
555.742981
  0
VERTEX
  8
0
 10
23.945078
 20
555.976379
  0
VERTEX
  8
0
 10
23.566952
 20
556.072510
  0
SEQEND
  8
0
  0
POLYLINE
  8
0
  0
VERTEX
  8
0
 10
31.293905
 20
572.814026
  0
VERTEX
  8
0
 10
30.907734
 20
572.758118
  0
VERTEX
  8
0
 10
30.572500
 20
572.558594
  0
VERTEX
  8
0
 10
30.338984
 20
572.245911
  0
VERTEX
  8
0
 10
30.242889
 20
571.867798
  0
VERTEX
  8
0
 10
30.298985
 20
571.481689
  0
VERTEX
  8
0
 10
30.498514
 20
571.146423
  0
VERTEX
  8
0
 10
30.811092
 20
570.912781
  0
VERTEX
  8
0
 10
31.189219
 20
570.816833
  0
VERTEX
  8
0
 10
31.575390
 20
570.872803
  0
VERTEX
  8
0
 10
31.910780
 20
571.072327
  0
VERTEX
  8
0
 10
32.144138
 20
571.385010
  0
VERTEX
  8
0
 10
32.240154
 20
571.763123
  0
VERTEX
  8
0
 10
32.184219
 20
572.149231
  0
VERTEX
  8
0
 10
31.984764
 20
572.484680
  0
VERTEX
  8
0
 10
31.672110
 20
572.718140
  0
VERTEX
  8
0
 10
31.293905
 20
572.814026
  0
SEQEND
  8
0
  0
POLYLINE
  8
0
  0
VERTEX
  8
0
 10
32.850857
 20
577.000122
  0
VERTEX
  8
0
 10
32.464764
 20
576.944031
  0
VERTEX
  8
0
 10
32.129452
 20
576.744690
  0
VERTEX
  8
0
 10
31.895937
 20
576.432007
  0
VERTEX
  8
0
 10
31.799921
 20
576.053711
  0
VERTEX
  8
0
 10
31.855858
 20
575.667664
  0
VERTEX
  8
0
 10
32.055389
 20
575.332336
  0
VERTEX
  8
0
 10
32.368046
 20
575.098877
  0
VERTEX
  8
0
 10
32.746170
 20
575.002808
  0
VERTEX
  8
0
 10
33.132343
 20
575.058899
  0
VERTEX
  8
0
 10
33.467655
 20
575.258423
  0
VERTEX
  8
0
 10
33.701172
 20
575.570923
  0
VERTEX
  8
0
 10
33.797188
 20
575.949036
  0
VERTEX
  8
0
 10
33.741249
 20
576.335327
  0
VERTEX
  8
0
 10
33.541718
 20
576.670593
  0
VERTEX
  8
0
 10
33.229061
 20
576.904053
  0
VERTEX
  8
0
 10
32.850857
 20
577.000122
  0
SEQEND
  8
0
  0
POLYLINE
  8
0
  0
VERTEX
  8
0
 10
12.685703
 20
567.565796
  0
VERTEX
  8
0
 10
12.063437
 20
567.500305
  0
VERTEX
  8
0
 10
11.491718
 20
567.245789
  0
VERTEX
  8
0
 10
11.026796
 20
566.827148
  0
VERTEX
  8
0
 10
10.713828
 20
566.285156
  0
VERTEX
  8
0
 10
10.583828
 20
565.673279
  0
VERTEX
  8
0
 10
10.649140
 20
565.050781
  0
VERTEX
  8
0
 10
10.903749
 20
564.479187
  0
VERTEX
  8
0
 10
11.322344
 20
564.014221
  0
VERTEX
  8
0
 10
11.864297
 20
563.701233
  0
VERTEX
  8
0
 10
12.476406
 20
563.571228
  0
VERTEX
  8
0
 10
13.098672
 20
563.636536
  0
VERTEX
  8
0
 10
13.670312
 20
563.891052
  0
VERTEX
  8
0
 10
14.135312
 20
564.309814
  0
VERTEX
  8
0
 10
14.448125
 20
564.851685
  0
VERTEX
  8
0
 10
14.578359
 20
565.463867
  0
VERTEX
  8
0
 10
14.512813
 20
566.086060
  0
VERTEX
  8
0
 10
14.258359
 20
566.657776
  0
VERTEX
  8
0
 10
13.839687
 20
567.122803
  0
VERTEX
  8
0
 10
13.297734
 20
567.435608
  0
VERTEX
  8
0
 10
12.685703
 20
567.565796
  0
SEQEND
  8
0
  0
POLYLINE
  8
0
  0
VERTEX
  8
0
 10
16.674141
 20
578.151062
  0
VERTEX
  8
0
 10
16.051796
 20
578.085632
  0
VERTEX
  8
0
 10
15.480078
 20
577.831055
  0
VERTEX
  8
0
 10
15.015156
 20
577.412476
  0
VERTEX
  8
0
 10
14.702266
 20
576.870483
  0
VERTEX
  8
0
 10
14.572187
 20
576.258606
  0
VERTEX
  8
0
 10
14.637578
 20
575.636108
  0
VERTEX
  8
0
 10
14.892109
 20
575.064514
  0
VERTEX
  8
0
 10
15.310702
 20
574.599548
  0
VERTEX
  8
0
 10
15.852656
 20
574.286560
  0
VERTEX
  8
0
 10
16.464766
 20
574.156555
  0
VERTEX
  8
0
 10
17.087030
 20
574.221863
  0
VERTEX
  8
0
 10
17.658672
 20
574.476379
  0
VERTEX
  8
0
 10
18.123671
 20
574.895142
  0
VERTEX
  8
0
 10
18.436562
 20
575.437012
  0
VERTEX
  8
0
 10
18.566719
 20
576.049194
  0
VERTEX
  8
0
 10
18.501249
 20
576.671387
  0
VERTEX
  8
0
 10
18.246717
 20
577.243103
  0
VERTEX
  8
0
 10
17.828047
 20
577.708130
  0
VERTEX
  8
0
 10
17.286093
 20
578.020935
  0
VERTEX
  8
0
 10
16.674141
 20
578.151062
  0
SEQEND
  8
0
  0
POLYLINE
  8
0
  0
VERTEX
  8
0
 10
16.997656
 20
695.214661
  0
VERTEX
  8
0
 10
16.762342
 20
687.302856
  0
VERTEX
  8
0
 10
16.629921
 20
681.989502
  0
VERTEX
  8
0
 10
16.594843
 20
679.177612
  0
VERTEX
  8
0
 10
16.620937
 20
676.545044
  0
VERTEX
  8
0
 10
16.677422
 20
675.078491
  0
VERTEX
  8
0
 10
16.735937
 20
674.156555
  0
VERTEX
  8
0
 10
16.811640
 20
673.281555
  0
VERTEX
  8
0
 10
16.956093
 20
672.056396
  0
VERTEX
  8
0
 10
17.071875
 20
671.297180
  0
VERTEX
  8
0
 10
17.272264
 20
670.243286
  0
VERTEX
  8
0
 10
17.422733
 20
669.596680
  0
VERTEX
  8
0
 10
17.671562
 20
668.709534
  0
VERTEX
  8
0
 10
17.945704
 20
667.920044
  0
VERTEX
  8
0
 10
18.142735
 20
667.444031
  0
VERTEX
  8
0
 10
18.353359
 20
667.001404
  0
VERTEX
  8
0
 10
18.699062
 20
666.385193
  0
VERTEX
  8
0
 10
18.952656
 20
665.997009
  0
VERTEX
  8
0
 10
19.226954
 20
665.619202
  0
VERTEX
  8
0
 10
19.846094
 20
664.868896
  0
VERTEX
  8
0
 10
20.571718
 20
664.083862
  0
VERTEX
  8
0
 10
21.382656
 20
663.257385
  0
VERTEX
  8
0
 10
23.404375
 20
661.252808
  0
VERTEX
  8
0
 10
24.334843
 20
660.268982
  0
VERTEX
  8
0
 10
24.803905
 20
659.695068
  0
VERTEX
  8
0
 10
25.098124
 20
659.271301
  0
VERTEX
  8
0
 10
25.357656
 20
658.829041
  0
VERTEX
  8
0
 10
25.595860
 20
658.346008
  0
VERTEX
  8
0
 10
25.903593
 20
657.600281
  0
VERTEX
  8
0
 10
26.231092
 20
656.683472
  0
VERTEX
  8
0
 10
28.220547
 20
650.684692
  0
VERTEX
  8
0
 10
30.412733
 20
644.331726
  0
VERTEX
  8
0
 10
32.344845
 20
638.865295
  0
VERTEX
  8
0
 10
33.805859
 20
634.856262
  0
VERTEX
  8
0
 10
35.290546
 20
630.969055
  0
VERTEX
  8
0
 10
36.557186
 20
627.846069
  0
VERTEX
  8
0
 10
37.333904
 20
626.034546
  0
VERTEX
  8
0
 10
37.859764
 20
624.857117
  0
VERTEX
  8
0
 10
38.933044
 20
622.584534
  0
VERTEX
  8
0
 10
39.481483
 20
621.493591
  0
VERTEX
  8
0
 10
40.038513
 20
620.435852
  0
VERTEX
  8
0
 10
40.604687
 20
619.413269
  0
VERTEX
  8
0
 10
41.179688
 20
618.427856
  0
VERTEX
  8
0
 10
41.760624
 20
617.480591
  0
VERTEX
  8
0
 10
42.634922
 20
616.133362
  0
VERTEX
  8
0
 10
43.214531
 20
615.285400
  0
VERTEX
  8
0
 10
44.069607
 20
614.091064
  0
VERTEX
  8
0
 10
44.896641
 20
612.992432
  0
VERTEX
  8
0
 10
45.683044
 20
611.992188
  0
VERTEX
  8
0
 10
46.421326
 20
611.090637
  0
VERTEX
  8
0
 10
47.122265
 20
610.276611
  0
VERTEX
  8
0
 10
47.801872
 20
609.536133
  0
VERTEX
  8
0
 10
48.475780
 20
608.855347
  0
VERTEX
  8
0
 10
49.159843
 20
608.220459
  0
VERTEX
  8
0
 10
49.869766
 20
607.617310
  0
VERTEX
  8
0
 10
50.619999
 20
607.035767
  0
VERTEX
  8
0
 10
51.146641
 20
606.661682
  0
VERTEX
  8
0
 10
51.981560
 20
606.126526
  0
VERTEX
  8
0
 10
52.571171
 20
605.790222
  0
VERTEX
  8
0
 10
53.189529
 20
605.472900
  0
VERTEX
  8
0
 10
53.838669
 20
605.176575
  0
VERTEX
  8
0
 10
54.520622
 20
604.903564
  0
VERTEX
  8
0
 10
55.237576
 20
604.656128
  0
VERTEX
  8
0
 10
55.990391
 20
604.435974
  0
VERTEX
  8
0
 10
56.776718
 20
604.243408
  0
VERTEX
  8
0
 10
57.592968
 20
604.078125
  0
VERTEX
  8
0
 10
58.435623
 20
603.940063
  0
VERTEX
  8
0
 10
59.301250
 20
603.829041
  0
VERTEX
  8
0
 10
60.186249
 20
603.745056
  0
VERTEX
  8
0
 10
61.087185
 20
603.687744
  0
VERTEX
  8
0
 10
62.460701
 20
603.651489
  0
VERTEX
  8
0
 10
63.386013
 20
603.660278
  0
VERTEX
  8
0
 10
64.314529
 20
603.695190
  0
VERTEX
  8
0
 10
65.703201
 20
603.795593
  0
VERTEX
  8
0
 10
66.619766
 20
603.893921
  0
VERTEX
  8
0
 10
67.523750
 20
604.016785
  0
VERTEX
  8
0
 10
68.410545
 20
604.163879
  0
VERTEX
  8
0
 10
69.275703
 20
604.334839
  0
VERTEX
  8
0
 10
70.114685
 20
604.529114
  0
VERTEX
  8
0
 10
70.923042
 20
604.746399
  0
VERTEX
  8
0
 10
71.697266
 20
604.986206
  0
VERTEX
  8
0
 10
72.437889
 20
605.247925
  0
VERTEX
  8
0
 10
73.146721
 20
605.531006
  0
VERTEX
  8
0
 10
73.825386
 20
605.834778
  0
VERTEX
  8
0
 10
74.475464
 20
606.158447
  0
VERTEX
  8
0
 10
75.098595
 20
606.501526
  0
VERTEX
  8
0
 10
75.986641
 20
607.051025
  0
VERTEX
  8
0
 10
76.549767
 20
607.439575
  0
VERTEX
  8
0
 10
77.355858
 20
608.055237
  0
VERTEX
  8
0
 10
77.871796
 20
608.490479
  0
VERTEX
  8
0
 10
78.375000
 20
608.949463
  0
VERTEX
  8
0
 10
78.869217
 20
609.435974
  0
VERTEX
  8
0
 10
79.358124
 20
609.953430
  0
VERTEX
  8
0
 10
79.845703
 20
610.505554
  0
VERTEX
  8
0
 10
80.582184
 20
611.406128
  0
VERTEX
  8
0
 10
81.082344
 20
612.060120
  0
VERTEX
  8
0
 10
81.854218
 20
613.129150
  0
VERTEX
  8
0
 10
82.647736
 20
614.300598
  0
VERTEX
  8
0
 10
83.182419
 20
615.133362
  0
VERTEX
  8
0
 10
83.717186
 20
616.003906
  0
VERTEX
  8
0
 10
84.247971
 20
616.909058
  0
VERTEX
  8
0
 10
84.771248
 20
617.845581
  0
VERTEX
  8
0
 10
85.282967
 20
618.810547
  0
VERTEX
  8
0
 10
85.779297
 20
619.800781
  0
VERTEX
  8
0
 10
86.256561
 20
620.813049
  0
VERTEX
  8
0
 10
86.713516
 20
621.846008
  0
VERTEX
  8
0
 10
87.151558
 20
622.900146
  0
VERTEX
  8
0
 10
87.571877
 20
623.975830
  0
VERTEX
  8
0
 10
87.976250
 20
625.073425
  0
VERTEX
  8
0
 10
88.742500
 20
627.336243
  0
VERTEX
  8
0
 10
89.461716
 20
629.691833
  0
VERTEX
  8
0
 10
90.145622
 20
632.141968
  0
VERTEX
  8
0
 10
90.807030
 20
634.671936
  0
VERTEX
  8
0
 10
92.791641
 20
642.513550
  0
VERTEX
  8
0
 10
93.492416
 20
645.124146
  0
VERTEX
  8
0
 10
94.215385
 20
647.656616
  0
VERTEX
  8
0
 10
94.955391
 20
650.053406
  0
VERTEX
  8
0
 10
95.330307
 20
651.182617
  0
VERTEX
  8
0
 10
95.707733
 20
652.256226
  0
VERTEX
  8
0
 10
96.086952
 20
653.267151
  0
VERTEX
  8
0
 10
96.469063
 20
654.213989
  0
VERTEX
  8
0
 10
96.856247
 20
655.101074
  0
VERTEX
  8
0
 10
97.250938
 20
655.933044
  0
VERTEX
  8
0
 10
97.862267
 20
657.087341
  0
VERTEX
  8
0
 10
98.286324
 20
657.801086
  0
VERTEX
  8
0
 10
98.726250
 20
658.475525
  0
VERTEX
  8
0
 10
99.184532
 20
659.115295
  0
VERTEX
  8
0
 10
99.663437
 20
659.724731
  0
VERTEX
  8
0
 10
100.164375
 20
660.307800
  0
VERTEX
  8
0
 10
100.683746
 20
660.864929
  0
VERTEX
  8
0
 10
101.217110
 20
661.395752
  0
VERTEX
  8
0
 10
102.033119
 20
662.142639
  0
VERTEX
  8
0
 10
102.581017
 20
662.607117
  0
VERTEX
  8
0
 10
103.397499
 20
663.253113
  0
VERTEX
  8
0
 10
103.931404
 20
663.649597
  0
VERTEX
  8
0
 10
104.705307
 20
664.192566
  0
VERTEX
  8
0
 10
107.164528
 20
665.819275
  0
VERTEX
  8
0
 10
107.719452
 20
666.233887
  0
VERTEX
  8
0
 10
108.059059
 20
666.519287
  0
VERTEX
  8
0
 10
108.521324
 20
666.974182
  0
VERTEX
  8
0
 10
108.797890
 20
667.309448
  0
VERTEX
  8
0
 10
108.926949
 20
667.491211
  0
VERTEX
  8
0
 10
109.166718
 20
667.890930
  0
VERTEX
  8
0
 10
109.277573
 20
668.111877
  0
VERTEX
  8
0
 10
109.481407
 20
668.603821
  0
VERTEX
  8
0
 10
109.574608
 20
668.877869
  0
VERTEX
  8
0
 10
109.743591
 20
669.489746
  0
VERTEX
  8
0
 10
109.889839
 20
670.197144
  0
VERTEX
  8
0
 10
110.067657
 20
671.464233
  0
VERTEX
  8
0
 10
110.159294
 20
672.459351
  0
VERTEX
  8
0
 10
110.231323
 20
673.564209
  0
VERTEX
  8
0
 10
110.324608
 20
676.036621
  0
VERTEX
  8
0
 10
110.366013
 20
679.448608
  0
VERTEX
  8
0
 10
110.346481
 20
683.672424
  0
VERTEX
  8
0
 10
110.279449
 20
688.415283
  0
VERTEX
  8
0
 10
110.143906
 20
694.945862
  0
VERTEX
  8
0
 10
125.585152
 20
697.963684
  0
VERTEX
  8
0
 10
125.719841
 20
687.962402
  0
VERTEX
  8
0
 10
125.758751
 20
682.583984
  0
VERTEX
  8
0
 10
125.733902
 20
678.139832
  0
VERTEX
  8
0
 10
125.700233
 20
676.464294
  0
VERTEX
  8
0
 10
125.634918
 20
674.494690
  0
VERTEX
  8
0
 10
125.567345
 20
673.118958
  0
VERTEX
  8
0
 10
125.454529
 20
671.464600
  0
VERTEX
  8
0
 10
125.309372
 20
669.926758
  0
VERTEX
  8
0
 10
125.127266
 20
668.484497
  0
VERTEX
  8
0
 10
124.904762
 20
667.118591
  0
VERTEX
  8
0
 10
124.640541
 20
665.809509
  0
VERTEX
  8
0
 10
124.323593
 20
664.504211
  0
VERTEX
  8
0
 10
123.937500
 20
663.191711
  0
VERTEX
  8
0
 10
123.564217
 20
662.128967
  0
VERTEX
  8
0
 10
123.129372
 20
661.070129
  0
VERTEX
  8
0
 10
122.632813
 20
660.039063
  0
VERTEX
  8
0
 10
122.201561
 20
659.255371
  0
VERTEX
  8
0
 10
121.591560
 20
658.278564
  0
VERTEX
  8
0
 10
120.918045
 20
657.335632
  0
VERTEX
  8
0
 10
120.217186
 20
656.464233
  0
VERTEX
  8
0
 10
119.499062
 20
655.660156
  0
VERTEX
  8
0
 10
118.754684
 20
654.900635
  0
VERTEX
  8
0
 10
117.797813
 20
654.011536
  0
VERTEX
  8
0
 10
116.805077
 20
653.173279
  0
VERTEX
  8
0
 10
115.812653
 20
652.406128
  0
VERTEX
  8
0
 10
115.018120
 20
651.835632
  0
VERTEX
  8
0
 10
114.006012
 20
651.158264
  0
VERTEX
  8
0
 10
111.587029
 20
649.667175
  0
VERTEX
  8
0
 10
111.297340
 20
649.461609
  0
VERTEX
  8
0
 10
111.310150
 20
649.442810
  0
VERTEX
  8
0
 10
111.312027
 20
649.445435
  0
VERTEX
  8
0
 10
111.192810
 20
649.251770
  0
VERTEX
  8
0
 10
111.061249
 20
649.013245
  0
VERTEX
  8
0
 10
110.907890
 20
648.707703
  0
VERTEX
  8
0
 10
110.740311
 20
648.343201
  0
VERTEX
  8
0
 10
110.556557
 20
647.908875
  0
VERTEX
  8
0
 10
110.358437
 20
647.404541
  0
VERTEX
  8
0
 10
110.057419
 20
646.579895
  0
VERTEX
  8
0
 10
109.538361
 20
645.037170
  0
VERTEX
  8
0
 10
108.954453
 20
643.116638
  0
VERTEX
  8
0
 10
108.532265
 20
641.592773
  0
VERTEX
  8
0
 10
108.066010
 20
639.777039
  0
VERTEX
  8
0
 10
106.486794
 20
633.147949
  0
VERTEX
  8
0
 10
105.621407
 20
629.691711
  0
VERTEX
  8
0
 10
105.045074
 20
627.556641
  0
VERTEX
  8
0
 10
104.637421
 20
626.131165
  0
VERTEX
  8
0
 10
104.215698
 20
624.722107
  0
VERTEX
  8
0
 10
103.569298
 20
622.678345
  0
VERTEX
  8
0
 10
102.894371
 20
620.680908
  0
VERTEX
  8
0
 10
102.197029
 20
618.751404
  0
VERTEX
  8
0
 10
101.485703
 20
616.915771
  0
VERTEX
  8
0
 10
100.990623
 20
615.714905
  0
VERTEX
  8
0
 10
100.487968
 20
614.556030
  0
VERTEX
  8
0
 10
99.742729
 20
612.942017
  0
VERTEX
  8
0
 10
98.978279
 20
611.402649
  0
VERTEX
  8
0
 10
98.204140
 20
609.948242
  0
VERTEX
  8
0
 10
97.423042
 20
608.572632
  0
VERTEX
  8
0
 10
96.636093
 20
607.265381
  0
VERTEX
  8
0
 10
95.832886
 20
606.001160
  0
VERTEX
  8
0
 10
94.996872
 20
604.759644
  0
VERTEX
  8
0
 10
94.118752
 20
603.536987
  0
VERTEX
  8
0
 10
93.192657
 20
602.334412
  0
VERTEX
  8
0
 10
92.230309
 20
601.173889
  0
VERTEX
  8
0
 10
91.529839
 20
600.381531
  0
VERTEX
  8
0
 10
90.803749
 20
599.601990
  0
VERTEX
  8
0
 10
89.719528
 20
598.511108
  0
VERTEX
  8
0
 10
88.575157
 20
597.444336
  0
VERTEX
  8
0
 10
87.392578
 20
596.422852
  0
VERTEX
  8
0
 10
86.194839
 20
595.466003
  0
VERTEX
  8
0
 10
85.320465
 20
594.813171
  0
VERTEX
  8
0
 10
84.090935
 20
593.958923
  0
VERTEX
  8
0
 10
83.171326
 20
593.367493
  0
VERTEX
  8
0
 10
81.886642
 20
592.608765
  0
VERTEX
  8
0
 10
80.914215
 20
592.085388
  0
VERTEX
  8
0
 10
79.566246
 20
591.430298
  0
VERTEX
  8
0
 10
78.543823
 20
590.985352
  0
VERTEX
  8
0
 10
77.133202
 20
590.440918
  0
VERTEX
  8
0
 10
76.099762
 20
590.090698
  0
VERTEX
  8
0
 10
75.059296
 20
589.775391
  0
VERTEX
  8
0
 10
73.591011
 20
589.390076
  0
VERTEX
  8
0
 10
72.528122
 20
589.149536
  0
VERTEX
  8
0
 10
71.044060
 20
588.861023
  0
VERTEX
  8
0
 10
69.549683
 20
588.621765
  0
VERTEX
  8
0
 10
68.077110
 20
588.431396
  0
VERTEX
  8
0
 10
66.630783
 20
588.285278
  0
VERTEX
  8
0
 10
65.206406
 20
588.179626
  0
VERTEX
  8
0
 10
63.790936
 20
588.113831
  0
VERTEX
  8
0
 10
62.379219
 20
588.088562
  0
VERTEX
  8
0
 10
60.949608
 20
588.104675
  0
VERTEX
  8
0
 10
59.104530
 20
588.187805
  0
VERTEX
  8
0
 10
57.652889
 20
588.301086
  0
VERTEX
  8
0
 10
56.164063
 20
588.462891
  0
VERTEX
  8
0
 10
54.632420
 20
588.688049
  0
VERTEX
  8
0
 10
53.489059
 20
588.899353
  0
VERTEX
  8
0
 10
51.882500
 20
589.266235
  0
VERTEX
  8
0
 10
50.663982
 20
589.603271
  0
VERTEX
  8
0
 10
48.986092
 20
590.157043
  0
VERTEX
  8
0
 10
47.770702
 20
590.628418
  0
VERTEX
  8
0
 10
46.606796
 20
591.134521
  0
VERTEX
  8
0
 10
45.466248
 20
591.681885
  0
VERTEX
  8
0
 10
44.349216
 20
592.267090
  0
VERTEX
  8
0
 10
43.256248
 20
592.887390
  0
VERTEX
  8
0
 10
42.160625
 20
593.557861
  0
VERTEX
  8
0
 10
40.664375
 20
594.559509
  0
VERTEX
  8
0
 10
39.640312
 20
595.308960
  0
VERTEX
  8
0
 10
38.676250
 20
596.067566
  0
VERTEX
  8
0
 10
37.756798
 20
596.847046
  0
VERTEX
  8
0
 10
36.889999
 20
597.637024
  0
VERTEX
  8
0
 10
36.054531
 20
598.452942
  0
VERTEX
  8
0
 10
34.970703
 20
599.599182
  0
VERTEX
  8
0
 10
34.243904
 20
600.426575
  0
VERTEX
  8
0
 10
33.308670
 20
601.561707
  0
VERTEX
  8
0
 10
32.435547
 20
602.692749
  0
VERTEX
  8
0
 10
31.396172
 20
604.118164
  0
VERTEX
  8
0
 10
30.632813
 20
605.218750
  0
VERTEX
  8
0
 10
29.685234
 20
606.651855
  0
VERTEX
  8
0
 10
28.769062
 20
608.108398
  0
VERTEX
  8
0
 10
27.872499
 20
609.597412
  0
VERTEX
  8
0
 10
26.958672
 20
611.183289
  0
VERTEX
  8
0
 10
26.216719
 20
612.550781
  0
VERTEX
  8
0
 10
25.447422
 20
614.062805
  0
VERTEX
  8
0
 10
24.889452
 20
615.223206
  0
VERTEX
  8
0
 10
24.044453
 20
617.080627
  0
VERTEX
  8
0
 10
23.421719
 20
618.522034
  0
VERTEX
  8
0
 10
22.126015
 20
621.688965
  0
VERTEX
  8
0
 10
20.393202
 20
626.158325
  0
VERTEX
  8
0
 10
18.342577
 20
631.655396
  0
VERTEX
  8
0
 10
16.071875
 20
637.924133
  0
VERTEX
  8
0
 10
15.006719
 20
640.940063
  0
VERTEX
  8
0
 10
14.164687
 20
643.384277
  0
VERTEX
  8
0
 10
12.453437
 20
648.577148
  0
VERTEX
  8
0
 10
12.228906
 20
649.192932
  0
VERTEX
  8
0
 10
12.137500
 20
649.409851
  0
VERTEX
  8
0
 10
12.001562
 20
649.677551
  0
VERTEX
  8
0
 10
11.882343
 20
649.873047
  0
VERTEX
  8
0
 10
11.613828
 20
650.259155
  0
VERTEX
  8
0
 10
11.168984
 20
650.841675
  0
VERTEX
  8
0
 10
10.591171
 20
651.553406
  0
VERTEX
  8
0
 10
9.750078
 20
652.539307
  0
VERTEX
  8
0
 10
9.070078
 20
653.304504
  0
VERTEX
  8
0
 10
7.082422
 20
655.485229
  0
VERTEX
  8
0
 10
6.211719
 20
656.547180
  0
VERTEX
  8
0
 10
5.544609
 20
657.463684
  0
VERTEX
  8
0
 10
5.080937
 20
658.172974
  0
VERTEX
  8
0
 10
4.659141
 20
658.881775
  0
VERTEX
  8
0
 10
4.264297
 20
659.613098
  0
VERTEX
  8
0
 10
3.897031
 20
660.364746
  0
VERTEX
  8
0
 10
3.557344
 20
661.135559
  0
VERTEX
  8
0
 10
3.245000
 20
661.924500
  0
VERTEX
  8
0
 10
2.959375
 20
662.730713
  0
VERTEX
  8
0
 10
2.680547
 20
663.615295
  0
VERTEX
  8
0
 10
2.261797
 20
665.216858
  0
VERTEX
  8
0
 10
1.979453
 20
666.590515
  0
VERTEX
  8
0
 10
1.698437
 20
668.377380
  0
VERTEX
  8
0
 10
1.524375
 20
669.853027
  0
VERTEX
  8
0
 10
1.383594
 20
671.402771
  0
VERTEX
  8
0
 10
1.236719
 20
673.612244
  0
VERTEX
  8
0
 10
1.124062
 20
676.067505
  0
VERTEX
  8
0
 10
1.061250
 20
678.057007
  0
VERTEX
  8
0
 10
1.010937
 20
680.778442
  0
VERTEX
  8
0
 10
1.000000
 20
682.869690
  0
VERTEX
  8
0
 10
1.014375
 20
684.940002
  0
VERTEX
  8
0
 10
1.056094
 20
686.953247
  0
VERTEX
  8
0
 10
1.123125
 20
688.895447
  0
VERTEX
  8
0
 10
1.242344
 20
691.369568
  0
VERTEX
  8
0
 10
1.594687
 20
696.861145
  0
VERTEX
  8
0
 10
16.997656
 20
695.214661
  0
SEQEND
  8
0
  0
POLYLINE
  8
0
  0
VERTEX
  8
0
 10
117.605469
 20
696.404114
  0
VERTEX
  8
0
 10
117.720306
 20
687.879700
  0
VERTEX
  8
0
 10
117.758591
 20
682.577332
  0
VERTEX
  8
0
 10
117.734375
 20
678.242554
  0
VERTEX
  8
0
 10
117.702965
 20
676.677307
  0
VERTEX
  8
0
 10
117.641403
 20
674.823730
  0
VERTEX
  8
0
 10
117.580620
 20
673.587280
  0
VERTEX
  8
0
 10
117.480156
 20
672.112732
  0
VERTEX
  8
0
 10
117.356636
 20
670.804199
  0
VERTEX
  8
0
 10
117.208199
 20
669.628784
  0
VERTEX
  8
0
 10
117.033119
 20
668.553589
  0
VERTEX
  8
0
 10
116.829529
 20
667.545593
  0
VERTEX
  8
0
 10
116.594688
 20
666.577942
  0
VERTEX
  8
0
 10
116.320938
 20
665.647583
  0
VERTEX
  8
0
 10
116.085075
 20
664.976074
  0
VERTEX
  8
0
 10
115.819138
 20
664.328430
  0
VERTEX
  8
0
 10
115.519295
 20
663.705933
  0
VERTEX
  8
0
 10
115.298904
 20
663.305542
  0
VERTEX
  8
0
 10
114.937416
 20
662.726440
  0
VERTEX
  8
0
 10
114.541092
 20
662.171631
  0
VERTEX
  8
0
 10
114.112885
 20
661.639221
  0
VERTEX
  8
0
 10
113.655548
 20
661.127258
  0
VERTEX
  8
0
 10
113.171951
 20
660.633728
  0
VERTEX
  8
0
 10
112.491402
 20
660.001404
  0
VERTEX
  8
0
 10
111.775780
 20
659.397034
  0
VERTEX
  8
0
 10
111.031792
 20
658.822083
  0
VERTEX
  8
0
 10
110.459061
 20
658.410767
  0
VERTEX
  8
0
 10
109.681091
 20
657.890137
  0
VERTEX
  8
0
 10
107.174530
 20
656.345093
  0
VERTEX
  8
0
 10
106.480385
 20
655.854370
  0
VERTEX
  8
0
 10
106.005547
 20
655.461914
  0
VERTEX
  8
0
 10
105.713203
 20
655.185669
  0
VERTEX
  8
0
 10
105.438904
 20
654.897705
  0
VERTEX
  8
0
 10
105.180855
 20
654.597900
  0
VERTEX
  8
0
 10
104.820854
 20
654.126221
  0
VERTEX
  8
0
 10
104.596642
 20
653.797302
  0
VERTEX
  8
0
 10
104.279762
 20
653.282349
  0
VERTEX
  8
0
 10
103.981407
 20
652.741577
  0
VERTEX
  8
0
 10
103.696404
 20
652.173889
  0
VERTEX
  8
0
 10
103.420151
 20
651.572815
  0
VERTEX
  8
0
 10
103.148438
 20
650.930481
  0
VERTEX
  8
0
 10
102.876953
 20
650.239197
  0
VERTEX
  8
0
 10
102.507576
 20
649.227661
  0
VERTEX
  8
0
 10
101.918510
 20
647.476807
  0
VERTEX
  8
0
 10
101.271400
 20
645.348450
  0
VERTEX
  8
0
 10
100.802498
 20
643.655823
  0
VERTEX
  8
0
 10
100.299919
 20
641.699097
  0
VERTEX
  8
0
 10
98.715157
 20
635.046448
  0
VERTEX
  8
0
 10
97.878746
 20
631.705750
  0
VERTEX
  8
0
 10
97.337105
 20
629.699097
  0
VERTEX
  8
0
 10
96.959213
 20
628.377869
  0
VERTEX
  8
0
 10
96.569374
 20
627.075195
  0
VERTEX
  8
0
 10
95.965309
 20
625.165466
  0
VERTEX
  8
0
 10
95.342110
 20
623.321167
  0
VERTEX
  8
0
 10
94.704453
 20
621.556641
  0
VERTEX
  8
0
 10
94.057030
 20
619.885986
  0
VERTEX
  8
0
 10
93.622261
 20
618.831421
  0
VERTEX
  8
0
 10
93.185776
 20
617.825012
  0
VERTEX
  8
0
 10
92.527184
 20
616.398743
  0
VERTEX
  8
0
 10
91.863358
 20
615.062073
  0
VERTEX
  8
0
 10
91.193436
 20
613.803406
  0
VERTEX
  8
0
 10
90.516563
 20
612.611328
  0
VERTEX
  8
0
 10
89.831871
 20
611.473877
  0
VERTEX
  8
0
 10
89.137657
 20
610.381165
  0
VERTEX
  8
0
 10
88.428673
 20
609.328430
  0
VERTEX
  8
0
 10
87.698906
 20
608.312378
  0
VERTEX
  8
0
 10
86.942261
 20
607.329895
  0
VERTEX
  8
0
 10
86.152733
 20
606.377625
  0
VERTEX
  8
0
 10
85.604919
 20
605.757935
  0
VERTEX
  8
0
 10
85.038200
 20
605.149414
  0
VERTEX
  8
0
 10
84.152885
 20
604.258789
  0
VERTEX
  8
0
 10
83.231094
 20
603.399414
  0
VERTEX
  8
0
 10
82.279297
 20
602.577332
  0
VERTEX
  8
0
 10
81.303902
 20
601.798096
  0
VERTEX
  8
0
 10
80.643745
 20
601.305237
  0
VERTEX
  8
0
 10
79.643433
 20
600.610168
  0
VERTEX
  8
0
 10
78.972031
 20
600.178406
  0
VERTEX
  8
0
 10
77.955467
 20
599.577942
  0
VERTEX
  8
0
 10
77.268745
 20
599.208435
  0
VERTEX
  8
0
 10
76.220230
 20
598.698792
  0
VERTEX
  8
0
 10
75.506325
 20
598.388184
  0
VERTEX
  8
0
 10
74.408043
 20
597.964355
  0
VERTEX
  8
0
 10
73.654999
 20
597.709045
  0
VERTEX
  8
0
 10
72.883049
 20
597.475159
  0
VERTEX
  8
0
 10
71.692261
 20
597.162659
  0
VERTEX
  8
0
 10
70.881325
 20
596.979187
  0
VERTEX
  8
0
 10
69.647964
 20
596.739380
  0
VERTEX
  8
0
 10
68.404373
 20
596.540283
  0
VERTEX
  8
0
 10
67.162109
 20
596.379700
  0
VERTEX
  8
0
 10
65.932732
 20
596.255432
  0
VERTEX
  8
0
 10
64.724533
 20
596.165833
  0
VERTEX
  8
0
 10
63.533672
 20
596.110474
  0
VERTEX
  8
0
 10
62.352810
 20
596.089417
  0
VERTEX
  8
0
 10
61.174686
 20
596.102661
  0
VERTEX
  8
0
 10
59.595860
 20
596.173828
  0
VERTEX
  8
0
 10
58.396328
 20
596.267334
  0
VERTEX
  8
0
 10
57.178436
 20
596.399658
  0
VERTEX
  8
0
 10
55.941875
 20
596.581543
  0
VERTEX
  8
0
 10
55.107342
 20
596.735779
  0
VERTEX
  8
0
 10
53.840233
 20
597.025146
  0
VERTEX
  8
0
 10
52.985310
 20
597.261536
  0
VERTEX
  8
0
 10
51.688046
 20
597.689758
  0
VERTEX
  8
0
 10
50.813282
 20
598.029053
  0
VERTEX
  8
0
 10
49.933514
 20
598.411560
  0
VERTEX
  8
0
 10
49.054218
 20
598.833557
  0
VERTEX
  8
0
 10
48.181091
 20
599.290955
  0
VERTEX
  8
0
 10
47.319607
 20
599.779907
  0
VERTEX
  8
0
 10
46.475468
 20
600.296448
  0
VERTEX
  8
0
 10
45.253906
 20
601.114258
  0
VERTEX
  8
0
 10
44.477497
 20
601.682434
  0
VERTEX
  8
0
 10
43.738045
 20
602.264282
  0
VERTEX
  8
0
 10
43.039764
 20
602.856262
  0
VERTEX
  8
0
 10
42.380703
 20
603.456909
  0
VERTEX
  8
0
 10
41.757889
 20
604.065125
  0
VERTEX
  8
0
 10
40.884296
 20
604.989136
  0
VERTEX
  8
0
 10
40.337811
 20
605.611206
  0
VERTEX
  8
0
 10
39.563747
 20
606.550781
  0
VERTEX
  8
0
 10
38.834999
 20
607.494690
  0
VERTEX
  8
0
 10
37.915936
 20
608.755066
  0
VERTEX
  8
0
 10
37.257030
 20
609.705139
  0
VERTEX
  8
0
 10
36.408516
 20
610.988281
  0
VERTEX
  8
0
 10
35.582420
 20
612.301880
  0
VERTEX
  8
0
 10
34.765701
 20
613.658203
  0
VERTEX
  8
0
 10
33.941326
 20
615.088745
  0
VERTEX
  8
0
 10
33.298828
 20
616.272827
  0
VERTEX
  8
0
 10
32.618282
 20
617.610535
  0
VERTEX
  8
0
 10
32.136013
 20
618.613403
  0
VERTEX
  8
0
 10
31.358124
 20
620.323608
  0
VERTEX
  8
0
 10
30.796562
 20
621.623352
  0
VERTEX
  8
0
 10
29.558203
 20
624.649902
  0
VERTEX
  8
0
 10
27.870703
 20
629.002380
  0
VERTEX
  8
0
 10
25.851328
 20
634.415771
  0
VERTEX
  8
0
 10
23.604530
 20
640.618530
  0
VERTEX
  8
0
 10
22.560390
 20
643.575073
  0
VERTEX
  8
0
 10
21.745937
 20
645.939209
  0
VERTEX
  8
0
 10
20.012264
 20
651.200012
  0
VERTEX
  8
0
 10
19.677891
 20
652.117065
  0
VERTEX
  8
0
 10
19.399374
 20
652.778503
  0
VERTEX
  8
0
 10
18.993046
 20
653.578186
  0
VERTEX
  8
0
 10
18.587500
 20
654.243286
  0
VERTEX
  8
0
 10
18.080235
 20
654.972717
  0
VERTEX
  8
0
 10
17.454844
 20
655.791687
  0
VERTEX
  8
0
 10
16.740391
 20
656.671631
  0
VERTEX
  8
0
 10
15.783671
 20
657.793091
  0
VERTEX
  8
0
 10
15.016484
 20
658.656311
  0
VERTEX
  8
0
 10
13.136093
 20
660.719421
  0
VERTEX
  8
0
 10
12.544218
 20
661.441284
  0
VERTEX
  8
0
 10
12.130859
 20
662.009216
  0
VERTEX
  8
0
 10
11.869452
 20
662.409058
  0
VERTEX
  8
0
 10
11.619374
 20
662.829346
  0
VERTEX
  8
0
 10
11.380781
 20
663.271179
  0
VERTEX
  8
0
 10
11.154062
 20
663.735168
  0
VERTEX
  8
0
 10
10.939375
 20
664.222351
  0
VERTEX
  8
0
 10
10.737031
 20
664.733521
  0
VERTEX
  8
0
 10
10.547187
 20
665.269531
  0
VERTEX
  8
0
 10
10.370078
 20
665.831177
  0
VERTEX
  8
0
 10
10.055312
 20
667.035217
  0
VERTEX
  8
0
 10
9.853281
 20
668.018127
  0
VERTEX
  8
0
 10
9.625235
 20
669.467896
  0
VERTEX
  8
0
 10
9.481796
 20
670.683655
  0
VERTEX
  8
0
 10
9.359453
 20
672.030151
  0
VERTEX
  8
0
 10
9.224531
 20
674.060974
  0
VERTEX
  8
0
 10
9.118203
 20
676.377075
  0
VERTEX
  8
0
 10
9.058906
 20
678.256958
  0
VERTEX
  8
0
 10
9.010625
 20
680.873291
  0
VERTEX
  8
0
 10
9.000156
 20
682.862976
  0
VERTEX
  8
0
 10
9.013828
 20
684.829285
  0
VERTEX
  8
0
 10
9.053281
 20
686.732483
  0
VERTEX
  8
0
 10
9.116485
 20
688.565063
  0
VERTEX
  8
0
 10
9.230000
 20
690.920898
  0
VERTEX
  8
0
 10
9.556406
 20
696.010071
  0
SEQEND
  8
0
  0
POLYLINE
  8
0
  0
VERTEX
  8
0
 10
97.829605
 20
638.060425
  0
VERTEX
  8
0
 10
96.883751
 20
642.102539
  0
VERTEX
  8
0
 10
94.716873
 20
639.211365
  0
VERTEX
  8
0
 10
97.832184
 20
637.986450
  0
SEQEND
  8
0
  0
POLYLINE
  8
0
  0
VERTEX
  8
0
 10
62.868904
 20
600.791077
  0
VERTEX
  8
0
 10
62.394138
 20
600.679260
  0
VERTEX
  8
0
 10
61.998280
 20
600.394287
  0
VERTEX
  8
0
 10
61.741638
 20
599.979492
  0
VERTEX
  8
0
 10
61.663280
 20
599.498169
  0
VERTEX
  8
0
 10
61.775078
 20
599.023499
  0
VERTEX
  8
0
 10
62.059998
 20
598.627625
  0
VERTEX
  8
0
 10
62.474766
 20
598.370911
  0
VERTEX
  8
0
 10
62.956093
 20
598.292664
  0
VERTEX
  8
0
 10
63.430859
 20
598.404358
  0
VERTEX
  8
0
 10
63.826717
 20
598.689392
  0
VERTEX
  8
0
 10
64.083359
 20
599.104065
  0
VERTEX
  8
0
 10
64.161720
 20
599.585449
  0
VERTEX
  8
0
 10
64.049919
 20
600.060120
  0
VERTEX
  8
0
 10
63.764999
 20
600.455994
  0
VERTEX
  8
0
 10
63.350231
 20
600.712646
  0
VERTEX
  8
0
 10
62.868904
 20
600.791077
  0
SEQEND
  8
0
  0
POLYLINE
  8
0
  0
VERTEX
  8
0
 10
144.315231
 20
2.284609
  0
VERTEX
  8
0
 10
157.629456
 20
1.611641
  0
VERTEX
  8
0
 10
162.778427
 20
1.386250
  0
VERTEX
  8
0
 10
166.527023
 20
1.245156
  0
VERTEX
  8
0
 10
171.347260
 20
1.103828
  0
VERTEX
  8
0
 10
174.875931
 20
1.035547
  0
VERTEX
  8
0
 10
178.396561
 20
1.000703
  0
VERTEX
  8
0
 10
181.969299
 20
1.000078
  0
VERTEX
  8
0
 10
186.917267
 20
1.053828
  0
VERTEX
  8
0
 10
190.843582
 20
1.136328
  0
VERTEX
  8
0
 10
196.404846
 20
1.306172
  0
VERTEX
  8
0
 10
200.773270
 20
1.482344
  0
VERTEX
  8
0
 10
205.266327
 20
1.704062
  0
VERTEX
  8
0
 10
209.843826
 20
1.974609
  0
VERTEX
  8
0
 10
214.465622
 20
2.297188
  0
VERTEX
  8
0
 10
219.096161
 20
2.675313
  0
VERTEX
  8
0
 10
222.194611
 20
2.960312
  0
VERTEX
  8
0
 10
225.319916
 20
3.273515
  0
VERTEX
  8
0
 10
228.487732
 20
3.616328
  0
VERTEX
  8
0
 10
231.713516
 20
3.990391
  0
VERTEX
  8
0
 10
235.012726
 20
4.397110
  0
VERTEX
  8
0
 10
238.400925
 20
4.838047
  0
VERTEX
  8
0
 10
241.893661
 20
5.314844
  0
VERTEX
  8
0
 10
247.361954
 20
6.100312
  0
VERTEX
  8
0
 10
253.113434
 20
6.966719
  0
VERTEX
  8
0
 10
259.103577
 20
7.899219
  0
VERTEX
  8
0
 10
273.728424
 20
10.242734
  0
VERTEX
  8
0
 10
290.908905
 20
13.002421
  0
VERTEX
  8
0
 10
305.987640
 20
15.384609
  0
VERTEX
  8
0
 10
321.079437
 20
17.749453
  0
VERTEX
  8
0
 10
321.079437
 20
17.749453
  0
VERTEX
  8
0
 10
314.311310
 20
23.633984
  0
VERTEX
  8
0
 10
308.770691
 20
28.425859
  0
VERTEX
  8
0
 10
304.502655
 20
32.081562
  0
VERTEX
  8
0
 10
300.643585
 20
35.338673
  0
VERTEX
  8
0
 10
297.108276
 20
38.263905
  0
VERTEX
  8
0
 10
293.769531
 20
40.961483
  0
VERTEX
  8
0
 10
290.501465
 20
43.534451
  0
VERTEX
  8
0
 10
287.228363
 20
46.040466
  0
VERTEX
  8
0
 10
285.257721
 20
47.511639
  0
VERTEX
  8
0
 10
283.280304
 20
48.957031
  0
VERTEX
  8
0
 10
279.966705
 20
51.305546
  0
VERTEX
  8
0
 10
276.653290
 20
53.558044
  0
VERTEX
  8
0
 10
273.473816
 20
55.629452
  0
VERTEX
  8
0
 10
271.697723
 20
56.743435
  0
VERTEX
  8
0
 10
270.589905
 20
57.418983
  0
VERTEX
  8
0
 10
269.068665
 20
58.315468
  0
VERTEX
  8
0
 10
268.160004
 20
58.827812
  0
VERTEX
  8
0
 10
267.331482
 20
59.275078
  0
VERTEX
  8
0
 10
266.220062
 20
59.836483
  0
VERTEX
  8
0
 10
265.240845
 20
60.284061
  0
VERTEX
  8
0
 10
264.364929
 20
60.637264
  0
VERTEX
  8
0
 10
263.563263
 20
60.915936
  0
VERTEX
  8
0
 10
262.807251
 20
61.139217
  0
VERTEX
  8
0
 10
262.070618
 20
61.318829
  0
VERTEX
  8
0
 10
261.579224
 20
61.413750
  0
VERTEX
  8
0
 10
260.825531
 20
61.517109
  0
VERTEX
  8
0
 10
260.302490
 20
61.559216
  0
VERTEX
  8
0
 10
259.755463
 20
61.579060
  0
VERTEX
  8
0
 10
259.178040
 20
61.576092
  0
VERTEX
  8
0
 10
258.240540
 20
61.527187
  0
VERTEX
  8
0
 10
257.559357
 20
61.463982
  0
VERTEX
  8
0
 10
256.447418
 20
61.317890
  0
VERTEX
  8
0
 10
255.644211
 20
61.183044
  0
VERTEX
  8
0
 10
254.790070
 20
61.015469
  0
VERTEX
  8
0
 10
253.883896
 20
60.812813
  0
VERTEX
  8
0
 10
252.924454
 20
60.572578
  0
VERTEX
  8
0
 10
251.910309
 20
60.292656
  0
VERTEX
  8
0
 10
250.284454
 20
59.792969
  0
VERTEX
  8
0
 10
249.128738
 20
59.403984
  0
VERTEX
  8
0
 10
247.914764
 20
58.971951
  0
VERTEX
  8
0
 10
245.982178
 20
58.248360
  0
VERTEX
  8
0
 10
243.192337
 20
57.156250
  0
VERTEX
  8
0
 10
232.425934
 20
52.848202
  0
VERTEX
  8
0
 10
224.208038
 20
49.630859
  0
VERTEX
  8
0
 10
219.884216
 20
47.970623
  0
VERTEX
  8
0
 10
215.950851
 20
46.488045
  0
VERTEX
  8
0
 10
212.502960
 20
45.219608
  0
VERTEX
  8
0
 10
209.631409
 20
44.200077
  0
VERTEX
  8
0
 10
207.799683
 20
43.584530
  0
VERTEX
  8
0
 10
206.670929
 20
43.236092
  0
VERTEX
  8
0
 10
205.706863
 20
42.975391
  0
VERTEX
  8
0
 10
204.866791
 20
42.793907
  0
VERTEX
  8
0
 10
204.109528
 20
42.683125
  0
VERTEX
  8
0
 10
203.630692
 20
42.644451
  0
VERTEX
  8
0
 10
203.158585
 20
42.631016
  0
VERTEX
  8
0
 10
202.451797
 20
42.655079
  0
VERTEX
  8
0
 10
201.981018
 20
42.699608
  0
VERTEX
  8
0
 10
201.510544
 20
42.766171
  0
VERTEX
  8
0
 10
201.040237
 20
42.854298
  0
VERTEX
  8
0
 10
200.569992
 20
42.963203
  0
VERTEX
  8
0
 10
199.629608
 20
43.241173
  0
VERTEX
  8
0
 10
198.687103
 20
43.596561
  0
VERTEX
  8
0
 10
198.207260
 20
43.809921
  0
VERTEX
  8
0
 10
197.711639
 20
44.056561
  0
VERTEX
  8
0
 10
197.192886
 20
44.343983
  0
VERTEX
  8
0
 10
196.643204
 20
44.679451
  0
VERTEX
  8
0
 10
195.743820
 20
45.289375
  0
VERTEX
  8
0
 10
194.731720
 20
46.049454
  0
VERTEX
  8
0
 10
193.581329
 20
46.984375
  0
VERTEX
  8
0
 10
192.289520
 20
48.096561
  0
VERTEX
  8
0
 10
190.402893
 20
49.798435
  0
VERTEX
  8
0
 10
188.909531
 20
51.193123
  0
VERTEX
  8
0
 10
186.880234
 20
53.143047
  0
VERTEX
  8
0
 10
185.374680
 20
54.627266
  0
VERTEX
  8
0
 10
183.915237
 20
56.095623
  0
VERTEX
  8
0
 10
177.244690
 20
62.943123
  0
VERTEX
  8
0
 10
175.596878
 20
64.578590
  0
VERTEX
  8
0
 10
173.999451
 20
66.125237
  0
VERTEX
  8
0
 10
170.624451
 20
69.298981
  0
VERTEX
  8
0
 10
163.105927
 20
76.219841
  0
VERTEX
  8
0
 10
162.189606
 20
77.019684
  0
VERTEX
  8
0
 10
161.419846
 20
77.639526
  0
VERTEX
  8
0
 10
160.619995
 20
78.216721
  0
VERTEX
  8
0
 10
159.974838
 20
78.616951
  0
VERTEX
  8
0
 10
159.339142
 20
78.936562
  0
VERTEX
  8
0
 10
159.028824
 20
79.058517
  0
VERTEX
  8
0
 10
158.724991
 20
79.151794
  0
VERTEX
  8
0
 10
158.425385
 20
79.216171
  0
VERTEX
  8
0
 10
158.126801
 20
79.251717
  0
VERTEX
  8
0
 10
157.674057
 20
79.251640
  0
VERTEX
  8
0
 10
157.364532
 20
79.216248
  0
VERTEX
  8
0
 10
157.045380
 20
79.152733
  0
VERTEX
  8
0
 10
156.713272
 20
79.061562
  0
VERTEX
  8
0
 10
156.184296
 20
78.873199
  0
VERTEX
  8
0
 10
155.405853
 20
78.526329
  0
VERTEX
  8
0
 10
154.283981
 20
77.937027
  0
VERTEX
  8
0
 10
152.663666
 20
76.997574
  0
VERTEX
  8
0
 10
149.571640
 20
75.127731
  0
VERTEX
  8
0
 10
145.369919
 20
72.546875
  0
VERTEX
  8
0
 10
143.044373
 20
71.087730
  0
VERTEX
  8
0
 10
142.196396
 20
70.525002
  0
VERTEX
  8
0
 10
141.449219
 20
69.992889
  0
VERTEX
  8
0
 10
140.810471
 20
69.487030
  0
VERTEX
  8
0
 10
140.288284
 20
69.002495
  0
VERTEX
  8
0
 10
140.007660
 20
68.688828
  0
VERTEX
  8
0
 10
139.682648
 20
68.226402
  0
VERTEX
  8
0
 10
139.598038
 20
68.073120
  0
VERTEX
  8
0
 10
139.461868
 20
67.765778
  0
VERTEX
  8
0
 10
139.333435
 20
67.297890
  0
VERTEX
  8
0
 10
139.293198
 20
66.977501
  0
VERTEX
  8
0
 10
139.291718
 20
66.477577
  0
VERTEX
  8
0
 10
139.350464
 20
65.946640
  0
VERTEX
  8
0
 10
139.460541
 20
65.379143
  0
VERTEX
  8
0
 10
139.617340
 20
64.775543
  0
VERTEX
  8
0
 10
139.816879
 20
64.136642
  0
VERTEX
  8
0
 10
140.055161
 20
63.463203
  0
VERTEX
  8
0
 10
140.328201
 20
62.755936
  0
VERTEX
  8
0
 10
140.740158
 20
61.760235
  0
VERTEX
  8
0
 10
141.350693
 20
60.367344
  0
VERTEX
  8
0
 10
145.191254
 20
51.929218
  0
VERTEX
  8
0
 10
147.435074
 20
46.870857
  0
VERTEX
  8
0
 10
148.184067
 20
45.124062
  0
VERTEX
  8
0
 10
148.836716
 20
43.552341
  0
VERTEX
  8
0
 10
149.398987
 20
42.141327
  0
VERTEX
  8
0
 10
150.032181
 20
40.456326
  0
VERTEX
  8
0
 10
150.438049
 20
39.299374
  0
VERTEX
  8
0
 10
150.913589
 20
37.839844
  0
VERTEX
  8
0
 10
151.238037
 20
36.767891
  0
VERTEX
  8
0
 10
151.533203
 20
35.690079
  0
VERTEX
  8
0
 10
151.786011
 20
34.590157
  0
VERTEX
  8
0
 10
151.924530
 20
33.836407
  0
VERTEX
  8
0
 10
152.034378
 20
33.060860
  0
VERTEX
  8
0
 10
152.111710
 20
32.258514
  0
VERTEX
  8
0
 10
152.152649
 20
31.424608
  0
VERTEX
  8
0
 10
152.158279
 20
30.994375
  0
VERTEX
  8
0
 10
152.137268
 20
30.104218
  0
VERTEX
  8
0
 10
152.073044
 20
29.173985
  0
VERTEX
  8
0
 10
151.967728
 20
28.205780
  0
VERTEX
  8
0
 10
151.823196
 20
27.201639
  0
VERTEX
  8
0
 10
151.537415
 20
25.632734
  0
VERTEX
  8
0
 10
151.303986
 20
24.548124
  0
VERTEX
  8
0
 10
150.894287
 20
22.868359
  0
VERTEX
  8
0
 10
150.248276
 20
20.541407
  0
VERTEX
  8
0
 10
149.510941
 20
18.144297
  0
VERTEX
  8
0
 10
148.722183
 20
15.735469
  0
VERTEX
  8
0
 10
146.297256
 20
8.549922
  0
VERTEX
  8
0
 10
145.396561
 20
5.750000
  0
VERTEX
  8
0
 10
144.315231
 20
2.284609
  0
VERTEX
  8
0
 10
144.315231
 20
2.284609
  0
SEQEND
  8
0
  0
POLYLINE
  8
0
  0
VERTEX
  8
0
 10
149.323044
 20
63.333828
  0
VERTEX
  8
0
 10
160.166245
 20
67.472656
  0
SEQEND
  8
0
  0
POLYLINE
  8
0
  0
VERTEX
  8
0
 10
150.338348
 20
46.908905
  0
VERTEX
  8
0
 10
154.608047
 20
48.721485
  0
SEQEND
  8
0
  0
POLYLINE
  8
0
  0
VERTEX
  8
0
 10
171.373749
 20
57.746483
  0
VERTEX
  8
0
 10
175.940384
 20
59.976563
  0
SEQEND
  8
0
  0
POLYLINE
  8
0
  0
VERTEX
  8
0
 10
280.480377
 20
43.351093
  0
VERTEX
  8
0
 10
266.391876
 20
37.914921
  0
VERTEX
  8
0
 10
249.761642
 20
31.523438
  0
VERTEX
  8
0
 10
239.820313
 20
27.668749
  0
VERTEX
  8
0
 10
233.316711
 20
25.120312
  0
VERTEX
  8
0
 10
226.294052
 20
22.342733
  0
VERTEX
  8
0
 10
220.882568
 20
20.180624
  0
VERTEX
  8
0
 10
215.504837
 20
18.008671
  0
VERTEX
  8
0
 10
210.302963
 20
15.878750
  0
VERTEX
  8
0
 10
207.002731
 20
14.507813
  0
VERTEX
  8
0
 10
203.884521
 20
13.193516
  0
VERTEX
  8
0
 10
199.559845
 20
11.333984
  0
VERTEX
  8
0
 10
195.592575
 20
9.587891
  0
VERTEX
  8
0
 10
191.906403
 20
7.930937
  0
VERTEX
  8
0
 10
188.424454
 20
6.338750
  0
VERTEX
  8
0
 10
182.867188
 20
3.763281
  0
SEQEND
  8
0
  0
POLYLINE
  8
0
  0
VERTEX
  8
0
 10
228.747421
 20
14.774921
  0
VERTEX
  8
0
 10
226.538040
 20
10.373515
  0
VERTEX
  8
0
 10
233.742111
 20
10.637813
  0
VERTEX
  8
0
 10
228.883667
 20
15.335625
  0
SEQEND
  8
0
  0
POLYLINE
  8
0
  0
VERTEX
  8
0
 10
151.315384
 20
63.508125
  0
VERTEX
  8
0
 10
151.164063
 20
64.115234
  0
VERTEX
  8
0
 10
150.832489
 20
64.645935
  0
VERTEX
  8
0
 10
150.353119
 20
65.048042
  0
VERTEX
  8
0
 10
149.772964
 20
65.282578
  0
VERTEX
  8
0
 10
149.148743
 20
65.326172
  0
VERTEX
  8
0
 10
148.541565
 20
65.174843
  0
VERTEX
  8
0
 10
148.010941
 20
64.843201
  0
VERTEX
  8
0
 10
147.608673
 20
64.363907
  0
VERTEX
  8
0
 10
147.374298
 20
63.783672
  0
VERTEX
  8
0
 10
147.330627
 20
63.159531
  0
VERTEX
  8
0
 10
147.482025
 20
62.552341
  0
VERTEX
  8
0
 10
147.813583
 20
62.021641
  0
VERTEX
  8
0
 10
148.292969
 20
61.619453
  0
VERTEX
  8
0
 10
148.873123
 20
61.385078
  0
VERTEX
  8
0
 10
149.497345
 20
61.341404
  0
VERTEX
  8
0
 10
150.104523
 20
61.492809
  0
VERTEX
  8
0
 10
150.635147
 20
61.824375
  0
VERTEX
  8
0
 10
151.037415
 20
62.303669
  0
VERTEX
  8
0
 10
151.271790
 20
62.883904
  0
VERTEX
  8
0
 10
151.315384
 20
63.508125
  0
SEQEND
  8
0
  0
POLYLINE
  8
0
  0
VERTEX
  8
0
 10
162.158585
 20
67.646950
  0
VERTEX
  8
0
 10
162.007263
 20
68.254143
  0
VERTEX
  8
0
 10
161.675705
 20
68.784767
  0
VERTEX
  8
0
 10
161.196243
 20
69.187027
  0
VERTEX
  8
0
 10
160.616165
 20
69.421402
  0
VERTEX
  8
0
 10
159.991943
 20
69.465080
  0
VERTEX
  8
0
 10
159.384766
 20
69.313667
  0
VERTEX
  8
0
 10
158.854141
 20
68.982109
  0
VERTEX
  8
0
 10
158.451874
 20
68.502731
  0
VERTEX
  8
0
 10
158.217499
 20
67.922577
  0
VERTEX
  8
0
 10
158.173828
 20
67.298355
  0
VERTEX
  8
0
 10
158.325226
 20
66.691170
  0
VERTEX
  8
0
 10
158.656799
 20
66.160545
  0
VERTEX
  8
0
 10
159.136169
 20
65.758278
  0
VERTEX
  8
0
 10
159.716324
 20
65.523903
  0
VERTEX
  8
0
 10
160.340546
 20
65.480232
  0
VERTEX
  8
0
 10
160.947723
 20
65.631638
  0
VERTEX
  8
0
 10
161.478363
 20
65.963203
  0
VERTEX
  8
0
 10
161.880539
 20
66.442574
  0
VERTEX
  8
0
 10
162.114990
 20
67.022736
  0
VERTEX
  8
0
 10
162.158585
 20
67.646950
  0
SEQEND
  8
0
  0
POLYLINE
  8
0
  0
VERTEX
  8
0
 10
151.334534
 20
46.996014
  0
VERTEX
  8
0
 10
151.225388
 20
47.370625
  0
VERTEX
  8
0
 10
150.981171
 20
47.674919
  0
VERTEX
  8
0
 10
150.639053
 20
47.862576
  0
VERTEX
  8
0
 10
150.251175
 20
47.905079
  0
VERTEX
  8
0
 10
149.876633
 20
47.795937
  0
VERTEX
  8
0
 10
149.572342
 20
47.551640
  0
VERTEX
  8
0
 10
149.384613
 20
47.209530
  0
VERTEX
  8
0
 10
149.342178
 20
46.821716
  0
VERTEX
  8
0
 10
149.451324
 20
46.447109
  0
VERTEX
  8
0
 10
149.695541
 20
46.142811
  0
VERTEX
  8
0
 10
150.037659
 20
45.955154
  0
VERTEX
  8
0
 10
150.425537
 20
45.912655
  0
VERTEX
  8
0
 10
150.800079
 20
46.021797
  0
VERTEX
  8
0
 10
151.104370
 20
46.266094
  0
VERTEX
  8
0
 10
151.292099
 20
46.608204
  0
VERTEX
  8
0
 10
151.334534
 20
46.996014
  0
SEQEND
  8
0
  0
POLYLINE
  8
0
  0
VERTEX
  8
0
 10
155.604218
 20
48.808670
  0
VERTEX
  8
0
 10
155.495071
 20
49.183201
  0
VERTEX
  8
0
 10
155.250854
 20
49.487499
  0
VERTEX
  8
0
 10
154.908661
 20
49.675232
  0
VERTEX
  8
0
 10
154.520859
 20
49.717655
  0
VERTEX
  8
0
 10
154.146332
 20
49.608513
  0
VERTEX
  8
0
 10
153.841949
 20
49.364296
  0
VERTEX
  8
0
 10
153.654297
 20
49.022186
  0
VERTEX
  8
0
 10
153.611786
 20
48.634296
  0
VERTEX
  8
0
 10
153.721008
 20
48.259766
  0
VERTEX
  8
0
 10
153.965225
 20
47.955467
  0
VERTEX
  8
0
 10
154.307343
 20
47.767735
  0
VERTEX
  8
0
 10
154.695160
 20
47.725311
  0
VERTEX
  8
0
 10
155.069763
 20
47.834454
  0
VERTEX
  8
0
 10
155.374054
 20
48.078671
  0
VERTEX
  8
0
 10
155.561798
 20
48.420780
  0
VERTEX
  8
0
 10
155.604218
 20
48.808670
  0
SEQEND
  8
0
  0
POLYLINE
  8
0
  0
VERTEX
  8
0
 10
172.369919
 20
57.833672
  0
VERTEX
  8
0
 10
172.260773
 20
58.208202
  0
VERTEX
  8
0
 10
172.016556
 20
58.512577
  0
VERTEX
  8
0
 10
171.674530
 20
58.700153
  0
VERTEX
  8
0
 10
171.286636
 20
58.742733
  0
VERTEX
  8
0
 10
170.912033
 20
58.633434
  0
VERTEX
  8
0
 10
170.607727
 20
58.389294
  0
VERTEX
  8
0
 10
170.420074
 20
58.047188
  0
VERTEX
  8
0
 10
170.377579
 20
57.659374
  0
VERTEX
  8
0
 10
170.486786
 20
57.284687
  0
VERTEX
  8
0
 10
170.730927
 20
56.980469
  0
VERTEX
  8
0
 10
171.073044
 20
56.792732
  0
VERTEX
  8
0
 10
171.460938
 20
56.750313
  0
VERTEX
  8
0
 10
171.835541
 20
56.859451
  0
VERTEX
  8
0
 10
172.139847
 20
57.103748
  0
VERTEX
  8
0
 10
172.327499
 20
57.445782
  0
VERTEX
  8
0
 10
172.369919
 20
57.833672
  0
SEQEND
  8
0
  0
POLYLINE
  8
0
  0
VERTEX
  8
0
 10
176.936554
 20
60.063747
  0
VERTEX
  8
0
 10
176.827423
 20
60.438358
  0
VERTEX
  8
0
 10
176.583115
 20
60.742657
  0
VERTEX
  8
0
 10
176.241089
 20
60.930309
  0
VERTEX
  8
0
 10
175.853195
 20
60.972813
  0
VERTEX
  8
0
 10
175.478668
 20
60.863670
  0
VERTEX
  8
0
 10
175.174286
 20
60.619373
  0
VERTEX
  8
0
 10
174.986710
 20
60.277264
  0
VERTEX
  8
0
 10
174.944138
 20
59.889450
  0
VERTEX
  8
0
 10
175.053436
 20
59.514843
  0
VERTEX
  8
0
 10
175.297577
 20
59.210545
  0
VERTEX
  8
0
 10
175.639679
 20
59.022888
  0
VERTEX
  8
0
 10
176.027496
 20
58.980389
  0
VERTEX
  8
0
 10
176.402191
 20
59.089531
  0
VERTEX
  8
0
 10
176.706406
 20
59.333828
  0
VERTEX
  8
0
 10
176.894135
 20
59.675938
  0
VERTEX
  8
0
 10
176.936554
 20
60.063747
  0
SEQEND
  8
0
  0
POLYLINE
  8
0
  0
VERTEX
  8
0
 10
108.574844
 20
801.666626
  0
VERTEX
  8
0
 10
108.888588
 20
794.324219
  0
VERTEX
  8
0
 10
109.087967
 20
788.501526
  0
VERTEX
  8
0
 10
109.168358
 20
784.267822
  0
VERTEX
  8
0
 10
109.173203
 20
782.341003
  0
VERTEX
  8
0
 10
109.150078
 20
780.563965
  0
VERTEX
  8
0
 10
109.098045
 20
778.940674
  0
VERTEX
  8
0
 10
109.018204
 20
777.462585
  0
VERTEX
  8
0
 10
108.911636
 20
776.119934
  0
VERTEX
  8
0
 10
108.779762
 20
774.903503
  0
VERTEX
  8
0
 10
108.623672
 20
773.803894
  0
VERTEX
  8
0
 10
108.444527
 20
772.811646
  0
VERTEX
  8
0
 10
108.243591
 20
771.917419
  0
VERTEX
  8
0
 10
108.022110
 20
771.111694
  0
VERTEX
  8
0
 10
107.904060
 20
770.739136
  0
VERTEX
  8
0
 10
107.653511
 20
770.048706
  0
VERTEX
  8
0
 10
107.382500
 20
769.424194
  0
VERTEX
  8
0
 10
107.089294
 20
768.856750
  0
VERTEX
  8
0
 10
106.933907
 20
768.591858
  0
VERTEX
  8
0
 10
106.604370
 20
768.094055
  0
VERTEX
  8
0
 10
106.248436
 20
767.631775
  0
VERTEX
  8
0
 10
105.864449
 20
767.196472
  0
VERTEX
  8
0
 10
105.450775
 20
766.779541
  0
VERTEX
  8
0
 10
105.005623
 20
766.372253
  0
VERTEX
  8
0
 10
104.018669
 20
765.557495
  0
VERTEX
  8
0
 10
102.650703
 20
764.529419
  0
VERTEX
  8
0
 10
99.558983
 20
762.295593
  0
VERTEX
  8
0
 10
98.788589
 20
761.695557
  0
VERTEX
  8
0
 10
98.063515
 20
761.066772
  0
VERTEX
  8
0
 10
97.383202
 20
760.379578
  0
VERTEX
  8
0
 10
96.954292
 20
759.874207
  0
VERTEX
  8
0
 10
96.747185
 20
759.604065
  0
VERTEX
  8
0
 10
96.347496
 20
759.023254
  0
VERTEX
  8
0
 10
96.154922
 20
758.710449
  0
VERTEX
  8
0
 10
95.784142
 20
758.034363
  0
VERTEX
  8
0
 10
95.605858
 20
757.669128
  0
VERTEX
  8
0
 10
95.262421
 20
756.884644
  0
VERTEX
  8
0
 10
94.775856
 20
755.579590
  0
VERTEX
  8
0
 10
94.316795
 20
754.131470
  0
VERTEX
  8
0
 10
93.877342
 20
752.552734
  0
VERTEX
  8
0
 10
93.591560
 20
751.433716
  0
VERTEX
  8
0
 10
93.167809
 20
749.664734
  0
VERTEX
  8
0
 10
91.548515
 20
742.457886
  0
VERTEX
  8
0
 10
90.707108
 20
738.953003
  0
VERTEX
  8
0
 10
90.149376
 20
736.825684
  0
VERTEX
  8
0
 10
89.751015
 20
735.406128
  0
VERTEX
  8
0
 10
89.329376
 20
733.986389
  0
VERTEX
  8
0
 10
88.883125
 20
732.565918
  0
VERTEX
  8
0
 10
88.164375
 20
730.432434
  0
VERTEX
  8
0
 10
87.650230
 20
729.007385
  0
VERTEX
  8
0
 10
86.822891
 20
726.864380
  0
VERTEX
  8
0
 10
86.231796
 20
725.431091
  0
VERTEX
  8
0
 10
85.282501
 20
723.273132
  0
VERTEX
  8
0
 10
84.608124
 20
721.833191
  0
VERTEX
  8
0
 10
83.904060
 20
720.401855
  0
VERTEX
  8
0
 10
83.173592
 20
718.988159
  0
VERTEX
  8
0
 10
82.420074
 20
717.601379
  0
VERTEX
  8
0
 10
81.646797
 20
716.250305
  0
VERTEX
  8
0
 10
80.457184
 20
714.310608
  0
VERTEX
  8
0
 10
79.649216
 20
713.088562
  0
VERTEX
  8
0
 10
78.833199
 20
711.934021
  0
VERTEX
  8
0
 10
78.423042
 20
711.384583
  0
VERTEX
  8
0
 10
77.599136
 20
710.341248
  0
VERTEX
  8
0
 10
77.185234
 20
709.846313
  0
VERTEX
  8
0
 10
76.353127
 20
708.907715
  0
VERTEX
  8
0
 10
75.515152
 20
708.034119
  0
VERTEX
  8
0
 10
74.670860
 20
707.221863
  0
VERTEX
  8
0
 10
73.819839
 20
706.466919
  0
VERTEX
  8
0
 10
72.961639
 20
705.765625
  0
VERTEX
  8
0
 10
72.096016
 20
705.114136
  0
VERTEX
  8
0
 10
71.222420
 20
704.508606
  0
VERTEX
  8
0
 10
70.339844
 20
703.945618
  0
VERTEX
  8
0
 10
69.444138
 20
703.423706
  0
VERTEX
  8
0
 10
68.530624
 20
702.941772
  0
VERTEX
  8
0
 10
67.594604
 20
702.498657
  0
VERTEX
  8
0
 10
66.631172
 20
702.093262
  0
VERTEX
  8
0
 10
65.635620
 20
701.724609
  0
VERTEX
  8
0
 10
64.603279
 20
701.391418
  0
VERTEX
  8
0
 10
64.071793
 20
701.237732
  0
VERTEX
  8
0
 10
62.975155
 20
700.955750
  0
VERTEX
  8
0
 10
61.830154
 20
700.706604
  0
VERTEX
  8
0
 10
60.639530
 20
700.490601
  0
VERTEX
  8
0
 10
59.413437
 20
700.309265
  0
VERTEX
  8
0
 10
58.162342
 20
700.164368
  0
VERTEX
  8
0
 10
56.896641
 20
700.057434
  0
VERTEX
  8
0
 10
55.626797
 20
699.990051
  0
VERTEX
  8
0
 10
54.363201
 20
699.964050
  0
VERTEX
  8
0
 10
53.116325
 20
699.981018
  0
VERTEX
  8
0
 10
51.896641
 20
700.042542
  0
VERTEX
  8
0
 10
51.300232
 20
700.090637
  0
VERTEX
  8
0
 10
50.138592
 20
700.221558
  0
VERTEX
  8
0
 10
49.016716
 20
700.397339
  0
VERTEX
  8
0
 10
47.931328
 20
700.615601
  0
VERTEX
  8
0
 10
46.879532
 20
700.874207
  0
VERTEX
  8
0
 10
45.858124
 20
701.170776
  0
VERTEX
  8
0
 10
44.863983
 20
701.503113
  0
VERTEX
  8
0
 10
43.893982
 20
701.868958
  0
VERTEX
  8
0
 10
42.945076
 20
702.266052
  0
VERTEX
  8
0
 10
41.554375
 20
702.915466
  0
VERTEX
  8
0
 10
40.192577
 20
703.635742
  0
VERTEX
  8
0
 10
39.294296
 20
704.167847
  0
VERTEX
  8
0
 10
38.399139
 20
704.750854
  0
VERTEX
  8
0
 10
37.503201
 20
705.392944
  0
VERTEX
  8
0
 10
36.602577
 20
706.102112
  0
VERTEX
  8
0
 10
35.693279
 20
706.886475
  0
VERTEX
  8
0
 10
34.771484
 20
707.754211
  0
VERTEX
  8
0
 10
34.304607
 20
708.221802
  0
VERTEX
  8
0
 10
33.833126
 20
708.713196
  0
VERTEX
  8
0
 10
32.876404
 20
709.768738
  0
VERTEX
  8
0
 10
31.906717
 20
710.913757
  0
VERTEX
  8
0
 10
30.931641
 20
712.138245
  0
VERTEX
  8
0
 10
29.958593
 20
713.432434
  0
VERTEX
  8
0
 10
28.994999
 20
714.786133
  0
VERTEX
  8
0
 10
28.048437
 20
716.189575
  0
VERTEX
  8
0
 10
27.583828
 20
716.906799
  0
VERTEX
  8
0
 10
26.676718
 20
718.366089
  0
VERTEX
  8
0
 10
25.805233
 20
719.850037
  0
VERTEX
  8
0
 10
25.385233
 20
720.598267
  0
VERTEX
  8
0
 10
24.579453
 20
722.102112
  0
VERTEX
  8
0
 10
24.193359
 20
722.856934
  0
VERTEX
  8
0
 10
23.452734
 20
724.371399
  0
VERTEX
  8
0
 10
22.415859
 20
726.650208
  0
VERTEX
  8
0
 10
21.459686
 20
728.931152
  0
VERTEX
  8
0
 10
20.574764
 20
731.206726
  0
VERTEX
  8
0
 10
19.751953
 20
733.469299
  0
VERTEX
  8
0
 10
18.735546
 20
736.451965
  0
VERTEX
  8
0
 10
17.793983
 20
739.370667
  0
VERTEX
  8
0
 10
15.856250
 20
745.546204
  0
VERTEX
  8
0
 10
15.239141
 20
747.438354
  0
VERTEX
  8
0
 10
14.628281
 20
749.228210
  0
VERTEX
  8
0
 10
14.027344
 20
750.908997
  0
VERTEX
  8
0
 10
13.248750
 20
752.969177
  0
VERTEX
  8
0
 10
12.505234
 20
754.808960
  0
VERTEX
  8
0
 10
11.806484
 20
756.413025
  0
VERTEX
  8
0
 10
11.148984
 20
757.787964
  0
VERTEX
  8
0
 10
10.664844
 20
758.697937
  0
VERTEX
  8
0
 10
10.172891
 20
759.529175
  0
VERTEX
  8
0
 10
9.833672
 20
760.050842
  0
VERTEX
  8
0
 10
9.480703
 20
760.554138
  0
VERTEX
  8
0
 10
8.916172
 20
761.289673
  0
VERTEX
  8
0
 10
8.302265
 20
762.018799
  0
VERTEX
  8
0
 10
6.301015
 20
764.232849
  0
VERTEX
  8
0
 10
5.420312
 20
765.253357
  0
VERTEX
  8
0
 10
4.797891
 20
766.043274
  0
VERTEX
  8
0
 10
4.220390
 20
766.864502
  0
VERTEX
  8
0
 10
3.861094
 20
767.438354
  0
VERTEX
  8
0
 10
3.522422
 20
768.039673
  0
VERTEX
  8
0
 10
3.053516
 20
769.005371
  0
VERTEX
  8
0
 10
2.631719
 20
770.064148
  0
VERTEX
  8
0
 10
2.257500
 20
771.234497
  0
VERTEX
  8
0
 10
2.034688
 20
772.085938
  0
VERTEX
  8
0
 10
1.740703
 20
773.472107
  0
VERTEX
  8
0
 10
1.571641
 20
774.463745
  0
VERTEX
  8
0
 10
1.358672
 20
776.043518
  0
VERTEX
  8
0
 10
1.243984
 20
777.152954
  0
VERTEX
  8
0
 10
1.113047
 20
778.892273
  0
VERTEX
  8
0
 10
1.031797
 20
780.710815
  0
VERTEX
  8
0
 10
1.000000
 20
782.595703
  0
VERTEX
  8
0
 10
1.012969
 20
784.523315
  0
VERTEX
  8
0
 10
1.062734
 20
786.463989
  0
VERTEX
  8
0
 10
1.141328
 20
788.387695
  0
VERTEX
  8
0
 10
1.241016
 20
790.264587
  0
VERTEX
  8
0
 10
1.392656
 20
792.642273
  0
VERTEX
  8
0
 10
1.592031
 20
795.352173
  0
VERTEX
  8
0
 10
1.837500
 20
798.302734
  0
VERTEX
  8
0
 10
2.124922
 20
801.486450
  0
VERTEX
  8
0
 10
11.199609
 20
799.364502
  0
VERTEX
  8
0
 10
22.942108
 20
796.618713
  0
VERTEX
  8
0
 10
32.336170
 20
794.422119
  0
VERTEX
  8
0
 10
44.078751
 20
791.676331
  0
VERTEX
  8
0
 10
43.716248
 20
790.532410
  0
VERTEX
  8
0
 10
43.473125
 20
789.657959
  0
VERTEX
  8
0
 10
43.268826
 20
788.804810
  0
VERTEX
  8
0
 10
42.831718
 20
786.812378
  0
VERTEX
  8
0
 10
42.578983
 20
785.784729
  0
VERTEX
  8
0
 10
42.290859
 20
784.808655
  0
VERTEX
  8
0
 10
42.032578
 20
784.081909
  0
VERTEX
  8
0
 10
41.822578
 20
783.572083
  0
VERTEX
  8
0
 10
41.598515
 20
783.095032
  0
VERTEX
  8
0
 10
41.360466
 20
782.653259
  0
VERTEX
  8
0
 10
41.108593
 20
782.248840
  0
VERTEX
  8
0
 10
40.847107
 20
781.882141
  0
VERTEX
  8
0
 10
40.495079
 20
781.450684
  0
VERTEX
  8
0
 10
40.153984
 20
781.083130
  0
VERTEX
  8
0
 10
39.839764
 20
780.777588
  0
VERTEX
  8
0
 10
39.565392
 20
780.531311
  0
VERTEX
  8
0
 10
39.317032
 20
780.333862
  0
VERTEX
  8
0
 10
39.067108
 20
780.170898
  0
VERTEX
  8
0
 10
38.788048
 20
780.027893
  0
VERTEX
  8
0
 10
38.356640
 20
779.855713
  0
VERTEX
  8
0
 10
37.933357
 20
779.716125
  0
VERTEX
  8
0
 10
37.327499
 20
779.548157
  0
VERTEX
  8
0
 10
36.799297
 20
779.426575
  0
VERTEX
  8
0
 10
35.967735
 20
779.279297
  0
VERTEX
  8
0
 10
34.963047
 20
779.162476
  0
VERTEX
  8
0
 10
34.074375
 20
779.095581
  0
VERTEX
  8
0
 10
31.907656
 20
778.971130
  0
VERTEX
  8
0
 10
30.779999
 20
778.860840
  0
VERTEX
  8
0
 10
30.132421
 20
778.765869
  0
VERTEX
  8
0
 10
29.662109
 20
778.676880
  0
VERTEX
  8
0
 10
29.077578
 20
778.532959
  0
VERTEX
  8
0
 10
28.686171
 20
778.404907
  0
VERTEX
  8
0
 10
28.347891
 20
778.258484
  0
VERTEX
  8
0
 10
28.156717
 20
778.150452
  0
VERTEX
  8
0
 10
27.992655
 20
778.034424
  0
VERTEX
  8
0
 10
27.793436
 20
777.846802
  0
VERTEX
  8
0
 10
27.689375
 20
777.713318
  0
VERTEX
  8
0
 10
27.606249
 20
777.573975
  0
VERTEX
  8
0
 10
27.495937
 20
777.279602
  0
VERTEX
  8
0
 10
27.465233
 20
777.125793
  0
VERTEX
  8
0
 10
27.445234
 20
776.888184
  0
VERTEX
  8
0
 10
27.463358
 20
776.561157
  0
VERTEX
  8
0
 10
27.554688
 20
776.140625
  0
VERTEX
  8
0
 10
27.679688
 20
775.798828
  0
VERTEX
  8
0
 10
27.848358
 20
775.455688
  0
VERTEX
  8
0
 10
28.061953
 20
775.113647
  0
VERTEX
  8
0
 10
28.256483
 20
774.857544
  0
VERTEX
  8
0
 10
28.568905
 20
774.516602
  0
VERTEX
  8
0
 10
28.847891
 20
774.260986
  0
VERTEX
  8
0
 10
29.169374
 20
774.005371
  0
VERTEX
  8
0
 10
29.535545
 20
773.749756
  0
VERTEX
  8
0
 10
29.941717
 20
773.495667
  0
VERTEX
  8
0
 10
30.534922
 20
773.162170
  0
VERTEX
  8
0
 10
31.173515
 20
772.838684
  0
VERTEX
  8
0
 10
31.842733
 20
772.529053
  0
VERTEX
  8
0
 10
32.537422
 20
772.236145
  0
VERTEX
  8
0
 10
33.094608
 20
772.025696
  0
VERTEX
  8
0
 10
33.702732
 20
771.820740
  0
VERTEX
  8
0
 10
34.380001
 20
771.619507
  0
VERTEX
  8
0
 10
35.144295
 20
771.419983
  0
VERTEX
  8
0
 10
36.013672
 20
771.220276
  0
VERTEX
  8
0
 10
37.702732
 20
770.889771
  0
VERTEX
  8
0
 10
39.638279
 20
770.578186
  0
VERTEX
  8
0
 10
41.754375
 20
770.305054
  0
VERTEX
  8
0
 10
43.990391
 20
770.089111
  0
VERTEX
  8
0
 10
45.873516
 20
769.962708
  0
VERTEX
  8
0
 10
48.407890
 20
769.861328
  0
VERTEX
  8
0
 10
50.627499
 20
769.824219
  0
VERTEX
  8
0
 10
53.057419
 20
769.825378
  0
VERTEX
  8
0
 10
55.663670
 20
769.867065
  0
VERTEX
  8
0
 10
58.342186
 20
769.954834
  0
VERTEX
  8
0
 10
60.986015
 20
770.094116
  0
VERTEX
  8
0
 10
63.488201
 20
770.290771
  0
VERTEX
  8
0
 10
65.216484
 20
770.477417
  0
VERTEX
  8
0
 10
66.813828
 20
770.691223
  0
VERTEX
  8
0
 10
68.755547
 20
771.004578
  0
VERTEX
  8
0
 10
71.308357
 20
771.496155
  0
VERTEX
  8
0
 10
74.759140
 20
772.238953
  0
VERTEX
  8
0
 10
77.093674
 20
772.791077
  0
VERTEX
  8
0
 10
78.098671
 20
773.056641
  0
VERTEX
  8
0
 10
78.782890
 20
773.260925
  0
VERTEX
  8
0
 10
79.391716
 20
773.471985
  0
VERTEX
  8
0
 10
79.953827
 20
773.702881
  0
VERTEX
  8
0
 10
80.496719
 20
773.965942
  0
VERTEX
  8
0
 10
81.023361
 20
774.260193
  0
VERTEX
  8
0
 10
81.512032
 20
774.571716
  0
VERTEX
  8
0
 10
81.939995
 20
774.885681
  0
VERTEX
  8
0
 10
82.284294
 20
775.187744
  0
VERTEX
  8
0
 10
82.528908
 20
775.467407
  0
VERTEX
  8
0
 10
82.652809
 20
775.666626
  0
VERTEX
  8
0
 10
82.733749
 20
775.862244
  0
VERTEX
  8
0
 10
82.778908
 20
776.059204
  0
VERTEX
  8
0
 10
82.795547
 20
776.262390
  0
VERTEX
  8
0
 10
82.785545
 20
776.551025
  0
VERTEX
  8
0
 10
82.747032
 20
776.857422
  0
VERTEX
  8
0
 10
82.682495
 20
777.167969
  0
VERTEX
  8
0
 10
82.594292
 20
777.468201
  0
VERTEX
  8
0
 10
82.484528
 20
777.743713
  0
VERTEX
  8
0
 10
82.388985
 20
777.926941
  0
VERTEX
  8
0
 10
82.281013
 20
778.090637
  0
VERTEX
  8
0
 10
82.159142
 20
778.237244
  0
VERTEX
  8
0
 10
82.021561
 20
778.369263
  0
VERTEX
  8
0
 10
81.866951
 20
778.489197
  0
VERTEX
  8
0
 10
81.631248
 20
778.634460
  0
VERTEX
  8
0
 10
81.427109
 20
778.734375
  0
VERTEX
  8
0
 10
81.100311
 20
778.853882
  0
VERTEX
  8
0
 10
80.801010
 20
778.931885
  0
VERTEX
  8
0
 10
80.443901
 20
778.998657
  0
VERTEX
  8
0
 10
80.018669
 20
779.053040
  0
VERTEX
  8
0
 10
79.137733
 20
779.116211
  0
VERTEX
  8
0
 10
76.808983
 20
779.222717
  0
VERTEX
  8
0
 10
75.428513
 20
779.321594
  0
VERTEX
  8
0
 10
74.557266
 20
779.409363
  0
VERTEX
  8
0
 10
73.681404
 20
779.519104
  0
VERTEX
  8
0
 10
72.279922
 20
779.750366
  0
VERTEX
  8
0
 10
71.515076
 20
779.917786
  0
VERTEX
  8
0
 10
71.052345
 20
780.041138
  0
VERTEX
  8
0
 10
70.635933
 20
780.173889
  0
VERTEX
  8
0
 10
70.267029
 20
780.315369
  0
VERTEX
  8
0
 10
69.941170
 20
780.464905
  0
VERTEX
  8
0
 10
69.522339
 20
780.701965
  0
VERTEX
  8
0
 10
69.173126
 20
780.951599
  0
VERTEX
  8
0
 10
68.877029
 20
781.210815
  0
VERTEX
  8
0
 10
68.536949
 20
781.566162
  0
VERTEX
  8
0
 10
68.229294
 20
781.931946
  0
VERTEX
  8
0
 10
67.942421
 20
782.332581
  0
VERTEX
  8
0
 10
67.737030
 20
782.674377
  0
VERTEX
  8
0
 10
67.471405
 20
783.209778
  0
VERTEX
  8
0
 10
67.274841
 20
783.687805
  0
VERTEX
  8
0
 10
67.078903
 20
784.240845
  0
VERTEX
  8
0
 10
66.887032
 20
784.857117
  0
VERTEX
  8
0
 10
66.645622
 20
785.748291
  0
VERTEX
  8
0
 10
66.481407
 20
786.447083
  0
VERTEX
  8
0
 10
66.293983
 20
787.387573
  0
VERTEX
  8
0
 10
66.182579
 20
788.078979
  0
VERTEX
  8
0
 10
66.095543
 20
788.752258
  0
VERTEX
  8
0
 10
66.009605
 20
789.627808
  0
VERTEX
  8
0
 10
65.889214
 20
791.543884
  0
VERTEX
  8
0
 10
78.246017
 20
794.486450
  0
VERTEX
  8
0
 10
97.230232
 20
799.086304
  0
VERTEX
  8
0
 10
102.924057
 20
800.407776
  0
VERTEX
  8
0
 10
108.574844
 20
801.666626
  0
SEQEND
  8
0
  0
POLYLINE
  8
0
  0
VERTEX
  8
0
 10
87.416954
 20
781.311462
  0
VERTEX
  8
0
 10
95.852730
 20
781.492859
  0
SEQEND
  8
0
  0
POLYLINE
  8
0
  0
VERTEX
  8
0
 10
12.957421
 20
781.099976
  0
VERTEX
  8
0
 10
21.578594
 20
780.978943
  0
SEQEND
  8
0
  0
POLYLINE
  8
0
  0
VERTEX
  8
0
 10
101.076248
 20
801.483276
  0
VERTEX
  8
0
 10
101.368591
 20
794.203979
  0
VERTEX
  8
0
 10
101.523514
 20
789.629578
  0
VERTEX
  8
0
 10
101.618439
 20
785.473206
  0
VERTEX
  8
0
 10
101.635933
 20
783.603943
  0
VERTEX
  8
0
 10
101.629372
 20
781.901794
  0
VERTEX
  8
0
 10
101.597031
 20
780.382141
  0
VERTEX
  8
0
 10
101.541328
 20
779.038269
  0
VERTEX
  8
0
 10
101.465858
 20
777.857727
  0
VERTEX
  8
0
 10
101.374451
 20
776.828125
  0
VERTEX
  8
0
 10
101.270546
 20
775.937073
  0
VERTEX
  8
0
 10
101.099609
 20
774.833679
  0
VERTEX
  8
0
 10
100.921249
 20
773.972534
  0
VERTEX
  8
0
 10
100.747574
 20
773.312317
  0
VERTEX
  8
0
 10
100.578354
 20
772.811340
  0
VERTEX
  8
0
 10
100.393433
 20
772.427856
  0
VERTEX
  8
0
 10
100.171326
 20
772.120850
  0
VERTEX
  8
0
 10
99.890541
 20
771.848572
  0
VERTEX
  8
0
 10
99.387344
 20
771.468201
  0
VERTEX
  8
0
 10
97.578903
 20
770.201477
  0
VERTEX
  8
0
 10
96.521561
 20
769.439575
  0
VERTEX
  8
0
 10
94.737892
 20
768.089600
  0
VERTEX
  8
0
 10
93.787575
 20
767.324341
  0
VERTEX
  8
0
 10
93.144844
 20
766.772888
  0
VERTEX
  8
0
 10
92.501793
 20
766.181335
  0
VERTEX
  8
0
 10
91.864845
 20
765.543823
  0
VERTEX
  8
0
 10
91.240074
 20
764.854126
  0
VERTEX
  8
0
 10
90.934219
 20
764.487976
  0
VERTEX
  8
0
 10
90.339294
 20
763.709045
  0
VERTEX
  8
0
 10
90.051872
 20
763.294922
  0
VERTEX
  8
0
 10
89.500854
 20
762.413208
  0
VERTEX
  8
0
 10
89.238907
 20
761.944275
  0
VERTEX
  8
0
 10
88.743980
 20
760.948669
  0
VERTEX
  8
0
 10
88.285469
 20
759.882080
  0
VERTEX
  8
0
 10
88.068672
 20
759.324768
  0
VERTEX
  8
0
 10
87.657501
 20
758.166687
  0
VERTEX
  8
0
 10
87.273277
 20
756.957703
  0
VERTEX
  8
0
 10
86.739059
 20
755.066162
  0
VERTEX
  8
0
 10
86.405548
 20
753.764771
  0
VERTEX
  8
0
 10
85.929840
 20
751.772156
  0
VERTEX
  8
0
 10
84.418282
 20
745.007813
  0
VERTEX
  8
0
 10
83.624451
 20
741.618347
  0
VERTEX
  8
0
 10
82.931328
 20
738.927246
  0
VERTEX
  8
0
 10
82.558044
 20
737.592896
  0
VERTEX
  8
0
 10
82.164764
 20
736.265930
  0
VERTEX
  8
0
 10
81.534767
 20
734.288208
  0
VERTEX
  8
0
 10
81.086563
 20
732.977112
  0
VERTEX
  8
0
 10
80.614449
 20
731.671143
  0
VERTEX
  8
0
 10
80.117264
 20
730.369568
  0
VERTEX
  8
0
 10
79.322342
 20
728.424194
  0
VERTEX
  8
0
 10
78.757889
 20
727.130859
  0
VERTEX
  8
0
 10
78.165543
 20
725.841064
  0
VERTEX
  8
0
 10
77.548439
 20
724.561951
  0
VERTEX
  8
0
 10
76.910782
 20
723.302063
  0
VERTEX
  8
0
 10
76.256638
 20
722.070007
  0
VERTEX
  8
0
 10
75.253746
 20
720.292786
  0
VERTEX
  8
0
 10
74.576714
 20
719.167847
  0
VERTEX
  8
0
 10
73.897736
 20
718.100708
  0
VERTEX
  8
0
 10
72.884605
 20
716.627319
  0
VERTEX
  8
0
 10
72.550308
 20
716.174133
  0
VERTEX
  8
0
 10
71.887421
 20
715.324646
  0
VERTEX
  8
0
 10
71.231483
 20
714.546631
  0
VERTEX
  8
0
 10
70.581169
 20
713.834900
  0
VERTEX
  8
0
 10
69.935547
 20
713.184143
  0
VERTEX
  8
0
 10
69.293594
 20
712.589172
  0
VERTEX
  8
0
 10
68.654137
 20
712.044739
  0
VERTEX
  8
0
 10
68.016251
 20
711.545593
  0
VERTEX
  8
0
 10
67.378746
 20
711.086548
  0
VERTEX
  8
0
 10
66.420311
 20
710.462219
  0
VERTEX
  8
0
 10
65.774376
 20
710.085205
  0
VERTEX
  8
0
 10
65.116798
 20
709.738098
  0
VERTEX
  8
0
 10
64.442421
 20
709.419739
  0
VERTEX
  8
0
 10
63.745937
 20
709.129028
  0
VERTEX
  8
0
 10
63.022106
 20
708.864807
  0
VERTEX
  8
0
 10
62.265781
 20
708.625977
  0
VERTEX
  8
0
 10
61.471638
 20
708.411316
  0
VERTEX
  8
0
 10
60.634609
 20
708.219666
  0
VERTEX
  8
0
 10
59.751797
 20
708.050354
  0
VERTEX
  8
0
 10
58.358749
 20
707.840698
  0
VERTEX
  8
0
 10
57.398670
 20
707.732483
  0
VERTEX
  8
0
 10
56.424919
 20
707.651306
  0
VERTEX
  8
0
 10
55.447498
 20
707.598511
  0
VERTEX
  8
0
 10
54.476170
 20
707.575684
  0
VERTEX
  8
0
 10
53.520935
 20
707.584106
  0
VERTEX
  8
0
 10
52.591640
 20
707.625366
  0
VERTEX
  8
0
 10
51.697891
 20
707.700867
  0
VERTEX
  8
0
 10
50.842968
 20
707.810242
  0
VERTEX
  8
0
 10
50.023514
 20
707.951782
  0
VERTEX
  8
0
 10
49.236248
 20
708.123596
  0
VERTEX
  8
0
 10
48.477577
 20
708.323730
  0
VERTEX
  8
0
 10
47.744061
 20
708.550476
  0
VERTEX
  8
0
 10
47.032265
 20
708.801758
  0
VERTEX
  8
0
 10
45.997578
 20
709.220825
  0
VERTEX
  8
0
 10
44.992264
 20
709.684998
  0
VERTEX
  8
0
 10
44.331951
 20
710.021606
  0
VERTEX
  8
0
 10
43.345390
 20
710.587219
  0
VERTEX
  8
0
 10
42.683594
 20
711.017151
  0
VERTEX
  8
0
 10
42.013359
 20
711.499268
  0
VERTEX
  8
0
 10
41.329998
 20
712.042236
  0
VERTEX
  8
0
 10
40.629219
 20
712.654602
  0
VERTEX
  8
0
 10
39.906326
 20
713.344727
  0
VERTEX
  8
0
 10
39.156876
 20
714.121399
  0
VERTEX
  8
0
 10
38.378357
 20
714.990234
  0
VERTEX
  8
0
 10
37.576328
 20
715.945557
  0
VERTEX
  8
0
 10
36.758358
 20
716.978821
  0
VERTEX
  8
0
 10
35.517891
 20
718.656250
  0
VERTEX
  8
0
 10
34.693123
 20
719.847168
  0
VERTEX
  8
0
 10
33.878750
 20
721.086304
  0
VERTEX
  8
0
 10
32.693516
 20
723.016541
  0
VERTEX
  8
0
 10
31.938437
 20
724.338806
  0
VERTEX
  8
0
 10
31.574141
 20
725.007385
  0
VERTEX
  8
0
 10
30.872030
 20
726.357666
  0
VERTEX
  8
0
 10
30.203671
 20
727.723572
  0
VERTEX
  8
0
 10
29.566717
 20
729.103516
  0
VERTEX
  8
0
 10
28.665546
 20
731.195862
  0
VERTEX
  8
0
 10
27.822811
 20
733.309753
  0
VERTEX
  8
0
 10
27.031172
 20
735.439453
  0
VERTEX
  8
0
 10
26.283203
 20
737.578979
  0
VERTEX
  8
0
 10
25.571640
 20
739.719604
  0
VERTEX
  8
0
 10
22.945704
 20
748.028503
  0
VERTEX
  8
0
 10
22.308594
 20
749.975281
  0
VERTEX
  8
0
 10
21.668749
 20
751.845215
  0
VERTEX
  8
0
 10
21.028437
 20
753.630371
  0
VERTEX
  8
0
 10
20.178905
 20
755.865356
  0
VERTEX
  8
0
 10
19.340078
 20
757.917725
  0
VERTEX
  8
0
 10
18.722031
 20
759.326233
  0
VERTEX
  8
0
 10
18.115078
 20
760.617493
  0
VERTEX
  8
0
 10
17.514374
 20
761.800354
  0
VERTEX
  8
0
 10
16.913515
 20
762.887146
  0
VERTEX
  8
0
 10
16.509766
 20
763.564453
  0
VERTEX
  8
0
 10
16.101250
 20
764.208191
  0
VERTEX
  8
0
 10
15.686093
 20
764.821960
  0
VERTEX
  8
0
 10
15.262422
 20
765.409424
  0
VERTEX
  8
0
 10
14.385937
 20
766.518372
  0
VERTEX
  8
0
 10
13.494922
 20
767.545532
  0
VERTEX
  8
0
 10
11.472187
 20
769.771606
  0
VERTEX
  8
0
 10
10.991796
 20
770.349609
  0
VERTEX
  8
0
 10
10.711640
 20
770.721924
  0
VERTEX
  8
0
 10
10.343906
 20
771.284302
  0
VERTEX
  8
0
 10
10.029765
 20
771.879028
  0
VERTEX
  8
0
 10
9.758750
 20
772.537903
  0
VERTEX
  8
0
 10
9.520312
 20
773.292297
  0
VERTEX
  8
0
 10
9.303985
 20
774.173645
  0
VERTEX
  8
0
 10
9.105156
 20
775.198669
  0
VERTEX
  8
0
 10
8.927813
 20
776.361145
  0
VERTEX
  8
0
 10
8.776953
 20
777.653503
  0
VERTEX
  8
0
 10
8.657422
 20
779.067627
  0
VERTEX
  8
0
 10
8.574062
 20
780.595764
  0
VERTEX
  8
0
 10
8.541094
 20
781.673889
  0
VERTEX
  8
0
 10
8.527109
 20
783.370117
  0
VERTEX
  8
0
 10
8.550859
 20
785.133667
  0
VERTEX
  8
0
 10
8.605547
 20
786.930969
  0
VERTEX
  8
0
 10
8.684609
 20
788.728638
  0
VERTEX
  8
0
 10
8.816172
 20
791.068176
  0
VERTEX
  8
0
 10
9.117499
 20
795.319763
  0
VERTEX
  8
0
 10
9.603125
 20
800.909607
  0
SEQEND
  8
0
  0
POLYLINE
  8
0
  0
VERTEX
  8
0
 10
55.284218
 20
769.735840
  0
VERTEX
  8
0
 10
55.284218
 20
754.156128
  0
VERTEX
  8
0
 10
55.284218
 20
734.681519
  0
VERTEX
  8
0
 10
55.284218
 20
719.101868
  0
VERTEX
  8
0
 10
55.284218
 20
699.627258
  0
SEQEND
  8
0
  0
POLYLINE
  8
0
  0
VERTEX
  8
0
 10
21.598125
 20
760.785461
  0
VERTEX
  8
0
 10
22.417421
 20
757.723633
  0
VERTEX
  8
0
 10
23.001719
 20
755.626953
  0
VERTEX
  8
0
 10
23.468124
 20
754.049377
  0
VERTEX
  8
0
 10
23.933437
 20
752.591553
  0
VERTEX
  8
0
 10
24.518436
 20
750.912476
  0
VERTEX
  8
0
 10
26.408749
 20
745.785706
  0
VERTEX
  8
0
 10
29.308516
 20
737.520203
  0
VERTEX
  8
0
 10
30.277578
 20
734.913818
  0
VERTEX
  8
0
 10
31.013437
 20
733.071777
  0
VERTEX
  8
0
 10
31.639921
 20
731.599426
  0
VERTEX
  8
0
 10
32.464531
 20
729.775940
  0
VERTEX
  8
0
 10
33.151249
 20
728.345032
  0
VERTEX
  8
0
 10
33.856327
 20
726.951843
  0
VERTEX
  8
0
 10
34.577419
 20
725.604675
  0
VERTEX
  8
0
 10
35.323048
 20
724.298645
  0
VERTEX
  8
0
 10
36.104374
 20
723.025391
  0
VERTEX
  8
0
 10
36.720467
 20
722.087097
  0
VERTEX
  8
0
 10
37.148201
 20
721.467407
  0
VERTEX
  8
0
 10
38.049454
 20
720.238953
  0
VERTEX
  8
0
 10
38.764454
 20
719.329407
  0
VERTEX
  8
0
 10
39.258282
 20
718.730835
  0
VERTEX
  8
0
 10
40.283749
 20
717.556763
  0
VERTEX
  8
0
 10
41.082890
 20
716.700989
  0
VERTEX
  8
0
 10
41.628513
 20
716.144287
  0
VERTEX
  8
0
 10
42.747578
 20
715.069519
  0
VERTEX
  8
0
 10
43.902420
 20
714.058655
  0
VERTEX
  8
0
 10
44.493202
 20
713.582336
  0
VERTEX
  8
0
 10
45.092655
 20
713.128174
  0
VERTEX
  8
0
 10
45.700859
 20
712.698181
  0
VERTEX
  8
0
 10
46.317810
 20
712.294434
  0
VERTEX
  8
0
 10
47.259296
 20
711.742554
  0
VERTEX
  8
0
 10
47.897655
 20
711.413086
  0
VERTEX
  8
0
 10
48.544529
 20
711.115051
  0
VERTEX
  8
0
 10
49.530544
 20
710.726990
  0
VERTEX
  8
0
 10
50.535233
 20
710.409851
  0
VERTEX
  8
0
 10
51.558437
 20
710.163635
  0
VERTEX
  8
0
 10
52.599922
 20
709.988586
  0
VERTEX
  8
0
 10
53.304295
 20
709.911377
  0
VERTEX
  8
0
 10
54.016403
 20
709.865784
  0
VERTEX
  8
0
 10
54.735390
 20
709.850525
  0
VERTEX
  8
0
 10
55.460155
 20
709.864624
  0
VERTEX
  8
0
 10
56.189610
 20
709.906799
  0
VERTEX
  8
0
 10
56.922577
 20
709.975830
  0
VERTEX
  8
0
 10
57.657967
 20
710.070679
  0
VERTEX
  8
0
 10
58.394764
 20
710.189880
  0
VERTEX
  8
0
 10
59.131794
 20
710.332458
  0
VERTEX
  8
0
 10
59.868046
 20
710.497192
  0
VERTEX
  8
0
 10
60.601952
 20
710.682922
  0
VERTEX
  8
0
 10
61.330936
 20
710.889771
  0
VERTEX
  8
0
 10
62.051796
 20
711.117737
  0
VERTEX
  8
0
 10
62.761639
 20
711.367004
  0
VERTEX
  8
0
 10
63.457344
 20
711.637695
  0
VERTEX
  8
0
 10
64.135780
 20
711.929932
  0
VERTEX
  8
0
 10
64.793983
 20
712.243835
  0
VERTEX
  8
0
 10
65.428986
 20
712.579529
  0
VERTEX
  8
0
 10
66.331093
 20
713.124207
  0
VERTEX
  8
0
 10
67.172112
 20
713.719727
  0
VERTEX
  8
0
 10
67.962502
 20
714.369690
  0
VERTEX
  8
0
 10
68.467110
 20
714.834778
  0
VERTEX
  8
0
 10
68.957886
 20
715.326599
  0
VERTEX
  8
0
 10
69.438278
 20
715.846252
  0
VERTEX
  8
0
 10
69.911797
 20
716.394592
  0
VERTEX
  8
0
 10
70.851952
 20
717.581726
  0
VERTEX
  8
0
 10
71.790855
 20
718.884216
  0
VERTEX
  8
0
 10
72.712654
 20
720.275085
  0
VERTEX
  8
0
 10
73.597809
 20
721.724365
  0
VERTEX
  8
0
 10
74.226013
 20
722.831848
  0
VERTEX
  8
0
 10
74.814606
 20
723.943115
  0
VERTEX
  8
0
 10
75.533127
 20
725.421997
  0
VERTEX
  8
0
 10
76.027573
 20
726.534729
  0
VERTEX
  8
0
 10
76.636330
 20
728.032715
  0
VERTEX
  8
0
 10
77.060699
 20
729.173523
  0
VERTEX
  8
0
 10
77.592339
 20
730.726929
  0
VERTEX
  8
0
 10
78.214294
 20
732.711548
  0
VERTEX
  8
0
 10
79.578125
 20
737.294434
  0
VERTEX
  8
0
 10
80.961250
 20
741.622864
  0
VERTEX
  8
0
 10
81.474686
 20
743.405701
  0
VERTEX
  8
0
 10
82.078438
 20
745.818787
  0
VERTEX
  8
0
 10
83.267891
 20
751.051208
  0
VERTEX
  8
0
 10
83.765465
 20
753.164307
  0
VERTEX
  8
0
 10
85.068199
 20
758.401001
  0
SEQEND
  8
0
  0
POLYLINE
  8
0
  0
VERTEX
  8
0
 10
25.453983
 20
761.405823
  0
VERTEX
  8
0
 10
27.302109
 20
755.565735
  0
VERTEX
  8
0
 10
29.414141
 20
749.247864
  0
VERTEX
  8
0
 10
30.846640
 20
744.695984
  0
VERTEX
  8
0
 10
31.582188
 20
742.507019
  0
VERTEX
  8
0
 10
31.994686
 20
741.390991
  0
VERTEX
  8
0
 10
32.439610
 20
740.262268
  0
VERTEX
  8
0
 10
33.859138
 20
736.841919
  0
VERTEX
  8
0
 10
34.471249
 20
735.328369
  0
VERTEX
  8
0
 10
34.899998
 20
734.205139
  0
VERTEX
  8
0
 10
35.960232
 20
731.309692
  0
VERTEX
  8
0
 10
36.362110
 20
730.280579
  0
VERTEX
  8
0
 10
36.641251
 20
729.617188
  0
VERTEX
  8
0
 10
36.933750
 20
728.974121
  0
VERTEX
  8
0
 10
37.404453
 20
728.051453
  0
VERTEX
  8
0
 10
37.911404
 20
727.173828
  0
VERTEX
  8
0
 10
38.628513
 20
726.054443
  0
VERTEX
  8
0
 10
40.309452
 20
723.617249
  0
VERTEX
  8
0
 10
41.978905
 20
721.150146
  0
VERTEX
  8
0
 10
42.566719
 20
720.355042
  0
VERTEX
  8
0
 10
42.977345
 20
719.843262
  0
VERTEX
  8
0
 10
43.407032
 20
719.350281
  0
VERTEX
  8
0
 10
43.859219
 20
718.879822
  0
VERTEX
  8
0
 10
44.583515
 20
718.221619
  0
VERTEX
  8
0
 10
45.355312
 20
717.618652
  0
VERTEX
  8
0
 10
46.163593
 20
717.067261
  0
VERTEX
  8
0
 10
46.997265
 20
716.563721
  0
VERTEX
  8
0
 10
48.129532
 20
715.960632
  0
VERTEX
  8
0
 10
49.262032
 20
715.427856
  0
VERTEX
  8
0
 10
50.384842
 20
714.963501
  0
VERTEX
  8
0
 10
51.223747
 20
714.662903
  0
VERTEX
  8
0
 10
52.342731
 20
714.329407
  0
VERTEX
  8
0
 10
52.904140
 20
714.192932
  0
VERTEX
  8
0
 10
53.467812
 20
714.077393
  0
VERTEX
  8
0
 10
54.318905
 20
713.944641
  0
VERTEX
  8
0
 10
54.889919
 20
713.883362
  0
VERTEX
  8
0
 10
55.463123
 20
713.843750
  0
VERTEX
  8
0
 10
56.038044
 20
713.825684
  0
VERTEX
  8
0
 10
56.613907
 20
713.829102
  0
VERTEX
  8
0
 10
57.190311
 20
713.854065
  0
VERTEX
  8
0
 10
57.766560
 20
713.900208
  0
VERTEX
  8
0
 10
58.342186
 20
713.967590
  0
VERTEX
  8
0
 10
58.916485
 20
714.056091
  0
VERTEX
  8
0
 10
59.489059
 20
714.165771
  0
VERTEX
  8
0
 10
60.059841
 20
714.297546
  0
VERTEX
  8
0
 10
60.629063
 20
714.452454
  0
VERTEX
  8
0
 10
61.196640
 20
714.631714
  0
VERTEX
  8
0
 10
61.762890
 20
714.836060
  0
VERTEX
  8
0
 10
62.327732
 20
715.066833
  0
VERTEX
  8
0
 10
62.891327
 20
715.325073
  0
VERTEX
  8
0
 10
63.453747
 20
715.611694
  0
VERTEX
  8
0
 10
64.295464
 20
716.097351
  0
VERTEX
  8
0
 10
64.853828
 20
716.458801
  0
VERTEX
  8
0
 10
65.406639
 20
716.849487
  0
VERTEX
  8
0
 10
66.218826
 20
717.488647
  0
VERTEX
  8
0
 10
67.001328
 20
718.188904
  0
VERTEX
  8
0
 10
67.743828
 20
718.947327
  0
VERTEX
  8
0
 10
68.211479
 20
719.483826
  0
VERTEX
  8
0
 10
68.653748
 20
720.044067
  0
VERTEX
  8
0
 10
69.068359
 20
720.626709
  0
VERTEX
  8
0
 10
69.640778
 20
721.536011
  0
VERTEX
  8
0
 10
70.159294
 20
722.477417
  0
VERTEX
  8
0
 10
70.629997
 20
723.439209
  0
VERTEX
  8
0
 10
71.058983
 20
724.409729
  0
VERTEX
  8
0
 10
71.452423
 20
725.377502
  0
VERTEX
  8
0
 10
72.158669
 20
727.273560
  0
VERTEX
  8
0
 10
73.479607
 20
731.087708
  0
VERTEX
  8
0
 10
74.992729
 20
735.264343
  0
VERTEX
  8
0
 10
75.740074
 20
737.430542
  0
VERTEX
  8
0
 10
76.191719
 20
738.867615
  0
VERTEX
  8
0
 10
76.604141
 20
740.293640
  0
VERTEX
  8
0
 10
77.080307
 20
742.065063
  0
VERTEX
  8
0
 10
77.621094
 20
744.182007
  0
SEQEND
  8
0
  0
POLYLINE
  8
0
  0
VERTEX
  8
0
 10
69.078438
 20
754.179443
  0
VERTEX
  8
0
 10
71.949142
 20
752.517944
  0
VERTEX
  8
0
 10
71.926407
 20
754.225525
  0
VERTEX
  8
0
 10
71.903595
 20
755.933167
  0
VERTEX
  8
0
 10
69.078438
 20
754.179443
  0
SEQEND
  8
0
  0
POLYLINE
  8
0
  0
VERTEX
  8
0
 10
81.134995
 20
759.791321
  0
VERTEX
  8
0
 10
80.656639
 20
759.696167
  0
VERTEX
  8
0
 10
80.251167
 20
759.425232
  0
VERTEX
  8
0
 10
79.980156
 20
759.019653
  0
VERTEX
  8
0
 10
79.884995
 20
758.541321
  0
VERTEX
  8
0
 10
79.980156
 20
758.062927
  0
VERTEX
  8
0
 10
80.251167
 20
757.657410
  0
VERTEX
  8
0
 10
80.656639
 20
757.386475
  0
VERTEX
  8
0
 10
81.134995
 20
757.291321
  0
VERTEX
  8
0
 10
81.613358
 20
757.386475
  0
VERTEX
  8
0
 10
82.018906
 20
757.657410
  0
VERTEX
  8
0
 10
82.289917
 20
758.062927
  0
VERTEX
  8
0
 10
82.384995
 20
758.541321
  0
VERTEX
  8
0
 10
82.289917
 20
759.019653
  0
VERTEX
  8
0
 10
82.018906
 20
759.425232
  0
VERTEX
  8
0
 10
81.613358
 20
759.696167
  0
VERTEX
  8
0
 10
81.134995
 20
759.791321
  0
SEQEND
  8
0
  0
POLYLINE
  8
0
  0
VERTEX
  8
0
 10
79.053047
 20
752.914673
  0
VERTEX
  8
0
 10
78.574684
 20
752.819519
  0
VERTEX
  8
0
 10
78.169136
 20
752.548584
  0
VERTEX
  8
0
 10
77.898201
 20
752.143005
  0
VERTEX
  8
0
 10
77.803047
 20
751.664673
  0
VERTEX
  8
0
 10
77.898201
 20
751.186340
  0
VERTEX
  8
0
 10
78.169136
 20
750.780762
  0
VERTEX
  8
0
 10
78.574684
 20
750.509827
  0
VERTEX
  8
0
 10
79.053047
 20
750.414673
  0
VERTEX
  8
0
 10
79.531403
 20
750.509827
  0
VERTEX
  8
0
 10
79.936951
 20
750.780762
  0
VERTEX
  8
0
 10
80.207886
 20
751.186340
  0
VERTEX
  8
0
 10
80.303047
 20
751.664673
  0
VERTEX
  8
0
 10
80.207886
 20
752.143005
  0
VERTEX
  8
0
 10
79.936951
 20
752.548584
  0
VERTEX
  8
0
 10
79.531403
 20
752.819519
  0
VERTEX
  8
0
 10
79.053047
 20
752.914673
  0
SEQEND
  8
0
  0
POLYLINE
  8
0
  0
VERTEX
  8
0
 10
55.287811
 20
707.352905
  0
VERTEX
  8
0
 10
54.809452
 20
707.257690
  0
VERTEX
  8
0
 10
54.403904
 20
706.986755
  0
VERTEX
  8
0
 10
54.132969
 20
706.581238
  0
VERTEX
  8
0
 10
54.037811
 20
706.102905
  0
VERTEX
  8
0
 10
54.132969
 20
705.624512
  0
VERTEX
  8
0
 10
54.403904
 20
705.218994
  0
VERTEX
  8
0
 10
54.809452
 20
704.948059
  0
VERTEX
  8
0
 10
55.287811
 20
704.852905
  0
VERTEX
  8
0
 10
55.766171
 20
704.948059
  0
VERTEX
  8
0
 10
56.171719
 20
705.218994
  0
VERTEX
  8
0
 10
56.442654
 20
705.624512
  0
VERTEX
  8
0
 10
56.537811
 20
706.102905
  0
VERTEX
  8
0
 10
56.442654
 20
706.581238
  0
VERTEX
  8
0
 10
56.171719
 20
706.986755
  0
VERTEX
  8
0
 10
55.766171
 20
707.257690
  0
VERTEX
  8
0
 10
55.287811
 20
707.352905
  0
SEQEND
  8
0
  0
POLYLINE
  8
0
  0
VERTEX
  8
0
 10
19.610077
 20
777.415283
  0
VERTEX
  8
0
 10
19.131718
 20
777.320129
  0
VERTEX
  8
0
 10
18.726171
 20
777.049194
  0
VERTEX
  8
0
 10
18.455235
 20
776.643677
  0
VERTEX
  8
0
 10
18.360077
 20
776.165283
  0
VERTEX
  8
0
 10
18.455235
 20
775.686951
  0
VERTEX
  8
0
 10
18.726171
 20
775.281494
  0
VERTEX
  8
0
 10
19.131718
 20
775.010437
  0
VERTEX
  8
0
 10
19.610077
 20
774.915283
  0
VERTEX
  8
0
 10
20.088436
 20
775.010437
  0
VERTEX
  8
0
 10
20.493984
 20
775.281494
  0
VERTEX
  8
0
 10
20.764921
 20
775.686951
  0
VERTEX
  8
0
 10
20.860077
 20
776.165283
  0
VERTEX
  8
0
 10
20.764921
 20
776.643677
  0
VERTEX
  8
0
 10
20.493984
 20
777.049194
  0
VERTEX
  8
0
 10
20.088436
 20
777.320129
  0
VERTEX
  8
0
 10
19.610077
 20
777.415283
  0
SEQEND
  8
0
  0
POLYLINE
  8
0
  0
VERTEX
  8
0
 10
33.621014
 20
789.129456
  0
VERTEX
  8
0
 10
33.142654
 20
789.034302
  0
VERTEX
  8
0
 10
32.737110
 20
788.763367
  0
VERTEX
  8
0
 10
32.466171
 20
788.357788
  0
VERTEX
  8
0
 10
32.371014
 20
787.879456
  0
VERTEX
  8
0
 10
32.466171
 20
787.401062
  0
VERTEX
  8
0
 10
32.737110
 20
786.995544
  0
VERTEX
  8
0
 10
33.142654
 20
786.724609
  0
VERTEX
  8
0
 10
33.621014
 20
786.629456
  0
VERTEX
  8
0
 10
34.099373
 20
786.724609
  0
VERTEX
  8
0
 10
34.504921
 20
786.995544
  0
VERTEX
  8
0
 10
34.775860
 20
787.401062
  0
VERTEX
  8
0
 10
34.871014
 20
787.879456
  0
VERTEX
  8
0
 10
34.775860
 20
788.357788
  0
VERTEX
  8
0
 10
34.504921
 20
788.763367
  0
VERTEX
  8
0
 10
34.099373
 20
789.034302
  0
VERTEX
  8
0
 10
33.621014
 20
789.129456
  0
SEQEND
  8
0
  0
POLYLINE
  8
0
  0
VERTEX
  8
0
 10
90.447891
 20
777.366150
  0
VERTEX
  8
0
 10
89.969528
 20
777.270996
  0
VERTEX
  8
0
 10
89.563980
 20
777.000061
  0
VERTEX
  8
0
 10
89.293045
 20
776.594604
  0
VERTEX
  8
0
 10
89.197891
 20
776.116150
  0
VERTEX
  8
0
 10
89.293045
 20
775.637878
  0
VERTEX
  8
0
 10
89.563980
 20
775.232300
  0
VERTEX
  8
0
 10
89.969528
 20
774.961304
  0
VERTEX
  8
0
 10
90.447891
 20
774.866150
  0
VERTEX
  8
0
 10
90.926247
 20
774.961304
  0
VERTEX
  8
0
 10
91.331795
 20
775.232300
  0
VERTEX
  8
0
 10
91.602730
 20
775.637878
  0
VERTEX
  8
0
 10
91.697891
 20
776.116150
  0
VERTEX
  8
0
 10
91.602730
 20
776.594604
  0
VERTEX
  8
0
 10
91.331795
 20
777.000061
  0
VERTEX
  8
0
 10
90.926247
 20
777.270996
  0
VERTEX
  8
0
 10
90.447891
 20
777.366150
  0
SEQEND
  8
0
  0
POLYLINE
  8
0
  0
VERTEX
  8
0
 10
75.093201
 20
789.720032
  0
VERTEX
  8
0
 10
74.614845
 20
789.624878
  0
VERTEX
  8
0
 10
74.209297
 20
789.353943
  0
VERTEX
  8
0
 10
73.938354
 20
788.948425
  0
VERTEX
  8
0
 10
73.843201
 20
788.470032
  0
VERTEX
  8
0
 10
73.938354
 20
787.991699
  0
VERTEX
  8
0
 10
74.209297
 20
787.586182
  0
VERTEX
  8
0
 10
74.614845
 20
787.315247
  0
VERTEX
  8
0
 10
75.093201
 20
787.220032
  0
VERTEX
  8
0
 10
75.571564
 20
787.315247
  0
VERTEX
  8
0
 10
75.977104
 20
787.586182
  0
VERTEX
  8
0
 10
76.248047
 20
787.991699
  0
VERTEX
  8
0
 10
76.343201
 20
788.470032
  0
VERTEX
  8
0
 10
76.248047
 20
788.948425
  0
VERTEX
  8
0
 10
75.977104
 20
789.353943
  0
VERTEX
  8
0
 10
75.571564
 20
789.624878
  0
VERTEX
  8
0
 10
75.093201
 20
789.720032
  0
SEQEND
  8
0
  0
POLYLINE
  8
0
  0
VERTEX
  8
0
 10
55.450466
 20
767.927307
  0
VERTEX
  8
0
 10
55.067810
 20
767.851257
  0
VERTEX
  8
0
 10
54.743359
 20
767.634460
  0
VERTEX
  8
0
 10
54.526638
 20
767.309998
  0
VERTEX
  8
0
 10
54.450466
 20
766.927307
  0
VERTEX
  8
0
 10
54.526638
 20
766.544678
  0
VERTEX
  8
0
 10
54.743359
 20
766.220215
  0
VERTEX
  8
0
 10
55.067810
 20
766.003418
  0
VERTEX
  8
0
 10
55.450466
 20
765.927307
  0
VERTEX
  8
0
 10
55.833202
 20
766.003418
  0
VERTEX
  8
0
 10
56.157578
 20
766.220215
  0
VERTEX
  8
0
 10
56.374374
 20
766.544678
  0
VERTEX
  8
0
 10
56.450466
 20
766.927307
  0
VERTEX
  8
0
 10
56.374374
 20
767.309998
  0
VERTEX
  8
0
 10
56.157578
 20
767.634460
  0
VERTEX
  8
0
 10
55.833202
 20
767.851257
  0
VERTEX
  8
0
 10
55.450466
 20
767.927307
  0
SEQEND
  8
0
  0
ENDSEC
  0
EOF
