  0
SECTION
  2
HEADER
  9
$ACADVER
  1
AC1006
  9
$EXTMIN
 10
0.999766
 20
1.000000
  9
$EXTMAX
 10
326.730530
 20
945.720276
  0
ENDSEC
  0
SECTION
  2
ENTITIES
  0
POLYLINE
  8
0
  0
VERTEX
  8
0
 10
127.723984
 20
1.000000
  0
VERTEX
  8
0
 10
112.512657
 20
6.377109
  0
VERTEX
  8
0
 10
102.111557
 20
10.076250
  0
VERTEX
  8
0
 10
92.442810
 20
13.551719
  0
VERTEX
  8
0
 10
85.432655
 20
16.109844
  0
VERTEX
  8
0
 10
77.709450
 20
18.974453
  0
VERTEX
  8
0
 10
68.990547
 20
22.270702
  0
VERTEX
  8
0
 10
61.574997
 20
25.132265
  0
VERTEX
  8
0
 10
55.991325
 20
27.350155
  0
VERTEX
  8
0
 10
55.723984
 20
29.085077
  0
VERTEX
  8
0
 10
52.404922
 20
28.998360
  0
VERTEX
  8
0
 10
52.404922
 20
28.998360
  0
VERTEX
  8
0
 10
47.256561
 20
31.371952
  0
VERTEX
  8
0
 10
45.294060
 20
32.308201
  0
VERTEX
  8
0
 10
43.301094
 20
33.287968
  0
VERTEX
  8
0
 10
41.269608
 20
34.323437
  0
VERTEX
  8
0
 10
39.889919
 20
35.050388
  0
VERTEX
  8
0
 10
37.782654
 20
36.201248
  0
VERTEX
  8
0
 10
36.356564
 20
37.009842
  0
VERTEX
  8
0
 10
34.192108
 20
38.286640
  0
VERTEX
  8
0
 10
32.736404
 20
39.181484
  0
VERTEX
  8
0
 10
31.273594
 20
40.112110
  0
VERTEX
  8
0
 10
29.806484
 20
41.079296
  0
VERTEX
  8
0
 10
27.603594
 20
42.600079
  0
VERTEX
  8
0
 10
26.137968
 20
43.661171
  0
VERTEX
  8
0
 10
24.680624
 20
44.757420
  0
VERTEX
  8
0
 10
23.237343
 20
45.885857
  0
VERTEX
  8
0
 10
21.813984
 20
47.043282
  0
VERTEX
  8
0
 10
20.416172
 20
48.226719
  0
VERTEX
  8
0
 10
19.049921
 20
49.432968
  0
VERTEX
  8
0
 10
17.720781
 20
50.658985
  0
VERTEX
  8
0
 10
16.434765
 20
51.901638
  0
VERTEX
  8
0
 10
15.197577
 20
53.157890
  0
VERTEX
  8
0
 10
14.014297
 20
54.424454
  0
VERTEX
  8
0
 10
12.887031
 20
55.697891
  0
VERTEX
  8
0
 10
11.817266
 20
56.974686
  0
VERTEX
  8
0
 10
10.806328
 20
58.251328
  0
VERTEX
  8
0
 10
9.855703
 20
59.524216
  0
VERTEX
  8
0
 10
8.966640
 20
60.789841
  0
VERTEX
  8
0
 10
8.140625
 20
62.044529
  0
VERTEX
  8
0
 10
7.379219
 20
63.284843
  0
VERTEX
  8
0
 10
6.683516
 20
64.507263
  0
VERTEX
  8
0
 10
6.053984
 20
65.710236
  0
VERTEX
  8
0
 10
5.485938
 20
66.900002
  0
VERTEX
  8
0
 10
4.973516
 20
68.084999
  0
VERTEX
  8
0
 10
4.510859
 20
69.273674
  0
VERTEX
  8
0
 10
4.296406
 20
69.871872
  0
VERTEX
  8
0
 10
3.897656
 20
71.081558
  0
VERTEX
  8
0
 10
3.534062
 20
72.315620
  0
VERTEX
  8
0
 10
3.042109
 20
74.230934
  0
VERTEX
  8
0
 10
2.741250
 20
75.562729
  0
VERTEX
  8
0
 10
2.320703
 20
77.653511
  0
VERTEX
  8
0
 10
1.942656
 20
79.832031
  0
VERTEX
  8
0
 10
1.718516
 20
81.316719
  0
VERTEX
  8
0
 10
1.430937
 20
83.567734
  0
VERTEX
  8
0
 10
1.275469
 20
85.070000
  0
VERTEX
  8
0
 10
1.103125
 20
87.301323
  0
VERTEX
  8
0
 10
1.032734
 20
88.759842
  0
VERTEX
  8
0
 10
1.000000
 20
90.891953
  0
VERTEX
  8
0
 10
1.029453
 20
92.290543
  0
VERTEX
  8
0
 10
1.101719
 20
93.685234
  0
VERTEX
  8
0
 10
1.218750
 20
95.088432
  0
VERTEX
  8
0
 10
1.382109
 20
96.512344
  0
VERTEX
  8
0
 10
1.593594
 20
97.969452
  0
VERTEX
  8
0
 10
1.854922
 20
99.472031
  0
VERTEX
  8
0
 10
2.167812
 20
101.032341
  0
VERTEX
  8
0
 10
2.736406
 20
103.502968
  0
VERTEX
  8
0
 10
3.178359
 20
105.224838
  0
VERTEX
  8
0
 10
3.665234
 20
106.984528
  0
VERTEX
  8
0
 10
4.192656
 20
108.762733
  0
VERTEX
  8
0
 10
4.756015
 20
110.540230
  0
VERTEX
  8
0
 10
5.350781
 20
112.297890
  0
VERTEX
  8
0
 10
5.972343
 20
114.016167
  0
VERTEX
  8
0
 10
6.616172
 20
115.676094
  0
VERTEX
  8
0
 10
7.277812
 20
117.258202
  0
VERTEX
  8
0
 10
7.954062
 20
118.748749
  0
VERTEX
  8
0
 10
8.298203
 20
119.461716
  0
VERTEX
  8
0
 10
9.000859
 20
120.831093
  0
VERTEX
  8
0
 10
9.725547
 20
122.135780
  0
VERTEX
  8
0
 10
10.475703
 20
123.388748
  0
VERTEX
  8
0
 10
10.861563
 20
124.000000
  0
VERTEX
  8
0
 10
11.656718
 20
125.199684
  0
VERTEX
  8
0
 10
12.486328
 20
126.379997
  0
VERTEX
  8
0
 10
13.353749
 20
127.553978
  0
VERTEX
  8
0
 10
14.733749
 20
129.330856
  0
VERTEX
  8
0
 10
15.709687
 20
130.535858
  0
VERTEX
  8
0
 10
16.730782
 20
131.753510
  0
VERTEX
  8
0
 10
17.797344
 20
132.979218
  0
VERTEX
  8
0
 10
18.909609
 20
134.208511
  0
VERTEX
  8
0
 10
20.067656
 20
135.436722
  0
VERTEX
  8
0
 10
21.891249
 20
137.267258
  0
VERTEX
  8
0
 10
23.164764
 20
138.473038
  0
VERTEX
  8
0
 10
23.819061
 20
139.069992
  0
VERTEX
  8
0
 10
24.484921
 20
139.661957
  0
VERTEX
  8
0
 10
25.851952
 20
140.830460
  0
VERTEX
  8
0
 10
26.553280
 20
141.407425
  0
VERTEX
  8
0
 10
27.992733
 20
142.547882
  0
VERTEX
  8
0
 10
29.482031
 20
143.672424
  0
VERTEX
  8
0
 10
31.022499
 20
144.783203
  0
VERTEX
  8
0
 10
33.431717
 20
146.428513
  0
VERTEX
  8
0
 10
35.962891
 20
148.055542
  0
VERTEX
  8
0
 10
38.620468
 20
149.671722
  0
VERTEX
  8
0
 10
40.463123
 20
150.746170
  0
VERTEX
  8
0
 10
42.357342
 20
151.817413
  0
VERTEX
  8
0
 10
44.296638
 20
152.883667
  0
VERTEX
  8
0
 10
46.274765
 20
153.943283
  0
VERTEX
  8
0
 10
48.285076
 20
154.994446
  0
VERTEX
  8
0
 10
51.347107
 20
156.551788
  0
VERTEX
  8
0
 10
55.482735
 20
158.582733
  0
VERTEX
  8
0
 10
58.599998
 20
160.065536
  0
VERTEX
  8
0
 10
60.696640
 20
161.039688
  0
VERTEX
  8
0
 10
65.011955
 20
162.981720
  0
VERTEX
  8
0
 10
67.265076
 20
163.962494
  0
VERTEX
  8
0
 10
69.605080
 20
164.958282
  0
VERTEX
  8
0
 10
72.049370
 20
165.975540
  0
VERTEX
  8
0
 10
74.614998
 20
167.020615
  0
VERTEX
  8
0
 10
80.172028
 20
169.216873
  0
VERTEX
  8
0
 10
86.212891
 20
171.520386
  0
VERTEX
  8
0
 10
92.480621
 20
173.830002
  0
VERTEX
  8
0
 10
95.616714
 20
174.954453
  0
VERTEX
  8
0
 10
98.709999
 20
176.041245
  0
VERTEX
  8
0
 10
101.727341
 20
177.077423
  0
VERTEX
  8
0
 10
104.635704
 20
178.049759
  0
VERTEX
  8
0
 10
107.409920
 20
178.948975
  0
VERTEX
  8
0
 10
110.057732
 20
179.779922
  0
VERTEX
  8
0
 10
112.594917
 20
180.551010
  0
VERTEX
  8
0
 10
115.037262
 20
181.271088
  0
VERTEX
  8
0
 10
119.700699
 20
182.591553
  0
VERTEX
  8
0
 10
126.379684
 20
184.401642
  0
VERTEX
  8
0
 10
128.981171
 20
182.740616
  0
VERTEX
  8
0
 10
130.427490
 20
181.844925
  0
VERTEX
  8
0
 10
131.323273
 20
181.346008
  0
VERTEX
  8
0
 10
132.365936
 20
180.843506
  0
VERTEX
  8
0
 10
133.835617
 20
180.225311
  0
VERTEX
  8
0
 10
134.617889
 20
179.931320
  0
VERTEX
  8
0
 10
135.389847
 20
179.668671
  0
VERTEX
  8
0
 10
136.126953
 20
179.448746
  0
VERTEX
  8
0
 10
136.831635
 20
179.265625
  0
VERTEX
  8
0
 10
138.512344
 20
178.899689
  0
VERTEX
  8
0
 10
135.011871
 20
161.819992
  0
VERTEX
  8
0
 10
131.511322
 20
144.740311
  0
VERTEX
  8
0
 10
123.582031
 20
144.993118
  0
VERTEX
  8
0
 10
118.556244
 20
145.104218
  0
VERTEX
  8
0
 10
116.180077
 20
145.129456
  0
VERTEX
  8
0
 10
113.918671
 20
145.129288
  0
VERTEX
  8
0
 10
111.780151
 20
145.102188
  0
VERTEX
  8
0
 10
109.770073
 20
145.046799
  0
VERTEX
  8
0
 10
107.894135
 20
144.962189
  0
VERTEX
  8
0
 10
106.157890
 20
144.847031
  0
VERTEX
  8
0
 10
105.080933
 20
144.752884
  0
VERTEX
  8
0
 10
103.589844
 20
144.584991
  0
VERTEX
  8
0
 10
102.248436
 20
144.390228
  0
VERTEX
  8
0
 10
101.054916
 20
144.176956
  0
VERTEX
  8
0
 10
100.007187
 20
143.953903
  0
VERTEX
  8
0
 10
98.833511
 20
143.655701
  0
VERTEX
  8
0
 10
97.910698
 20
143.375305
  0
VERTEX
  8
0
 10
97.205933
 20
143.109528
  0
VERTEX
  8
0
 10
96.768280
 20
142.891327
  0
VERTEX
  8
0
 10
96.497963
 20
142.724457
  0
VERTEX
  8
0
 10
96.231247
 20
142.532654
  0
VERTEX
  8
0
 10
95.812263
 20
142.183975
  0
VERTEX
  8
0
 10
95.335701
 20
141.742111
  0
VERTEX
  8
0
 10
92.097572
 20
138.525238
  0
VERTEX
  8
0
 10
91.258591
 20
137.720856
  0
VERTEX
  8
0
 10
90.695152
 20
137.211243
  0
VERTEX
  8
0
 10
89.999527
 20
136.639999
  0
VERTEX
  8
0
 10
89.492027
 20
136.276016
  0
VERTEX
  8
0
 10
88.973198
 20
135.952881
  0
VERTEX
  8
0
 10
88.227028
 20
135.563507
  0
VERTEX
  8
0
 10
87.382339
 20
135.196320
  0
VERTEX
  8
0
 10
86.437813
 20
134.836411
  0
VERTEX
  8
0
 10
80.267807
 20
132.697495
  0
VERTEX
  8
0
 10
76.910385
 20
131.564209
  0
VERTEX
  8
0
 10
70.973747
 20
129.628662
  0
VERTEX
  8
0
 10
68.076874
 20
128.668198
  0
VERTEX
  8
0
 10
65.276718
 20
127.703438
  0
VERTEX
  8
0
 10
63.347889
 20
127.001167
  0
VERTEX
  8
0
 10
62.165623
 20
126.546875
  0
VERTEX
  8
0
 10
61.050545
 20
126.097496
  0
VERTEX
  8
0
 10
59.986015
 20
125.646797
  0
VERTEX
  8
0
 10
58.955780
 20
125.188515
  0
VERTEX
  8
0
 10
56.931717
 20
124.224449
  0
VERTEX
  8
0
 10
55.904999
 20
123.706245
  0
VERTEX
  8
0
 10
54.300156
 20
122.866478
  0
VERTEX
  8
0
 10
51.395077
 20
121.279449
  0
VERTEX
  8
0
 10
49.574532
 20
120.239609
  0
VERTEX
  8
0
 10
48.357967
 20
119.521797
  0
VERTEX
  8
0
 10
46.564217
 20
118.422577
  0
VERTEX
  8
0
 10
45.409763
 20
117.683197
  0
VERTEX
  8
0
 10
44.304844
 20
116.945152
  0
VERTEX
  8
0
 10
43.263515
 20
116.214134
  0
VERTEX
  8
0
 10
42.290623
 20
115.492188
  0
VERTEX
  8
0
 10
41.383125
 20
114.778122
  0
VERTEX
  8
0
 10
40.537109
 20
114.070541
  0
VERTEX
  8
0
 10
39.375389
 20
113.018204
  0
VERTEX
  8
0
 10
38.667187
 20
112.320541
  0
VERTEX
  8
0
 10
38.007420
 20
111.624451
  0
VERTEX
  8
0
 10
37.392578
 20
110.928360
  0
VERTEX
  8
0
 10
36.546249
 20
109.881485
  0
VERTEX
  8
0
 10
35.780781
 20
108.829842
  0
VERTEX
  8
0
 10
35.084766
 20
107.776093
  0
VERTEX
  8
0
 10
34.447422
 20
106.723671
  0
VERTEX
  8
0
 10
33.857655
 20
105.675468
  0
VERTEX
  8
0
 10
32.950466
 20
103.946564
  0
VERTEX
  8
0
 10
32.272266
 20
102.573433
  0
VERTEX
  8
0
 10
31.799452
 20
101.509995
  0
VERTEX
  8
0
 10
31.369062
 20
100.380386
  0
VERTEX
  8
0
 10
31.110624
 20
99.573746
  0
VERTEX
  8
0
 10
30.991249
 20
99.150620
  0
VERTEX
  8
0
 10
30.773594
 20
98.258438
  0
VERTEX
  8
0
 10
30.586952
 20
97.296638
  0
VERTEX
  8
0
 10
30.434296
 20
96.255859
  0
VERTEX
  8
0
 10
30.316641
 20
95.139526
  0
VERTEX
  8
0
 10
30.232889
 20
93.964218
  0
VERTEX
  8
0
 10
30.182108
 20
92.747032
  0
VERTEX
  8
0
 10
30.165155
 20
90.879761
  0
VERTEX
  8
0
 10
30.191717
 20
89.632263
  0
VERTEX
  8
0
 10
30.247499
 20
88.402573
  0
VERTEX
  8
0
 10
30.331327
 20
87.207657
  0
VERTEX
  8
0
 10
30.442186
 20
86.064682
  0
VERTEX
  8
0
 10
30.579062
 20
84.986794
  0
VERTEX
  8
0
 10
30.741640
 20
83.971954
  0
VERTEX
  8
0
 10
30.929844
 20
83.014137
  0
VERTEX
  8
0
 10
31.143515
 20
82.107346
  0
VERTEX
  8
0
 10
31.382421
 20
81.245621
  0
VERTEX
  8
0
 10
31.646484
 20
80.423126
  0
VERTEX
  8
0
 10
31.935547
 20
79.633751
  0
VERTEX
  8
0
 10
32.249451
 20
78.871483
  0
VERTEX
  8
0
 10
32.588047
 20
78.130547
  0
VERTEX
  8
0
 10
32.951015
 20
77.405701
  0
VERTEX
  8
0
 10
33.337734
 20
76.695465
  0
VERTEX
  8
0
 10
33.959999
 20
75.655937
  0
VERTEX
  8
0
 10
34.401875
 20
74.979141
  0
VERTEX
  8
0
 10
35.102966
 20
73.986565
  0
VERTEX
  8
0
 10
35.847420
 20
73.019218
  0
VERTEX
  8
0
 10
36.632030
 20
72.074532
  0
VERTEX
  8
0
 10
37.456173
 20
71.150627
  0
VERTEX
  8
0
 10
38.031326
 20
70.545464
  0
VERTEX
  8
0
 10
38.939686
 20
69.653046
  0
VERTEX
  8
0
 10
39.579998
 20
69.067810
  0
VERTEX
  8
0
 10
40.600079
 20
68.203514
  0
VERTEX
  8
0
 10
41.323982
 20
67.635933
  0
VERTEX
  8
0
 10
42.086563
 20
67.074684
  0
VERTEX
  8
0
 10
42.890545
 20
66.519531
  0
VERTEX
  8
0
 10
44.175858
 20
65.699219
  0
VERTEX
  8
0
 10
45.084454
 20
65.161797
  0
VERTEX
  8
0
 10
46.033279
 20
64.633125
  0
VERTEX
  8
0
 10
47.021561
 20
64.114220
  0
VERTEX
  8
0
 10
48.575779
 20
63.355858
  0
VERTEX
  8
0
 10
49.658672
 20
62.865234
  0
VERTEX
  8
0
 10
50.777733
 20
62.387577
  0
VERTEX
  8
0
 10
51.932110
 20
61.923828
  0
VERTEX
  8
0
 10
53.119373
 20
61.474216
  0
VERTEX
  8
0
 10
54.953751
 20
60.825077
  0
VERTEX
  8
0
 10
56.206638
 20
60.408436
  0
VERTEX
  8
0
 10
58.121326
 20
59.806404
  0
VERTEX
  8
0
 10
61.374607
 20
58.859295
  0
VERTEX
  8
0
 10
65.305077
 20
57.806404
  0
VERTEX
  8
0
 10
69.146561
 20
56.841560
  0
VERTEX
  8
0
 10
77.035622
 20
54.938515
  0
VERTEX
  8
0
 10
78.937424
 20
54.459217
  0
VERTEX
  8
0
 10
80.277657
 20
54.102341
  0
VERTEX
  8
0
 10
81.966248
 20
53.617500
  0
VERTEX
  8
0
 10
83.559372
 20
53.107578
  0
VERTEX
  8
0
 10
84.322266
 20
52.836716
  0
VERTEX
  8
0
 10
85.062263
 20
52.551483
  0
VERTEX
  8
0
 10
86.129135
 20
52.090000
  0
VERTEX
  8
0
 10
86.811172
 20
51.755859
  0
VERTEX
  8
0
 10
87.469528
 20
51.397030
  0
VERTEX
  8
0
 10
88.412338
 20
50.806091
  0
VERTEX
  8
0
 10
88.714455
 20
50.593594
  0
VERTEX
  8
0
 10
89.300934
 20
50.144451
  0
VERTEX
  8
0
 10
89.864685
 20
49.666950
  0
VERTEX
  8
0
 10
90.407730
 20
49.166172
  0
VERTEX
  8
0
 10
91.187111
 20
48.382107
  0
VERTEX
  8
0
 10
91.929764
 20
47.573906
  0
VERTEX
  8
0
 10
94.840782
 20
44.193359
  0
VERTEX
  8
0
 10
96.315544
 20
42.529140
  0
VERTEX
  8
0
 10
97.163437
 20
41.631405
  0
VERTEX
  8
0
 10
97.731407
 20
41.101170
  0
VERTEX
  8
0
 10
98.055000
 20
40.842499
  0
VERTEX
  8
0
 10
98.511330
 20
40.529453
  0
VERTEX
  8
0
 10
99.043198
 20
40.213829
  0
VERTEX
  8
0
 10
99.520935
 20
39.959373
  0
VERTEX
  8
0
 10
100.085548
 20
39.695232
  0
VERTEX
  8
0
 10
100.518669
 20
39.517342
  0
VERTEX
  8
0
 10
101.002892
 20
39.340702
  0
VERTEX
  8
0
 10
101.543434
 20
39.167500
  0
VERTEX
  8
0
 10
102.470467
 20
38.918594
  0
VERTEX
  8
0
 10
103.552185
 20
38.689686
  0
VERTEX
  8
0
 10
104.789688
 20
38.486874
  0
VERTEX
  8
0
 10
105.690704
 20
38.368359
  0
VERTEX
  8
0
 10
107.137970
 20
38.218513
  0
VERTEX
  8
0
 10
108.156326
 20
38.138985
  0
VERTEX
  8
0
 10
109.746246
 20
38.053593
  0
VERTEX
  8
0
 10
110.837341
 20
38.020859
  0
VERTEX
  8
0
 10
112.502968
 20
38.011250
  0
VERTEX
  8
0
 10
114.754997
 20
38.065624
  0
VERTEX
  8
0
 10
116.460701
 20
38.140938
  0
VERTEX
  8
0
 10
121.043594
 20
38.381874
  0
VERTEX
  8
0
 10
123.905853
 20
38.482185
  0
VERTEX
  8
0
 10
127.325157
 20
38.521015
  0
VERTEX
  8
0
 10
132.436722
 20
38.487186
  0
VERTEX
  8
0
 10
136.078049
 20
22.356874
  0
VERTEX
  8
0
 10
139.719376
 20
6.226563
  0
VERTEX
  8
0
 10
137.272888
 20
5.369922
  0
VERTEX
  8
0
 10
135.718506
 20
4.804297
  0
VERTEX
  8
0
 10
134.277496
 20
4.246406
  0
VERTEX
  8
0
 10
132.956406
 20
3.691641
  0
VERTEX
  8
0
 10
131.724060
 20
3.127656
  0
VERTEX
  8
0
 10
130.548050
 20
2.542734
  0
VERTEX
  8
0
 10
129.405304
 20
1.934844
  0
VERTEX
  8
0
 10
127.723984
 20
1.000000
  0
SEQEND
  8
0
  0
POLYLINE
  8
0
  0
VERTEX
  8
0
 10
106.624451
 20
32.987812
  0
VERTEX
  8
0
 10
105.390701
 20
30.626328
  0
VERTEX
  8
0
 10
104.563515
 20
29.151875
  0
VERTEX
  8
0
 10
104.030701
 20
28.268045
  0
VERTEX
  8
0
 10
103.656090
 20
27.679296
  0
VERTEX
  8
0
 10
102.649063
 20
26.212265
  0
VERTEX
  8
0
 10
102.007111
 20
25.340389
  0
VERTEX
  8
0
 10
101.346481
 20
24.479218
  0
VERTEX
  8
0
 10
100.001717
 20
22.803827
  0
VERTEX
  8
0
 10
98.234451
 20
20.694139
  0
VERTEX
  8
0
 10
95.857338
 20
17.941172
  0
SEQEND
  8
0
  0
POLYLINE
  8
0
  0
VERTEX
  8
0
 10
80.947342
 20
24.419453
  0
VERTEX
  8
0
 10
79.687813
 20
20.972422
  0
SEQEND
  8
0
  0
POLYLINE
  8
0
  0
VERTEX
  8
0
 10
30.126484
 20
91.630623
  0
VERTEX
  8
0
 10
15.602422
 20
91.377106
  0
VERTEX
  8
0
 10
1.078359
 20
91.123589
  0
SEQEND
  8
0
  0
POLYLINE
  8
0
  0
VERTEX
  8
0
 10
93.821167
 20
167.051559
  0
VERTEX
  8
0
 10
95.799370
 20
164.708115
  0
VERTEX
  8
0
 10
97.140388
 20
163.085617
  0
VERTEX
  8
0
 10
98.367889
 20
161.543900
  0
VERTEX
  8
0
 10
99.240150
 20
160.388428
  0
VERTEX
  8
0
 10
99.836716
 20
159.561722
  0
VERTEX
  8
0
 10
100.579994
 20
158.492188
  0
VERTEX
  8
0
 10
102.934372
 20
154.993988
  0
VERTEX
  8
0
 10
105.482422
 20
151.261719
  0
SEQEND
  8
0
  0
POLYLINE
  8
0
  0
VERTEX
  8
0
 10
85.158669
 20
164.270615
  0
VERTEX
  8
0
 10
83.933044
 20
167.755936
  0
SEQEND
  8
0
  0
POLYLINE
  8
0
  0
VERTEX
  8
0
 10
98.947342
 20
817.208984
  0
VERTEX
  8
0
 10
99.821014
 20
830.761169
  0
VERTEX
  8
0
 10
100.909920
 20
847.430542
  0
VERTEX
  8
0
 10
103.730385
 20
847.652039
  0
VERTEX
  8
0
 10
104.036949
 20
852.570862
  0
VERTEX
  8
0
 10
104.672188
 20
862.064575
  0
VERTEX
  8
0
 10
104.914452
 20
865.942688
  0
VERTEX
  8
0
 10
105.112495
 20
869.839417
  0
VERTEX
  8
0
 10
105.172729
 20
871.586609
  0
VERTEX
  8
0
 10
105.203514
 20
873.215515
  0
VERTEX
  8
0
 10
105.198906
 20
875.098328
  0
VERTEX
  8
0
 10
105.154213
 20
876.806152
  0
VERTEX
  8
0
 10
105.061798
 20
878.612305
  0
VERTEX
  8
0
 10
104.941322
 20
880.144836
  0
VERTEX
  8
0
 10
104.812103
 20
881.254150
  0
VERTEX
  8
0
 10
104.639297
 20
882.275391
  0
VERTEX
  8
0
 10
104.406479
 20
883.269287
  0
VERTEX
  8
0
 10
104.167183
 20
884.073364
  0
VERTEX
  8
0
 10
103.794296
 20
885.084351
  0
VERTEX
  8
0
 10
103.527969
 20
885.688782
  0
VERTEX
  8
0
 10
103.331558
 20
886.088989
  0
VERTEX
  8
0
 10
103.007416
 20
886.682800
  0
VERTEX
  8
0
 10
102.770859
 20
887.072998
  0
VERTEX
  8
0
 10
102.384064
 20
887.646912
  0
VERTEX
  8
0
 10
102.104218
 20
888.019897
  0
VERTEX
  8
0
 10
101.650078
 20
888.561523
  0
VERTEX
  8
0
 10
101.323830
 20
888.908813
  0
VERTEX
  8
0
 10
100.978127
 20
889.243591
  0
VERTEX
  8
0
 10
100.612495
 20
889.564453
  0
VERTEX
  8
0
 10
100.226479
 20
889.869995
  0
VERTEX
  8
0
 10
99.820229
 20
890.159180
  0
VERTEX
  8
0
 10
99.396561
 20
890.431702
  0
VERTEX
  8
0
 10
98.959061
 20
890.687317
  0
VERTEX
  8
0
 10
98.056328
 20
891.147583
  0
VERTEX
  8
0
 10
97.598122
 20
891.351868
  0
VERTEX
  8
0
 10
96.912186
 20
891.625671
  0
VERTEX
  8
0
 10
96.460777
 20
891.786133
  0
VERTEX
  8
0
 10
95.799606
 20
891.993958
  0
VERTEX
  8
0
 10
95.145157
 20
892.164185
  0
VERTEX
  8
0
 10
94.700157
 20
892.258667
  0
VERTEX
  8
0
 10
93.755234
 20
892.407227
  0
VERTEX
  8
0
 10
93.240311
 20
892.463623
  0
VERTEX
  8
0
 10
92.393593
 20
892.528809
  0
VERTEX
  8
0
 10
90.730309
 20
892.594849
  0
VERTEX
  8
0
 10
88.788589
 20
892.615540
  0
VERTEX
  8
0
 10
85.840782
 20
892.577698
  0
VERTEX
  8
0
 10
82.925156
 20
892.473816
  0
VERTEX
  8
0
 10
80.499527
 20
892.344482
  0
VERTEX
  8
0
 10
73.492577
 20
891.919189
  0
VERTEX
  8
0
 10
69.400230
 20
891.733154
  0
VERTEX
  8
0
 10
67.181091
 20
891.666016
  0
VERTEX
  8
0
 10
64.829842
 20
891.618958
  0
VERTEX
  8
0
 10
58.934528
 20
891.567871
  0
VERTEX
  8
0
 10
53.639061
 20
891.560913
  0
VERTEX
  8
0
 10
48.602264
 20
891.578979
  0
VERTEX
  8
0
 10
44.112576
 20
891.621948
  0
VERTEX
  8
0
 10
40.362888
 20
891.680786
  0
VERTEX
  8
0
 10
35.599140
 20
891.785156
  0
VERTEX
  8
0
 10
30.194609
 20
891.936157
  0
VERTEX
  8
0
 10
25.678593
 20
892.089539
  0
VERTEX
  8
0
 10
19.586639
 20
892.329102
  0
VERTEX
  8
0
 10
18.440468
 20
892.346436
  0
VERTEX
  8
0
 10
17.316250
 20
892.334106
  0
VERTEX
  8
0
 10
15.912969
 20
892.276611
  0
VERTEX
  8
0
 10
14.242969
 20
892.147583
  0
VERTEX
  8
0
 10
12.872499
 20
891.991333
  0
VERTEX
  8
0
 10
11.539063
 20
891.786560
  0
VERTEX
  8
0
 10
10.270859
 20
891.521912
  0
VERTEX
  8
0
 10
9.322734
 20
891.259033
  0
VERTEX
  8
0
 10
8.449219
 20
890.944336
  0
VERTEX
  8
0
 10
7.652344
 20
890.575989
  0
VERTEX
  8
0
 10
7.098750
 20
890.266052
  0
VERTEX
  8
0
 10
6.410547
 20
889.809875
  0
VERTEX
  8
0
 10
5.925937
 20
889.437073
  0
VERTEX
  8
0
 10
5.313281
 20
888.901123
  0
VERTEX
  8
0
 10
4.735781
 20
888.324280
  0
VERTEX
  8
0
 10
4.195703
 20
887.711060
  0
VERTEX
  8
0
 10
3.695781
 20
887.066223
  0
VERTEX
  8
0
 10
3.238672
 20
886.394409
  0
VERTEX
  8
0
 10
2.826562
 20
885.695374
  0
VERTEX
  8
0
 10
2.547422
 20
885.141785
  0
VERTEX
  8
0
 10
2.293828
 20
884.551453
  0
VERTEX
  8
0
 10
2.065859
 20
883.913940
  0
VERTEX
  8
0
 10
1.863516
 20
883.219055
  0
VERTEX
  8
0
 10
1.686797
 20
882.456360
  0
VERTEX
  8
0
 10
1.534922
 20
881.616760
  0
VERTEX
  8
0
 10
1.406016
 20
880.693359
  0
VERTEX
  8
0
 10
1.297891
 20
879.679260
  0
VERTEX
  8
0
 10
1.182656
 20
878.174255
  0
VERTEX
  8
0
 10
1.115156
 20
876.921936
  0
VERTEX
  8
0
 10
1.047344
 20
875.077393
  0
VERTEX
  8
0
 10
1.007656
 20
873.046875
  0
VERTEX
  8
0
 10
1.000000
 20
871.417542
  0
VERTEX
  8
0
 10
1.014063
 20
869.709351
  0
VERTEX
  8
0
 10
1.052500
 20
867.933350
  0
VERTEX
  8
0
 10
1.145469
 20
865.479614
  0
VERTEX
  8
0
 10
1.318906
 20
862.347107
  0
VERTEX
  8
0
 10
1.950859
 20
853.304565
  0
VERTEX
  8
0
 10
2.309844
 20
847.662842
  0
VERTEX
  8
0
 10
5.316719
 20
847.478333
  0
VERTEX
  8
0
 10
5.957656
 20
839.629333
  0
VERTEX
  8
0
 10
6.777344
 20
827.788208
  0
VERTEX
  8
0
 10
7.637266
 20
816.583984
  0
VERTEX
  8
0
 10
25.455235
 20
817.549805
  0
VERTEX
  8
0
 10
29.215780
 20
817.731445
  0
VERTEX
  8
0
 10
32.514061
 20
817.868896
  0
VERTEX
  8
0
 10
37.092186
 20
818.026184
  0
VERTEX
  8
0
 10
42.976952
 20
818.185120
  0
VERTEX
  8
0
 10
48.769764
 20
818.300476
  0
VERTEX
  8
0
 10
53.158123
 20
818.354492
  0
VERTEX
  8
0
 10
55.624218
 20
818.364258
  0
VERTEX
  8
0
 10
58.082890
 20
818.353821
  0
VERTEX
  8
0
 10
60.633591
 20
818.320313
  0
VERTEX
  8
0
 10
63.375778
 20
818.260986
  0
VERTEX
  8
0
 10
69.791252
 20
818.056519
  0
VERTEX
  8
0
 10
84.283043
 20
817.493347
  0
VERTEX
  8
0
 10
89.243752
 20
817.325500
  0
VERTEX
  8
0
 10
91.635704
 20
817.264648
  0
VERTEX
  8
0
 10
94.286324
 20
817.220215
  0
VERTEX
  8
0
 10
98.947342
 20
817.208984
  0
SEQEND
  8
0
  0
POLYLINE
  8
0
  0
VERTEX
  8
0
 10
53.587811
 20
891.644409
  0
VERTEX
  8
0
 10
53.587811
 20
875.354919
  0
VERTEX
  8
0
 10
53.587811
 20
867.210144
  0
VERTEX
  8
0
 10
53.587811
 20
854.993042
  0
VERTEX
  8
0
 10
53.587811
 20
838.703491
  0
VERTEX
  8
0
 10
53.587811
 20
830.558716
  0
VERTEX
  8
0
 10
53.587811
 20
818.341614
  0
SEQEND
  8
0
  0
POLYLINE
  8
0
  0
VERTEX
  8
0
 10
72.590546
 20
848.661621
  0
VERTEX
  8
0
 10
72.203751
 20
838.070984
  0
VERTEX
  8
0
 10
61.681171
 20
837.932007
  0
SEQEND
  8
0
  0
POLYLINE
  8
0
  0
VERTEX
  8
0
 10
33.349609
 20
848.710449
  0
VERTEX
  8
0
 10
33.744999
 20
837.872253
  0
VERTEX
  8
0
 10
44.220154
 20
837.740662
  0
SEQEND
  8
0
  0
POLYLINE
  8
0
  0
VERTEX
  8
0
 10
100.738045
 20
847.867615
  0
VERTEX
  8
0
 10
101.072182
 20
853.211487
  0
VERTEX
  8
0
 10
101.887108
 20
865.583801
  0
VERTEX
  8
0
 10
102.093277
 20
869.494263
  0
VERTEX
  8
0
 10
102.189140
 20
872.454407
  0
VERTEX
  8
0
 10
102.203354
 20
873.979187
  0
VERTEX
  8
0
 10
102.181641
 20
875.722656
  0
VERTEX
  8
0
 10
102.125854
 20
877.275085
  0
VERTEX
  8
0
 10
102.029137
 20
878.869141
  0
VERTEX
  8
0
 10
101.910934
 20
880.171204
  0
VERTEX
  8
0
 10
101.786324
 20
881.091492
  0
VERTEX
  8
0
 10
101.625465
 20
881.924988
  0
VERTEX
  8
0
 10
101.416641
 20
882.728516
  0
VERTEX
  8
0
 10
101.265312
 20
883.206482
  0
VERTEX
  8
0
 10
101.093437
 20
883.679443
  0
VERTEX
  8
0
 10
100.759293
 20
884.451599
  0
VERTEX
  8
0
 10
100.529060
 20
884.902222
  0
VERTEX
  8
0
 10
100.275467
 20
885.341125
  0
VERTEX
  8
0
 10
99.996407
 20
885.766602
  0
VERTEX
  8
0
 10
99.794922
 20
886.041931
  0
VERTEX
  8
0
 10
99.467262
 20
886.440857
  0
VERTEX
  8
0
 10
99.230698
 20
886.696777
  0
VERTEX
  8
0
 10
98.710236
 20
887.181946
  0
VERTEX
  8
0
 10
98.121719
 20
887.628174
  0
VERTEX
  8
0
 10
97.803360
 20
887.835510
  0
VERTEX
  8
0
 10
97.302734
 20
888.125854
  0
VERTEX
  8
0
 10
96.428749
 20
888.551758
  0
VERTEX
  8
0
 10
95.540932
 20
888.900391
  0
VERTEX
  8
0
 10
94.666954
 20
889.167786
  0
VERTEX
  8
0
 10
93.931557
 20
889.327576
  0
VERTEX
  8
0
 10
93.319923
 20
889.419617
  0
VERTEX
  8
0
 10
92.869530
 20
889.469055
  0
VERTEX
  8
0
 10
91.832733
 20
889.543030
  0
VERTEX
  8
0
 10
90.573906
 20
889.588135
  0
VERTEX
  8
0
 10
88.732887
 20
889.608154
  0
VERTEX
  8
0
 10
85.888123
 20
889.573669
  0
VERTEX
  8
0
 10
83.036949
 20
889.473572
  0
VERTEX
  8
0
 10
80.640465
 20
889.346558
  0
VERTEX
  8
0
 10
73.622810
 20
888.921753
  0
VERTEX
  8
0
 10
69.496635
 20
888.734436
  0
VERTEX
  8
0
 10
67.258751
 20
888.666748
  0
VERTEX
  8
0
 10
64.888985
 20
888.619263
  0
VERTEX
  8
0
 10
58.954685
 20
888.567871
  0
VERTEX
  8
0
 10
53.633827
 20
888.560852
  0
VERTEX
  8
0
 10
48.577969
 20
888.578979
  0
VERTEX
  8
0
 10
44.072498
 20
888.622070
  0
VERTEX
  8
0
 10
40.309219
 20
888.681152
  0
VERTEX
  8
0
 10
35.527813
 20
888.785889
  0
VERTEX
  8
0
 10
30.106874
 20
888.937256
  0
VERTEX
  8
0
 10
25.587500
 20
889.089905
  0
VERTEX
  8
0
 10
19.861874
 20
889.316956
  0
VERTEX
  8
0
 10
18.733515
 20
889.340210
  0
VERTEX
  8
0
 10
17.658983
 20
889.335083
  0
VERTEX
  8
0
 10
16.333359
 20
889.288025
  0
VERTEX
  8
0
 10
15.038906
 20
889.198669
  0
VERTEX
  8
0
 10
13.788359
 20
889.069885
  0
VERTEX
  8
0
 10
12.596719
 20
888.903076
  0
VERTEX
  8
0
 10
11.486172
 20
888.695190
  0
VERTEX
  8
0
 10
10.672421
 20
888.496338
  0
VERTEX
  8
0
 10
9.938359
 20
888.265869
  0
VERTEX
  8
0
 10
9.604531
 20
888.138184
  0
VERTEX
  8
0
 10
9.142656
 20
887.930847
  0
VERTEX
  8
0
 10
8.588515
 20
887.625061
  0
VERTEX
  8
0
 10
8.090390
 20
887.285706
  0
VERTEX
  8
0
 10
7.632031
 20
886.913025
  0
VERTEX
  8
0
 10
7.198828
 20
886.507263
  0
VERTEX
  8
0
 10
6.787500
 20
886.071777
  0
VERTEX
  8
0
 10
6.308594
 20
885.492737
  0
VERTEX
  8
0
 10
5.874140
 20
884.883484
  0
VERTEX
  8
0
 10
5.562109
 20
884.378174
  0
VERTEX
  8
0
 10
5.282031
 20
883.837891
  0
VERTEX
  8
0
 10
5.092266
 20
883.391724
  0
VERTEX
  8
0
 10
4.919375
 20
882.896301
  0
VERTEX
  8
0
 10
4.762813
 20
882.339111
  0
VERTEX
  8
0
 10
4.622188
 20
881.707275
  0
VERTEX
  8
0
 10
4.496875
 20
880.990356
  0
VERTEX
  8
0
 10
4.386484
 20
880.180664
  0
VERTEX
  8
0
 10
4.290469
 20
879.270996
  0
VERTEX
  8
0
 10
4.183750
 20
877.890137
  0
VERTEX
  8
0
 10
4.119062
 20
876.719055
  0
VERTEX
  8
0
 10
4.029219
 20
874.012268
  0
VERTEX
  8
0
 10
4.008281
 20
872.493408
  0
VERTEX
  8
0
 10
4.006875
 20
870.880676
  0
VERTEX
  8
0
 10
4.027656
 20
869.186157
  0
VERTEX
  8
0
 10
4.073359
 20
867.422119
  0
VERTEX
  8
0
 10
4.175937
 20
864.985840
  0
VERTEX
  8
0
 10
4.316875
 20
862.507080
  0
VERTEX
  8
0
 10
4.943438
 20
853.517883
  0
VERTEX
  8
0
 10
5.302031
 20
847.879822
  0
SEQEND
  8
0
  0
POLYLINE
  8
0
  0
VERTEX
  8
0
 10
53.394218
 20
890.590149
  0
VERTEX
  8
0
 10
52.915936
 20
890.494995
  0
VERTEX
  8
0
 10
52.510391
 20
890.223938
  0
VERTEX
  8
0
 10
52.239372
 20
889.818481
  0
VERTEX
  8
0
 10
52.144218
 20
889.340149
  0
VERTEX
  8
0
 10
52.239372
 20
888.861755
  0
VERTEX
  8
0
 10
52.510391
 20
888.456299
  0
VERTEX
  8
0
 10
52.915936
 20
888.185303
  0
VERTEX
  8
0
 10
53.394218
 20
888.090149
  0
VERTEX
  8
0
 10
53.872578
 20
888.185303
  0
VERTEX
  8
0
 10
54.278122
 20
888.456299
  0
VERTEX
  8
0
 10
54.549141
 20
888.861755
  0
VERTEX
  8
0
 10
54.644218
 20
889.340149
  0
VERTEX
  8
0
 10
54.549141
 20
889.818481
  0
VERTEX
  8
0
 10
54.278122
 20
890.223938
  0
VERTEX
  8
0
 10
53.872578
 20
890.494995
  0
VERTEX
  8
0
 10
53.394218
 20
890.590149
  0
SEQEND
  8
0
  0
POLYLINE
  8
0
  0
VERTEX
  8
0
 10
53.572498
 20
822.239258
  0
VERTEX
  8
0
 10
53.094139
 20
822.144104
  0
VERTEX
  8
0
 10
52.688591
 20
821.873169
  0
VERTEX
  8
0
 10
52.417656
 20
821.467712
  0
VERTEX
  8
0
 10
52.322498
 20
820.989258
  0
VERTEX
  8
0
 10
52.417656
 20
820.510986
  0
VERTEX
  8
0
 10
52.688591
 20
820.105469
  0
VERTEX
  8
0
 10
53.094139
 20
819.834412
  0
VERTEX
  8
0
 10
53.572498
 20
819.739258
  0
VERTEX
  8
0
 10
54.050858
 20
819.834412
  0
VERTEX
  8
0
 10
54.456406
 20
820.105469
  0
VERTEX
  8
0
 10
54.727341
 20
820.510986
  0
VERTEX
  8
0
 10
54.822498
 20
820.989258
  0
VERTEX
  8
0
 10
54.727341
 20
821.467712
  0
VERTEX
  8
0
 10
54.456406
 20
821.873169
  0
VERTEX
  8
0
 10
54.050858
 20
822.144104
  0
VERTEX
  8
0
 10
53.572498
 20
822.239258
  0
SEQEND
  8
0
  0
POLYLINE
  8
0
  0
VERTEX
  8
0
 10
110.605621
 20
186.401642
  0
VERTEX
  8
0
 10
110.544525
 20
202.432648
  0
VERTEX
  8
0
 10
110.513901
 20
210.448120
  0
VERTEX
  8
0
 10
110.468124
 20
222.471329
  0
VERTEX
  8
0
 10
110.406952
 20
238.502335
  0
VERTEX
  8
0
 10
110.376404
 20
246.517807
  0
VERTEX
  8
0
 10
110.330467
 20
258.541077
  0
VERTEX
  8
0
 10
128.513123
 20
259.220917
  0
VERTEX
  8
0
 10
128.525620
 20
243.038895
  0
VERTEX
  8
0
 10
128.531876
 20
234.947800
  0
VERTEX
  8
0
 10
128.541321
 20
222.811249
  0
VERTEX
  8
0
 10
128.553909
 20
206.629211
  0
VERTEX
  8
0
 10
128.560150
 20
198.538193
  0
VERTEX
  8
0
 10
128.569534
 20
186.401642
  0
VERTEX
  8
0
 10
110.605621
 20
186.401642
  0
SEQEND
  8
0
  0
POLYLINE
  8
0
  0
VERTEX
  8
0
 10
123.147812
 20
201.315002
  0
VERTEX
  8
0
 10
116.730385
 20
201.184219
  0
SEQEND
  8
0
  0
POLYLINE
  8
0
  0
VERTEX
  8
0
 10
123.323906
 20
229.752655
  0
VERTEX
  8
0
 10
115.628746
 20
229.622726
  0
SEQEND
  8
0
  0
POLYLINE
  8
0
  0
VERTEX
  8
0
 10
1.000000
 20
917.348022
  0
VERTEX
  8
0
 10
3.961015
 20
917.112549
  0
VERTEX
  8
0
 10
5.075000
 20
917.005615
  0
VERTEX
  8
0
 10
6.100078
 20
916.887268
  0
VERTEX
  8
0
 10
6.798984
 20
916.789124
  0
VERTEX
  8
0
 10
7.651093
 20
916.643494
  0
VERTEX
  8
0
 10
8.245546
 20
916.521484
  0
VERTEX
  8
0
 10
9.000859
 20
916.339539
  0
VERTEX
  8
0
 10
9.739062
 20
916.132874
  0
VERTEX
  8
0
 10
10.484531
 20
915.896301
  0
VERTEX
  8
0
 10
11.247890
 20
915.615234
  0
VERTEX
  8
0
 10
11.836640
 20
915.365234
  0
VERTEX
  8
0
 10
12.442656
 20
915.073669
  0
VERTEX
  8
0
 10
13.069219
 20
914.733337
  0
VERTEX
  8
0
 10
13.718750
 20
914.337952
  0
VERTEX
  8
0
 10
14.389062
 20
913.888489
  0
VERTEX
  8
0
 10
15.074843
 20
913.390930
  0
VERTEX
  8
0
 10
16.003437
 20
912.663025
  0
VERTEX
  8
0
 10
16.703594
 20
912.076538
  0
VERTEX
  8
0
 10
17.631407
 20
911.251953
  0
VERTEX
  8
0
 10
18.544531
 20
910.385986
  0
VERTEX
  8
0
 10
19.218281
 20
909.708191
  0
VERTEX
  8
0
 10
19.881796
 20
909.004456
  0
VERTEX
  8
0
 10
20.534374
 20
908.273315
  0
VERTEX
  8
0
 10
21.596094
 20
906.990295
  0
VERTEX
  8
0
 10
22.624687
 20
905.633911
  0
VERTEX
  8
0
 10
23.425625
 20
904.519653
  0
VERTEX
  8
0
 10
25.728750
 20
901.236328
  0
VERTEX
  8
0
 10
27.134531
 20
899.311157
  0
VERTEX
  8
0
 10
28.184843
 20
897.968201
  0
VERTEX
  8
0
 10
28.569921
 20
897.514832
  0
VERTEX
  8
0
 10
28.924530
 20
897.126709
  0
VERTEX
  8
0
 10
29.258436
 20
896.793335
  0
VERTEX
  8
0
 10
29.688202
 20
896.415894
  0
VERTEX
  8
0
 10
30.121405
 20
896.092468
  0
VERTEX
  8
0
 10
30.578047
 20
895.802856
  0
VERTEX
  8
0
 10
31.066874
 20
895.544983
  0
VERTEX
  8
0
 10
31.457811
 20
895.374023
  0
VERTEX
  8
0
 10
32.016407
 20
895.178101
  0
VERTEX
  8
0
 10
32.466248
 20
895.056641
  0
VERTEX
  8
0
 10
33.281094
 20
894.905945
  0
VERTEX
  8
0
 10
34.182968
 20
894.824646
  0
VERTEX
  8
0
 10
35.177498
 20
894.818420
  0
VERTEX
  8
0
 10
36.044064
 20
894.871155
  0
VERTEX
  8
0
 10
37.000546
 20
894.977783
  0
VERTEX
  8
0
 10
38.119141
 20
895.140381
  0
VERTEX
  8
0
 10
44.363045
 20
896.165222
  0
VERTEX
  8
0
 10
48.154297
 20
896.746399
  0
VERTEX
  8
0
 10
51.454609
 20
897.202271
  0
VERTEX
  8
0
 10
54.014999
 20
897.507813
  0
VERTEX
  8
0
 10
55.243984
 20
897.635010
  0
VERTEX
  8
0
 10
57.027187
 20
897.794922
  0
VERTEX
  8
0
 10
58.178825
 20
897.881714
  0
VERTEX
  8
0
 10
59.855701
 20
897.983398
  0
VERTEX
  8
0
 10
62.532421
 20
898.081238
  0
VERTEX
  8
0
 10
65.088127
 20
898.096924
  0
VERTEX
  8
0
 10
66.573280
 20
898.071533
  0
VERTEX
  8
0
 10
68.027184
 20
898.023438
  0
VERTEX
  8
0
 10
70.858047
 20
897.869690
  0
VERTEX
  8
0
 10
74.069527
 20
897.614990
  0
VERTEX
  8
0
 10
76.789917
 20
897.333008
  0
VERTEX
  8
0
 10
79.067657
 20
897.045776
  0
VERTEX
  8
0
 10
81.842026
 20
896.632935
  0
VERTEX
  8
0
 10
84.583122
 20
896.174438
  0
VERTEX
  8
0
 10
90.045624
 20
895.205994
  0
VERTEX
  8
0
 10
92.066559
 20
894.875732
  0
VERTEX
  8
0
 10
93.019760
 20
894.744019
  0
VERTEX
  8
0
 10
93.644684
 20
894.674683
  0
VERTEX
  8
0
 10
94.203125
 20
894.631592
  0
VERTEX
  8
0
 10
94.709999
 20
894.615540
  0
VERTEX
  8
0
 10
95.330933
 20
894.637390
  0
VERTEX
  8
0
 10
96.067810
 20
894.736694
  0
VERTEX
  8
0
 10
96.817032
 20
894.919128
  0
VERTEX
  8
0
 10
97.582497
 20
895.187805
  0
VERTEX
  8
0
 10
98.191635
 20
895.466858
  0
VERTEX
  8
0
 10
98.785934
 20
895.804688
  0
VERTEX
  8
0
 10
99.357033
 20
896.205139
  0
VERTEX
  8
0
 10
99.922890
 20
896.692322
  0
VERTEX
  8
0
 10
100.362656
 20
897.135498
  0
VERTEX
  8
0
 10
100.670624
 20
897.476074
  0
VERTEX
  8
0
 10
101.164375
 20
898.065552
  0
VERTEX
  8
0
 10
101.708359
 20
898.762268
  0
VERTEX
  8
0
 10
102.739761
 20
900.166138
  0
VERTEX
  8
0
 10
105.266716
 20
903.735596
  0
VERTEX
  8
0
 10
106.583588
 20
905.544434
  0
VERTEX
  8
0
 10
107.809532
 20
907.132874
  0
VERTEX
  8
0
 10
108.995781
 20
908.556152
  0
VERTEX
  8
0
 10
109.590309
 20
909.223877
  0
VERTEX
  8
0
 10
110.392891
 20
910.077942
  0
VERTEX
  8
0
 10
111.202652
 20
910.887695
  0
VERTEX
  8
0
 10
112.014839
 20
911.649292
  0
VERTEX
  8
0
 10
112.824135
 20
912.358521
  0
VERTEX
  8
0
 10
113.426636
 20
912.853882
  0
VERTEX
  8
0
 10
114.224525
 20
913.464050
  0
VERTEX
  8
0
 10
114.821404
 20
913.883484
  0
VERTEX
  8
0
 10
115.419220
 20
914.269897
  0
VERTEX
  8
0
 10
116.019920
 20
914.623169
  0
VERTEX
  8
0
 10
116.625465
 20
914.942810
  0
VERTEX
  8
0
 10
117.238510
 20
915.229370
  0
VERTEX
  8
0
 10
117.863907
 20
915.486084
  0
VERTEX
  8
0
 10
118.507027
 20
915.717041
  0
VERTEX
  8
0
 10
119.173592
 20
915.926086
  0
VERTEX
  8
0
 10
120.107964
 20
916.177856
  0
VERTEX
  8
0
 10
121.105469
 20
916.407227
  0
VERTEX
  8
0
 10
122.416405
 20
916.664429
  0
VERTEX
  8
0
 10
123.466873
 20
916.840088
  0
VERTEX
  8
0
 10
124.713905
 20
917.012695
  0
VERTEX
  8
0
 10
125.609604
 20
917.106689
  0
VERTEX
  8
0
 10
126.403511
 20
917.163086
  0
VERTEX
  8
0
 10
127.290077
 20
917.194641
  0
VERTEX
  8
0
 10
128.361877
 20
917.199097
  0
VERTEX
  8
0
 10
127.237183
 20
920.753662
  0
VERTEX
  8
0
 10
126.678589
 20
922.407959
  0
VERTEX
  8
0
 10
126.241089
 20
923.629211
  0
VERTEX
  8
0
 10
125.626717
 20
925.223572
  0
VERTEX
  8
0
 10
125.144531
 20
926.379822
  0
VERTEX
  8
0
 10
124.651405
 20
927.483032
  0
VERTEX
  8
0
 10
124.154373
 20
928.515625
  0
VERTEX
  8
0
 10
123.660309
 20
929.459961
  0
VERTEX
  8
0
 10
123.176247
 20
930.298401
  0
VERTEX
  8
0
 10
122.708122
 20
931.014954
  0
VERTEX
  8
0
 10
122.249527
 20
931.613098
  0
VERTEX
  8
0
 10
121.942261
 20
931.953796
  0
VERTEX
  8
0
 10
121.468513
 20
932.389893
  0
VERTEX
  8
0
 10
120.966713
 20
932.750183
  0
VERTEX
  8
0
 10
120.422813
 20
933.050842
  0
VERTEX
  8
0
 10
119.822578
 20
933.307861
  0
VERTEX
  8
0
 10
119.387810
 20
933.460938
  0
VERTEX
  8
0
 10
118.927734
 20
933.600891
  0
VERTEX
  8
0
 10
118.196167
 20
933.788757
  0
VERTEX
  8
0
 10
117.157265
 20
934.002930
  0
VERTEX
  8
0
 10
116.065392
 20
934.183472
  0
VERTEX
  8
0
 10
114.654060
 20
934.373413
  0
VERTEX
  8
0
 10
113.468277
 20
934.496704
  0
VERTEX
  8
0
 10
112.186874
 20
934.588501
  0
VERTEX
  8
0
 10
110.767029
 20
934.642883
  0
VERTEX
  8
0
 10
109.166245
 20
934.654297
  0
VERTEX
  8
0
 10
107.372650
 20
934.624207
  0
VERTEX
  8
0
 10
100.812340
 20
934.440552
  0
VERTEX
  8
0
 10
98.268745
 20
934.417542
  0
VERTEX
  8
0
 10
95.878670
 20
934.431702
  0
VERTEX
  8
0
 10
92.998512
 20
934.491089
  0
VERTEX
  8
0
 10
90.633125
 20
934.587952
  0
VERTEX
  8
0
 10
89.776794
 20
934.654663
  0
VERTEX
  8
0
 10
89.241402
 20
934.717407
  0
VERTEX
  8
0
 10
88.776794
 20
934.793823
  0
VERTEX
  8
0
 10
88.364845
 20
934.886719
  0
VERTEX
  8
0
 10
87.991402
 20
935.002136
  0
VERTEX
  8
0
 10
87.758438
 20
935.095764
  0
VERTEX
  8
0
 10
87.424294
 20
935.267395
  0
VERTEX
  8
0
 10
87.206955
 20
935.406311
  0
VERTEX
  8
0
 10
86.990074
 20
935.567627
  0
VERTEX
  8
0
 10
86.658279
 20
935.857117
  0
VERTEX
  8
0
 10
86.309532
 20
936.210388
  0
VERTEX
  8
0
 10
86.066406
 20
936.481750
  0
VERTEX
  8
0
 10
85.431168
 20
937.276489
  0
VERTEX
  8
0
 10
84.772888
 20
938.220032
  0
VERTEX
  8
0
 10
84.243355
 20
939.067932
  0
VERTEX
  8
0
 10
82.907417
 20
941.378357
  0
VERTEX
  8
0
 10
82.476013
 20
942.046143
  0
VERTEX
  8
0
 10
82.173592
 20
942.466125
  0
VERTEX
  8
0
 10
81.692345
 20
943.043396
  0
VERTEX
  8
0
 10
81.350235
 20
943.385742
  0
VERTEX
  8
0
 10
80.803589
 20
943.836487
  0
VERTEX
  8
0
 10
80.216408
 20
944.218628
  0
VERTEX
  8
0
 10
79.802261
 20
944.439270
  0
VERTEX
  8
0
 10
79.369843
 20
944.635071
  0
VERTEX
  8
0
 10
78.919060
 20
944.808472
  0
VERTEX
  8
0
 10
78.449760
 20
944.961609
  0
VERTEX
  8
0
 10
77.961876
 20
945.096924
  0
VERTEX
  8
0
 10
77.454140
 20
945.216370
  0
VERTEX
  8
0
 10
76.357651
 20
945.411438
  0
VERTEX
  8
0
 10
75.111557
 20
945.553162
  0
VERTEX
  8
0
 10
73.666016
 20
945.647766
  0
VERTEX
  8
0
 10
71.971245
 20
945.701355
  0
VERTEX
  8
0
 10
70.000153
 20
945.720276
  0
VERTEX
  8
0
 10
66.671486
 20
945.699890
  0
VERTEX
  8
0
 10
62.571247
 20
945.632996
  0
VERTEX
  8
0
 10
57.634140
 20
945.527771
  0
VERTEX
  8
0
 10
54.496563
 20
945.425842
  0
VERTEX
  8
0
 10
52.828827
 20
945.332703
  0
VERTEX
  8
0
 10
51.857811
 20
945.239929
  0
VERTEX
  8
0
 10
51.468513
 20
945.185059
  0
VERTEX
  8
0
 10
50.976952
 20
945.090149
  0
VERTEX
  8
0
 10
50.696247
 20
945.017090
  0
VERTEX
  8
0
 10
50.320702
 20
944.890747
  0
VERTEX
  8
0
 10
49.970078
 20
944.741943
  0
VERTEX
  8
0
 10
49.623047
 20
944.566833
  0
VERTEX
  8
0
 10
49.276875
 20
944.360779
  0
VERTEX
  8
0
 10
48.930546
 20
944.118835
  0
VERTEX
  8
0
 10
48.582966
 20
943.835999
  0
VERTEX
  8
0
 10
48.233280
 20
943.507385
  0
VERTEX
  8
0
 10
47.998280
 20
943.260498
  0
VERTEX
  8
0
 10
47.643280
 20
942.847107
  0
VERTEX
  8
0
 10
47.051094
 20
942.062073
  0
VERTEX
  8
0
 10
46.357891
 20
941.011841
  0
VERTEX
  8
0
 10
45.811638
 20
940.094177
  0
VERTEX
  8
0
 10
44.892498
 20
938.464355
  0
VERTEX
  8
0
 10
44.371483
 20
937.621155
  0
VERTEX
  8
0
 10
44.040077
 20
937.151672
  0
VERTEX
  8
0
 10
43.807655
 20
936.857239
  0
VERTEX
  8
0
 10
43.309998
 20
936.315674
  0
VERTEX
  8
0
 10
42.903828
 20
935.952026
  0
VERTEX
  8
0
 10
42.615547
 20
935.730347
  0
VERTEX
  8
0
 10
42.154060
 20
935.429749
  0
VERTEX
  8
0
 10
41.825546
 20
935.250977
  0
VERTEX
  8
0
 10
41.479141
 20
935.090027
  0
VERTEX
  8
0
 10
40.926563
 20
934.881714
  0
VERTEX
  8
0
 10
40.344376
 20
934.710938
  0
VERTEX
  8
0
 10
39.745937
 20
934.574829
  0
VERTEX
  8
0
 10
39.144218
 20
934.470520
  0
VERTEX
  8
0
 10
38.359531
 20
934.375854
  0
VERTEX
  8
0
 10
37.620781
 20
934.325684
  0
VERTEX
  8
0
 10
36.895626
 20
934.312195
  0
VERTEX
  8
0
 10
30.416483
 20
934.502380
  0
VERTEX
  8
0
 10
23.740936
 20
934.639893
  0
VERTEX
  8
0
 10
19.523750
 20
934.682373
  0
VERTEX
  8
0
 10
17.857578
 20
934.674011
  0
VERTEX
  8
0
 10
16.344374
 20
934.643005
  0
VERTEX
  8
0
 10
14.986172
 20
934.584412
  0
VERTEX
  8
0
 10
14.061172
 20
934.519104
  0
VERTEX
  8
0
 10
13.210000
 20
934.432800
  0
VERTEX
  8
0
 10
12.426719
 20
934.323181
  0
VERTEX
  8
0
 10
11.705390
 20
934.188049
  0
VERTEX
  8
0
 10
11.040625
 20
934.025513
  0
VERTEX
  8
0
 10
10.428281
 20
933.837708
  0
VERTEX
  8
0
 10
9.864609
 20
933.626770
  0
VERTEX
  8
0
 10
9.182500
 20
933.314331
  0
VERTEX
  8
0
 10
8.868750
 20
933.146301
  0
VERTEX
  8
0
 10
8.429140
 20
932.881775
  0
VERTEX
  8
0
 10
7.893047
 20
932.502380
  0
VERTEX
  8
0
 10
7.395234
 20
932.064026
  0
VERTEX
  8
0
 10
6.913750
 20
931.530579
  0
VERTEX
  8
0
 10
6.550000
 20
931.046326
  0
VERTEX
  8
0
 10
6.044140
 20
930.259644
  0
VERTEX
  8
0
 10
5.641875
 20
929.551636
  0
VERTEX
  8
0
 10
5.080078
 20
928.455811
  0
VERTEX
  8
0
 10
4.497500
 20
927.196777
  0
VERTEX
  8
0
 10
3.903125
 20
925.785400
  0
VERTEX
  8
0
 10
3.455000
 20
924.633728
  0
VERTEX
  8
0
 10
3.007500
 20
923.410400
  0
VERTEX
  8
0
 10
2.412031
 20
921.689148
  0
VERTEX
  8
0
 10
1.000000
 20
917.348022
  0
SEQEND
  8
0
  0
POLYLINE
  8
0
  0
VERTEX
  8
0
 10
64.659218
 20
897.892334
  0
VERTEX
  8
0
 10
64.659218
 20
908.492310
  0
VERTEX
  8
0
 10
64.659218
 20
921.742432
  0
VERTEX
  8
0
 10
64.659218
 20
932.342468
  0
VERTEX
  8
0
 10
64.659218
 20
945.592529
  0
SEQEND
  8
0
  0
POLYLINE
  8
0
  0
VERTEX
  8
0
 10
61.537579
 20
927.136597
  0
VERTEX
  8
0
 10
67.464531
 20
926.971619
  0
SEQEND
  8
0
  0
POLYLINE
  8
0
  0
VERTEX
  8
0
 10
60.642654
 20
906.923645
  0
VERTEX
  8
0
 10
68.357346
 20
906.894531
  0
SEQEND
  8
0
  0
POLYLINE
  8
0
  0
VERTEX
  8
0
 10
1.314375
 20
921.335388
  0
VERTEX
  8
0
 10
4.446640
 20
921.090210
  0
VERTEX
  8
0
 10
5.626563
 20
920.976563
  0
VERTEX
  8
0
 10
6.733515
 20
920.847107
  0
VERTEX
  8
0
 10
7.754453
 20
920.697632
  0
VERTEX
  8
0
 10
8.474375
 20
920.569763
  0
VERTEX
  8
0
 10
9.394140
 20
920.374756
  0
VERTEX
  8
0
 10
10.292188
 20
920.148010
  0
VERTEX
  8
0
 10
11.194609
 20
919.885315
  0
VERTEX
  8
0
 10
12.120000
 20
919.578369
  0
VERTEX
  8
0
 10
12.831327
 20
919.309692
  0
VERTEX
  8
0
 10
13.558437
 20
919.000366
  0
VERTEX
  8
0
 10
14.302265
 20
918.643311
  0
VERTEX
  8
0
 10
15.063516
 20
918.231567
  0
VERTEX
  8
0
 10
15.842734
 20
917.758789
  0
VERTEX
  8
0
 10
16.636641
 20
917.227173
  0
VERTEX
  8
0
 10
17.439453
 20
916.644043
  0
VERTEX
  8
0
 10
18.245468
 20
916.016907
  0
VERTEX
  8
0
 10
19.048750
 20
915.353394
  0
VERTEX
  8
0
 10
19.843750
 20
914.661011
  0
VERTEX
  8
0
 10
20.624687
 20
913.946777
  0
VERTEX
  8
0
 10
21.389217
 20
913.212952
  0
VERTEX
  8
0
 10
22.136719
 20
912.458496
  0
VERTEX
  8
0
 10
22.866718
 20
911.682373
  0
VERTEX
  8
0
 10
24.043282
 20
910.337891
  0
VERTEX
  8
0
 10
24.724218
 20
909.498962
  0
VERTEX
  8
0
 10
25.386171
 20
908.638916
  0
VERTEX
  8
0
 10
26.447811
 20
907.184875
  0
VERTEX
  8
0
 10
28.419218
 20
904.371704
  0
VERTEX
  8
0
 10
29.493437
 20
902.870300
  0
VERTEX
  8
0
 10
30.434139
 20
901.602478
  0
VERTEX
  8
0
 10
31.187265
 20
900.643311
  0
VERTEX
  8
0
 10
31.805937
 20
899.943054
  0
VERTEX
  8
0
 10
32.068279
 20
899.693237
  0
VERTEX
  8
0
 10
32.290936
 20
899.513000
  0
VERTEX
  8
0
 10
32.545391
 20
899.339111
  0
VERTEX
  8
0
 10
32.805000
 20
899.196411
  0
VERTEX
  8
0
 10
33.099140
 20
899.078735
  0
VERTEX
  8
0
 10
33.378750
 20
898.998901
  0
VERTEX
  8
0
 10
34.008438
 20
898.886963
  0
VERTEX
  8
0
 10
34.730389
 20
898.842529
  0
VERTEX
  8
0
 10
35.488594
 20
898.864258
  0
VERTEX
  8
0
 10
36.422421
 20
898.956787
  0
VERTEX
  8
0
 10
37.934063
 20
899.177063
  0
VERTEX
  8
0
 10
44.368279
 20
900.219727
  0
VERTEX
  8
0
 10
48.274139
 20
900.807800
  0
VERTEX
  8
0
 10
51.645233
 20
901.260620
  0
VERTEX
  8
0
 10
52.962341
 20
901.417542
  0
VERTEX
  8
0
 10
54.876247
 20
901.620605
  0
VERTEX
  8
0
 10
57.321091
 20
901.832886
  0
VERTEX
  8
0
 10
59.656094
 20
901.981628
  0
VERTEX
  8
0
 10
61.895000
 20
902.070679
  0
VERTEX
  8
0
 10
64.579216
 20
902.103821
  0
VERTEX
  8
0
 10
66.137344
 20
902.086060
  0
VERTEX
  8
0
 10
67.661095
 20
902.043640
  0
VERTEX
  8
0
 10
69.154762
 20
901.979370
  0
VERTEX
  8
0
 10
70.622185
 20
901.896057
  0
VERTEX
  8
0
 10
72.067657
 20
901.796631
  0
VERTEX
  8
0
 10
73.968048
 20
901.642395
  0
VERTEX
  8
0
 10
75.848907
 20
901.462036
  0
VERTEX
  8
0
 10
77.254372
 20
901.307861
  0
VERTEX
  8
0
 10
79.602188
 20
901.011780
  0
VERTEX
  8
0
 10
82.448433
 20
900.588562
  0
VERTEX
  8
0
 10
84.784454
 20
900.201050
  0
VERTEX
  8
0
 10
90.010307
 20
899.282227
  0
VERTEX
  8
0
 10
92.280861
 20
898.905457
  0
VERTEX
  8
0
 10
93.666870
 20
898.714722
  0
VERTEX
  8
0
 10
94.226563
 20
898.664490
  0
VERTEX
  8
0
 10
94.658203
 20
898.651306
  0
VERTEX
  8
0
 10
95.077812
 20
898.678040
  0
VERTEX
  8
0
 10
95.435776
 20
898.742004
  0
VERTEX
  8
0
 10
95.788589
 20
898.838501
  0
VERTEX
  8
0
 10
96.147339
 20
898.977478
  0
VERTEX
  8
0
 10
96.516792
 20
899.170898
  0
VERTEX
  8
0
 10
96.823830
 20
899.373718
  0
VERTEX
  8
0
 10
97.157967
 20
899.646484
  0
VERTEX
  8
0
 10
97.444374
 20
899.924683
  0
VERTEX
  8
0
 10
98.028198
 20
900.587219
  0
VERTEX
  8
0
 10
98.796875
 20
901.577881
  0
VERTEX
  8
0
 10
99.769997
 20
902.919189
  0
VERTEX
  8
0
 10
102.267029
 20
906.432495
  0
VERTEX
  8
0
 10
103.607651
 20
908.251648
  0
VERTEX
  8
0
 10
104.895859
 20
909.900696
  0
VERTEX
  8
0
 10
105.534920
 20
910.674561
  0
VERTEX
  8
0
 10
106.178276
 20
911.421753
  0
VERTEX
  8
0
 10
107.051872
 20
912.384521
  0
VERTEX
  8
0
 10
107.719917
 20
913.081909
  0
VERTEX
  8
0
 10
108.625542
 20
913.976318
  0
VERTEX
  8
0
 10
109.314369
 20
914.618408
  0
VERTEX
  8
0
 10
110.243279
 20
915.433594
  0
VERTEX
  8
0
 10
110.946404
 20
916.012268
  0
VERTEX
  8
0
 10
111.892494
 20
916.736389
  0
VERTEX
  8
0
 10
112.609451
 20
917.241211
  0
VERTEX
  8
0
 10
113.333588
 20
917.710938
  0
VERTEX
  8
0
 10
114.065781
 20
918.143188
  0
VERTEX
  8
0
 10
114.806793
 20
918.535889
  0
VERTEX
  8
0
 10
115.557808
 20
918.888000
  0
VERTEX
  8
0
 10
116.322266
 20
919.203003
  0
VERTEX
  8
0
 10
117.103828
 20
919.485046
  0
VERTEX
  8
0
 10
117.906250
 20
919.738831
  0
VERTEX
  8
0
 10
119.015312
 20
920.040833
  0
VERTEX
  8
0
 10
120.176094
 20
920.310547
  0
VERTEX
  8
0
 10
121.371796
 20
920.550903
  0
VERTEX
  8
0
 10
122.560776
 20
920.757813
  0
VERTEX
  8
0
 10
123.972733
 20
920.962219
  0
VERTEX
  8
0
 10
124.990936
 20
921.076843
  0
VERTEX
  8
0
 10
126.094688
 20
921.159851
  0
VERTEX
  8
0
 10
127.058197
 20
921.193481
  0
VERTEX
  8
0
 10
128.282654
 20
921.196960
  0
SEQEND
  8
0
  0
POLYLINE
  8
0
  0
VERTEX
  8
0
 10
74.386719
 20
942.610657
  0
VERTEX
  8
0
 10
74.291557
 20
943.089050
  0
VERTEX
  8
0
 10
74.020622
 20
943.494568
  0
VERTEX
  8
0
 10
73.615074
 20
943.765503
  0
VERTEX
  8
0
 10
73.136719
 20
943.860657
  0
VERTEX
  8
0
 10
72.658356
 20
943.765503
  0
VERTEX
  8
0
 10
72.252808
 20
943.494568
  0
VERTEX
  8
0
 10
71.981873
 20
943.089050
  0
VERTEX
  8
0
 10
71.886719
 20
942.610657
  0
VERTEX
  8
0
 10
71.981873
 20
942.132324
  0
VERTEX
  8
0
 10
72.252808
 20
941.726746
  0
VERTEX
  8
0
 10
72.658356
 20
941.455811
  0
VERTEX
  8
0
 10
73.136719
 20
941.360657
  0
VERTEX
  8
0
 10
73.615074
 20
941.455811
  0
VERTEX
  8
0
 10
74.020622
 20
941.726746
  0
VERTEX
  8
0
 10
74.291557
 20
942.132324
  0
VERTEX
  8
0
 10
74.386719
 20
942.610657
  0
SEQEND
  8
0
  0
POLYLINE
  8
0
  0
VERTEX
  8
0
 10
57.386406
 20
942.689148
  0
VERTEX
  8
0
 10
57.291248
 20
943.167542
  0
VERTEX
  8
0
 10
57.020233
 20
943.572998
  0
VERTEX
  8
0
 10
56.614685
 20
943.843933
  0
VERTEX
  8
0
 10
56.136406
 20
943.939148
  0
VERTEX
  8
0
 10
55.657967
 20
943.843933
  0
VERTEX
  8
0
 10
55.252499
 20
943.572998
  0
VERTEX
  8
0
 10
54.981560
 20
943.167542
  0
VERTEX
  8
0
 10
54.886406
 20
942.689148
  0
VERTEX
  8
0
 10
54.981560
 20
942.210815
  0
VERTEX
  8
0
 10
55.252499
 20
941.805298
  0
VERTEX
  8
0
 10
55.657967
 20
941.534302
  0
VERTEX
  8
0
 10
56.136406
 20
941.439148
  0
VERTEX
  8
0
 10
56.614685
 20
941.534302
  0
VERTEX
  8
0
 10
57.020233
 20
941.805298
  0
VERTEX
  8
0
 10
57.291248
 20
942.210815
  0
VERTEX
  8
0
 10
57.386406
 20
942.689148
  0
SEQEND
  8
0
  0
POLYLINE
  8
0
  0
VERTEX
  8
0
 10
65.970314
 20
900.888672
  0
VERTEX
  8
0
 10
65.875153
 20
901.367065
  0
VERTEX
  8
0
 10
65.604218
 20
901.772583
  0
VERTEX
  8
0
 10
65.198746
 20
902.043518
  0
VERTEX
  8
0
 10
64.720314
 20
902.138672
  0
VERTEX
  8
0
 10
64.242027
 20
902.043518
  0
VERTEX
  8
0
 10
63.836483
 20
901.772583
  0
VERTEX
  8
0
 10
63.565468
 20
901.367065
  0
VERTEX
  8
0
 10
63.470310
 20
900.888672
  0
VERTEX
  8
0
 10
63.565468
 20
900.410400
  0
VERTEX
  8
0
 10
63.836483
 20
900.004822
  0
VERTEX
  8
0
 10
64.242027
 20
899.733826
  0
VERTEX
  8
0
 10
64.720314
 20
899.638672
  0
VERTEX
  8
0
 10
65.198746
 20
899.733826
  0
VERTEX
  8
0
 10
65.604218
 20
900.004822
  0
VERTEX
  8
0
 10
65.875153
 20
900.410400
  0
VERTEX
  8
0
 10
65.970314
 20
900.888672
  0
SEQEND
  8
0
  0
POLYLINE
  8
0
  0
VERTEX
  8
0
 10
103.646797
 20
186.844833
  0
VERTEX
  8
0
 10
104.687500
 20
201.367416
  0
VERTEX
  8
0
 10
105.988434
 20
219.520615
  0
VERTEX
  8
0
 10
107.029213
 20
234.043274
  0
VERTEX
  8
0
 10
108.330154
 20
252.196472
  0
VERTEX
  8
0
 10
93.834450
 20
264.958679
  0
VERTEX
  8
0
 10
95.760468
 20
280.525452
  0
VERTEX
  8
0
 10
97.115776
 20
291.711792
  0
VERTEX
  8
0
 10
98.574135
 20
304.067413
  0
VERTEX
  8
0
 10
100.335388
 20
319.146698
  0
VERTEX
  8
0
 10
101.519684
 20
329.054535
  0
VERTEX
  8
0
 10
102.161949
 20
334.209290
  0
VERTEX
  8
0
 10
102.912498
 20
339.881073
  0
VERTEX
  8
0
 10
103.552963
 20
344.404602
  0
VERTEX
  8
0
 10
104.577576
 20
351.366241
  0
VERTEX
  8
0
 10
104.998985
 20
354.476868
  0
VERTEX
  8
0
 10
105.288124
 20
356.829041
  0
VERTEX
  8
0
 10
105.645859
 20
359.990845
  0
VERTEX
  8
0
 10
107.274605
 20
375.825775
  0
VERTEX
  8
0
 10
98.222656
 20
380.862030
  0
VERTEX
  8
0
 10
90.465469
 20
385.157959
  0
VERTEX
  8
0
 10
84.317657
 20
388.539520
  0
VERTEX
  8
0
 10
71.640625
 20
395.473114
  0
VERTEX
  8
0
 10
64.758438
 20
399.270935
  0
VERTEX
  8
0
 10
56.410702
 20
403.942322
  0
VERTEX
  8
0
 10
43.859764
 20
411.035919
  0
VERTEX
  8
0
 10
35.201954
 20
394.464844
  0
VERTEX
  8
0
 10
30.197344
 20
384.858276
  0
VERTEX
  8
0
 10
25.178593
 20
375.181702
  0
VERTEX
  8
0
 10
20.555079
 20
366.252808
  0
VERTEX
  8
0
 10
13.233281
 20
352.155762
  0
VERTEX
  8
0
 10
10.494687
 20
353.532166
  0
VERTEX
  8
0
 10
8.857968
 20
350.695465
  0
VERTEX
  8
0
 10
7.536562
 20
348.357819
  0
VERTEX
  8
0
 10
6.472031
 20
346.410309
  0
VERTEX
  8
0
 10
5.456797
 20
344.471558
  0
VERTEX
  8
0
 10
4.511172
 20
342.582092
  0
VERTEX
  8
0
 10
3.500156
 20
340.448578
  0
VERTEX
  8
0
 10
2.658047
 20
338.534760
  0
VERTEX
  8
0
 10
2.095312
 20
337.116333
  0
VERTEX
  8
0
 10
1.657422
 20
335.836639
  0
VERTEX
  8
0
 10
1.395781
 20
334.898743
  0
VERTEX
  8
0
 10
1.210234
 20
334.024536
  0
VERTEX
  8
0
 10
1.068984
 20
332.994690
  0
VERTEX
  8
0
 10
1.023203
 20
332.396698
  0
VERTEX
  8
0
 10
1.000078
 20
331.803986
  0
VERTEX
  8
0
 10
1.005547
 20
330.601410
  0
VERTEX
  8
0
 10
1.076094
 20
329.740936
  0
VERTEX
  8
0
 10
1.149609
 20
329.275543
  0
VERTEX
  8
0
 10
1.257031
 20
328.778900
  0
VERTEX
  8
0
 10
1.495625
 20
327.962189
  0
VERTEX
  8
0
 10
1.846172
 20
327.041473
  0
VERTEX
  8
0
 10
2.152500
 20
326.360291
  0
VERTEX
  8
0
 10
2.724531
 20
325.235687
  0
VERTEX
  8
0
 10
3.176406
 20
324.424042
  0
VERTEX
  8
0
 10
3.951875
 20
323.125610
  0
VERTEX
  8
0
 10
4.834765
 20
321.743896
  0
VERTEX
  8
0
 10
5.813906
 20
320.294678
  0
VERTEX
  8
0
 10
6.514765
 20
319.298981
  0
VERTEX
  8
0
 10
7.630156
 20
317.771545
  0
VERTEX
  8
0
 10
8.817266
 20
316.205536
  0
VERTEX
  8
0
 10
10.072031
 20
314.596802
  0
VERTEX
  8
0
 10
12.303046
 20
311.809204
  0
VERTEX
  8
0
 10
18.717733
 20
303.933899
  0
VERTEX
  8
0
 10
22.077108
 20
299.764221
  0
VERTEX
  8
0
 10
24.533125
 20
296.636230
  0
VERTEX
  8
0
 10
25.581406
 20
295.259521
  0
VERTEX
  8
0
 10
26.529764
 20
293.980621
  0
VERTEX
  8
0
 10
27.667812
 20
292.389435
  0
VERTEX
  8
0
 10
28.697889
 20
290.879517
  0
VERTEX
  8
0
 10
29.657108
 20
289.402405
  0
VERTEX
  8
0
 10
30.556719
 20
287.948212
  0
VERTEX
  8
0
 10
31.394920
 20
286.526855
  0
VERTEX
  8
0
 10
32.353359
 20
284.812347
  0
VERTEX
  8
0
 10
33.209217
 20
283.183746
  0
VERTEX
  8
0
 10
33.820389
 20
281.939301
  0
VERTEX
  8
0
 10
34.496170
 20
280.435150
  0
VERTEX
  8
0
 10
34.968594
 20
279.256714
  0
VERTEX
  8
0
 10
35.382576
 20
278.085388
  0
VERTEX
  8
0
 10
35.565624
 20
277.495850
  0
VERTEX
  8
0
 10
35.729843
 20
276.898499
  0
VERTEX
  8
0
 10
35.872890
 20
276.289368
  0
VERTEX
  8
0
 10
35.992500
 20
275.664459
  0
VERTEX
  8
0
 10
36.122967
 20
274.688660
  0
VERTEX
  8
0
 10
36.187813
 20
273.654755
  0
VERTEX
  8
0
 10
36.179295
 20
272.549774
  0
VERTEX
  8
0
 10
36.132969
 20
271.775146
  0
VERTEX
  8
0
 10
36.058907
 20
270.983032
  0
VERTEX
  8
0
 10
35.961952
 20
270.185699
  0
VERTEX
  8
0
 10
35.784374
 20
269.006470
  0
VERTEX
  8
0
 10
35.442421
 20
267.187958
  0
VERTEX
  8
0
 10
35.236404
 20
266.251953
  0
VERTEX
  8
0
 10
34.986248
 20
265.244446
  0
VERTEX
  8
0
 10
34.815079
 20
264.647644
  0
VERTEX
  8
0
 10
34.653126
 20
264.159302
  0
VERTEX
  8
0
 10
34.496326
 20
263.754303
  0
VERTEX
  8
0
 10
34.340389
 20
263.407654
  0
VERTEX
  8
0
 10
34.126797
 20
262.994049
  0
VERTEX
  8
0
 10
33.903748
 20
262.607880
  0
VERTEX
  8
0
 10
32.927341
 20
261.128113
  0
VERTEX
  8
0
 10
33.353279
 20
252.469681
  0
VERTEX
  8
0
 10
33.210701
 20
252.158203
  0
VERTEX
  8
0
 10
33.065235
 20
251.890228
  0
VERTEX
  8
0
 10
32.738670
 20
251.423126
  0
VERTEX
  8
0
 10
32.316875
 20
250.944214
  0
VERTEX
  8
0
 10
31.620703
 20
250.265930
  0
VERTEX
  8
0
 10
30.787655
 20
249.541870
  0
VERTEX
  8
0
 10
29.894531
 20
248.845856
  0
VERTEX
  8
0
 10
29.090780
 20
248.302338
  0
VERTEX
  8
0
 10
28.331093
 20
247.861557
  0
VERTEX
  8
0
 10
27.401875
 20
247.389374
  0
VERTEX
  8
0
 10
26.242968
 20
246.861481
  0
VERTEX
  8
0
 10
24.846405
 20
246.273743
  0
VERTEX
  8
0
 10
22.912422
 20
245.506561
  0
VERTEX
  8
0
 10
21.343985
 20
244.913269
  0
VERTEX
  8
0
 10
19.530937
 20
244.259598
  0
VERTEX
  8
0
 10
18.276171
 20
243.831406
  0
VERTEX
  8
0
 10
15.590547
 20
242.950302
  0
VERTEX
  8
0
 10
14.280937
 20
242.497345
  0
VERTEX
  8
0
 10
12.933125
 20
241.988739
  0
VERTEX
  8
0
 10
11.632734
 20
241.439529
  0
VERTEX
  8
0
 10
10.913906
 20
241.097809
  0
VERTEX
  8
0
 10
10.265781
 20
240.751709
  0
VERTEX
  8
0
 10
9.881484
 20
240.520462
  0
VERTEX
  8
0
 10
9.375156
 20
240.176163
  0
VERTEX
  8
0
 10
8.945469
 20
239.839523
  0
VERTEX
  8
0
 10
8.476953
 20
239.411240
  0
VERTEX
  8
0
 10
8.109610
 20
239.017181
  0
VERTEX
  8
0
 10
7.761328
 20
238.580383
  0
VERTEX
  8
0
 10
7.647422
 20
238.396942
  0
VERTEX
  8
0
 10
7.543281
 20
238.183426
  0
VERTEX
  8
0
 10
7.398438
 20
237.768982
  0
VERTEX
  8
0
 10
7.209844
 20
236.950073
  0
VERTEX
  8
0
 10
7.057734
 20
236.060699
  0
VERTEX
  8
0
 10
6.757891
 20
233.930389
  0
VERTEX
  8
0
 10
5.921797
 20
227.379456
  0
VERTEX
  8
0
 10
5.495156
 20
224.219681
  0
VERTEX
  8
0
 10
5.055000
 20
221.235535
  0
VERTEX
  8
0
 10
4.512500
 20
217.898666
  0
VERTEX
  8
0
 10
4.050859
 20
215.319763
  0
VERTEX
  8
0
 10
3.583047
 20
212.914444
  0
VERTEX
  8
0
 10
3.015625
 20
210.197189
  0
VERTEX
  8
0
 10
2.349453
 20
207.149521
  0
VERTEX
  8
0
 10
14.717343
 20
203.236328
  0
VERTEX
  8
0
 10
24.045858
 20
200.339447
  0
VERTEX
  8
0
 10
30.856796
 20
198.298584
  0
VERTEX
  8
0
 10
35.118828
 20
197.064377
  0
VERTEX
  8
0
 10
38.579216
 20
196.085693
  0
VERTEX
  8
0
 10
43.542969
 20
194.715546
  0
VERTEX
  8
0
 10
47.434296
 20
193.670074
  0
VERTEX
  8
0
 10
51.384060
 20
192.637497
  0
VERTEX
  8
0
 10
55.315079
 20
191.643127
  0
VERTEX
  8
0
 10
59.149998
 20
190.712021
  0
VERTEX
  8
0
 10
61.615547
 20
190.139053
  0
VERTEX
  8
0
 10
63.993748
 20
189.608978
  0
VERTEX
  8
0
 10
67.398201
 20
188.894058
  0
VERTEX
  8
0
 10
69.560936
 20
188.470459
  0
VERTEX
  8
0
 10
71.639214
 20
188.089142
  0
VERTEX
  8
0
 10
74.600777
 20
187.595383
  0
VERTEX
  8
0
 10
76.472733
 20
187.318115
  0
VERTEX
  8
0
 10
78.263901
 20
187.082031
  0
VERTEX
  8
0
 10
79.975464
 20
186.886719
  0
VERTEX
  8
0
 10
81.611794
 20
186.730301
  0
VERTEX
  8
0
 10
83.941246
 20
186.560699
  0
VERTEX
  8
0
 10
85.421715
 20
186.485550
  0
VERTEX
  8
0
 10
87.552658
 20
186.420547
  0
VERTEX
  8
0
 10
89.598282
 20
186.401947
  0
VERTEX
  8
0
 10
91.583900
 20
186.417191
  0
VERTEX
  8
0
 10
94.178436
 20
186.470627
  0
VERTEX
  8
0
 10
96.734138
 20
186.549911
  0
VERTEX
  8
0
 10
103.646797
 20
186.844833
  0
SEQEND
  8
0
  0
POLYLINE
  8
0
  0
VERTEX
  8
0
 10
106.383980
 20
367.166412
  0
VERTEX
  8
0
 10
94.340073
 20
373.867493
  0
VERTEX
  8
0
 10
86.599762
 20
378.153900
  0
VERTEX
  8
0
 10
80.470390
 20
381.525299
  0
VERTEX
  8
0
 10
67.788589
 20
388.461395
  0
VERTEX
  8
0
 10
60.872421
 20
392.277954
  0
VERTEX
  8
0
 10
52.489140
 20
396.969360
  0
VERTEX
  8
0
 10
40.153126
 20
403.941406
  0
SEQEND
  8
0
  0
POLYLINE
  8
0
  0
VERTEX
  8
0
 10
96.315620
 20
248.456085
  0
VERTEX
  8
0
 10
88.389450
 20
256.466095
  0
VERTEX
  8
0
 10
86.689682
 20
258.207031
  0
VERTEX
  8
0
 10
85.377892
 20
259.578339
  0
VERTEX
  8
0
 10
84.031563
 20
261.021942
  0
VERTEX
  8
0
 10
82.648201
 20
262.552094
  0
VERTEX
  8
0
 10
81.225311
 20
264.183197
  0
VERTEX
  8
0
 10
79.762344
 20
265.922638
  0
VERTEX
  8
0
 10
77.762886
 20
268.374146
  0
VERTEX
  8
0
 10
71.645935
 20
276.019135
  0
VERTEX
  8
0
 10
64.763824
 20
284.394928
  0
VERTEX
  8
0
 10
63.344841
 20
286.173523
  0
VERTEX
  8
0
 10
62.430779
 20
287.364380
  0
VERTEX
  8
0
 10
61.631405
 20
288.454926
  0
VERTEX
  8
0
 10
61.155388
 20
289.136627
  0
VERTEX
  8
0
 10
60.720310
 20
289.789520
  0
VERTEX
  8
0
 10
60.135468
 20
290.728424
  0
VERTEX
  8
0
 10
59.784920
 20
291.336395
  0
VERTEX
  8
0
 10
59.308750
 20
292.236176
  0
VERTEX
  8
0
 10
58.887341
 20
293.124695
  0
VERTEX
  8
0
 10
58.519688
 20
293.998596
  0
VERTEX
  8
0
 10
58.110703
 20
295.134827
  0
VERTEX
  8
0
 10
57.791874
 20
296.230164
  0
VERTEX
  8
0
 10
57.560234
 20
297.276093
  0
VERTEX
  8
0
 10
57.409607
 20
298.266083
  0
VERTEX
  8
0
 10
57.331013
 20
299.195465
  0
VERTEX
  8
0
 10
57.315857
 20
299.636078
  0
VERTEX
  8
0
 10
57.320076
 20
300.265137
  0
VERTEX
  8
0
 10
57.390388
 20
301.227814
  0
VERTEX
  8
0
 10
57.476250
 20
301.798737
  0
VERTEX
  8
0
 10
57.559608
 20
302.217102
  0
VERTEX
  8
0
 10
57.734531
 20
302.953339
  0
VERTEX
  8
0
 10
57.982029
 20
303.882813
  0
VERTEX
  8
0
 10
58.920078
 20
307.193268
  0
VERTEX
  8
0
 10
60.177891
 20
311.532654
  0
VERTEX
  8
0
 10
61.524685
 20
316.051483
  0
VERTEX
  8
0
 10
62.452888
 20
319.086792
  0
VERTEX
  8
0
 10
63.464844
 20
322.324066
  0
VERTEX
  8
0
 10
66.731323
 20
332.542664
  0
VERTEX
  8
0
 10
68.083984
 20
336.850861
  0
VERTEX
  8
0
 10
69.236641
 20
340.700378
  0
VERTEX
  8
0
 10
69.920860
 20
343.174591
  0
VERTEX
  8
0
 10
70.292892
 20
344.629669
  0
VERTEX
  8
0
 10
70.738205
 20
346.548431
  0
VERTEX
  8
0
 10
71.064606
 20
348.183807
  0
VERTEX
  8
0
 10
71.290543
 20
349.573029
  0
VERTEX
  8
0
 10
71.394295
 20
350.381012
  0
VERTEX
  8
0
 10
71.466949
 20
351.107330
  0
VERTEX
  8
0
 10
71.513359
 20
351.762329
  0
VERTEX
  8
0
 10
71.535545
 20
352.353821
  0
VERTEX
  8
0
 10
71.535622
 20
352.888977
  0
VERTEX
  8
0
 10
71.514999
 20
353.374756
  0
VERTEX
  8
0
 10
71.475548
 20
353.818512
  0
VERTEX
  8
0
 10
71.418983
 20
354.227264
  0
VERTEX
  8
0
 10
71.305542
 20
354.790161
  0
VERTEX
  8
0
 10
71.163124
 20
355.314209
  0
VERTEX
  8
0
 10
70.989761
 20
355.826477
  0
VERTEX
  8
0
 10
70.841484
 20
356.180145
  0
VERTEX
  8
0
 10
70.652969
 20
356.558105
  0
VERTEX
  8
0
 10
70.412575
 20
356.972504
  0
VERTEX
  8
0
 10
70.108124
 20
357.435760
  0
VERTEX
  8
0
 10
69.727814
 20
357.960236
  0
VERTEX
  8
0
 10
69.259689
 20
358.558044
  0
VERTEX
  8
0
 10
68.691948
 20
359.241638
  0
VERTEX
  8
0
 10
67.221405
 20
360.901489
  0
VERTEX
  8
0
 10
65.333359
 20
362.903961
  0
VERTEX
  8
0
 10
64.254372
 20
364.003418
  0
VERTEX
  8
0
 10
63.097107
 20
365.151703
  0
VERTEX
  8
0
 10
61.233356
 20
366.939209
  0
VERTEX
  8
0
 10
59.242188
 20
368.767975
  0
VERTEX
  8
0
 10
57.858593
 20
369.989990
  0
VERTEX
  8
0
 10
55.715076
 20
371.812347
  0
VERTEX
  8
0
 10
53.503124
 20
373.623901
  0
VERTEX
  8
0
 10
51.237263
 20
375.427032
  0
VERTEX
  8
0
 10
48.932343
 20
377.223755
  0
VERTEX
  8
0
 10
45.043827
 20
380.210938
  0
SEQEND
  8
0
  0
POLYLINE
  8
0
  0
VERTEX
  8
0
 10
71.217186
 20
267.688751
  0
VERTEX
  8
0
 10
70.223907
 20
264.183807
  0
VERTEX
  8
0
 10
69.551872
 20
261.631805
  0
VERTEX
  8
0
 10
69.175468
 20
260.065765
  0
VERTEX
  8
0
 10
68.938980
 20
259.003113
  0
VERTEX
  8
0
 10
68.507027
 20
256.830780
  0
VERTEX
  8
0
 10
68.221870
 20
255.191238
  0
VERTEX
  8
0
 10
67.971405
 20
253.583115
  0
VERTEX
  8
0
 10
67.757423
 20
252.042969
  0
VERTEX
  8
0
 10
67.581169
 20
250.607025
  0
VERTEX
  8
0
 10
67.444214
 20
249.311798
  0
VERTEX
  8
0
 10
67.347733
 20
248.181870
  0
VERTEX
  8
0
 10
67.292107
 20
247.194366
  0
VERTEX
  8
0
 10
67.277267
 20
246.315079
  0
VERTEX
  8
0
 10
67.290077
 20
245.771866
  0
VERTEX
  8
0
 10
67.343437
 20
244.995926
  0
VERTEX
  8
0
 10
67.437737
 20
244.236160
  0
VERTEX
  8
0
 10
67.573357
 20
243.459442
  0
VERTEX
  8
0
 10
67.754295
 20
242.651245
  0
VERTEX
  8
0
 10
67.903358
 20
242.093430
  0
VERTEX
  8
0
 10
68.174065
 20
241.226395
  0
VERTEX
  8
0
 10
68.388824
 20
240.626953
  0
VERTEX
  8
0
 10
68.633278
 20
240.009445
  0
VERTEX
  8
0
 10
68.909294
 20
239.372879
  0
VERTEX
  8
0
 10
69.218750
 20
238.716873
  0
VERTEX
  8
0
 10
69.561874
 20
238.041397
  0
VERTEX
  8
0
 10
70.323044
 20
236.651398
  0
VERTEX
  8
0
 10
72.298279
 20
233.208908
  0
VERTEX
  8
0
 10
72.803200
 20
232.262100
  0
VERTEX
  8
0
 10
73.362579
 20
231.099915
  0
VERTEX
  8
0
 10
73.598282
 20
230.560303
  0
VERTEX
  8
0
 10
73.904060
 20
229.800156
  0
VERTEX
  8
0
 10
74.160309
 20
229.096161
  0
VERTEX
  8
0
 10
74.375542
 20
228.445068
  0
VERTEX
  8
0
 10
74.712967
 20
227.271011
  0
VERTEX
  8
0
 10
74.835464
 20
226.681564
  0
VERTEX
  8
0
 10
74.897263
 20
226.255157
  0
VERTEX
  8
0
 10
74.956795
 20
225.529602
  0
VERTEX
  8
0
 10
74.972733
 20
224.967499
  0
VERTEX
  8
0
 10
74.957657
 20
223.971161
  0
VERTEX
  8
0
 10
74.919998
 20
223.184219
  0
VERTEX
  8
0
 10
74.732735
 20
220.795547
  0
VERTEX
  8
0
 10
74.434448
 20
217.945938
  0
VERTEX
  8
0
 10
74.052658
 20
214.814453
  0
VERTEX
  8
0
 10
73.521721
 20
210.922104
  0
VERTEX
  8
0
 10
72.940079
 20
206.992966
  0
VERTEX
  8
0
 10
72.123436
 20
201.725616
  0
SEQEND
  8
0
  0
POLYLINE
  8
0
  0
VERTEX
  8
0
 10
47.328358
 20
210.990311
  0
VERTEX
  8
0
 10
47.766327
 20
212.784210
  0
VERTEX
  8
0
 10
48.087811
 20
214.228897
  0
VERTEX
  8
0
 10
48.291641
 20
215.322891
  0
VERTEX
  8
0
 10
48.428593
 20
216.339523
  0
VERTEX
  8
0
 10
48.489452
 20
217.264297
  0
VERTEX
  8
0
 10
48.480782
 20
218.094910
  0
VERTEX
  8
0
 10
48.411327
 20
218.830154
  0
VERTEX
  8
0
 10
48.356483
 20
219.161560
  0
VERTEX
  8
0
 10
48.252266
 20
219.613113
  0
VERTEX
  8
0
 10
48.123516
 20
220.012177
  0
VERTEX
  8
0
 10
47.967812
 20
220.372025
  0
VERTEX
  8
0
 10
47.781406
 20
220.708511
  0
VERTEX
  8
0
 10
47.478516
 20
221.148041
  0
VERTEX
  8
0
 10
47.105701
 20
221.611954
  0
VERTEX
  8
0
 10
46.656170
 20
222.133667
  0
VERTEX
  8
0
 10
44.613438
 20
224.417419
  0
VERTEX
  8
0
 10
43.832500
 20
225.319992
  0
VERTEX
  8
0
 10
43.155312
 20
226.187332
  0
VERTEX
  8
0
 10
42.867344
 20
226.612106
  0
VERTEX
  8
0
 10
42.697266
 20
226.893204
  0
VERTEX
  8
0
 10
42.478279
 20
227.313828
  0
VERTEX
  8
0
 10
42.356560
 20
227.598282
  0
VERTEX
  8
0
 10
42.209454
 20
228.042892
  0
VERTEX
  8
0
 10
42.134296
 20
228.358200
  0
VERTEX
  8
0
 10
42.054920
 20
228.871643
  0
VERTEX
  8
0
 10
42.023594
 20
229.247879
  0
VERTEX
  8
0
 10
42.009060
 20
229.656876
  0
VERTEX
  8
0
 10
42.017654
 20
230.342102
  0
VERTEX
  8
0
 10
42.066795
 20
231.126953
  0
VERTEX
  8
0
 10
42.127811
 20
231.712341
  0
VERTEX
  8
0
 10
42.215858
 20
232.352020
  0
VERTEX
  8
0
 10
42.334454
 20
233.050156
  0
VERTEX
  8
0
 10
42.487419
 20
233.810699
  0
VERTEX
  8
0
 10
42.678516
 20
234.637726
  0
VERTEX
  8
0
 10
42.911327
 20
235.535156
  0
VERTEX
  8
0
 10
43.189529
 20
236.507187
  0
VERTEX
  8
0
 10
43.692421
 20
238.100464
  0
VERTEX
  8
0
 10
44.476326
 20
240.387024
  0
VERTEX
  8
0
 10
46.680313
 20
246.435074
  0
VERTEX
  8
0
 10
47.278904
 20
248.129364
  0
VERTEX
  8
0
 10
47.838047
 20
249.849915
  0
VERTEX
  8
0
 10
48.167576
 20
251.019684
  0
VERTEX
  8
0
 10
48.364216
 20
251.836472
  0
VERTEX
  8
0
 10
48.530468
 20
252.643661
  0
VERTEX
  8
0
 10
48.713203
 20
253.730148
  0
VERTEX
  8
0
 10
48.816563
 20
254.532883
  0
VERTEX
  8
0
 10
48.886482
 20
255.306320
  0
VERTEX
  8
0
 10
48.919060
 20
256.033051
  0
VERTEX
  8
0
 10
48.910076
 20
256.696014
  0
VERTEX
  8
0
 10
48.855545
 20
257.279846
  0
VERTEX
  8
0
 10
48.792656
 20
257.627411
  0
VERTEX
  8
0
 10
48.657265
 20
258.101257
  0
VERTEX
  8
0
 10
48.471249
 20
258.536255
  0
VERTEX
  8
0
 10
48.232891
 20
258.953125
  0
VERTEX
  8
0
 10
47.940701
 20
259.372406
  0
VERTEX
  8
0
 10
47.592968
 20
259.814514
  0
VERTEX
  8
0
 10
47.041248
 20
260.458191
  0
VERTEX
  8
0
 10
46.560310
 20
260.980225
  0
VERTEX
  8
0
 10
46.021328
 20
261.533661
  0
VERTEX
  8
0
 10
45.423672
 20
262.116791
  0
VERTEX
  8
0
 10
44.766560
 20
262.727509
  0
VERTEX
  8
0
 10
44.050076
 20
263.363831
  0
VERTEX
  8
0
 10
42.187889
 20
264.927887
  0
VERTEX
  8
0
 10
39.571014
 20
267.031555
  0
SEQEND
  8
0
  0
POLYLINE
  8
0
  0
VERTEX
  8
0
 10
96.892807
 20
195.504532
  0
VERTEX
  8
0
 10
82.814140
 20
195.880936
  0
SEQEND
  8
0
  0
POLYLINE
  8
0
  0
VERTEX
  8
0
 10
69.392891
 20
197.696091
  0
VERTEX
  8
0
 10
54.784920
 20
200.894363
  0
SEQEND
  8
0
  0
POLYLINE
  8
0
  0
VERTEX
  8
0
 10
38.998360
 20
205.184998
  0
VERTEX
  8
0
 10
33.960545
 20
206.544220
  0
VERTEX
  8
0
 10
32.186874
 20
202.098206
  0
SEQEND
  8
0
  0
POLYLINE
  8
0
  0
VERTEX
  8
0
 10
13.911406
 20
351.450470
  0
VERTEX
  8
0
 10
11.268046
 20
346.831879
  0
VERTEX
  8
0
 10
10.216562
 20
344.920685
  0
VERTEX
  8
0
 10
9.412031
 20
343.403107
  0
VERTEX
  8
0
 10
8.470000
 20
341.552338
  0
VERTEX
  8
0
 10
7.621171
 20
339.804047
  0
VERTEX
  8
0
 10
6.759531
 20
337.919281
  0
VERTEX
  8
0
 10
6.191016
 20
336.568359
  0
VERTEX
  8
0
 10
5.829844
 20
335.621857
  0
VERTEX
  8
0
 10
5.487187
 20
334.587036
  0
VERTEX
  8
0
 10
5.293750
 20
333.863342
  0
VERTEX
  8
0
 10
5.139922
 20
333.065216
  0
VERTEX
  8
0
 10
5.049609
 20
332.214355
  0
VERTEX
  8
0
 10
5.014843
 20
331.017426
  0
VERTEX
  8
0
 10
5.051328
 20
330.438202
  0
VERTEX
  8
0
 10
5.101094
 20
330.113678
  0
VERTEX
  8
0
 10
5.180312
 20
329.756622
  0
VERTEX
  8
0
 10
5.295000
 20
329.360229
  0
VERTEX
  8
0
 10
5.451484
 20
328.917175
  0
VERTEX
  8
0
 10
5.778125
 20
328.150604
  0
VERTEX
  8
0
 10
6.228984
 20
327.246704
  0
VERTEX
  8
0
 10
6.802031
 20
326.213593
  0
VERTEX
  8
0
 10
7.744453
 20
324.660217
  0
VERTEX
  8
0
 10
8.576250
 20
323.382019
  0
VERTEX
  8
0
 10
9.507656
 20
322.022797
  0
VERTEX
  8
0
 10
10.531953
 20
320.596954
  0
VERTEX
  8
0
 10
12.031562
 20
318.605164
  0
VERTEX
  8
0
 10
14.103046
 20
315.965851
  0
VERTEX
  8
0
 10
16.370155
 20
313.153595
  0
VERTEX
  8
0
 10
22.843359
 20
305.198578
  0
VERTEX
  8
0
 10
24.771952
 20
302.801880
  0
VERTEX
  8
0
 10
26.542500
 20
300.569916
  0
VERTEX
  8
0
 10
28.100233
 20
298.561401
  0
VERTEX
  8
0
 10
29.139843
 20
297.184540
  0
VERTEX
  8
0
 10
30.087421
 20
295.894592
  0
VERTEX
  8
0
 10
31.235624
 20
294.271484
  0
VERTEX
  8
0
 10
32.031952
 20
293.098206
  0
VERTEX
  8
0
 10
33.035156
 20
291.555084
  0
VERTEX
  8
0
 10
33.980389
 20
290.029205
  0
VERTEX
  8
0
 10
34.866249
 20
288.529510
  0
VERTEX
  8
0
 10
35.691639
 20
287.064758
  0
VERTEX
  8
0
 10
36.636326
 20
285.295624
  0
VERTEX
  8
0
 10
37.322186
 20
283.926880
  0
VERTEX
  8
0
 10
37.947186
 20
282.580475
  0
VERTEX
  8
0
 10
38.376953
 20
281.574219
  0
VERTEX
  8
0
 10
38.645157
 20
280.900696
  0
VERTEX
  8
0
 10
39.138203
 20
279.536804
  0
VERTEX
  8
0
 10
39.361874
 20
278.841492
  0
VERTEX
  8
0
 10
39.566795
 20
278.133575
  0
VERTEX
  8
0
 10
39.832577
 20
277.041962
  0
VERTEX
  8
0
 10
40.039452
 20
275.906158
  0
VERTEX
  8
0
 10
40.177265
 20
274.716797
  0
VERTEX
  8
0
 10
40.235779
 20
273.464355
  0
VERTEX
  8
0
 10
40.206406
 20
272.141724
  0
VERTEX
  8
0
 10
40.141094
 20
271.231079
  0
VERTEX
  8
0
 10
40.045547
 20
270.311554
  0
VERTEX
  8
0
 10
39.925156
 20
269.395691
  0
VERTEX
  8
0
 10
39.709923
 20
268.055847
  0
VERTEX
  8
0
 10
39.551327
 20
267.203278
  0
VERTEX
  8
0
 10
39.304531
 20
266.016571
  0
VERTEX
  8
0
 10
39.063202
 20
264.977264
  0
VERTEX
  8
0
 10
38.765076
 20
263.843597
  0
VERTEX
  8
0
 10
38.555389
 20
263.153900
  0
VERTEX
  8
0
 10
38.353279
 20
262.574524
  0
VERTEX
  8
0
 10
38.154766
 20
262.081024
  0
VERTEX
  8
0
 10
37.956249
 20
261.648590
  0
VERTEX
  8
0
 10
37.685310
 20
261.128204
  0
VERTEX
  8
0
 10
37.406563
 20
260.650146
  0
VERTEX
  8
0
 10
37.050312
 20
260.094849
  0
VERTEX
  8
0
 10
36.616638
 20
259.461395
  0
SEQEND
  8
0
  0
POLYLINE
  8
0
  0
VERTEX
  8
0
 10
52.277969
 20
376.369995
  0
VERTEX
  8
0
 10
51.791641
 20
376.333740
  0
VERTEX
  8
0
 10
51.356171
 20
376.114380
  0
VERTEX
  8
0
 10
51.037735
 20
375.744843
  0
VERTEX
  8
0
 10
50.884998
 20
375.281555
  0
VERTEX
  8
0
 10
50.921093
 20
374.795319
  0
VERTEX
  8
0
 10
51.140701
 20
374.359680
  0
VERTEX
  8
0
 10
51.510155
 20
374.041412
  0
VERTEX
  8
0
 10
51.973358
 20
373.888580
  0
VERTEX
  8
0
 10
52.459686
 20
373.924683
  0
VERTEX
  8
0
 10
52.895157
 20
374.144196
  0
VERTEX
  8
0
 10
53.213593
 20
374.513733
  0
VERTEX
  8
0
 10
53.366325
 20
374.976868
  0
VERTEX
  8
0
 10
53.330235
 20
375.463287
  0
VERTEX
  8
0
 10
53.110622
 20
375.898895
  0
VERTEX
  8
0
 10
52.741169
 20
376.217194
  0
VERTEX
  8
0
 10
52.277969
 20
376.369995
  0
SEQEND
  8
0
  0
POLYLINE
  8
0
  0
VERTEX
  8
0
 10
45.777969
 20
396.146698
  0
VERTEX
  8
0
 10
45.291485
 20
396.110626
  0
VERTEX
  8
0
 10
44.856014
 20
395.891083
  0
VERTEX
  8
0
 10
44.537655
 20
395.521545
  0
VERTEX
  8
0
 10
44.384922
 20
395.058441
  0
VERTEX
  8
0
 10
44.421093
 20
394.572021
  0
VERTEX
  8
0
 10
44.640545
 20
394.136383
  0
VERTEX
  8
0
 10
45.009998
 20
393.818115
  0
VERTEX
  8
0
 10
45.473282
 20
393.665314
  0
VERTEX
  8
0
 10
45.959610
 20
393.701569
  0
VERTEX
  8
0
 10
46.395157
 20
393.921082
  0
VERTEX
  8
0
 10
46.713516
 20
394.290466
  0
VERTEX
  8
0
 10
46.866249
 20
394.753754
  0
VERTEX
  8
0
 10
46.830154
 20
395.240143
  0
VERTEX
  8
0
 10
46.610546
 20
395.675629
  0
VERTEX
  8
0
 10
46.241093
 20
395.994049
  0
VERTEX
  8
0
 10
45.777969
 20
396.146698
  0
SEQEND
  8
0
  0
POLYLINE
  8
0
  0
VERTEX
  8
0
 10
15.369531
 20
352.016022
  0
VERTEX
  8
0
 10
14.883046
 20
351.979828
  0
VERTEX
  8
0
 10
14.447577
 20
351.760315
  0
VERTEX
  8
0
 10
14.129218
 20
351.390930
  0
VERTEX
  8
0
 10
13.976484
 20
350.927643
  0
VERTEX
  8
0
 10
14.012656
 20
350.441315
  0
VERTEX
  8
0
 10
14.232109
 20
350.005768
  0
VERTEX
  8
0
 10
14.601563
 20
349.687347
  0
VERTEX
  8
0
 10
15.064843
 20
349.534607
  0
VERTEX
  8
0
 10
15.551171
 20
349.570770
  0
VERTEX
  8
0
 10
15.986718
 20
349.790375
  0
VERTEX
  8
0
 10
16.305079
 20
350.159851
  0
VERTEX
  8
0
 10
16.457811
 20
350.622955
  0
VERTEX
  8
0
 10
16.421719
 20
351.109436
  0
VERTEX
  8
0
 10
16.202108
 20
351.544922
  0
VERTEX
  8
0
 10
15.832656
 20
351.863281
  0
VERTEX
  8
0
 10
15.369531
 20
352.016022
  0
SEQEND
  8
0
  0
POLYLINE
  8
0
  0
VERTEX
  8
0
 10
82.061485
 20
595.124939
  0
VERTEX
  8
0
 10
82.408279
 20
580.377563
  0
VERTEX
  8
0
 10
82.593124
 20
570.445374
  0
VERTEX
  8
0
 10
82.661171
 20
565.426453
  0
VERTEX
  8
0
 10
82.707344
 20
560.351929
  0
VERTEX
  8
0
 10
82.723595
 20
555.161621
  0
VERTEX
  8
0
 10
82.713043
 20
551.602234
  0
VERTEX
  8
0
 10
82.658516
 20
546.062561
  0
VERTEX
  8
0
 10
82.592422
 20
542.204895
  0
VERTEX
  8
0
 10
82.499374
 20
538.191650
  0
VERTEX
  8
0
 10
82.376404
 20
534.001526
  0
VERTEX
  8
0
 10
82.221169
 20
529.615234
  0
VERTEX
  8
0
 10
82.033669
 20
525.045837
  0
VERTEX
  8
0
 10
81.816559
 20
520.338867
  0
VERTEX
  8
0
 10
81.572495
 20
515.541443
  0
VERTEX
  8
0
 10
81.304375
 20
510.700531
  0
VERTEX
  8
0
 10
81.015152
 20
505.863037
  0
VERTEX
  8
0
 10
80.547340
 20
498.716248
  0
VERTEX
  8
0
 10
80.047417
 20
491.841705
  0
VERTEX
  8
0
 10
79.700935
 20
487.486389
  0
VERTEX
  8
0
 10
79.345779
 20
483.323669
  0
VERTEX
  8
0
 10
78.982346
 20
479.314056
  0
VERTEX
  8
0
 10
78.421951
 20
473.495941
  0
VERTEX
  8
0
 10
76.432808
 20
454.125702
  0
VERTEX
  8
0
 10
75.376167
 20
443.444458
  0
VERTEX
  8
0
 10
74.070076
 20
429.715393
  0
VERTEX
  8
0
 10
72.518669
 20
413.036407
  0
VERTEX
  8
0
 10
65.846718
 20
420.017487
  0
VERTEX
  8
0
 10
61.218670
 20
424.896393
  0
VERTEX
  8
0
 10
57.668282
 20
428.680695
  0
VERTEX
  8
0
 10
54.302498
 20
432.320526
  0
VERTEX
  8
0
 10
50.390781
 20
436.630524
  0
VERTEX
  8
0
 10
46.816326
 20
440.648102
  0
VERTEX
  8
0
 10
43.587185
 20
444.346558
  0
VERTEX
  8
0
 10
40.170155
 20
448.339203
  0
VERTEX
  8
0
 10
37.198513
 20
451.908051
  0
VERTEX
  8
0
 10
35.005623
 20
454.629059
  0
VERTEX
  8
0
 10
33.793201
 20
456.176788
  0
VERTEX
  8
0
 10
32.650936
 20
457.671234
  0
VERTEX
  8
0
 10
30.908438
 20
460.044281
  0
VERTEX
  8
0
 10
29.963514
 20
461.397339
  0
VERTEX
  8
0
 10
29.377031
 20
462.269684
  0
VERTEX
  8
0
 10
28.564375
 20
463.533813
  0
VERTEX
  8
0
 10
28.068281
 20
464.346619
  0
VERTEX
  8
0
 10
27.608749
 20
465.136017
  0
VERTEX
  8
0
 10
26.986406
 20
466.276642
  0
VERTEX
  8
0
 10
26.614922
 20
467.008728
  0
VERTEX
  8
0
 10
26.120859
 20
468.065521
  0
VERTEX
  8
0
 10
25.832344
 20
468.743103
  0
VERTEX
  8
0
 10
25.575624
 20
469.399689
  0
VERTEX
  8
0
 10
25.349844
 20
470.035461
  0
VERTEX
  8
0
 10
25.154219
 20
470.651093
  0
VERTEX
  8
0
 10
24.986795
 20
471.246307
  0
VERTEX
  8
0
 10
24.782499
 20
472.098724
  0
VERTEX
  8
0
 10
24.673515
 20
472.639038
  0
VERTEX
  8
0
 10
24.543436
 20
473.405212
  0
VERTEX
  8
0
 10
24.445313
 20
474.115936
  0
VERTEX
  8
0
 10
24.326328
 20
475.169434
  0
VERTEX
  8
0
 10
24.293282
 20
475.560394
  0
VERTEX
  8
0
 10
24.280155
 20
475.973022
  0
VERTEX
  8
0
 10
24.297733
 20
476.440155
  0
VERTEX
  8
0
 10
24.356562
 20
476.994904
  0
VERTEX
  8
0
 10
24.545313
 20
478.063110
  0
VERTEX
  8
0
 10
24.886250
 20
479.513519
  0
VERTEX
  8
0
 10
25.415390
 20
481.457092
  0
VERTEX
  8
0
 10
26.154140
 20
483.963501
  0
VERTEX
  8
0
 10
27.402657
 20
488.005310
  0
VERTEX
  8
0
 10
28.846170
 20
492.545227
  0
VERTEX
  8
0
 10
30.368593
 20
497.253571
  0
VERTEX
  8
0
 10
35.594376
 20
513.173401
  0
VERTEX
  8
0
 10
37.050312
 20
517.652100
  0
VERTEX
  8
0
 10
38.404610
 20
521.959290
  0
VERTEX
  8
0
 10
39.277187
 20
524.910156
  0
VERTEX
  8
0
 10
39.714531
 20
526.517517
  0
VERTEX
  8
0
 10
40.040859
 20
527.858948
  0
VERTEX
  8
0
 10
40.269062
 20
528.990540
  0
VERTEX
  8
0
 10
40.414295
 20
529.976685
  0
VERTEX
  8
0
 10
40.460625
 20
530.435547
  0
VERTEX
  8
0
 10
40.502499
 20
531.103638
  0
VERTEX
  8
0
 10
40.515858
 20
531.770691
  0
VERTEX
  8
0
 10
40.506329
 20
532.222229
  0
VERTEX
  8
0
 10
40.477264
 20
532.681152
  0
VERTEX
  8
0
 10
40.424530
 20
533.149109
  0
VERTEX
  8
0
 10
40.292030
 20
533.871704
  0
VERTEX
  8
0
 10
40.162029
 20
534.369507
  0
VERTEX
  8
0
 10
39.993904
 20
534.882202
  0
VERTEX
  8
0
 10
39.661015
 20
535.682556
  0
VERTEX
  8
0
 10
39.222813
 20
536.523682
  0
VERTEX
  8
0
 10
38.683826
 20
537.402039
  0
VERTEX
  8
0
 10
38.052578
 20
538.312195
  0
VERTEX
  8
0
 10
37.584610
 20
538.934143
  0
VERTEX
  8
0
 10
37.081951
 20
539.565918
  0
VERTEX
  8
0
 10
36.268360
 20
540.529358
  0
VERTEX
  8
0
 10
35.083046
 20
541.836304
  0
VERTEX
  8
0
 10
34.102421
 20
542.852966
  0
VERTEX
  8
0
 10
33.006874
 20
543.938965
  0
VERTEX
  8
0
 10
31.762421
 20
545.129883
  0
VERTEX
  8
0
 10
29.813202
 20
546.942200
  0
VERTEX
  8
0
 10
25.425312
 20
550.925049
  0
VERTEX
  8
0
 10
15.285937
 20
560.024414
  0
VERTEX
  8
0
 10
11.884609
 20
563.099121
  0
VERTEX
  8
0
 10
8.811015
 20
565.942383
  0
VERTEX
  8
0
 10
6.678515
 20
568.003967
  0
VERTEX
  8
0
 10
5.126016
 20
569.581970
  0
VERTEX
  8
0
 10
3.791797
 20
571.008057
  0
VERTEX
  8
0
 10
2.709219
 20
572.238037
  0
VERTEX
  8
0
 10
1.908672
 20
573.233032
  0
VERTEX
  8
0
 10
1.667187
 20
573.570862
  0
VERTEX
  8
0
 10
1.467109
 20
573.883789
  0
VERTEX
  8
0
 10
1.306016
 20
574.178162
  0
VERTEX
  8
0
 10
1.181172
 20
574.460693
  0
VERTEX
  8
0
 10
1.090234
 20
574.737854
  0
VERTEX
  8
0
 10
1.030547
 20
575.016174
  0
VERTEX
  8
0
 10
0.999766
 20
575.301941
  0
VERTEX
  8
0
 10
1.002656
 20
575.758484
  0
VERTEX
  8
0
 10
1.036094
 20
576.085876
  0
VERTEX
  8
0
 10
1.094922
 20
576.432861
  0
VERTEX
  8
0
 10
1.289766
 20
577.191650
  0
VERTEX
  8
0
 10
1.588594
 20
578.044312
  0
VERTEX
  8
0
 10
1.777344
 20
578.508972
  0
VERTEX
  8
0
 10
2.110391
 20
579.257080
  0
VERTEX
  8
0
 10
2.501094
 20
580.068359
  0
VERTEX
  8
0
 10
3.100781
 20
581.246155
  0
VERTEX
  8
0
 10
7.847812
 20
590.298340
  0
VERTEX
  8
0
 10
8.376640
 20
591.256165
  0
VERTEX
  8
0
 10
9.012734
 20
592.344116
  0
VERTEX
  8
0
 10
9.572109
 20
593.231018
  0
VERTEX
  8
0
 10
10.172891
 20
594.098999
  0
VERTEX
  8
0
 10
10.675625
 20
594.750854
  0
VERTEX
  8
0
 10
11.030078
 20
595.145508
  0
VERTEX
  8
0
 10
11.317734
 20
595.362732
  0
VERTEX
  8
0
 10
11.542343
 20
595.465698
  0
VERTEX
  8
0
 10
11.668984
 20
595.503662
  0
VERTEX
  8
0
 10
11.958750
 20
595.551636
  0
VERTEX
  8
0
 10
12.124687
 20
595.560669
  0
VERTEX
  8
0
 10
12.506328
 20
595.548340
  0
VERTEX
  8
0
 10
12.964531
 20
595.492859
  0
VERTEX
  8
0
 10
13.817500
 20
595.325195
  0
VERTEX
  8
0
 10
14.492812
 20
595.160400
  0
VERTEX
  8
0
 10
15.639140
 20
594.844299
  0
VERTEX
  8
0
 10
16.913359
 20
594.459778
  0
VERTEX
  8
0
 10
18.279297
 20
594.021790
  0
VERTEX
  8
0
 10
20.660858
 20
593.216003
  0
VERTEX
  8
0
 10
23.555546
 20
592.185364
  0
VERTEX
  8
0
 10
26.561405
 20
591.075989
  0
VERTEX
  8
0
 10
33.360077
 20
588.527710
  0
VERTEX
  8
0
 10
36.981327
 20
587.201294
  0
VERTEX
  8
0
 10
39.834530
 20
586.202087
  0
VERTEX
  8
0
 10
41.399685
 20
585.685059
  0
VERTEX
  8
0
 10
42.379532
 20
585.381958
  0
VERTEX
  8
0
 10
43.320076
 20
585.113220
  0
VERTEX
  8
0
 10
44.231327
 20
584.880066
  0
VERTEX
  8
0
 10
45.123360
 20
584.683655
  0
VERTEX
  8
0
 10
46.006172
 20
584.525208
  0
VERTEX
  8
0
 10
46.889999
 20
584.405701
  0
VERTEX
  8
0
 10
47.784763
 20
584.326294
  0
VERTEX
  8
0
 10
48.700546
 20
584.288330
  0
VERTEX
  8
0
 10
49.169373
 20
584.285217
  0
VERTEX
  8
0
 10
50.131641
 20
584.311462
  0
VERTEX
  8
0
 10
50.625858
 20
584.341187
  0
VERTEX
  8
0
 10
51.642185
 20
584.434937
  0
VERTEX
  8
0
 10
52.697811
 20
584.575562
  0
VERTEX
  8
0
 10
53.795700
 20
584.764587
  0
VERTEX
  8
0
 10
55.527889
 20
585.142273
  0
VERTEX
  8
0
 10
56.743435
 20
585.458801
  0
VERTEX
  8
0
 10
58.011013
 20
585.828796
  0
VERTEX
  8
0
 10
59.332966
 20
586.253845
  0
VERTEX
  8
0
 10
61.405624
 20
586.983826
  0
VERTEX
  8
0
 10
63.550701
 20
587.797241
  0
VERTEX
  8
0
 10
65.727654
 20
588.662231
  0
VERTEX
  8
0
 10
71.381012
 20
590.979736
  0
VERTEX
  8
0
 10
73.969063
 20
592.020203
  0
VERTEX
  8
0
 10
77.563667
 20
593.421143
  0
VERTEX
  8
0
 10
82.061485
 20
595.124939
  0
SEQEND
  8
0
  0
POLYLINE
  8
0
  0
VERTEX
  8
0
 10
12.740391
 20
574.674438
  0
VERTEX
  8
0
 10
16.786093
 20
585.449463
  0
SEQEND
  8
0
  0
POLYLINE
  8
0
  0
VERTEX
  8
0
 10
21.003359
 20
559.167725
  0
VERTEX
  8
0
 10
23.822811
 20
563.994751
  0
SEQEND
  8
0
  0
POLYLINE
  8
0
  0
VERTEX
  8
0
 10
31.660078
 20
581.036926
  0
VERTEX
  8
0
 10
33.239452
 20
585.297852
  0
SEQEND
  8
0
  0
POLYLINE
  8
0
  0
VERTEX
  8
0
 10
41.309139
 20
472.877014
  0
VERTEX
  8
0
 10
32.754063
 20
477.047729
  0
SEQEND
  8
0
  0
POLYLINE
  8
0
  0
VERTEX
  8
0
 10
57.340702
 20
522.361328
  0
VERTEX
  8
0
 10
47.638435
 20
527.321167
  0
SEQEND
  8
0
  0
POLYLINE
  8
0
  0
VERTEX
  8
0
 10
43.928360
 20
453.212250
  0
VERTEX
  8
0
 10
47.279686
 20
463.255524
  0
VERTEX
  8
0
 10
49.636482
 20
470.425629
  0
VERTEX
  8
0
 10
51.305233
 20
475.583344
  0
VERTEX
  8
0
 10
55.468513
 20
488.578033
  0
VERTEX
  8
0
 10
58.093201
 20
496.655151
  0
VERTEX
  8
0
 10
60.387653
 20
503.567108
  0
VERTEX
  8
0
 10
63.465076
 20
512.619934
  0
VERTEX
  8
0
 10
65.352730
 20
518.073242
  0
VERTEX
  8
0
 10
67.218903
 20
523.397339
  0
VERTEX
  8
0
 10
69.020470
 20
528.472778
  0
VERTEX
  8
0
 10
71.248901
 20
534.648743
  0
VERTEX
  8
0
 10
72.759842
 20
538.758728
  0
VERTEX
  8
0
 10
74.597183
 20
543.663635
  0
VERTEX
  8
0
 10
76.286095
 20
548.087646
  0
VERTEX
  8
0
 10
78.671173
 20
554.242737
  0
SEQEND
  8
0
  0
POLYLINE
  8
0
  0
VERTEX
  8
0
 10
21.055702
 20
560.166321
  0
VERTEX
  8
0
 10
20.669531
 20
560.110352
  0
VERTEX
  8
0
 10
20.334297
 20
559.911011
  0
VERTEX
  8
0
 10
20.100780
 20
559.598328
  0
VERTEX
  8
0
 10
20.004686
 20
559.220093
  0
VERTEX
  8
0
 10
20.060781
 20
558.833984
  0
VERTEX
  8
0
 10
20.260235
 20
558.498657
  0
VERTEX
  8
0
 10
20.572811
 20
558.265198
  0
VERTEX
  8
0
 10
20.951015
 20
558.169128
  0
VERTEX
  8
0
 10
21.337187
 20
558.225220
  0
VERTEX
  8
0
 10
21.672577
 20
558.424744
  0
VERTEX
  8
0
 10
21.905937
 20
558.737244
  0
VERTEX
  8
0
 10
22.001953
 20
559.115356
  0
VERTEX
  8
0
 10
21.946014
 20
559.501648
  0
VERTEX
  8
0
 10
21.746563
 20
559.836914
  0
VERTEX
  8
0
 10
21.433907
 20
560.070374
  0
VERTEX
  8
0
 10
21.055702
 20
560.166321
  0
SEQEND
  8
0
  0
POLYLINE
  8
0
  0
VERTEX
  8
0
 10
23.875156
 20
564.993347
  0
VERTEX
  8
0
 10
23.488905
 20
564.937439
  0
VERTEX
  8
0
 10
23.153593
 20
564.738037
  0
VERTEX
  8
0
 10
22.920156
 20
564.425354
  0
VERTEX
  8
0
 10
22.824141
 20
564.047119
  0
VERTEX
  8
0
 10
22.880156
 20
563.661011
  0
VERTEX
  8
0
 10
23.079531
 20
563.325684
  0
VERTEX
  8
0
 10
23.392265
 20
563.092224
  0
VERTEX
  8
0
 10
23.770468
 20
562.996155
  0
VERTEX
  8
0
 10
24.156563
 20
563.052246
  0
VERTEX
  8
0
 10
24.491875
 20
563.251770
  0
VERTEX
  8
0
 10
24.725311
 20
563.564270
  0
VERTEX
  8
0
 10
24.821405
 20
563.942383
  0
VERTEX
  8
0
 10
24.765390
 20
564.328674
  0
VERTEX
  8
0
 10
24.565859
 20
564.664001
  0
VERTEX
  8
0
 10
24.253281
 20
564.897400
  0
VERTEX
  8
0
 10
23.875156
 20
564.993347
  0
SEQEND
  8
0
  0
POLYLINE
  8
0
  0
VERTEX
  8
0
 10
31.712421
 20
582.035522
  0
VERTEX
  8
0
 10
31.326250
 20
581.979614
  0
VERTEX
  8
0
 10
30.990936
 20
581.780090
  0
VERTEX
  8
0
 10
30.757421
 20
581.467407
  0
VERTEX
  8
0
 10
30.661406
 20
581.089111
  0
VERTEX
  8
0
 10
30.717421
 20
580.703064
  0
VERTEX
  8
0
 10
30.916874
 20
580.367859
  0
VERTEX
  8
0
 10
31.229609
 20
580.134277
  0
VERTEX
  8
0
 10
31.607733
 20
580.038208
  0
VERTEX
  8
0
 10
31.993828
 20
580.094299
  0
VERTEX
  8
0
 10
32.329220
 20
580.293823
  0
VERTEX
  8
0
 10
32.562656
 20
580.606323
  0
VERTEX
  8
0
 10
32.658672
 20
580.984619
  0
VERTEX
  8
0
 10
32.602734
 20
581.370667
  0
VERTEX
  8
0
 10
32.403202
 20
581.705994
  0
VERTEX
  8
0
 10
32.090546
 20
581.939453
  0
VERTEX
  8
0
 10
31.712421
 20
582.035522
  0
SEQEND
  8
0
  0
POLYLINE
  8
0
  0
VERTEX
  8
0
 10
33.291798
 20
586.296631
  0
VERTEX
  8
0
 10
32.905544
 20
586.240540
  0
VERTEX
  8
0
 10
32.570313
 20
586.041138
  0
VERTEX
  8
0
 10
32.336876
 20
585.728516
  0
VERTEX
  8
0
 10
32.240780
 20
585.350220
  0
VERTEX
  8
0
 10
32.296795
 20
584.964111
  0
VERTEX
  8
0
 10
32.496326
 20
584.628845
  0
VERTEX
  8
0
 10
32.808907
 20
584.395386
  0
VERTEX
  8
0
 10
33.187107
 20
584.299255
  0
VERTEX
  8
0
 10
33.573204
 20
584.355408
  0
VERTEX
  8
0
 10
33.908592
 20
584.554749
  0
VERTEX
  8
0
 10
34.141953
 20
584.867432
  0
VERTEX
  8
0
 10
34.238045
 20
585.245544
  0
VERTEX
  8
0
 10
34.182030
 20
585.631775
  0
VERTEX
  8
0
 10
33.982578
 20
585.967102
  0
VERTEX
  8
0
 10
33.669922
 20
586.200562
  0
VERTEX
  8
0
 10
33.291798
 20
586.296631
  0
SEQEND
  8
0
  0
POLYLINE
  8
0
  0
VERTEX
  8
0
 10
12.844999
 20
576.671814
  0
VERTEX
  8
0
 10
12.222734
 20
576.606323
  0
VERTEX
  8
0
 10
11.651093
 20
576.351807
  0
VERTEX
  8
0
 10
11.186093
 20
575.933167
  0
VERTEX
  8
0
 10
10.873203
 20
575.391296
  0
VERTEX
  8
0
 10
10.743125
 20
574.779114
  0
VERTEX
  8
0
 10
10.808516
 20
574.156799
  0
VERTEX
  8
0
 10
11.063046
 20
573.585205
  0
VERTEX
  8
0
 10
11.481718
 20
573.120239
  0
VERTEX
  8
0
 10
12.023594
 20
572.807434
  0
VERTEX
  8
0
 10
12.635703
 20
572.677246
  0
VERTEX
  8
0
 10
13.258046
 20
572.742737
  0
VERTEX
  8
0
 10
13.829609
 20
572.997070
  0
VERTEX
  8
0
 10
14.294687
 20
573.415833
  0
VERTEX
  8
0
 10
14.607500
 20
573.957703
  0
VERTEX
  8
0
 10
14.737656
 20
574.569763
  0
VERTEX
  8
0
 10
14.672187
 20
575.192078
  0
VERTEX
  8
0
 10
14.417734
 20
575.763794
  0
VERTEX
  8
0
 10
13.998984
 20
576.228821
  0
VERTEX
  8
0
 10
13.457109
 20
576.541626
  0
VERTEX
  8
0
 10
12.844999
 20
576.671814
  0
SEQEND
  8
0
  0
POLYLINE
  8
0
  0
VERTEX
  8
0
 10
16.890781
 20
587.446777
  0
VERTEX
  8
0
 10
16.268436
 20
587.381470
  0
VERTEX
  8
0
 10
15.696796
 20
587.126953
  0
VERTEX
  8
0
 10
15.231796
 20
586.708191
  0
VERTEX
  8
0
 10
14.918906
 20
586.166321
  0
VERTEX
  8
0
 10
14.788828
 20
585.554138
  0
VERTEX
  8
0
 10
14.854218
 20
584.931946
  0
VERTEX
  8
0
 10
15.108749
 20
584.360229
  0
VERTEX
  8
0
 10
15.527499
 20
583.895203
  0
VERTEX
  8
0
 10
16.069296
 20
583.582397
  0
VERTEX
  8
0
 10
16.681406
 20
583.452271
  0
VERTEX
  8
0
 10
17.303749
 20
583.517700
  0
VERTEX
  8
0
 10
17.875313
 20
583.772278
  0
VERTEX
  8
0
 10
18.340391
 20
584.190857
  0
VERTEX
  8
0
 10
18.653202
 20
584.732849
  0
VERTEX
  8
0
 10
18.783360
 20
585.344727
  0
VERTEX
  8
0
 10
18.717968
 20
585.967224
  0
VERTEX
  8
0
 10
18.463438
 20
586.538818
  0
VERTEX
  8
0
 10
18.044687
 20
587.003845
  0
VERTEX
  8
0
 10
17.502811
 20
587.316772
  0
VERTEX
  8
0
 10
16.890781
 20
587.446777
  0
SEQEND
  8
0
  0
POLYLINE
  8
0
  0
VERTEX
  8
0
 10
17.106405
 20
706.463013
  0
VERTEX
  8
0
 10
16.868984
 20
698.410156
  0
VERTEX
  8
0
 10
16.735468
 20
693.001831
  0
VERTEX
  8
0
 10
16.700312
 20
690.139893
  0
VERTEX
  8
0
 10
16.727110
 20
687.460327
  0
VERTEX
  8
0
 10
16.784765
 20
685.967590
  0
VERTEX
  8
0
 10
16.844063
 20
685.029053
  0
VERTEX
  8
0
 10
16.921015
 20
684.138428
  0
VERTEX
  8
0
 10
17.067656
 20
682.891418
  0
VERTEX
  8
0
 10
17.184999
 20
682.118652
  0
VERTEX
  8
0
 10
17.388437
 20
681.045898
  0
VERTEX
  8
0
 10
17.541016
 20
680.387695
  0
VERTEX
  8
0
 10
17.793360
 20
679.484741
  0
VERTEX
  8
0
 10
18.071562
 20
678.681091
  0
VERTEX
  8
0
 10
18.271406
 20
678.196655
  0
VERTEX
  8
0
 10
18.484844
 20
677.745911
  0
VERTEX
  8
0
 10
18.835468
 20
677.118835
  0
VERTEX
  8
0
 10
19.092577
 20
676.723633
  0
VERTEX
  8
0
 10
19.370703
 20
676.339050
  0
VERTEX
  8
0
 10
19.998516
 20
675.575134
  0
VERTEX
  8
0
 10
20.734297
 20
674.776062
  0
VERTEX
  8
0
 10
21.556484
 20
673.934570
  0
VERTEX
  8
0
 10
23.606483
 20
671.893982
  0
VERTEX
  8
0
 10
24.117188
 20
671.366455
  0
VERTEX
  8
0
 10
24.549843
 20
670.892578
  0
VERTEX
  8
0
 10
25.025547
 20
670.308350
  0
VERTEX
  8
0
 10
25.323906
 20
669.877014
  0
VERTEX
  8
0
 10
25.587109
 20
669.426697
  0
VERTEX
  8
0
 10
25.828749
 20
668.935059
  0
VERTEX
  8
0
 10
26.140703
 20
668.175903
  0
VERTEX
  8
0
 10
26.472891
 20
667.242737
  0
VERTEX
  8
0
 10
28.300390
 20
661.700928
  0
VERTEX
  8
0
 10
30.713984
 20
654.669800
  0
VERTEX
  8
0
 10
32.673592
 20
649.105713
  0
VERTEX
  8
0
 10
34.155312
 20
645.024780
  0
VERTEX
  8
0
 10
35.661015
 20
641.067932
  0
VERTEX
  8
0
 10
36.945625
 20
637.889038
  0
VERTEX
  8
0
 10
37.733360
 20
636.044983
  0
VERTEX
  8
0
 10
38.266716
 20
634.846497
  0
VERTEX
  8
0
 10
39.355076
 20
632.533264
  0
VERTEX
  8
0
 10
39.911327
 20
631.422729
  0
VERTEX
  8
0
 10
40.476170
 20
630.346008
  0
VERTEX
  8
0
 10
41.050312
 20
629.305115
  0
VERTEX
  8
0
 10
41.633282
 20
628.302002
  0
VERTEX
  8
0
 10
42.222420
 20
627.337769
  0
VERTEX
  8
0
 10
43.108982
 20
625.966309
  0
VERTEX
  8
0
 10
43.696716
 20
625.103210
  0
VERTEX
  8
0
 10
44.563828
 20
623.887512
  0
VERTEX
  8
0
 10
45.402344
 20
622.769043
  0
VERTEX
  8
0
 10
46.199844
 20
621.750854
  0
VERTEX
  8
0
 10
46.948357
 20
620.833130
  0
VERTEX
  8
0
 10
47.659138
 20
620.004456
  0
VERTEX
  8
0
 10
48.348202
 20
619.250610
  0
VERTEX
  8
0
 10
49.031563
 20
618.557617
  0
VERTEX
  8
0
 10
49.725155
 20
617.911255
  0
VERTEX
  8
0
 10
50.445000
 20
617.297302
  0
VERTEX
  8
0
 10
51.205547
 20
616.705322
  0
VERTEX
  8
0
 10
51.739609
 20
616.324463
  0
VERTEX
  8
0
 10
52.586170
 20
615.779602
  0
VERTEX
  8
0
 10
53.183907
 20
615.437195
  0
VERTEX
  8
0
 10
53.810780
 20
615.114075
  0
VERTEX
  8
0
 10
54.468983
 20
614.812378
  0
VERTEX
  8
0
 10
55.160469
 20
614.534546
  0
VERTEX
  8
0
 10
55.887264
 20
614.282471
  0
VERTEX
  8
0
 10
56.650547
 20
614.058350
  0
VERTEX
  8
0
 10
57.447811
 20
613.862122
  0
VERTEX
  8
0
 10
58.275391
 20
613.693787
  0
VERTEX
  8
0
 10
59.129684
 20
613.553162
  0
VERTEX
  8
0
 10
60.007263
 20
613.440063
  0
VERTEX
  8
0
 10
60.904530
 20
613.354370
  0
VERTEX
  8
0
 10
61.817890
 20
613.295898
  0
VERTEX
  8
0
 10
63.210312
 20
613.258911
  0
VERTEX
  8
0
 10
64.148514
 20
613.267822
  0
VERTEX
  8
0
 10
65.089767
 20
613.303162
  0
VERTEX
  8
0
 10
66.029610
 20
613.364685
  0
VERTEX
  8
0
 10
67.426796
 20
613.505005
  0
VERTEX
  8
0
 10
68.343277
 20
613.630005
  0
VERTEX
  8
0
 10
69.242340
 20
613.779541
  0
VERTEX
  8
0
 10
70.119377
 20
613.953369
  0
VERTEX
  8
0
 10
70.969917
 20
614.151062
  0
VERTEX
  8
0
 10
71.789375
 20
614.372192
  0
VERTEX
  8
0
 10
72.574295
 20
614.616150
  0
VERTEX
  8
0
 10
73.325157
 20
614.882507
  0
VERTEX
  8
0
 10
74.043747
 20
615.170471
  0
VERTEX
  8
0
 10
74.731636
 20
615.479492
  0
VERTEX
  8
0
 10
75.390625
 20
615.808899
  0
VERTEX
  8
0
 10
76.022423
 20
616.158020
  0
VERTEX
  8
0
 10
76.922577
 20
616.717163
  0
VERTEX
  8
0
 10
77.493439
 20
617.112732
  0
VERTEX
  8
0
 10
78.310623
 20
617.739197
  0
VERTEX
  8
0
 10
78.833672
 20
618.182007
  0
VERTEX
  8
0
 10
79.343750
 20
618.649231
  0
VERTEX
  8
0
 10
79.844688
 20
619.144287
  0
VERTEX
  8
0
 10
80.340385
 20
619.671021
  0
VERTEX
  8
0
 10
80.834450
 20
620.232849
  0
VERTEX
  8
0
 10
81.581093
 20
621.149414
  0
VERTEX
  8
0
 10
82.088043
 20
621.815002
  0
VERTEX
  8
0
 10
82.870468
 20
622.902954
  0
VERTEX
  8
0
 10
83.674683
 20
624.095276
  0
VERTEX
  8
0
 10
84.216637
 20
624.942871
  0
VERTEX
  8
0
 10
84.758591
 20
625.828918
  0
VERTEX
  8
0
 10
85.296715
 20
626.750061
  0
VERTEX
  8
0
 10
85.827026
 20
627.703369
  0
VERTEX
  8
0
 10
86.345703
 20
628.685364
  0
VERTEX
  8
0
 10
86.848747
 20
629.693115
  0
VERTEX
  8
0
 10
87.332497
 20
630.723450
  0
VERTEX
  8
0
 10
87.795624
 20
631.774841
  0
VERTEX
  8
0
 10
88.239449
 20
632.847656
  0
VERTEX
  8
0
 10
88.665543
 20
633.942505
  0
VERTEX
  8
0
 10
89.075310
 20
635.059692
  0
VERTEX
  8
0
 10
89.470230
 20
636.199585
  0
VERTEX
  8
0
 10
89.851875
 20
637.362732
  0
VERTEX
  8
0
 10
90.580620
 20
639.760376
  0
VERTEX
  8
0
 10
91.273590
 20
642.254028
  0
VERTEX
  8
0
 10
91.943825
 20
644.829041
  0
VERTEX
  8
0
 10
93.954765
 20
652.810425
  0
VERTEX
  8
0
 10
94.664917
 20
655.467468
  0
VERTEX
  8
0
 10
95.397423
 20
658.045166
  0
VERTEX
  8
0
 10
96.147339
 20
660.484497
  0
VERTEX
  8
0
 10
96.527260
 20
661.633972
  0
VERTEX
  8
0
 10
96.909683
 20
662.726624
  0
VERTEX
  8
0
 10
97.294060
 20
663.755554
  0
VERTEX
  8
0
 10
97.681252
 20
664.719299
  0
VERTEX
  8
0
 10
98.073669
 20
665.622192
  0
VERTEX
  8
0
 10
98.473747
 20
666.468811
  0
VERTEX
  8
0
 10
99.093437
 20
667.643677
  0
VERTEX
  8
0
 10
99.523201
 20
668.370117
  0
VERTEX
  8
0
 10
99.969063
 20
669.056519
  0
VERTEX
  8
0
 10
100.433510
 20
669.707642
  0
VERTEX
  8
0
 10
100.918983
 20
670.327942
  0
VERTEX
  8
0
 10
101.426720
 20
670.921326
  0
VERTEX
  8
0
 10
101.953278
 20
671.488281
  0
VERTEX
  8
0
 10
102.493904
 20
672.028564
  0
VERTEX
  8
0
 10
103.321091
 20
672.788635
  0
VERTEX
  8
0
 10
103.876556
 20
673.261414
  0
VERTEX
  8
0
 10
104.704140
 20
673.918823
  0
VERTEX
  8
0
 10
105.245392
 20
674.322266
  0
VERTEX
  8
0
 10
106.029839
 20
674.874817
  0
VERTEX
  8
0
 10
108.522888
 20
676.530212
  0
VERTEX
  8
0
 10
109.085388
 20
676.952087
  0
VERTEX
  8
0
 10
109.429688
 20
677.242554
  0
VERTEX
  8
0
 10
109.898125
 20
677.705505
  0
VERTEX
  8
0
 10
110.178589
 20
678.046692
  0
VERTEX
  8
0
 10
110.309372
 20
678.231689
  0
VERTEX
  8
0
 10
110.552422
 20
678.638550
  0
VERTEX
  8
0
 10
110.664764
 20
678.863403
  0
VERTEX
  8
0
 10
110.871407
 20
679.364136
  0
VERTEX
  8
0
 10
110.965782
 20
679.643005
  0
VERTEX
  8
0
 10
111.136948
 20
680.265930
  0
VERTEX
  8
0
 10
111.285233
 20
680.985840
  0
VERTEX
  8
0
 10
111.465233
 20
682.275513
  0
VERTEX
  8
0
 10
111.558044
 20
683.288330
  0
VERTEX
  8
0
 10
111.631012
 20
684.413025
  0
VERTEX
  8
0
 10
111.725075
 20
686.929504
  0
VERTEX
  8
0
 10
111.766563
 20
690.402344
  0
VERTEX
  8
0
 10
111.746170
 20
694.701538
  0
VERTEX
  8
0
 10
111.677574
 20
699.529175
  0
VERTEX
  8
0
 10
111.539215
 20
706.176331
  0
VERTEX
  8
0
 10
127.083199
 20
709.224182
  0
VERTEX
  8
0
 10
127.220856
 20
699.066467
  0
VERTEX
  8
0
 10
127.261009
 20
693.593567
  0
VERTEX
  8
0
 10
127.236481
 20
689.072571
  0
VERTEX
  8
0
 10
127.202652
 20
687.369507
  0
VERTEX
  8
0
 10
127.136719
 20
685.367249
  0
VERTEX
  8
0
 10
127.068512
 20
683.970093
  0
VERTEX
  8
0
 10
126.954681
 20
682.289978
  0
VERTEX
  8
0
 10
126.808197
 20
680.729858
  0
VERTEX
  8
0
 10
126.624527
 20
679.267456
  0
VERTEX
  8
0
 10
126.400230
 20
677.883362
  0
VERTEX
  8
0
 10
126.133751
 20
676.557495
  0
VERTEX
  8
0
 10
125.814369
 20
675.236023
  0
VERTEX
  8
0
 10
125.425385
 20
673.907898
  0
VERTEX
  8
0
 10
125.049919
 20
672.834229
  0
VERTEX
  8
0
 10
124.612495
 20
671.764771
  0
VERTEX
  8
0
 10
124.113045
 20
670.723267
  0
VERTEX
  8
0
 10
123.679840
 20
669.932739
  0
VERTEX
  8
0
 10
123.066010
 20
668.945679
  0
VERTEX
  8
0
 10
122.388123
 20
667.992859
  0
VERTEX
  8
0
 10
121.682266
 20
667.111633
  0
VERTEX
  8
0
 10
120.958435
 20
666.298035
  0
VERTEX
  8
0
 10
120.208122
 20
665.529175
  0
VERTEX
  8
0
 10
119.242188
 20
664.628174
  0
VERTEX
  8
0
 10
118.239998
 20
663.778503
  0
VERTEX
  8
0
 10
117.237343
 20
663.000549
  0
VERTEX
  8
0
 10
116.434921
 20
662.421997
  0
VERTEX
  8
0
 10
115.412025
 20
661.734924
  0
VERTEX
  8
0
 10
112.958672
 20
660.216858
  0
VERTEX
  8
0
 10
112.649452
 20
659.992554
  0
VERTEX
  8
0
 10
112.646713
 20
659.957825
  0
VERTEX
  8
0
 10
112.644608
 20
659.954651
  0
VERTEX
  8
0
 10
112.520233
 20
659.751709
  0
VERTEX
  8
0
 10
112.383827
 20
659.503296
  0
VERTEX
  8
0
 10
112.225861
 20
659.187378
  0
VERTEX
  8
0
 10
112.053986
 20
658.811768
  0
VERTEX
  8
0
 10
111.866013
 20
658.365601
  0
VERTEX
  8
0
 10
111.663750
 20
657.848450
  0
VERTEX
  8
0
 10
111.357338
 20
657.005554
  0
VERTEX
  8
0
 10
110.829918
 20
655.431030
  0
VERTEX
  8
0
 10
110.236870
 20
653.472107
  0
VERTEX
  8
0
 10
109.808121
 20
651.917480
  0
VERTEX
  8
0
 10
109.334923
 20
650.066467
  0
VERTEX
  8
0
 10
107.734604
 20
643.318909
  0
VERTEX
  8
0
 10
106.858513
 20
639.803406
  0
VERTEX
  8
0
 10
106.275230
 20
637.632935
  0
VERTEX
  8
0
 10
105.862732
 20
636.184265
  0
VERTEX
  8
0
 10
105.436012
 20
634.752197
  0
VERTEX
  8
0
 10
104.781876
 20
632.674927
  0
VERTEX
  8
0
 10
104.098907
 20
630.644958
  0
VERTEX
  8
0
 10
103.393517
 20
628.684448
  0
VERTEX
  8
0
 10
102.673744
 20
626.819458
  0
VERTEX
  8
0
 10
102.173203
 20
625.600037
  0
VERTEX
  8
0
 10
101.665077
 20
624.423584
  0
VERTEX
  8
0
 10
100.911484
 20
622.784607
  0
VERTEX
  8
0
 10
100.138588
 20
621.221680
  0
VERTEX
  8
0
 10
99.355934
 20
619.745117
  0
VERTEX
  8
0
 10
98.566246
 20
618.348450
  0
VERTEX
  8
0
 10
97.770386
 20
617.020996
  0
VERTEX
  8
0
 10
96.958282
 20
615.737549
  0
VERTEX
  8
0
 10
96.113121
 20
614.477234
  0
VERTEX
  8
0
 10
95.225548
 20
613.236450
  0
VERTEX
  8
0
 10
94.289688
 20
612.016418
  0
VERTEX
  8
0
 10
93.317108
 20
610.838745
  0
VERTEX
  8
0
 10
92.609604
 20
610.035156
  0
VERTEX
  8
0
 10
91.876015
 20
609.244446
  0
VERTEX
  8
0
 10
90.779999
 20
608.137268
  0
VERTEX
  8
0
 10
89.623436
 20
607.054810
  0
VERTEX
  8
0
 10
88.427963
 20
606.018127
  0
VERTEX
  8
0
 10
87.217026
 20
605.046936
  0
VERTEX
  8
0
 10
86.333672
 20
604.384827
  0
VERTEX
  8
0
 10
85.090309
 20
603.517456
  0
VERTEX
  8
0
 10
84.161247
 20
602.917786
  0
VERTEX
  8
0
 10
82.862267
 20
602.147583
  0
VERTEX
  8
0
 10
81.879921
 20
601.617004
  0
VERTEX
  8
0
 10
80.517029
 20
600.952087
  0
VERTEX
  8
0
 10
79.484062
 20
600.500916
  0
VERTEX
  8
0
 10
78.057495
 20
599.948242
  0
VERTEX
  8
0
 10
77.012886
 20
599.593018
  0
VERTEX
  8
0
 10
75.960938
 20
599.273010
  0
VERTEX
  8
0
 10
74.475311
 20
598.881836
  0
VERTEX
  8
0
 10
73.400391
 20
598.637817
  0
VERTEX
  8
0
 10
71.898361
 20
598.344727
  0
VERTEX
  8
0
 10
70.385857
 20
598.101868
  0
VERTEX
  8
0
 10
68.895157
 20
597.908630
  0
VERTEX
  8
0
 10
67.431091
 20
597.760315
  0
VERTEX
  8
0
 10
65.989136
 20
597.653137
  0
VERTEX
  8
0
 10
64.556404
 20
597.586487
  0
VERTEX
  8
0
 10
63.127422
 20
597.560974
  0
VERTEX
  8
0
 10
61.680622
 20
597.577576
  0
VERTEX
  8
0
 10
59.812656
 20
597.662231
  0
VERTEX
  8
0
 10
58.343437
 20
597.777588
  0
VERTEX
  8
0
 10
56.836716
 20
597.942200
  0
VERTEX
  8
0
 10
55.286953
 20
598.171143
  0
VERTEX
  8
0
 10
54.130936
 20
598.385925
  0
VERTEX
  8
0
 10
52.505779
 20
598.758667
  0
VERTEX
  8
0
 10
51.274372
 20
599.100708
  0
VERTEX
  8
0
 10
49.577499
 20
599.663330
  0
VERTEX
  8
0
 10
48.349140
 20
600.141785
  0
VERTEX
  8
0
 10
47.172577
 20
600.655457
  0
VERTEX
  8
0
 10
46.019451
 20
601.211182
  0
VERTEX
  8
0
 10
44.890076
 20
601.805359
  0
VERTEX
  8
0
 10
43.784920
 20
602.435242
  0
VERTEX
  8
0
 10
42.677498
 20
603.115601
  0
VERTEX
  8
0
 10
41.164219
 20
604.132874
  0
VERTEX
  8
0
 10
40.129532
 20
604.893127
  0
VERTEX
  8
0
 10
39.155312
 20
605.662903
  0
VERTEX
  8
0
 10
38.226406
 20
606.453491
  0
VERTEX
  8
0
 10
37.350857
 20
607.254761
  0
VERTEX
  8
0
 10
36.507107
 20
608.082031
  0
VERTEX
  8
0
 10
35.411640
 20
609.245117
  0
VERTEX
  8
0
 10
34.677654
 20
610.083862
  0
VERTEX
  8
0
 10
33.732185
 20
611.236084
  0
VERTEX
  8
0
 10
32.849453
 20
612.384033
  0
VERTEX
  8
0
 10
31.797577
 20
613.832153
  0
VERTEX
  8
0
 10
31.025547
 20
614.949585
  0
VERTEX
  8
0
 10
30.066406
 20
616.405701
  0
VERTEX
  8
0
 10
29.139139
 20
617.885742
  0
VERTEX
  8
0
 10
28.231483
 20
619.398865
  0
VERTEX
  8
0
 10
27.306562
 20
621.010132
  0
VERTEX
  8
0
 10
26.556015
 20
622.398560
  0
VERTEX
  8
0
 10
25.777657
 20
623.934265
  0
VERTEX
  8
0
 10
25.213203
 20
625.112427
  0
VERTEX
  8
0
 10
24.357735
 20
627.000122
  0
VERTEX
  8
0
 10
23.727421
 20
628.464417
  0
VERTEX
  8
0
 10
22.414454
 20
631.685242
  0
VERTEX
  8
0
 10
20.658047
 20
636.232300
  0
VERTEX
  8
0
 10
18.579062
 20
641.825989
  0
VERTEX
  8
0
 10
16.276484
 20
648.205627
  0
VERTEX
  8
0
 10
15.196718
 20
651.274414
  0
VERTEX
  8
0
 10
14.343281
 20
653.760681
  0
VERTEX
  8
0
 10
12.607109
 20
659.047974
  0
VERTEX
  8
0
 10
12.377265
 20
659.680847
  0
VERTEX
  8
0
 10
12.280781
 20
659.910706
  0
VERTEX
  8
0
 10
12.137500
 20
660.193726
  0
VERTEX
  8
0
 10
12.011171
 20
660.401733
  0
VERTEX
  8
0
 10
11.734453
 20
660.801025
  0
VERTEX
  8
0
 10
11.280234
 20
661.398254
  0
VERTEX
  8
0
 10
10.692031
 20
662.125671
  0
VERTEX
  8
0
 10
9.837187
 20
663.131531
  0
VERTEX
  8
0
 10
9.146172
 20
663.912170
  0
VERTEX
  8
0
 10
7.132656
 20
666.130127
  0
VERTEX
  8
0
 10
6.254609
 20
667.205200
  0
VERTEX
  8
0
 10
5.582812
 20
668.131836
  0
VERTEX
  8
0
 10
5.116172
 20
668.848328
  0
VERTEX
  8
0
 10
4.691875
 20
669.564331
  0
VERTEX
  8
0
 10
4.294531
 20
670.302856
  0
VERTEX
  8
0
 10
3.924766
 20
671.062500
  0
VERTEX
  8
0
 10
3.582812
 20
671.841370
  0
VERTEX
  8
0
 10
3.268281
 20
672.638672
  0
VERTEX
  8
0
 10
2.980703
 20
673.453552
  0
VERTEX
  8
0
 10
2.719297
 20
674.285767
  0
VERTEX
  8
0
 10
2.483281
 20
675.135193
  0
VERTEX
  8
0
 10
2.264844
 20
676.030090
  0
VERTEX
  8
0
 10
1.992656
 20
677.358887
  0
VERTEX
  8
0
 10
1.708594
 20
679.170471
  0
VERTEX
  8
0
 10
1.532656
 20
680.666687
  0
VERTEX
  8
0
 10
1.390000
 20
682.239746
  0
VERTEX
  8
0
 10
1.241094
 20
684.484924
  0
VERTEX
  8
0
 10
1.126719
 20
686.980835
  0
VERTEX
  8
0
 10
1.062812
 20
689.003479
  0
VERTEX
  8
0
 10
1.011562
 20
691.771240
  0
VERTEX
  8
0
 10
1.000000
 20
693.897644
  0
VERTEX
  8
0
 10
1.014375
 20
696.002563
  0
VERTEX
  8
0
 10
1.056250
 20
698.049438
  0
VERTEX
  8
0
 10
1.123906
 20
700.023865
  0
VERTEX
  8
0
 10
1.244375
 20
702.539612
  0
VERTEX
  8
0
 10
1.600781
 20
708.129456
  0
VERTEX
  8
0
 10
17.106405
 20
706.463013
  0
SEQEND
  8
0
  0
POLYLINE
  8
0
  0
VERTEX
  8
0
 10
119.103668
 20
707.659546
  0
VERTEX
  8
0
 10
119.221245
 20
698.982971
  0
VERTEX
  8
0
 10
119.260857
 20
693.585999
  0
VERTEX
  8
0
 10
119.236954
 20
689.173828
  0
VERTEX
  8
0
 10
119.205307
 20
687.580627
  0
VERTEX
  8
0
 10
119.143120
 20
685.693909
  0
VERTEX
  8
0
 10
119.081718
 20
684.435364
  0
VERTEX
  8
0
 10
118.980072
 20
682.934509
  0
VERTEX
  8
0
 10
118.854996
 20
681.602661
  0
VERTEX
  8
0
 10
118.704681
 20
680.406311
  0
VERTEX
  8
0
 10
118.527344
 20
679.311951
  0
VERTEX
  8
0
 10
118.321167
 20
678.286011
  0
VERTEX
  8
0
 10
118.083122
 20
677.301025
  0
VERTEX
  8
0
 10
117.805779
 20
676.354126
  0
VERTEX
  8
0
 10
117.566795
 20
675.670715
  0
VERTEX
  8
0
 10
117.297188
 20
675.011536
  0
VERTEX
  8
0
 10
116.993355
 20
674.377930
  0
VERTEX
  8
0
 10
116.769997
 20
673.970398
  0
VERTEX
  8
0
 10
116.403511
 20
673.381104
  0
VERTEX
  8
0
 10
116.001793
 20
672.816467
  0
VERTEX
  8
0
 10
115.567734
 20
672.274597
  0
VERTEX
  8
0
 10
115.104141
 20
671.753418
  0
VERTEX
  8
0
 10
114.613983
 20
671.251221
  0
VERTEX
  8
0
 10
113.924057
 20
670.607666
  0
VERTEX
  8
0
 10
113.198746
 20
669.992737
  0
VERTEX
  8
0
 10
112.444527
 20
669.407471
  0
VERTEX
  8
0
 10
111.863907
 20
668.988892
  0
VERTEX
  8
0
 10
111.075233
 20
668.459106
  0
VERTEX
  8
0
 10
108.534370
 20
666.886963
  0
VERTEX
  8
0
 10
107.830704
 20
666.387390
  0
VERTEX
  8
0
 10
107.349297
 20
665.988098
  0
VERTEX
  8
0
 10
107.052963
 20
665.707031
  0
VERTEX
  8
0
 10
106.774918
 20
665.413818
  0
VERTEX
  8
0
 10
106.513359
 20
665.108765
  0
VERTEX
  8
0
 10
106.148514
 20
664.628723
  0
VERTEX
  8
0
 10
105.921173
 20
664.293945
  0
VERTEX
  8
0
 10
105.599998
 20
663.769836
  0
VERTEX
  8
0
 10
105.297653
 20
663.219421
  0
VERTEX
  8
0
 10
105.008667
 20
662.641724
  0
VERTEX
  8
0
 10
104.728828
 20
662.029907
  0
VERTEX
  8
0
 10
104.453354
 20
661.376221
  0
VERTEX
  8
0
 10
104.178200
 20
660.672546
  0
VERTEX
  8
0
 10
103.803902
 20
659.643005
  0
VERTEX
  8
0
 10
103.206947
 20
657.861023
  0
VERTEX
  8
0
 10
102.551247
 20
655.694824
  0
VERTEX
  8
0
 10
102.076088
 20
653.972046
  0
VERTEX
  8
0
 10
101.566872
 20
651.980469
  0
VERTEX
  8
0
 10
99.961090
 20
645.209290
  0
VERTEX
  8
0
 10
99.113670
 20
641.809021
  0
VERTEX
  8
0
 10
98.564766
 20
639.766602
  0
VERTEX
  8
0
 10
98.181870
 20
638.421875
  0
VERTEX
  8
0
 10
97.786873
 20
637.096008
  0
VERTEX
  8
0
 10
97.174683
 20
635.152161
  0
VERTEX
  8
0
 10
96.543121
 20
633.275085
  0
VERTEX
  8
0
 10
95.896950
 20
631.479126
  0
VERTEX
  8
0
 10
95.240860
 20
629.778809
  0
VERTEX
  8
0
 10
94.800232
 20
628.705383
  0
VERTEX
  8
0
 10
94.357735
 20
627.681091
  0
VERTEX
  8
0
 10
93.690308
 20
626.229431
  0
VERTEX
  8
0
 10
93.017494
 20
624.868958
  0
VERTEX
  8
0
 10
92.338432
 20
623.588013
  0
VERTEX
  8
0
 10
91.652420
 20
622.374695
  0
VERTEX
  8
0
 10
90.958435
 20
621.217102
  0
VERTEX
  8
0
 10
90.254761
 20
620.104919
  0
VERTEX
  8
0
 10
89.536171
 20
619.033508
  0
VERTEX
  8
0
 10
88.796486
 20
617.999451
  0
VERTEX
  8
0
 10
88.029526
 20
616.999512
  0
VERTEX
  8
0
 10
87.229218
 20
616.030396
  0
VERTEX
  8
0
 10
86.673981
 20
615.399780
  0
VERTEX
  8
0
 10
86.099449
 20
614.780457
  0
VERTEX
  8
0
 10
85.202026
 20
613.873901
  0
VERTEX
  8
0
 10
84.267731
 20
612.999451
  0
VERTEX
  8
0
 10
83.302811
 20
612.162781
  0
VERTEX
  8
0
 10
82.314064
 20
611.369751
  0
VERTEX
  8
0
 10
81.644844
 20
610.868164
  0
VERTEX
  8
0
 10
80.630859
 20
610.160828
  0
VERTEX
  8
0
 10
79.950233
 20
609.721497
  0
VERTEX
  8
0
 10
78.919685
 20
609.110474
  0
VERTEX
  8
0
 10
78.223511
 20
608.734436
  0
VERTEX
  8
0
 10
77.160622
 20
608.215820
  0
VERTEX
  8
0
 10
76.436874
 20
607.899780
  0
VERTEX
  8
0
 10
75.323593
 20
607.468506
  0
VERTEX
  8
0
 10
74.560158
 20
607.208862
  0
VERTEX
  8
0
 10
73.777580
 20
606.970764
  0
VERTEX
  8
0
 10
72.570313
 20
606.652954
  0
VERTEX
  8
0
 10
71.748199
 20
606.466309
  0
VERTEX
  8
0
 10
70.497887
 20
606.222351
  0
VERTEX
  8
0
 10
69.237106
 20
606.019897
  0
VERTEX
  8
0
 10
67.977654
 20
605.856628
  0
VERTEX
  8
0
 10
66.731323
 20
605.730347
  0
VERTEX
  8
0
 10
65.506561
 20
605.639282
  0
VERTEX
  8
0
 10
64.299217
 20
605.583130
  0
VERTEX
  8
0
 10
63.102032
 20
605.561768
  0
VERTEX
  8
0
 10
61.907734
 20
605.575439
  0
VERTEX
  8
0
 10
60.307030
 20
605.648010
  0
VERTEX
  8
0
 10
59.090935
 20
605.743530
  0
VERTEX
  8
0
 10
57.856171
 20
605.878357
  0
VERTEX
  8
0
 10
56.602497
 20
606.063660
  0
VERTEX
  8
0
 10
55.756405
 20
606.220764
  0
VERTEX
  8
0
 10
54.471794
 20
606.515503
  0
VERTEX
  8
0
 10
53.605000
 20
606.756226
  0
VERTEX
  8
0
 10
52.289688
 20
607.192261
  0
VERTEX
  8
0
 10
51.402889
 20
607.537720
  0
VERTEX
  8
0
 10
50.510937
 20
607.927185
  0
VERTEX
  8
0
 10
49.619453
 20
608.356812
  0
VERTEX
  8
0
 10
48.734138
 20
608.822510
  0
VERTEX
  8
0
 10
47.860703
 20
609.320374
  0
VERTEX
  8
0
 10
47.004841
 20
609.846252
  0
VERTEX
  8
0
 10
45.766251
 20
610.678833
  0
VERTEX
  8
0
 10
44.979141
 20
611.257202
  0
VERTEX
  8
0
 10
44.229374
 20
611.849487
  0
VERTEX
  8
0
 10
43.521248
 20
612.452271
  0
VERTEX
  8
0
 10
42.853123
 20
613.063721
  0
VERTEX
  8
0
 10
42.221485
 20
613.682861
  0
VERTEX
  8
0
 10
41.335781
 20
614.623474
  0
VERTEX
  8
0
 10
40.781639
 20
615.256714
  0
VERTEX
  8
0
 10
39.996796
 20
616.213196
  0
VERTEX
  8
0
 10
39.257813
 20
617.174072
  0
VERTEX
  8
0
 10
38.325859
 20
618.457092
  0
VERTEX
  8
0
 10
37.657734
 20
619.424194
  0
VERTEX
  8
0
 10
36.797344
 20
620.730347
  0
VERTEX
  8
0
 10
35.959610
 20
622.067383
  0
VERTEX
  8
0
 10
35.131405
 20
623.448181
  0
VERTEX
  8
0
 10
34.295547
 20
624.904358
  0
VERTEX
  8
0
 10
33.643906
 20
626.109680
  0
VERTEX
  8
0
 10
32.953907
 20
627.471375
  0
VERTEX
  8
0
 10
32.464687
 20
628.492249
  0
VERTEX
  8
0
 10
31.675781
 20
630.232971
  0
VERTEX
  8
0
 10
31.106327
 20
631.556091
  0
VERTEX
  8
0
 10
29.850546
 20
634.636780
  0
VERTEX
  8
0
 10
28.139061
 20
639.067261
  0
VERTEX
  8
0
 10
26.091093
 20
644.577576
  0
VERTEX
  8
0
 10
23.812265
 20
650.891296
  0
VERTEX
  8
0
 10
22.753359
 20
653.900818
  0
VERTEX
  8
0
 10
21.927265
 20
656.307312
  0
VERTEX
  8
0
 10
20.168905
 20
661.662231
  0
VERTEX
  8
0
 10
19.829844
 20
662.595825
  0
VERTEX
  8
0
 10
19.547421
 20
663.269043
  0
VERTEX
  8
0
 10
19.135311
 20
664.083008
  0
VERTEX
  8
0
 10
18.723984
 20
664.760071
  0
VERTEX
  8
0
 10
18.209686
 20
665.502625
  0
VERTEX
  8
0
 10
17.575546
 20
666.336243
  0
VERTEX
  8
0
 10
16.851093
 20
667.231934
  0
VERTEX
  8
0
 10
15.881015
 20
668.373657
  0
VERTEX
  8
0
 10
15.103125
 20
669.252380
  0
VERTEX
  8
0
 10
13.196406
 20
671.352661
  0
VERTEX
  8
0
 10
12.596250
 20
672.087402
  0
VERTEX
  8
0
 10
12.177187
 20
672.665588
  0
VERTEX
  8
0
 10
11.912109
 20
673.072510
  0
VERTEX
  8
0
 10
11.658515
 20
673.500427
  0
VERTEX
  8
0
 10
11.416640
 20
673.950073
  0
VERTEX
  8
0
 10
11.186641
 20
674.422424
  0
VERTEX
  8
0
 10
10.968985
 20
674.918335
  0
VERTEX
  8
0
 10
10.763672
 20
675.438660
  0
VERTEX
  8
0
 10
10.571172
 20
675.984192
  0
VERTEX
  8
0
 10
10.391562
 20
676.556030
  0
VERTEX
  8
0
 10
10.225156
 20
677.154846
  0
VERTEX
  8
0
 10
10.072266
 20
677.781616
  0
VERTEX
  8
0
 10
9.867266
 20
678.782166
  0
VERTEX
  8
0
 10
9.635859
 20
680.257813
  0
VERTEX
  8
0
 10
9.490313
 20
681.495239
  0
VERTEX
  8
0
 10
9.366015
 20
682.865784
  0
VERTEX
  8
0
 10
9.228984
 20
684.932800
  0
VERTEX
  8
0
 10
9.120859
 20
687.290405
  0
VERTEX
  8
0
 10
9.060469
 20
689.203735
  0
VERTEX
  8
0
 10
9.011171
 20
691.866760
  0
VERTEX
  8
0
 10
9.000235
 20
693.892029
  0
VERTEX
  8
0
 10
9.013828
 20
695.893433
  0
VERTEX
  8
0
 10
9.053515
 20
697.830627
  0
VERTEX
  8
0
 10
9.117344
 20
699.695862
  0
VERTEX
  8
0
 10
9.232187
 20
702.093811
  0
VERTEX
  8
0
 10
9.562344
 20
707.273804
  0
SEQEND
  8
0
  0
POLYLINE
  8
0
  0
VERTEX
  8
0
 10
99.062889
 20
648.277161
  0
VERTEX
  8
0
 10
98.103355
 20
652.391541
  0
VERTEX
  8
0
 10
95.907104
 20
649.449036
  0
VERTEX
  8
0
 10
99.065544
 20
648.201843
  0
SEQEND
  8
0
  0
POLYLINE
  8
0
  0
VERTEX
  8
0
 10
63.625313
 20
610.325012
  0
VERTEX
  8
0
 10
63.150703
 20
610.213196
  0
VERTEX
  8
0
 10
62.754841
 20
609.928284
  0
VERTEX
  8
0
 10
62.498123
 20
609.513489
  0
VERTEX
  8
0
 10
62.419685
 20
609.032166
  0
VERTEX
  8
0
 10
62.531483
 20
608.557434
  0
VERTEX
  8
0
 10
62.816483
 20
608.161621
  0
VERTEX
  8
0
 10
63.231247
 20
607.904907
  0
VERTEX
  8
0
 10
63.712578
 20
607.826538
  0
VERTEX
  8
0
 10
64.187340
 20
607.938354
  0
VERTEX
  8
0
 10
64.583199
 20
608.223328
  0
VERTEX
  8
0
 10
64.839844
 20
608.638062
  0
VERTEX
  8
0
 10
64.918205
 20
609.119385
  0
VERTEX
  8
0
 10
64.806480
 20
609.594116
  0
VERTEX
  8
0
 10
64.521484
 20
609.989990
  0
VERTEX
  8
0
 10
64.106720
 20
610.246643
  0
VERTEX
  8
0
 10
63.625313
 20
610.325012
  0
SEQEND
  8
0
  0
POLYLINE
  8
0
  0
VERTEX
  8
0
 10
146.809921
 20
2.289687
  0
VERTEX
  8
0
 10
154.992111
 20
1.870469
  0
VERTEX
  8
0
 10
160.361252
 20
1.612109
  0
VERTEX
  8
0
 10
165.601944
 20
1.385469
  0
VERTEX
  8
0
 10
169.417267
 20
1.243750
  0
VERTEX
  8
0
 10
174.323441
 20
1.102188
  0
VERTEX
  8
0
 10
177.914841
 20
1.034219
  0
VERTEX
  8
0
 10
181.498352
 20
1.000078
  0
VERTEX
  8
0
 10
185.134689
 20
1.000703
  0
VERTEX
  8
0
 10
190.170929
 20
1.056953
  0
VERTEX
  8
0
 10
194.167343
 20
1.142031
  0
VERTEX
  8
0
 10
199.827728
 20
1.316016
  0
VERTEX
  8
0
 10
204.274063
 20
1.496250
  0
VERTEX
  8
0
 10
208.847260
 20
1.722578
  0
VERTEX
  8
0
 10
213.506409
 20
1.998437
  0
VERTEX
  8
0
 10
218.210770
 20
2.327266
  0
VERTEX
  8
0
 10
222.923981
 20
2.712109
  0
VERTEX
  8
0
 10
226.077805
 20
3.002187
  0
VERTEX
  8
0
 10
229.258972
 20
3.320781
  0
VERTEX
  8
0
 10
232.483353
 20
3.669531
  0
VERTEX
  8
0
 10
235.766785
 20
4.049844
  0
VERTEX
  8
0
 10
239.124924
 20
4.463359
  0
VERTEX
  8
0
 10
242.573746
 20
4.911719
  0
VERTEX
  8
0
 10
246.128906
 20
5.396250
  0
VERTEX
  8
0
 10
251.694839
 20
6.194531
  0
VERTEX
  8
0
 10
257.549225
 20
7.074922
  0
VERTEX
  8
0
 10
263.646393
 20
8.022500
  0
VERTEX
  8
0
 10
278.532806
 20
10.403438
  0
VERTEX
  8
0
 10
296.020538
 20
13.207421
  0
VERTEX
  8
0
 10
309.175079
 20
15.283671
  0
VERTEX
  8
0
 10
326.730530
 20
18.030781
  0
VERTEX
  8
0
 10
318.880463
 20
24.826639
  0
VERTEX
  8
0
 10
314.206177
 20
28.850624
  0
VERTEX
  8
0
 10
309.863281
 20
32.555389
  0
VERTEX
  8
0
 10
305.936646
 20
35.856171
  0
VERTEX
  8
0
 10
302.339294
 20
38.820625
  0
VERTEX
  8
0
 10
298.942017
 20
41.554375
  0
VERTEX
  8
0
 10
295.616638
 20
44.161797
  0
VERTEX
  8
0
 10
292.286011
 20
46.701405
  0
VERTEX
  8
0
 10
290.280701
 20
48.192108
  0
VERTEX
  8
0
 10
288.268677
 20
49.656876
  0
VERTEX
  8
0
 10
284.896698
 20
52.036716
  0
VERTEX
  8
0
 10
281.525085
 20
54.319218
  0
VERTEX
  8
0
 10
278.289612
 20
56.418201
  0
VERTEX
  8
0
 10
276.482269
 20
57.547031
  0
VERTEX
  8
0
 10
275.354919
 20
58.231483
  0
VERTEX
  8
0
 10
273.806946
 20
59.139843
  0
VERTEX
  8
0
 10
272.882263
 20
59.658905
  0
VERTEX
  8
0
 10
272.039063
 20
60.112106
  0
VERTEX
  8
0
 10
270.908051
 20
60.680935
  0
VERTEX
  8
0
 10
269.911560
 20
61.134296
  0
VERTEX
  8
0
 10
269.020081
 20
61.492188
  0
VERTEX
  8
0
 10
268.204285
 20
61.774372
  0
VERTEX
  8
0
 10
267.434906
 20
62.000546
  0
VERTEX
  8
0
 10
266.685150
 20
62.182343
  0
VERTEX
  8
0
 10
266.184998
 20
62.278358
  0
VERTEX
  8
0
 10
265.417877
 20
62.382889
  0
VERTEX
  8
0
 10
264.885620
 20
62.425388
  0
VERTEX
  8
0
 10
264.328888
 20
62.445313
  0
VERTEX
  8
0
 10
263.741180
 20
62.442028
  0
VERTEX
  8
0
 10
262.786865
 20
62.392265
  0
VERTEX
  8
0
 10
262.093506
 20
62.327812
  0
VERTEX
  8
0
 10
260.961700
 20
62.179375
  0
VERTEX
  8
0
 10
260.144135
 20
62.042343
  0
VERTEX
  8
0
 10
259.274750
 20
61.872185
  0
VERTEX
  8
0
 10
258.352264
 20
61.666328
  0
VERTEX
  8
0
 10
257.375610
 20
61.422497
  0
VERTEX
  8
0
 10
256.343445
 20
61.138359
  0
VERTEX
  8
0
 10
254.688278
 20
60.631172
  0
VERTEX
  8
0
 10
253.511948
 20
60.236404
  0
VERTEX
  8
0
 10
252.276169
 20
59.797890
  0
VERTEX
  8
0
 10
250.308823
 20
59.063671
  0
VERTEX
  8
0
 10
247.468903
 20
57.955467
  0
VERTEX
  8
0
 10
236.509064
 20
53.583984
  0
VERTEX
  8
0
 10
228.143585
 20
50.319218
  0
VERTEX
  8
0
 10
223.742020
 20
48.634529
  0
VERTEX
  8
0
 10
219.738037
 20
47.130077
  0
VERTEX
  8
0
 10
216.228271
 20
45.842888
  0
VERTEX
  8
0
 10
213.305145
 20
44.808201
  0
VERTEX
  8
0
 10
211.440536
 20
44.183514
  0
VERTEX
  8
0
 10
210.291565
 20
43.829842
  0
VERTEX
  8
0
 10
209.310226
 20
43.565155
  0
VERTEX
  8
0
 10
208.455002
 20
43.380859
  0
VERTEX
  8
0
 10
207.684296
 20
43.268436
  0
VERTEX
  8
0
 10
207.196869
 20
43.228985
  0
VERTEX
  8
0
 10
206.716400
 20
43.215233
  0
VERTEX
  8
0
 10
205.996948
 20
43.239372
  0
VERTEX
  8
0
 10
205.517883
 20
43.284294
  0
VERTEX
  8
0
 10
205.038986
 20
43.351639
  0
VERTEX
  8
0
 10
204.560379
 20
43.440781
  0
VERTEX
  8
0
 10
204.081787
 20
43.551014
  0
VERTEX
  8
0
 10
203.124680
 20
43.832500
  0
VERTEX
  8
0
 10
202.165466
 20
44.192497
  0
VERTEX
  8
0
 10
201.677109
 20
44.408672
  0
VERTEX
  8
0
 10
201.172882
 20
44.658516
  0
VERTEX
  8
0
 10
200.644989
 20
44.949688
  0
VERTEX
  8
0
 10
200.085617
 20
45.289688
  0
VERTEX
  8
0
 10
199.170380
 20
45.907654
  0
VERTEX
  8
0
 10
198.140549
 20
46.677891
  0
VERTEX
  8
0
 10
196.969925
 20
47.625389
  0
VERTEX
  8
0
 10
195.655548
 20
48.752499
  0
VERTEX
  8
0
 10
193.735779
 20
50.477264
  0
VERTEX
  8
0
 10
192.216324
 20
51.890781
  0
VERTEX
  8
0
 10
190.151474
 20
53.866875
  0
VERTEX
  8
0
 10
188.619690
 20
55.371170
  0
VERTEX
  8
0
 10
187.134689
 20
56.859375
  0
VERTEX
  8
0
 10
180.347656
 20
63.799217
  0
VERTEX
  8
0
 10
178.671005
 20
65.456718
  0
VERTEX
  8
0
 10
177.045700
 20
67.024063
  0
VERTEX
  8
0
 10
173.611633
 20
70.240623
  0
VERTEX
  8
0
 10
165.961563
 20
77.254608
  0
VERTEX
  8
0
 10
165.029144
 20
78.065308
  0
VERTEX
  8
0
 10
164.245773
 20
78.693359
  0
VERTEX
  8
0
 10
163.431946
 20
79.278282
  0
VERTEX
  8
0
 10
162.775543
 20
79.683823
  0
VERTEX
  8
0
 10
162.128586
 20
80.007576
  0
VERTEX
  8
0
 10
161.812805
 20
80.131172
  0
VERTEX
  8
0
 10
161.503586
 20
80.225700
  0
VERTEX
  8
0
 10
161.198593
 20
80.290779
  0
VERTEX
  8
0
 10
160.894684
 20
80.326714
  0
VERTEX
  8
0
 10
160.433899
 20
80.326401
  0
VERTEX
  8
0
 10
160.118896
 20
80.290466
  0
VERTEX
  8
0
 10
159.793976
 20
80.226089
  0
VERTEX
  8
0
 10
159.456009
 20
80.133514
  0
VERTEX
  8
0
 10
158.917572
 20
79.942345
  0
VERTEX
  8
0
 10
158.125076
 20
79.590309
  0
VERTEX
  8
0
 10
156.982971
 20
78.992500
  0
VERTEX
  8
0
 10
155.333435
 20
78.039528
  0
VERTEX
  8
0
 10
152.185547
 20
76.142731
  0
VERTEX
  8
0
 10
147.908127
 20
73.524605
  0
VERTEX
  8
0
 10
145.540619
 20
72.044533
  0
VERTEX
  8
0
 10
144.677261
 20
71.473671
  0
VERTEX
  8
0
 10
143.916489
 20
70.933983
  0
VERTEX
  8
0
 10
143.266251
 20
70.420860
  0
VERTEX
  8
0
 10
142.734604
 20
69.929451
  0
VERTEX
  8
0
 10
142.448898
 20
69.611252
  0
VERTEX
  8
0
 10
142.117966
 20
69.142342
  0
VERTEX
  8
0
 10
142.031799
 20
68.986954
  0
VERTEX
  8
0
 10
141.893127
 20
68.675308
  0
VERTEX
  8
0
 10
141.762192
 20
68.200935
  0
VERTEX
  8
0
 10
141.721008
 20
67.876091
  0
VERTEX
  8
0
 10
141.719376
 20
67.369217
  0
VERTEX
  8
0
 10
141.779053
 20
66.830933
  0
VERTEX
  8
0
 10
141.890778
 20
66.255623
  0
VERTEX
  8
0
 10
142.050156
 20
65.643745
  0
VERTEX
  8
0
 10
142.253128
 20
64.996094
  0
VERTEX
  8
0
 10
142.495392
 20
64.313438
  0
VERTEX
  8
0
 10
142.773041
 20
63.596481
  0
VERTEX
  8
0
 10
143.191956
 20
62.587109
  0
VERTEX
  8
0
 10
143.812881
 20
61.175232
  0
VERTEX
  8
0
 10
147.718903
 20
52.621563
  0
VERTEX
  8
0
 10
150.001007
 20
47.493984
  0
VERTEX
  8
0
 10
150.762802
 20
45.723358
  0
VERTEX
  8
0
 10
151.426559
 20
44.130077
  0
VERTEX
  8
0
 10
151.998276
 20
42.699764
  0
VERTEX
  8
0
 10
152.642181
 20
40.991718
  0
VERTEX
  8
0
 10
153.054764
 20
39.818829
  0
VERTEX
  8
0
 10
153.538437
 20
38.339294
  0
VERTEX
  8
0
 10
153.868195
 20
37.252655
  0
VERTEX
  8
0
 10
154.168198
 20
36.160000
  0
VERTEX
  8
0
 10
154.425156
 20
35.044922
  0
VERTEX
  8
0
 10
154.565857
 20
34.280857
  0
VERTEX
  8
0
 10
154.677490
 20
33.494610
  0
VERTEX
  8
0
 10
154.755936
 20
32.681171
  0
VERTEX
  8
0
 10
154.797256
 20
31.835781
  0
VERTEX
  8
0
 10
154.802734
 20
31.399452
  0
VERTEX
  8
0
 10
154.781097
 20
30.497030
  0
VERTEX
  8
0
 10
154.715469
 20
29.553984
  0
VERTEX
  8
0
 10
154.607880
 20
28.572344
  0
VERTEX
  8
0
 10
154.460388
 20
27.554218
  0
VERTEX
  8
0
 10
154.169052
 20
25.963514
  0
VERTEX
  8
0
 10
153.931015
 20
24.863749
  0
VERTEX
  8
0
 10
153.513519
 20
23.160624
  0
VERTEX
  8
0
 10
153.197891
 20
21.992657
  0
VERTEX
  8
0
 10
152.855072
 20
20.801250
  0
VERTEX
  8
0
 10
152.103821
 20
18.370781
  0
VERTEX
  8
0
 10
151.300156
 20
15.928281
  0
VERTEX
  8
0
 10
149.520386
 20
10.711328
  0
VERTEX
  8
0
 10
148.829453
 20
8.642422
  0
VERTEX
  8
0
 10
147.911713
 20
5.803515
  0
VERTEX
  8
0
 10
146.809921
 20
2.289687
  0
SEQEND
  8
0
  0
POLYLINE
  8
0
  0
VERTEX
  8
0
 10
151.928436
 20
64.185471
  0
VERTEX
  8
0
 10
162.966400
 20
68.385468
  0
SEQEND
  8
0
  0
POLYLINE
  8
0
  0
VERTEX
  8
0
 10
152.956085
 20
47.533672
  0
VERTEX
  8
0
 10
157.302490
 20
49.372810
  0
SEQEND
  8
0
  0
POLYLINE
  8
0
  0
VERTEX
  8
0
 10
174.370224
 20
58.528591
  0
VERTEX
  8
0
 10
179.019135
 20
60.791172
  0
SEQEND
  8
0
  0
POLYLINE
  8
0
  0
VERTEX
  8
0
 10
285.416779
 20
43.972343
  0
VERTEX
  8
0
 10
271.075226
 20
38.456093
  0
VERTEX
  8
0
 10
254.146164
 20
31.970312
  0
VERTEX
  8
0
 10
244.026321
 20
28.058750
  0
VERTEX
  8
0
 10
237.406006
 20
25.472734
  0
VERTEX
  8
0
 10
230.257187
 20
22.654219
  0
VERTEX
  8
0
 10
224.748428
 20
20.460312
  0
VERTEX
  8
0
 10
219.274063
 20
18.256407
  0
VERTEX
  8
0
 10
213.978668
 20
16.095156
  0
VERTEX
  8
0
 10
210.619141
 20
14.704062
  0
VERTEX
  8
0
 10
207.444839
 20
13.370546
  0
VERTEX
  8
0
 10
203.042419
 20
11.483749
  0
VERTEX
  8
0
 10
199.003906
 20
9.712110
  0
VERTEX
  8
0
 10
195.251404
 20
8.030937
  0
VERTEX
  8
0
 10
191.706863
 20
6.415547
  0
VERTEX
  8
0
 10
186.049530
 20
3.802500
  0
SEQEND
  8
0
  0
POLYLINE
  8
0
  0
VERTEX
  8
0
 10
232.751556
 20
14.982577
  0
VERTEX
  8
0
 10
230.501328
 20
10.519453
  0
VERTEX
  8
0
 10
237.833817
 20
10.790000
  0
VERTEX
  8
0
 10
232.890381
 20
15.551171
  0
SEQEND
  8
0
  0
POLYLINE
  8
0
  0
VERTEX
  8
0
 10
153.920853
 20
64.359764
  0
VERTEX
  8
0
 10
153.769455
 20
64.966873
  0
VERTEX
  8
0
 10
153.437805
 20
65.497574
  0
VERTEX
  8
0
 10
152.958511
 20
65.899765
  0
VERTEX
  8
0
 10
152.378281
 20
66.134216
  0
VERTEX
  8
0
 10
151.754135
 20
66.177811
  0
VERTEX
  8
0
 10
151.146942
 20
66.026482
  0
VERTEX
  8
0
 10
150.616318
 20
65.694839
  0
VERTEX
  8
0
 10
150.214142
 20
65.215546
  0
VERTEX
  8
0
 10
149.979767
 20
64.635307
  0
VERTEX
  8
0
 10
149.936096
 20
64.011093
  0
VERTEX
  8
0
 10
150.087418
 20
63.404060
  0
VERTEX
  8
0
 10
150.419052
 20
62.873360
  0
VERTEX
  8
0
 10
150.898361
 20
62.471172
  0
VERTEX
  8
0
 10
151.478516
 20
62.236797
  0
VERTEX
  8
0
 10
152.102814
 20
62.193047
  0
VERTEX
  8
0
 10
152.709839
 20
62.344528
  0
VERTEX
  8
0
 10
153.240540
 20
62.676094
  0
VERTEX
  8
0
 10
153.642731
 20
63.155388
  0
VERTEX
  8
0
 10
153.877182
 20
63.735622
  0
VERTEX
  8
0
 10
153.920853
 20
64.359764
  0
SEQEND
  8
0
  0
POLYLINE
  8
0
  0
VERTEX
  8
0
 10
164.958740
 20
68.559761
  0
VERTEX
  8
0
 10
164.807419
 20
69.166870
  0
VERTEX
  8
0
 10
164.475784
 20
69.697578
  0
VERTEX
  8
0
 10
163.996399
 20
70.099762
  0
VERTEX
  8
0
 10
163.416245
 20
70.334221
  0
VERTEX
  8
0
 10
162.792023
 20
70.377892
  0
VERTEX
  8
0
 10
162.184921
 20
70.226486
  0
VERTEX
  8
0
 10
161.654297
 20
69.894844
  0
VERTEX
  8
0
 10
161.252029
 20
69.415543
  0
VERTEX
  8
0
 10
161.017654
 20
68.835312
  0
VERTEX
  8
0
 10
160.973984
 20
68.211174
  0
VERTEX
  8
0
 10
161.125381
 20
67.603981
  0
VERTEX
  8
0
 10
161.456955
 20
67.073280
  0
VERTEX
  8
0
 10
161.936325
 20
66.671089
  0
VERTEX
  8
0
 10
162.516479
 20
66.436714
  0
VERTEX
  8
0
 10
163.140701
 20
66.393044
  0
VERTEX
  8
0
 10
163.747803
 20
66.544449
  0
VERTEX
  8
0
 10
164.278427
 20
66.876015
  0
VERTEX
  8
0
 10
164.680695
 20
67.355309
  0
VERTEX
  8
0
 10
164.915070
 20
67.935547
  0
VERTEX
  8
0
 10
164.958740
 20
68.559761
  0
SEQEND
  8
0
  0
POLYLINE
  8
0
  0
VERTEX
  8
0
 10
153.952255
 20
47.620857
  0
VERTEX
  8
0
 10
153.843048
 20
47.995388
  0
VERTEX
  8
0
 10
153.598831
 20
48.299686
  0
VERTEX
  8
0
 10
153.256790
 20
48.487419
  0
VERTEX
  8
0
 10
152.868988
 20
48.529842
  0
VERTEX
  8
0
 10
152.494293
 20
48.420704
  0
VERTEX
  8
0
 10
152.190079
 20
48.176483
  0
VERTEX
  8
0
 10
152.002335
 20
47.834373
  0
VERTEX
  8
0
 10
151.959915
 20
47.446484
  0
VERTEX
  8
0
 10
152.069061
 20
47.071953
  0
VERTEX
  8
0
 10
152.313278
 20
46.767654
  0
VERTEX
  8
0
 10
152.655304
 20
46.579922
  0
VERTEX
  8
0
 10
153.043274
 20
46.537498
  0
VERTEX
  8
0
 10
153.417816
 20
46.646641
  0
VERTEX
  8
0
 10
153.722107
 20
46.890858
  0
VERTEX
  8
0
 10
153.909760
 20
47.232967
  0
VERTEX
  8
0
 10
153.952255
 20
47.620857
  0
SEQEND
  8
0
  0
POLYLINE
  8
0
  0
VERTEX
  8
0
 10
158.298676
 20
49.459999
  0
VERTEX
  8
0
 10
158.189453
 20
49.834530
  0
VERTEX
  8
0
 10
157.945313
 20
50.138905
  0
VERTEX
  8
0
 10
157.603195
 20
50.326561
  0
VERTEX
  8
0
 10
157.215302
 20
50.369061
  0
VERTEX
  8
0
 10
156.840698
 20
50.259842
  0
VERTEX
  8
0
 10
156.536484
 20
50.015625
  0
VERTEX
  8
0
 10
156.348740
 20
49.673515
  0
VERTEX
  8
0
 10
156.306320
 20
49.285702
  0
VERTEX
  8
0
 10
156.415466
 20
48.911091
  0
VERTEX
  8
0
 10
156.659683
 20
48.606796
  0
VERTEX
  8
0
 10
157.001709
 20
48.419060
  0
VERTEX
  8
0
 10
157.389679
 20
48.376640
  0
VERTEX
  8
0
 10
157.764221
 20
48.485779
  0
VERTEX
  8
0
 10
158.068512
 20
48.730076
  0
VERTEX
  8
0
 10
158.256165
 20
49.072186
  0
VERTEX
  8
0
 10
158.298676
 20
49.459999
  0
SEQEND
  8
0
  0
POLYLINE
  8
0
  0
VERTEX
  8
0
 10
175.366486
 20
58.615780
  0
VERTEX
  8
0
 10
175.257263
 20
58.990311
  0
VERTEX
  8
0
 10
175.013046
 20
59.294609
  0
VERTEX
  8
0
 10
174.671005
 20
59.482342
  0
VERTEX
  8
0
 10
174.283127
 20
59.524765
  0
VERTEX
  8
0
 10
173.908508
 20
59.415623
  0
VERTEX
  8
0
 10
173.604218
 20
59.171406
  0
VERTEX
  8
0
 10
173.416565
 20
58.829296
  0
VERTEX
  8
0
 10
173.374054
 20
58.441406
  0
VERTEX
  8
0
 10
173.483276
 20
58.066875
  0
VERTEX
  8
0
 10
173.727493
 20
57.762577
  0
VERTEX
  8
0
 10
174.069611
 20
57.574844
  0
VERTEX
  8
0
 10
174.457413
 20
57.532421
  0
VERTEX
  8
0
 10
174.832031
 20
57.641560
  0
VERTEX
  8
0
 10
175.136322
 20
57.885780
  0
VERTEX
  8
0
 10
175.323975
 20
58.227890
  0
VERTEX
  8
0
 10
175.366486
 20
58.615780
  0
SEQEND
  8
0
  0
POLYLINE
  8
0
  0
VERTEX
  8
0
 10
180.015305
 20
60.878357
  0
VERTEX
  8
0
 10
179.906082
 20
61.252888
  0
VERTEX
  8
0
 10
179.661865
 20
61.557262
  0
VERTEX
  8
0
 10
179.319763
 20
61.744843
  0
VERTEX
  8
0
 10
178.931946
 20
61.787422
  0
VERTEX
  8
0
 10
178.557343
 20
61.678123
  0
VERTEX
  8
0
 10
178.253036
 20
61.433983
  0
VERTEX
  8
0
 10
178.065384
 20
61.091873
  0
VERTEX
  8
0
 10
178.022888
 20
60.704060
  0
VERTEX
  8
0
 10
178.132111
 20
60.329372
  0
VERTEX
  8
0
 10
178.376328
 20
60.025154
  0
VERTEX
  8
0
 10
178.718353
 20
59.837421
  0
VERTEX
  8
0
 10
179.106247
 20
59.794998
  0
VERTEX
  8
0
 10
179.480850
 20
59.904140
  0
VERTEX
  8
0
 10
179.785156
 20
60.148438
  0
VERTEX
  8
0
 10
179.972733
 20
60.490467
  0
VERTEX
  8
0
 10
180.015305
 20
60.878357
  0
SEQEND
  8
0
  0
POLYLINE
  8
0
  0
VERTEX
  8
0
 10
109.853279
 20
814.583862
  0
VERTEX
  8
0
 10
110.170235
 20
807.131165
  0
VERTEX
  8
0
 10
110.372108
 20
801.207458
  0
VERTEX
  8
0
 10
110.453590
 20
796.901794
  0
VERTEX
  8
0
 10
110.458511
 20
794.943115
  0
VERTEX
  8
0
 10
110.435150
 20
793.137268
  0
VERTEX
  8
0
 10
110.382500
 20
791.488525
  0
VERTEX
  8
0
 10
110.301720
 20
789.987732
  0
VERTEX
  8
0
 10
110.194061
 20
788.625427
  0
VERTEX
  8
0
 10
110.060776
 20
787.391907
  0
VERTEX
  8
0
 10
109.903122
 20
786.277588
  0
VERTEX
  8
0
 10
109.722420
 20
785.272705
  0
VERTEX
  8
0
 10
109.519920
 20
784.367737
  0
VERTEX
  8
0
 10
109.296791
 20
783.553040
  0
VERTEX
  8
0
 10
109.177887
 20
783.176575
  0
VERTEX
  8
0
 10
108.925781
 20
782.479370
  0
VERTEX
  8
0
 10
108.653198
 20
781.849121
  0
VERTEX
  8
0
 10
108.358360
 20
781.276917
  0
VERTEX
  8
0
 10
108.202110
 20
781.009888
  0
VERTEX
  8
0
 10
107.870544
 20
780.508362
  0
VERTEX
  8
0
 10
107.512344
 20
780.042725
  0
VERTEX
  8
0
 10
107.125702
 20
779.604309
  0
VERTEX
  8
0
 10
106.708824
 20
779.184021
  0
VERTEX
  8
0
 10
106.259918
 20
778.773193
  0
VERTEX
  8
0
 10
105.263359
 20
777.949829
  0
VERTEX
  8
0
 10
104.164917
 20
777.116699
  0
VERTEX
  8
0
 10
100.744766
 20
774.631775
  0
VERTEX
  8
0
 10
99.961090
 20
774.017639
  0
VERTEX
  8
0
 10
99.222733
 20
773.373352
  0
VERTEX
  8
0
 10
98.529297
 20
772.668640
  0
VERTEX
  8
0
 10
98.091873
 20
772.150513
  0
VERTEX
  8
0
 10
97.880623
 20
771.873596
  0
VERTEX
  8
0
 10
97.472885
 20
771.278259
  0
VERTEX
  8
0
 10
97.276405
 20
770.957703
  0
VERTEX
  8
0
 10
96.898277
 20
770.265198
  0
VERTEX
  8
0
 10
96.716484
 20
769.891296
  0
VERTEX
  8
0
 10
96.366486
 20
769.088440
  0
VERTEX
  8
0
 10
95.871010
 20
767.753479
  0
VERTEX
  8
0
 10
95.403748
 20
766.273315
  0
VERTEX
  8
0
 10
94.957031
 20
764.660767
  0
VERTEX
  8
0
 10
94.666557
 20
763.518494
  0
VERTEX
  8
0
 10
94.236244
 20
761.713989
  0
VERTEX
  8
0
 10
92.593979
 20
754.374207
  0
VERTEX
  8
0
 10
91.741486
 20
750.808899
  0
VERTEX
  8
0
 10
91.176483
 20
748.645508
  0
VERTEX
  8
0
 10
90.772888
 20
747.202148
  0
VERTEX
  8
0
 10
90.345856
 20
745.758789
  0
VERTEX
  8
0
 10
89.893906
 20
744.314697
  0
VERTEX
  8
0
 10
89.166016
 20
742.146057
  0
VERTEX
  8
0
 10
88.645309
 20
740.697693
  0
VERTEX
  8
0
 10
87.807495
 20
738.519836
  0
VERTEX
  8
0
 10
87.209061
 20
737.063416
  0
VERTEX
  8
0
 10
86.247887
 20
734.870850
  0
VERTEX
  8
0
 10
85.565155
 20
733.407898
  0
VERTEX
  8
0
 10
84.852417
 20
731.953918
  0
VERTEX
  8
0
 10
84.113045
 20
730.518005
  0
VERTEX
  8
0
 10
83.350388
 20
729.109436
  0
VERTEX
  8
0
 10
82.567886
 20
727.737427
  0
VERTEX
  8
0
 10
81.364220
 20
725.767944
  0
VERTEX
  8
0
 10
80.546875
 20
724.527405
  0
VERTEX
  8
0
 10
79.721481
 20
723.355713
  0
VERTEX
  8
0
 10
79.306793
 20
722.798157
  0
VERTEX
  8
0
 10
78.473747
 20
721.739563
  0
VERTEX
  8
0
 10
78.055229
 20
721.237610
  0
VERTEX
  8
0
 10
77.214218
 20
720.285706
  0
VERTEX
  8
0
 10
76.367264
 20
719.399963
  0
VERTEX
  8
0
 10
75.514061
 20
718.576538
  0
VERTEX
  8
0
 10
74.654221
 20
717.811462
  0
VERTEX
  8
0
 10
73.787186
 20
717.100891
  0
VERTEX
  8
0
 10
72.912735
 20
716.440857
  0
VERTEX
  8
0
 10
72.030388
 20
715.827393
  0
VERTEX
  8
0
 10
71.138908
 20
715.257141
  0
VERTEX
  8
0
 10
70.234375
 20
714.728577
  0
VERTEX
  8
0
 10
69.311798
 20
714.240479
  0
VERTEX
  8
0
 10
68.366402
 20
713.791626
  0
VERTEX
  8
0
 10
67.393356
 20
713.381104
  0
VERTEX
  8
0
 10
66.387810
 20
713.007629
  0
VERTEX
  8
0
 10
65.345001
 20
712.670166
  0
VERTEX
  8
0
 10
64.808121
 20
712.514587
  0
VERTEX
  8
0
 10
63.700310
 20
712.228943
  0
VERTEX
  8
0
 10
62.543358
 20
711.976624
  0
VERTEX
  8
0
 10
61.340313
 20
711.757813
  0
VERTEX
  8
0
 10
60.101250
 20
711.574036
  0
VERTEX
  8
0
 10
58.836952
 20
711.427185
  0
VERTEX
  8
0
 10
57.557812
 20
711.318726
  0
VERTEX
  8
0
 10
56.274372
 20
711.250549
  0
VERTEX
  8
0
 10
54.997421
 20
711.224121
  0
VERTEX
  8
0
 10
53.737343
 20
711.241211
  0
VERTEX
  8
0
 10
52.504841
 20
711.303528
  0
VERTEX
  8
0
 10
51.902187
 20
711.352112
  0
VERTEX
  8
0
 10
50.728516
 20
711.484741
  0
VERTEX
  8
0
 10
49.594997
 20
711.662720
  0
VERTEX
  8
0
 10
48.498592
 20
711.883789
  0
VERTEX
  8
0
 10
47.436092
 20
712.145691
  0
VERTEX
  8
0
 10
46.404373
 20
712.446167
  0
VERTEX
  8
0
 10
45.400234
 20
712.782715
  0
VERTEX
  8
0
 10
44.420547
 20
713.153320
  0
VERTEX
  8
0
 10
43.462185
 20
713.555481
  0
VERTEX
  8
0
 10
42.057655
 20
714.213196
  0
VERTEX
  8
0
 10
40.682186
 20
714.942627
  0
VERTEX
  8
0
 10
39.774841
 20
715.481628
  0
VERTEX
  8
0
 10
38.870544
 20
716.072327
  0
VERTEX
  8
0
 10
37.965389
 20
716.723022
  0
VERTEX
  8
0
 10
37.055313
 20
717.441833
  0
VERTEX
  8
0
 10
36.136326
 20
718.237244
  0
VERTEX
  8
0
 10
35.204529
 20
719.117249
  0
VERTEX
  8
0
 10
34.732498
 20
719.591553
  0
VERTEX
  8
0
 10
34.255859
 20
720.090149
  0
VERTEX
  8
0
 10
33.288357
 20
721.161133
  0
VERTEX
  8
0
 10
32.307579
 20
722.323181
  0
VERTEX
  8
0
 10
31.321249
 20
723.566223
  0
VERTEX
  8
0
 10
30.336718
 20
724.880066
  0
VERTEX
  8
0
 10
29.361795
 20
726.254578
  0
VERTEX
  8
0
 10
28.403828
 20
727.679688
  0
VERTEX
  8
0
 10
27.933672
 20
728.408081
  0
VERTEX
  8
0
 10
27.015547
 20
729.890198
  0
VERTEX
  8
0
 10
26.133436
 20
731.397583
  0
VERTEX
  8
0
 10
25.708202
 20
732.157654
  0
VERTEX
  8
0
 10
24.892578
 20
733.685364
  0
VERTEX
  8
0
 10
24.501640
 20
734.452393
  0
VERTEX
  8
0
 10
23.751797
 20
735.991150
  0
VERTEX
  8
0
 10
22.701952
 20
738.307068
  0
VERTEX
  8
0
 10
21.733593
 20
740.625549
  0
VERTEX
  8
0
 10
20.837265
 20
742.938904
  0
VERTEX
  8
0
 10
20.003750
 20
745.239502
  0
VERTEX
  8
0
 10
18.973906
 20
748.273193
  0
VERTEX
  8
0
 10
18.019688
 20
751.242737
  0
VERTEX
  8
0
 10
16.055079
 20
757.528625
  0
VERTEX
  8
0
 10
15.429218
 20
759.455505
  0
VERTEX
  8
0
 10
14.809531
 20
761.278625
  0
VERTEX
  8
0
 10
14.199765
 20
762.991394
  0
VERTEX
  8
0
 10
13.409452
 20
765.091614
  0
VERTEX
  8
0
 10
12.654297
 20
766.967957
  0
VERTEX
  8
0
 10
11.944297
 20
768.605042
  0
VERTEX
  8
0
 10
11.275624
 20
770.009460
  0
VERTEX
  8
0
 10
10.783203
 20
770.939453
  0
VERTEX
  8
0
 10
10.282890
 20
771.789063
  0
VERTEX
  8
0
 10
9.938046
 20
772.322083
  0
VERTEX
  8
0
 10
9.579297
 20
772.836365
  0
VERTEX
  8
0
 10
9.005938
 20
773.587463
  0
VERTEX
  8
0
 10
8.382969
 20
774.331360
  0
VERTEX
  8
0
 10
6.354609
 20
776.584656
  0
VERTEX
  8
0
 10
5.463203
 20
777.620422
  0
VERTEX
  8
0
 10
4.833750
 20
778.420837
  0
VERTEX
  8
0
 10
4.250391
 20
779.252197
  0
VERTEX
  8
0
 10
3.887578
 20
779.832642
  0
VERTEX
  8
0
 10
3.545781
 20
780.440857
  0
VERTEX
  8
0
 10
3.072734
 20
781.417419
  0
VERTEX
  8
0
 10
2.647344
 20
782.488403
  0
VERTEX
  8
0
 10
2.270000
 20
783.673035
  0
VERTEX
  8
0
 10
2.045234
 20
784.535217
  0
VERTEX
  8
0
 10
1.748437
 20
785.939697
  0
VERTEX
  8
0
 10
1.577734
 20
786.944885
  0
VERTEX
  8
0
 10
1.362578
 20
788.546997
  0
VERTEX
  8
0
 10
1.246641
 20
789.672546
  0
VERTEX
  8
0
 10
1.114219
 20
791.437805
  0
VERTEX
  8
0
 10
1.031953
 20
793.284363
  0
VERTEX
  8
0
 10
0.999844
 20
795.198914
  0
VERTEX
  8
0
 10
1.012891
 20
797.157715
  0
VERTEX
  8
0
 10
1.063281
 20
799.130371
  0
VERTEX
  8
0
 10
1.142969
 20
801.086304
  0
VERTEX
  8
0
 10
1.243750
 20
802.994934
  0
VERTEX
  8
0
 10
1.397500
 20
805.413330
  0
VERTEX
  8
0
 10
1.599375
 20
808.170227
  0
VERTEX
  8
0
 10
1.806406
 20
810.689148
  0
VERTEX
  8
0
 10
2.138438
 20
814.399536
  0
VERTEX
  8
0
 10
11.236328
 20
812.263672
  0
VERTEX
  8
0
 10
23.140938
 20
809.468811
  0
VERTEX
  8
0
 10
32.664688
 20
807.232971
  0
VERTEX
  8
0
 10
44.569374
 20
804.438110
  0
VERTEX
  8
0
 10
44.201874
 20
803.273804
  0
VERTEX
  8
0
 10
43.955391
 20
802.383728
  0
VERTEX
  8
0
 10
43.748280
 20
801.515381
  0
VERTEX
  8
0
 10
43.305157
 20
799.487427
  0
VERTEX
  8
0
 10
43.048904
 20
798.441284
  0
VERTEX
  8
0
 10
42.756798
 20
797.447876
  0
VERTEX
  8
0
 10
42.494923
 20
796.708130
  0
VERTEX
  8
0
 10
42.282032
 20
796.189148
  0
VERTEX
  8
0
 10
42.055000
 20
795.703674
  0
VERTEX
  8
0
 10
41.813591
 20
795.253967
  0
VERTEX
  8
0
 10
41.558201
 20
794.842224
  0
VERTEX
  8
0
 10
41.293125
 20
794.469055
  0
VERTEX
  8
0
 10
40.936249
 20
794.029907
  0
VERTEX
  8
0
 10
40.590469
 20
793.655762
  0
VERTEX
  8
0
 10
40.271873
 20
793.344849
  0
VERTEX
  8
0
 10
39.993748
 20
793.094116
  0
VERTEX
  8
0
 10
39.741951
 20
792.893188
  0
VERTEX
  8
0
 10
39.488594
 20
792.727234
  0
VERTEX
  8
0
 10
39.205624
 20
792.581726
  0
VERTEX
  8
0
 10
38.864998
 20
792.441833
  0
VERTEX
  8
0
 10
38.339138
 20
792.264343
  0
VERTEX
  8
0
 10
37.724998
 20
792.093323
  0
VERTEX
  8
0
 10
37.189453
 20
791.969604
  0
VERTEX
  8
0
 10
36.346329
 20
791.819763
  0
VERTEX
  8
0
 10
35.327812
 20
791.700867
  0
VERTEX
  8
0
 10
34.426876
 20
791.632690
  0
VERTEX
  8
0
 10
32.230232
 20
791.505981
  0
VERTEX
  8
0
 10
31.087030
 20
791.393799
  0
VERTEX
  8
0
 10
30.430546
 20
791.297119
  0
VERTEX
  8
0
 10
29.953749
 20
791.206543
  0
VERTEX
  8
0
 10
29.361094
 20
791.060059
  0
VERTEX
  8
0
 10
28.964296
 20
790.929688
  0
VERTEX
  8
0
 10
28.621328
 20
790.780701
  0
VERTEX
  8
0
 10
28.427578
 20
790.670776
  0
VERTEX
  8
0
 10
28.261250
 20
790.552734
  0
VERTEX
  8
0
 10
28.059217
 20
790.361633
  0
VERTEX
  8
0
 10
27.953749
 20
790.225830
  0
VERTEX
  8
0
 10
27.869453
 20
790.083984
  0
VERTEX
  8
0
 10
27.757578
 20
789.784363
  0
VERTEX
  8
0
 10
27.726484
 20
789.627747
  0
VERTEX
  8
0
 10
27.706249
 20
789.385864
  0
VERTEX
  8
0
 10
27.724609
 20
789.053040
  0
VERTEX
  8
0
 10
27.817186
 20
788.625000
  0
VERTEX
  8
0
 10
27.943905
 20
788.277039
  0
VERTEX
  8
0
 10
28.114922
 20
787.927856
  0
VERTEX
  8
0
 10
28.331484
 20
787.579651
  0
VERTEX
  8
0
 10
28.528671
 20
787.319031
  0
VERTEX
  8
0
 10
28.845390
 20
786.971985
  0
VERTEX
  8
0
 10
29.128281
 20
786.711853
  0
VERTEX
  8
0
 10
29.454218
 20
786.451599
  0
VERTEX
  8
0
 10
29.825390
 20
786.191467
  0
VERTEX
  8
0
 10
30.237186
 20
785.932800
  0
VERTEX
  8
0
 10
30.838593
 20
785.593445
  0
VERTEX
  8
0
 10
31.486015
 20
785.264038
  0
VERTEX
  8
0
 10
32.164532
 20
784.948975
  0
VERTEX
  8
0
 10
32.868748
 20
784.650818
  0
VERTEX
  8
0
 10
33.433594
 20
784.436523
  0
VERTEX
  8
0
 10
34.050156
 20
784.228027
  0
VERTEX
  8
0
 10
34.736717
 20
784.023193
  0
VERTEX
  8
0
 10
35.511639
 20
783.820068
  0
VERTEX
  8
0
 10
36.392967
 20
783.616760
  0
VERTEX
  8
0
 10
38.105312
 20
783.280396
  0
VERTEX
  8
0
 10
40.067577
 20
782.963196
  0
VERTEX
  8
0
 10
42.212967
 20
782.685242
  0
VERTEX
  8
0
 10
44.479843
 20
782.465393
  0
VERTEX
  8
0
 10
46.388905
 20
782.336792
  0
VERTEX
  8
0
 10
48.424843
 20
782.249146
  0
VERTEX
  8
0
 10
51.208591
 20
782.195740
  0
VERTEX
  8
0
 10
53.672031
 20
782.196960
  0
VERTEX
  8
0
 10
56.314217
 20
782.239441
  0
VERTEX
  8
0
 10
59.029766
 20
782.328735
  0
VERTEX
  8
0
 10
61.710155
 20
782.470520
  0
VERTEX
  8
0
 10
64.246796
 20
782.670715
  0
VERTEX
  8
0
 10
65.998901
 20
782.860657
  0
VERTEX
  8
0
 10
67.618355
 20
783.078369
  0
VERTEX
  8
0
 10
69.586876
 20
783.397339
  0
VERTEX
  8
0
 10
72.174995
 20
783.897583
  0
VERTEX
  8
0
 10
75.673355
 20
784.653625
  0
VERTEX
  8
0
 10
78.040154
 20
785.215637
  0
VERTEX
  8
0
 10
79.059059
 20
785.485901
  0
VERTEX
  8
0
 10
79.752731
 20
785.693909
  0
VERTEX
  8
0
 10
80.369919
 20
785.908813
  0
VERTEX
  8
0
 10
80.939766
 20
786.143799
  0
VERTEX
  8
0
 10
81.490158
 20
786.411438
  0
VERTEX
  8
0
 10
82.024063
 20
786.710999
  0
VERTEX
  8
0
 10
82.519531
 20
787.028015
  0
VERTEX
  8
0
 10
82.953354
 20
787.347717
  0
VERTEX
  8
0
 10
83.302422
 20
787.655090
  0
VERTEX
  8
0
 10
83.550392
 20
787.939758
  0
VERTEX
  8
0
 10
83.676010
 20
788.142456
  0
VERTEX
  8
0
 10
83.758125
 20
788.341614
  0
VERTEX
  8
0
 10
83.803902
 20
788.542114
  0
VERTEX
  8
0
 10
83.820778
 20
788.748962
  0
VERTEX
  8
0
 10
83.810623
 20
789.042725
  0
VERTEX
  8
0
 10
83.771561
 20
789.354614
  0
VERTEX
  8
0
 10
83.706169
 20
789.670715
  0
VERTEX
  8
0
 10
83.616714
 20
789.976318
  0
VERTEX
  8
0
 10
83.505470
 20
790.256775
  0
VERTEX
  8
0
 10
83.408592
 20
790.443176
  0
VERTEX
  8
0
 10
83.299141
 20
790.609802
  0
VERTEX
  8
0
 10
83.175468
 20
790.759033
  0
VERTEX
  8
0
 10
83.036095
 20
790.893433
  0
VERTEX
  8
0
 10
82.879295
 20
791.015503
  0
VERTEX
  8
0
 10
82.640388
 20
791.163391
  0
VERTEX
  8
0
 10
82.433434
 20
791.265076
  0
VERTEX
  8
0
 10
82.102104
 20
791.386719
  0
VERTEX
  8
0
 10
81.798752
 20
791.466064
  0
VERTEX
  8
0
 10
81.436638
 20
791.534058
  0
VERTEX
  8
0
 10
81.005547
 20
791.589417
  0
VERTEX
  8
0
 10
80.112419
 20
791.653809
  0
VERTEX
  8
0
 10
77.751564
 20
791.762085
  0
VERTEX
  8
0
 10
76.351952
 20
791.862854
  0
VERTEX
  8
0
 10
75.468674
 20
791.952087
  0
VERTEX
  8
0
 10
74.580780
 20
792.063782
  0
VERTEX
  8
0
 10
73.159920
 20
792.299255
  0
VERTEX
  8
0
 10
72.384529
 20
792.469666
  0
VERTEX
  8
0
 10
71.915466
 20
792.595215
  0
VERTEX
  8
0
 10
71.493279
 20
792.730286
  0
VERTEX
  8
0
 10
71.119293
 20
792.874329
  0
VERTEX
  8
0
 10
70.788902
 20
793.026489
  0
VERTEX
  8
0
 10
70.364296
 20
793.267700
  0
VERTEX
  8
0
 10
70.010231
 20
793.521912
  0
VERTEX
  8
0
 10
69.710075
 20
793.785828
  0
VERTEX
  8
0
 10
69.365311
 20
794.147400
  0
VERTEX
  8
0
 10
69.053436
 20
794.519775
  0
VERTEX
  8
0
 10
68.762497
 20
794.927551
  0
VERTEX
  8
0
 10
68.554375
 20
795.275452
  0
VERTEX
  8
0
 10
68.284996
 20
795.820374
  0
VERTEX
  8
0
 10
68.085777
 20
796.306946
  0
VERTEX
  8
0
 10
67.887108
 20
796.869812
  0
VERTEX
  8
0
 10
67.692574
 20
797.497070
  0
VERTEX
  8
0
 10
67.447807
 20
798.404175
  0
VERTEX
  8
0
 10
67.281403
 20
799.115540
  0
VERTEX
  8
0
 10
67.091324
 20
800.072876
  0
VERTEX
  8
0
 10
66.978355
 20
800.776489
  0
VERTEX
  8
0
 10
66.890152
 20
801.461853
  0
VERTEX
  8
0
 10
66.803123
 20
802.353027
  0
VERTEX
  8
0
 10
66.681015
 20
804.303345
  0
VERTEX
  8
0
 10
79.208435
 20
807.298523
  0
VERTEX
  8
0
 10
93.243279
 20
810.723022
  0
VERTEX
  8
0
 10
98.454765
 20
811.980347
  0
VERTEX
  8
0
 10
104.227188
 20
813.325500
  0
VERTEX
  8
0
 10
109.853279
 20
814.583862
  0
SEQEND
  8
0
  0
POLYLINE
  8
0
  0
VERTEX
  8
0
 10
88.505936
 20
793.888184
  0
VERTEX
  8
0
 10
97.058205
 20
794.072815
  0
SEQEND
  8
0
  0
POLYLINE
  8
0
  0
VERTEX
  8
0
 10
13.018359
 20
793.672974
  0
VERTEX
  8
0
 10
21.758593
 20
793.549744
  0
SEQEND
  8
0
  0
POLYLINE
  8
0
  0
VERTEX
  8
0
 10
102.353828
 20
814.420227
  0
VERTEX
  8
0
 10
102.650230
 20
807.010864
  0
VERTEX
  8
0
 10
102.807266
 20
802.354919
  0
VERTEX
  8
0
 10
102.903511
 20
798.124268
  0
VERTEX
  8
0
 10
102.921249
 20
796.221619
  0
VERTEX
  8
0
 10
102.914604
 20
794.489075
  0
VERTEX
  8
0
 10
102.881798
 20
792.942322
  0
VERTEX
  8
0
 10
102.825310
 20
791.574341
  0
VERTEX
  8
0
 10
102.748825
 20
790.372742
  0
VERTEX
  8
0
 10
102.656166
 20
789.324768
  0
VERTEX
  8
0
 10
102.550858
 20
788.417847
  0
VERTEX
  8
0
 10
102.377495
 20
787.294678
  0
VERTEX
  8
0
 10
102.196640
 20
786.418274
  0
VERTEX
  8
0
 10
102.020699
 20
785.746216
  0
VERTEX
  8
0
 10
101.849060
 20
785.236145
  0
VERTEX
  8
0
 10
101.661636
 20
784.846008
  0
VERTEX
  8
0
 10
101.436485
 20
784.533447
  0
VERTEX
  8
0
 10
101.151718
 20
784.256287
  0
VERTEX
  8
0
 10
100.641640
 20
783.869141
  0
VERTEX
  8
0
 10
98.808205
 20
782.579895
  0
VERTEX
  8
0
 10
97.736244
 20
781.804382
  0
VERTEX
  8
0
 10
95.927963
 20
780.430237
  0
VERTEX
  8
0
 10
94.964531
 20
779.651306
  0
VERTEX
  8
0
 10
94.312889
 20
779.090088
  0
VERTEX
  8
0
 10
93.661011
 20
778.487854
  0
VERTEX
  8
0
 10
93.015236
 20
777.838989
  0
VERTEX
  8
0
 10
92.381874
 20
777.137024
  0
VERTEX
  8
0
 10
92.071716
 20
776.764282
  0
VERTEX
  8
0
 10
91.468666
 20
775.971497
  0
VERTEX
  8
0
 10
91.177261
 20
775.549927
  0
VERTEX
  8
0
 10
90.618668
 20
774.652466
  0
VERTEX
  8
0
 10
90.353043
 20
774.175110
  0
VERTEX
  8
0
 10
89.851326
 20
773.161804
  0
VERTEX
  8
0
 10
89.386482
 20
772.076172
  0
VERTEX
  8
0
 10
89.166641
 20
771.508789
  0
VERTEX
  8
0
 10
88.749840
 20
770.330139
  0
VERTEX
  8
0
 10
88.360313
 20
769.099609
  0
VERTEX
  8
0
 10
87.818672
 20
767.174255
  0
VERTEX
  8
0
 10
87.480621
 20
765.849609
  0
VERTEX
  8
0
 10
86.998276
 20
763.821411
  0
VERTEX
  8
0
 10
85.465935
 20
756.936218
  0
VERTEX
  8
0
 10
84.661095
 20
753.486206
  0
VERTEX
  8
0
 10
83.958435
 20
750.747192
  0
VERTEX
  8
0
 10
83.580002
 20
749.388916
  0
VERTEX
  8
0
 10
83.181252
 20
748.038269
  0
VERTEX
  8
0
 10
82.542580
 20
746.025208
  0
VERTEX
  8
0
 10
82.088120
 20
744.690674
  0
VERTEX
  8
0
 10
81.609528
 20
743.361450
  0
VERTEX
  8
0
 10
81.105469
 20
742.036682
  0
VERTEX
  8
0
 10
80.299606
 20
740.056519
  0
VERTEX
  8
0
 10
79.727341
 20
738.740051
  0
VERTEX
  8
0
 10
79.126793
 20
737.427246
  0
VERTEX
  8
0
 10
78.501167
 20
736.125305
  0
VERTEX
  8
0
 10
77.854683
 20
734.842896
  0
VERTEX
  8
0
 10
77.191559
 20
733.588806
  0
VERTEX
  8
0
 10
76.174843
 20
731.779907
  0
VERTEX
  8
0
 10
75.488434
 20
730.634827
  0
VERTEX
  8
0
 10
74.799995
 20
729.548645
  0
VERTEX
  8
0
 10
73.772964
 20
728.048950
  0
VERTEX
  8
0
 10
73.434059
 20
727.587708
  0
VERTEX
  8
0
 10
72.762032
 20
726.723022
  0
VERTEX
  8
0
 10
72.096954
 20
725.931152
  0
VERTEX
  8
0
 10
71.437737
 20
725.206726
  0
VERTEX
  8
0
 10
70.783203
 20
724.544373
  0
VERTEX
  8
0
 10
70.132339
 20
723.938721
  0
VERTEX
  8
0
 10
69.484138
 20
723.384583
  0
VERTEX
  8
0
 10
68.837418
 20
722.876526
  0
VERTEX
  8
0
 10
68.191093
 20
722.409302
  0
VERTEX
  8
0
 10
67.219376
 20
721.773865
  0
VERTEX
  8
0
 10
66.564529
 20
721.390076
  0
VERTEX
  8
0
 10
65.897888
 20
721.036804
  0
VERTEX
  8
0
 10
65.214218
 20
720.712708
  0
VERTEX
  8
0
 10
64.508125
 20
720.416870
  0
VERTEX
  8
0
 10
63.774296
 20
720.147888
  0
VERTEX
  8
0
 10
63.007500
 20
719.904724
  0
VERTEX
  8
0
 10
62.202499
 20
719.686218
  0
VERTEX
  8
0
 10
61.353828
 20
719.491150
  0
VERTEX
  8
0
 10
60.458828
 20
719.318787
  0
VERTEX
  8
0
 10
59.046562
 20
719.105347
  0
VERTEX
  8
0
 10
58.073200
 20
718.995300
  0
VERTEX
  8
0
 10
57.086014
 20
718.912659
  0
VERTEX
  8
0
 10
56.095078
 20
718.858948
  0
VERTEX
  8
0
 10
55.110390
 20
718.835693
  0
VERTEX
  8
0
 10
54.141953
 20
718.844299
  0
VERTEX
  8
0
 10
53.199844
 20
718.886292
  0
VERTEX
  8
0
 10
52.293747
 20
718.963013
  0
VERTEX
  8
0
 10
51.426952
 20
719.074463
  0
VERTEX
  8
0
 10
50.596249
 20
719.218506
  0
VERTEX
  8
0
 10
49.798046
 20
719.393372
  0
VERTEX
  8
0
 10
49.028904
 20
719.597107
  0
VERTEX
  8
0
 10
48.285313
 20
719.827881
  0
VERTEX
  8
0
 10
47.563671
 20
720.083679
  0
VERTEX
  8
0
 10
46.514763
 20
720.510193
  0
VERTEX
  8
0
 10
45.495544
 20
720.982666
  0
VERTEX
  8
0
 10
44.826172
 20
721.325378
  0
VERTEX
  8
0
 10
43.825935
 20
721.901001
  0
VERTEX
  8
0
 10
43.154999
 20
722.338684
  0
VERTEX
  8
0
 10
42.475468
 20
722.829346
  0
VERTEX
  8
0
 10
41.782734
 20
723.382019
  0
VERTEX
  8
0
 10
41.072186
 20
724.005310
  0
VERTEX
  8
0
 10
40.339375
 20
724.707825
  0
VERTEX
  8
0
 10
39.579529
 20
725.498352
  0
VERTEX
  8
0
 10
38.790310
 20
726.382629
  0
VERTEX
  8
0
 10
37.977188
 20
727.355042
  0
VERTEX
  8
0
 10
37.147888
 20
728.406799
  0
VERTEX
  8
0
 10
35.890388
 20
730.114136
  0
VERTEX
  8
0
 10
35.054218
 20
731.326294
  0
VERTEX
  8
0
 10
34.228592
 20
732.587585
  0
VERTEX
  8
0
 10
33.026951
 20
734.552307
  0
VERTEX
  8
0
 10
32.261482
 20
735.898132
  0
VERTEX
  8
0
 10
31.892109
 20
736.578735
  0
VERTEX
  8
0
 10
31.180389
 20
737.953003
  0
VERTEX
  8
0
 10
30.502733
 20
739.343323
  0
VERTEX
  8
0
 10
29.857031
 20
740.747925
  0
VERTEX
  8
0
 10
28.943359
 20
742.877625
  0
VERTEX
  8
0
 10
28.089062
 20
745.029297
  0
VERTEX
  8
0
 10
27.286484
 20
747.197083
  0
VERTEX
  8
0
 10
26.528124
 20
749.374756
  0
VERTEX
  8
0
 10
25.806719
 20
751.553650
  0
VERTEX
  8
0
 10
23.144531
 20
760.010925
  0
VERTEX
  8
0
 10
22.498671
 20
761.992432
  0
VERTEX
  8
0
 10
21.850000
 20
763.895752
  0
VERTEX
  8
0
 10
21.200859
 20
765.712769
  0
VERTEX
  8
0
 10
20.339531
 20
767.987732
  0
VERTEX
  8
0
 10
19.489218
 20
770.076782
  0
VERTEX
  8
0
 10
18.862577
 20
771.510376
  0
VERTEX
  8
0
 10
18.247265
 20
772.824646
  0
VERTEX
  8
0
 10
17.638281
 20
774.028625
  0
VERTEX
  8
0
 10
17.029140
 20
775.134888
  0
VERTEX
  8
0
 10
16.619764
 20
775.824280
  0
VERTEX
  8
0
 10
16.205626
 20
776.479431
  0
VERTEX
  8
0
 10
15.784765
 20
777.104187
  0
VERTEX
  8
0
 10
15.355234
 20
777.702271
  0
VERTEX
  8
0
 10
14.466640
 20
778.830872
  0
VERTEX
  8
0
 10
13.563281
 20
779.876404
  0
VERTEX
  8
0
 10
11.512656
 20
782.142273
  0
VERTEX
  8
0
 10
11.025625
 20
782.730530
  0
VERTEX
  8
0
 10
10.741562
 20
783.109619
  0
VERTEX
  8
0
 10
10.368750
 20
783.681946
  0
VERTEX
  8
0
 10
10.050312
 20
784.287354
  0
VERTEX
  8
0
 10
9.775547
 20
784.957947
  0
VERTEX
  8
0
 10
9.533828
 20
785.725830
  0
VERTEX
  8
0
 10
9.314531
 20
786.622864
  0
VERTEX
  8
0
 10
9.112890
 20
787.666138
  0
VERTEX
  8
0
 10
8.933125
 20
788.849426
  0
VERTEX
  8
0
 10
8.780156
 20
790.164917
  0
VERTEX
  8
0
 10
8.658984
 20
791.604309
  0
VERTEX
  8
0
 10
8.574531
 20
793.159668
  0
VERTEX
  8
0
 10
8.541094
 20
794.257080
  0
VERTEX
  8
0
 10
8.526953
 20
795.983643
  0
VERTEX
  8
0
 10
8.551016
 20
797.778625
  0
VERTEX
  8
0
 10
8.606484
 20
799.608032
  0
VERTEX
  8
0
 10
8.686563
 20
801.437866
  0
VERTEX
  8
0
 10
8.819921
 20
803.819153
  0
VERTEX
  8
0
 10
9.125468
 20
808.146606
  0
VERTEX
  8
0
 10
9.617812
 20
813.836304
  0
SEQEND
  8
0
  0
POLYLINE
  8
0
  0
VERTEX
  8
0
 10
55.929607
 20
782.105835
  0
VERTEX
  8
0
 10
55.929607
 20
766.247925
  0
VERTEX
  8
0
 10
55.929607
 20
746.425598
  0
VERTEX
  8
0
 10
55.929607
 20
730.567688
  0
VERTEX
  8
0
 10
55.929607
 20
710.745300
  0
SEQEND
  8
0
  0
POLYLINE
  8
0
  0
VERTEX
  8
0
 10
21.738281
 20
772.971130
  0
VERTEX
  8
0
 10
22.581015
 20
769.830688
  0
VERTEX
  8
0
 10
23.179453
 20
767.686768
  0
VERTEX
  8
0
 10
23.654297
 20
766.081360
  0
VERTEX
  8
0
 10
24.124531
 20
764.607727
  0
VERTEX
  8
0
 10
24.711796
 20
762.921936
  0
VERTEX
  8
0
 10
26.478594
 20
758.122864
  0
VERTEX
  8
0
 10
29.147421
 20
750.451843
  0
VERTEX
  8
0
 10
29.828203
 20
748.551697
  0
VERTEX
  8
0
 10
30.384922
 20
747.060242
  0
VERTEX
  8
0
 10
31.117968
 20
745.198181
  0
VERTEX
  8
0
 10
31.747030
 20
743.692383
  0
VERTEX
  8
0
 10
32.580936
 20
741.809692
  0
VERTEX
  8
0
 10
33.276485
 20
740.327148
  0
VERTEX
  8
0
 10
34.168594
 20
738.536255
  0
VERTEX
  8
0
 10
34.894688
 20
737.171448
  0
VERTEX
  8
0
 10
35.642029
 20
735.858521
  0
VERTEX
  8
0
 10
36.424999
 20
734.581726
  0
VERTEX
  8
0
 10
37.044064
 20
733.638367
  0
VERTEX
  8
0
 10
37.475391
 20
733.012573
  0
VERTEX
  8
0
 10
38.388985
 20
731.761841
  0
VERTEX
  8
0
 10
39.117188
 20
730.828003
  0
VERTEX
  8
0
 10
39.621250
 20
730.210754
  0
VERTEX
  8
0
 10
40.669373
 20
728.996765
  0
VERTEX
  8
0
 10
41.486172
 20
728.111206
  0
VERTEX
  8
0
 10
42.043438
 20
727.536011
  0
VERTEX
  8
0
 10
43.184452
 20
726.429810
  0
VERTEX
  8
0
 10
43.767735
 20
725.902466
  0
VERTEX
  8
0
 10
44.359451
 20
725.394897
  0
VERTEX
  8
0
 10
44.959686
 20
724.908813
  0
VERTEX
  8
0
 10
45.568516
 20
724.446106
  0
VERTEX
  8
0
 10
46.185936
 20
724.008606
  0
VERTEX
  8
0
 10
46.811951
 20
723.598206
  0
VERTEX
  8
0
 10
47.767185
 20
723.037415
  0
VERTEX
  8
0
 10
48.414845
 20
722.702454
  0
VERTEX
  8
0
 10
49.071095
 20
722.399353
  0
VERTEX
  8
0
 10
50.071796
 20
722.004456
  0
VERTEX
  8
0
 10
50.749687
 20
721.781006
  0
VERTEX
  8
0
 10
51.436172
 20
721.589661
  0
VERTEX
  8
0
 10
52.481953
 20
721.362793
  0
VERTEX
  8
0
 10
53.546951
 20
721.208252
  0
VERTEX
  8
0
 10
54.631016
 20
721.126160
  0
VERTEX
  8
0
 10
55.362968
 20
721.110535
  0
VERTEX
  8
0
 10
56.101093
 20
721.124756
  0
VERTEX
  8
0
 10
56.843983
 20
721.167664
  0
VERTEX
  8
0
 10
57.590389
 20
721.237854
  0
VERTEX
  8
0
 10
58.339218
 20
721.334351
  0
VERTEX
  8
0
 10
59.089062
 20
721.455750
  0
VERTEX
  8
0
 10
59.838825
 20
721.601013
  0
VERTEX
  8
0
 10
60.587265
 20
721.768677
  0
VERTEX
  8
0
 10
61.332733
 20
721.957886
  0
VERTEX
  8
0
 10
62.072655
 20
722.168518
  0
VERTEX
  8
0
 10
62.803982
 20
722.400757
  0
VERTEX
  8
0
 10
63.523827
 20
722.654724
  0
VERTEX
  8
0
 10
64.229141
 20
722.930664
  0
VERTEX
  8
0
 10
64.916870
 20
723.228577
  0
VERTEX
  8
0
 10
65.584221
 20
723.548645
  0
VERTEX
  8
0
 10
66.228043
 20
723.891052
  0
VERTEX
  8
0
 10
67.143433
 20
724.446838
  0
VERTEX
  8
0
 10
67.997658
 20
725.055054
  0
VERTEX
  8
0
 10
68.801407
 20
725.719543
  0
VERTEX
  8
0
 10
69.314919
 20
726.195679
  0
VERTEX
  8
0
 10
69.814766
 20
726.699768
  0
VERTEX
  8
0
 10
70.546486
 20
727.510681
  0
VERTEX
  8
0
 10
71.027344
 20
728.089722
  0
VERTEX
  8
0
 10
71.506714
 20
728.700745
  0
VERTEX
  8
0
 10
72.466721
 20
730.016296
  0
VERTEX
  8
0
 10
73.413826
 20
731.429993
  0
VERTEX
  8
0
 10
74.102966
 20
732.533752
  0
VERTEX
  8
0
 10
74.977028
 20
734.035400
  0
VERTEX
  8
0
 10
75.587418
 20
735.165039
  0
VERTEX
  8
0
 10
76.330002
 20
736.657166
  0
VERTEX
  8
0
 10
76.838280
 20
737.772156
  0
VERTEX
  8
0
 10
77.461716
 20
739.268738
  0
VERTEX
  8
0
 10
78.035080
 20
740.794128
  0
VERTEX
  8
0
 10
78.571564
 20
742.367188
  0
VERTEX
  8
0
 10
79.205002
 20
744.395447
  0
VERTEX
  8
0
 10
80.599838
 20
749.090393
  0
VERTEX
  8
0
 10
81.990158
 20
753.445007
  0
VERTEX
  8
0
 10
82.505783
 20
755.243347
  0
VERTEX
  8
0
 10
83.117264
 20
757.703003
  0
VERTEX
  8
0
 10
84.741562
 20
764.825684
  0
VERTEX
  8
0
 10
85.356796
 20
767.354797
  0
VERTEX
  8
0
 10
86.180313
 20
770.635376
  0
SEQEND
  8
0
  0
POLYLINE
  8
0
  0
VERTEX
  8
0
 10
25.594217
 20
773.591553
  0
VERTEX
  8
0
 10
27.362812
 20
767.986023
  0
VERTEX
  8
0
 10
27.975624
 20
766.114929
  0
VERTEX
  8
0
 10
29.610312
 20
761.245300
  0
VERTEX
  8
0
 10
31.189062
 20
756.207031
  0
VERTEX
  8
0
 10
31.820469
 20
754.329041
  0
VERTEX
  8
0
 10
32.237576
 20
753.192871
  0
VERTEX
  8
0
 10
32.685078
 20
752.052734
  0
VERTEX
  8
0
 10
34.265312
 20
748.237183
  0
VERTEX
  8
0
 10
34.725155
 20
747.091919
  0
VERTEX
  8
0
 10
35.160702
 20
745.948669
  0
VERTEX
  8
0
 10
36.248436
 20
742.969910
  0
VERTEX
  8
0
 10
36.660938
 20
741.908020
  0
VERTEX
  8
0
 10
36.946251
 20
741.224976
  0
VERTEX
  8
0
 10
37.243904
 20
740.565369
  0
VERTEX
  8
0
 10
37.719765
 20
739.625244
  0
VERTEX
  8
0
 10
38.229298
 20
738.738159
  0
VERTEX
  8
0
 10
38.764763
 20
737.890076
  0
VERTEX
  8
0
 10
40.639061
 20
735.158081
  0
VERTEX
  8
0
 10
42.347420
 20
732.620361
  0
VERTEX
  8
0
 10
42.952343
 20
731.795166
  0
VERTEX
  8
0
 10
43.374763
 20
731.263245
  0
VERTEX
  8
0
 10
43.816170
 20
730.751099
  0
VERTEX
  8
0
 10
44.279842
 20
730.262878
  0
VERTEX
  8
0
 10
45.020466
 20
729.581909
  0
VERTEX
  8
0
 10
45.807423
 20
728.960266
  0
VERTEX
  8
0
 10
46.630077
 20
728.393677
  0
VERTEX
  8
0
 10
47.477734
 20
727.877747
  0
VERTEX
  8
0
 10
48.628201
 20
727.261230
  0
VERTEX
  8
0
 10
49.779217
 20
726.717224
  0
VERTEX
  8
0
 10
50.921169
 20
726.243103
  0
VERTEX
  8
0
 10
51.775154
 20
725.936218
  0
VERTEX
  8
0
 10
52.915466
 20
725.596130
  0
VERTEX
  8
0
 10
53.488201
 20
725.457153
  0
VERTEX
  8
0
 10
54.063671
 20
725.339661
  0
VERTEX
  8
0
 10
54.933437
 20
725.205078
  0
VERTEX
  8
0
 10
55.517498
 20
725.143372
  0
VERTEX
  8
0
 10
56.104061
 20
725.103882
  0
VERTEX
  8
0
 10
56.692341
 20
725.086548
  0
VERTEX
  8
0
 10
57.281796
 20
725.091125
  0
VERTEX
  8
0
 10
57.871563
 20
725.117737
  0
VERTEX
  8
0
 10
58.460938
 20
725.166077
  0
VERTEX
  8
0
 10
59.049217
 20
725.236084
  0
VERTEX
  8
0
 10
59.635700
 20
725.327576
  0
VERTEX
  8
0
 10
60.219841
 20
725.440674
  0
VERTEX
  8
0
 10
60.801640
 20
725.576294
  0
VERTEX
  8
0
 10
61.381248
 20
725.735535
  0
VERTEX
  8
0
 10
61.958904
 20
725.919434
  0
VERTEX
  8
0
 10
62.534687
 20
726.129028
  0
VERTEX
  8
0
 10
63.108826
 20
726.365540
  0
VERTEX
  8
0
 10
63.681484
 20
726.629883
  0
VERTEX
  8
0
 10
64.252892
 20
726.923279
  0
VERTEX
  8
0
 10
65.107811
 20
727.420044
  0
VERTEX
  8
0
 10
65.674995
 20
727.789673
  0
VERTEX
  8
0
 10
66.236641
 20
728.189453
  0
VERTEX
  8
0
 10
67.062187
 20
728.843872
  0
VERTEX
  8
0
 10
67.858200
 20
729.561951
  0
VERTEX
  8
0
 10
68.614609
 20
730.341309
  0
VERTEX
  8
0
 10
69.091797
 20
730.893677
  0
VERTEX
  8
0
 10
69.543747
 20
731.471497
  0
VERTEX
  8
0
 10
69.968201
 20
732.073425
  0
VERTEX
  8
0
 10
70.555466
 20
733.013733
  0
VERTEX
  8
0
 10
70.916328
 20
733.659607
  0
VERTEX
  8
0
 10
71.415855
 20
734.646790
  0
VERTEX
  8
0
 10
71.869995
 20
735.643677
  0
VERTEX
  8
0
 10
72.414375
 20
736.964294
  0
VERTEX
  8
0
 10
73.129295
 20
738.880310
  0
VERTEX
  8
0
 10
74.455856
 20
742.716309
  0
VERTEX
  8
0
 10
75.997887
 20
747.001953
  0
VERTEX
  8
0
 10
76.760857
 20
749.225220
  0
VERTEX
  8
0
 10
77.218903
 20
750.685791
  0
VERTEX
  8
0
 10
77.634216
 20
752.122314
  0
VERTEX
  8
0
 10
78.110542
 20
753.893982
  0
VERTEX
  8
0
 10
78.648666
 20
756.001282
  0
SEQEND
  8
0
  0
POLYLINE
  8
0
  0
VERTEX
  8
0
 10
69.914299
 20
766.271606
  0
VERTEX
  8
0
 10
72.824608
 20
764.580505
  0
VERTEX
  8
0
 10
72.801483
 20
766.318604
  0
VERTEX
  8
0
 10
72.778435
 20
768.056702
  0
VERTEX
  8
0
 10
69.914299
 20
766.271606
  0
SEQEND
  8
0
  0
POLYLINE
  8
0
  0
VERTEX
  8
0
 10
82.137344
 20
771.961487
  0
VERTEX
  8
0
 10
81.658981
 20
771.866333
  0
VERTEX
  8
0
 10
81.253433
 20
771.595398
  0
VERTEX
  8
0
 10
80.982422
 20
771.189819
  0
VERTEX
  8
0
 10
80.887344
 20
770.711487
  0
VERTEX
  8
0
 10
80.982422
 20
770.233093
  0
VERTEX
  8
0
 10
81.253433
 20
769.827576
  0
VERTEX
  8
0
 10
81.658981
 20
769.556641
  0
VERTEX
  8
0
 10
82.137344
 20
769.461487
  0
VERTEX
  8
0
 10
82.615623
 20
769.556641
  0
VERTEX
  8
0
 10
83.021172
 20
769.827576
  0
VERTEX
  8
0
 10
83.292183
 20
770.233093
  0
VERTEX
  8
0
 10
83.387344
 20
770.711487
  0
VERTEX
  8
0
 10
83.292183
 20
771.189819
  0
VERTEX
  8
0
 10
83.021172
 20
771.595398
  0
VERTEX
  8
0
 10
82.615623
 20
771.866333
  0
VERTEX
  8
0
 10
82.137344
 20
771.961487
  0
SEQEND
  8
0
  0
POLYLINE
  8
0
  0
VERTEX
  8
0
 10
80.026558
 20
764.962036
  0
VERTEX
  8
0
 10
79.548203
 20
764.866882
  0
VERTEX
  8
0
 10
79.142654
 20
764.595825
  0
VERTEX
  8
0
 10
78.871719
 20
764.190369
  0
VERTEX
  8
0
 10
78.776558
 20
763.712036
  0
VERTEX
  8
0
 10
78.871719
 20
763.233643
  0
VERTEX
  8
0
 10
79.142654
 20
762.828125
  0
VERTEX
  8
0
 10
79.548203
 20
762.557190
  0
VERTEX
  8
0
 10
80.026558
 20
762.462036
  0
VERTEX
  8
0
 10
80.504921
 20
762.557190
  0
VERTEX
  8
0
 10
80.910469
 20
762.828125
  0
VERTEX
  8
0
 10
81.181404
 20
763.233643
  0
VERTEX
  8
0
 10
81.276558
 20
763.712036
  0
VERTEX
  8
0
 10
81.181404
 20
764.190369
  0
VERTEX
  8
0
 10
80.910469
 20
764.595825
  0
VERTEX
  8
0
 10
80.504921
 20
764.866882
  0
VERTEX
  8
0
 10
80.026558
 20
764.962036
  0
SEQEND
  8
0
  0
POLYLINE
  8
0
  0
VERTEX
  8
0
 10
55.933281
 20
718.586609
  0
VERTEX
  8
0
 10
55.454922
 20
718.491455
  0
VERTEX
  8
0
 10
55.049374
 20
718.220459
  0
VERTEX
  8
0
 10
54.778358
 20
717.814880
  0
VERTEX
  8
0
 10
54.683281
 20
717.336609
  0
VERTEX
  8
0
 10
54.778358
 20
716.858276
  0
VERTEX
  8
0
 10
55.049374
 20
716.452698
  0
VERTEX
  8
0
 10
55.454922
 20
716.181702
  0
VERTEX
  8
0
 10
55.933281
 20
716.086609
  0
VERTEX
  8
0
 10
56.411560
 20
716.181702
  0
VERTEX
  8
0
 10
56.817108
 20
716.452698
  0
VERTEX
  8
0
 10
57.088123
 20
716.858276
  0
VERTEX
  8
0
 10
57.183281
 20
717.336609
  0
VERTEX
  8
0
 10
57.088123
 20
717.814880
  0
VERTEX
  8
0
 10
56.817108
 20
718.220459
  0
VERTEX
  8
0
 10
56.411560
 20
718.491455
  0
VERTEX
  8
0
 10
55.933281
 20
718.586609
  0
SEQEND
  8
0
  0
POLYLINE
  8
0
  0
VERTEX
  8
0
 10
19.762890
 20
789.900146
  0
VERTEX
  8
0
 10
19.284531
 20
789.804993
  0
VERTEX
  8
0
 10
18.878984
 20
789.534058
  0
VERTEX
  8
0
 10
18.608046
 20
789.128479
  0
VERTEX
  8
0
 10
18.512890
 20
788.650146
  0
VERTEX
  8
0
 10
18.608046
 20
788.171753
  0
VERTEX
  8
0
 10
18.878984
 20
787.766235
  0
VERTEX
  8
0
 10
19.284531
 20
787.495300
  0
VERTEX
  8
0
 10
19.762890
 20
787.400146
  0
VERTEX
  8
0
 10
20.241249
 20
787.495300
  0
VERTEX
  8
0
 10
20.646797
 20
787.766235
  0
VERTEX
  8
0
 10
20.917734
 20
788.171753
  0
VERTEX
  8
0
 10
21.012890
 20
788.650146
  0
VERTEX
  8
0
 10
20.917734
 20
789.128479
  0
VERTEX
  8
0
 10
20.646797
 20
789.534058
  0
VERTEX
  8
0
 10
20.241249
 20
789.804993
  0
VERTEX
  8
0
 10
19.762890
 20
789.900146
  0
SEQEND
  8
0
  0
POLYLINE
  8
0
  0
VERTEX
  8
0
 10
33.967266
 20
801.823425
  0
VERTEX
  8
0
 10
33.488907
 20
801.728271
  0
VERTEX
  8
0
 10
33.083359
 20
801.457336
  0
VERTEX
  8
0
 10
32.812420
 20
801.051758
  0
VERTEX
  8
0
 10
32.717266
 20
800.573425
  0
VERTEX
  8
0
 10
32.812420
 20
800.095032
  0
VERTEX
  8
0
 10
33.083359
 20
799.689575
  0
VERTEX
  8
0
 10
33.488907
 20
799.418579
  0
VERTEX
  8
0
 10
33.967266
 20
799.323425
  0
VERTEX
  8
0
 10
34.445625
 20
799.418579
  0
VERTEX
  8
0
 10
34.851170
 20
799.689575
  0
VERTEX
  8
0
 10
35.122108
 20
800.095032
  0
VERTEX
  8
0
 10
35.217266
 20
800.573425
  0
VERTEX
  8
0
 10
35.122108
 20
801.051758
  0
VERTEX
  8
0
 10
34.851170
 20
801.457336
  0
VERTEX
  8
0
 10
34.445625
 20
801.728271
  0
VERTEX
  8
0
 10
33.967266
 20
801.823425
  0
SEQEND
  8
0
  0
POLYLINE
  8
0
  0
VERTEX
  8
0
 10
91.578751
 20
789.850159
  0
VERTEX
  8
0
 10
91.100388
 20
789.755005
  0
VERTEX
  8
0
 10
90.694839
 20
789.484070
  0
VERTEX
  8
0
 10
90.423904
 20
789.078491
  0
VERTEX
  8
0
 10
90.328751
 20
788.600159
  0
VERTEX
  8
0
 10
90.423904
 20
788.121765
  0
VERTEX
  8
0
 10
90.694839
 20
787.716309
  0
VERTEX
  8
0
 10
91.100388
 20
787.445313
  0
VERTEX
  8
0
 10
91.578751
 20
787.350159
  0
VERTEX
  8
0
 10
92.057106
 20
787.445313
  0
VERTEX
  8
0
 10
92.462654
 20
787.716309
  0
VERTEX
  8
0
 10
92.733589
 20
788.121765
  0
VERTEX
  8
0
 10
92.828751
 20
788.600159
  0
VERTEX
  8
0
 10
92.733589
 20
789.078491
  0
VERTEX
  8
0
 10
92.462654
 20
789.484070
  0
VERTEX
  8
0
 10
92.057106
 20
789.755005
  0
VERTEX
  8
0
 10
91.578751
 20
789.850159
  0
SEQEND
  8
0
  0
POLYLINE
  8
0
  0
VERTEX
  8
0
 10
76.012032
 20
802.424622
  0
VERTEX
  8
0
 10
75.533745
 20
802.329407
  0
VERTEX
  8
0
 10
75.128204
 20
802.058472
  0
VERTEX
  8
0
 10
74.857185
 20
801.652954
  0
VERTEX
  8
0
 10
74.762032
 20
801.174622
  0
VERTEX
  8
0
 10
74.857185
 20
800.696228
  0
VERTEX
  8
0
 10
75.128204
 20
800.290710
  0
VERTEX
  8
0
 10
75.533745
 20
800.019775
  0
VERTEX
  8
0
 10
76.012032
 20
799.924622
  0
VERTEX
  8
0
 10
76.490387
 20
800.019775
  0
VERTEX
  8
0
 10
76.895935
 20
800.290710
  0
VERTEX
  8
0
 10
77.166954
 20
800.696228
  0
VERTEX
  8
0
 10
77.262032
 20
801.174622
  0
VERTEX
  8
0
 10
77.166954
 20
801.652954
  0
VERTEX
  8
0
 10
76.895935
 20
802.058472
  0
VERTEX
  8
0
 10
76.490387
 20
802.329407
  0
VERTEX
  8
0
 10
76.012032
 20
802.424622
  0
SEQEND
  8
0
  0
POLYLINE
  8
0
  0
VERTEX
  8
0
 10
56.098125
 20
780.247253
  0
VERTEX
  8
0
 10
55.715469
 20
780.171082
  0
VERTEX
  8
0
 10
55.391014
 20
779.954285
  0
VERTEX
  8
0
 10
55.174297
 20
779.629883
  0
VERTEX
  8
0
 10
55.098125
 20
779.247253
  0
VERTEX
  8
0
 10
55.174297
 20
778.864502
  0
VERTEX
  8
0
 10
55.391014
 20
778.540039
  0
VERTEX
  8
0
 10
55.715469
 20
778.323364
  0
VERTEX
  8
0
 10
56.098125
 20
778.247253
  0
VERTEX
  8
0
 10
56.480858
 20
778.323364
  0
VERTEX
  8
0
 10
56.805233
 20
778.540039
  0
VERTEX
  8
0
 10
57.022030
 20
778.864502
  0
VERTEX
  8
0
 10
57.098125
 20
779.247253
  0
VERTEX
  8
0
 10
57.022030
 20
779.629883
  0
VERTEX
  8
0
 10
56.805233
 20
779.954285
  0
VERTEX
  8
0
 10
56.480858
 20
780.171082
  0
VERTEX
  8
0
 10
56.098125
 20
780.247253
  0
SEQEND
  8
0
  0
ENDSEC
  0
EOF
