  0
SECTION
  2
HEADER
  9
$ACADVER
  1
AC1006
  9
$EXTMIN
 10
0.999531
 20
1.000000
  9
$EXTMAX
 10
332.381775
 20
960.558350
  0
ENDSEC
  0
SECTION
  2
ENTITIES
  0
POLYLINE
  8
0
  0
VERTEX
  8
0
 10
129.940933
 20
1.000000
  0
VERTEX
  8
0
 10
114.463203
 20
6.449297
  0
VERTEX
  8
0
 10
103.879761
 20
10.198125
  0
VERTEX
  8
0
 10
94.041794
 20
13.720156
  0
VERTEX
  8
0
 10
86.908745
 20
16.312656
  0
VERTEX
  8
0
 10
79.050232
 20
19.215858
  0
VERTEX
  8
0
 10
70.178589
 20
22.556406
  0
VERTEX
  8
0
 10
62.633202
 20
25.456406
  0
VERTEX
  8
0
 10
56.951641
 20
27.704140
  0
VERTEX
  8
0
 10
56.679764
 20
29.462734
  0
VERTEX
  8
0
 10
53.302498
 20
29.374531
  0
VERTEX
  8
0
 10
48.064060
 20
31.780077
  0
VERTEX
  8
0
 10
46.067032
 20
32.728905
  0
VERTEX
  8
0
 10
44.039219
 20
33.721951
  0
VERTEX
  8
0
 10
41.972263
 20
34.771328
  0
VERTEX
  8
0
 10
40.568359
 20
35.508125
  0
VERTEX
  8
0
 10
38.424141
 20
36.674530
  0
VERTEX
  8
0
 10
36.973125
 20
37.493984
  0
VERTEX
  8
0
 10
34.770779
 20
38.788124
  0
VERTEX
  8
0
 10
33.289608
 20
39.695000
  0
VERTEX
  8
0
 10
31.801170
 20
40.638203
  0
VERTEX
  8
0
 10
30.308359
 20
41.618435
  0
VERTEX
  8
0
 10
28.066952
 20
43.159763
  0
VERTEX
  8
0
 10
26.575703
 20
44.235157
  0
VERTEX
  8
0
 10
25.092890
 20
45.346249
  0
VERTEX
  8
0
 10
23.624453
 20
46.489998
  0
VERTEX
  8
0
 10
22.176094
 20
47.663124
  0
VERTEX
  8
0
 10
20.753906
 20
48.862576
  0
VERTEX
  8
0
 10
19.363672
 20
50.085155
  0
VERTEX
  8
0
 10
18.011406
 20
51.327812
  0
VERTEX
  8
0
 10
16.702890
 20
52.587265
  0
VERTEX
  8
0
 10
15.444140
 20
53.860466
  0
VERTEX
  8
0
 10
14.240078
 20
55.144295
  0
VERTEX
  8
0
 10
13.093203
 20
56.434998
  0
VERTEX
  8
0
 10
12.004766
 20
57.729141
  0
VERTEX
  8
0
 10
10.976171
 20
59.023045
  0
VERTEX
  8
0
 10
10.008828
 20
60.313278
  0
VERTEX
  8
0
 10
9.104297
 20
61.595936
  0
VERTEX
  8
0
 10
8.263906
 20
62.867733
  0
VERTEX
  8
0
 10
7.489219
 20
64.124924
  0
VERTEX
  8
0
 10
6.781484
 20
65.363983
  0
VERTEX
  8
0
 10
6.140937
 20
66.583282
  0
VERTEX
  8
0
 10
5.563047
 20
67.789139
  0
VERTEX
  8
0
 10
5.041640
 20
68.990311
  0
VERTEX
  8
0
 10
4.571015
 20
70.195076
  0
VERTEX
  8
0
 10
4.352812
 20
70.801483
  0
VERTEX
  8
0
 10
3.947187
 20
72.027580
  0
VERTEX
  8
0
 10
3.577344
 20
73.278358
  0
VERTEX
  8
0
 10
3.076797
 20
75.219765
  0
VERTEX
  8
0
 10
2.770781
 20
76.569763
  0
VERTEX
  8
0
 10
2.343047
 20
78.688980
  0
VERTEX
  8
0
 10
1.958437
 20
80.897186
  0
VERTEX
  8
0
 10
1.730547
 20
82.402031
  0
VERTEX
  8
0
 10
1.438047
 20
84.683670
  0
VERTEX
  8
0
 10
1.279922
 20
86.206329
  0
VERTEX
  8
0
 10
1.104766
 20
88.468124
  0
VERTEX
  8
0
 10
1.033203
 20
89.946480
  0
VERTEX
  8
0
 10
1.000937
 20
91.393356
  0
VERTEX
  8
0
 10
1.000000
 20
92.107574
  0
VERTEX
  8
0
 10
1.030078
 20
93.525230
  0
VERTEX
  8
0
 10
1.103750
 20
94.938904
  0
VERTEX
  8
0
 10
1.222891
 20
96.361168
  0
VERTEX
  8
0
 10
1.389219
 20
97.804527
  0
VERTEX
  8
0
 10
1.604531
 20
99.281479
  0
VERTEX
  8
0
 10
1.870547
 20
100.804527
  0
VERTEX
  8
0
 10
2.188984
 20
102.386169
  0
VERTEX
  8
0
 10
2.767734
 20
104.890388
  0
VERTEX
  8
0
 10
3.217578
 20
106.635780
  0
VERTEX
  8
0
 10
3.713203
 20
108.419449
  0
VERTEX
  8
0
 10
4.249922
 20
110.222031
  0
VERTEX
  8
0
 10
4.823281
 20
112.023750
  0
VERTEX
  8
0
 10
5.428594
 20
113.805313
  0
VERTEX
  8
0
 10
6.061172
 20
115.547104
  0
VERTEX
  8
0
 10
6.716406
 20
117.229607
  0
VERTEX
  8
0
 10
7.389765
 20
118.833359
  0
VERTEX
  8
0
 10
8.077969
 20
120.344292
  0
VERTEX
  8
0
 10
8.428203
 20
121.066948
  0
VERTEX
  8
0
 10
9.143281
 20
122.454994
  0
VERTEX
  8
0
 10
9.880781
 20
123.777573
  0
VERTEX
  8
0
 10
10.644218
 20
125.047653
  0
VERTEX
  8
0
 10
11.036797
 20
125.667183
  0
VERTEX
  8
0
 10
11.846093
 20
126.883278
  0
VERTEX
  8
0
 10
12.690234
 20
128.079834
  0
VERTEX
  8
0
 10
13.573047
 20
129.269836
  0
VERTEX
  8
0
 10
14.977265
 20
131.070938
  0
VERTEX
  8
0
 10
15.970469
 20
132.292419
  0
VERTEX
  8
0
 10
17.009531
 20
133.526718
  0
VERTEX
  8
0
 10
18.094921
 20
134.769211
  0
VERTEX
  8
0
 10
19.226797
 20
136.015381
  0
VERTEX
  8
0
 10
20.405233
 20
137.260391
  0
VERTEX
  8
0
 10
22.260859
 20
139.115936
  0
VERTEX
  8
0
 10
23.556953
 20
140.338272
  0
VERTEX
  8
0
 10
24.222656
 20
140.943283
  0
VERTEX
  8
0
 10
24.900234
 20
141.543518
  0
VERTEX
  8
0
 10
26.291250
 20
142.727966
  0
VERTEX
  8
0
 10
27.005077
 20
143.312805
  0
VERTEX
  8
0
 10
28.469843
 20
144.468903
  0
VERTEX
  8
0
 10
29.985312
 20
145.608826
  0
VERTEX
  8
0
 10
31.552891
 20
146.734848
  0
VERTEX
  8
0
 10
34.004452
 20
148.402817
  0
VERTEX
  8
0
 10
36.580154
 20
150.052185
  0
VERTEX
  8
0
 10
39.284451
 20
151.690460
  0
VERTEX
  8
0
 10
41.159531
 20
152.779678
  0
VERTEX
  8
0
 10
43.087029
 20
153.865692
  0
VERTEX
  8
0
 10
45.060547
 20
154.946640
  0
VERTEX
  8
0
 10
47.073357
 20
156.020706
  0
VERTEX
  8
0
 10
49.118984
 20
157.086395
  0
VERTEX
  8
0
 10
52.234844
 20
158.665146
  0
VERTEX
  8
0
 10
56.443123
 20
160.723984
  0
VERTEX
  8
0
 10
59.615154
 20
162.227264
  0
VERTEX
  8
0
 10
61.748749
 20
163.214844
  0
VERTEX
  8
0
 10
66.139763
 20
165.183594
  0
VERTEX
  8
0
 10
68.432579
 20
166.177887
  0
VERTEX
  8
0
 10
70.813667
 20
167.187347
  0
VERTEX
  8
0
 10
73.300858
 20
168.218674
  0
VERTEX
  8
0
 10
75.911636
 20
169.278122
  0
VERTEX
  8
0
 10
81.566330
 20
171.504684
  0
VERTEX
  8
0
 10
87.713280
 20
173.839996
  0
VERTEX
  8
0
 10
94.091095
 20
176.181488
  0
VERTEX
  8
0
 10
97.282341
 20
177.321487
  0
VERTEX
  8
0
 10
100.429916
 20
178.423279
  0
VERTEX
  8
0
 10
103.500313
 20
179.473740
  0
VERTEX
  8
0
 10
106.459763
 20
180.459534
  0
VERTEX
  8
0
 10
109.282730
 20
181.371246
  0
VERTEX
  8
0
 10
111.977028
 20
182.213593
  0
VERTEX
  8
0
 10
114.558746
 20
182.995468
  0
VERTEX
  8
0
 10
117.043983
 20
183.725464
  0
VERTEX
  8
0
 10
121.789291
 20
185.064285
  0
VERTEX
  8
0
 10
128.585541
 20
186.899521
  0
VERTEX
  8
0
 10
131.232651
 20
185.216019
  0
VERTEX
  8
0
 10
132.704300
 20
184.308197
  0
VERTEX
  8
0
 10
133.615616
 20
183.802490
  0
VERTEX
  8
0
 10
134.676636
 20
183.293198
  0
VERTEX
  8
0
 10
135.397568
 20
182.980301
  0
VERTEX
  8
0
 10
136.172104
 20
182.666718
  0
VERTEX
  8
0
 10
136.968048
 20
182.368744
  0
VERTEX
  8
0
 10
137.753510
 20
182.102570
  0
VERTEX
  8
0
 10
138.503510
 20
181.879761
  0
VERTEX
  8
0
 10
139.220551
 20
181.694214
  0
VERTEX
  8
0
 10
140.930695
 20
181.323441
  0
VERTEX
  8
0
 10
137.367661
 20
164.010849
  0
VERTEX
  8
0
 10
133.804535
 20
146.698273
  0
VERTEX
  8
0
 10
125.736168
 20
146.953979
  0
VERTEX
  8
0
 10
120.622185
 20
147.066162
  0
VERTEX
  8
0
 10
118.204369
 20
147.091644
  0
VERTEX
  8
0
 10
115.903282
 20
147.091324
  0
VERTEX
  8
0
 10
113.727264
 20
147.063675
  0
VERTEX
  8
0
 10
111.681953
 20
147.007492
  0
VERTEX
  8
0
 10
109.773041
 20
146.921478
  0
VERTEX
  8
0
 10
108.006401
 20
146.804688
  0
VERTEX
  8
0
 10
106.910469
 20
146.709137
  0
VERTEX
  8
0
 10
105.393204
 20
146.538910
  0
VERTEX
  8
0
 10
104.028358
 20
146.341400
  0
VERTEX
  8
0
 10
102.813828
 20
146.125229
  0
VERTEX
  8
0
 10
101.747574
 20
145.898911
  0
VERTEX
  8
0
 10
100.553360
 20
145.596634
  0
VERTEX
  8
0
 10
99.614372
 20
145.312424
  0
VERTEX
  8
0
 10
98.897186
 20
145.042969
  0
VERTEX
  8
0
 10
98.451874
 20
144.821716
  0
VERTEX
  8
0
 10
98.176872
 20
144.652573
  0
VERTEX
  8
0
 10
97.905464
 20
144.458206
  0
VERTEX
  8
0
 10
97.479141
 20
144.104691
  0
VERTEX
  8
0
 10
96.994057
 20
143.656723
  0
VERTEX
  8
0
 10
93.698982
 20
140.395935
  0
VERTEX
  8
0
 10
92.845154
 20
139.580460
  0
VERTEX
  8
0
 10
92.271873
 20
139.063904
  0
VERTEX
  8
0
 10
91.564064
 20
138.484848
  0
VERTEX
  8
0
 10
91.047577
 20
138.115860
  0
VERTEX
  8
0
 10
90.519608
 20
137.788284
  0
VERTEX
  8
0
 10
89.760307
 20
137.393509
  0
VERTEX
  8
0
 10
88.900780
 20
137.021332
  0
VERTEX
  8
0
 10
87.939606
 20
136.656403
  0
VERTEX
  8
0
 10
81.661247
 20
134.487961
  0
VERTEX
  8
0
 10
78.244843
 20
133.339066
  0
VERTEX
  8
0
 10
72.203979
 20
131.376709
  0
VERTEX
  8
0
 10
69.256248
 20
130.402893
  0
VERTEX
  8
0
 10
66.406876
 20
129.424759
  0
VERTEX
  8
0
 10
64.444138
 20
128.712967
  0
VERTEX
  8
0
 10
63.241093
 20
128.252335
  0
VERTEX
  8
0
 10
62.106403
 20
127.796791
  0
VERTEX
  8
0
 10
61.023201
 20
127.339760
  0
VERTEX
  8
0
 10
59.974766
 20
126.875153
  0
VERTEX
  8
0
 10
57.915234
 20
125.897888
  0
VERTEX
  8
0
 10
56.870388
 20
125.372574
  0
VERTEX
  8
0
 10
55.237343
 20
124.521324
  0
VERTEX
  8
0
 10
52.281326
 20
122.912422
  0
VERTEX
  8
0
 10
50.428669
 20
121.858276
  0
VERTEX
  8
0
 10
49.190701
 20
121.130623
  0
VERTEX
  8
0
 10
47.365391
 20
120.016327
  0
VERTEX
  8
0
 10
46.190624
 20
119.266716
  0
VERTEX
  8
0
 10
45.066406
 20
118.518593
  0
VERTEX
  8
0
 10
44.006641
 20
117.777573
  0
VERTEX
  8
0
 10
43.016640
 20
117.045700
  0
VERTEX
  8
0
 10
42.093124
 20
116.321869
  0
VERTEX
  8
0
 10
41.232342
 20
115.604607
  0
VERTEX
  8
0
 10
40.050232
 20
114.537811
  0
VERTEX
  8
0
 10
39.329372
 20
113.830620
  0
VERTEX
  8
0
 10
38.658047
 20
113.125000
  0
VERTEX
  8
0
 10
38.032341
 20
112.419449
  0
VERTEX
  8
0
 10
37.171169
 20
111.358124
  0
VERTEX
  8
0
 10
36.392109
 20
110.292107
  0
VERTEX
  8
0
 10
35.683826
 20
109.224060
  0
VERTEX
  8
0
 10
35.035233
 20
108.157188
  0
VERTEX
  8
0
 10
34.434998
 20
107.094688
  0
VERTEX
  8
0
 10
33.511875
 20
105.342110
  0
VERTEX
  8
0
 10
32.821640
 20
103.950233
  0
VERTEX
  8
0
 10
32.340546
 20
102.872421
  0
VERTEX
  8
0
 10
31.902500
 20
101.727264
  0
VERTEX
  8
0
 10
31.639530
 20
100.909683
  0
VERTEX
  8
0
 10
31.517889
 20
100.480782
  0
VERTEX
  8
0
 10
31.296406
 20
99.576401
  0
VERTEX
  8
0
 10
31.106483
 20
98.601563
  0
VERTEX
  8
0
 10
30.951094
 20
97.546562
  0
VERTEX
  8
0
 10
30.831249
 20
96.415077
  0
VERTEX
  8
0
 10
30.745937
 20
95.223671
  0
VERTEX
  8
0
 10
30.694139
 20
93.989845
  0
VERTEX
  8
0
 10
30.676718
 20
92.097183
  0
VERTEX
  8
0
 10
30.703749
 20
90.832657
  0
VERTEX
  8
0
 10
30.760389
 20
89.586327
  0
VERTEX
  8
0
 10
30.845703
 20
88.375076
  0
VERTEX
  8
0
 10
30.958359
 20
87.216560
  0
VERTEX
  8
0
 10
31.097578
 20
86.123985
  0
VERTEX
  8
0
 10
31.262968
 20
85.095314
  0
VERTEX
  8
0
 10
31.454374
 20
84.124451
  0
VERTEX
  8
0
 10
31.671719
 20
83.205391
  0
VERTEX
  8
0
 10
31.914764
 20
82.331955
  0
VERTEX
  8
0
 10
32.183437
 20
81.498276
  0
VERTEX
  8
0
 10
32.477501
 20
80.698120
  0
VERTEX
  8
0
 10
32.796875
 20
79.925545
  0
VERTEX
  8
0
 10
33.141327
 20
79.174530
  0
VERTEX
  8
0
 10
33.510624
 20
78.439842
  0
VERTEX
  8
0
 10
33.903984
 20
77.720001
  0
VERTEX
  8
0
 10
34.537186
 20
76.666328
  0
VERTEX
  8
0
 10
34.986797
 20
75.980309
  0
VERTEX
  8
0
 10
35.700077
 20
74.974373
  0
VERTEX
  8
0
 10
36.457500
 20
73.993752
  0
VERTEX
  8
0
 10
37.255859
 20
73.036324
  0
VERTEX
  8
0
 10
38.094376
 20
72.099922
  0
VERTEX
  8
0
 10
38.679531
 20
71.486481
  0
VERTEX
  8
0
 10
39.603748
 20
70.582031
  0
VERTEX
  8
0
 10
40.255310
 20
69.988907
  0
VERTEX
  8
0
 10
41.293201
 20
69.112892
  0
VERTEX
  8
0
 10
42.029842
 20
68.537498
  0
VERTEX
  8
0
 10
42.805702
 20
67.968674
  0
VERTEX
  8
0
 10
43.623749
 20
67.406090
  0
VERTEX
  8
0
 10
44.931641
 20
66.574684
  0
VERTEX
  8
0
 10
45.856014
 20
66.029999
  0
VERTEX
  8
0
 10
46.821560
 20
65.494217
  0
VERTEX
  8
0
 10
47.827030
 20
64.968201
  0
VERTEX
  8
0
 10
49.408516
 20
64.199760
  0
VERTEX
  8
0
 10
50.510311
 20
63.702499
  0
VERTEX
  8
0
 10
51.649063
 20
63.218437
  0
VERTEX
  8
0
 10
52.823593
 20
62.748436
  0
VERTEX
  8
0
 10
54.031719
 20
62.292732
  0
VERTEX
  8
0
 10
55.898201
 20
61.634922
  0
VERTEX
  8
0
 10
57.173046
 20
61.212734
  0
VERTEX
  8
0
 10
59.121326
 20
60.602497
  0
VERTEX
  8
0
 10
62.431484
 20
59.642735
  0
VERTEX
  8
0
 10
66.430939
 20
58.575779
  0
VERTEX
  8
0
 10
70.339844
 20
57.598125
  0
VERTEX
  8
0
 10
78.367027
 20
55.669609
  0
VERTEX
  8
0
 10
80.302109
 20
55.183907
  0
VERTEX
  8
0
 10
81.665855
 20
54.822342
  0
VERTEX
  8
0
 10
83.384064
 20
54.331093
  0
VERTEX
  8
0
 10
85.005074
 20
53.814297
  0
VERTEX
  8
0
 10
85.781326
 20
53.539841
  0
VERTEX
  8
0
 10
86.534294
 20
53.250626
  0
VERTEX
  8
0
 10
87.619919
 20
52.783047
  0
VERTEX
  8
0
 10
88.313904
 20
52.444294
  0
VERTEX
  8
0
 10
88.983749
 20
52.080624
  0
VERTEX
  8
0
 10
89.943047
 20
51.481716
  0
VERTEX
  8
0
 10
90.250542
 20
51.266403
  0
VERTEX
  8
0
 10
90.847183
 20
50.811172
  0
VERTEX
  8
0
 10
91.420776
 20
50.327263
  0
VERTEX
  8
0
 10
91.973282
 20
49.819687
  0
VERTEX
  8
0
 10
92.766327
 20
49.024921
  0
VERTEX
  8
0
 10
93.521950
 20
48.205780
  0
VERTEX
  8
0
 10
96.483826
 20
44.779373
  0
VERTEX
  8
0
 10
97.984375
 20
43.092655
  0
VERTEX
  8
0
 10
98.847107
 20
42.182655
  0
VERTEX
  8
0
 10
99.424995
 20
41.645313
  0
VERTEX
  8
0
 10
99.754135
 20
41.383045
  0
VERTEX
  8
0
 10
100.218437
 20
41.065781
  0
VERTEX
  8
0
 10
100.759766
 20
40.745937
  0
VERTEX
  8
0
 10
101.245781
 20
40.488045
  0
VERTEX
  8
0
 10
101.820313
 20
40.220390
  0
VERTEX
  8
0
 10
102.261017
 20
40.040154
  0
VERTEX
  8
0
 10
102.753746
 20
39.861092
  0
VERTEX
  8
0
 10
103.303673
 20
39.685467
  0
VERTEX
  8
0
 10
104.247108
 20
39.433357
  0
VERTEX
  8
0
 10
105.347572
 20
39.201405
  0
VERTEX
  8
0
 10
106.606873
 20
38.995857
  0
VERTEX
  8
0
 10
107.523590
 20
38.875782
  0
VERTEX
  8
0
 10
108.996246
 20
38.723984
  0
VERTEX
  8
0
 10
110.032501
 20
38.643517
  0
VERTEX
  8
0
 10
111.650391
 20
38.556953
  0
VERTEX
  8
0
 10
112.760544
 20
38.523907
  0
VERTEX
  8
0
 10
114.455391
 20
38.514297
  0
VERTEX
  8
0
 10
116.746948
 20
38.569530
  0
VERTEX
  8
0
 10
118.482574
 20
38.646091
  0
VERTEX
  8
0
 10
123.145935
 20
38.890545
  0
VERTEX
  8
0
 10
126.058357
 20
38.992420
  0
VERTEX
  8
0
 10
129.537582
 20
39.031952
  0
VERTEX
  8
0
 10
134.738831
 20
38.998047
  0
VERTEX
  8
0
 10
138.443039
 20
22.648281
  0
VERTEX
  8
0
 10
142.147110
 20
6.298515
  0
VERTEX
  8
0
 10
139.657654
 20
5.430156
  0
VERTEX
  8
0
 10
138.075928
 20
4.856719
  0
VERTEX
  8
0
 10
136.609604
 20
4.291094
  0
VERTEX
  8
0
 10
135.265305
 20
3.728672
  0
VERTEX
  8
0
 10
134.011322
 20
3.157031
  0
VERTEX
  8
0
 10
132.814606
 20
2.563906
  0
VERTEX
  8
0
 10
131.651794
 20
1.947734
  0
VERTEX
  8
0
 10
129.940933
 20
1.000000
  0
SEQEND
  8
0
  0
POLYLINE
  8
0
  0
VERTEX
  8
0
 10
108.473434
 20
33.422031
  0
VERTEX
  8
0
 10
107.379219
 20
31.327421
  0
VERTEX
  8
0
 10
106.376091
 20
29.533592
  0
VERTEX
  8
0
 10
105.833824
 20
28.637812
  0
VERTEX
  8
0
 10
105.452728
 20
28.041016
  0
VERTEX
  8
0
 10
105.054214
 20
27.444921
  0
VERTEX
  8
0
 10
104.427887
 20
26.553905
  0
VERTEX
  8
0
 10
103.774529
 20
25.670156
  0
VERTEX
  8
0
 10
103.102341
 20
24.797266
  0
VERTEX
  8
0
 10
101.733902
 20
23.098906
  0
VERTEX
  8
0
 10
99.935463
 20
20.960390
  0
VERTEX
  8
0
 10
97.516327
 20
18.169687
  0
SEQEND
  8
0
  0
POLYLINE
  8
0
  0
VERTEX
  8
0
 10
82.345314
 20
24.735155
  0
VERTEX
  8
0
 10
81.063438
 20
21.241171
  0
SEQEND
  8
0
  0
POLYLINE
  8
0
  0
VERTEX
  8
0
 10
30.637421
 20
92.858360
  0
VERTEX
  8
0
 10
15.858671
 20
92.600388
  0
VERTEX
  8
0
 10
1.079844
 20
92.342422
  0
SEQEND
  8
0
  0
POLYLINE
  8
0
  0
VERTEX
  8
0
 10
95.454689
 20
169.310776
  0
VERTEX
  8
0
 10
97.467422
 20
166.935623
  0
VERTEX
  8
0
 10
98.831947
 20
165.291092
  0
VERTEX
  8
0
 10
100.080856
 20
163.728516
  0
VERTEX
  8
0
 10
100.968361
 20
162.557419
  0
VERTEX
  8
0
 10
101.575310
 20
161.719452
  0
VERTEX
  8
0
 10
102.331558
 20
160.635315
  0
VERTEX
  8
0
 10
104.727028
 20
157.089691
  0
VERTEX
  8
0
 10
107.319450
 20
153.306717
  0
SEQEND
  8
0
  0
POLYLINE
  8
0
  0
VERTEX
  8
0
 10
86.640152
 20
166.491486
  0
VERTEX
  8
0
 10
85.393204
 20
170.024139
  0
SEQEND
  8
0
  0
POLYLINE
  8
0
  0
VERTEX
  8
0
 10
98.947182
 20
830.135864
  0
VERTEX
  8
0
 10
99.820778
 20
843.925842
  0
VERTEX
  8
0
 10
100.909683
 20
860.887695
  0
VERTEX
  8
0
 10
103.729996
 20
861.113037
  0
VERTEX
  8
0
 10
104.036713
 20
866.121765
  0
VERTEX
  8
0
 10
104.672028
 20
875.781799
  0
VERTEX
  8
0
 10
104.914215
 20
879.727478
  0
VERTEX
  8
0
 10
105.112343
 20
883.691467
  0
VERTEX
  8
0
 10
105.172653
 20
885.468567
  0
VERTEX
  8
0
 10
105.203278
 20
887.125305
  0
VERTEX
  8
0
 10
105.198746
 20
889.039917
  0
VERTEX
  8
0
 10
105.154060
 20
890.776306
  0
VERTEX
  8
0
 10
105.061714
 20
892.612244
  0
VERTEX
  8
0
 10
104.941093
 20
894.169250
  0
VERTEX
  8
0
 10
104.812027
 20
895.295593
  0
VERTEX
  8
0
 10
104.639214
 20
896.331909
  0
VERTEX
  8
0
 10
104.406403
 20
897.340088
  0
VERTEX
  8
0
 10
104.167030
 20
898.155396
  0
VERTEX
  8
0
 10
103.794220
 20
899.180237
  0
VERTEX
  8
0
 10
103.527809
 20
899.792725
  0
VERTEX
  8
0
 10
103.331406
 20
900.198181
  0
VERTEX
  8
0
 10
103.007339
 20
900.799927
  0
VERTEX
  8
0
 10
102.770782
 20
901.195313
  0
VERTEX
  8
0
 10
102.383904
 20
901.776611
  0
VERTEX
  8
0
 10
102.104057
 20
902.154419
  0
VERTEX
  8
0
 10
101.649841
 20
902.703003
  0
VERTEX
  8
0
 10
101.323593
 20
903.054810
  0
VERTEX
  8
0
 10
100.977966
 20
903.393860
  0
VERTEX
  8
0
 10
100.612343
 20
903.718872
  0
VERTEX
  8
0
 10
100.226402
 20
904.028503
  0
VERTEX
  8
0
 10
99.820152
 20
904.321472
  0
VERTEX
  8
0
 10
99.396400
 20
904.597656
  0
VERTEX
  8
0
 10
98.958900
 20
904.856750
  0
VERTEX
  8
0
 10
98.056091
 20
905.323181
  0
VERTEX
  8
0
 10
97.597969
 20
905.530396
  0
VERTEX
  8
0
 10
96.912025
 20
905.808044
  0
VERTEX
  8
0
 10
96.460625
 20
905.970825
  0
VERTEX
  8
0
 10
95.799454
 20
906.181641
  0
VERTEX
  8
0
 10
95.144997
 20
906.354248
  0
VERTEX
  8
0
 10
94.699997
 20
906.450195
  0
VERTEX
  8
0
 10
93.755074
 20
906.601074
  0
VERTEX
  8
0
 10
93.240150
 20
906.658264
  0
VERTEX
  8
0
 10
92.393433
 20
906.724426
  0
VERTEX
  8
0
 10
90.730156
 20
906.791626
  0
VERTEX
  8
0
 10
88.788437
 20
906.812744
  0
VERTEX
  8
0
 10
85.840622
 20
906.774292
  0
VERTEX
  8
0
 10
82.924995
 20
906.668518
  0
VERTEX
  8
0
 10
80.499374
 20
906.536987
  0
VERTEX
  8
0
 10
73.492424
 20
906.104187
  0
VERTEX
  8
0
 10
69.400078
 20
905.914917
  0
VERTEX
  8
0
 10
67.180939
 20
905.846558
  0
VERTEX
  8
0
 10
64.829689
 20
905.798645
  0
VERTEX
  8
0
 10
58.934372
 20
905.746643
  0
VERTEX
  8
0
 10
53.638905
 20
905.739563
  0
VERTEX
  8
0
 10
48.602108
 20
905.758057
  0
VERTEX
  8
0
 10
44.112419
 20
905.801758
  0
VERTEX
  8
0
 10
40.362732
 20
905.861633
  0
VERTEX
  8
0
 10
35.598984
 20
905.967712
  0
VERTEX
  8
0
 10
30.194452
 20
906.121460
  0
VERTEX
  8
0
 10
25.678436
 20
906.277466
  0
VERTEX
  8
0
 10
19.586483
 20
906.521240
  0
VERTEX
  8
0
 10
18.440311
 20
906.538879
  0
VERTEX
  8
0
 10
17.316093
 20
906.526306
  0
VERTEX
  8
0
 10
15.912812
 20
906.467773
  0
VERTEX
  8
0
 10
14.242812
 20
906.336609
  0
VERTEX
  8
0
 10
12.872343
 20
906.177856
  0
VERTEX
  8
0
 10
11.538906
 20
905.969910
  0
VERTEX
  8
0
 10
10.270703
 20
905.701294
  0
VERTEX
  8
0
 10
9.322577
 20
905.434570
  0
VERTEX
  8
0
 10
8.449062
 20
905.115540
  0
VERTEX
  8
0
 10
7.652187
 20
904.742432
  0
VERTEX
  8
0
 10
7.098594
 20
904.428345
  0
VERTEX
  8
0
 10
6.410390
 20
903.966248
  0
VERTEX
  8
0
 10
5.925781
 20
903.588501
  0
VERTEX
  8
0
 10
5.313125
 20
903.045654
  0
VERTEX
  8
0
 10
4.735625
 20
902.461243
  0
VERTEX
  8
0
 10
4.195547
 20
901.840088
  0
VERTEX
  8
0
 10
3.695625
 20
901.186768
  0
VERTEX
  8
0
 10
3.238516
 20
900.506409
  0
VERTEX
  8
0
 10
2.826406
 20
899.798523
  0
VERTEX
  8
0
 10
2.547266
 20
899.237610
  0
VERTEX
  8
0
 10
2.293672
 20
898.639404
  0
VERTEX
  8
0
 10
2.065703
 20
897.993347
  0
VERTEX
  8
0
 10
1.863359
 20
897.288635
  0
VERTEX
  8
0
 10
1.686641
 20
896.514832
  0
VERTEX
  8
0
 10
1.534766
 20
895.662720
  0
VERTEX
  8
0
 10
1.405859
 20
894.725037
  0
VERTEX
  8
0
 10
1.297734
 20
893.695007
  0
VERTEX
  8
0
 10
1.182500
 20
892.165710
  0
VERTEX
  8
0
 10
1.115000
 20
890.892883
  0
VERTEX
  8
0
 10
1.047187
 20
889.017578
  0
VERTEX
  8
0
 10
1.007500
 20
886.952698
  0
VERTEX
  8
0
 10
0.999844
 20
885.295654
  0
VERTEX
  8
0
 10
1.013906
 20
883.558167
  0
VERTEX
  8
0
 10
1.052344
 20
881.751526
  0
VERTEX
  8
0
 10
1.145312
 20
879.255554
  0
VERTEX
  8
0
 10
1.318750
 20
876.068665
  0
VERTEX
  8
0
 10
1.950703
 20
866.868469
  0
VERTEX
  8
0
 10
2.309844
 20
861.123962
  0
VERTEX
  8
0
 10
5.316562
 20
860.936279
  0
VERTEX
  8
0
 10
5.957500
 20
852.949585
  0
VERTEX
  8
0
 10
6.777187
 20
840.900696
  0
VERTEX
  8
0
 10
7.637109
 20
829.499878
  0
VERTEX
  8
0
 10
25.455078
 20
830.482727
  0
VERTEX
  8
0
 10
29.215624
 20
830.667542
  0
VERTEX
  8
0
 10
32.513905
 20
830.807373
  0
VERTEX
  8
0
 10
37.092030
 20
830.967407
  0
VERTEX
  8
0
 10
42.976795
 20
831.129150
  0
VERTEX
  8
0
 10
48.769608
 20
831.246460
  0
VERTEX
  8
0
 10
53.157967
 20
831.301514
  0
VERTEX
  8
0
 10
55.624062
 20
831.311462
  0
VERTEX
  8
0
 10
58.082733
 20
831.300842
  0
VERTEX
  8
0
 10
60.633434
 20
831.266724
  0
VERTEX
  8
0
 10
63.375622
 20
831.206360
  0
VERTEX
  8
0
 10
69.791092
 20
830.998291
  0
VERTEX
  8
0
 10
84.282890
 20
830.425110
  0
VERTEX
  8
0
 10
89.243591
 20
830.254456
  0
VERTEX
  8
0
 10
91.635544
 20
830.192566
  0
VERTEX
  8
0
 10
94.286171
 20
830.147339
  0
VERTEX
  8
0
 10
98.947182
 20
830.135864
  0
SEQEND
  8
0
  0
POLYLINE
  8
0
  0
VERTEX
  8
0
 10
53.587654
 20
905.877258
  0
VERTEX
  8
0
 10
53.587654
 20
889.301941
  0
VERTEX
  8
0
 10
53.587654
 20
881.014282
  0
VERTEX
  8
0
 10
53.587654
 20
868.582764
  0
VERTEX
  8
0
 10
53.587654
 20
852.007507
  0
VERTEX
  8
0
 10
53.587654
 20
843.719910
  0
VERTEX
  8
0
 10
53.587654
 20
831.288330
  0
SEQEND
  8
0
  0
POLYLINE
  8
0
  0
VERTEX
  8
0
 10
72.590385
 20
862.140381
  0
VERTEX
  8
0
 10
72.203590
 20
851.363953
  0
VERTEX
  8
0
 10
61.681015
 20
851.222473
  0
SEQEND
  8
0
  0
POLYLINE
  8
0
  0
VERTEX
  8
0
 10
33.349453
 20
862.190063
  0
VERTEX
  8
0
 10
33.744843
 20
851.161621
  0
VERTEX
  8
0
 10
44.219997
 20
851.027893
  0
SEQEND
  8
0
  0
POLYLINE
  8
0
  0
VERTEX
  8
0
 10
100.737968
 20
861.332397
  0
VERTEX
  8
0
 10
101.072029
 20
866.769958
  0
VERTEX
  8
0
 10
101.887032
 20
879.359436
  0
VERTEX
  8
0
 10
102.093124
 20
883.338501
  0
VERTEX
  8
0
 10
102.188904
 20
886.350586
  0
VERTEX
  8
0
 10
102.203278
 20
887.902100
  0
VERTEX
  8
0
 10
102.181404
 20
889.676086
  0
VERTEX
  8
0
 10
102.125778
 20
891.255676
  0
VERTEX
  8
0
 10
102.028908
 20
892.877808
  0
VERTEX
  8
0
 10
101.910782
 20
894.202698
  0
VERTEX
  8
0
 10
101.786095
 20
895.139099
  0
VERTEX
  8
0
 10
101.625313
 20
895.987244
  0
VERTEX
  8
0
 10
101.416405
 20
896.804932
  0
VERTEX
  8
0
 10
101.265152
 20
897.291321
  0
VERTEX
  8
0
 10
101.093277
 20
897.772583
  0
VERTEX
  8
0
 10
100.759216
 20
898.558167
  0
VERTEX
  8
0
 10
100.528908
 20
899.016785
  0
VERTEX
  8
0
 10
100.275307
 20
899.463440
  0
VERTEX
  8
0
 10
99.996246
 20
899.896301
  0
VERTEX
  8
0
 10
99.794838
 20
900.176392
  0
VERTEX
  8
0
 10
99.467026
 20
900.582336
  0
VERTEX
  8
0
 10
99.230469
 20
900.842712
  0
VERTEX
  8
0
 10
98.710152
 20
901.336365
  0
VERTEX
  8
0
 10
98.121559
 20
901.790527
  0
VERTEX
  8
0
 10
97.803276
 20
902.001465
  0
VERTEX
  8
0
 10
97.302650
 20
902.296936
  0
VERTEX
  8
0
 10
96.957344
 20
902.479370
  0
VERTEX
  8
0
 10
96.428589
 20
902.730225
  0
VERTEX
  8
0
 10
95.540779
 20
903.085083
  0
VERTEX
  8
0
 10
94.666794
 20
903.357117
  0
VERTEX
  8
0
 10
93.931404
 20
903.519592
  0
VERTEX
  8
0
 10
93.319763
 20
903.613342
  0
VERTEX
  8
0
 10
92.869370
 20
903.663635
  0
VERTEX
  8
0
 10
91.832573
 20
903.738953
  0
VERTEX
  8
0
 10
90.573746
 20
903.784912
  0
VERTEX
  8
0
 10
88.732735
 20
903.805237
  0
VERTEX
  8
0
 10
85.887970
 20
903.770081
  0
VERTEX
  8
0
 10
83.036797
 20
903.668335
  0
VERTEX
  8
0
 10
80.640312
 20
903.539124
  0
VERTEX
  8
0
 10
73.622658
 20
903.106750
  0
VERTEX
  8
0
 10
69.496483
 20
902.916138
  0
VERTEX
  8
0
 10
67.258591
 20
902.847229
  0
VERTEX
  8
0
 10
64.888824
 20
902.798950
  0
VERTEX
  8
0
 10
58.954529
 20
902.746643
  0
VERTEX
  8
0
 10
53.633671
 20
902.739502
  0
VERTEX
  8
0
 10
48.577812
 20
902.757935
  0
VERTEX
  8
0
 10
44.072342
 20
902.801941
  0
VERTEX
  8
0
 10
40.309063
 20
902.862000
  0
VERTEX
  8
0
 10
35.527657
 20
902.968567
  0
VERTEX
  8
0
 10
30.106718
 20
903.122559
  0
VERTEX
  8
0
 10
25.587343
 20
903.277954
  0
VERTEX
  8
0
 10
19.861719
 20
903.508972
  0
VERTEX
  8
0
 10
18.733358
 20
903.532715
  0
VERTEX
  8
0
 10
17.658827
 20
903.527222
  0
VERTEX
  8
0
 10
16.333202
 20
903.479431
  0
VERTEX
  8
0
 10
15.038750
 20
903.388550
  0
VERTEX
  8
0
 10
13.788203
 20
903.257507
  0
VERTEX
  8
0
 10
12.596562
 20
903.087769
  0
VERTEX
  8
0
 10
11.486015
 20
902.876221
  0
VERTEX
  8
0
 10
10.672265
 20
902.673828
  0
VERTEX
  8
0
 10
9.938203
 20
902.439331
  0
VERTEX
  8
0
 10
9.604375
 20
902.309448
  0
VERTEX
  8
0
 10
9.142500
 20
902.098511
  0
VERTEX
  8
0
 10
8.588359
 20
901.787354
  0
VERTEX
  8
0
 10
8.090234
 20
901.442078
  0
VERTEX
  8
0
 10
7.631875
 20
901.062744
  0
VERTEX
  8
0
 10
7.198672
 20
900.649963
  0
VERTEX
  8
0
 10
6.787344
 20
900.206848
  0
VERTEX
  8
0
 10
6.308437
 20
899.617615
  0
VERTEX
  8
0
 10
5.873984
 20
898.997742
  0
VERTEX
  8
0
 10
5.561953
 20
898.483521
  0
VERTEX
  8
0
 10
5.281875
 20
897.933716
  0
VERTEX
  8
0
 10
5.092109
 20
897.479736
  0
VERTEX
  8
0
 10
4.919219
 20
896.975708
  0
VERTEX
  8
0
 10
4.762656
 20
896.408630
  0
VERTEX
  8
0
 10
4.622031
 20
895.765747
  0
VERTEX
  8
0
 10
4.496719
 20
895.036133
  0
VERTEX
  8
0
 10
4.386328
 20
894.212341
  0
VERTEX
  8
0
 10
4.290312
 20
893.286804
  0
VERTEX
  8
0
 10
4.183594
 20
891.881592
  0
VERTEX
  8
0
 10
4.118906
 20
890.690002
  0
VERTEX
  8
0
 10
4.029062
 20
887.935669
  0
VERTEX
  8
0
 10
4.008125
 20
886.390198
  0
VERTEX
  8
0
 10
4.006719
 20
884.749207
  0
VERTEX
  8
0
 10
4.027500
 20
883.024902
  0
VERTEX
  8
0
 10
4.073203
 20
881.229919
  0
VERTEX
  8
0
 10
4.175781
 20
878.750854
  0
VERTEX
  8
0
 10
4.316719
 20
876.228638
  0
VERTEX
  8
0
 10
4.943281
 20
867.081787
  0
VERTEX
  8
0
 10
5.301875
 20
861.344727
  0
SEQEND
  8
0
  0
POLYLINE
  8
0
  0
VERTEX
  8
0
 10
53.394062
 20
904.782471
  0
VERTEX
  8
0
 10
52.915779
 20
904.687317
  0
VERTEX
  8
0
 10
52.510235
 20
904.416321
  0
VERTEX
  8
0
 10
52.239216
 20
904.010864
  0
VERTEX
  8
0
 10
52.144062
 20
903.532471
  0
VERTEX
  8
0
 10
52.239216
 20
903.054138
  0
VERTEX
  8
0
 10
52.510235
 20
902.648682
  0
VERTEX
  8
0
 10
52.915779
 20
902.377625
  0
VERTEX
  8
0
 10
53.394062
 20
902.282471
  0
VERTEX
  8
0
 10
53.872421
 20
902.377625
  0
VERTEX
  8
0
 10
54.277969
 20
902.648682
  0
VERTEX
  8
0
 10
54.548985
 20
903.054138
  0
VERTEX
  8
0
 10
54.644062
 20
903.532471
  0
VERTEX
  8
0
 10
54.548985
 20
904.010864
  0
VERTEX
  8
0
 10
54.277969
 20
904.416321
  0
VERTEX
  8
0
 10
53.872421
 20
904.687317
  0
VERTEX
  8
0
 10
53.394062
 20
904.782471
  0
SEQEND
  8
0
  0
POLYLINE
  8
0
  0
VERTEX
  8
0
 10
53.572342
 20
835.232544
  0
VERTEX
  8
0
 10
53.093983
 20
835.137390
  0
VERTEX
  8
0
 10
52.688435
 20
834.866455
  0
VERTEX
  8
0
 10
52.417500
 20
834.460938
  0
VERTEX
  8
0
 10
52.322342
 20
833.982544
  0
VERTEX
  8
0
 10
52.417500
 20
833.504211
  0
VERTEX
  8
0
 10
52.688435
 20
833.098633
  0
VERTEX
  8
0
 10
53.093983
 20
832.827698
  0
VERTEX
  8
0
 10
53.572342
 20
832.732544
  0
VERTEX
  8
0
 10
54.050701
 20
832.827698
  0
VERTEX
  8
0
 10
54.456249
 20
833.098633
  0
VERTEX
  8
0
 10
54.727188
 20
833.504211
  0
VERTEX
  8
0
 10
54.822342
 20
833.982544
  0
VERTEX
  8
0
 10
54.727188
 20
834.460938
  0
VERTEX
  8
0
 10
54.456249
 20
834.866455
  0
VERTEX
  8
0
 10
54.050701
 20
835.137390
  0
VERTEX
  8
0
 10
53.572342
 20
835.232544
  0
SEQEND
  8
0
  0
POLYLINE
  8
0
  0
VERTEX
  8
0
 10
111.633438
 20
188.899521
  0
VERTEX
  8
0
 10
111.572342
 20
205.148819
  0
VERTEX
  8
0
 10
111.541718
 20
213.273438
  0
VERTEX
  8
0
 10
111.495934
 20
225.460464
  0
VERTEX
  8
0
 10
111.434761
 20
241.709763
  0
VERTEX
  8
0
 10
111.404213
 20
249.834366
  0
VERTEX
  8
0
 10
111.358276
 20
262.021393
  0
VERTEX
  8
0
 10
129.540939
 20
262.710449
  0
VERTEX
  8
0
 10
129.553436
 20
246.308044
  0
VERTEX
  8
0
 10
129.559677
 20
238.106873
  0
VERTEX
  8
0
 10
129.569138
 20
225.804993
  0
VERTEX
  8
0
 10
129.581711
 20
209.402573
  0
VERTEX
  8
0
 10
129.587967
 20
201.201324
  0
VERTEX
  8
0
 10
129.597336
 20
188.899521
  0
VERTEX
  8
0
 10
111.633438
 20
188.899521
  0
SEQEND
  8
0
  0
POLYLINE
  8
0
  0
VERTEX
  8
0
 10
124.175621
 20
204.016006
  0
VERTEX
  8
0
 10
117.758202
 20
203.883438
  0
SEQEND
  8
0
  0
POLYLINE
  8
0
  0
VERTEX
  8
0
 10
124.351715
 20
232.840927
  0
VERTEX
  8
0
 10
116.656563
 20
232.709213
  0
SEQEND
  8
0
  0
POLYLINE
  8
0
  0
VERTEX
  8
0
 10
1.000000
 20
931.853088
  0
VERTEX
  8
0
 10
4.004062
 20
931.615234
  0
VERTEX
  8
0
 10
5.138750
 20
931.506592
  0
VERTEX
  8
0
 10
6.183203
 20
931.386597
  0
VERTEX
  8
0
 10
6.895703
 20
931.286926
  0
VERTEX
  8
0
 10
7.764765
 20
931.138977
  0
VERTEX
  8
0
 10
8.371406
 20
931.015076
  0
VERTEX
  8
0
 10
9.142500
 20
930.830139
  0
VERTEX
  8
0
 10
9.896484
 20
930.620056
  0
VERTEX
  8
0
 10
10.658047
 20
930.379456
  0
VERTEX
  8
0
 10
11.437968
 20
930.093628
  0
VERTEX
  8
0
 10
12.039531
 20
929.839417
  0
VERTEX
  8
0
 10
12.658593
 20
929.542847
  0
VERTEX
  8
0
 10
13.298437
 20
929.197021
  0
VERTEX
  8
0
 10
13.961640
 20
928.795227
  0
VERTEX
  8
0
 10
14.645937
 20
928.338501
  0
VERTEX
  8
0
 10
15.345781
 20
927.833008
  0
VERTEX
  8
0
 10
16.293282
 20
927.093628
  0
VERTEX
  8
0
 10
17.007421
 20
926.498047
  0
VERTEX
  8
0
 10
17.953749
 20
925.660522
  0
VERTEX
  8
0
 10
18.884844
 20
924.781311
  0
VERTEX
  8
0
 10
19.571718
 20
924.093262
  0
VERTEX
  8
0
 10
20.247969
 20
923.378967
  0
VERTEX
  8
0
 10
20.913124
 20
922.637024
  0
VERTEX
  8
0
 10
21.994843
 20
921.335083
  0
VERTEX
  8
0
 10
23.042578
 20
919.959045
  0
VERTEX
  8
0
 10
23.858202
 20
918.829041
  0
VERTEX
  8
0
 10
26.201952
 20
915.500732
  0
VERTEX
  8
0
 10
27.630859
 20
913.551025
  0
VERTEX
  8
0
 10
28.697031
 20
912.192322
  0
VERTEX
  8
0
 10
29.087265
 20
911.734253
  0
VERTEX
  8
0
 10
29.446249
 20
911.342407
  0
VERTEX
  8
0
 10
29.783905
 20
911.006165
  0
VERTEX
  8
0
 10
30.217812
 20
910.625854
  0
VERTEX
  8
0
 10
30.654686
 20
910.300293
  0
VERTEX
  8
0
 10
31.114922
 20
910.008789
  0
VERTEX
  8
0
 10
31.607344
 20
909.749451
  0
VERTEX
  8
0
 10
32.001404
 20
909.577454
  0
VERTEX
  8
0
 10
32.564373
 20
909.380371
  0
VERTEX
  8
0
 10
33.018204
 20
909.258179
  0
VERTEX
  8
0
 10
33.840939
 20
909.106323
  0
VERTEX
  8
0
 10
34.752655
 20
909.024414
  0
VERTEX
  8
0
 10
35.759529
 20
909.018188
  0
VERTEX
  8
0
 10
36.637814
 20
909.071472
  0
VERTEX
  8
0
 10
37.608360
 20
909.179382
  0
VERTEX
  8
0
 10
38.744530
 20
909.343872
  0
VERTEX
  8
0
 10
45.095779
 20
910.382324
  0
VERTEX
  8
0
 10
48.954453
 20
910.971436
  0
VERTEX
  8
0
 10
52.313904
 20
911.433716
  0
VERTEX
  8
0
 10
54.920547
 20
911.743469
  0
VERTEX
  8
0
 10
56.171719
 20
911.872498
  0
VERTEX
  8
0
 10
57.987263
 20
912.034668
  0
VERTEX
  8
0
 10
59.159843
 20
912.122742
  0
VERTEX
  8
0
 10
60.867344
 20
912.225830
  0
VERTEX
  8
0
 10
63.592888
 20
912.325073
  0
VERTEX
  8
0
 10
66.195313
 20
912.341003
  0
VERTEX
  8
0
 10
67.707497
 20
912.315186
  0
VERTEX
  8
0
 10
69.187965
 20
912.266357
  0
VERTEX
  8
0
 10
72.070465
 20
912.110474
  0
VERTEX
  8
0
 10
75.340469
 20
911.852234
  0
VERTEX
  8
0
 10
78.110313
 20
911.566223
  0
VERTEX
  8
0
 10
80.429214
 20
911.274902
  0
VERTEX
  8
0
 10
83.253433
 20
910.856384
  0
VERTEX
  8
0
 10
86.043510
 20
910.391479
  0
VERTEX
  8
0
 10
91.600937
 20
909.410034
  0
VERTEX
  8
0
 10
93.654526
 20
909.075745
  0
VERTEX
  8
0
 10
94.622032
 20
908.942505
  0
VERTEX
  8
0
 10
95.255623
 20
908.872375
  0
VERTEX
  8
0
 10
95.821251
 20
908.828796
  0
VERTEX
  8
0
 10
96.333984
 20
908.812561
  0
VERTEX
  8
0
 10
96.961250
 20
908.834595
  0
VERTEX
  8
0
 10
97.260620
 20
908.864746
  0
VERTEX
  8
0
 10
97.704689
 20
908.934570
  0
VERTEX
  8
0
 10
98.460152
 20
909.118164
  0
VERTEX
  8
0
 10
99.231720
 20
909.388489
  0
VERTEX
  8
0
 10
99.846016
 20
909.669373
  0
VERTEX
  8
0
 10
100.445465
 20
910.009460
  0
VERTEX
  8
0
 10
101.022110
 20
910.412842
  0
VERTEX
  8
0
 10
101.594063
 20
910.904114
  0
VERTEX
  8
0
 10
102.039139
 20
911.351379
  0
VERTEX
  8
0
 10
102.351089
 20
911.695374
  0
VERTEX
  8
0
 10
102.851715
 20
912.291260
  0
VERTEX
  8
0
 10
103.403595
 20
912.995972
  0
VERTEX
  8
0
 10
104.451401
 20
914.417419
  0
VERTEX
  8
0
 10
107.021797
 20
918.034302
  0
VERTEX
  8
0
 10
108.362419
 20
919.868347
  0
VERTEX
  8
0
 10
109.611015
 20
921.479431
  0
VERTEX
  8
0
 10
110.819687
 20
922.923828
  0
VERTEX
  8
0
 10
111.425697
 20
923.601440
  0
VERTEX
  8
0
 10
112.243744
 20
924.468323
  0
VERTEX
  8
0
 10
113.069374
 20
925.290466
  0
VERTEX
  8
0
 10
113.897575
 20
926.063721
  0
VERTEX
  8
0
 10
114.723282
 20
926.784119
  0
VERTEX
  8
0
 10
115.337967
 20
927.287354
  0
VERTEX
  8
0
 10
116.152496
 20
927.907349
  0
VERTEX
  8
0
 10
116.762032
 20
928.333679
  0
VERTEX
  8
0
 10
117.372498
 20
928.726563
  0
VERTEX
  8
0
 10
117.986092
 20
929.085632
  0
VERTEX
  8
0
 10
118.604683
 20
929.410583
  0
VERTEX
  8
0
 10
119.230858
 20
929.701904
  0
VERTEX
  8
0
 10
119.869606
 20
929.963013
  0
VERTEX
  8
0
 10
120.526482
 20
930.197693
  0
VERTEX
  8
0
 10
121.207031
 20
930.410339
  0
VERTEX
  8
0
 10
122.160934
 20
930.666199
  0
VERTEX
  8
0
 10
123.178902
 20
930.899292
  0
VERTEX
  8
0
 10
124.515938
 20
931.160461
  0
VERTEX
  8
0
 10
125.587105
 20
931.338806
  0
VERTEX
  8
0
 10
126.858513
 20
931.514038
  0
VERTEX
  8
0
 10
127.771561
 20
931.609436
  0
VERTEX
  8
0
 10
128.580627
 20
931.666687
  0
VERTEX
  8
0
 10
129.484131
 20
931.698730
  0
VERTEX
  8
0
 10
130.561554
 20
931.703186
  0
VERTEX
  8
0
 10
129.434448
 20
935.251770
  0
VERTEX
  8
0
 10
128.865936
 20
936.928467
  0
VERTEX
  8
0
 10
128.420853
 20
938.166443
  0
VERTEX
  8
0
 10
127.795624
 20
939.782471
  0
VERTEX
  8
0
 10
127.305000
 20
940.954407
  0
VERTEX
  8
0
 10
126.803276
 20
942.072693
  0
VERTEX
  8
0
 10
126.297501
 20
943.119324
  0
VERTEX
  8
0
 10
125.794838
 20
944.076599
  0
VERTEX
  8
0
 10
125.302338
 20
944.926453
  0
VERTEX
  8
0
 10
124.825859
 20
945.652771
  0
VERTEX
  8
0
 10
124.359215
 20
946.259033
  0
VERTEX
  8
0
 10
124.046562
 20
946.604431
  0
VERTEX
  8
0
 10
123.564529
 20
947.046448
  0
VERTEX
  8
0
 10
123.053902
 20
947.411621
  0
VERTEX
  8
0
 10
122.500465
 20
947.716370
  0
VERTEX
  8
0
 10
121.889687
 20
947.976868
  0
VERTEX
  8
0
 10
121.447342
 20
948.132019
  0
VERTEX
  8
0
 10
120.979218
 20
948.273987
  0
VERTEX
  8
0
 10
120.234764
 20
948.464294
  0
VERTEX
  8
0
 10
119.177650
 20
948.681458
  0
VERTEX
  8
0
 10
118.066635
 20
948.864502
  0
VERTEX
  8
0
 10
116.630463
 20
949.056946
  0
VERTEX
  8
0
 10
115.423904
 20
949.181946
  0
VERTEX
  8
0
 10
114.119995
 20
949.274902
  0
VERTEX
  8
0
 10
112.675232
 20
949.330139
  0
VERTEX
  8
0
 10
111.046478
 20
949.341614
  0
VERTEX
  8
0
 10
109.221405
 20
949.311157
  0
VERTEX
  8
0
 10
102.545937
 20
949.125000
  0
VERTEX
  8
0
 10
99.957733
 20
949.101685
  0
VERTEX
  8
0
 10
97.525703
 20
949.115967
  0
VERTEX
  8
0
 10
94.595001
 20
949.176208
  0
VERTEX
  8
0
 10
92.188126
 20
949.274414
  0
VERTEX
  8
0
 10
91.316872
 20
949.341980
  0
VERTEX
  8
0
 10
90.772026
 20
949.405579
  0
VERTEX
  8
0
 10
90.299217
 20
949.483093
  0
VERTEX
  8
0
 10
89.880074
 20
949.577271
  0
VERTEX
  8
0
 10
89.500153
 20
949.694275
  0
VERTEX
  8
0
 10
89.263046
 20
949.789124
  0
VERTEX
  8
0
 10
88.923042
 20
949.963196
  0
VERTEX
  8
0
 10
88.701874
 20
950.103882
  0
VERTEX
  8
0
 10
88.481247
 20
950.267395
  0
VERTEX
  8
0
 10
88.143593
 20
950.560852
  0
VERTEX
  8
0
 10
87.788673
 20
950.918945
  0
VERTEX
  8
0
 10
87.541405
 20
951.194031
  0
VERTEX
  8
0
 10
86.894997
 20
951.999512
  0
VERTEX
  8
0
 10
86.225151
 20
952.955933
  0
VERTEX
  8
0
 10
85.686325
 20
953.815369
  0
VERTEX
  8
0
 10
84.326950
 20
956.157227
  0
VERTEX
  8
0
 10
83.887970
 20
956.834167
  0
VERTEX
  8
0
 10
83.580307
 20
957.259888
  0
VERTEX
  8
0
 10
83.090622
 20
957.845032
  0
VERTEX
  8
0
 10
82.742416
 20
958.192017
  0
VERTEX
  8
0
 10
82.186172
 20
958.648804
  0
VERTEX
  8
0
 10
81.588669
 20
959.036316
  0
VERTEX
  8
0
 10
81.167343
 20
959.259827
  0
VERTEX
  8
0
 10
80.727341
 20
959.458313
  0
VERTEX
  8
0
 10
80.268593
 20
959.634094
  0
VERTEX
  8
0
 10
79.791092
 20
959.789429
  0
VERTEX
  8
0
 10
79.294609
 20
959.926514
  0
VERTEX
  8
0
 10
78.777969
 20
960.047546
  0
VERTEX
  8
0
 10
77.662262
 20
960.245300
  0
VERTEX
  8
0
 10
76.394295
 20
960.388977
  0
VERTEX
  8
0
 10
74.923439
 20
960.484924
  0
VERTEX
  8
0
 10
73.198906
 20
960.539185
  0
VERTEX
  8
0
 10
71.193283
 20
960.558350
  0
VERTEX
  8
0
 10
67.806168
 20
960.537720
  0
VERTEX
  8
0
 10
63.633984
 20
960.469910
  0
VERTEX
  8
0
 10
58.610233
 20
960.363281
  0
VERTEX
  8
0
 10
55.417656
 20
960.259827
  0
VERTEX
  8
0
 10
53.720623
 20
960.165527
  0
VERTEX
  8
0
 10
52.732498
 20
960.071411
  0
VERTEX
  8
0
 10
52.336483
 20
960.015808
  0
VERTEX
  8
0
 10
51.836250
 20
959.919617
  0
VERTEX
  8
0
 10
51.550625
 20
959.845520
  0
VERTEX
  8
0
 10
51.168514
 20
959.717529
  0
VERTEX
  8
0
 10
50.811718
 20
959.566589
  0
VERTEX
  8
0
 10
50.458591
 20
959.389221
  0
VERTEX
  8
0
 10
50.106327
 20
959.180298
  0
VERTEX
  8
0
 10
49.753906
 20
958.935059
  0
VERTEX
  8
0
 10
49.400311
 20
958.648315
  0
VERTEX
  8
0
 10
49.044453
 20
958.315369
  0
VERTEX
  8
0
 10
48.805389
 20
958.065063
  0
VERTEX
  8
0
 10
48.444061
 20
957.646057
  0
VERTEX
  8
0
 10
47.841560
 20
956.850342
  0
VERTEX
  8
0
 10
47.136250
 20
955.785828
  0
VERTEX
  8
0
 10
46.580391
 20
954.855591
  0
VERTEX
  8
0
 10
45.645157
 20
953.203674
  0
VERTEX
  8
0
 10
45.114998
 20
952.348938
  0
VERTEX
  8
0
 10
44.777657
 20
951.873047
  0
VERTEX
  8
0
 10
44.541172
 20
951.574585
  0
VERTEX
  8
0
 10
44.034763
 20
951.025696
  0
VERTEX
  8
0
 10
43.621563
 20
950.656982
  0
VERTEX
  8
0
 10
43.328125
 20
950.432312
  0
VERTEX
  8
0
 10
42.858593
 20
950.127625
  0
VERTEX
  8
0
 10
42.524296
 20
949.946533
  0
VERTEX
  8
0
 10
42.171875
 20
949.783325
  0
VERTEX
  8
0
 10
41.609531
 20
949.572083
  0
VERTEX
  8
0
 10
41.017185
 20
949.399048
  0
VERTEX
  8
0
 10
40.408203
 20
949.261047
  0
VERTEX
  8
0
 10
39.795937
 20
949.155396
  0
VERTEX
  8
0
 10
38.997498
 20
949.059448
  0
VERTEX
  8
0
 10
38.245781
 20
949.008545
  0
VERTEX
  8
0
 10
37.507889
 20
948.994873
  0
VERTEX
  8
0
 10
30.915155
 20
949.187683
  0
VERTEX
  8
0
 10
24.122499
 20
949.327087
  0
VERTEX
  8
0
 10
19.831249
 20
949.370239
  0
VERTEX
  8
0
 10
18.135859
 20
949.361694
  0
VERTEX
  8
0
 10
16.596172
 20
949.330200
  0
VERTEX
  8
0
 10
15.214062
 20
949.270813
  0
VERTEX
  8
0
 10
14.272890
 20
949.204590
  0
VERTEX
  8
0
 10
13.406718
 20
949.117188
  0
VERTEX
  8
0
 10
12.609687
 20
949.006042
  0
VERTEX
  8
0
 10
11.875781
 20
948.868958
  0
VERTEX
  8
0
 10
11.199297
 20
948.704346
  0
VERTEX
  8
0
 10
10.576172
 20
948.513855
  0
VERTEX
  8
0
 10
10.002656
 20
948.300232
  0
VERTEX
  8
0
 10
9.308594
 20
947.983398
  0
VERTEX
  8
0
 10
8.989375
 20
947.813171
  0
VERTEX
  8
0
 10
8.542031
 20
947.544983
  0
VERTEX
  8
0
 10
7.996484
 20
947.160461
  0
VERTEX
  8
0
 10
7.490000
 20
946.716125
  0
VERTEX
  8
0
 10
7.244297
 20
946.460144
  0
VERTEX
  8
0
 10
7.000000
 20
946.175354
  0
VERTEX
  8
0
 10
6.630000
 20
945.684570
  0
VERTEX
  8
0
 10
6.115156
 20
944.887146
  0
VERTEX
  8
0
 10
5.705859
 20
944.169434
  0
VERTEX
  8
0
 10
5.134219
 20
943.058777
  0
VERTEX
  8
0
 10
4.541406
 20
941.782532
  0
VERTEX
  8
0
 10
3.936562
 20
940.351929
  0
VERTEX
  8
0
 10
3.480547
 20
939.184570
  0
VERTEX
  8
0
 10
3.025234
 20
937.944580
  0
VERTEX
  8
0
 10
2.419297
 20
936.199890
  0
VERTEX
  8
0
 10
1.000000
 20
931.853088
  0
SEQEND
  8
0
  0
POLYLINE
  8
0
  0
VERTEX
  8
0
 10
65.758591
 20
912.078979
  0
VERTEX
  8
0
 10
65.758591
 20
922.823425
  0
VERTEX
  8
0
 10
65.758591
 20
936.253967
  0
VERTEX
  8
0
 10
65.758591
 20
946.998352
  0
VERTEX
  8
0
 10
65.758591
 20
960.428833
  0
SEQEND
  8
0
  0
POLYLINE
  8
0
  0
VERTEX
  8
0
 10
62.582188
 20
941.721558
  0
VERTEX
  8
0
 10
68.613121
 20
941.554443
  0
SEQEND
  8
0
  0
POLYLINE
  8
0
  0
VERTEX
  8
0
 10
61.671562
 20
921.233398
  0
VERTEX
  8
0
 10
69.521637
 20
921.203796
  0
SEQEND
  8
0
  0
POLYLINE
  8
0
  0
VERTEX
  8
0
 10
1.302422
 20
935.841370
  0
VERTEX
  8
0
 10
4.489687
 20
935.592896
  0
VERTEX
  8
0
 10
5.690312
 20
935.477539
  0
VERTEX
  8
0
 10
6.816719
 20
935.346436
  0
VERTEX
  8
0
 10
7.603281
 20
935.234924
  0
VERTEX
  8
0
 10
8.588047
 20
935.065308
  0
VERTEX
  8
0
 10
9.523984
 20
934.867737
  0
VERTEX
  8
0
 10
10.437812
 20
934.637878
  0
VERTEX
  8
0
 10
11.356093
 20
934.371460
  0
VERTEX
  8
0
 10
12.297656
 20
934.060364
  0
VERTEX
  8
0
 10
13.021406
 20
933.788025
  0
VERTEX
  8
0
 10
13.761328
 20
933.474487
  0
VERTEX
  8
0
 10
14.518125
 20
933.112549
  0
VERTEX
  8
0
 10
15.292734
 20
932.695190
  0
VERTEX
  8
0
 10
16.085625
 20
932.216064
  0
VERTEX
  8
0
 10
16.893436
 20
931.677185
  0
VERTEX
  8
0
 10
17.710390
 20
931.086060
  0
VERTEX
  8
0
 10
18.530546
 20
930.450439
  0
VERTEX
  8
0
 10
19.347969
 20
929.777893
  0
VERTEX
  8
0
 10
20.156874
 20
929.076050
  0
VERTEX
  8
0
 10
20.951485
 20
928.352112
  0
VERTEX
  8
0
 10
21.729452
 20
927.608337
  0
VERTEX
  8
0
 10
22.490078
 20
926.843567
  0
VERTEX
  8
0
 10
23.232967
 20
926.056946
  0
VERTEX
  8
0
 10
24.430079
 20
924.694092
  0
VERTEX
  8
0
 10
25.122969
 20
923.843750
  0
VERTEX
  8
0
 10
25.796562
 20
922.971924
  0
VERTEX
  8
0
 10
26.876719
 20
921.498169
  0
VERTEX
  8
0
 10
28.882734
 20
918.646606
  0
VERTEX
  8
0
 10
29.975859
 20
917.124817
  0
VERTEX
  8
0
 10
30.933125
 20
915.839722
  0
VERTEX
  8
0
 10
31.699453
 20
914.867493
  0
VERTEX
  8
0
 10
32.328907
 20
914.157715
  0
VERTEX
  8
0
 10
32.595860
 20
913.904541
  0
VERTEX
  8
0
 10
32.822422
 20
913.721802
  0
VERTEX
  8
0
 10
33.081326
 20
913.545532
  0
VERTEX
  8
0
 10
33.345547
 20
913.400818
  0
VERTEX
  8
0
 10
33.644844
 20
913.281616
  0
VERTEX
  8
0
 10
33.929375
 20
913.200684
  0
VERTEX
  8
0
 10
34.570156
 20
913.087158
  0
VERTEX
  8
0
 10
35.304688
 20
913.042236
  0
VERTEX
  8
0
 10
36.076172
 20
913.064270
  0
VERTEX
  8
0
 10
37.026405
 20
913.158020
  0
VERTEX
  8
0
 10
38.564529
 20
913.381287
  0
VERTEX
  8
0
 10
45.111717
 20
914.438171
  0
VERTEX
  8
0
 10
49.086014
 20
915.034180
  0
VERTEX
  8
0
 10
52.516251
 20
915.493164
  0
VERTEX
  8
0
 10
53.856483
 20
915.652344
  0
VERTEX
  8
0
 10
55.803982
 20
915.858093
  0
VERTEX
  8
0
 10
58.291718
 20
916.073181
  0
VERTEX
  8
0
 10
60.667656
 20
916.224060
  0
VERTEX
  8
0
 10
62.945858
 20
916.314270
  0
VERTEX
  8
0
 10
65.677185
 20
916.347900
  0
VERTEX
  8
0
 10
67.262573
 20
916.329895
  0
VERTEX
  8
0
 10
68.813126
 20
916.286926
  0
VERTEX
  8
0
 10
70.332970
 20
916.221680
  0
VERTEX
  8
0
 10
71.826172
 20
916.137329
  0
VERTEX
  8
0
 10
73.296951
 20
916.036560
  0
VERTEX
  8
0
 10
75.230698
 20
915.880188
  0
VERTEX
  8
0
 10
77.144608
 20
915.697327
  0
VERTEX
  8
0
 10
78.574684
 20
915.541077
  0
VERTEX
  8
0
 10
80.963669
 20
915.240967
  0
VERTEX
  8
0
 10
83.859917
 20
914.812012
  0
VERTEX
  8
0
 10
86.699219
 20
914.339905
  0
VERTEX
  8
0
 10
91.884995
 20
913.431091
  0
VERTEX
  8
0
 10
93.864845
 20
913.106018
  0
VERTEX
  8
0
 10
95.275154
 20
912.912659
  0
VERTEX
  8
0
 10
95.844688
 20
912.861694
  0
VERTEX
  8
0
 10
96.283905
 20
912.848328
  0
VERTEX
  8
0
 10
96.710777
 20
912.875366
  0
VERTEX
  8
0
 10
97.075073
 20
912.940308
  0
VERTEX
  8
0
 10
97.434135
 20
913.038086
  0
VERTEX
  8
0
 10
97.799217
 20
913.178955
  0
VERTEX
  8
0
 10
98.175079
 20
913.375061
  0
VERTEX
  8
0
 10
98.487495
 20
913.580627
  0
VERTEX
  8
0
 10
98.827499
 20
913.857117
  0
VERTEX
  8
0
 10
99.118904
 20
914.139038
  0
VERTEX
  8
0
 10
99.712967
 20
914.810669
  0
VERTEX
  8
0
 10
100.495155
 20
915.814758
  0
VERTEX
  8
0
 10
101.485313
 20
917.174255
  0
VERTEX
  8
0
 10
104.026169
 20
920.735535
  0
VERTEX
  8
0
 10
105.390228
 20
922.579407
  0
VERTEX
  8
0
 10
106.701088
 20
924.250977
  0
VERTEX
  8
0
 10
107.351402
 20
925.035400
  0
VERTEX
  8
0
 10
108.006088
 20
925.792786
  0
VERTEX
  8
0
 10
108.894997
 20
926.768555
  0
VERTEX
  8
0
 10
109.574684
 20
927.475525
  0
VERTEX
  8
0
 10
110.496246
 20
928.382019
  0
VERTEX
  8
0
 10
111.197182
 20
929.032959
  0
VERTEX
  8
0
 10
112.142418
 20
929.859192
  0
VERTEX
  8
0
 10
112.857811
 20
930.445679
  0
VERTEX
  8
0
 10
113.820465
 20
931.179749
  0
VERTEX
  8
0
 10
114.549995
 20
931.691467
  0
VERTEX
  8
0
 10
115.286873
 20
932.167480
  0
VERTEX
  8
0
 10
116.031952
 20
932.605652
  0
VERTEX
  8
0
 10
116.785934
 20
933.003784
  0
VERTEX
  8
0
 10
117.550156
 20
933.360657
  0
VERTEX
  8
0
 10
118.327965
 20
933.679871
  0
VERTEX
  8
0
 10
119.123276
 20
933.965820
  0
VERTEX
  8
0
 10
119.939842
 20
934.223083
  0
VERTEX
  8
0
 10
121.068275
 20
934.529175
  0
VERTEX
  8
0
 10
122.249374
 20
934.802551
  0
VERTEX
  8
0
 10
123.466087
 20
935.046204
  0
VERTEX
  8
0
 10
124.676010
 20
935.255920
  0
VERTEX
  8
0
 10
126.112656
 20
935.463074
  0
VERTEX
  8
0
 10
127.148750
 20
935.579285
  0
VERTEX
  8
0
 10
128.271866
 20
935.663391
  0
VERTEX
  8
0
 10
129.252258
 20
935.697571
  0
VERTEX
  8
0
 10
130.498276
 20
935.700989
  0
SEQEND
  8
0
  0
POLYLINE
  8
0
  0
VERTEX
  8
0
 10
75.486092
 20
957.447021
  0
VERTEX
  8
0
 10
75.390938
 20
957.925354
  0
VERTEX
  8
0
 10
75.119995
 20
958.330811
  0
VERTEX
  8
0
 10
74.714455
 20
958.601868
  0
VERTEX
  8
0
 10
74.236092
 20
958.697021
  0
VERTEX
  8
0
 10
73.757736
 20
958.601868
  0
VERTEX
  8
0
 10
73.352188
 20
958.330811
  0
VERTEX
  8
0
 10
73.081245
 20
957.925354
  0
VERTEX
  8
0
 10
72.986092
 20
957.447021
  0
VERTEX
  8
0
 10
73.081245
 20
956.968628
  0
VERTEX
  8
0
 10
73.352188
 20
956.563110
  0
VERTEX
  8
0
 10
73.757736
 20
956.292175
  0
VERTEX
  8
0
 10
74.236092
 20
956.197021
  0
VERTEX
  8
0
 10
74.714455
 20
956.292175
  0
VERTEX
  8
0
 10
75.119995
 20
956.563110
  0
VERTEX
  8
0
 10
75.390938
 20
956.968628
  0
VERTEX
  8
0
 10
75.486092
 20
957.447021
  0
SEQEND
  8
0
  0
POLYLINE
  8
0
  0
VERTEX
  8
0
 10
58.485779
 20
957.525452
  0
VERTEX
  8
0
 10
58.390625
 20
958.003784
  0
VERTEX
  8
0
 10
58.119610
 20
958.409363
  0
VERTEX
  8
0
 10
57.714062
 20
958.680298
  0
VERTEX
  8
0
 10
57.235779
 20
958.775452
  0
VERTEX
  8
0
 10
56.757343
 20
958.680298
  0
VERTEX
  8
0
 10
56.351875
 20
958.409363
  0
VERTEX
  8
0
 10
56.080936
 20
958.003784
  0
VERTEX
  8
0
 10
55.985779
 20
957.525452
  0
VERTEX
  8
0
 10
56.080936
 20
957.047058
  0
VERTEX
  8
0
 10
56.351875
 20
956.641602
  0
VERTEX
  8
0
 10
56.757343
 20
956.370605
  0
VERTEX
  8
0
 10
57.235779
 20
956.275452
  0
VERTEX
  8
0
 10
57.714062
 20
956.370605
  0
VERTEX
  8
0
 10
58.119610
 20
956.641602
  0
VERTEX
  8
0
 10
58.390625
 20
957.047058
  0
VERTEX
  8
0
 10
58.485779
 20
957.525452
  0
SEQEND
  8
0
  0
POLYLINE
  8
0
  0
VERTEX
  8
0
 10
67.070778
 20
915.116211
  0
VERTEX
  8
0
 10
66.975624
 20
915.594604
  0
VERTEX
  8
0
 10
66.704689
 20
916.000061
  0
VERTEX
  8
0
 10
66.299141
 20
916.271057
  0
VERTEX
  8
0
 10
65.820778
 20
916.366211
  0
VERTEX
  8
0
 10
65.342422
 20
916.271057
  0
VERTEX
  8
0
 10
64.936874
 20
916.000061
  0
VERTEX
  8
0
 10
64.665939
 20
915.594604
  0
VERTEX
  8
0
 10
64.570778
 20
915.116211
  0
VERTEX
  8
0
 10
64.665939
 20
914.637878
  0
VERTEX
  8
0
 10
64.936874
 20
914.232300
  0
VERTEX
  8
0
 10
65.342422
 20
913.961365
  0
VERTEX
  8
0
 10
65.820778
 20
913.866211
  0
VERTEX
  8
0
 10
66.299141
 20
913.961365
  0
VERTEX
  8
0
 10
66.704689
 20
914.232300
  0
VERTEX
  8
0
 10
66.975624
 20
914.637878
  0
VERTEX
  8
0
 10
67.070778
 20
915.116211
  0
SEQEND
  8
0
  0
POLYLINE
  8
0
  0
VERTEX
  8
0
 10
104.579842
 20
189.357101
  0
VERTEX
  8
0
 10
105.641716
 20
204.134064
  0
VERTEX
  8
0
 10
106.969139
 20
222.605392
  0
VERTEX
  8
0
 10
108.030937
 20
237.382416
  0
VERTEX
  8
0
 10
109.358360
 20
255.853668
  0
VERTEX
  8
0
 10
94.670387
 20
268.832184
  0
VERTEX
  8
0
 10
96.630157
 20
284.671936
  0
VERTEX
  8
0
 10
98.009377
 20
296.054535
  0
VERTEX
  8
0
 10
99.493515
 20
308.626953
  0
VERTEX
  8
0
 10
101.286011
 20
323.970764
  0
VERTEX
  8
0
 10
102.491173
 20
334.052490
  0
VERTEX
  8
0
 10
103.144760
 20
339.297577
  0
VERTEX
  8
0
 10
103.908279
 20
345.068909
  0
VERTEX
  8
0
 10
104.559685
 20
349.671875
  0
VERTEX
  8
0
 10
105.601563
 20
356.755615
  0
VERTEX
  8
0
 10
106.030235
 20
359.920929
  0
VERTEX
  8
0
 10
106.324371
 20
362.314362
  0
VERTEX
  8
0
 10
106.688591
 20
365.531555
  0
VERTEX
  8
0
 10
108.331947
 20
381.497009
  0
VERTEX
  8
0
 10
99.126793
 20
386.634827
  0
VERTEX
  8
0
 10
91.265541
 20
391.002014
  0
VERTEX
  8
0
 10
85.035622
 20
394.439850
  0
VERTEX
  8
0
 10
72.188354
 20
401.488434
  0
VERTEX
  8
0
 10
65.213516
 20
405.349670
  0
VERTEX
  8
0
 10
56.753437
 20
410.099213
  0
VERTEX
  8
0
 10
44.018906
 20
417.319519
  0
VERTEX
  8
0
 10
35.297577
 20
400.574982
  0
VERTEX
  8
0
 10
30.219921
 20
390.798126
  0
VERTEX
  8
0
 10
25.127968
 20
380.949829
  0
VERTEX
  8
0
 10
20.436874
 20
371.862640
  0
VERTEX
  8
0
 10
13.008203
 20
357.515778
  0
VERTEX
  8
0
 10
10.509140
 20
358.775543
  0
VERTEX
  8
0
 10
8.857734
 20
355.913361
  0
VERTEX
  8
0
 10
7.536328
 20
353.575775
  0
VERTEX
  8
0
 10
6.471875
 20
351.628113
  0
VERTEX
  8
0
 10
5.456563
 20
349.689362
  0
VERTEX
  8
0
 10
4.511015
 20
347.799988
  0
VERTEX
  8
0
 10
3.500000
 20
345.666473
  0
VERTEX
  8
0
 10
2.657812
 20
343.752655
  0
VERTEX
  8
0
 10
2.095078
 20
342.334137
  0
VERTEX
  8
0
 10
1.657109
 20
341.054443
  0
VERTEX
  8
0
 10
1.395547
 20
340.116547
  0
VERTEX
  8
0
 10
1.210000
 20
339.242340
  0
VERTEX
  8
0
 10
1.068750
 20
338.212585
  0
VERTEX
  8
0
 10
1.023047
 20
337.614532
  0
VERTEX
  8
0
 10
0.999922
 20
337.021790
  0
VERTEX
  8
0
 10
1.005391
 20
335.819275
  0
VERTEX
  8
0
 10
1.075859
 20
334.958740
  0
VERTEX
  8
0
 10
1.149375
 20
334.493439
  0
VERTEX
  8
0
 10
1.256875
 20
333.996796
  0
VERTEX
  8
0
 10
1.495312
 20
333.180084
  0
VERTEX
  8
0
 10
1.845937
 20
332.259369
  0
VERTEX
  8
0
 10
2.152187
 20
331.578125
  0
VERTEX
  8
0
 10
2.724297
 20
330.453583
  0
VERTEX
  8
0
 10
3.176250
 20
329.641937
  0
VERTEX
  8
0
 10
3.951719
 20
328.343445
  0
VERTEX
  8
0
 10
4.834609
 20
326.961792
  0
VERTEX
  8
0
 10
5.813750
 20
325.512573
  0
VERTEX
  8
0
 10
6.514453
 20
324.516785
  0
VERTEX
  8
0
 10
7.629922
 20
322.989441
  0
VERTEX
  8
0
 10
8.816953
 20
321.423431
  0
VERTEX
  8
0
 10
10.071796
 20
319.814606
  0
VERTEX
  8
0
 10
12.302813
 20
317.027100
  0
VERTEX
  8
0
 10
18.717577
 20
309.151703
  0
VERTEX
  8
0
 10
22.076796
 20
304.982025
  0
VERTEX
  8
0
 10
24.532890
 20
301.854126
  0
VERTEX
  8
0
 10
25.581171
 20
300.477325
  0
VERTEX
  8
0
 10
26.529531
 20
299.198517
  0
VERTEX
  8
0
 10
27.667500
 20
297.607269
  0
VERTEX
  8
0
 10
28.697733
 20
296.097412
  0
VERTEX
  8
0
 10
29.656952
 20
294.620300
  0
VERTEX
  8
0
 10
30.556562
 20
293.166077
  0
VERTEX
  8
0
 10
31.394766
 20
291.744751
  0
VERTEX
  8
0
 10
32.353123
 20
290.030151
  0
VERTEX
  8
0
 10
33.208984
 20
288.401642
  0
VERTEX
  8
0
 10
33.820232
 20
287.157196
  0
VERTEX
  8
0
 10
34.495937
 20
285.653107
  0
VERTEX
  8
0
 10
34.968437
 20
284.474518
  0
VERTEX
  8
0
 10
35.382263
 20
283.303284
  0
VERTEX
  8
0
 10
35.565392
 20
282.713745
  0
VERTEX
  8
0
 10
35.729610
 20
282.116394
  0
VERTEX
  8
0
 10
35.872654
 20
281.507263
  0
VERTEX
  8
0
 10
35.992264
 20
280.882324
  0
VERTEX
  8
0
 10
36.122734
 20
279.906555
  0
VERTEX
  8
0
 10
36.187576
 20
278.872650
  0
VERTEX
  8
0
 10
36.179138
 20
277.767639
  0
VERTEX
  8
0
 10
36.132732
 20
276.992950
  0
VERTEX
  8
0
 10
36.058670
 20
276.200928
  0
VERTEX
  8
0
 10
35.961720
 20
275.403595
  0
VERTEX
  8
0
 10
35.784142
 20
274.224365
  0
VERTEX
  8
0
 10
35.442265
 20
272.405853
  0
VERTEX
  8
0
 10
35.236248
 20
271.469849
  0
VERTEX
  8
0
 10
34.986092
 20
270.462341
  0
VERTEX
  8
0
 10
34.814766
 20
269.865540
  0
VERTEX
  8
0
 10
34.652969
 20
269.377167
  0
VERTEX
  8
0
 10
34.496094
 20
268.972168
  0
VERTEX
  8
0
 10
34.340157
 20
268.625549
  0
VERTEX
  8
0
 10
34.126560
 20
268.211945
  0
VERTEX
  8
0
 10
33.903439
 20
267.825775
  0
VERTEX
  8
0
 10
32.863281
 20
266.249359
  0
VERTEX
  8
0
 10
33.356171
 20
256.096008
  0
VERTEX
  8
0
 10
33.211407
 20
255.778976
  0
VERTEX
  8
0
 10
33.063904
 20
255.506317
  0
VERTEX
  8
0
 10
32.732655
 20
255.030853
  0
VERTEX
  8
0
 10
32.304844
 20
254.543427
  0
VERTEX
  8
0
 10
31.598906
 20
253.852890
  0
VERTEX
  8
0
 10
30.753984
 20
253.115860
  0
VERTEX
  8
0
 10
29.848436
 20
252.407257
  0
VERTEX
  8
0
 10
29.033438
 20
251.853745
  0
VERTEX
  8
0
 10
28.263046
 20
251.404922
  0
VERTEX
  8
0
 10
27.320936
 20
250.923981
  0
VERTEX
  8
0
 10
26.145781
 20
250.386398
  0
VERTEX
  8
0
 10
24.730000
 20
249.787643
  0
VERTEX
  8
0
 10
22.769140
 20
249.006241
  0
VERTEX
  8
0
 10
21.179062
 20
248.401794
  0
VERTEX
  8
0
 10
19.340937
 20
247.735855
  0
VERTEX
  8
0
 10
17.773750
 20
247.201096
  0
VERTEX
  8
0
 10
15.345937
 20
246.401871
  0
VERTEX
  8
0
 10
14.018203
 20
245.940231
  0
VERTEX
  8
0
 10
12.651796
 20
245.422104
  0
VERTEX
  8
0
 10
11.333281
 20
244.862656
  0
VERTEX
  8
0
 10
10.604531
 20
244.514679
  0
VERTEX
  8
0
 10
9.947266
 20
244.162186
  0
VERTEX
  8
0
 10
9.557656
 20
243.926636
  0
VERTEX
  8
0
 10
9.044219
 20
243.576096
  0
VERTEX
  8
0
 10
8.608516
 20
243.233429
  0
VERTEX
  8
0
 10
8.133359
 20
242.797501
  0
VERTEX
  8
0
 10
7.760781
 20
242.396408
  0
VERTEX
  8
0
 10
7.407578
 20
241.951706
  0
VERTEX
  8
0
 10
7.292109
 20
241.765076
  0
VERTEX
  8
0
 10
7.186328
 20
241.547729
  0
VERTEX
  8
0
 10
7.039453
 20
241.125931
  0
VERTEX
  8
0
 10
6.847734
 20
240.292572
  0
VERTEX
  8
0
 10
6.693203
 20
239.387650
  0
VERTEX
  8
0
 10
6.388203
 20
237.219910
  0
VERTEX
  8
0
 10
5.537578
 20
230.554062
  0
VERTEX
  8
0
 10
5.103594
 20
227.338821
  0
VERTEX
  8
0
 10
4.656015
 20
224.302338
  0
VERTEX
  8
0
 10
4.104453
 20
220.906876
  0
VERTEX
  8
0
 10
3.635391
 20
218.282654
  0
VERTEX
  8
0
 10
3.159922
 20
215.834991
  0
VERTEX
  8
0
 10
2.679922
 20
213.521240
  0
VERTEX
  8
0
 10
1.906797
 20
209.968750
  0
VERTEX
  8
0
 10
14.441953
 20
205.992966
  0
VERTEX
  8
0
 10
23.896719
 20
203.049911
  0
VERTEX
  8
0
 10
30.799686
 20
200.976563
  0
VERTEX
  8
0
 10
35.119453
 20
199.722885
  0
VERTEX
  8
0
 10
38.626797
 20
198.728668
  0
VERTEX
  8
0
 10
43.657734
 20
197.336868
  0
VERTEX
  8
0
 10
47.601719
 20
196.274994
  0
VERTEX
  8
0
 10
51.605076
 20
195.226166
  0
VERTEX
  8
0
 10
55.589451
 20
194.216248
  0
VERTEX
  8
0
 10
59.476406
 20
193.270782
  0
VERTEX
  8
0
 10
61.975468
 20
192.688904
  0
VERTEX
  8
0
 10
64.385857
 20
192.150696
  0
VERTEX
  8
0
 10
67.836563
 20
191.424911
  0
VERTEX
  8
0
 10
70.028671
 20
190.994995
  0
VERTEX
  8
0
 10
72.135231
 20
190.607880
  0
VERTEX
  8
0
 10
74.157265
 20
190.263351
  0
VERTEX
  8
0
 10
77.034454
 20
189.825699
  0
VERTEX
  8
0
 10
78.849998
 20
189.586319
  0
VERTEX
  8
0
 10
80.584923
 20
189.388428
  0
VERTEX
  8
0
 10
82.243515
 20
189.230148
  0
VERTEX
  8
0
 10
84.604683
 20
189.058594
  0
VERTEX
  8
0
 10
86.105392
 20
188.982803
  0
VERTEX
  8
0
 10
88.265388
 20
188.917725
  0
VERTEX
  8
0
 10
90.338982
 20
188.899765
  0
VERTEX
  8
0
 10
92.351791
 20
188.916245
  0
VERTEX
  8
0
 10
94.981873
 20
188.971786
  0
VERTEX
  8
0
 10
97.572495
 20
189.053741
  0
VERTEX
  8
0
 10
104.579842
 20
189.357101
  0
SEQEND
  8
0
  0
POLYLINE
  8
0
  0
VERTEX
  8
0
 10
107.440079
 20
372.832947
  0
VERTEX
  8
0
 10
95.234764
 20
379.645447
  0
VERTEX
  8
0
 10
87.390549
 20
384.003265
  0
VERTEX
  8
0
 10
81.179062
 20
387.430603
  0
VERTEX
  8
0
 10
68.327026
 20
394.482178
  0
VERTEX
  8
0
 10
61.318047
 20
398.362030
  0
VERTEX
  8
0
 10
52.822422
 20
403.131409
  0
VERTEX
  8
0
 10
40.321014
 20
410.219666
  0
SEQEND
  8
0
  0
POLYLINE
  8
0
  0
VERTEX
  8
0
 10
96.315308
 20
253.673981
  0
VERTEX
  8
0
 10
88.389214
 20
261.683990
  0
VERTEX
  8
0
 10
86.689529
 20
263.424927
  0
VERTEX
  8
0
 10
85.377655
 20
264.796234
  0
VERTEX
  8
0
 10
84.031326
 20
266.239838
  0
VERTEX
  8
0
 10
82.647964
 20
267.769989
  0
VERTEX
  8
0
 10
81.225075
 20
269.401093
  0
VERTEX
  8
0
 10
79.762108
 20
271.140533
  0
VERTEX
  8
0
 10
77.256485
 20
274.221710
  0
VERTEX
  8
0
 10
71.645699
 20
281.236938
  0
VERTEX
  8
0
 10
64.763596
 20
289.612793
  0
VERTEX
  8
0
 10
63.344608
 20
291.391388
  0
VERTEX
  8
0
 10
62.430546
 20
292.582184
  0
VERTEX
  8
0
 10
61.631092
 20
293.672729
  0
VERTEX
  8
0
 10
61.155075
 20
294.354523
  0
VERTEX
  8
0
 10
60.719997
 20
295.007416
  0
VERTEX
  8
0
 10
60.135235
 20
295.946259
  0
VERTEX
  8
0
 10
59.784687
 20
296.554199
  0
VERTEX
  8
0
 10
59.308437
 20
297.453979
  0
VERTEX
  8
0
 10
58.887108
 20
298.342499
  0
VERTEX
  8
0
 10
58.519375
 20
299.216492
  0
VERTEX
  8
0
 10
58.110466
 20
300.352814
  0
VERTEX
  8
0
 10
57.791641
 20
301.448029
  0
VERTEX
  8
0
 10
57.559921
 20
302.493988
  0
VERTEX
  8
0
 10
57.409294
 20
303.483887
  0
VERTEX
  8
0
 10
57.330780
 20
304.413361
  0
VERTEX
  8
0
 10
57.315544
 20
304.853973
  0
VERTEX
  8
0
 10
57.319843
 20
305.482971
  0
VERTEX
  8
0
 10
57.390156
 20
306.445709
  0
VERTEX
  8
0
 10
57.475937
 20
307.016632
  0
VERTEX
  8
0
 10
57.559372
 20
307.434906
  0
VERTEX
  8
0
 10
57.734375
 20
308.171173
  0
VERTEX
  8
0
 10
57.981716
 20
309.100616
  0
VERTEX
  8
0
 10
58.919765
 20
312.411255
  0
VERTEX
  8
0
 10
60.177578
 20
316.750549
  0
VERTEX
  8
0
 10
61.524452
 20
321.269287
  0
VERTEX
  8
0
 10
62.452576
 20
324.304596
  0
VERTEX
  8
0
 10
63.464607
 20
327.541870
  0
VERTEX
  8
0
 10
66.731094
 20
337.760529
  0
VERTEX
  8
0
 10
68.083748
 20
342.068756
  0
VERTEX
  8
0
 10
69.236404
 20
345.918182
  0
VERTEX
  8
0
 10
69.920624
 20
348.392487
  0
VERTEX
  8
0
 10
70.292580
 20
349.847504
  0
VERTEX
  8
0
 10
70.737968
 20
351.766327
  0
VERTEX
  8
0
 10
71.064377
 20
353.401703
  0
VERTEX
  8
0
 10
71.290314
 20
354.790924
  0
VERTEX
  8
0
 10
71.394058
 20
355.598816
  0
VERTEX
  8
0
 10
71.466721
 20
356.325134
  0
VERTEX
  8
0
 10
71.513046
 20
356.980133
  0
VERTEX
  8
0
 10
71.535309
 20
357.571625
  0
VERTEX
  8
0
 10
71.535393
 20
358.106873
  0
VERTEX
  8
0
 10
71.514763
 20
358.592651
  0
VERTEX
  8
0
 10
71.475311
 20
359.036407
  0
VERTEX
  8
0
 10
71.418671
 20
359.445160
  0
VERTEX
  8
0
 10
71.305313
 20
360.007965
  0
VERTEX
  8
0
 10
71.162888
 20
360.532013
  0
VERTEX
  8
0
 10
70.989609
 20
361.044373
  0
VERTEX
  8
0
 10
70.841248
 20
361.398041
  0
VERTEX
  8
0
 10
70.652809
 20
361.776001
  0
VERTEX
  8
0
 10
70.412346
 20
362.190369
  0
VERTEX
  8
0
 10
70.107811
 20
362.653656
  0
VERTEX
  8
0
 10
69.727577
 20
363.178131
  0
VERTEX
  8
0
 10
69.259529
 20
363.775848
  0
VERTEX
  8
0
 10
68.691795
 20
364.459534
  0
VERTEX
  8
0
 10
67.221169
 20
366.119354
  0
VERTEX
  8
0
 10
65.333122
 20
368.121857
  0
VERTEX
  8
0
 10
64.254219
 20
369.221252
  0
VERTEX
  8
0
 10
63.096874
 20
370.369598
  0
VERTEX
  8
0
 10
61.233044
 20
372.157166
  0
VERTEX
  8
0
 10
59.242031
 20
373.985931
  0
VERTEX
  8
0
 10
57.858356
 20
375.207794
  0
VERTEX
  8
0
 10
55.714844
 20
377.030151
  0
VERTEX
  8
0
 10
53.502888
 20
378.841858
  0
VERTEX
  8
0
 10
51.237106
 20
380.644836
  0
VERTEX
  8
0
 10
48.932186
 20
382.441711
  0
VERTEX
  8
0
 10
45.043594
 20
385.428741
  0
SEQEND
  8
0
  0
POLYLINE
  8
0
  0
VERTEX
  8
0
 10
71.216873
 20
272.906647
  0
VERTEX
  8
0
 10
70.223671
 20
269.401703
  0
VERTEX
  8
0
 10
69.551636
 20
266.849670
  0
VERTEX
  8
0
 10
69.175232
 20
265.283661
  0
VERTEX
  8
0
 10
68.938751
 20
264.221008
  0
VERTEX
  8
0
 10
68.506798
 20
262.048676
  0
VERTEX
  8
0
 10
68.221558
 20
260.409149
  0
VERTEX
  8
0
 10
67.971245
 20
258.800995
  0
VERTEX
  8
0
 10
67.757187
 20
257.260864
  0
VERTEX
  8
0
 10
67.580933
 20
255.824921
  0
VERTEX
  8
0
 10
67.444061
 20
254.529678
  0
VERTEX
  8
0
 10
67.347580
 20
253.399765
  0
VERTEX
  8
0
 10
67.291870
 20
252.412262
  0
VERTEX
  8
0
 10
67.277031
 20
251.532959
  0
VERTEX
  8
0
 10
67.289841
 20
250.989761
  0
VERTEX
  8
0
 10
67.343201
 20
250.213821
  0
VERTEX
  8
0
 10
67.437424
 20
249.454056
  0
VERTEX
  8
0
 10
67.573120
 20
248.677338
  0
VERTEX
  8
0
 10
67.754059
 20
247.869141
  0
VERTEX
  8
0
 10
67.903046
 20
247.311325
  0
VERTEX
  8
0
 10
68.173828
 20
246.444290
  0
VERTEX
  8
0
 10
68.388596
 20
245.844833
  0
VERTEX
  8
0
 10
68.633049
 20
245.227341
  0
VERTEX
  8
0
 10
68.908981
 20
244.590775
  0
VERTEX
  8
0
 10
69.218513
 20
243.934753
  0
VERTEX
  8
0
 10
69.561714
 20
243.259293
  0
VERTEX
  8
0
 10
70.322891
 20
241.869293
  0
VERTEX
  8
0
 10
72.297966
 20
238.426788
  0
VERTEX
  8
0
 10
72.803047
 20
237.479996
  0
VERTEX
  8
0
 10
73.362419
 20
236.317810
  0
VERTEX
  8
0
 10
73.598122
 20
235.778198
  0
VERTEX
  8
0
 10
73.903824
 20
235.018036
  0
VERTEX
  8
0
 10
74.159996
 20
234.314056
  0
VERTEX
  8
0
 10
74.375313
 20
233.662964
  0
VERTEX
  8
0
 10
74.712814
 20
232.488907
  0
VERTEX
  8
0
 10
74.835236
 20
231.899445
  0
VERTEX
  8
0
 10
74.897026
 20
231.473038
  0
VERTEX
  8
0
 10
74.956642
 20
230.747498
  0
VERTEX
  8
0
 10
74.972580
 20
230.185379
  0
VERTEX
  8
0
 10
74.957497
 20
229.189056
  0
VERTEX
  8
0
 10
74.919762
 20
228.402176
  0
VERTEX
  8
0
 10
74.732574
 20
226.013428
  0
VERTEX
  8
0
 10
74.434219
 20
223.163818
  0
VERTEX
  8
0
 10
74.052422
 20
220.032333
  0
VERTEX
  8
0
 10
73.521408
 20
216.139999
  0
VERTEX
  8
0
 10
72.939842
 20
212.210861
  0
VERTEX
  8
0
 10
72.123283
 20
206.943436
  0
SEQEND
  8
0
  0
POLYLINE
  8
0
  0
VERTEX
  8
0
 10
47.328125
 20
216.208191
  0
VERTEX
  8
0
 10
47.766094
 20
218.002106
  0
VERTEX
  8
0
 10
48.087654
 20
219.446793
  0
VERTEX
  8
0
 10
48.291405
 20
220.540771
  0
VERTEX
  8
0
 10
48.428360
 20
221.557419
  0
VERTEX
  8
0
 10
48.489140
 20
222.482178
  0
VERTEX
  8
0
 10
48.480469
 20
223.312805
  0
VERTEX
  8
0
 10
48.411091
 20
224.048035
  0
VERTEX
  8
0
 10
48.356251
 20
224.379456
  0
VERTEX
  8
0
 10
48.252029
 20
224.830933
  0
VERTEX
  8
0
 10
48.123280
 20
225.230072
  0
VERTEX
  8
0
 10
47.967499
 20
225.589920
  0
VERTEX
  8
0
 10
47.781094
 20
225.926407
  0
VERTEX
  8
0
 10
47.478279
 20
226.365936
  0
VERTEX
  8
0
 10
47.105389
 20
226.829834
  0
VERTEX
  8
0
 10
46.655937
 20
227.351563
  0
VERTEX
  8
0
 10
44.613201
 20
229.635315
  0
VERTEX
  8
0
 10
43.832188
 20
230.537888
  0
VERTEX
  8
0
 10
43.155079
 20
231.405228
  0
VERTEX
  8
0
 10
42.867107
 20
231.830002
  0
VERTEX
  8
0
 10
42.697109
 20
232.111084
  0
VERTEX
  8
0
 10
42.478046
 20
232.531708
  0
VERTEX
  8
0
 10
42.356327
 20
232.816162
  0
VERTEX
  8
0
 10
42.209217
 20
233.260773
  0
VERTEX
  8
0
 10
42.134140
 20
233.576096
  0
VERTEX
  8
0
 10
42.054688
 20
234.089523
  0
VERTEX
  8
0
 10
42.023438
 20
234.465775
  0
VERTEX
  8
0
 10
42.008827
 20
234.874756
  0
VERTEX
  8
0
 10
42.017342
 20
235.559998
  0
VERTEX
  8
0
 10
42.066483
 20
236.344833
  0
VERTEX
  8
0
 10
42.127579
 20
236.930145
  0
VERTEX
  8
0
 10
42.215626
 20
237.569916
  0
VERTEX
  8
0
 10
42.334297
 20
238.268036
  0
VERTEX
  8
0
 10
42.487186
 20
239.028595
  0
VERTEX
  8
0
 10
42.678280
 20
239.855621
  0
VERTEX
  8
0
 10
42.911015
 20
240.753036
  0
VERTEX
  8
0
 10
43.189297
 20
241.725067
  0
VERTEX
  8
0
 10
43.692188
 20
243.318359
  0
VERTEX
  8
0
 10
44.476093
 20
245.604919
  0
VERTEX
  8
0
 10
46.680077
 20
251.652969
  0
VERTEX
  8
0
 10
47.278671
 20
253.347260
  0
VERTEX
  8
0
 10
47.837734
 20
255.067810
  0
VERTEX
  8
0
 10
48.167343
 20
256.237579
  0
VERTEX
  8
0
 10
48.363983
 20
257.054382
  0
VERTEX
  8
0
 10
48.530155
 20
257.861542
  0
VERTEX
  8
0
 10
48.712967
 20
258.948029
  0
VERTEX
  8
0
 10
48.816326
 20
259.750763
  0
VERTEX
  8
0
 10
48.886326
 20
260.524200
  0
VERTEX
  8
0
 10
48.918827
 20
261.250946
  0
VERTEX
  8
0
 10
48.909843
 20
261.913910
  0
VERTEX
  8
0
 10
48.855389
 20
262.497742
  0
VERTEX
  8
0
 10
48.792500
 20
262.845306
  0
VERTEX
  8
0
 10
48.657032
 20
263.319122
  0
VERTEX
  8
0
 10
48.471016
 20
263.754120
  0
VERTEX
  8
0
 10
48.232655
 20
264.171021
  0
VERTEX
  8
0
 10
47.940468
 20
264.590302
  0
VERTEX
  8
0
 10
47.592812
 20
265.032349
  0
VERTEX
  8
0
 10
47.040936
 20
265.676086
  0
VERTEX
  8
0
 10
46.560154
 20
266.198029
  0
VERTEX
  8
0
 10
46.021172
 20
266.751556
  0
VERTEX
  8
0
 10
45.423359
 20
267.334686
  0
VERTEX
  8
0
 10
44.766327
 20
267.945374
  0
VERTEX
  8
0
 10
44.049843
 20
268.581726
  0
VERTEX
  8
0
 10
42.187733
 20
270.145782
  0
VERTEX
  8
0
 10
39.570858
 20
272.249451
  0
SEQEND
  8
0
  0
POLYLINE
  8
0
  0
VERTEX
  8
0
 10
97.668594
 20
198.004608
  0
VERTEX
  8
0
 10
83.413750
 20
198.382889
  0
SEQEND
  8
0
  0
POLYLINE
  8
0
  0
VERTEX
  8
0
 10
69.740471
 20
200.248672
  0
VERTEX
  8
0
 10
55.132420
 20
203.446793
  0
SEQEND
  8
0
  0
POLYLINE
  8
0
  0
VERTEX
  8
0
 10
39.023201
 20
207.835541
  0
VERTEX
  8
0
 10
33.985313
 20
209.194687
  0
VERTEX
  8
0
 10
32.211639
 20
204.748749
  0
SEQEND
  8
0
  0
POLYLINE
  8
0
  0
VERTEX
  8
0
 10
13.911172
 20
356.668274
  0
VERTEX
  8
0
 10
11.267812
 20
352.049744
  0
VERTEX
  8
0
 10
10.216249
 20
350.138519
  0
VERTEX
  8
0
 10
9.411718
 20
348.621002
  0
VERTEX
  8
0
 10
8.469766
 20
346.770142
  0
VERTEX
  8
0
 10
7.620937
 20
345.021942
  0
VERTEX
  8
0
 10
6.759375
 20
343.137115
  0
VERTEX
  8
0
 10
6.190703
 20
341.786163
  0
VERTEX
  8
0
 10
5.829609
 20
340.839691
  0
VERTEX
  8
0
 10
5.486953
 20
339.804840
  0
VERTEX
  8
0
 10
5.293593
 20
339.081177
  0
VERTEX
  8
0
 10
5.139688
 20
338.283051
  0
VERTEX
  8
0
 10
5.049453
 20
337.432251
  0
VERTEX
  8
0
 10
5.014688
 20
336.235229
  0
VERTEX
  8
0
 10
5.051094
 20
335.656006
  0
VERTEX
  8
0
 10
5.100937
 20
335.331543
  0
VERTEX
  8
0
 10
5.180078
 20
334.974518
  0
VERTEX
  8
0
 10
5.294844
 20
334.577972
  0
VERTEX
  8
0
 10
5.451250
 20
334.135071
  0
VERTEX
  8
0
 10
5.777891
 20
333.368500
  0
VERTEX
  8
0
 10
6.228750
 20
332.464539
  0
VERTEX
  8
0
 10
6.801797
 20
331.431396
  0
VERTEX
  8
0
 10
7.744218
 20
329.878113
  0
VERTEX
  8
0
 10
8.576015
 20
328.599915
  0
VERTEX
  8
0
 10
9.507500
 20
327.240631
  0
VERTEX
  8
0
 10
10.531718
 20
325.814850
  0
VERTEX
  8
0
 10
12.031328
 20
323.822968
  0
VERTEX
  8
0
 10
14.102812
 20
321.183746
  0
VERTEX
  8
0
 10
16.369921
 20
318.371399
  0
VERTEX
  8
0
 10
22.843203
 20
310.416412
  0
VERTEX
  8
0
 10
24.771797
 20
308.019745
  0
VERTEX
  8
0
 10
26.542343
 20
305.787811
  0
VERTEX
  8
0
 10
28.099922
 20
303.779205
  0
VERTEX
  8
0
 10
29.139608
 20
302.402405
  0
VERTEX
  8
0
 10
30.087109
 20
301.112488
  0
VERTEX
  8
0
 10
31.235468
 20
299.489380
  0
VERTEX
  8
0
 10
32.031796
 20
298.316101
  0
VERTEX
  8
0
 10
33.035000
 20
296.772888
  0
VERTEX
  8
0
 10
33.980232
 20
295.247101
  0
VERTEX
  8
0
 10
34.866093
 20
293.747406
  0
VERTEX
  8
0
 10
35.691406
 20
292.282562
  0
VERTEX
  8
0
 10
36.636093
 20
290.513519
  0
VERTEX
  8
0
 10
37.321953
 20
289.144745
  0
VERTEX
  8
0
 10
37.947029
 20
287.798340
  0
VERTEX
  8
0
 10
38.376640
 20
286.792114
  0
VERTEX
  8
0
 10
38.644844
 20
286.118591
  0
VERTEX
  8
0
 10
39.138046
 20
284.754608
  0
VERTEX
  8
0
 10
39.361641
 20
284.059357
  0
VERTEX
  8
0
 10
39.566639
 20
283.351410
  0
VERTEX
  8
0
 10
39.832420
 20
282.259827
  0
VERTEX
  8
0
 10
40.039219
 20
281.124054
  0
VERTEX
  8
0
 10
40.177029
 20
279.934692
  0
VERTEX
  8
0
 10
40.235622
 20
278.682190
  0
VERTEX
  8
0
 10
40.206249
 20
277.359589
  0
VERTEX
  8
0
 10
40.140858
 20
276.448975
  0
VERTEX
  8
0
 10
40.045311
 20
275.529510
  0
VERTEX
  8
0
 10
39.924999
 20
274.613678
  0
VERTEX
  8
0
 10
39.709766
 20
273.273743
  0
VERTEX
  8
0
 10
39.551170
 20
272.421173
  0
VERTEX
  8
0
 10
39.304295
 20
271.234436
  0
VERTEX
  8
0
 10
39.063046
 20
270.195160
  0
VERTEX
  8
0
 10
38.764843
 20
269.061493
  0
VERTEX
  8
0
 10
38.555157
 20
268.371796
  0
VERTEX
  8
0
 10
38.353046
 20
267.792419
  0
VERTEX
  8
0
 10
38.154610
 20
267.298889
  0
VERTEX
  8
0
 10
37.956017
 20
266.866486
  0
VERTEX
  8
0
 10
37.685154
 20
266.346100
  0
VERTEX
  8
0
 10
37.406406
 20
265.868042
  0
VERTEX
  8
0
 10
37.050076
 20
265.312714
  0
VERTEX
  8
0
 10
36.616482
 20
264.679291
  0
SEQEND
  8
0
  0
POLYLINE
  8
0
  0
VERTEX
  8
0
 10
52.595860
 20
382.149994
  0
VERTEX
  8
0
 10
52.109531
 20
382.113892
  0
VERTEX
  8
0
 10
51.673985
 20
381.894379
  0
VERTEX
  8
0
 10
51.355625
 20
381.524994
  0
VERTEX
  8
0
 10
51.202888
 20
381.061707
  0
VERTEX
  8
0
 10
51.239059
 20
380.575317
  0
VERTEX
  8
0
 10
51.458515
 20
380.139832
  0
VERTEX
  8
0
 10
51.828045
 20
379.821411
  0
VERTEX
  8
0
 10
52.291248
 20
379.668579
  0
VERTEX
  8
0
 10
52.777576
 20
379.704834
  0
VERTEX
  8
0
 10
53.213123
 20
379.924377
  0
VERTEX
  8
0
 10
53.531483
 20
380.293884
  0
VERTEX
  8
0
 10
53.684219
 20
380.757019
  0
VERTEX
  8
0
 10
53.648125
 20
381.243439
  0
VERTEX
  8
0
 10
53.428593
 20
381.678894
  0
VERTEX
  8
0
 10
53.059063
 20
381.997192
  0
VERTEX
  8
0
 10
52.595860
 20
382.149994
  0
SEQEND
  8
0
  0
POLYLINE
  8
0
  0
VERTEX
  8
0
 10
46.016327
 20
402.269531
  0
VERTEX
  8
0
 10
45.529842
 20
402.233276
  0
VERTEX
  8
0
 10
45.094376
 20
402.013885
  0
VERTEX
  8
0
 10
44.776016
 20
401.644379
  0
VERTEX
  8
0
 10
44.623280
 20
401.181091
  0
VERTEX
  8
0
 10
44.659451
 20
400.694824
  0
VERTEX
  8
0
 10
44.878906
 20
400.259216
  0
VERTEX
  8
0
 10
45.248360
 20
399.940918
  0
VERTEX
  8
0
 10
45.711639
 20
399.788116
  0
VERTEX
  8
0
 10
46.197968
 20
399.824219
  0
VERTEX
  8
0
 10
46.633514
 20
400.043884
  0
VERTEX
  8
0
 10
46.951874
 20
400.413269
  0
VERTEX
  8
0
 10
47.104607
 20
400.876404
  0
VERTEX
  8
0
 10
47.068516
 20
401.362946
  0
VERTEX
  8
0
 10
46.848904
 20
401.798431
  0
VERTEX
  8
0
 10
46.479450
 20
402.116699
  0
VERTEX
  8
0
 10
46.016327
 20
402.269531
  0
SEQEND
  8
0
  0
POLYLINE
  8
0
  0
VERTEX
  8
0
 10
15.171016
 20
357.352661
  0
VERTEX
  8
0
 10
14.684531
 20
357.316559
  0
VERTEX
  8
0
 10
14.249063
 20
357.097015
  0
VERTEX
  8
0
 10
13.930703
 20
356.727570
  0
VERTEX
  8
0
 10
13.777968
 20
356.264282
  0
VERTEX
  8
0
 10
13.814140
 20
355.778046
  0
VERTEX
  8
0
 10
14.033593
 20
355.342499
  0
VERTEX
  8
0
 10
14.403047
 20
355.024048
  0
VERTEX
  8
0
 10
14.866328
 20
354.871307
  0
VERTEX
  8
0
 10
15.352656
 20
354.907501
  0
VERTEX
  8
0
 10
15.788203
 20
355.127014
  0
VERTEX
  8
0
 10
16.106640
 20
355.496552
  0
VERTEX
  8
0
 10
16.259296
 20
355.959686
  0
VERTEX
  8
0
 10
16.223204
 20
356.446075
  0
VERTEX
  8
0
 10
16.003593
 20
356.881561
  0
VERTEX
  8
0
 10
15.634140
 20
357.199921
  0
VERTEX
  8
0
 10
15.171016
 20
357.352661
  0
SEQEND
  8
0
  0
POLYLINE
  8
0
  0
VERTEX
  8
0
 10
83.170151
 20
604.602905
  0
VERTEX
  8
0
 10
83.518669
 20
589.596802
  0
VERTEX
  8
0
 10
83.703979
 20
579.490662
  0
VERTEX
  8
0
 10
83.771950
 20
574.383789
  0
VERTEX
  8
0
 10
83.817657
 20
569.220215
  0
VERTEX
  8
0
 10
83.833046
 20
563.938843
  0
VERTEX
  8
0
 10
83.821564
 20
560.317200
  0
VERTEX
  8
0
 10
83.765236
 20
554.680298
  0
VERTEX
  8
0
 10
83.697418
 20
550.755066
  0
VERTEX
  8
0
 10
83.602264
 20
546.671387
  0
VERTEX
  8
0
 10
83.476875
 20
542.407776
  0
VERTEX
  8
0
 10
83.318588
 20
537.944702
  0
VERTEX
  8
0
 10
83.127579
 20
533.294983
  0
VERTEX
  8
0
 10
82.906479
 20
528.505554
  0
VERTEX
  8
0
 10
82.658127
 20
523.623962
  0
VERTEX
  8
0
 10
82.385391
 20
518.698059
  0
VERTEX
  8
0
 10
82.091171
 20
513.775757
  0
VERTEX
  8
0
 10
81.615547
 20
506.503510
  0
VERTEX
  8
0
 10
81.107422
 20
499.508362
  0
VERTEX
  8
0
 10
80.755310
 20
495.076630
  0
VERTEX
  8
0
 10
80.394455
 20
490.840851
  0
VERTEX
  8
0
 10
80.025154
 20
486.760773
  0
VERTEX
  8
0
 10
79.456017
 20
480.840546
  0
VERTEX
  8
0
 10
77.435860
 20
461.130219
  0
VERTEX
  8
0
 10
76.362579
 20
450.261475
  0
VERTEX
  8
0
 10
75.035858
 20
436.291473
  0
VERTEX
  8
0
 10
73.459839
 20
419.319763
  0
VERTEX
  8
0
 10
66.698357
 20
426.421875
  0
VERTEX
  8
0
 10
62.008282
 20
431.385376
  0
VERTEX
  8
0
 10
58.410313
 20
435.235291
  0
VERTEX
  8
0
 10
54.999374
 20
438.938354
  0
VERTEX
  8
0
 10
51.035313
 20
443.322968
  0
VERTEX
  8
0
 10
47.412891
 20
447.410370
  0
VERTEX
  8
0
 10
44.140469
 20
451.172882
  0
VERTEX
  8
0
 10
40.677734
 20
455.234985
  0
VERTEX
  8
0
 10
37.666248
 20
458.865692
  0
VERTEX
  8
0
 10
35.444061
 20
461.633972
  0
VERTEX
  8
0
 10
34.215469
 20
463.208649
  0
VERTEX
  8
0
 10
33.057968
 20
464.728973
  0
VERTEX
  8
0
 10
31.292187
 20
467.143280
  0
VERTEX
  8
0
 10
30.334608
 20
468.519836
  0
VERTEX
  8
0
 10
29.740391
 20
469.407410
  0
VERTEX
  8
0
 10
28.916874
 20
470.693420
  0
VERTEX
  8
0
 10
28.414063
 20
471.520538
  0
VERTEX
  8
0
 10
27.948515
 20
472.323669
  0
VERTEX
  8
0
 10
27.317968
 20
473.484131
  0
VERTEX
  8
0
 10
26.941563
 20
474.228973
  0
VERTEX
  8
0
 10
26.440937
 20
475.304291
  0
VERTEX
  8
0
 10
26.148672
 20
475.993652
  0
VERTEX
  8
0
 10
25.888594
 20
476.661621
  0
VERTEX
  8
0
 10
25.659843
 20
477.308594
  0
VERTEX
  8
0
 10
25.461639
 20
477.934906
  0
VERTEX
  8
0
 10
25.292109
 20
478.540375
  0
VERTEX
  8
0
 10
25.085234
 20
479.407867
  0
VERTEX
  8
0
 10
24.974844
 20
479.957581
  0
VERTEX
  8
0
 10
24.843203
 20
480.737244
  0
VERTEX
  8
0
 10
24.743828
 20
481.460297
  0
VERTEX
  8
0
 10
24.623438
 20
482.532257
  0
VERTEX
  8
0
 10
24.590000
 20
482.930054
  0
VERTEX
  8
0
 10
24.576874
 20
483.349915
  0
VERTEX
  8
0
 10
24.594765
 20
483.825226
  0
VERTEX
  8
0
 10
24.654531
 20
484.389740
  0
VERTEX
  8
0
 10
24.846016
 20
485.476715
  0
VERTEX
  8
0
 10
25.191952
 20
486.952576
  0
VERTEX
  8
0
 10
25.728672
 20
488.930389
  0
VERTEX
  8
0
 10
26.477968
 20
491.480927
  0
VERTEX
  8
0
 10
27.744375
 20
495.593903
  0
VERTEX
  8
0
 10
29.208437
 20
500.213593
  0
VERTEX
  8
0
 10
30.752577
 20
505.004913
  0
VERTEX
  8
0
 10
36.052891
 20
521.205017
  0
VERTEX
  8
0
 10
37.529530
 20
525.762512
  0
VERTEX
  8
0
 10
38.903126
 20
530.145386
  0
VERTEX
  8
0
 10
39.788280
 20
533.148132
  0
VERTEX
  8
0
 10
40.231953
 20
534.783813
  0
VERTEX
  8
0
 10
40.562969
 20
536.148865
  0
VERTEX
  8
0
 10
40.794453
 20
537.300293
  0
VERTEX
  8
0
 10
40.941952
 20
538.303833
  0
VERTEX
  8
0
 10
40.988983
 20
538.770691
  0
VERTEX
  8
0
 10
41.031483
 20
539.450439
  0
VERTEX
  8
0
 10
41.045235
 20
540.129272
  0
VERTEX
  8
0
 10
41.035702
 20
540.588745
  0
VERTEX
  8
0
 10
41.006329
 20
541.055664
  0
VERTEX
  8
0
 10
40.952969
 20
541.531860
  0
VERTEX
  8
0
 10
40.818829
 20
542.267029
  0
VERTEX
  8
0
 10
40.687187
 20
542.773499
  0
VERTEX
  8
0
 10
40.516872
 20
543.295166
  0
VERTEX
  8
0
 10
40.179607
 20
544.109497
  0
VERTEX
  8
0
 10
39.735546
 20
544.965271
  0
VERTEX
  8
0
 10
39.189373
 20
545.858948
  0
VERTEX
  8
0
 10
38.549767
 20
546.784973
  0
VERTEX
  8
0
 10
38.075546
 20
547.417664
  0
VERTEX
  8
0
 10
37.566170
 20
548.060547
  0
VERTEX
  8
0
 10
36.741562
 20
549.040588
  0
VERTEX
  8
0
 10
35.540466
 20
550.370300
  0
VERTEX
  8
0
 10
34.546638
 20
551.404663
  0
VERTEX
  8
0
 10
33.436405
 20
552.509460
  0
VERTEX
  8
0
 10
32.175232
 20
553.720947
  0
VERTEX
  8
0
 10
30.199921
 20
555.564575
  0
VERTEX
  8
0
 10
25.752968
 20
559.616333
  0
VERTEX
  8
0
 10
15.477265
 20
568.873352
  0
VERTEX
  8
0
 10
12.030234
 20
572.001160
  0
VERTEX
  8
0
 10
8.915313
 20
574.893677
  0
VERTEX
  8
0
 10
6.754140
 20
576.990845
  0
VERTEX
  8
0
 10
5.180781
 20
578.596313
  0
VERTEX
  8
0
 10
3.828672
 20
580.047119
  0
VERTEX
  8
0
 10
2.731484
 20
581.298340
  0
VERTEX
  8
0
 10
1.920391
 20
582.310669
  0
VERTEX
  8
0
 10
1.675703
 20
582.654419
  0
VERTEX
  8
0
 10
1.472969
 20
582.972717
  0
VERTEX
  8
0
 10
1.309687
 20
583.272400
  0
VERTEX
  8
0
 10
1.183203
 20
583.559753
  0
VERTEX
  8
0
 10
1.091016
 20
583.841797
  0
VERTEX
  8
0
 10
1.030703
 20
584.124939
  0
VERTEX
  8
0
 10
0.999531
 20
584.415710
  0
VERTEX
  8
0
 10
1.002500
 20
584.880249
  0
VERTEX
  8
0
 10
1.036484
 20
585.213196
  0
VERTEX
  8
0
 10
1.096250
 20
585.566467
  0
VERTEX
  8
0
 10
1.293828
 20
586.338501
  0
VERTEX
  8
0
 10
1.596875
 20
587.206177
  0
VERTEX
  8
0
 10
1.788359
 20
587.678955
  0
VERTEX
  8
0
 10
2.126172
 20
588.440369
  0
VERTEX
  8
0
 10
2.522266
 20
589.265869
  0
VERTEX
  8
0
 10
3.130391
 20
590.464600
  0
VERTEX
  8
0
 10
4.951641
 20
593.931458
  0
VERTEX
  8
0
 10
7.175156
 20
598.226624
  0
VERTEX
  8
0
 10
7.943984
 20
599.676331
  0
VERTEX
  8
0
 10
8.480156
 20
600.651001
  0
VERTEX
  8
0
 10
9.125156
 20
601.758362
  0
VERTEX
  8
0
 10
9.692344
 20
602.660828
  0
VERTEX
  8
0
 10
10.301562
 20
603.544128
  0
VERTEX
  8
0
 10
10.811250
 20
604.207581
  0
VERTEX
  8
0
 10
11.170625
 20
604.609253
  0
VERTEX
  8
0
 10
11.462187
 20
604.830200
  0
VERTEX
  8
0
 10
11.689843
 20
604.935059
  0
VERTEX
  8
0
 10
11.818359
 20
604.973816
  0
VERTEX
  8
0
 10
12.111953
 20
605.022583
  0
VERTEX
  8
0
 10
12.280156
 20
605.031921
  0
VERTEX
  8
0
 10
12.667031
 20
605.019409
  0
VERTEX
  8
0
 10
13.131484
 20
604.963013
  0
VERTEX
  8
0
 10
13.996094
 20
604.792725
  0
VERTEX
  8
0
 10
14.680547
 20
604.624878
  0
VERTEX
  8
0
 10
15.842343
 20
604.303650
  0
VERTEX
  8
0
 10
17.133984
 20
603.912415
  0
VERTEX
  8
0
 10
18.518358
 20
603.467407
  0
VERTEX
  8
0
 10
21.419062
 20
602.477539
  0
VERTEX
  8
0
 10
24.362499
 20
601.418213
  0
VERTEX
  8
0
 10
33.803593
 20
597.880066
  0
VERTEX
  8
0
 10
37.473904
 20
596.531189
  0
VERTEX
  8
0
 10
40.365860
 20
595.514893
  0
VERTEX
  8
0
 10
41.952263
 20
594.989136
  0
VERTEX
  8
0
 10
42.945313
 20
594.680847
  0
VERTEX
  8
0
 10
43.898670
 20
594.407593
  0
VERTEX
  8
0
 10
44.822266
 20
594.170532
  0
VERTEX
  8
0
 10
45.726406
 20
593.971008
  0
VERTEX
  8
0
 10
46.621250
 20
593.809937
  0
VERTEX
  8
0
 10
47.517109
 20
593.688477
  0
VERTEX
  8
0
 10
48.423985
 20
593.607849
  0
VERTEX
  8
0
 10
49.352264
 20
593.569458
  0
VERTEX
  8
0
 10
49.827499
 20
593.566345
  0
VERTEX
  8
0
 10
50.802891
 20
593.593323
  0
VERTEX
  8
0
 10
51.303905
 20
593.623657
  0
VERTEX
  8
0
 10
52.333984
 20
593.719299
  0
VERTEX
  8
0
 10
53.404140
 20
593.862549
  0
VERTEX
  8
0
 10
54.516953
 20
594.055237
  0
VERTEX
  8
0
 10
55.675545
 20
594.298523
  0
VERTEX
  8
0
 10
56.272812
 20
594.439575
  0
VERTEX
  8
0
 10
57.505077
 20
594.761963
  0
VERTEX
  8
0
 10
58.789921
 20
595.138794
  0
VERTEX
  8
0
 10
60.130077
 20
595.571655
  0
VERTEX
  8
0
 10
62.231091
 20
596.314880
  0
VERTEX
  8
0
 10
64.405548
 20
597.142883
  0
VERTEX
  8
0
 10
66.612267
 20
598.023499
  0
VERTEX
  8
0
 10
72.343277
 20
600.382751
  0
VERTEX
  8
0
 10
74.966797
 20
601.442078
  0
VERTEX
  8
0
 10
78.610626
 20
602.868347
  0
VERTEX
  8
0
 10
83.170151
 20
604.602905
  0
SEQEND
  8
0
  0
POLYLINE
  8
0
  0
VERTEX
  8
0
 10
12.900000
 20
583.779602
  0
VERTEX
  8
0
 10
17.003046
 20
594.744446
  0
SEQEND
  8
0
  0
POLYLINE
  8
0
  0
VERTEX
  8
0
 10
21.272499
 20
568.002747
  0
VERTEX
  8
0
 10
24.131172
 20
572.915039
  0
SEQEND
  8
0
  0
POLYLINE
  8
0
  0
VERTEX
  8
0
 10
32.078907
 20
590.257385
  0
VERTEX
  8
0
 10
33.680626
 20
594.593506
  0
SEQEND
  8
0
  0
POLYLINE
  8
0
  0
VERTEX
  8
0
 10
41.837185
 20
480.203186
  0
VERTEX
  8
0
 10
33.166405
 20
484.445313
  0
SEQEND
  8
0
  0
POLYLINE
  8
0
  0
VERTEX
  8
0
 10
58.097500
 20
530.558411
  0
VERTEX
  8
0
 10
48.263985
 20
535.603271
  0
SEQEND
  8
0
  0
POLYLINE
  8
0
  0
VERTEX
  8
0
 10
44.488125
 20
460.194214
  0
VERTEX
  8
0
 10
47.887188
 20
470.414276
  0
VERTEX
  8
0
 10
50.277576
 20
477.710449
  0
VERTEX
  8
0
 10
51.970154
 20
482.958984
  0
VERTEX
  8
0
 10
56.192810
 20
496.182404
  0
VERTEX
  8
0
 10
58.854919
 20
504.401642
  0
VERTEX
  8
0
 10
61.182110
 20
511.435303
  0
VERTEX
  8
0
 10
64.303360
 20
520.647339
  0
VERTEX
  8
0
 10
66.217812
 20
526.196777
  0
VERTEX
  8
0
 10
68.110542
 20
531.614502
  0
VERTEX
  8
0
 10
69.937737
 20
536.779419
  0
VERTEX
  8
0
 10
72.197731
 20
543.064148
  0
VERTEX
  8
0
 10
73.730156
 20
547.246460
  0
VERTEX
  8
0
 10
75.593513
 20
552.237732
  0
VERTEX
  8
0
 10
77.306328
 20
556.739685
  0
VERTEX
  8
0
 10
79.725235
 20
563.003174
  0
SEQEND
  8
0
  0
POLYLINE
  8
0
  0
VERTEX
  8
0
 10
21.324842
 20
569.001465
  0
VERTEX
  8
0
 10
20.938593
 20
568.945374
  0
VERTEX
  8
0
 10
20.603281
 20
568.745850
  0
VERTEX
  8
0
 10
20.369843
 20
568.433167
  0
VERTEX
  8
0
 10
20.273829
 20
568.055054
  0
VERTEX
  8
0
 10
20.329765
 20
567.668945
  0
VERTEX
  8
0
 10
20.529219
 20
567.333679
  0
VERTEX
  8
0
 10
20.841875
 20
567.100220
  0
VERTEX
  8
0
 10
21.220156
 20
567.004150
  0
VERTEX
  8
0
 10
21.606249
 20
567.060059
  0
VERTEX
  8
0
 10
21.941563
 20
567.259583
  0
VERTEX
  8
0
 10
22.174999
 20
567.572266
  0
VERTEX
  8
0
 10
22.271093
 20
567.950378
  0
VERTEX
  8
0
 10
22.215078
 20
568.336487
  0
VERTEX
  8
0
 10
22.015547
 20
568.671936
  0
VERTEX
  8
0
 10
21.702969
 20
568.905396
  0
VERTEX
  8
0
 10
21.324842
 20
569.001465
  0
SEQEND
  8
0
  0
POLYLINE
  8
0
  0
VERTEX
  8
0
 10
24.183516
 20
573.913635
  0
VERTEX
  8
0
 10
23.797421
 20
573.857544
  0
VERTEX
  8
0
 10
23.462109
 20
573.658020
  0
VERTEX
  8
0
 10
23.228672
 20
573.345520
  0
VERTEX
  8
0
 10
23.132578
 20
572.967407
  0
VERTEX
  8
0
 10
23.188593
 20
572.581177
  0
VERTEX
  8
0
 10
23.388046
 20
572.245850
  0
VERTEX
  8
0
 10
23.700703
 20
572.012390
  0
VERTEX
  8
0
 10
24.078905
 20
571.916443
  0
VERTEX
  8
0
 10
24.465078
 20
571.972412
  0
VERTEX
  8
0
 10
24.800312
 20
572.171814
  0
VERTEX
  8
0
 10
25.033827
 20
572.484436
  0
VERTEX
  8
0
 10
25.129843
 20
572.862732
  0
VERTEX
  8
0
 10
25.073906
 20
573.248840
  0
VERTEX
  8
0
 10
24.874374
 20
573.584106
  0
VERTEX
  8
0
 10
24.561796
 20
573.817566
  0
VERTEX
  8
0
 10
24.183516
 20
573.913635
  0
SEQEND
  8
0
  0
POLYLINE
  8
0
  0
VERTEX
  8
0
 10
32.131248
 20
591.256165
  0
VERTEX
  8
0
 10
31.745077
 20
591.200073
  0
VERTEX
  8
0
 10
31.409765
 20
591.000671
  0
VERTEX
  8
0
 10
31.176249
 20
590.688049
  0
VERTEX
  8
0
 10
31.080235
 20
590.309753
  0
VERTEX
  8
0
 10
31.136171
 20
589.923645
  0
VERTEX
  8
0
 10
31.335703
 20
589.588318
  0
VERTEX
  8
0
 10
31.648359
 20
589.354919
  0
VERTEX
  8
0
 10
32.026562
 20
589.258789
  0
VERTEX
  8
0
 10
32.412655
 20
589.314880
  0
VERTEX
  8
0
 10
32.748047
 20
589.514282
  0
VERTEX
  8
0
 10
32.981483
 20
589.826965
  0
VERTEX
  8
0
 10
33.077499
 20
590.205078
  0
VERTEX
  8
0
 10
33.021561
 20
590.591309
  0
VERTEX
  8
0
 10
32.822029
 20
590.926636
  0
VERTEX
  8
0
 10
32.509373
 20
591.160095
  0
VERTEX
  8
0
 10
32.131248
 20
591.256165
  0
SEQEND
  8
0
  0
POLYLINE
  8
0
  0
VERTEX
  8
0
 10
33.732967
 20
595.592224
  0
VERTEX
  8
0
 10
33.346798
 20
595.536133
  0
VERTEX
  8
0
 10
33.011482
 20
595.336609
  0
VERTEX
  8
0
 10
32.778046
 20
595.023987
  0
VERTEX
  8
0
 10
32.682030
 20
594.645874
  0
VERTEX
  8
0
 10
32.737968
 20
594.259766
  0
VERTEX
  8
0
 10
32.937420
 20
593.924255
  0
VERTEX
  8
0
 10
33.250076
 20
593.690979
  0
VERTEX
  8
0
 10
33.628357
 20
593.594910
  0
VERTEX
  8
0
 10
34.014454
 20
593.650818
  0
VERTEX
  8
0
 10
34.349686
 20
593.850403
  0
VERTEX
  8
0
 10
34.583202
 20
594.163025
  0
VERTEX
  8
0
 10
34.679295
 20
594.541138
  0
VERTEX
  8
0
 10
34.623280
 20
594.927429
  0
VERTEX
  8
0
 10
34.423748
 20
595.262573
  0
VERTEX
  8
0
 10
34.111172
 20
595.496155
  0
VERTEX
  8
0
 10
33.732967
 20
595.592224
  0
SEQEND
  8
0
  0
POLYLINE
  8
0
  0
VERTEX
  8
0
 10
13.004609
 20
585.776794
  0
VERTEX
  8
0
 10
12.382343
 20
585.711487
  0
VERTEX
  8
0
 10
11.810703
 20
585.457092
  0
VERTEX
  8
0
 10
11.345703
 20
585.038330
  0
VERTEX
  8
0
 10
11.032812
 20
584.496460
  0
VERTEX
  8
0
 10
10.902734
 20
583.884277
  0
VERTEX
  8
0
 10
10.968124
 20
583.262085
  0
VERTEX
  8
0
 10
11.222656
 20
582.690369
  0
VERTEX
  8
0
 10
11.641328
 20
582.225403
  0
VERTEX
  8
0
 10
12.183203
 20
581.912537
  0
VERTEX
  8
0
 10
12.795312
 20
581.782410
  0
VERTEX
  8
0
 10
13.417656
 20
581.847900
  0
VERTEX
  8
0
 10
13.989219
 20
582.102234
  0
VERTEX
  8
0
 10
14.454296
 20
582.520996
  0
VERTEX
  8
0
 10
14.767109
 20
583.062866
  0
VERTEX
  8
0
 10
14.897265
 20
583.674927
  0
VERTEX
  8
0
 10
14.831797
 20
584.297424
  0
VERTEX
  8
0
 10
14.577343
 20
584.868958
  0
VERTEX
  8
0
 10
14.158593
 20
585.333984
  0
VERTEX
  8
0
 10
13.616718
 20
585.646790
  0
VERTEX
  8
0
 10
13.004609
 20
585.776794
  0
SEQEND
  8
0
  0
POLYLINE
  8
0
  0
VERTEX
  8
0
 10
17.107735
 20
596.741638
  0
VERTEX
  8
0
 10
16.485390
 20
596.676331
  0
VERTEX
  8
0
 10
15.913828
 20
596.421814
  0
VERTEX
  8
0
 10
15.448750
 20
596.003174
  0
VERTEX
  8
0
 10
15.135859
 20
595.461182
  0
VERTEX
  8
0
 10
15.005781
 20
594.849121
  0
VERTEX
  8
0
 10
15.071172
 20
594.226807
  0
VERTEX
  8
0
 10
15.325703
 20
593.655090
  0
VERTEX
  8
0
 10
15.744452
 20
593.190063
  0
VERTEX
  8
0
 10
16.286327
 20
592.877258
  0
VERTEX
  8
0
 10
16.898359
 20
592.747070
  0
VERTEX
  8
0
 10
17.520702
 20
592.812561
  0
VERTEX
  8
0
 10
18.092266
 20
593.067078
  0
VERTEX
  8
0
 10
18.557343
 20
593.485718
  0
VERTEX
  8
0
 10
18.870234
 20
594.027710
  0
VERTEX
  8
0
 10
19.000313
 20
594.639771
  0
VERTEX
  8
0
 10
18.934921
 20
595.262085
  0
VERTEX
  8
0
 10
18.680389
 20
595.833801
  0
VERTEX
  8
0
 10
18.261641
 20
596.298645
  0
VERTEX
  8
0
 10
17.719765
 20
596.611633
  0
VERTEX
  8
0
 10
17.107735
 20
596.741638
  0
SEQEND
  8
0
  0
POLYLINE
  8
0
  0
VERTEX
  8
0
 10
17.215078
 20
717.709839
  0
VERTEX
  8
0
 10
16.975546
 20
709.515686
  0
VERTEX
  8
0
 10
16.840937
 20
704.012573
  0
VERTEX
  8
0
 10
16.805624
 20
701.100403
  0
VERTEX
  8
0
 10
16.833281
 20
698.373840
  0
VERTEX
  8
0
 10
16.891796
 20
696.854919
  0
VERTEX
  8
0
 10
16.952108
 20
695.899963
  0
VERTEX
  8
0
 10
17.030155
 20
694.993713
  0
VERTEX
  8
0
 10
17.178984
 20
693.724854
  0
VERTEX
  8
0
 10
17.298046
 20
692.938416
  0
VERTEX
  8
0
 10
17.504375
 20
691.846863
  0
VERTEX
  8
0
 10
17.659140
 20
691.177185
  0
VERTEX
  8
0
 10
17.915155
 20
690.258179
  0
VERTEX
  8
0
 10
18.197109
 20
689.440552
  0
VERTEX
  8
0
 10
18.399765
 20
688.947388
  0
VERTEX
  8
0
 10
18.616249
 20
688.488831
  0
VERTEX
  8
0
 10
18.971718
 20
687.850586
  0
VERTEX
  8
0
 10
19.232344
 20
687.448608
  0
VERTEX
  8
0
 10
19.514296
 20
687.057190
  0
VERTEX
  8
0
 10
20.150860
 20
686.279846
  0
VERTEX
  8
0
 10
20.896719
 20
685.466614
  0
VERTEX
  8
0
 10
21.730234
 20
684.610291
  0
VERTEX
  8
0
 10
23.808359
 20
682.533569
  0
VERTEX
  8
0
 10
24.326172
 20
681.996765
  0
VERTEX
  8
0
 10
24.764843
 20
681.514465
  0
VERTEX
  8
0
 10
25.247030
 20
680.919983
  0
VERTEX
  8
0
 10
25.549530
 20
680.481018
  0
VERTEX
  8
0
 10
25.816328
 20
680.022705
  0
VERTEX
  8
0
 10
26.061327
 20
679.522461
  0
VERTEX
  8
0
 10
26.377655
 20
678.750061
  0
VERTEX
  8
0
 10
26.714453
 20
677.800476
  0
VERTEX
  8
0
 10
28.567656
 20
672.161133
  0
VERTEX
  8
0
 10
31.015156
 20
665.006409
  0
VERTEX
  8
0
 10
33.002186
 20
659.344360
  0
VERTEX
  8
0
 10
34.504688
 20
655.191528
  0
VERTEX
  8
0
 10
35.263985
 20
653.160583
  0
VERTEX
  8
0
 10
36.031406
 20
651.165222
  0
VERTEX
  8
0
 10
37.333984
 20
647.930481
  0
VERTEX
  8
0
 10
38.132732
 20
646.053955
  0
VERTEX
  8
0
 10
38.673435
 20
644.834351
  0
VERTEX
  8
0
 10
39.776951
 20
642.480225
  0
VERTEX
  8
0
 10
40.340858
 20
641.350281
  0
VERTEX
  8
0
 10
40.913593
 20
640.254578
  0
VERTEX
  8
0
 10
41.495701
 20
639.195374
  0
VERTEX
  8
0
 10
42.086796
 20
638.174622
  0
VERTEX
  8
0
 10
42.683983
 20
637.193420
  0
VERTEX
  8
0
 10
43.582970
 20
635.797791
  0
VERTEX
  8
0
 10
44.178749
 20
634.919434
  0
VERTEX
  8
0
 10
45.057812
 20
633.682190
  0
VERTEX
  8
0
 10
45.907967
 20
632.544067
  0
VERTEX
  8
0
 10
46.716484
 20
631.507935
  0
VERTEX
  8
0
 10
47.475311
 20
630.573975
  0
VERTEX
  8
0
 10
48.195858
 20
629.730591
  0
VERTEX
  8
0
 10
48.894375
 20
628.963562
  0
VERTEX
  8
0
 10
49.587185
 20
628.258362
  0
VERTEX
  8
0
 10
50.290310
 20
627.600525
  0
VERTEX
  8
0
 10
51.020077
 20
626.975708
  0
VERTEX
  8
0
 10
51.791092
 20
626.373169
  0
VERTEX
  8
0
 10
52.332344
 20
625.985596
  0
VERTEX
  8
0
 10
53.190544
 20
625.431091
  0
VERTEX
  8
0
 10
53.796562
 20
625.082581
  0
VERTEX
  8
0
 10
54.432030
 20
624.753662
  0
VERTEX
  8
0
 10
55.099140
 20
624.446655
  0
VERTEX
  8
0
 10
55.800076
 20
624.163635
  0
VERTEX
  8
0
 10
56.536873
 20
623.907227
  0
VERTEX
  8
0
 10
57.310623
 20
623.678955
  0
VERTEX
  8
0
 10
58.118748
 20
623.479309
  0
VERTEX
  8
0
 10
58.957577
 20
623.307861
  0
VERTEX
  8
0
 10
59.823593
 20
623.164673
  0
VERTEX
  8
0
 10
60.713047
 20
623.049438
  0
VERTEX
  8
0
 10
61.622578
 20
622.962158
  0
VERTEX
  8
0
 10
62.548359
 20
622.902466
  0
VERTEX
  8
0
 10
63.959843
 20
622.864685
  0
VERTEX
  8
0
 10
64.910782
 20
622.873474
  0
VERTEX
  8
0
 10
65.864845
 20
622.909424
  0
VERTEX
  8
0
 10
66.817574
 20
622.971924
  0
VERTEX
  8
0
 10
68.233826
 20
623.114502
  0
VERTEX
  8
0
 10
69.162651
 20
623.241455
  0
VERTEX
  8
0
 10
70.073982
 20
623.393677
  0
VERTEX
  8
0
 10
70.962891
 20
623.570435
  0
VERTEX
  8
0
 10
71.824997
 20
623.771484
  0
VERTEX
  8
0
 10
72.655624
 20
623.996338
  0
VERTEX
  8
0
 10
73.451172
 20
624.244446
  0
VERTEX
  8
0
 10
74.212265
 20
624.515381
  0
VERTEX
  8
0
 10
74.940620
 20
624.808350
  0
VERTEX
  8
0
 10
75.637886
 20
625.122742
  0
VERTEX
  8
0
 10
76.305779
 20
625.457825
  0
VERTEX
  8
0
 10
76.946014
 20
625.812805
  0
VERTEX
  8
0
 10
77.858360
 20
626.381714
  0
VERTEX
  8
0
 10
78.437027
 20
626.784119
  0
VERTEX
  8
0
 10
79.265236
 20
627.421448
  0
VERTEX
  8
0
 10
79.795311
 20
627.871948
  0
VERTEX
  8
0
 10
80.312263
 20
628.347351
  0
VERTEX
  8
0
 10
80.820000
 20
628.851074
  0
VERTEX
  8
0
 10
81.322342
 20
629.386841
  0
VERTEX
  8
0
 10
81.823120
 20
629.958496
  0
VERTEX
  8
0
 10
82.579765
 20
630.891052
  0
VERTEX
  8
0
 10
83.093437
 20
631.568176
  0
VERTEX
  8
0
 10
83.886406
 20
632.675171
  0
VERTEX
  8
0
 10
84.701561
 20
633.888245
  0
VERTEX
  8
0
 10
85.250778
 20
634.750610
  0
VERTEX
  8
0
 10
85.799919
 20
635.652100
  0
VERTEX
  8
0
 10
86.345314
 20
636.589355
  0
VERTEX
  8
0
 10
86.882736
 20
637.559387
  0
VERTEX
  8
0
 10
87.408279
 20
638.558472
  0
VERTEX
  8
0
 10
87.918045
 20
639.583862
  0
VERTEX
  8
0
 10
88.408203
 20
640.632202
  0
VERTEX
  8
0
 10
88.877579
 20
641.701965
  0
VERTEX
  8
0
 10
89.327263
 20
642.793640
  0
VERTEX
  8
0
 10
89.758980
 20
643.907593
  0
VERTEX
  8
0
 10
90.174294
 20
645.044312
  0
VERTEX
  8
0
 10
90.574448
 20
646.204102
  0
VERTEX
  8
0
 10
90.961014
 20
647.387573
  0
VERTEX
  8
0
 10
91.699371
 20
649.827148
  0
VERTEX
  8
0
 10
92.401482
 20
652.364502
  0
VERTEX
  8
0
 10
93.080467
 20
654.984619
  0
VERTEX
  8
0
 10
95.117729
 20
663.105774
  0
VERTEX
  8
0
 10
95.837189
 20
665.809265
  0
VERTEX
  8
0
 10
96.579292
 20
668.432007
  0
VERTEX
  8
0
 10
97.339058
 20
670.914124
  0
VERTEX
  8
0
 10
97.724060
 20
672.083679
  0
VERTEX
  8
0
 10
98.111557
 20
673.195435
  0
VERTEX
  8
0
 10
98.501015
 20
674.242310
  0
VERTEX
  8
0
 10
98.893280
 20
675.222900
  0
VERTEX
  8
0
 10
99.290932
 20
676.141541
  0
VERTEX
  8
0
 10
99.696327
 20
677.003052
  0
VERTEX
  8
0
 10
100.324295
 20
678.198364
  0
VERTEX
  8
0
 10
100.759842
 20
678.937561
  0
VERTEX
  8
0
 10
101.211716
 20
679.635925
  0
VERTEX
  8
0
 10
101.682419
 20
680.298340
  0
VERTEX
  8
0
 10
102.174454
 20
680.929443
  0
VERTEX
  8
0
 10
102.688980
 20
681.533203
  0
VERTEX
  8
0
 10
103.222656
 20
682.110046
  0
VERTEX
  8
0
 10
103.770470
 20
682.659729
  0
VERTEX
  8
0
 10
104.608826
 20
683.433044
  0
VERTEX
  8
0
 10
105.171791
 20
683.913879
  0
VERTEX
  8
0
 10
106.010704
 20
684.582703
  0
VERTEX
  8
0
 10
106.559219
 20
684.993347
  0
VERTEX
  8
0
 10
107.354294
 20
685.555481
  0
VERTEX
  8
0
 10
109.881012
 20
687.239502
  0
VERTEX
  8
0
 10
110.451172
 20
687.668762
  0
VERTEX
  8
0
 10
110.800079
 20
687.964233
  0
VERTEX
  8
0
 10
111.274918
 20
688.435242
  0
VERTEX
  8
0
 10
111.559135
 20
688.782410
  0
VERTEX
  8
0
 10
111.691635
 20
688.970581
  0
VERTEX
  8
0
 10
111.937965
 20
689.384583
  0
VERTEX
  8
0
 10
112.051796
 20
689.613342
  0
VERTEX
  8
0
 10
112.261169
 20
690.122803
  0
VERTEX
  8
0
 10
112.356796
 20
690.406616
  0
VERTEX
  8
0
 10
112.530235
 20
691.040405
  0
VERTEX
  8
0
 10
112.680389
 20
691.772949
  0
VERTEX
  8
0
 10
112.862732
 20
693.085205
  0
VERTEX
  8
0
 10
112.956635
 20
694.115784
  0
VERTEX
  8
0
 10
113.030388
 20
695.260071
  0
VERTEX
  8
0
 10
113.125465
 20
697.820740
  0
VERTEX
  8
0
 10
113.167030
 20
701.354492
  0
VERTEX
  8
0
 10
113.145782
 20
705.729126
  0
VERTEX
  8
0
 10
113.075623
 20
710.641479
  0
VERTEX
  8
0
 10
112.934372
 20
717.405151
  0
VERTEX
  8
0
 10
128.581085
 20
720.483032
  0
VERTEX
  8
0
 10
128.721634
 20
710.168823
  0
VERTEX
  8
0
 10
128.763123
 20
704.601563
  0
VERTEX
  8
0
 10
128.738907
 20
700.003662
  0
VERTEX
  8
0
 10
128.704834
 20
698.273010
  0
VERTEX
  8
0
 10
128.638428
 20
696.238098
  0
VERTEX
  8
0
 10
128.569611
 20
694.819336
  0
VERTEX
  8
0
 10
128.454758
 20
693.113708
  0
VERTEX
  8
0
 10
128.306946
 20
691.531006
  0
VERTEX
  8
0
 10
128.121567
 20
690.048645
  0
VERTEX
  8
0
 10
127.895386
 20
688.646362
  0
VERTEX
  8
0
 10
127.626717
 20
687.303589
  0
VERTEX
  8
0
 10
127.304840
 20
685.965759
  0
VERTEX
  8
0
 10
126.913048
 20
684.622253
  0
VERTEX
  8
0
 10
126.535309
 20
683.537476
  0
VERTEX
  8
0
 10
126.095306
 20
682.457336
  0
VERTEX
  8
0
 10
125.592888
 20
681.405273
  0
VERTEX
  8
0
 10
125.157730
 20
680.608093
  0
VERTEX
  8
0
 10
124.540077
 20
679.610840
  0
VERTEX
  8
0
 10
123.857811
 20
678.648132
  0
VERTEX
  8
0
 10
123.146873
 20
677.757080
  0
VERTEX
  8
0
 10
122.417496
 20
676.933960
  0
VERTEX
  8
0
 10
121.660934
 20
676.155823
  0
VERTEX
  8
0
 10
120.686089
 20
675.243042
  0
VERTEX
  8
0
 10
119.674217
 20
674.381836
  0
VERTEX
  8
0
 10
118.661484
 20
673.593018
  0
VERTEX
  8
0
 10
117.851166
 20
673.006653
  0
VERTEX
  8
0
 10
116.817497
 20
672.309692
  0
VERTEX
  8
0
 10
114.329681
 20
670.764587
  0
VERTEX
  8
0
 10
114.068275
 20
670.578369
  0
VERTEX
  8
0
 10
114.009605
 20
670.513489
  0
VERTEX
  8
0
 10
113.982887
 20
670.470764
  0
VERTEX
  8
0
 10
113.976875
 20
670.461853
  0
VERTEX
  8
0
 10
113.847343
 20
670.249573
  0
VERTEX
  8
0
 10
113.706017
 20
669.991333
  0
VERTEX
  8
0
 10
113.543510
 20
669.665039
  0
VERTEX
  8
0
 10
113.367264
 20
669.278259
  0
VERTEX
  8
0
 10
113.175156
 20
668.820374
  0
VERTEX
  8
0
 10
112.968750
 20
668.290527
  0
VERTEX
  8
0
 10
112.656876
 20
667.429077
  0
VERTEX
  8
0
 10
112.121170
 20
665.822937
  0
VERTEX
  8
0
 10
111.519058
 20
663.825439
  0
VERTEX
  8
0
 10
111.083748
 20
662.240295
  0
VERTEX
  8
0
 10
110.603592
 20
660.353943
  0
VERTEX
  8
0
 10
108.982338
 20
653.487732
  0
VERTEX
  8
0
 10
108.095306
 20
649.913086
  0
VERTEX
  8
0
 10
107.505074
 20
647.707336
  0
VERTEX
  8
0
 10
107.087730
 20
646.235352
  0
VERTEX
  8
0
 10
106.656166
 20
644.780457
  0
VERTEX
  8
0
 10
105.994141
 20
642.669434
  0
VERTEX
  8
0
 10
105.303200
 20
640.607117
  0
VERTEX
  8
0
 10
104.589607
 20
638.615540
  0
VERTEX
  8
0
 10
103.861557
 20
636.721130
  0
VERTEX
  8
0
 10
103.355545
 20
635.483276
  0
VERTEX
  8
0
 10
102.841949
 20
634.289185
  0
VERTEX
  8
0
 10
102.079918
 20
632.625061
  0
VERTEX
  8
0
 10
101.298592
 20
631.038757
  0
VERTEX
  8
0
 10
100.507339
 20
629.540039
  0
VERTEX
  8
0
 10
99.708900
 20
628.122253
  0
VERTEX
  8
0
 10
98.904297
 20
626.774780
  0
VERTEX
  8
0
 10
98.083282
 20
625.471863
  0
VERTEX
  8
0
 10
97.228828
 20
624.192810
  0
VERTEX
  8
0
 10
96.331947
 20
622.934021
  0
VERTEX
  8
0
 10
95.386330
 20
621.696289
  0
VERTEX
  8
0
 10
94.403435
 20
620.501465
  0
VERTEX
  8
0
 10
93.688828
 20
619.686707
  0
VERTEX
  8
0
 10
92.947891
 20
618.884888
  0
VERTEX
  8
0
 10
91.840073
 20
617.761536
  0
VERTEX
  8
0
 10
90.671173
 20
616.663330
  0
VERTEX
  8
0
 10
89.462807
 20
615.611572
  0
VERTEX
  8
0
 10
88.238594
 20
614.625916
  0
VERTEX
  8
0
 10
87.346169
 20
613.954529
  0
VERTEX
  8
0
 10
86.088982
 20
613.074280
  0
VERTEX
  8
0
 10
85.150703
 20
612.466187
  0
VERTEX
  8
0
 10
83.837418
 20
611.684753
  0
VERTEX
  8
0
 10
82.845230
 20
611.146790
  0
VERTEX
  8
0
 10
81.467339
 20
610.472168
  0
VERTEX
  8
0
 10
80.423828
 20
610.014771
  0
VERTEX
  8
0
 10
78.981407
 20
609.453979
  0
VERTEX
  8
0
 10
77.925545
 20
609.093628
  0
VERTEX
  8
0
 10
76.862106
 20
608.769043
  0
VERTEX
  8
0
 10
75.359215
 20
608.372009
  0
VERTEX
  8
0
 10
74.272186
 20
608.124268
  0
VERTEX
  8
0
 10
72.752342
 20
607.826843
  0
VERTEX
  8
0
 10
71.221870
 20
607.580322
  0
VERTEX
  8
0
 10
69.713043
 20
607.384216
  0
VERTEX
  8
0
 10
68.231247
 20
607.233765
  0
VERTEX
  8
0
 10
66.771797
 20
607.125000
  0
VERTEX
  8
0
 10
65.321716
 20
607.057434
  0
VERTEX
  8
0
 10
63.875546
 20
607.031799
  0
VERTEX
  8
0
 10
62.411404
 20
607.048706
  0
VERTEX
  8
0
 10
60.520702
 20
607.135132
  0
VERTEX
  8
0
 10
59.033981
 20
607.252380
  0
VERTEX
  8
0
 10
57.509373
 20
607.419800
  0
VERTEX
  8
0
 10
55.941483
 20
607.652649
  0
VERTEX
  8
0
 10
54.772888
 20
607.870667
  0
VERTEX
  8
0
 10
53.129139
 20
608.249390
  0
VERTEX
  8
0
 10
51.884842
 20
608.596497
  0
VERTEX
  8
0
 10
50.168903
 20
609.167786
  0
VERTEX
  8
0
 10
48.927811
 20
609.653198
  0
VERTEX
  8
0
 10
47.738438
 20
610.174683
  0
VERTEX
  8
0
 10
46.572811
 20
610.738708
  0
VERTEX
  8
0
 10
45.431015
 20
611.341797
  0
VERTEX
  8
0
 10
44.313828
 20
611.981140
  0
VERTEX
  8
0
 10
43.194450
 20
612.671631
  0
VERTEX
  8
0
 10
41.664295
 20
613.704346
  0
VERTEX
  8
0
 10
40.618904
 20
614.475464
  0
VERTEX
  8
0
 10
39.634529
 20
615.256226
  0
VERTEX
  8
0
 10
38.696251
 20
616.058044
  0
VERTEX
  8
0
 10
37.811794
 20
616.870544
  0
VERTEX
  8
0
 10
36.959843
 20
617.709045
  0
VERTEX
  8
0
 10
35.852657
 20
618.889099
  0
VERTEX
  8
0
 10
35.111641
 20
619.739197
  0
VERTEX
  8
0
 10
34.155937
 20
620.908325
  0
VERTEX
  8
0
 10
33.263359
 20
622.073364
  0
VERTEX
  8
0
 10
32.199219
 20
623.544067
  0
VERTEX
  8
0
 10
31.418358
 20
624.678589
  0
VERTEX
  8
0
 10
30.447733
 20
626.157593
  0
VERTEX
  8
0
 10
29.509296
 20
627.661011
  0
VERTEX
  8
0
 10
28.590467
 20
629.198425
  0
VERTEX
  8
0
 10
27.654453
 20
630.835144
  0
VERTEX
  8
0
 10
26.895311
 20
632.244446
  0
VERTEX
  8
0
 10
26.107889
 20
633.803894
  0
VERTEX
  8
0
 10
25.537109
 20
634.999573
  0
VERTEX
  8
0
 10
24.671015
 20
636.917664
  0
VERTEX
  8
0
 10
24.033125
 20
638.404968
  0
VERTEX
  8
0
 10
22.702969
 20
641.679688
  0
VERTEX
  8
0
 10
20.922890
 20
646.304382
  0
VERTEX
  8
0
 10
18.815390
 20
651.994751
  0
VERTEX
  8
0
 10
16.481171
 20
658.485229
  0
VERTEX
  8
0
 10
15.386641
 20
661.606689
  0
VERTEX
  8
0
 10
14.521796
 20
664.135132
  0
VERTEX
  8
0
 10
12.760859
 20
669.516724
  0
VERTEX
  8
0
 10
12.525469
 20
670.166931
  0
VERTEX
  8
0
 10
12.423985
 20
670.409546
  0
VERTEX
  8
0
 10
12.273594
 20
670.707825
  0
VERTEX
  8
0
 10
12.140156
 20
670.928284
  0
VERTEX
  8
0
 10
11.855469
 20
671.340820
  0
VERTEX
  8
0
 10
11.391797
 20
671.952820
  0
VERTEX
  8
0
 10
10.792969
 20
672.695984
  0
VERTEX
  8
0
 10
9.924453
 20
673.721924
  0
VERTEX
  8
0
 10
9.222500
 20
674.517883
  0
VERTEX
  8
0
 10
7.182969
 20
676.773193
  0
VERTEX
  8
0
 10
6.297656
 20
677.861328
  0
VERTEX
  8
0
 10
5.620937
 20
678.798218
  0
VERTEX
  8
0
 10
5.151562
 20
679.521545
  0
VERTEX
  8
0
 10
4.724531
 20
680.244751
  0
VERTEX
  8
0
 10
4.324609
 20
680.990845
  0
VERTEX
  8
0
 10
3.952578
 20
681.758118
  0
VERTEX
  8
0
 10
3.608359
 20
682.544983
  0
VERTEX
  8
0
 10
3.291484
 20
683.350952
  0
VERTEX
  8
0
 10
3.001719
 20
684.174805
  0
VERTEX
  8
0
 10
2.738437
 20
685.016052
  0
VERTEX
  8
0
 10
2.500469
 20
685.875244
  0
VERTEX
  8
0
 10
2.280313
 20
686.780396
  0
VERTEX
  8
0
 10
2.005781
 20
688.125549
  0
VERTEX
  8
0
 10
1.718594
 20
689.961853
  0
VERTEX
  8
0
 10
1.540781
 20
691.478760
  0
VERTEX
  8
0
 10
1.396406
 20
693.075073
  0
VERTEX
  8
0
 10
1.245469
 20
695.355774
  0
VERTEX
  8
0
 10
1.129219
 20
697.892578
  0
VERTEX
  8
0
 10
1.064219
 20
699.948364
  0
VERTEX
  8
0
 10
1.011875
 20
702.762390
  0
VERTEX
  8
0
 10
1.000000
 20
704.923889
  0
VERTEX
  8
0
 10
1.014219
 20
707.063599
  0
VERTEX
  8
0
 10
1.056406
 20
709.143982
  0
VERTEX
  8
0
 10
1.124531
 20
711.150696
  0
VERTEX
  8
0
 10
1.246250
 20
713.708130
  0
VERTEX
  8
0
 10
1.606562
 20
719.395752
  0
VERTEX
  8
0
 10
17.215078
 20
717.709839
  0
SEQEND
  8
0
  0
POLYLINE
  8
0
  0
VERTEX
  8
0
 10
120.601715
 20
718.913391
  0
VERTEX
  8
0
 10
120.722031
 20
710.084595
  0
VERTEX
  8
0
 10
120.762962
 20
704.592896
  0
VERTEX
  8
0
 10
120.739296
 20
700.103333
  0
VERTEX
  8
0
 10
120.707420
 20
698.482239
  0
VERTEX
  8
0
 10
120.644684
 20
696.562500
  0
VERTEX
  8
0
 10
120.582657
 20
695.281860
  0
VERTEX
  8
0
 10
120.479759
 20
693.754700
  0
VERTEX
  8
0
 10
120.353203
 20
692.399536
  0
VERTEX
  8
0
 10
120.201012
 20
691.182251
  0
VERTEX
  8
0
 10
120.021400
 20
690.068665
  0
VERTEX
  8
0
 10
119.812500
 20
689.024658
  0
VERTEX
  8
0
 10
119.571404
 20
688.022583
  0
VERTEX
  8
0
 10
119.290390
 20
687.059021
  0
VERTEX
  8
0
 10
119.048279
 20
686.363586
  0
VERTEX
  8
0
 10
118.775078
 20
685.692932
  0
VERTEX
  8
0
 10
118.467186
 20
685.048279
  0
VERTEX
  8
0
 10
118.240860
 20
684.633667
  0
VERTEX
  8
0
 10
117.869453
 20
684.033997
  0
VERTEX
  8
0
 10
117.462418
 20
683.459534
  0
VERTEX
  8
0
 10
117.022499
 20
682.908203
  0
VERTEX
  8
0
 10
116.552650
 20
682.378052
  0
VERTEX
  8
0
 10
116.055855
 20
681.867004
  0
VERTEX
  8
0
 10
115.356636
 20
681.212341
  0
VERTEX
  8
0
 10
114.621483
 20
680.586731
  0
VERTEX
  8
0
 10
113.857109
 20
679.991394
  0
VERTEX
  8
0
 10
113.268745
 20
679.565430
  0
VERTEX
  8
0
 10
112.469292
 20
679.026489
  0
VERTEX
  8
0
 10
109.893982
 20
677.427002
  0
VERTEX
  8
0
 10
109.180779
 20
676.918945
  0
VERTEX
  8
0
 10
108.692886
 20
676.512695
  0
VERTEX
  8
0
 10
108.392578
 20
676.226624
  0
VERTEX
  8
0
 10
108.110779
 20
675.928406
  0
VERTEX
  8
0
 10
107.845703
 20
675.617981
  0
VERTEX
  8
0
 10
107.475937
 20
675.129700
  0
VERTEX
  8
0
 10
107.245544
 20
674.789063
  0
VERTEX
  8
0
 10
106.920074
 20
674.255676
  0
VERTEX
  8
0
 10
106.613670
 20
673.695740
  0
VERTEX
  8
0
 10
106.320938
 20
673.107788
  0
VERTEX
  8
0
 10
106.037262
 20
672.485474
  0
VERTEX
  8
0
 10
105.758202
 20
671.820313
  0
VERTEX
  8
0
 10
105.479370
 20
671.104370
  0
VERTEX
  8
0
 10
105.100075
 20
670.056702
  0
VERTEX
  8
0
 10
104.495232
 20
668.243530
  0
VERTEX
  8
0
 10
103.830856
 20
666.039429
  0
VERTEX
  8
0
 10
103.349525
 20
664.286499
  0
VERTEX
  8
0
 10
102.833672
 20
662.260132
  0
VERTEX
  8
0
 10
101.206947
 20
655.370361
  0
VERTEX
  8
0
 10
100.348434
 20
651.910583
  0
VERTEX
  8
0
 10
99.792343
 20
649.832397
  0
VERTEX
  8
0
 10
99.404373
 20
648.464233
  0
VERTEX
  8
0
 10
99.004135
 20
647.115112
  0
VERTEX
  8
0
 10
98.383904
 20
645.137329
  0
VERTEX
  8
0
 10
97.743980
 20
643.227356
  0
VERTEX
  8
0
 10
97.089218
 20
641.399963
  0
VERTEX
  8
0
 10
96.424454
 20
639.669983
  0
VERTEX
  8
0
 10
95.977966
 20
638.577698
  0
VERTEX
  8
0
 10
95.529686
 20
637.535522
  0
VERTEX
  8
0
 10
94.853279
 20
636.058472
  0
VERTEX
  8
0
 10
94.171486
 20
634.674255
  0
VERTEX
  8
0
 10
93.483437
 20
633.370972
  0
VERTEX
  8
0
 10
92.788200
 20
632.136475
  0
VERTEX
  8
0
 10
92.084923
 20
630.958679
  0
VERTEX
  8
0
 10
91.371872
 20
629.827087
  0
VERTEX
  8
0
 10
90.643593
 20
628.736938
  0
VERTEX
  8
0
 10
89.893906
 20
627.684814
  0
VERTEX
  8
0
 10
89.116714
 20
626.667480
  0
VERTEX
  8
0
 10
88.305542
 20
625.681458
  0
VERTEX
  8
0
 10
87.742889
 20
625.039917
  0
VERTEX
  8
0
 10
87.160622
 20
624.409729
  0
VERTEX
  8
0
 10
86.251091
 20
623.487488
  0
VERTEX
  8
0
 10
85.304138
 20
622.597778
  0
VERTEX
  8
0
 10
84.326172
 20
621.746643
  0
VERTEX
  8
0
 10
83.324059
 20
620.939819
  0
VERTEX
  8
0
 10
82.645859
 20
620.429504
  0
VERTEX
  8
0
 10
81.618126
 20
619.709900
  0
VERTEX
  8
0
 10
80.928276
 20
619.262878
  0
VERTEX
  8
0
 10
79.883827
 20
618.641296
  0
VERTEX
  8
0
 10
79.178200
 20
618.258789
  0
VERTEX
  8
0
 10
78.100937
 20
617.731323
  0
VERTEX
  8
0
 10
77.367264
 20
617.409729
  0
VERTEX
  8
0
 10
76.238907
 20
616.971069
  0
VERTEX
  8
0
 10
75.465073
 20
616.706909
  0
VERTEX
  8
0
 10
74.671875
 20
616.464905
  0
VERTEX
  8
0
 10
73.448280
 20
616.141602
  0
VERTEX
  8
0
 10
72.615074
 20
615.951721
  0
VERTEX
  8
0
 10
71.347656
 20
615.703735
  0
VERTEX
  8
0
 10
70.069763
 20
615.497803
  0
VERTEX
  8
0
 10
68.793205
 20
615.331909
  0
VERTEX
  8
0
 10
67.529839
 20
615.203552
  0
VERTEX
  8
0
 10
66.288361
 20
615.111145
  0
VERTEX
  8
0
 10
65.064606
 20
615.054138
  0
VERTEX
  8
0
 10
63.851093
 20
615.032654
  0
VERTEX
  8
0
 10
62.640469
 20
615.046631
  0
VERTEX
  8
0
 10
61.017967
 20
615.120789
  0
VERTEX
  8
0
 10
59.785233
 20
615.218018
  0
VERTEX
  8
0
 10
58.533672
 20
615.355469
  0
VERTEX
  8
0
 10
57.263046
 20
615.544128
  0
VERTEX
  8
0
 10
56.405312
 20
615.704102
  0
VERTEX
  8
0
 10
55.103123
 20
616.004150
  0
VERTEX
  8
0
 10
54.224529
 20
616.249268
  0
VERTEX
  8
0
 10
52.891327
 20
616.693115
  0
VERTEX
  8
0
 10
51.992344
 20
617.044739
  0
VERTEX
  8
0
 10
51.088203
 20
617.441162
  0
VERTEX
  8
0
 10
50.184452
 20
617.878479
  0
VERTEX
  8
0
 10
49.287029
 20
618.352478
  0
VERTEX
  8
0
 10
48.401638
 20
618.859131
  0
VERTEX
  8
0
 10
47.533985
 20
619.394348
  0
VERTEX
  8
0
 10
46.278515
 20
620.241699
  0
VERTEX
  8
0
 10
45.480545
 20
620.830383
  0
VERTEX
  8
0
 10
44.720547
 20
621.433167
  0
VERTEX
  8
0
 10
44.002655
 20
622.046570
  0
VERTEX
  8
0
 10
43.325310
 20
622.668823
  0
VERTEX
  8
0
 10
42.684998
 20
623.298950
  0
VERTEX
  8
0
 10
41.787109
 20
624.256104
  0
VERTEX
  8
0
 10
41.225235
 20
624.900513
  0
VERTEX
  8
0
 10
40.429607
 20
625.873962
  0
VERTEX
  8
0
 10
39.680470
 20
626.851807
  0
VERTEX
  8
0
 10
38.735703
 20
628.157410
  0
VERTEX
  8
0
 10
38.058281
 20
629.141602
  0
VERTEX
  8
0
 10
37.186016
 20
630.470764
  0
VERTEX
  8
0
 10
36.336639
 20
631.831482
  0
VERTEX
  8
0
 10
35.496952
 20
633.236450
  0
VERTEX
  8
0
 10
34.649452
 20
634.718323
  0
VERTEX
  8
0
 10
33.988827
 20
635.944885
  0
VERTEX
  8
0
 10
33.289219
 20
637.330444
  0
VERTEX
  8
0
 10
32.793282
 20
638.369446
  0
VERTEX
  8
0
 10
31.993359
 20
640.140747
  0
VERTEX
  8
0
 10
31.415937
 20
641.487183
  0
VERTEX
  8
0
 10
30.142578
 20
644.622070
  0
VERTEX
  8
0
 10
28.407265
 20
649.130432
  0
VERTEX
  8
0
 10
26.330624
 20
654.737732
  0
VERTEX
  8
0
 10
24.019999
 20
661.162476
  0
VERTEX
  8
0
 10
22.946093
 20
664.224915
  0
VERTEX
  8
0
 10
22.108515
 20
666.673706
  0
VERTEX
  8
0
 10
20.325468
 20
672.122803
  0
VERTEX
  8
0
 10
19.981562
 20
673.072815
  0
VERTEX
  8
0
 10
19.695156
 20
673.757935
  0
VERTEX
  8
0
 10
19.277344
 20
674.586182
  0
VERTEX
  8
0
 10
18.860390
 20
675.275146
  0
VERTEX
  8
0
 10
18.338905
 20
676.030762
  0
VERTEX
  8
0
 10
17.696093
 20
676.879211
  0
VERTEX
  8
0
 10
16.961639
 20
677.790771
  0
VERTEX
  8
0
 10
15.978203
 20
678.952576
  0
VERTEX
  8
0
 10
15.189531
 20
679.846802
  0
VERTEX
  8
0
 10
13.256562
 20
681.984192
  0
VERTEX
  8
0
 10
12.648125
 20
682.731995
  0
VERTEX
  8
0
 10
12.223203
 20
683.320190
  0
VERTEX
  8
0
 10
11.954531
 20
683.734436
  0
VERTEX
  8
0
 10
11.697422
 20
684.169800
  0
VERTEX
  8
0
 10
11.452109
 20
684.627380
  0
VERTEX
  8
0
 10
11.219062
 20
685.108093
  0
VERTEX
  8
0
 10
10.998281
 20
685.612732
  0
VERTEX
  8
0
 10
10.790156
 20
686.142151
  0
VERTEX
  8
0
 10
10.594922
 20
686.697327
  0
VERTEX
  8
0
 10
10.412812
 20
687.279114
  0
VERTEX
  8
0
 10
10.244062
 20
687.888489
  0
VERTEX
  8
0
 10
10.088984
 20
688.526306
  0
VERTEX
  8
0
 10
9.881094
 20
689.544434
  0
VERTEX
  8
0
 10
9.646328
 20
691.045898
  0
VERTEX
  8
0
 10
9.498593
 20
692.305115
  0
VERTEX
  8
0
 10
9.372499
 20
693.699768
  0
VERTEX
  8
0
 10
9.233281
 20
695.803101
  0
VERTEX
  8
0
 10
9.123359
 20
698.202026
  0
VERTEX
  8
0
 10
9.061797
 20
700.148987
  0
VERTEX
  8
0
 10
9.011484
 20
702.858765
  0
VERTEX
  8
0
 10
9.000156
 20
704.919434
  0
VERTEX
  8
0
 10
9.013672
 20
706.955933
  0
VERTEX
  8
0
 10
9.053672
 20
708.927124
  0
VERTEX
  8
0
 10
9.118047
 20
710.825073
  0
VERTEX
  8
0
 10
9.234140
 20
713.265076
  0
VERTEX
  8
0
 10
9.568125
 20
718.535828
  0
SEQEND
  8
0
  0
POLYLINE
  8
0
  0
VERTEX
  8
0
 10
100.296013
 20
658.492188
  0
VERTEX
  8
0
 10
99.322891
 20
662.678894
  0
VERTEX
  8
0
 10
97.097031
 20
659.685059
  0
VERTEX
  8
0
 10
100.298668
 20
658.415588
  0
SEQEND
  8
0
  0
POLYLINE
  8
0
  0
VERTEX
  8
0
 10
64.381714
 20
619.857300
  0
VERTEX
  8
0
 10
63.906952
 20
619.745544
  0
VERTEX
  8
0
 10
63.511093
 20
619.460632
  0
VERTEX
  8
0
 10
63.254528
 20
619.045837
  0
VERTEX
  8
0
 10
63.176094
 20
618.564514
  0
VERTEX
  8
0
 10
63.287888
 20
618.089722
  0
VERTEX
  8
0
 10
63.572811
 20
617.693909
  0
VERTEX
  8
0
 10
63.987576
 20
617.437256
  0
VERTEX
  8
0
 10
64.468987
 20
617.358887
  0
VERTEX
  8
0
 10
64.943672
 20
617.470703
  0
VERTEX
  8
0
 10
65.339531
 20
617.755615
  0
VERTEX
  8
0
 10
65.596169
 20
618.170349
  0
VERTEX
  8
0
 10
65.674530
 20
618.651794
  0
VERTEX
  8
0
 10
65.562813
 20
619.126465
  0
VERTEX
  8
0
 10
65.277809
 20
619.522339
  0
VERTEX
  8
0
 10
64.863121
 20
619.778992
  0
VERTEX
  8
0
 10
64.381714
 20
619.857300
  0
SEQEND
  8
0
  0
POLYLINE
  8
0
  0
VERTEX
  8
0
 10
149.304535
 20
2.295469
  0
VERTEX
  8
0
 10
157.629913
 20
1.873437
  0
VERTEX
  8
0
 10
163.092972
 20
1.613281
  0
VERTEX
  8
0
 10
168.425385
 20
1.385234
  0
VERTEX
  8
0
 10
172.307495
 20
1.242969
  0
VERTEX
  8
0
 10
177.299454
 20
1.101016
  0
VERTEX
  8
0
 10
180.953903
 20
1.033437
  0
VERTEX
  8
0
 10
184.600067
 20
1.000078
  0
VERTEX
  8
0
 10
188.300156
 20
1.001875
  0
VERTEX
  8
0
 10
192.116089
 20
1.039844
  0
VERTEX
  8
0
 10
197.490936
 20
1.148281
  0
VERTEX
  8
0
 10
203.250626
 20
1.326641
  0
VERTEX
  8
0
 10
207.774918
 20
1.510703
  0
VERTEX
  8
0
 10
212.428192
 20
1.741797
  0
VERTEX
  8
0
 10
217.169128
 20
2.022969
  0
VERTEX
  8
0
 10
221.955933
 20
2.357812
  0
VERTEX
  8
0
 10
226.751877
 20
2.749609
  0
VERTEX
  8
0
 10
229.961014
 20
3.044765
  0
VERTEX
  8
0
 10
233.197968
 20
3.368750
  0
VERTEX
  8
0
 10
236.478973
 20
3.723281
  0
VERTEX
  8
0
 10
239.820068
 20
4.109922
  0
VERTEX
  8
0
 10
243.237106
 20
4.530313
  0
VERTEX
  8
0
 10
246.746475
 20
4.985859
  0
VERTEX
  8
0
 10
250.364059
 20
5.478281
  0
VERTEX
  8
0
 10
256.027802
 20
6.289297
  0
VERTEX
  8
0
 10
261.984985
 20
7.183750
  0
VERTEX
  8
0
 10
268.189301
 20
8.146250
  0
VERTEX
  8
0
 10
283.337189
 20
10.564843
  0
VERTEX
  8
0
 10
301.132172
 20
13.413047
  0
VERTEX
  8
0
 10
314.517883
 20
15.522109
  0
VERTEX
  8
0
 10
332.381775
 20
18.312656
  0
VERTEX
  8
0
 10
324.396484
 20
25.198671
  0
VERTEX
  8
0
 10
319.641724
 20
29.276014
  0
VERTEX
  8
0
 10
315.224060
 20
33.029842
  0
VERTEX
  8
0
 10
311.229614
 20
36.374374
  0
VERTEX
  8
0
 10
307.570374
 20
39.378044
  0
VERTEX
  8
0
 10
304.114532
 20
42.147888
  0
VERTEX
  8
0
 10
300.731628
 20
44.789764
  0
VERTEX
  8
0
 10
297.343750
 20
47.362888
  0
VERTEX
  8
0
 10
295.303833
 20
48.873360
  0
VERTEX
  8
0
 10
293.256958
 20
50.357342
  0
VERTEX
  8
0
 10
289.826782
 20
52.768669
  0
VERTEX
  8
0
 10
286.396790
 20
55.081093
  0
VERTEX
  8
0
 10
283.105530
 20
57.207657
  0
VERTEX
  8
0
 10
281.266785
 20
58.351170
  0
VERTEX
  8
0
 10
280.120087
 20
59.044609
  0
VERTEX
  8
0
 10
278.545135
 20
59.964764
  0
VERTEX
  8
0
 10
277.604462
 20
60.490704
  0
VERTEX
  8
0
 10
276.746643
 20
60.949688
  0
VERTEX
  8
0
 10
275.596100
 20
61.525860
  0
VERTEX
  8
0
 10
274.582245
 20
61.985153
  0
VERTEX
  8
0
 10
273.675293
 20
62.347656
  0
VERTEX
  8
0
 10
272.845306
 20
62.633358
  0
VERTEX
  8
0
 10
272.062500
 20
62.862343
  0
VERTEX
  8
0
 10
271.299683
 20
63.046326
  0
VERTEX
  8
0
 10
270.790863
 20
63.143513
  0
VERTEX
  8
0
 10
270.010376
 20
63.249218
  0
VERTEX
  8
0
 10
269.468750
 20
63.292187
  0
VERTEX
  8
0
 10
268.902344
 20
63.312187
  0
VERTEX
  8
0
 10
268.304199
 20
63.308750
  0
VERTEX
  8
0
 10
267.333191
 20
63.257889
  0
VERTEX
  8
0
 10
266.627716
 20
63.192341
  0
VERTEX
  8
0
 10
265.476013
 20
63.041405
  0
VERTEX
  8
0
 10
264.644135
 20
62.902344
  0
VERTEX
  8
0
 10
263.759460
 20
62.729450
  0
VERTEX
  8
0
 10
262.820862
 20
62.520546
  0
VERTEX
  8
0
 10
261.826874
 20
62.273045
  0
VERTEX
  8
0
 10
260.776489
 20
61.984608
  0
VERTEX
  8
0
 10
259.092255
 20
61.469921
  0
VERTEX
  8
0
 10
257.895142
 20
61.069450
  0
VERTEX
  8
0
 10
256.637573
 20
60.624531
  0
VERTEX
  8
0
 10
254.635544
 20
59.879608
  0
VERTEX
  8
0
 10
251.745468
 20
58.755310
  0
VERTEX
  8
0
 10
240.592178
 20
54.320389
  0
VERTEX
  8
0
 10
232.079056
 20
51.008282
  0
VERTEX
  8
0
 10
227.599915
 20
49.299141
  0
VERTEX
  8
0
 10
223.525223
 20
47.772655
  0
VERTEX
  8
0
 10
219.953583
 20
46.466717
  0
VERTEX
  8
0
 10
216.978821
 20
45.417030
  0
VERTEX
  8
0
 10
215.081482
 20
44.783047
  0
VERTEX
  8
0
 10
213.912186
 20
44.424141
  0
VERTEX
  8
0
 10
212.913589
 20
44.155544
  0
VERTEX
  8
0
 10
212.043350
 20
43.968437
  0
VERTEX
  8
0
 10
211.259064
 20
43.854141
  0
VERTEX
  8
0
 10
210.763123
 20
43.814060
  0
VERTEX
  8
0
 10
210.274216
 20
43.799919
  0
VERTEX
  8
0
 10
209.542175
 20
43.824139
  0
VERTEX
  8
0
 10
209.054764
 20
43.869530
  0
VERTEX
  8
0
 10
208.567490
 20
43.937656
  0
VERTEX
  8
0
 10
208.080536
 20
44.027813
  0
VERTEX
  8
0
 10
207.593506
 20
44.139454
  0
VERTEX
  8
0
 10
206.619766
 20
44.424454
  0
VERTEX
  8
0
 10
205.643982
 20
44.788982
  0
VERTEX
  8
0
 10
205.147034
 20
45.007889
  0
VERTEX
  8
0
 10
204.634140
 20
45.261093
  0
VERTEX
  8
0
 10
204.097031
 20
45.556091
  0
VERTEX
  8
0
 10
203.527969
 20
45.900467
  0
VERTEX
  8
0
 10
202.596954
 20
46.526562
  0
VERTEX
  8
0
 10
201.549286
 20
47.306953
  0
VERTEX
  8
0
 10
200.358505
 20
48.266953
  0
VERTEX
  8
0
 10
199.021484
 20
49.408985
  0
VERTEX
  8
0
 10
197.068665
 20
51.156719
  0
VERTEX
  8
0
 10
195.523117
 20
52.588982
  0
VERTEX
  8
0
 10
193.422882
 20
54.591484
  0
VERTEX
  8
0
 10
191.864685
 20
56.115623
  0
VERTEX
  8
0
 10
190.354218
 20
57.623672
  0
VERTEX
  8
0
 10
185.204376
 20
62.883827
  0
VERTEX
  8
0
 10
183.450546
 20
64.655937
  0
VERTEX
  8
0
 10
181.745224
 20
66.335548
  0
VERTEX
  8
0
 10
180.091949
 20
67.923752
  0
VERTEX
  8
0
 10
176.598831
 20
71.183044
  0
VERTEX
  8
0
 10
168.817108
 20
78.290077
  0
VERTEX
  8
0
 10
167.868744
 20
79.111481
  0
VERTEX
  8
0
 10
167.071869
 20
79.747887
  0
VERTEX
  8
0
 10
166.244064
 20
80.340469
  0
VERTEX
  8
0
 10
165.576172
 20
80.751404
  0
VERTEX
  8
0
 10
164.917969
 20
81.079376
  0
VERTEX
  8
0
 10
164.596786
 20
81.204529
  0
VERTEX
  8
0
 10
164.282104
 20
81.300156
  0
VERTEX
  8
0
 10
163.971878
 20
81.366089
  0
VERTEX
  8
0
 10
163.662567
 20
81.402420
  0
VERTEX
  8
0
 10
163.193741
 20
81.401955
  0
VERTEX
  8
0
 10
162.873199
 20
81.365387
  0
VERTEX
  8
0
 10
162.542572
 20
81.299995
  0
VERTEX
  8
0
 10
162.198593
 20
81.206093
  0
VERTEX
  8
0
 10
161.650696
 20
81.012032
  0
VERTEX
  8
0
 10
160.844208
 20
80.654999
  0
VERTEX
  8
0
 10
159.681946
 20
80.048668
  0
VERTEX
  8
0
 10
158.003128
 20
79.082108
  0
VERTEX
  8
0
 10
154.799530
 20
77.158279
  0
VERTEX
  8
0
 10
150.446243
 20
74.503044
  0
VERTEX
  8
0
 10
148.036789
 20
73.001953
  0
VERTEX
  8
0
 10
147.158203
 20
72.422966
  0
VERTEX
  8
0
 10
146.383987
 20
71.875702
  0
VERTEX
  8
0
 10
145.722107
 20
71.355309
  0
VERTEX
  8
0
 10
145.180862
 20
70.857033
  0
VERTEX
  8
0
 10
144.890076
 20
70.534370
  0
VERTEX
  8
0
 10
144.553116
 20
70.058983
  0
VERTEX
  8
0
 10
144.465469
 20
69.901405
  0
VERTEX
  8
0
 10
144.324219
 20
69.585464
  0
VERTEX
  8
0
 10
144.190857
 20
69.104530
  0
VERTEX
  8
0
 10
144.148819
 20
68.775314
  0
VERTEX
  8
0
 10
144.147110
 20
68.261559
  0
VERTEX
  8
0
 10
144.207581
 20
67.715858
  0
VERTEX
  8
0
 10
144.321091
 20
67.132813
  0
VERTEX
  8
0
 10
144.483047
 20
66.512573
  0
VERTEX
  8
0
 10
144.689301
 20
65.856247
  0
VERTEX
  8
0
 10
144.935623
 20
65.164299
  0
VERTEX
  8
0
 10
145.217972
 20
64.437653
  0
VERTEX
  8
0
 10
145.643829
 20
63.414684
  0
VERTEX
  8
0
 10
146.275146
 20
61.983669
  0
VERTEX
  8
0
 10
150.246643
 20
53.314610
  0
VERTEX
  8
0
 10
152.567032
 20
48.117889
  0
VERTEX
  8
0
 10
153.341476
 20
46.323280
  0
VERTEX
  8
0
 10
154.016251
 20
44.708515
  0
VERTEX
  8
0
 10
154.597504
 20
43.258827
  0
VERTEX
  8
0
 10
155.252182
 20
41.527657
  0
VERTEX
  8
0
 10
155.671631
 20
40.338982
  0
VERTEX
  8
0
 10
156.163116
 20
38.839375
  0
VERTEX
  8
0
 10
156.498352
 20
37.737968
  0
VERTEX
  8
0
 10
156.803284
 20
36.630547
  0
VERTEX
  8
0
 10
157.064377
 20
35.500389
  0
VERTEX
  8
0
 10
157.207260
 20
34.725937
  0
VERTEX
  8
0
 10
157.320541
 20
33.928982
  0
VERTEX
  8
0
 10
157.400070
 20
33.104454
  0
VERTEX
  8
0
 10
157.441864
 20
32.247498
  0
VERTEX
  8
0
 10
157.447342
 20
31.805311
  0
VERTEX
  8
0
 10
157.424911
 20
30.890469
  0
VERTEX
  8
0
 10
157.357880
 20
29.934530
  0
VERTEX
  8
0
 10
157.248047
 20
28.939453
  0
VERTEX
  8
0
 10
157.097656
 20
27.907499
  0
VERTEX
  8
0
 10
156.800705
 20
26.294922
  0
VERTEX
  8
0
 10
156.558044
 20
25.180079
  0
VERTEX
  8
0
 10
156.132660
 20
23.453516
  0
VERTEX
  8
0
 10
155.811172
 20
22.269531
  0
VERTEX
  8
0
 10
155.461945
 20
21.061718
  0
VERTEX
  8
0
 10
154.696640
 20
18.597813
  0
VERTEX
  8
0
 10
153.878036
 20
16.121717
  0
VERTEX
  8
0
 10
152.065460
 20
10.832891
  0
VERTEX
  8
0
 10
151.361633
 20
8.735547
  0
VERTEX
  8
0
 10
150.426865
 20
5.857578
  0
VERTEX
  8
0
 10
149.304535
 20
2.295469
  0
SEQEND
  8
0
  0
POLYLINE
  8
0
  0
VERTEX
  8
0
 10
154.533829
 20
65.037735
  0
VERTEX
  8
0
 10
165.766479
 20
69.298828
  0
SEQEND
  8
0
  0
POLYLINE
  8
0
  0
VERTEX
  8
0
 10
155.573746
 20
48.158985
  0
VERTEX
  8
0
 10
159.996948
 20
50.024841
  0
SEQEND
  8
0
  0
POLYLINE
  8
0
  0
VERTEX
  8
0
 10
177.366714
 20
59.311405
  0
VERTEX
  8
0
 10
182.097809
 20
61.606327
  0
SEQEND
  8
0
  0
POLYLINE
  8
0
  0
VERTEX
  8
0
 10
290.353210
 20
44.594296
  0
VERTEX
  8
0
 10
275.758667
 20
38.997734
  0
VERTEX
  8
0
 10
258.530853
 20
32.417732
  0
VERTEX
  8
0
 10
248.232422
 20
28.449375
  0
VERTEX
  8
0
 10
241.495224
 20
25.825859
  0
VERTEX
  8
0
 10
234.220230
 20
22.966406
  0
VERTEX
  8
0
 10
228.614288
 20
20.740625
  0
VERTEX
  8
0
 10
223.043350
 20
18.504765
  0
VERTEX
  8
0
 10
217.654373
 20
16.312344
  0
VERTEX
  8
0
 10
214.235626
 20
14.901093
  0
VERTEX
  8
0
 10
211.005234
 20
13.548203
  0
VERTEX
  8
0
 10
206.525070
 20
11.634218
  0
VERTEX
  8
0
 10
202.415237
 20
9.837031
  0
VERTEX
  8
0
 10
198.596405
 20
8.131562
  0
VERTEX
  8
0
 10
194.989212
 20
6.492969
  0
VERTEX
  8
0
 10
189.231949
 20
3.842187
  0
SEQEND
  8
0
  0
POLYLINE
  8
0
  0
VERTEX
  8
0
 10
236.755692
 20
15.190859
  0
VERTEX
  8
0
 10
234.464523
 20
10.666094
  0
VERTEX
  8
0
 10
241.925613
 20
10.942812
  0
VERTEX
  8
0
 10
236.897186
 20
15.767265
  0
SEQEND
  8
0
  0
POLYLINE
  8
0
  0
VERTEX
  8
0
 10
156.526169
 20
65.212029
  0
VERTEX
  8
0
 10
156.374847
 20
65.819214
  0
VERTEX
  8
0
 10
156.043274
 20
66.349846
  0
VERTEX
  8
0
 10
155.563904
 20
66.752106
  0
VERTEX
  8
0
 10
154.983749
 20
66.986481
  0
VERTEX
  8
0
 10
154.359528
 20
67.030151
  0
VERTEX
  8
0
 10
153.752335
 20
66.878746
  0
VERTEX
  8
0
 10
153.221710
 20
66.547188
  0
VERTEX
  8
0
 10
152.819443
 20
66.067810
  0
VERTEX
  8
0
 10
152.585068
 20
65.487656
  0
VERTEX
  8
0
 10
152.541397
 20
64.863434
  0
VERTEX
  8
0
 10
152.692810
 20
64.256248
  0
VERTEX
  8
0
 10
153.024368
 20
63.725624
  0
VERTEX
  8
0
 10
153.503754
 20
63.323437
  0
VERTEX
  8
0
 10
154.083908
 20
63.088982
  0
VERTEX
  8
0
 10
154.708115
 20
63.045391
  0
VERTEX
  8
0
 10
155.315308
 20
63.196716
  0
VERTEX
  8
0
 10
155.845932
 20
63.528278
  0
VERTEX
  8
0
 10
156.248199
 20
64.007736
  0
VERTEX
  8
0
 10
156.482574
 20
64.587814
  0
VERTEX
  8
0
 10
156.526169
 20
65.212029
  0
SEQEND
  8
0
  0
POLYLINE
  8
0
  0
VERTEX
  8
0
 10
167.758896
 20
69.473122
  0
VERTEX
  8
0
 10
167.607498
 20
70.080315
  0
VERTEX
  8
0
 10
167.275940
 20
70.611015
  0
VERTEX
  8
0
 10
166.796555
 20
71.013123
  0
VERTEX
  8
0
 10
166.216400
 20
71.247574
  0
VERTEX
  8
0
 10
165.592178
 20
71.291168
  0
VERTEX
  8
0
 10
164.985077
 20
71.139839
  0
VERTEX
  8
0
 10
164.454453
 20
70.808281
  0
VERTEX
  8
0
 10
164.052185
 20
70.328979
  0
VERTEX
  8
0
 10
163.817810
 20
69.748749
  0
VERTEX
  8
0
 10
163.774139
 20
69.124527
  0
VERTEX
  8
0
 10
163.925537
 20
68.517418
  0
VERTEX
  8
0
 10
164.257111
 20
67.986717
  0
VERTEX
  8
0
 10
164.736481
 20
67.584526
  0
VERTEX
  8
0
 10
165.316635
 20
67.350075
  0
VERTEX
  8
0
 10
165.940857
 20
67.306404
  0
VERTEX
  8
0
 10
166.547958
 20
67.457809
  0
VERTEX
  8
0
 10
167.078583
 20
67.789452
  0
VERTEX
  8
0
 10
167.480850
 20
68.268745
  0
VERTEX
  8
0
 10
167.715225
 20
68.848984
  0
VERTEX
  8
0
 10
167.758896
 20
69.473122
  0
SEQEND
  8
0
  0
POLYLINE
  8
0
  0
VERTEX
  8
0
 10
156.569992
 20
48.246170
  0
VERTEX
  8
0
 10
156.460785
 20
48.620781
  0
VERTEX
  8
0
 10
156.216553
 20
48.925076
  0
VERTEX
  8
0
 10
155.874451
 20
49.112732
  0
VERTEX
  8
0
 10
155.486633
 20
49.155231
  0
VERTEX
  8
0
 10
155.112030
 20
49.046013
  0
VERTEX
  8
0
 10
154.807724
 20
48.801796
  0
VERTEX
  8
0
 10
154.620071
 20
48.459766
  0
VERTEX
  8
0
 10
154.577576
 20
48.071873
  0
VERTEX
  8
0
 10
154.686722
 20
47.697266
  0
VERTEX
  8
0
 10
154.931015
 20
47.392967
  0
VERTEX
  8
0
 10
155.273117
 20
47.205311
  0
VERTEX
  8
0
 10
155.660934
 20
47.162811
  0
VERTEX
  8
0
 10
156.035461
 20
47.272030
  0
VERTEX
  8
0
 10
156.339844
 20
47.516251
  0
VERTEX
  8
0
 10
156.527496
 20
47.858356
  0
VERTEX
  8
0
 10
156.569992
 20
48.246170
  0
SEQEND
  8
0
  0
POLYLINE
  8
0
  0
VERTEX
  8
0
 10
160.993195
 20
50.111954
  0
VERTEX
  8
0
 10
160.883987
 20
50.486561
  0
VERTEX
  8
0
 10
160.639755
 20
50.790859
  0
VERTEX
  8
0
 10
160.297653
 20
50.978592
  0
VERTEX
  8
0
 10
159.909836
 20
51.021015
  0
VERTEX
  8
0
 10
159.535156
 20
50.911873
  0
VERTEX
  8
0
 10
159.230927
 20
50.667576
  0
VERTEX
  8
0
 10
159.043198
 20
50.325466
  0
VERTEX
  8
0
 10
159.000778
 20
49.937656
  0
VERTEX
  8
0
 10
159.109924
 20
49.563126
  0
VERTEX
  8
0
 10
159.354218
 20
49.258747
  0
VERTEX
  8
0
 10
159.696243
 20
49.071095
  0
VERTEX
  8
0
 10
160.084137
 20
49.028591
  0
VERTEX
  8
0
 10
160.458664
 20
49.137810
  0
VERTEX
  8
0
 10
160.763046
 20
49.382030
  0
VERTEX
  8
0
 10
160.950623
 20
49.724140
  0
VERTEX
  8
0
 10
160.993195
 20
50.111954
  0
SEQEND
  8
0
  0
POLYLINE
  8
0
  0
VERTEX
  8
0
 10
178.362961
 20
59.398514
  0
VERTEX
  8
0
 10
178.253830
 20
59.773125
  0
VERTEX
  8
0
 10
178.009521
 20
60.077419
  0
VERTEX
  8
0
 10
177.667496
 20
60.265156
  0
VERTEX
  8
0
 10
177.279602
 20
60.307575
  0
VERTEX
  8
0
 10
176.904999
 20
60.198437
  0
VERTEX
  8
0
 10
176.600693
 20
59.954140
  0
VERTEX
  8
0
 10
176.413040
 20
59.612030
  0
VERTEX
  8
0
 10
176.370544
 20
59.224216
  0
VERTEX
  8
0
 10
176.479767
 20
58.849686
  0
VERTEX
  8
0
 10
176.723984
 20
58.545311
  0
VERTEX
  8
0
 10
177.066086
 20
58.357655
  0
VERTEX
  8
0
 10
177.453903
 20
58.315155
  0
VERTEX
  8
0
 10
177.828506
 20
58.424374
  0
VERTEX
  8
0
 10
178.132813
 20
58.668591
  0
VERTEX
  8
0
 10
178.320465
 20
59.010700
  0
VERTEX
  8
0
 10
178.362961
 20
59.398514
  0
SEQEND
  8
0
  0
POLYLINE
  8
0
  0
VERTEX
  8
0
 10
183.093979
 20
61.693516
  0
VERTEX
  8
0
 10
182.984833
 20
62.068123
  0
VERTEX
  8
0
 10
182.740540
 20
62.372498
  0
VERTEX
  8
0
 10
182.398514
 20
62.560078
  0
VERTEX
  8
0
 10
182.010620
 20
62.602577
  0
VERTEX
  8
0
 10
181.636017
 20
62.493359
  0
VERTEX
  8
0
 10
181.331711
 20
62.249218
  0
VERTEX
  8
0
 10
181.144135
 20
61.907108
  0
VERTEX
  8
0
 10
181.101563
 20
61.519218
  0
VERTEX
  8
0
 10
181.210861
 20
61.144608
  0
VERTEX
  8
0
 10
181.455002
 20
60.840389
  0
VERTEX
  8
0
 10
181.797104
 20
60.652657
  0
VERTEX
  8
0
 10
182.184921
 20
60.610153
  0
VERTEX
  8
0
 10
182.559601
 20
60.719372
  0
VERTEX
  8
0
 10
182.863831
 20
60.963669
  0
VERTEX
  8
0
 10
183.051483
 20
61.305702
  0
VERTEX
  8
0
 10
183.093979
 20
61.693516
  0
SEQEND
  8
0
  0
POLYLINE
  8
0
  0
VERTEX
  8
0
 10
111.132027
 20
827.499878
  0
VERTEX
  8
0
 10
111.452263
 20
819.937012
  0
VERTEX
  8
0
 10
111.656715
 20
813.912231
  0
VERTEX
  8
0
 10
111.739296
 20
809.534729
  0
VERTEX
  8
0
 10
111.744217
 20
807.544067
  0
VERTEX
  8
0
 10
111.720619
 20
805.709412
  0
VERTEX
  8
0
 10
111.667343
 20
804.035156
  0
VERTEX
  8
0
 10
111.585625
 20
802.511963
  0
VERTEX
  8
0
 10
111.476791
 20
801.129883
  0
VERTEX
  8
0
 10
111.342186
 20
799.879272
  0
VERTEX
  8
0
 10
111.183044
 20
798.750122
  0
VERTEX
  8
0
 10
111.000778
 20
797.732666
  0
VERTEX
  8
0
 10
110.796562
 20
796.817017
  0
VERTEX
  8
0
 10
110.571793
 20
795.993347
  0
VERTEX
  8
0
 10
110.452110
 20
795.612976
  0
VERTEX
  8
0
 10
110.198433
 20
794.908875
  0
VERTEX
  8
0
 10
109.924294
 20
794.272949
  0
VERTEX
  8
0
 10
109.627808
 20
793.696106
  0
VERTEX
  8
0
 10
109.470619
 20
793.426941
  0
VERTEX
  8
0
 10
109.137184
 20
792.921631
  0
VERTEX
  8
0
 10
108.776718
 20
792.452637
  0
VERTEX
  8
0
 10
108.387344
 20
792.010925
  0
VERTEX
  8
0
 10
107.967262
 20
791.587402
  0
VERTEX
  8
0
 10
107.514610
 20
791.173035
  0
VERTEX
  8
0
 10
106.508514
 20
790.341064
  0
VERTEX
  8
0
 10
105.397964
 20
789.497009
  0
VERTEX
  8
0
 10
101.930855
 20
786.966919
  0
VERTEX
  8
0
 10
101.134064
 20
786.338684
  0
VERTEX
  8
0
 10
100.382339
 20
785.678833
  0
VERTEX
  8
0
 10
99.675781
 20
784.956726
  0
VERTEX
  8
0
 10
99.229843
 20
784.425659
  0
VERTEX
  8
0
 10
99.014374
 20
784.141907
  0
VERTEX
  8
0
 10
98.598671
 20
783.532166
  0
VERTEX
  8
0
 10
98.398354
 20
783.203979
  0
VERTEX
  8
0
 10
98.012810
 20
782.495056
  0
VERTEX
  8
0
 10
97.827576
 20
782.112427
  0
VERTEX
  8
0
 10
97.471016
 20
781.291077
  0
VERTEX
  8
0
 10
96.966484
 20
779.926331
  0
VERTEX
  8
0
 10
96.646873
 20
778.933655
  0
VERTEX
  8
0
 10
96.186562
 20
777.330627
  0
VERTEX
  8
0
 10
95.888985
 20
776.191467
  0
VERTEX
  8
0
 10
95.450386
 20
774.387085
  0
VERTEX
  8
0
 10
93.639839
 20
766.289429
  0
VERTEX
  8
0
 10
92.776245
 20
762.663635
  0
VERTEX
  8
0
 10
92.203979
 20
760.464355
  0
VERTEX
  8
0
 10
91.795235
 20
758.997070
  0
VERTEX
  8
0
 10
91.362732
 20
757.529968
  0
VERTEX
  8
0
 10
90.905075
 20
756.062378
  0
VERTEX
  8
0
 10
90.167969
 20
753.858582
  0
VERTEX
  8
0
 10
89.640778
 20
752.386963
  0
VERTEX
  8
0
 10
88.792580
 20
750.174133
  0
VERTEX
  8
0
 10
88.186714
 20
748.694580
  0
VERTEX
  8
0
 10
87.213745
 20
746.467407
  0
VERTEX
  8
0
 10
86.522652
 20
744.981445
  0
VERTEX
  8
0
 10
85.801247
 20
743.504822
  0
VERTEX
  8
0
 10
85.052887
 20
742.046631
  0
VERTEX
  8
0
 10
84.281090
 20
740.616394
  0
VERTEX
  8
0
 10
83.489372
 20
739.223450
  0
VERTEX
  8
0
 10
82.271713
 20
737.224182
  0
VERTEX
  8
0
 10
81.444923
 20
735.965210
  0
VERTEX
  8
0
 10
80.610313
 20
734.776245
  0
VERTEX
  8
0
 10
80.190933
 20
734.210632
  0
VERTEX
  8
0
 10
79.348747
 20
733.136963
  0
VERTEX
  8
0
 10
78.925705
 20
732.627869
  0
VERTEX
  8
0
 10
78.075623
 20
731.662659
  0
VERTEX
  8
0
 10
77.219765
 20
730.764771
  0
VERTEX
  8
0
 10
76.357651
 20
729.930237
  0
VERTEX
  8
0
 10
75.488907
 20
729.154968
  0
VERTEX
  8
0
 10
74.613121
 20
728.435059
  0
VERTEX
  8
0
 10
73.729919
 20
727.766479
  0
VERTEX
  8
0
 10
72.838745
 20
727.145203
  0
VERTEX
  8
0
 10
71.938438
 20
726.567627
  0
VERTEX
  8
0
 10
71.024918
 20
726.032349
  0
VERTEX
  8
0
 10
70.093277
 20
725.537964
  0
VERTEX
  8
0
 10
69.138596
 20
725.083496
  0
VERTEX
  8
0
 10
68.155937
 20
724.667725
  0
VERTEX
  8
0
 10
67.140388
 20
724.289612
  0
VERTEX
  8
0
 10
66.087189
 20
723.947815
  0
VERTEX
  8
0
 10
65.544846
 20
723.790283
  0
VERTEX
  8
0
 10
64.425781
 20
723.501099
  0
VERTEX
  8
0
 10
63.256950
 20
723.245422
  0
VERTEX
  8
0
 10
62.041405
 20
723.023804
  0
VERTEX
  8
0
 10
60.789532
 20
722.837708
  0
VERTEX
  8
0
 10
59.511875
 20
722.688904
  0
VERTEX
  8
0
 10
58.219296
 20
722.579041
  0
VERTEX
  8
0
 10
56.922421
 20
722.509827
  0
VERTEX
  8
0
 10
55.632030
 20
722.483032
  0
VERTEX
  8
0
 10
54.358826
 20
722.500305
  0
VERTEX
  8
0
 10
53.113438
 20
722.563354
  0
VERTEX
  8
0
 10
52.504532
 20
722.612549
  0
VERTEX
  8
0
 10
51.318748
 20
722.746765
  0
VERTEX
  8
0
 10
50.173748
 20
722.927002
  0
VERTEX
  8
0
 10
49.066250
 20
723.150940
  0
VERTEX
  8
0
 10
47.993122
 20
723.416138
  0
VERTEX
  8
0
 10
46.951092
 20
723.720398
  0
VERTEX
  8
0
 10
45.936951
 20
724.061340
  0
VERTEX
  8
0
 10
44.947578
 20
724.436523
  0
VERTEX
  8
0
 10
43.979763
 20
724.843811
  0
VERTEX
  8
0
 10
42.561329
 20
725.509766
  0
VERTEX
  8
0
 10
41.172188
 20
726.248474
  0
VERTEX
  8
0
 10
40.255779
 20
726.794373
  0
VERTEX
  8
0
 10
39.342342
 20
727.392700
  0
VERTEX
  8
0
 10
38.427891
 20
728.052002
  0
VERTEX
  8
0
 10
37.508358
 20
728.780579
  0
VERTEX
  8
0
 10
36.579685
 20
729.586853
  0
VERTEX
  8
0
 10
35.637890
 20
730.479126
  0
VERTEX
  8
0
 10
35.160858
 20
730.960205
  0
VERTEX
  8
0
 10
34.678905
 20
731.465942
  0
VERTEX
  8
0
 10
33.700703
 20
732.552490
  0
VERTEX
  8
0
 10
32.708904
 20
733.731628
  0
VERTEX
  8
0
 10
31.711172
 20
734.993042
  0
VERTEX
  8
0
 10
30.715311
 20
736.326538
  0
VERTEX
  8
0
 10
29.728905
 20
737.721863
  0
VERTEX
  8
0
 10
28.759687
 20
739.168762
  0
VERTEX
  8
0
 10
28.283905
 20
739.908264
  0
VERTEX
  8
0
 10
27.354765
 20
741.413208
  0
VERTEX
  8
0
 10
26.462030
 20
742.943970
  0
VERTEX
  8
0
 10
26.031639
 20
743.715942
  0
VERTEX
  8
0
 10
25.206093
 20
745.267639
  0
VERTEX
  8
0
 10
24.810312
 20
746.046692
  0
VERTEX
  8
0
 10
24.051249
 20
747.609924
  0
VERTEX
  8
0
 10
22.988359
 20
749.962891
  0
VERTEX
  8
0
 10
22.007813
 20
752.318787
  0
VERTEX
  8
0
 10
21.100155
 20
754.670044
  0
VERTEX
  8
0
 10
20.255859
 20
757.008789
  0
VERTEX
  8
0
 10
19.212656
 20
760.093445
  0
VERTEX
  8
0
 10
18.245781
 20
763.113647
  0
VERTEX
  8
0
 10
16.254375
 20
769.509888
  0
VERTEX
  8
0
 10
15.619687
 20
771.471558
  0
VERTEX
  8
0
 10
14.991172
 20
773.328186
  0
VERTEX
  8
0
 10
14.372578
 20
775.072693
  0
VERTEX
  8
0
 10
13.570546
 20
777.212891
  0
VERTEX
  8
0
 10
12.803750
 20
779.125854
  0
VERTEX
  8
0
 10
12.082421
 20
780.796021
  0
VERTEX
  8
0
 10
11.402656
 20
782.229797
  0
VERTEX
  8
0
 10
10.901953
 20
783.179749
  0
VERTEX
  8
0
 10
10.393281
 20
784.047791
  0
VERTEX
  8
0
 10
10.042812
 20
784.592346
  0
VERTEX
  8
0
 10
9.678359
 20
785.117554
  0
VERTEX
  8
0
 10
9.096171
 20
785.884277
  0
VERTEX
  8
0
 10
8.464063
 20
786.642883
  0
VERTEX
  8
0
 10
6.408594
 20
788.935425
  0
VERTEX
  8
0
 10
5.506484
 20
789.986450
  0
VERTEX
  8
0
 10
4.870078
 20
790.797424
  0
VERTEX
  8
0
 10
4.280703
 20
791.638733
  0
VERTEX
  8
0
 10
3.914453
 20
792.225830
  0
VERTEX
  8
0
 10
3.569531
 20
792.840820
  0
VERTEX
  8
0
 10
3.092344
 20
793.828430
  0
VERTEX
  8
0
 10
2.663437
 20
794.911621
  0
VERTEX
  8
0
 10
2.282891
 20
796.110474
  0
VERTEX
  8
0
 10
2.056094
 20
796.983337
  0
VERTEX
  8
0
 10
1.756562
 20
798.406128
  0
VERTEX
  8
0
 10
1.584219
 20
799.424988
  0
VERTEX
  8
0
 10
1.366875
 20
801.049377
  0
VERTEX
  8
0
 10
1.249687
 20
802.190979
  0
VERTEX
  8
0
 10
1.115781
 20
803.982239
  0
VERTEX
  8
0
 10
1.032500
 20
805.856689
  0
VERTEX
  8
0
 10
1.000000
 20
807.801025
  0
VERTEX
  8
0
 10
1.013281
 20
809.791016
  0
VERTEX
  8
0
 10
1.064219
 20
811.795593
  0
VERTEX
  8
0
 10
1.144922
 20
813.783630
  0
VERTEX
  8
0
 10
1.247031
 20
815.724060
  0
VERTEX
  8
0
 10
1.402656
 20
818.183167
  0
VERTEX
  8
0
 10
1.607266
 20
820.987000
  0
VERTEX
  8
0
 10
1.859375
 20
824.041016
  0
VERTEX
  8
0
 10
2.152187
 20
827.311279
  0
VERTEX
  8
0
 10
11.273359
 20
825.161621
  0
VERTEX
  8
0
 10
23.340157
 20
822.317810
  0
VERTEX
  8
0
 10
32.993591
 20
820.042725
  0
VERTEX
  8
0
 10
45.060467
 20
817.198792
  0
VERTEX
  8
0
 10
44.687889
 20
816.014099
  0
VERTEX
  8
0
 10
44.438046
 20
815.108398
  0
VERTEX
  8
0
 10
44.228123
 20
814.224854
  0
VERTEX
  8
0
 10
43.778984
 20
812.161255
  0
VERTEX
  8
0
 10
43.519295
 20
811.096802
  0
VERTEX
  8
0
 10
43.223125
 20
810.085938
  0
VERTEX
  8
0
 10
42.957733
 20
809.333191
  0
VERTEX
  8
0
 10
42.741951
 20
808.805237
  0
VERTEX
  8
0
 10
42.511795
 20
808.311157
  0
VERTEX
  8
0
 10
42.267109
 20
807.853516
  0
VERTEX
  8
0
 10
42.008282
 20
807.434692
  0
VERTEX
  8
0
 10
41.739529
 20
807.054932
  0
VERTEX
  8
0
 10
41.467812
 20
806.713501
  0
VERTEX
  8
0
 10
41.112968
 20
806.316467
  0
VERTEX
  8
0
 10
40.781639
 20
805.984131
  0
VERTEX
  8
0
 10
40.422421
 20
805.655823
  0
VERTEX
  8
0
 10
40.167263
 20
805.451294
  0
VERTEX
  8
0
 10
39.910469
 20
805.282532
  0
VERTEX
  8
0
 10
39.623592
 20
805.134460
  0
VERTEX
  8
0
 10
39.180313
 20
804.956055
  0
VERTEX
  8
0
 10
38.745388
 20
804.811462
  0
VERTEX
  8
0
 10
38.253044
 20
804.671143
  0
VERTEX
  8
0
 10
37.718513
 20
804.541565
  0
VERTEX
  8
0
 10
36.869923
 20
804.380981
  0
VERTEX
  8
0
 10
35.842735
 20
804.252319
  0
VERTEX
  8
0
 10
34.779766
 20
804.168823
  0
VERTEX
  8
0
 10
32.553204
 20
804.039917
  0
VERTEX
  8
0
 10
31.394453
 20
803.925781
  0
VERTEX
  8
0
 10
30.728983
 20
803.827271
  0
VERTEX
  8
0
 10
30.245703
 20
803.735168
  0
VERTEX
  8
0
 10
29.645077
 20
803.586060
  0
VERTEX
  8
0
 10
29.242811
 20
803.453430
  0
VERTEX
  8
0
 10
28.895155
 20
803.301880
  0
VERTEX
  8
0
 10
28.698750
 20
803.190002
  0
VERTEX
  8
0
 10
28.530155
 20
803.069824
  0
VERTEX
  8
0
 10
28.325468
 20
802.875427
  0
VERTEX
  8
0
 10
28.218437
 20
802.737244
  0
VERTEX
  8
0
 10
28.133047
 20
802.592896
  0
VERTEX
  8
0
 10
28.019688
 20
802.288025
  0
VERTEX
  8
0
 10
27.988203
 20
802.128662
  0
VERTEX
  8
0
 10
27.967655
 20
801.882568
  0
VERTEX
  8
0
 10
27.986250
 20
801.543884
  0
VERTEX
  8
0
 10
28.080078
 20
801.108276
  0
VERTEX
  8
0
 10
28.208593
 20
800.754272
  0
VERTEX
  8
0
 10
28.381874
 20
800.398987
  0
VERTEX
  8
0
 10
28.601406
 20
800.044617
  0
VERTEX
  8
0
 10
28.801327
 20
799.779419
  0
VERTEX
  8
0
 10
29.122343
 20
799.426331
  0
VERTEX
  8
0
 10
29.408983
 20
799.161621
  0
VERTEX
  8
0
 10
29.739374
 20
798.896790
  0
VERTEX
  8
0
 10
30.115623
 20
798.632080
  0
VERTEX
  8
0
 10
30.533047
 20
798.368896
  0
VERTEX
  8
0
 10
31.142656
 20
798.023499
  0
VERTEX
  8
0
 10
31.798906
 20
797.688354
  0
VERTEX
  8
0
 10
32.486561
 20
797.367737
  0
VERTEX
  8
0
 10
33.200466
 20
797.064453
  0
VERTEX
  8
0
 10
33.772968
 20
796.846375
  0
VERTEX
  8
0
 10
34.397968
 20
796.634094
  0
VERTEX
  8
0
 10
35.093906
 20
796.425659
  0
VERTEX
  8
0
 10
35.879295
 20
796.219116
  0
VERTEX
  8
0
 10
36.772655
 20
796.012268
  0
VERTEX
  8
0
 10
38.508358
 20
795.669922
  0
VERTEX
  8
0
 10
40.497341
 20
795.347168
  0
VERTEX
  8
0
 10
42.671875
 20
795.064331
  0
VERTEX
  8
0
 10
44.969685
 20
794.840698
  0
VERTEX
  8
0
 10
46.904686
 20
794.709778
  0
VERTEX
  8
0
 10
49.509060
 20
794.604675
  0
VERTEX
  8
0
 10
51.790077
 20
794.566284
  0
VERTEX
  8
0
 10
54.287029
 20
794.567505
  0
VERTEX
  8
0
 10
56.965233
 20
794.610657
  0
VERTEX
  8
0
 10
59.717731
 20
794.701538
  0
VERTEX
  8
0
 10
62.434608
 20
794.845947
  0
VERTEX
  8
0
 10
65.005859
 20
795.049500
  0
VERTEX
  8
0
 10
66.781792
 20
795.242798
  0
VERTEX
  8
0
 10
68.423279
 20
795.464294
  0
VERTEX
  8
0
 10
70.418594
 20
795.788879
  0
VERTEX
  8
0
 10
73.041954
 20
796.297974
  0
VERTEX
  8
0
 10
76.587967
 20
797.067322
  0
VERTEX
  8
0
 10
78.987030
 20
797.639099
  0
VERTEX
  8
0
 10
80.019760
 20
797.914124
  0
VERTEX
  8
0
 10
80.722885
 20
798.125793
  0
VERTEX
  8
0
 10
81.348511
 20
798.344421
  0
VERTEX
  8
0
 10
81.926094
 20
798.583557
  0
VERTEX
  8
0
 10
82.483986
 20
798.855896
  0
VERTEX
  8
0
 10
83.025230
 20
799.160706
  0
VERTEX
  8
0
 10
83.527420
 20
799.483337
  0
VERTEX
  8
0
 10
83.967110
 20
799.808594
  0
VERTEX
  8
0
 10
84.320938
 20
800.121399
  0
VERTEX
  8
0
 10
84.572342
 20
800.411011
  0
VERTEX
  8
0
 10
84.699684
 20
800.617310
  0
VERTEX
  8
0
 10
84.782814
 20
800.820007
  0
VERTEX
  8
0
 10
84.829216
 20
801.023987
  0
VERTEX
  8
0
 10
84.846329
 20
801.234436
  0
VERTEX
  8
0
 10
84.836090
 20
801.533325
  0
VERTEX
  8
0
 10
84.796486
 20
801.850708
  0
VERTEX
  8
0
 10
84.730232
 20
802.172424
  0
VERTEX
  8
0
 10
84.639526
 20
802.483337
  0
VERTEX
  8
0
 10
84.526718
 20
802.768677
  0
VERTEX
  8
0
 10
84.428589
 20
802.958313
  0
VERTEX
  8
0
 10
84.317657
 20
803.127869
  0
VERTEX
  8
0
 10
84.192345
 20
803.279724
  0
VERTEX
  8
0
 10
84.051010
 20
803.416565
  0
VERTEX
  8
0
 10
83.892029
 20
803.540771
  0
VERTEX
  8
0
 10
83.649918
 20
803.691223
  0
VERTEX
  8
0
 10
83.440155
 20
803.794678
  0
VERTEX
  8
0
 10
83.104294
 20
803.918518
  0
VERTEX
  8
0
 10
82.796799
 20
803.999268
  0
VERTEX
  8
0
 10
82.429764
 20
804.068420
  0
VERTEX
  8
0
 10
81.992813
 20
804.124756
  0
VERTEX
  8
0
 10
81.087502
 20
804.190247
  0
VERTEX
  8
0
 10
78.694527
 20
804.300476
  0
VERTEX
  8
0
 10
77.275856
 20
804.402954
  0
VERTEX
  8
0
 10
76.380547
 20
804.493835
  0
VERTEX
  8
0
 10
75.480545
 20
804.607483
  0
VERTEX
  8
0
 10
74.040314
 20
804.847107
  0
VERTEX
  8
0
 10
73.254372
 20
805.020386
  0
VERTEX
  8
0
 10
72.778908
 20
805.148193
  0
VERTEX
  8
0
 10
72.350937
 20
805.285706
  0
VERTEX
  8
0
 10
71.971870
 20
805.432251
  0
VERTEX
  8
0
 10
71.637032
 20
805.587036
  0
VERTEX
  8
0
 10
71.206642
 20
805.832458
  0
VERTEX
  8
0
 10
70.847733
 20
806.091125
  0
VERTEX
  8
0
 10
70.543510
 20
806.359680
  0
VERTEX
  8
0
 10
70.194061
 20
806.727661
  0
VERTEX
  8
0
 10
69.877892
 20
807.106445
  0
VERTEX
  8
0
 10
69.583046
 20
807.521484
  0
VERTEX
  8
0
 10
69.372032
 20
807.875366
  0
VERTEX
  8
0
 10
69.099060
 20
808.429932
  0
VERTEX
  8
0
 10
68.897110
 20
808.925049
  0
VERTEX
  8
0
 10
68.695702
 20
809.497803
  0
VERTEX
  8
0
 10
68.498512
 20
810.136047
  0
VERTEX
  8
0
 10
68.250465
 20
811.059143
  0
VERTEX
  8
0
 10
68.081718
 20
811.782898
  0
VERTEX
  8
0
 10
67.889061
 20
812.756958
  0
VERTEX
  8
0
 10
67.774605
 20
813.473022
  0
VERTEX
  8
0
 10
67.685158
 20
814.170349
  0
VERTEX
  8
0
 10
67.596954
 20
815.077148
  0
VERTEX
  8
0
 10
67.473122
 20
817.061646
  0
VERTEX
  8
0
 10
80.171173
 20
820.109375
  0
VERTEX
  8
0
 10
94.397263
 20
823.594055
  0
VERTEX
  8
0
 10
99.679604
 20
824.873474
  0
VERTEX
  8
0
 10
105.530701
 20
826.242188
  0
VERTEX
  8
0
 10
111.132027
 20
827.499878
  0
SEQEND
  8
0
  0
POLYLINE
  8
0
  0
VERTEX
  8
0
 10
89.595390
 20
806.463806
  0
VERTEX
  8
0
 10
98.264137
 20
806.651611
  0
SEQEND
  8
0
  0
POLYLINE
  8
0
  0
VERTEX
  8
0
 10
13.079687
 20
806.244812
  0
VERTEX
  8
0
 10
21.938984
 20
806.119446
  0
SEQEND
  8
0
  0
POLYLINE
  8
0
  0
VERTEX
  8
0
 10
103.631798
 20
827.356079
  0
VERTEX
  8
0
 10
103.932266
 20
819.816772
  0
VERTEX
  8
0
 10
104.091400
 20
815.079041
  0
VERTEX
  8
0
 10
104.188980
 20
810.774231
  0
VERTEX
  8
0
 10
104.206947
 20
808.838196
  0
VERTEX
  8
0
 10
104.200233
 20
807.075195
  0
VERTEX
  8
0
 10
104.166954
 20
805.501404
  0
VERTEX
  8
0
 10
104.109688
 20
804.109436
  0
VERTEX
  8
0
 10
104.032188
 20
802.886719
  0
VERTEX
  8
0
 10
103.938278
 20
801.820374
  0
VERTEX
  8
0
 10
103.831558
 20
800.897583
  0
VERTEX
  8
0
 10
103.655777
 20
799.754700
  0
VERTEX
  8
0
 10
103.472496
 20
798.862854
  0
VERTEX
  8
0
 10
103.294136
 20
798.179016
  0
VERTEX
  8
0
 10
103.120155
 20
797.660034
  0
VERTEX
  8
0
 10
102.930153
 20
797.263000
  0
VERTEX
  8
0
 10
102.701950
 20
796.945007
  0
VERTEX
  8
0
 10
102.413361
 20
796.663025
  0
VERTEX
  8
0
 10
101.896324
 20
796.268982
  0
VERTEX
  8
0
 10
100.037888
 20
794.957092
  0
VERTEX
  8
0
 10
98.951324
 20
794.167969
  0
VERTEX
  8
0
 10
97.118439
 20
792.769775
  0
VERTEX
  8
0
 10
96.141953
 20
791.977234
  0
VERTEX
  8
0
 10
95.481407
 20
791.406006
  0
VERTEX
  8
0
 10
94.820625
 20
790.793335
  0
VERTEX
  8
0
 10
94.166092
 20
790.133057
  0
VERTEX
  8
0
 10
93.524063
 20
789.418823
  0
VERTEX
  8
0
 10
93.209686
 20
789.039490
  0
VERTEX
  8
0
 10
92.598434
 20
788.232788
  0
VERTEX
  8
0
 10
92.303047
 20
787.803833
  0
VERTEX
  8
0
 10
91.736870
 20
786.890686
  0
VERTEX
  8
0
 10
91.467575
 20
786.404907
  0
VERTEX
  8
0
 10
90.959061
 20
785.373840
  0
VERTEX
  8
0
 10
90.487892
 20
784.269104
  0
VERTEX
  8
0
 10
90.264999
 20
783.691833
  0
VERTEX
  8
0
 10
89.842575
 20
782.492493
  0
VERTEX
  8
0
 10
89.447655
 20
781.240295
  0
VERTEX
  8
0
 10
88.898750
 20
779.281250
  0
VERTEX
  8
0
 10
88.556015
 20
777.933350
  0
VERTEX
  8
0
 10
88.067184
 20
775.869507
  0
VERTEX
  8
0
 10
86.513901
 20
768.863647
  0
VERTEX
  8
0
 10
85.698120
 20
765.353088
  0
VERTEX
  8
0
 10
84.985939
 20
762.565918
  0
VERTEX
  8
0
 10
84.602341
 20
761.183838
  0
VERTEX
  8
0
 10
84.198120
 20
759.809509
  0
VERTEX
  8
0
 10
83.550781
 20
757.761169
  0
VERTEX
  8
0
 10
83.090157
 20
756.403198
  0
VERTEX
  8
0
 10
82.604996
 20
755.050598
  0
VERTEX
  8
0
 10
82.094139
 20
753.702637
  0
VERTEX
  8
0
 10
81.277267
 20
751.687744
  0
VERTEX
  8
0
 10
80.697189
 20
750.348206
  0
VERTEX
  8
0
 10
80.088432
 20
749.012329
  0
VERTEX
  8
0
 10
79.454376
 20
747.687561
  0
VERTEX
  8
0
 10
78.799057
 20
746.382629
  0
VERTEX
  8
0
 10
78.126877
 20
745.106567
  0
VERTEX
  8
0
 10
77.096329
 20
743.265930
  0
VERTEX
  8
0
 10
76.400543
 20
742.100769
  0
VERTEX
  8
0
 10
75.702812
 20
740.995544
  0
VERTEX
  8
0
 10
74.661720
 20
739.469543
  0
VERTEX
  8
0
 10
74.318199
 20
739.000122
  0
VERTEX
  8
0
 10
73.637032
 20
738.120361
  0
VERTEX
  8
0
 10
72.962891
 20
737.314575
  0
VERTEX
  8
0
 10
72.294685
 20
736.577393
  0
VERTEX
  8
0
 10
71.631248
 20
735.903442
  0
VERTEX
  8
0
 10
70.971558
 20
735.287170
  0
VERTEX
  8
0
 10
70.314453
 20
734.723267
  0
VERTEX
  8
0
 10
69.658905
 20
734.206299
  0
VERTEX
  8
0
 10
69.003830
 20
733.730835
  0
VERTEX
  8
0
 10
68.018906
 20
733.084290
  0
VERTEX
  8
0
 10
67.355156
 20
732.693787
  0
VERTEX
  8
0
 10
66.679451
 20
732.334290
  0
VERTEX
  8
0
 10
65.986404
 20
732.004578
  0
VERTEX
  8
0
 10
65.270699
 20
731.703491
  0
VERTEX
  8
0
 10
64.526871
 20
731.429810
  0
VERTEX
  8
0
 10
63.749687
 20
731.182434
  0
VERTEX
  8
0
 10
62.933594
 20
730.960083
  0
VERTEX
  8
0
 10
62.073437
 20
730.761597
  0
VERTEX
  8
0
 10
61.166248
 20
730.586243
  0
VERTEX
  8
0
 10
59.734764
 20
730.369019
  0
VERTEX
  8
0
 10
58.748123
 20
730.257019
  0
VERTEX
  8
0
 10
57.747578
 20
730.172974
  0
VERTEX
  8
0
 10
56.743122
 20
730.118286
  0
VERTEX
  8
0
 10
55.744999
 20
730.094604
  0
VERTEX
  8
0
 10
54.763435
 20
730.103333
  0
VERTEX
  8
0
 10
53.808437
 20
730.146057
  0
VERTEX
  8
0
 10
52.889999
 20
730.224182
  0
VERTEX
  8
0
 10
52.011406
 20
730.337585
  0
VERTEX
  8
0
 10
51.169373
 20
730.484131
  0
VERTEX
  8
0
 10
50.360310
 20
730.662109
  0
VERTEX
  8
0
 10
49.580704
 20
730.869446
  0
VERTEX
  8
0
 10
48.826954
 20
731.104187
  0
VERTEX
  8
0
 10
48.095467
 20
731.364502
  0
VERTEX
  8
0
 10
47.032265
 20
731.798584
  0
VERTEX
  8
0
 10
45.999218
 20
732.279297
  0
VERTEX
  8
0
 10
45.320702
 20
732.627930
  0
VERTEX
  8
0
 10
44.306873
 20
733.213745
  0
VERTEX
  8
0
 10
43.626797
 20
733.658997
  0
VERTEX
  8
0
 10
42.937969
 20
734.158325
  0
VERTEX
  8
0
 10
42.235779
 20
734.720703
  0
VERTEX
  8
0
 10
41.515625
 20
735.354919
  0
VERTEX
  8
0
 10
40.772812
 20
736.069763
  0
VERTEX
  8
0
 10
40.002655
 20
736.874146
  0
VERTEX
  8
0
 10
39.202656
 20
737.773987
  0
VERTEX
  8
0
 10
38.378437
 20
738.763428
  0
VERTEX
  8
0
 10
37.537891
 20
739.833557
  0
VERTEX
  8
0
 10
36.263279
 20
741.570923
  0
VERTEX
  8
0
 10
35.415623
 20
742.804443
  0
VERTEX
  8
0
 10
34.578827
 20
744.087708
  0
VERTEX
  8
0
 10
33.360779
 20
746.086914
  0
VERTEX
  8
0
 10
32.584923
 20
747.456360
  0
VERTEX
  8
0
 10
32.210468
 20
748.148987
  0
VERTEX
  8
0
 10
31.489061
 20
749.547424
  0
VERTEX
  8
0
 10
30.802187
 20
750.962097
  0
VERTEX
  8
0
 10
30.147655
 20
752.391296
  0
VERTEX
  8
0
 10
29.221640
 20
754.558350
  0
VERTEX
  8
0
 10
28.355625
 20
756.747803
  0
VERTEX
  8
0
 10
27.542109
 20
758.953552
  0
VERTEX
  8
0
 10
26.773516
 20
761.169495
  0
VERTEX
  8
0
 10
26.042265
 20
763.386536
  0
VERTEX
  8
0
 10
23.343828
 20
771.992249
  0
VERTEX
  8
0
 10
22.689140
 20
774.008484
  0
VERTEX
  8
0
 10
22.031641
 20
775.945190
  0
VERTEX
  8
0
 10
21.154766
 20
778.389526
  0
VERTEX
  8
0
 10
20.500624
 20
780.108948
  0
VERTEX
  8
0
 10
19.638672
 20
782.234619
  0
VERTEX
  8
0
 10
19.003593
 20
783.693420
  0
VERTEX
  8
0
 10
18.379843
 20
785.030762
  0
VERTEX
  8
0
 10
17.762499
 20
786.255859
  0
VERTEX
  8
0
 10
17.145079
 20
787.381531
  0
VERTEX
  8
0
 10
16.730234
 20
788.083008
  0
VERTEX
  8
0
 10
16.310390
 20
788.749756
  0
VERTEX
  8
0
 10
15.883750
 20
789.385376
  0
VERTEX
  8
0
 10
15.448437
 20
789.993896
  0
VERTEX
  8
0
 10
15.002500
 20
790.578796
  0
VERTEX
  8
0
 10
14.547656
 20
791.142334
  0
VERTEX
  8
0
 10
13.632030
 20
792.206238
  0
VERTEX
  8
0
 10
11.553515
 20
794.511780
  0
VERTEX
  8
0
 10
11.059843
 20
795.110474
  0
VERTEX
  8
0
 10
10.771953
 20
795.496155
  0
VERTEX
  8
0
 10
10.394062
 20
796.078491
  0
VERTEX
  8
0
 10
10.071250
 20
796.694519
  0
VERTEX
  8
0
 10
9.792734
 20
797.376953
  0
VERTEX
  8
0
 10
9.547734
 20
798.158264
  0
VERTEX
  8
0
 10
9.325469
 20
799.071106
  0
VERTEX
  8
0
 10
9.121094
 20
800.132629
  0
VERTEX
  8
0
 10
8.938828
 20
801.336731
  0
VERTEX
  8
0
 10
8.783828
 20
802.675232
  0
VERTEX
  8
0
 10
8.660937
 20
804.139832
  0
VERTEX
  8
0
 10
8.575391
 20
805.722534
  0
VERTEX
  8
0
 10
8.541484
 20
806.839172
  0
VERTEX
  8
0
 10
8.527109
 20
808.596008
  0
VERTEX
  8
0
 10
8.551484
 20
810.422546
  0
VERTEX
  8
0
 10
8.607734
 20
812.284058
  0
VERTEX
  8
0
 10
8.688906
 20
814.145935
  0
VERTEX
  8
0
 10
8.824062
 20
816.568970
  0
VERTEX
  8
0
 10
9.133828
 20
820.972412
  0
VERTEX
  8
0
 10
9.632813
 20
826.761963
  0
SEQEND
  8
0
  0
POLYLINE
  8
0
  0
VERTEX
  8
0
 10
56.575310
 20
794.474731
  0
VERTEX
  8
0
 10
56.575310
 20
778.338684
  0
VERTEX
  8
0
 10
56.575310
 20
770.270630
  0
VERTEX
  8
0
 10
56.575310
 20
758.168518
  0
VERTEX
  8
0
 10
56.575310
 20
742.032410
  0
VERTEX
  8
0
 10
56.575310
 20
733.964355
  0
VERTEX
  8
0
 10
56.575310
 20
721.862305
  0
SEQEND
  8
0
  0
POLYLINE
  8
0
  0
VERTEX
  8
0
 10
21.878906
 20
785.155823
  0
VERTEX
  8
0
 10
22.745077
 20
781.936707
  0
VERTEX
  8
0
 10
23.357578
 20
779.745544
  0
VERTEX
  8
0
 10
23.840858
 20
778.112305
  0
VERTEX
  8
0
 10
24.316015
 20
776.622803
  0
VERTEX
  8
0
 10
24.905468
 20
774.930359
  0
VERTEX
  8
0
 10
26.545858
 20
770.470825
  0
VERTEX
  8
0
 10
29.393202
 20
762.241150
  0
VERTEX
  8
0
 10
30.075781
 20
760.333191
  0
VERTEX
  8
0
 10
30.634375
 20
758.836182
  0
VERTEX
  8
0
 10
31.374140
 20
756.955078
  0
VERTEX
  8
0
 10
32.180470
 20
755.029297
  0
VERTEX
  8
0
 10
33.041485
 20
753.095215
  0
VERTEX
  8
0
 10
33.755779
 20
751.578674
  0
VERTEX
  8
0
 10
34.481327
 20
750.119446
  0
VERTEX
  8
0
 10
35.212265
 20
748.737244
  0
VERTEX
  8
0
 10
35.961407
 20
747.417419
  0
VERTEX
  8
0
 10
36.745937
 20
746.136841
  0
VERTEX
  8
0
 10
37.368126
 20
745.188477
  0
VERTEX
  8
0
 10
37.803047
 20
744.556641
  0
VERTEX
  8
0
 10
38.490391
 20
743.602966
  0
VERTEX
  8
0
 10
38.971874
 20
742.964111
  0
VERTEX
  8
0
 10
39.725624
 20
742.007080
  0
VERTEX
  8
0
 10
40.247341
 20
741.373474
  0
VERTEX
  8
0
 10
41.330780
 20
740.127747
  0
VERTEX
  8
0
 10
42.458828
 20
738.926636
  0
VERTEX
  8
0
 10
43.621796
 20
737.788940
  0
VERTEX
  8
0
 10
44.215233
 20
737.248840
  0
VERTEX
  8
0
 10
44.816795
 20
736.729980
  0
VERTEX
  8
0
 10
45.426640
 20
736.234131
  0
VERTEX
  8
0
 10
46.044765
 20
735.762878
  0
VERTEX
  8
0
 10
46.671326
 20
735.317871
  0
VERTEX
  8
0
 10
47.306484
 20
734.900757
  0
VERTEX
  8
0
 10
48.275391
 20
734.331177
  0
VERTEX
  8
0
 10
48.932343
 20
733.990784
  0
VERTEX
  8
0
 10
49.598125
 20
733.682556
  0
VERTEX
  8
0
 10
50.613438
 20
733.280762
  0
VERTEX
  8
0
 10
51.301407
 20
733.053345
  0
VERTEX
  8
0
 10
51.998436
 20
732.858398
  0
VERTEX
  8
0
 10
53.060623
 20
732.627075
  0
VERTEX
  8
0
 10
54.143204
 20
732.469421
  0
VERTEX
  8
0
 10
55.245937
 20
732.385559
  0
VERTEX
  8
0
 10
55.990936
 20
732.369507
  0
VERTEX
  8
0
 10
56.742344
 20
732.383789
  0
VERTEX
  8
0
 10
57.498672
 20
732.427429
  0
VERTEX
  8
0
 10
58.258671
 20
732.498840
  0
VERTEX
  8
0
 10
59.020779
 20
732.596985
  0
VERTEX
  8
0
 10
59.783825
 20
732.720581
  0
VERTEX
  8
0
 10
60.546249
 20
732.868347
  0
VERTEX
  8
0
 10
61.306873
 20
733.039124
  0
VERTEX
  8
0
 10
62.063904
 20
733.231689
  0
VERTEX
  8
0
 10
62.814842
 20
733.446228
  0
VERTEX
  8
0
 10
63.556561
 20
733.682739
  0
VERTEX
  8
0
 10
64.286407
 20
733.941467
  0
VERTEX
  8
0
 10
65.001328
 20
734.222473
  0
VERTEX
  8
0
 10
65.698433
 20
734.526062
  0
VERTEX
  8
0
 10
66.374840
 20
734.852417
  0
VERTEX
  8
0
 10
67.027580
 20
735.201538
  0
VERTEX
  8
0
 10
67.956169
 20
735.768494
  0
VERTEX
  8
0
 10
68.823593
 20
736.389343
  0
VERTEX
  8
0
 10
69.640625
 20
737.068359
  0
VERTEX
  8
0
 10
70.163200
 20
737.555481
  0
VERTEX
  8
0
 10
70.672112
 20
738.071716
  0
VERTEX
  8
0
 10
71.417732
 20
738.903625
  0
VERTEX
  8
0
 10
71.908043
 20
739.498474
  0
VERTEX
  8
0
 10
72.397026
 20
740.127075
  0
VERTEX
  8
0
 10
73.376877
 20
741.482483
  0
VERTEX
  8
0
 10
74.343124
 20
742.938293
  0
VERTEX
  8
0
 10
75.045387
 20
744.072083
  0
VERTEX
  8
0
 10
75.933907
 20
745.607971
  0
VERTEX
  8
0
 10
76.552032
 20
746.756165
  0
VERTEX
  8
0
 10
77.300308
 20
748.261169
  0
VERTEX
  8
0
 10
77.810310
 20
749.380127
  0
VERTEX
  8
0
 10
78.434761
 20
750.880310
  0
VERTEX
  8
0
 10
79.009842
 20
752.413635
  0
VERTEX
  8
0
 10
79.551094
 20
754.006409
  0
VERTEX
  8
0
 10
80.196014
 20
756.078186
  0
VERTEX
  8
0
 10
81.621948
 20
760.885193
  0
VERTEX
  8
0
 10
83.019531
 20
765.265991
  0
VERTEX
  8
0
 10
83.537338
 20
767.079895
  0
VERTEX
  8
0
 10
84.156403
 20
769.586182
  0
VERTEX
  8
0
 10
85.295464
 20
774.649658
  0
VERTEX
  8
0
 10
85.817810
 20
776.902222
  0
VERTEX
  8
0
 10
86.448517
 20
779.500366
  0
VERTEX
  8
0
 10
87.292809
 20
782.868713
  0
SEQEND
  8
0
  0
POLYLINE
  8
0
  0
VERTEX
  8
0
 10
25.734842
 20
785.776245
  0
VERTEX
  8
0
 10
27.545467
 20
780.029541
  0
VERTEX
  8
0
 10
28.166250
 20
778.132813
  0
VERTEX
  8
0
 10
29.806875
 20
773.241516
  0
VERTEX
  8
0
 10
31.415703
 20
768.077881
  0
VERTEX
  8
0
 10
31.793827
 20
766.922302
  0
VERTEX
  8
0
 10
32.196251
 20
765.764038
  0
VERTEX
  8
0
 10
32.930859
 20
763.842041
  0
VERTEX
  8
0
 10
34.515545
 20
760.010864
  0
VERTEX
  8
0
 10
34.979374
 20
758.854431
  0
VERTEX
  8
0
 10
35.421795
 20
757.691101
  0
VERTEX
  8
0
 10
36.537109
 20
754.628967
  0
VERTEX
  8
0
 10
36.960155
 20
753.534302
  0
VERTEX
  8
0
 10
37.251717
 20
752.831726
  0
VERTEX
  8
0
 10
37.554531
 20
752.155518
  0
VERTEX
  8
0
 10
38.035545
 20
751.197937
  0
VERTEX
  8
0
 10
38.547501
 20
750.301575
  0
VERTEX
  8
0
 10
39.084141
 20
749.448914
  0
VERTEX
  8
0
 10
40.969063
 20
746.697876
  0
VERTEX
  8
0
 10
42.716248
 20
744.089539
  0
VERTEX
  8
0
 10
43.338280
 20
743.234070
  0
VERTEX
  8
0
 10
43.772575
 20
742.682190
  0
VERTEX
  8
0
 10
44.460468
 20
741.894348
  0
VERTEX
  8
0
 10
44.947498
 20
741.402893
  0
VERTEX
  8
0
 10
45.457733
 20
740.941101
  0
VERTEX
  8
0
 10
46.259922
 20
740.300781
  0
VERTEX
  8
0
 10
47.097031
 20
739.718994
  0
VERTEX
  8
0
 10
47.958591
 20
739.190674
  0
VERTEX
  8
0
 10
49.127266
 20
738.560852
  0
VERTEX
  8
0
 10
50.296719
 20
738.005554
  0
VERTEX
  8
0
 10
51.457890
 20
737.521606
  0
VERTEX
  8
0
 10
52.326950
 20
737.208557
  0
VERTEX
  8
0
 10
52.907028
 20
737.024841
  0
VERTEX
  8
0
 10
53.488594
 20
736.861755
  0
VERTEX
  8
0
 10
54.072655
 20
736.720276
  0
VERTEX
  8
0
 10
54.659920
 20
736.600830
  0
VERTEX
  8
0
 10
55.548435
 20
736.464417
  0
VERTEX
  8
0
 10
56.145466
 20
736.402222
  0
VERTEX
  8
0
 10
56.745312
 20
736.362976
  0
VERTEX
  8
0
 10
57.347107
 20
736.346313
  0
VERTEX
  8
0
 10
57.949997
 20
736.352112
  0
VERTEX
  8
0
 10
58.553123
 20
736.380371
  0
VERTEX
  8
0
 10
59.155624
 20
736.430847
  0
VERTEX
  8
0
 10
59.756638
 20
736.503479
  0
VERTEX
  8
0
 10
60.355312
 20
736.598022
  0
VERTEX
  8
0
 10
60.951015
 20
736.714600
  0
VERTEX
  8
0
 10
61.543747
 20
736.854065
  0
VERTEX
  8
0
 10
62.133827
 20
737.017456
  0
VERTEX
  8
0
 10
62.721405
 20
737.206055
  0
VERTEX
  8
0
 10
63.306873
 20
737.420898
  0
VERTEX
  8
0
 10
63.890312
 20
737.663025
  0
VERTEX
  8
0
 10
64.472107
 20
737.933655
  0
VERTEX
  8
0
 10
65.052345
 20
738.233704
  0
VERTEX
  8
0
 10
65.920547
 20
738.741699
  0
VERTEX
  8
0
 10
66.496559
 20
739.119568
  0
VERTEX
  8
0
 10
67.067032
 20
739.528259
  0
VERTEX
  8
0
 10
67.905861
 20
740.198059
  0
VERTEX
  8
0
 10
68.715546
 20
740.933960
  0
VERTEX
  8
0
 10
69.485779
 20
741.734253
  0
VERTEX
  8
0
 10
69.972420
 20
742.302490
  0
VERTEX
  8
0
 10
70.434059
 20
742.897888
  0
VERTEX
  8
0
 10
70.868439
 20
743.519043
  0
VERTEX
  8
0
 10
71.470467
 20
744.490356
  0
VERTEX
  8
0
 10
71.841011
 20
745.157410
  0
VERTEX
  8
0
 10
72.354057
 20
746.175354
  0
VERTEX
  8
0
 10
72.820076
 20
747.200317
  0
VERTEX
  8
0
 10
73.376717
 20
748.550049
  0
VERTEX
  8
0
 10
73.752029
 20
749.530701
  0
VERTEX
  8
0
 10
74.212189
 20
750.801147
  0
VERTEX
  8
0
 10
75.552574
 20
754.686768
  0
VERTEX
  8
0
 10
77.137657
 20
759.119934
  0
VERTEX
  8
0
 10
77.782104
 20
761.018982
  0
VERTEX
  8
0
 10
78.246559
 20
762.502808
  0
VERTEX
  8
0
 10
78.664764
 20
763.949829
  0
VERTEX
  8
0
 10
79.141090
 20
765.721863
  0
VERTEX
  8
0
 10
79.676636
 20
767.819580
  0
SEQEND
  8
0
  0
POLYLINE
  8
0
  0
VERTEX
  8
0
 10
70.750465
 20
778.362732
  0
VERTEX
  8
0
 10
73.700470
 20
776.641907
  0
VERTEX
  8
0
 10
73.677032
 20
778.410522
  0
VERTEX
  8
0
 10
73.653595
 20
780.179138
  0
VERTEX
  8
0
 10
70.750465
 20
778.362732
  0
SEQEND
  8
0
  0
POLYLINE
  8
0
  0
VERTEX
  8
0
 10
83.139999
 20
784.130432
  0
VERTEX
  8
0
 10
82.661636
 20
784.035278
  0
VERTEX
  8
0
 10
82.256088
 20
783.764343
  0
VERTEX
  8
0
 10
81.985153
 20
783.358826
  0
VERTEX
  8
0
 10
81.889999
 20
782.880432
  0
VERTEX
  8
0
 10
81.985153
 20
782.402100
  0
VERTEX
  8
0
 10
82.256088
 20
781.996643
  0
VERTEX
  8
0
 10
82.661636
 20
781.725586
  0
VERTEX
  8
0
 10
83.139999
 20
781.630432
  0
VERTEX
  8
0
 10
83.618279
 20
781.725586
  0
VERTEX
  8
0
 10
84.023827
 20
781.996643
  0
VERTEX
  8
0
 10
84.294846
 20
782.402100
  0
VERTEX
  8
0
 10
84.389999
 20
782.880432
  0
VERTEX
  8
0
 10
84.294846
 20
783.358826
  0
VERTEX
  8
0
 10
84.023827
 20
783.764343
  0
VERTEX
  8
0
 10
83.618279
 20
784.035278
  0
VERTEX
  8
0
 10
83.139999
 20
784.130432
  0
SEQEND
  8
0
  0
POLYLINE
  8
0
  0
VERTEX
  8
0
 10
81.000465
 20
777.008179
  0
VERTEX
  8
0
 10
80.522186
 20
776.913025
  0
VERTEX
  8
0
 10
80.116638
 20
776.642090
  0
VERTEX
  8
0
 10
79.845627
 20
776.236633
  0
VERTEX
  8
0
 10
79.750465
 20
775.758179
  0
VERTEX
  8
0
 10
79.845627
 20
775.279907
  0
VERTEX
  8
0
 10
80.116638
 20
774.874329
  0
VERTEX
  8
0
 10
80.522186
 20
774.603333
  0
VERTEX
  8
0
 10
81.000465
 20
774.508179
  0
VERTEX
  8
0
 10
81.478828
 20
774.603333
  0
VERTEX
  8
0
 10
81.884377
 20
774.874329
  0
VERTEX
  8
0
 10
82.155388
 20
775.279907
  0
VERTEX
  8
0
 10
82.250465
 20
775.758179
  0
VERTEX
  8
0
 10
82.155388
 20
776.236633
  0
VERTEX
  8
0
 10
81.884377
 20
776.642090
  0
VERTEX
  8
0
 10
81.478828
 20
776.913025
  0
VERTEX
  8
0
 10
81.000465
 20
777.008179
  0
SEQEND
  8
0
  0
POLYLINE
  8
0
  0
VERTEX
  8
0
 10
56.579060
 20
729.819214
  0
VERTEX
  8
0
 10
56.100700
 20
729.724060
  0
VERTEX
  8
0
 10
55.695156
 20
729.453125
  0
VERTEX
  8
0
 10
55.424217
 20
729.047546
  0
VERTEX
  8
0
 10
55.329060
 20
728.569214
  0
VERTEX
  8
0
 10
55.424217
 20
728.090820
  0
VERTEX
  8
0
 10
55.695156
 20
727.685303
  0
VERTEX
  8
0
 10
56.100700
 20
727.414368
  0
VERTEX
  8
0
 10
56.579060
 20
727.319214
  0
VERTEX
  8
0
 10
57.057419
 20
727.414368
  0
VERTEX
  8
0
 10
57.462967
 20
727.685303
  0
VERTEX
  8
0
 10
57.733906
 20
728.090820
  0
VERTEX
  8
0
 10
57.829060
 20
728.569214
  0
VERTEX
  8
0
 10
57.733906
 20
729.047546
  0
VERTEX
  8
0
 10
57.462967
 20
729.453125
  0
VERTEX
  8
0
 10
57.057419
 20
729.724060
  0
VERTEX
  8
0
 10
56.579060
 20
729.819214
  0
SEQEND
  8
0
  0
POLYLINE
  8
0
  0
VERTEX
  8
0
 10
19.916094
 20
802.383911
  0
VERTEX
  8
0
 10
19.437735
 20
802.288757
  0
VERTEX
  8
0
 10
19.032187
 20
802.017822
  0
VERTEX
  8
0
 10
18.761250
 20
801.612244
  0
VERTEX
  8
0
 10
18.666094
 20
801.133911
  0
VERTEX
  8
0
 10
18.761250
 20
800.655518
  0
VERTEX
  8
0
 10
19.032187
 20
800.250000
  0
VERTEX
  8
0
 10
19.437735
 20
799.979065
  0
VERTEX
  8
0
 10
19.916094
 20
799.883911
  0
VERTEX
  8
0
 10
20.394453
 20
799.979065
  0
VERTEX
  8
0
 10
20.799999
 20
800.250000
  0
VERTEX
  8
0
 10
21.070936
 20
800.655518
  0
VERTEX
  8
0
 10
21.166094
 20
801.133911
  0
VERTEX
  8
0
 10
21.070936
 20
801.612244
  0
VERTEX
  8
0
 10
20.799999
 20
802.017822
  0
VERTEX
  8
0
 10
20.394453
 20
802.288757
  0
VERTEX
  8
0
 10
19.916094
 20
802.383911
  0
SEQEND
  8
0
  0
POLYLINE
  8
0
  0
VERTEX
  8
0
 10
34.313904
 20
814.516418
  0
VERTEX
  8
0
 10
33.835545
 20
814.421204
  0
VERTEX
  8
0
 10
33.430000
 20
814.150208
  0
VERTEX
  8
0
 10
33.159061
 20
813.744751
  0
VERTEX
  8
0
 10
33.063904
 20
813.266418
  0
VERTEX
  8
0
 10
33.159061
 20
812.788025
  0
VERTEX
  8
0
 10
33.430000
 20
812.382507
  0
VERTEX
  8
0
 10
33.835545
 20
812.111572
  0
VERTEX
  8
0
 10
34.313904
 20
812.016418
  0
VERTEX
  8
0
 10
34.792263
 20
812.111572
  0
VERTEX
  8
0
 10
35.197811
 20
812.382507
  0
VERTEX
  8
0
 10
35.468750
 20
812.788025
  0
VERTEX
  8
0
 10
35.563904
 20
813.266418
  0
VERTEX
  8
0
 10
35.468750
 20
813.744751
  0
VERTEX
  8
0
 10
35.197811
 20
814.150208
  0
VERTEX
  8
0
 10
34.792263
 20
814.421204
  0
VERTEX
  8
0
 10
34.313904
 20
814.516418
  0
SEQEND
  8
0
  0
POLYLINE
  8
0
  0
VERTEX
  8
0
 10
92.709999
 20
802.333008
  0
VERTEX
  8
0
 10
92.231636
 20
802.237854
  0
VERTEX
  8
0
 10
91.826088
 20
801.966919
  0
VERTEX
  8
0
 10
91.555153
 20
801.561401
  0
VERTEX
  8
0
 10
91.459999
 20
801.083008
  0
VERTEX
  8
0
 10
91.555153
 20
800.604675
  0
VERTEX
  8
0
 10
91.826088
 20
800.199097
  0
VERTEX
  8
0
 10
92.231636
 20
799.928162
  0
VERTEX
  8
0
 10
92.709999
 20
799.833008
  0
VERTEX
  8
0
 10
93.188354
 20
799.928162
  0
VERTEX
  8
0
 10
93.593903
 20
800.199097
  0
VERTEX
  8
0
 10
93.864845
 20
800.604675
  0
VERTEX
  8
0
 10
93.959999
 20
801.083008
  0
VERTEX
  8
0
 10
93.864845
 20
801.561401
  0
VERTEX
  8
0
 10
93.593903
 20
801.966919
  0
VERTEX
  8
0
 10
93.188354
 20
802.237854
  0
VERTEX
  8
0
 10
92.709999
 20
802.333008
  0
SEQEND
  8
0
  0
POLYLINE
  8
0
  0
VERTEX
  8
0
 10
76.931328
 20
815.128113
  0
VERTEX
  8
0
 10
76.452965
 20
815.032959
  0
VERTEX
  8
0
 10
76.047417
 20
814.761963
  0
VERTEX
  8
0
 10
75.776482
 20
814.356445
  0
VERTEX
  8
0
 10
75.681328
 20
813.878113
  0
VERTEX
  8
0
 10
75.776482
 20
813.399719
  0
VERTEX
  8
0
 10
76.047417
 20
812.994202
  0
VERTEX
  8
0
 10
76.452965
 20
812.723267
  0
VERTEX
  8
0
 10
76.931328
 20
812.628113
  0
VERTEX
  8
0
 10
77.409683
 20
812.723267
  0
VERTEX
  8
0
 10
77.815231
 20
812.994202
  0
VERTEX
  8
0
 10
78.086166
 20
813.399719
  0
VERTEX
  8
0
 10
78.181328
 20
813.878113
  0
VERTEX
  8
0
 10
78.086166
 20
814.356445
  0
VERTEX
  8
0
 10
77.815231
 20
814.761963
  0
VERTEX
  8
0
 10
77.409683
 20
815.032959
  0
VERTEX
  8
0
 10
76.931328
 20
815.128113
  0
SEQEND
  8
0
  0
POLYLINE
  8
0
  0
VERTEX
  8
0
 10
56.746170
 20
792.565979
  0
VERTEX
  8
0
 10
56.363514
 20
792.489929
  0
VERTEX
  8
0
 10
56.039063
 20
792.273132
  0
VERTEX
  8
0
 10
55.822342
 20
791.948669
  0
VERTEX
  8
0
 10
55.746170
 20
791.565979
  0
VERTEX
  8
0
 10
55.822342
 20
791.183350
  0
VERTEX
  8
0
 10
56.039063
 20
790.858887
  0
VERTEX
  8
0
 10
56.363514
 20
790.642090
  0
VERTEX
  8
0
 10
56.746170
 20
790.565979
  0
VERTEX
  8
0
 10
57.128906
 20
790.642090
  0
VERTEX
  8
0
 10
57.453281
 20
790.858887
  0
VERTEX
  8
0
 10
57.670078
 20
791.183350
  0
VERTEX
  8
0
 10
57.746170
 20
791.565979
  0
VERTEX
  8
0
 10
57.670078
 20
791.948669
  0
VERTEX
  8
0
 10
57.453281
 20
792.273132
  0
VERTEX
  8
0
 10
57.128906
 20
792.489929
  0
VERTEX
  8
0
 10
56.746170
 20
792.565979
  0
SEQEND
  8
0
  0
ENDSEC
  0
EOF
